<svg width="78" height="74" viewBox="0 0 78 74" fill="none" xmlns="http://www.w3.org/2000/svg">
<g clip-path="url(#clip0_811_55)">
<path d="M23.1929 47.3529C23.035 47.1752 22.9758 46.9384 23.0745 46.7015C23.1731 46.4844 23.3903 46.3462 23.6271 46.3462H75.2041C76.724 46.3462 77.9675 45.1027 77.9675 43.5828V2.7634C77.9675 1.9936 77.6714 1.28301 77.1187 0.769805C76.5858 0.27634 75.9147 0 75.2041 0H19.9163C19.1465 0 18.4359 0.315818 17.9029 0.868498C17.4095 1.3817 17.1529 2.05281 17.1529 2.7634V18.0213C17.1529 18.2779 16.9752 18.5148 16.7384 18.5938C16.6791 18.6135 16.6199 18.6135 16.5607 18.6135C16.3633 18.6135 16.1857 18.5148 16.0672 18.3569L13.521 14.5671C12.9091 13.6394 11.8629 13.0867 10.7576 13.0867C10.1654 13.0867 9.55351 13.2446 9.04031 13.5604L3.84906 16.6791C2.26997 17.6068 1.12513 19.0872 0.631665 20.844C-1.22376 27.5946 0.197416 39.2798 17.4687 56.5511C29.0552 68.1179 39.4772 74 48.4385 74C48.478 74 48.5372 74 48.5767 74C50.1163 74 51.6559 73.7829 53.1758 73.3881C54.9325 72.8946 56.4129 71.7498 57.3407 70.1707L60.4594 64.9597C61.3673 63.4398 60.9331 61.466 59.4527 60.4791L46.9976 52.1691C46.4647 51.8138 45.8133 51.6164 45.1619 51.6164C44.1158 51.6164 43.1683 52.0704 42.517 52.8797L38.8851 57.538C38.5495 57.992 37.9968 58.2683 37.4047 58.2683C37.0889 58.2683 36.7928 58.1894 36.5164 58.0315L35.8256 57.6564C33.5162 56.3932 30.6541 54.8338 24.8904 49.0702C24.3772 48.5569 23.8443 48.024 23.1929 47.3529ZM74.3158 44.5303C74.2172 44.7474 74 44.8856 73.7632 44.8856H21.3769C21.1401 44.8856 20.9229 44.7474 20.8243 44.5303C20.7256 44.3132 20.765 44.0565 20.9427 43.8986L32.095 31.9568C32.095 31.937 32.1147 31.937 32.1345 31.9173C32.1542 31.8778 32.1739 31.8581 32.1937 31.8384L41.5893 21.7717C41.7077 21.6532 41.8656 21.5743 42.0235 21.5743C42.1617 21.5743 42.2801 21.6138 42.3788 21.6927L45.2804 23.8837C45.9515 24.3772 46.741 24.6338 47.5701 24.6338C48.3991 24.6338 49.1886 24.3772 49.8597 23.8837L52.7613 21.673C52.86 21.594 52.9982 21.5545 53.1166 21.5545C53.2745 21.5545 53.4324 21.6138 53.5508 21.7519L60.9923 29.7263C61.012 29.7461 61.0515 29.7658 61.0713 29.7855L65.8875 34.9571C65.9269 34.9965 65.9664 35.0557 65.9862 35.115L74.1974 43.9184C74.3751 44.0763 74.4145 44.3132 74.3158 44.5303ZM76.191 4.34249C76.3884 4.44118 76.5266 4.63857 76.5266 4.87543V42.7341C76.5266 42.9709 76.3884 43.188 76.1515 43.2867C76.0726 43.3065 76.0134 43.3262 75.9344 43.3262C75.7765 43.3262 75.6186 43.267 75.5002 43.1288L66.9928 34.0293C66.9731 34.0096 66.9534 33.9701 66.9336 33.9504C66.9139 33.9306 66.8941 33.8912 66.8744 33.8714L54.7944 20.9229C54.6759 20.8045 54.6167 20.6268 54.6365 20.4689C54.6562 20.311 54.7352 20.1531 54.8733 20.0544L56.6498 18.7122C56.6695 18.6925 56.6893 18.6925 56.709 18.6727C56.8472 18.5938 56.9459 18.5148 57.0446 18.4556L75.5594 4.40171C75.6581 4.32275 75.7962 4.28328 75.9147 4.28328C76.0134 4.28328 76.1121 4.30301 76.191 4.34249ZM19.2846 1.89491C19.3439 1.65804 19.561 1.50013 19.7978 1.46066C19.8373 1.46066 19.8768 1.46066 19.9163 1.46066H75.2041C75.2436 1.46066 75.3028 1.46066 75.362 1.48039C75.5989 1.51987 75.7962 1.69752 75.8555 1.91464C75.9147 2.15151 75.8357 2.38837 75.6383 2.52654L56.1563 17.291C56.0576 17.37 55.959 17.4292 55.8603 17.4884L48.9518 22.7191C48.5372 23.0152 48.0438 23.1731 47.5503 23.1731C47.0568 23.1731 46.5634 23.0152 46.1489 22.7191L40.0694 18.1003C39.9904 18.0608 39.8917 18.0016 39.8128 17.9424L19.482 2.52654C19.3044 2.36863 19.2057 2.13177 19.2846 1.89491ZM18.5938 4.85569C18.5938 4.63857 18.7122 4.42145 18.9293 4.32275C19.0083 4.28328 19.107 4.26354 19.1859 4.26354C19.3241 4.26354 19.4425 4.30301 19.5412 4.38197L38.9245 19.0872C39.0035 19.1464 39.1022 19.2057 39.2009 19.2649C39.2206 19.2846 39.2404 19.2846 39.2601 19.3043L40.2668 20.0742C40.4049 20.1728 40.4839 20.3308 40.5036 20.4887C40.5234 20.6466 40.4642 20.8242 40.3457 20.9426L31.1475 30.7922C31.1278 30.8514 31.0883 30.8909 31.0488 30.9304L20.0544 42.6946C19.936 42.813 19.7781 42.892 19.6202 42.892H19.6005C19.4228 42.8722 19.2649 42.7933 19.1465 42.6551C18.0806 41.2339 17.1331 39.7338 16.3041 38.1547L15.9291 37.4639C15.4948 36.6743 15.712 35.6479 16.4225 35.0952L21.0809 31.4633C22.4428 30.3974 22.7586 28.4433 21.8112 27.0024L18.6925 22.3046C18.6333 22.2059 18.5938 22.0875 18.5938 21.9691V4.85569ZM35.1545 58.9789L35.8256 59.354C36.319 59.6303 36.8717 59.7685 37.4244 59.7685C38.4508 59.7685 39.4377 59.2947 40.0496 58.4855L43.6815 53.8272C44.0368 53.3732 44.5698 53.1166 45.1619 53.1166C45.537 53.1166 45.8923 53.2153 46.1884 53.4324L58.6434 61.7423C59.4724 62.295 59.729 63.4004 59.2158 64.2491L56.0971 69.4601C55.3668 70.7037 54.2022 71.6314 52.8008 72.0261C51.4191 72.4012 49.9387 72.5986 48.3991 72.5986C44.5895 72.5986 40.4049 71.4142 35.9638 69.1048C30.5356 66.2822 24.6535 61.7226 18.4951 55.5641C9.21795 46.2673 -1.14481 32.8055 2.03311 21.2387C2.42788 19.8373 3.33585 18.653 4.59912 17.9226L9.79037 14.8039C10.0865 14.6263 10.422 14.5473 10.7576 14.5473C11.3892 14.5473 11.9616 14.8632 12.3169 15.3764L20.6269 27.8314C21.1598 28.6407 20.9822 29.7461 20.2124 30.3382L15.554 33.9504C14.271 34.9373 13.896 36.7533 14.6855 38.1744L15.0606 38.8456C15.7909 40.2075 16.6397 41.7274 18.2977 43.8789C18.7912 44.5303 19.3636 45.2014 19.9558 45.912C21.0809 47.195 22.4033 48.6162 23.9035 50.1163C29.8053 56.0379 32.7661 57.6564 35.1545 58.9789Z" fill="url(#paint0_linear_811_55)"/>
</g>
<defs>
<linearGradient id="paint0_linear_811_55" x1="14.2994" y1="54.5702" x2="79.1683" y2="2.34526" gradientUnits="userSpaceOnUse">
<stop stop-color="#FABE3E"/>
<stop offset="0.3618" stop-color="#F63966"/>
<stop offset="1" stop-color="#007AE8"/>
</linearGradient>
<clipPath id="clip0_811_55">
<rect width="77.9675" height="74" fill="white"/>
</clipPath>
</defs>
</svg>
