<svg width="93" height="67" viewBox="0 0 93 67" fill="none" xmlns="http://www.w3.org/2000/svg">
<g clip-path="url(#clip0_811_31)">
<path d="M92.1435 55.652H87.2236C86.8775 55.652 86.6055 55.3801 86.6055 55.0339V5.01882C86.6055 2.24982 84.3557 0 81.5867 0H10.903C8.13395 0 5.88413 2.24982 5.88413 5.01882V55.0339C5.88413 55.3801 5.61218 55.652 5.26605 55.652H0.791144C0.370849 55.652 0 55.9982 0 56.4184V59.5089C0 63.6376 3.36236 67 7.49114 67H85.4683C89.597 67 92.9347 63.6376 92.9347 59.5089V56.4184C92.9347 55.9982 92.5638 55.652 92.1435 55.652ZM7.4417 5.01882C7.4417 3.11513 8.99926 1.55756 10.903 1.55756H81.562C83.4657 1.55756 85.0232 3.11513 85.0232 5.01882V55.0339C85.0232 55.3801 84.7513 55.652 84.4052 55.652H8.05978C7.71365 55.652 7.4417 55.3801 7.4417 55.0339V5.01882ZM55.6026 57.8524C55.5531 59.3605 54.317 60.5472 52.8089 60.5472H40.1258C38.6177 60.5472 37.3815 59.3605 37.3321 57.8524C37.3321 57.6793 37.3815 57.531 37.5052 57.4074C37.6288 57.2838 37.7771 57.2096 37.9502 57.2096H55.0092C55.1823 57.2096 55.3306 57.2838 55.4542 57.4074C55.5531 57.531 55.6026 57.7041 55.6026 57.8524ZM91.3771 59.5336C91.3771 62.797 88.7317 65.4424 85.4683 65.4424H7.49114C4.22767 65.4424 1.55756 62.797 1.55756 59.5336V57.8524C1.55756 57.5063 1.82952 57.2343 2.17565 57.2343H35.1317C35.4779 57.2343 35.7498 57.5063 35.7498 57.8524C35.7993 60.2258 37.7524 62.1295 40.1258 62.1295H52.8089C55.1823 62.1295 57.1354 60.2011 57.1849 57.8524C57.1849 57.5063 57.4568 57.2343 57.803 57.2343H90.759C91.1052 57.2343 91.3771 57.5063 91.3771 57.8524V59.5336Z" fill="url(#paint0_linear_811_31)"/>
<path d="M11.8919 51.9932H80.5978C81.018 51.9932 81.3889 51.6471 81.3889 51.202V6.00794C81.3889 5.58765 81.0428 5.2168 80.5978 5.2168H11.8919C11.4716 5.2168 11.1007 5.56292 11.1007 6.00794V51.2268C11.1007 51.6471 11.4468 51.9932 11.8919 51.9932ZM12.6583 7.39244C12.6583 7.04632 12.9302 6.77436 13.2764 6.77436H79.1885C79.5347 6.77436 79.8066 7.04632 79.8066 7.39244V49.8175C79.8066 50.1637 79.5347 50.4356 79.1885 50.4356H13.2764C12.9302 50.4356 12.6583 50.1637 12.6583 49.8175V7.39244Z" fill="url(#paint1_linear_811_31)"/>
</g>
<defs>
<linearGradient id="paint0_linear_811_31" x1="-0.618056" y1="33.5025" x2="93.5429" y2="33.5025" gradientUnits="userSpaceOnUse">
<stop stop-color="#FABE3E"/>
<stop offset="0.3618" stop-color="#F63966"/>
<stop offset="1" stop-color="#007AE8"/>
</linearGradient>
<linearGradient id="paint1_linear_811_31" x1="10.4901" y1="28.6087" x2="81.9946" y2="28.6087" gradientUnits="userSpaceOnUse">
<stop stop-color="#FABE3E"/>
<stop offset="0.3618" stop-color="#F63966"/>
<stop offset="1" stop-color="#007AE8"/>
</linearGradient>
<clipPath id="clip0_811_31">
<rect width="92.9347" height="67" fill="white"/>
</clipPath>
</defs>
</svg>
