<svg width="60" height="86" viewBox="0 0 60 86" fill="none" xmlns="http://www.w3.org/2000/svg">
<g clip-path="url(#clip0_811_37)">
<path d="M5.59153 4.0293H4.02954V5.59129H5.59153V4.0293Z" fill="url(#paint0_linear_811_37)"/>
<path d="M9.59837 4.0293H8.03638V5.59129H9.59837V4.0293Z" fill="url(#paint1_linear_811_37)"/>
<path d="M13.6278 4.0293H12.0658V5.59129H13.6278V4.0293Z" fill="url(#paint2_linear_811_37)"/>
<path d="M9.59827 38.1669C9.68882 38.0085 9.7341 37.8274 9.68882 37.6689C9.25871 35.6542 9.30399 33.5941 9.77937 31.5568C10.2774 29.542 11.1829 27.6857 12.4732 26.0785C12.6996 25.7842 12.6543 25.3541 12.3827 25.1277C12.2695 25.0372 12.111 24.9692 11.9526 24.9692C11.7488 24.9692 11.5451 25.0598 11.4319 25.2183C10.0057 26.984 9.0097 28.9987 8.4664 31.2172C7.9231 33.4357 7.90046 35.6994 8.35321 37.9179C8.39848 38.1669 8.60222 38.3707 8.85123 38.4386C8.89651 38.4386 8.96442 38.4612 9.0097 38.4612C9.05497 38.4612 9.10025 38.4612 9.14552 38.4386C9.34926 38.4159 9.50772 38.3027 9.59827 38.1669Z" fill="url(#paint3_linear_811_37)"/>
<path d="M15.9594 38.6421C15.3256 37.4423 15.0313 36.1294 15.0313 34.7711C15.0313 30.1078 18.8344 26.3273 23.4977 26.3273C24.9239 26.3273 26.3274 26.6895 27.5499 27.3686C27.6404 27.4139 27.7536 27.4592 27.8668 27.4592C27.9347 27.4592 28.0026 27.4592 28.0479 27.4366C28.229 27.3913 28.3648 27.2781 28.4554 27.1196C28.5459 26.9612 28.5685 26.7801 28.5233 26.599C28.478 26.4179 28.3648 26.282 28.2063 26.1915C26.7802 25.3992 25.1503 24.9917 23.4977 24.9917C18.0874 24.9917 13.6957 29.3834 13.6957 34.7938C13.6957 36.3784 14.0579 37.8951 14.7823 39.276C14.8955 39.5024 15.1218 39.6382 15.3935 39.6382C15.5067 39.6382 15.5972 39.6155 15.7104 39.5703C15.8689 39.4797 15.9821 39.3439 16.05 39.1854C16.05 38.9817 16.0273 38.8006 15.9594 38.6421Z" fill="url(#paint4_linear_811_37)"/>
<path d="M48.1501 77.3976C49.3725 74.2963 50.0064 71.0365 50.0516 67.6861V63.8604V50.5948C50.0516 48.1725 48.0822 46.2031 45.66 46.2031C44.7997 46.2031 43.9395 46.4747 43.2151 46.9501C43.1472 46.9954 43.0566 47.018 42.9661 47.018C42.8982 47.018 42.8529 47.018 42.8076 46.9954C42.6718 46.9501 42.5586 46.8143 42.536 46.6785C42.1285 44.8448 40.6118 43.4639 38.7555 43.2602C38.5518 43.2376 38.3933 43.2149 38.2575 43.2149C38.1217 43.2149 37.9632 43.2149 37.7368 43.2602C37.3067 43.3055 36.8992 43.4187 36.5144 43.5998C36.1296 43.7582 35.7674 43.9846 35.4504 44.2789C35.3599 44.3468 35.2693 44.3921 35.1561 44.3921C35.1335 44.3921 35.0882 44.3921 35.0656 44.3921C34.9298 44.3694 34.8166 44.2789 34.7487 44.1657C34.5676 43.8261 34.3638 43.5318 34.0922 43.2376C33.2546 42.3094 32.0774 41.7888 30.8324 41.7888C29.9948 41.7888 29.2025 42.0151 28.5007 42.4679C28.4328 42.5132 28.3422 42.5358 28.2517 42.5358C28.1838 42.5358 28.0932 42.5132 28.0253 42.4905C27.8895 42.4 27.7989 42.2641 27.7989 42.083V33.6392C27.7989 31.217 25.8295 29.2476 23.4073 29.2476C20.985 29.2476 19.0156 31.217 19.0156 33.6392V58.699C19.0156 58.8801 18.9024 59.0612 18.7213 59.1291C18.676 59.1517 18.6081 59.1517 18.5628 59.1517C18.4496 59.1517 18.3138 59.1065 18.2233 59.0159L13.5373 53.9225C12.6771 52.9717 11.432 52.4284 10.1643 52.4284C9.10034 52.4284 8.05901 52.8132 7.22142 53.4924C5.38778 55.0091 5.02558 57.6577 6.3612 59.6045L16.0727 73.7982C17.68 76.1299 20.0569 77.8051 22.796 78.5295C22.9998 78.5748 23.1356 78.7559 23.1356 78.9596V85.3887C23.1356 85.7509 23.4299 86.0678 23.8147 86.0678C24.1996 86.0678 24.4939 85.7735 24.4939 85.3887V78.4842C24.4939 77.9183 24.109 77.4429 23.5657 77.3297C20.9624 76.7638 18.6987 75.247 17.2046 73.0512L7.49307 58.8575C6.5423 57.4766 6.79131 55.6203 8.10429 54.5337C8.69286 54.0583 9.41727 53.7867 10.1869 53.7867C11.0924 53.7867 11.9527 54.1715 12.5639 54.828L18.2685 61.0307C18.4949 61.2797 18.8118 61.4155 19.1514 61.4155C19.3099 61.4155 19.4457 61.3929 19.6042 61.3249C20.0795 61.1438 20.3738 60.6911 20.3738 60.1931V33.5487C20.3738 31.8735 21.7321 30.5153 23.4073 30.5153C25.0824 30.5153 26.4407 31.8735 26.4407 33.5487V53.764C26.4407 54.1262 26.735 54.4431 27.1198 54.4431C27.5047 54.4431 27.7989 54.1488 27.7989 53.764V46.0899C27.7989 44.4147 29.1572 43.0565 30.8324 43.0565C32.5076 43.0565 33.8658 44.4147 33.8658 46.0899V53.764C33.8658 54.1262 34.1601 54.4431 34.5449 54.4431C34.9298 54.4431 35.2241 54.1488 35.2241 53.764V47.584C35.2241 45.9088 36.5823 44.5505 38.2575 44.5505C39.9327 44.5505 41.2909 45.9088 41.2909 47.584V53.764C41.2909 54.1262 41.5852 54.4431 41.97 54.4431C42.3549 54.4431 42.6492 54.1488 42.6492 53.764V50.5721C42.6492 48.8969 44.0074 47.5387 45.6826 47.5387C47.3578 47.5387 48.716 48.8969 48.716 50.5721V63.8377V67.6635C48.6708 70.8554 48.0595 73.9567 46.905 76.8996L46.6107 77.624C46.4296 78.0767 46.3391 78.5747 46.3391 79.0728V85.2981C46.3391 85.6603 46.6334 85.9772 47.0182 85.9772C47.3804 85.9772 47.6973 85.6829 47.6973 85.2981V79.0728C47.6973 78.7559 47.7653 78.4163 47.8784 78.122L48.1501 77.3976Z" fill="url(#paint5_linear_811_37)"/>
<path d="M36.0163 28.8177C36.8992 30.6739 37.3519 32.6887 37.3519 34.7713C37.3519 36.854 36.8992 38.8687 36.0163 40.725C35.9484 40.8835 35.9258 41.0646 35.9937 41.2457C36.0616 41.4041 36.1748 41.5399 36.3332 41.6305C36.4238 41.6758 36.5143 41.6984 36.6275 41.6984C36.8765 41.6984 37.1256 41.5399 37.2387 41.3136C38.2122 39.2536 38.7102 37.0577 38.7102 34.7713C38.7102 32.4849 38.2122 30.2891 37.2387 28.2291C37.1708 28.0706 37.035 27.9348 36.8539 27.8895C36.786 27.8669 36.6954 27.8442 36.6275 27.8442C36.537 27.8442 36.4238 27.8669 36.3332 27.9122C35.9937 28.0933 35.8579 28.5007 36.0163 28.8177Z" fill="url(#paint6_linear_811_37)"/>
<path d="M31.9189 34.7712C31.9189 36.1294 31.602 37.4424 30.9908 38.6422C30.9002 38.8007 30.9002 38.9818 30.9455 39.1629C30.9908 39.344 31.1266 39.4798 31.285 39.5477C31.3756 39.593 31.4888 39.6156 31.602 39.6156C31.851 39.6156 32.0774 39.4798 32.1905 39.2534C32.9149 37.8499 33.2771 36.3558 33.2771 34.7712C33.2771 32.6206 32.598 30.5832 31.3077 28.8854C31.1945 28.7496 31.036 28.659 30.8549 28.6138C30.8323 28.6138 30.787 28.6138 30.7644 28.6138C30.6286 28.6138 30.4701 28.659 30.3569 28.7496C30.2211 28.8628 30.1079 29.0212 30.0852 29.2023C30.0626 29.3834 30.1079 29.5645 30.2211 29.7004C31.3303 31.1718 31.9189 32.9375 31.9189 34.7712Z" fill="url(#paint7_linear_811_37)"/>
<path d="M59.8536 2.78442C59.8536 1.24506 58.6086 0 57.0692 0H2.78442C1.2677 0 0 1.24506 0 2.78442V39.9779C0 41.5172 1.2677 42.7623 2.78442 42.7623H15.0313C14.9408 42.1511 14.6238 41.5852 14.1258 41.2003H2.78442C2.10529 41.2003 1.56199 40.657 1.56199 39.9779V10.0511C1.56199 9.80205 1.76573 9.59832 2.01474 9.59832H57.8615C58.1106 9.59832 58.3143 9.80205 58.3143 10.0511V39.9779C58.3143 40.657 57.771 41.2003 57.0919 41.2003H45.7278C45.3883 41.472 45.1392 41.8115 44.9808 42.1964C44.9129 42.3775 44.845 42.5586 44.8223 42.7623H57.0692C58.6086 42.7623 59.8536 41.5172 59.8536 39.9779V2.78442ZM58.3143 7.58357C58.3143 7.83259 58.1106 8.03633 57.8615 8.03633H2.01474C1.76573 8.03633 1.56199 7.83259 1.56199 7.58357V2.78442C1.56199 2.10529 2.10529 1.56199 2.78442 1.56199H57.0692C57.7484 1.56199 58.2917 2.10529 58.2917 2.78442V7.58357H58.3143Z" fill="url(#paint8_linear_811_37)"/>
</g>
<defs>
<linearGradient id="paint0_linear_811_37" x1="1.46007" y1="4.79945" x2="57.8246" y2="4.79945" gradientUnits="userSpaceOnUse">
<stop stop-color="#FABE3E"/>
<stop offset="0.3618" stop-color="#F63966"/>
<stop offset="1" stop-color="#007AE8"/>
</linearGradient>
<linearGradient id="paint1_linear_811_37" x1="1.9321" y1="4.79945" x2="59.4323" y2="4.79945" gradientUnits="userSpaceOnUse">
<stop stop-color="#FABE3E"/>
<stop offset="0.3618" stop-color="#F63966"/>
<stop offset="1" stop-color="#007AE8"/>
</linearGradient>
<linearGradient id="paint2_linear_811_37" x1="1.49805" y1="4.79945" x2="59.0224" y2="4.79945" gradientUnits="userSpaceOnUse">
<stop stop-color="#FABE3E"/>
<stop offset="0.3618" stop-color="#F63966"/>
<stop offset="1" stop-color="#007AE8"/>
</linearGradient>
<linearGradient id="paint3_linear_811_37" x1="1.50511" y1="31.723" x2="58.5922" y2="31.723" gradientUnits="userSpaceOnUse">
<stop stop-color="#FABE3E"/>
<stop offset="0.3618" stop-color="#F63966"/>
<stop offset="1" stop-color="#007AE8"/>
</linearGradient>
<linearGradient id="paint4_linear_811_37" x1="1.13984" y1="32.3048" x2="59.3674" y2="32.3048" gradientUnits="userSpaceOnUse">
<stop stop-color="#FABE3E"/>
<stop offset="0.3618" stop-color="#F63966"/>
<stop offset="1" stop-color="#007AE8"/>
</linearGradient>
<linearGradient id="paint5_linear_811_37" x1="5.13399" y1="57.5796" x2="50.5037" y2="57.5796" gradientUnits="userSpaceOnUse">
<stop stop-color="#FABE3E"/>
<stop offset="0.3618" stop-color="#F63966"/>
<stop offset="1" stop-color="#007AE8"/>
</linearGradient>
<linearGradient id="paint6_linear_811_37" x1="2.03929" y1="34.7808" x2="58.9879" y2="34.7808" gradientUnits="userSpaceOnUse">
<stop stop-color="#FABE3E"/>
<stop offset="0.3618" stop-color="#F63966"/>
<stop offset="1" stop-color="#007AE8"/>
</linearGradient>
<linearGradient id="paint7_linear_811_37" x1="1.60867" y1="34.1248" x2="59.221" y2="34.1248" gradientUnits="userSpaceOnUse">
<stop stop-color="#FABE3E"/>
<stop offset="0.3618" stop-color="#F63966"/>
<stop offset="1" stop-color="#007AE8"/>
</linearGradient>
<linearGradient id="paint8_linear_811_37" x1="-0.452751" y1="21.3868" x2="60.3176" y2="21.3868" gradientUnits="userSpaceOnUse">
<stop stop-color="#FABE3E"/>
<stop offset="0.3618" stop-color="#F63966"/>
<stop offset="1" stop-color="#007AE8"/>
</linearGradient>
<clipPath id="clip0_811_37">
<rect width="59.8536" height="86" fill="white"/>
</clipPath>
</defs>
</svg>
