<svg width="56" height="56" viewBox="0 0 56 56" fill="none" xmlns="http://www.w3.org/2000/svg">
<g clip-path="url(#clip0_868_1138)">
<path d="M50.8209 18.3821L53.6522 15.5508L49.3697 11.2683L46.5384 14.0996C46.012 13.8293 45.4713 13.6016 44.9164 13.4309V9.4187H38.8412V13.4309C38.2863 13.6016 37.7315 13.8293 37.2193 14.0996L34.388 11.2683L30.1055 15.5508L32.9368 18.3821C32.6664 18.9085 32.4388 19.4492 32.2681 20.0041H28.2559V26.065H32.2681C32.4388 26.6199 32.6664 27.1748 32.9368 27.687L30.1055 30.5183L34.388 34.8008L37.2193 31.9695C37.7457 32.2398 38.2863 32.4675 38.8412 32.6382V36.6504H44.9022V32.6382C45.4571 32.4675 46.012 32.2398 46.5242 31.9695L49.3555 34.8008L53.638 30.5183L50.8067 27.687C51.077 27.1606 51.3046 26.6199 51.4754 26.065H55.4876V20.0041H51.4754C51.3189 19.4492 51.0912 18.9085 50.8209 18.3821ZM54.1502 24.7134H50.4652L50.3372 25.2256C50.138 26.0224 49.825 26.7764 49.4124 27.4736L49.142 27.9289L51.7457 30.5325L49.3697 32.9085L46.766 30.3049L46.3107 30.5752C45.6136 30.9878 44.8595 31.3008 44.0628 31.5L43.5506 31.6281V35.313H40.1929V31.6281L39.6807 31.5C38.8839 31.3008 38.1298 30.9878 37.4327 30.5752L36.9774 30.3049L34.3737 32.9085L32.012 30.5325L34.6156 27.9289L34.3453 27.4736C33.9327 26.7764 33.6197 26.0224 33.4205 25.2256L33.2924 24.7134H29.6075V21.3557H33.2924L33.4205 20.8435C33.6197 20.0468 33.9327 19.2927 34.3453 18.5955L34.6156 18.1402L32.012 15.5508L34.388 13.1748L36.9916 15.7927L37.4469 15.5224C38.1441 15.1098 38.8981 14.7968 39.6949 14.5976L40.2071 14.4695V10.7703H43.5648V14.4553L44.077 14.5833C44.8737 14.7825 45.6278 15.0955 46.325 15.5081L46.7802 15.7785L49.3697 13.1748L51.7457 15.5508L49.142 18.1545L49.4124 18.6098C49.825 19.3069 50.138 20.061 50.3372 20.8577L50.4652 21.3699H54.1502V24.7134Z" fill="#017038"/>
<path d="M41.8715 18.8374C39.5524 18.8374 37.6602 20.7297 37.6602 23.0488C37.6602 25.3679 39.5524 27.2602 41.8715 27.2602C44.1906 27.2602 46.0829 25.3679 46.0829 23.0488C46.0829 20.7297 44.1906 18.8374 41.8715 18.8374ZM41.8715 25.8943C40.2923 25.8943 39.0118 24.6138 39.0118 23.0346C39.0118 21.4553 40.2923 20.1748 41.8715 20.1748C43.4508 20.1748 44.7313 21.4553 44.7313 23.0346C44.7313 24.6138 43.4508 25.8943 41.8715 25.8943Z" fill="#017038"/>
<path d="M50.1098 0H5.39228C2.4187 0 0 2.4187 0 5.39228V39.5244H1.35163V5.39228C1.35163 3.17276 3.15854 1.36585 5.37805 1.36585H50.1098C52.3293 1.36585 54.1362 3.17276 54.1362 5.39228V10.1016H55.4878V5.39228C55.502 2.4187 53.0833 0 50.1098 0Z" fill="#017038"/>
<path d="M54.1513 50.1098C54.1513 52.3293 52.3444 54.1362 50.1249 54.1362H26.5781V55.4878H50.1249C53.0984 55.4878 55.5172 53.0691 55.5172 50.0955V34.815H54.1655V50.1098H54.1513Z" fill="#017038"/>
<path d="M31.2861 9.4187H4.21094V10.7703H31.2861V9.4187Z" fill="#017038"/>
<path d="M7.74014 4.70935H5.39258V6.06098H7.74014V4.70935Z" fill="#017038"/>
<path d="M12.4491 4.70935H10.1016V6.06098H12.4491V4.70935Z" fill="#017038"/>
<path d="M50.1093 4.70935H47.7617V6.06098H50.1093V4.70935Z" fill="#017038"/>
<path d="M17.1585 41.2033C16.9024 41.2033 14.8394 41.1179 14.3841 39.1687C16.4472 37.6748 17.8272 34.7297 17.8272 31.2581V28.8537L17.813 28.7683C17.7988 28.7114 16.4472 23.5468 11.2683 23.5468C6.08943 23.5468 4.7378 28.7114 4.72358 28.7683L4.70935 28.8537V31.2581C4.70935 34.7297 6.08943 37.6748 8.15244 39.1687C7.69715 41.1321 5.64837 41.2033 5.39228 41.2033C2.4187 41.2033 0 43.6077 0 46.5813V56H1.35163V46.5813C1.35163 44.3618 3.15854 42.5549 5.37805 42.5549C5.42073 42.5549 6.43089 42.5549 7.44106 42.0427C8.16667 41.687 8.97764 41.0183 9.36179 39.8374C9.95935 40.0793 10.5996 40.2073 11.2541 40.2073C11.9085 40.2073 12.5488 40.0793 13.1463 39.8374C14 42.5122 17.1016 42.5549 17.1443 42.5549C19.3638 42.5549 21.1707 44.3618 21.1707 46.5813V56H22.5224V46.5813C22.5366 43.6077 20.1321 41.2033 17.1585 41.2033ZM11.2683 38.8415C10.6707 38.8415 10.1159 38.6992 9.58943 38.4431C9.58943 38.4004 9.58943 38.372 9.58943 38.3293H9.37602C7.4126 37.248 6.06098 34.5163 6.06098 31.2297V29.0244C6.23171 28.4411 7.4126 24.8984 11.2683 24.8984C15.124 24.8984 16.3049 28.4411 16.4756 29.0244V31.2581C16.4756 34.5447 15.1098 37.2764 13.1606 38.3577H12.9472C12.9472 38.4004 12.9472 38.4289 12.9472 38.4715C12.4207 38.6992 11.8659 38.8415 11.2683 38.8415Z" fill="#017038"/>
<path d="M6.06061 47.7622H4.70898V56H6.06061V47.7622Z" fill="#017038"/>
<path d="M17.8282 47.7622H16.4766V56H17.8282V47.7622Z" fill="#017038"/>
<path d="M29.4219 43.5508V49.6118H49.6109V43.5508H29.4219ZM48.2593 48.2602H30.7877V44.9024H48.2593V48.2602Z" fill="#017038"/>
<path d="M26.5764 14.1281H8.91992V15.4797H26.5764V14.1281Z" fill="#017038"/>
<path d="M24.2301 18.8374H18.3398V20.189H24.2301V18.8374Z" fill="#017038"/>
<path d="M15.9784 18.8374H13.6309V20.189H15.9784V18.8374Z" fill="#017038"/>
</g>
<defs>
<clipPath id="clip0_868_1138">
<rect width="55.502" height="56" fill="white"/>
</clipPath>
</defs>
</svg>
