<svg width="64" height="62" viewBox="0 0 64 62" fill="none" xmlns="http://www.w3.org/2000/svg">
<g clip-path="url(#clip0_838_561)">
<path d="M61.9171 45.9924C61.2089 45.4066 60.3657 45.3608 59.2544 45.6402C59.3138 45.3908 59.3523 45.1366 59.3411 44.8713C59.317 44.2823 59.0745 43.4202 58.0595 42.656C58.0435 42.6434 58.0242 42.6386 58.0065 42.6276V0.941069C58.0065 0.421586 57.5793 0 57.051 0H23.9035C23.6497 0 23.4072 0.0978964 23.2273 0.274742L13.0277 10.3028C12.8495 10.4781 12.7483 10.7181 12.7483 10.9676V40.3902C11.5872 40.3665 10.3618 40.3491 8.99512 40.3491H0.95556C0.427192 40.3491 0 40.7691 0 41.2886V58.1994C0 58.7189 0.427192 59.1405 0.95556 59.1405H8.84255C10.0519 59.5273 18.2054 62.0016 28.7519 62.0016C38.587 62.0016 50.4986 59.8463 60.772 51.8393C61.0001 51.6846 63.014 50.2651 63.1039 48.4035C63.1328 47.7766 62.953 46.8497 61.9155 45.9955L61.9171 45.9924ZM8.03956 57.2583H1.91112V42.2297H8.03956V57.2583ZM56.8952 44.1481C57.4123 44.5381 57.4236 44.8444 57.4284 44.9455C57.446 45.4002 57.0349 46.0587 56.3604 46.6839C56.1468 46.7724 55.9428 46.8561 55.7164 46.9508C53.1516 48.0245 49.4964 49.5498 44.3862 50.8066C44.497 50.4909 44.5484 50.1861 44.5677 49.9066C44.5998 49.384 44.5644 48.9087 44.4986 48.4571C47.5307 47.6045 50.1581 46.5182 52.2876 45.6197C54.0381 44.8792 56.4359 43.8655 56.8968 44.1465L56.8952 44.1481ZM22.9479 3.20848V10.0265H16.0133L22.9479 3.20848ZM14.661 11.907H23.9035C24.4318 11.907 24.859 11.4855 24.859 10.966V1.87898H56.0938V42.2897C54.9391 42.4602 53.468 43.0744 51.5312 43.8923C49.429 44.7781 46.8385 45.8534 43.8835 46.6761C43.7197 46.4155 43.535 46.1724 43.3166 45.956C41.9836 44.6439 40.1127 44.7371 40.0741 44.7371C31.2717 44.8792 29.7894 44.0234 28.0678 43.0286C26.2145 41.9597 24.1235 40.7723 14.6594 40.4407V11.907H14.661ZM61.1944 48.3103C61.1591 49.1061 60.0638 50.0298 59.635 50.3266C40.0805 65.5637 14.3222 58.8152 9.95068 57.511V42.2312C23.0073 42.2897 25.1786 43.5418 27.101 44.6518C29.0731 45.7887 30.7674 46.7645 40.1464 46.6145C40.156 46.6145 41.2385 46.5718 41.9611 47.2855C42.4927 47.8098 42.7256 48.6545 42.6549 49.7945C42.6373 50.0724 42.5859 50.9124 40.8964 51.5788C40.8835 51.5819 40.8739 51.593 40.8627 51.5977C40.8546 51.6009 40.8482 51.5977 40.8402 51.6009C39.0527 52.2846 35.1084 52.8704 26.4843 51.7746C25.9559 51.7035 25.4789 52.0714 25.4131 52.5862C25.3456 53.1009 25.715 53.5714 26.2386 53.6393C29.5212 54.0578 32.3702 54.2662 34.7792 54.2662C37.625 54.2662 39.8413 53.9693 41.4248 53.3867C41.428 53.3867 41.4328 53.3867 41.436 53.3867C48.5248 52.0035 53.301 50.0077 56.4648 48.6861C58.4241 47.865 60.2774 47.0992 60.6869 47.4355C61.1607 47.8271 61.2024 48.1255 61.196 48.315L61.1944 48.3103Z" fill="url(#paint0_linear_838_561)"/>
<path d="M4.97534 46.2592C5.5037 46.2592 5.9325 45.8376 5.9325 45.3182C5.9325 44.7987 5.50531 44.3771 4.97534 44.3771C4.44536 44.3771 4.01978 44.7987 4.01978 45.3182C4.01978 45.8376 4.44697 46.2592 4.97534 46.2592Z" fill="url(#paint1_linear_838_561)"/>
<path d="M47.558 29.4874C47.6704 28.9805 47.3444 28.4784 46.8273 28.3679C46.3214 28.2605 45.8027 28.5795 45.6903 29.0863C44.6432 33.7917 40.3231 37.2054 35.4152 37.2054C29.616 37.2054 24.8976 32.5664 24.8976 26.8663C24.8976 21.1662 29.616 16.5256 35.4152 16.5256C37.8258 16.5256 40.1817 17.3482 42.0463 18.8388C42.4574 19.1672 43.058 19.1088 43.3921 18.703C43.7245 18.3003 43.6635 17.7082 43.254 17.3798C41.049 15.6161 38.2642 14.6434 35.4152 14.6434C28.5608 14.6434 22.9849 20.1256 22.9849 26.8647C22.9849 33.6038 28.5608 39.086 35.4152 39.086C41.2144 39.086 46.3214 35.0485 47.558 29.4874Z" fill="url(#paint2_linear_838_561)"/>
<path d="M30.1363 25.9709C29.7621 25.603 29.1583 25.603 28.7841 25.9709C28.4099 26.3388 28.4099 26.9325 28.7841 27.3004L35.1582 33.5674C35.3365 33.7426 35.579 33.8421 35.8343 33.8421C36.0897 33.8421 36.3306 33.7426 36.5105 33.5674L50.5339 19.7782C50.9081 19.4103 50.9081 18.815 50.5339 18.4471C50.1597 18.0808 49.5559 18.0808 49.1817 18.4471L35.8343 31.5716L30.1363 25.9693V25.9709Z" fill="url(#paint3_linear_838_561)"/>
</g>
<defs>
<linearGradient id="paint0_linear_838_561" x1="0" y1="31" x2="63.1071" y2="31" gradientUnits="userSpaceOnUse">
<stop stop-color="#EFB33E"/>
<stop offset="0.36" stop-color="#EB3966"/>
<stop offset="1" stop-color="#007ADD"/>
</linearGradient>
<linearGradient id="paint1_linear_838_561" x1="0.475369" y1="45.3197" x2="62.6366" y2="45.3197" gradientUnits="userSpaceOnUse">
<stop stop-color="#EFB33E"/>
<stop offset="0.36" stop-color="#EB3966"/>
<stop offset="1" stop-color="#007ADD"/>
</linearGradient>
<linearGradient id="paint2_linear_838_561" x1="0.976473" y1="26.8647" x2="64.257" y2="26.8647" gradientUnits="userSpaceOnUse">
<stop stop-color="#EFB33E"/>
<stop offset="0.36" stop-color="#EB3966"/>
<stop offset="1" stop-color="#007ADD"/>
</linearGradient>
<linearGradient id="paint3_linear_838_561" x1="0.794978" y1="26.0088" x2="63.6949" y2="26.0088" gradientUnits="userSpaceOnUse">
<stop stop-color="#EFB33E"/>
<stop offset="0.36" stop-color="#EB3966"/>
<stop offset="1" stop-color="#007ADD"/>
</linearGradient>
<clipPath id="clip0_838_561">
<rect width="63.1071" height="62" fill="white"/>
</clipPath>
</defs>
</svg>
