<svg width="38" height="35" viewBox="0 0 38 35" fill="none" xmlns="http://www.w3.org/2000/svg">
<g clip-path="url(#clip0_866_561)">
<path d="M6.73556 3.81334C6.73556 2.80257 5.90858 1.97559 4.89781 1.97559C3.88705 1.97559 3.06006 2.80257 3.06006 3.81334C3.06006 4.8241 3.88705 5.65109 4.89781 5.65109C5.90858 5.6419 6.73556 4.8241 6.73556 3.81334ZM4.15352 3.81334C4.15352 3.40903 4.48432 3.06905 4.89781 3.06905C5.31131 3.06905 5.6421 3.39984 5.6421 3.81334C5.6421 4.22683 5.31131 4.55763 4.89781 4.55763C4.48432 4.55763 4.15352 4.21764 4.15352 3.81334Z" fill="url(#paint0_linear_866_561)"/>
<path d="M9.25328 5.64181C10.264 5.64181 11.091 4.81483 11.091 3.80406C11.091 2.7933 10.264 1.96631 9.25328 1.96631C8.24252 1.96631 7.41553 2.7933 7.41553 3.80406C7.41553 4.81483 8.24252 5.64181 9.25328 5.64181ZM9.25328 3.06896C9.65759 3.06896 9.99757 3.39976 9.99757 3.81325C9.99757 4.22674 9.66677 4.55754 9.25328 4.55754C8.84897 4.55754 8.50899 4.22674 8.50899 3.81325C8.50899 3.39976 8.84897 3.06896 9.25328 3.06896Z" fill="url(#paint1_linear_866_561)"/>
<path d="M13.6175 5.64181C14.6283 5.64181 15.4553 4.81483 15.4553 3.80406C15.4553 2.7933 14.6283 1.96631 13.6175 1.96631C12.6068 1.96631 11.7798 2.7933 11.7798 3.80406C11.7798 4.81483 12.6068 5.64181 13.6175 5.64181ZM13.6175 3.06896C14.0218 3.06896 14.3618 3.39976 14.3618 3.81325C14.3618 4.22674 14.031 4.55754 13.6175 4.55754C13.2132 4.55754 12.8732 4.22674 12.8732 3.81325C12.8732 3.39976 13.204 3.06896 13.6175 3.06896Z" fill="url(#paint2_linear_866_561)"/>
<path d="M19.6729 4.35558H32.9966C33.2998 4.35558 33.5479 4.10748 33.5479 3.80426C33.5479 3.50103 33.2998 3.25293 32.9966 3.25293H19.6729C19.3697 3.25293 19.1216 3.50103 19.1216 3.80426C19.1216 4.10748 19.3697 4.35558 19.6729 4.35558Z" fill="url(#paint3_linear_866_561)"/>
<path d="M35.0643 0H2.288C1.02914 0 0 1.01995 0 2.288V32.7212C0 33.98 1.02914 35.0092 2.288 35.0092H35.0643C36.3232 35.0092 37.3523 33.98 37.3523 32.7212V2.288C37.3431 1.01995 36.3232 0 35.0643 0ZM36.2497 32.7212C36.2497 33.3736 35.7167 33.9065 35.0551 33.9065H2.288C1.6356 33.9065 1.10265 33.3736 1.10265 32.7212V7.61749H36.2589V32.7212H36.2497ZM36.2497 6.52402H1.09346V2.288C1.09346 1.6356 1.62641 1.10265 2.27881 1.10265H35.0551C35.7075 1.10265 36.2497 1.6356 36.2497 2.288V6.52402Z" fill="url(#paint4_linear_866_561)"/>
<path d="M30.9571 8.98682H26.179C25.2233 8.98682 24.4515 9.76786 24.4515 10.7235V11.3851C23.891 11.5597 23.4499 12.0099 23.2661 12.5704L14.7206 12.6072C14.546 12.0467 14.0957 11.6056 13.5352 11.431V10.7511C13.5352 9.79543 12.7634 9.01438 11.8077 9.01438H7.02957C6.07394 9.01438 5.29289 9.78624 5.29289 10.7511V15.5292C5.29289 16.4848 6.06475 17.2567 7.02957 17.2567H7.69116C7.86575 17.8172 8.316 18.2583 8.87651 18.4421V20.6749C8.87651 21.8235 9.81376 22.77 10.9715 22.77H16.1264C16.301 23.3305 16.7513 23.7715 17.3118 23.9553V24.6537C17.3118 25.5909 18.0745 26.3444 19.0025 26.3444H19.7468C19.903 26.8957 20.3165 27.3368 20.8403 27.5389C20.6841 27.8513 20.3625 28.0719 19.9857 28.0719H14.1417C14.0038 27.4379 13.526 26.9325 12.9196 26.7395V26.0779C12.9196 25.1223 12.1385 24.3504 11.1921 24.3504H6.41392C5.45829 24.3504 4.67725 25.1223 4.67725 26.0779V30.8561C4.67725 31.8117 5.45829 32.5836 6.41392 32.5836H11.1921C12.1477 32.5836 12.9196 31.8117 12.9196 30.8561V30.1945C13.4249 30.0291 13.8384 29.6523 14.0498 29.1653H19.9857C20.9505 29.1653 21.7592 28.4946 21.9797 27.5941C22.5861 27.4287 23.0548 26.9508 23.2294 26.3536H23.8542C24.7914 26.3536 25.5449 25.5909 25.5449 24.6628V19.802C25.5449 18.8647 24.7823 18.1113 23.8542 18.1113H19.0025C18.0653 18.1113 17.3118 18.8739 17.3118 19.802V20.5003C16.7513 20.6749 16.3102 21.1252 16.1264 21.6857H10.9715C10.4202 21.6857 9.96997 21.2354 9.96997 20.6933V18.4604C10.5305 18.2858 10.9715 17.8356 11.1553 17.2751H11.8169C12.7725 17.2751 13.5444 16.5032 13.5444 15.5476V14.886C14.1049 14.7114 14.546 14.2612 14.7298 13.7007L23.2753 13.6639C23.4499 14.2244 23.9001 14.6655 24.4607 14.8401V15.5016C24.4607 16.4573 25.2325 17.2291 26.1881 17.2291H30.9663C31.9219 17.2291 32.703 16.4481 32.703 15.5016V10.7235C32.6846 9.75867 31.9127 8.98682 30.9571 8.98682ZM11.8077 30.8561C11.8077 31.2052 11.5229 31.4901 11.1737 31.4901H6.39554C6.04637 31.4901 5.76152 31.2052 5.76152 30.8561V26.0779C5.76152 25.7287 6.04637 25.4439 6.39554 25.4439H11.1737C11.5229 25.4439 11.8077 25.7287 11.8077 26.0779V26.7395C10.1078 27.2816 10.1354 29.6615 11.8077 30.1945V30.8561ZM12.3591 29.1837C11.9639 29.1837 11.6423 28.8621 11.6423 28.467C11.6423 28.0719 11.9639 27.7503 12.3591 27.7503C12.7542 27.7503 13.0758 28.0719 13.0758 28.467C13.0758 28.8621 12.7542 29.1837 12.3591 29.1837ZM21.4743 26.5649C21.0792 26.5649 20.7576 26.2433 20.7576 25.8482C20.8495 24.865 22.1083 24.9018 22.191 25.8482C22.191 26.2433 21.8694 26.5649 21.4743 26.5649ZM18.3869 19.7928C18.3869 19.462 18.6534 19.1955 18.9842 19.1955H23.8358C24.1666 19.1955 24.4331 19.462 24.4331 19.7928V24.6537C24.4331 24.9845 24.1666 25.2509 23.8358 25.2509H23.1742C22.6045 23.6153 20.3073 23.6337 19.7468 25.2509H18.975C18.6442 25.2509 18.3777 24.9845 18.3777 24.6537V23.9553C18.4971 23.9186 18.6074 23.8726 18.7085 23.8083C18.7177 23.7991 19.6366 23.3305 19.6366 22.2278C19.6366 21.4468 19.1312 20.7392 18.3685 20.5003V19.7928H18.3869ZM17.9458 21.5111C18.295 21.5662 18.5523 21.8603 18.5523 22.2186C18.5523 22.6138 18.2307 22.9354 17.8356 22.9354C17.4404 22.9354 17.1188 22.6138 17.1188 22.2186C17.1188 21.7868 17.5139 21.4468 17.9458 21.5111ZM9.40946 17.4405C8.97759 17.4405 8.62841 17.0546 8.70192 16.6135C8.75706 16.2643 9.0511 16.007 9.40946 16.007C9.80458 16.007 10.1262 16.3286 10.1262 16.7238C10.1354 17.1097 9.81376 17.4405 9.40946 17.4405ZM12.4418 15.5292C12.4418 15.8784 12.1569 16.1632 11.8077 16.1632H11.1461C10.8613 15.2719 9.96078 14.7482 9.0511 14.9319C9.04191 14.9319 8.03114 15.0973 7.68197 16.1632H7.02038C6.67121 16.1632 6.37717 15.8784 6.37717 15.5292V10.7511C6.37717 10.4019 6.66202 10.117 7.02038 10.117H11.7985C12.1477 10.117 12.4326 10.4019 12.4326 10.7511V11.4126C11.6607 11.6607 11.1278 12.3867 11.1645 13.232C11.1645 13.2412 11.1737 14.4725 12.4326 14.8676V15.5292H12.4418ZM12.9931 13.8569C12.598 13.8569 12.2764 13.5353 12.2764 13.1401C12.2764 12.745 12.598 12.4234 12.9931 12.4234C13.3882 12.4234 13.7098 12.745 13.7098 13.1401C13.7098 13.5353 13.3882 13.8569 12.9931 13.8569ZM24.9936 13.8201C24.5985 13.8201 24.2769 13.4985 24.2769 13.1034C24.2769 12.7083 24.5985 12.3867 24.9936 12.3867C25.3887 12.3867 25.7103 12.7083 25.7103 13.1034C25.7103 13.5077 25.3887 13.8201 24.9936 13.8201ZM31.5911 15.4925C31.5911 15.8416 31.3063 16.1265 30.9571 16.1265H26.179C25.8298 16.1265 25.5449 15.8416 25.5449 15.4925V14.8309C26.326 14.5828 26.8497 13.8385 26.813 13.0115C26.7946 12.6348 26.6568 12.2856 26.4362 12.0007C26.2157 11.7159 25.9125 11.4953 25.5449 11.3759V10.7143C25.5449 10.3651 25.8298 10.0803 26.179 10.0803H30.9571C31.3063 10.0803 31.5911 10.3651 31.5911 10.7143V15.4925Z" fill="url(#paint5_linear_866_561)"/>
</g>
<defs>
<linearGradient id="paint0_linear_866_561" x1="-0.584747" y1="3.81" x2="35.734" y2="3.81" gradientUnits="userSpaceOnUse">
<stop stop-color="#FABE3E"/>
<stop offset="0.3618" stop-color="#F63966"/>
<stop offset="1" stop-color="#007AE8"/>
</linearGradient>
<linearGradient id="paint1_linear_866_561" x1="-0.584752" y1="3.80991" x2="35.734" y2="3.80991" gradientUnits="userSpaceOnUse">
<stop stop-color="#FABE3E"/>
<stop offset="0.3618" stop-color="#F63966"/>
<stop offset="1" stop-color="#007AE8"/>
</linearGradient>
<linearGradient id="paint2_linear_866_561" x1="-0.585157" y1="3.80991" x2="35.7336" y2="3.80991" gradientUnits="userSpaceOnUse">
<stop stop-color="#FABE3E"/>
<stop offset="0.3618" stop-color="#F63966"/>
<stop offset="1" stop-color="#007AE8"/>
</linearGradient>
<linearGradient id="paint3_linear_866_561" x1="-0.585181" y1="3.81011" x2="35.7335" y2="3.81011" gradientUnits="userSpaceOnUse">
<stop stop-color="#FABE3E"/>
<stop offset="0.3618" stop-color="#F63966"/>
<stop offset="1" stop-color="#007AE8"/>
</linearGradient>
<linearGradient id="paint4_linear_866_561" x1="-0.584947" y1="17.5014" x2="35.7338" y2="17.5014" gradientUnits="userSpaceOnUse">
<stop stop-color="#FABE3E"/>
<stop offset="0.3618" stop-color="#F63966"/>
<stop offset="1" stop-color="#007AE8"/>
</linearGradient>
<linearGradient id="paint5_linear_866_561" x1="-0.584782" y1="20.7865" x2="35.7339" y2="20.7865" gradientUnits="userSpaceOnUse">
<stop stop-color="#FABE3E"/>
<stop offset="0.3618" stop-color="#F63966"/>
<stop offset="1" stop-color="#007AE8"/>
</linearGradient>
<clipPath id="clip0_866_561">
<rect width="37.3431" height="35" fill="white"/>
</clipPath>
</defs>
</svg>
