<svg width="42" height="32" viewBox="0 0 42 32" fill="none" xmlns="http://www.w3.org/2000/svg">
<g clip-path="url(#clip0_1485_638)">
<path d="M29.0049 6.48407V8.32524L27.2438 6.53744C27.1638 6.45738 27.0837 6.4307 26.977 6.4307C26.8703 6.4307 26.7902 6.45738 26.7102 6.53744C26.6301 6.61749 26.6034 6.69754 26.6034 6.80427C26.6034 6.91101 26.6568 7.01774 26.7102 7.07111L29.1117 9.49932C29.1917 9.57937 29.2718 9.60605 29.3785 9.60605C29.4853 9.60605 29.5653 9.57937 29.6454 9.49932L32.0469 7.07111C32.1803 6.93769 32.1803 6.67085 32.0469 6.53744C31.9135 6.40402 31.6466 6.40402 31.5132 6.53744L29.7521 8.29855V6.45738C29.7521 2.88178 26.8703 -0.0267334 23.348 -0.0267334H20.3595C18.6517 -0.0267334 17.0507 0.640357 15.8232 1.8678C14.5958 3.09525 13.9287 4.72295 13.9287 6.45738V9.2058C13.9287 9.41926 14.0888 9.57937 14.3023 9.57937C14.5157 9.57937 14.6759 9.41926 14.6759 9.2058V6.48407C14.6759 3.3354 17.2108 0.773775 20.3328 0.773775H23.2947C26.4433 0.773775 29.0049 3.3354 29.0049 6.48407Z" fill="url(#paint0_linear_1485_638)"/>
<path d="M18.3048 17.878C19.1853 17.5844 19.7724 16.7572 19.7724 15.8233C19.7724 14.6492 18.7851 13.6619 17.611 13.6619C17.104 13.6619 16.6237 13.8487 16.2235 14.1956C16.0367 14.3557 15.7698 14.3557 15.5831 14.2223L12.1676 12.1677C11.9808 12.0609 11.874 11.8208 11.9274 11.6073C11.9541 11.4472 11.9808 11.2871 11.9808 11.1537C11.9808 9.95292 11.0202 8.99231 9.84608 8.99231C8.672 8.99231 7.71139 9.95292 7.71139 11.1537C7.71139 11.2871 7.73808 11.4472 7.76476 11.634C7.81813 11.8475 7.73808 12.0609 7.52461 12.1943L4.1091 14.2757C3.97569 14.3824 3.68217 14.3824 3.49538 14.249C3.09513 13.9021 2.61482 13.7153 2.10783 13.7153C0.933755 13.7153 -0.0268555 14.6759 -0.0268555 15.8767C-0.0268555 16.8106 0.560184 17.6378 1.44074 17.9313C1.65421 18.0114 1.78763 18.1982 1.78763 18.4383V22.5476C1.78763 22.7611 1.65421 22.9745 1.44074 23.0546C0.586868 23.2947 -0.000171857 24.0952 -0.000171857 25.0292C-0.000171857 26.2299 0.960438 27.1905 2.13452 27.1905C2.64151 27.1905 3.12181 27.0037 3.52206 26.6569C3.6288 26.5768 3.73553 26.5501 3.86895 26.5501C3.97569 26.5501 4.08242 26.5768 4.16247 26.6302L7.57797 28.7115C7.76476 28.8182 7.87149 29.0584 7.81813 29.2719C7.79144 29.432 7.76476 29.5921 7.76476 29.7255C7.76476 30.9262 8.72537 31.8868 9.89945 31.8868C11.0735 31.8868 12.0341 30.9262 12.0341 29.7255C12.0341 29.5921 12.0075 29.432 11.9808 29.2452C11.9274 29.0317 12.0075 28.8182 12.2209 28.6848L15.6364 26.6035C15.7698 26.4968 16.0634 26.4968 16.2501 26.6302C16.6504 26.9771 17.1307 27.1639 17.6377 27.1639C18.8118 27.1639 19.7724 26.2032 19.7724 25.0025C19.7724 24.0685 19.1853 23.2414 18.3048 22.9478C18.0913 22.8678 17.9579 22.681 17.9579 22.4408V18.3583C17.9579 18.1448 18.0913 17.958 18.3048 17.878ZM9.87276 9.63272C10.7 9.63272 11.367 10.2998 11.367 11.127C11.367 11.9542 10.7 12.6213 9.87276 12.6213C9.04557 12.6213 8.37848 11.9542 8.37848 11.127C8.37848 10.2998 9.04557 9.63272 9.87276 9.63272ZM4.21584 15.3697C4.16247 15.1562 4.26921 14.9161 4.45599 14.8093L7.87149 12.728C8.00491 12.6213 8.29843 12.6213 8.48522 12.7547C8.88547 13.1016 9.36578 13.2884 9.87276 13.2884C10.3798 13.2884 10.8601 13.1016 11.2603 12.7547C11.4471 12.5946 11.7139 12.5946 11.9007 12.728L15.3162 14.7827C15.503 14.8894 15.6097 15.1295 15.5564 15.343C15.5297 15.5031 15.503 15.6632 15.503 15.7966C15.503 15.93 15.5297 16.0901 15.5564 16.2769C15.6097 16.4904 15.5297 16.7039 15.3162 16.8373L11.874 18.9453C11.8207 18.9987 11.7139 19.0253 11.6072 19.0253C11.4738 19.0253 11.367 18.972 11.2603 18.9186C10.8601 18.5717 10.3798 18.3849 9.87276 18.3849C9.36578 18.3849 8.88547 18.5717 8.48522 18.9186C8.29843 19.0787 8.0316 19.0787 7.84481 18.9453L4.42931 16.8907C4.24252 16.7839 4.13579 16.5438 4.18916 16.3303C4.21584 16.1702 4.24252 16.0101 4.24252 15.8767C4.26921 15.6899 4.26921 15.5565 4.21584 15.3697ZM11.367 20.5463C11.367 21.3735 10.7 22.0406 9.87276 22.0406C9.04557 22.0406 8.37848 21.3735 8.37848 20.5463C8.37848 19.7191 9.04557 19.052 9.87276 19.052C10.2463 19.052 10.6466 19.2121 10.9134 19.479C11.2069 19.7725 11.367 20.1461 11.367 20.5463ZM0.640235 15.8233C0.640235 14.9961 1.30733 14.329 2.13452 14.329C2.96171 14.329 3.6288 14.9961 3.6288 15.8233C3.6288 16.6505 2.96171 17.3443 2.13452 17.3443C1.30733 17.3443 0.640235 16.6505 0.640235 15.8233ZM3.20186 26.0965C2.93503 26.3633 2.53477 26.5501 2.13452 26.5501C1.30733 26.5501 0.640235 25.883 0.640235 25.0558C0.640235 24.2287 1.30733 23.5616 2.13452 23.5616C2.96171 23.5616 3.6288 24.2287 3.6288 25.0558C3.6288 25.4294 3.4687 25.803 3.20186 26.0965ZM8.13833 28.2045C8.0316 28.2045 7.92486 28.1778 7.84481 28.1245L4.42931 26.0431C4.24252 25.9364 4.13579 25.6962 4.18916 25.4828C4.21584 25.3227 4.24252 25.1626 4.24252 25.0292C4.24252 24.0952 3.65548 23.268 2.77492 22.9745C2.56145 22.8945 2.42804 22.7077 2.42804 22.4675V18.3583C2.42804 18.1448 2.56145 17.9313 2.77492 17.8513C3.01508 17.7712 3.25523 17.6378 3.49538 17.451C3.68217 17.3176 3.949 17.2909 4.1091 17.4243L7.52461 19.479C7.71139 19.5857 7.81813 19.8259 7.76476 20.0393C7.73808 20.1994 7.71139 20.3595 7.71139 20.4929C7.71139 21.4269 8.29843 22.2541 9.17899 22.5476C9.39246 22.6276 9.52588 22.8144 9.52588 23.0546V27.1639C9.52588 27.3773 9.39246 27.5908 9.17899 27.6708C8.93884 27.7509 8.69869 27.8843 8.45853 28.0711C8.40517 28.1778 8.27175 28.2045 8.13833 28.2045ZM9.87276 31.2464C9.04557 31.2464 8.37848 30.5794 8.37848 29.7522C8.37848 28.925 9.04557 28.2579 9.87276 28.2579C10.7 28.2579 11.367 28.925 11.367 29.7522C11.367 30.5794 10.7 31.2464 9.87276 31.2464ZM15.4763 25.0292C15.4763 25.1626 15.503 25.3227 15.5297 25.5095C15.5831 25.7229 15.503 25.9364 15.2895 26.0698L11.874 28.1511C11.8207 28.2045 11.7139 28.2312 11.6072 28.2312C11.4738 28.2312 11.367 28.1778 11.2603 28.1245C11.0468 27.9377 10.78 27.8043 10.5399 27.7242C10.3264 27.6442 10.193 27.4574 10.193 27.2172V23.0813C10.193 22.8678 10.3264 22.6543 10.5399 22.5743C11.4204 22.2807 12.0075 21.4536 12.0075 20.5196C12.0075 20.3862 11.9808 20.2261 11.9541 20.0393C11.9007 19.8259 11.9808 19.6124 12.1942 19.479L15.6097 17.3976C15.7432 17.2909 16.0367 17.2909 16.2235 17.4243C16.4102 17.5844 16.6771 17.7445 16.9439 17.8246C17.1574 17.9046 17.2908 18.0914 17.2908 18.3316V22.4408C17.2908 22.6543 17.1574 22.8678 16.9439 22.9478C16.0634 23.2947 15.4763 24.0952 15.4763 25.0292ZM19.0786 25.0292C19.0786 25.4294 18.9185 25.803 18.6517 26.0965C18.3848 26.39 17.9846 26.5501 17.5843 26.5501C16.7571 26.5501 16.09 25.883 16.09 25.0558C16.09 24.2287 16.7571 23.5616 17.5843 23.5616C18.4115 23.5349 19.0786 24.202 19.0786 25.0292ZM17.611 17.3443C16.7838 17.3443 16.1167 16.6772 16.1167 15.85C16.1167 15.0228 16.7838 14.3557 17.611 14.3557C18.4382 14.3557 19.1053 15.0228 19.1053 15.85C19.1053 16.6772 18.4382 17.3443 17.611 17.3443Z" fill="url(#paint1_linear_1485_638)"/>
<path d="M41.8396 15.5298L34.1014 10.8335C34.048 10.8068 33.9946 10.7802 33.9413 10.7802C33.8879 10.7802 33.8345 10.8068 33.7812 10.8335L26.0429 15.5565C25.9362 15.6099 25.8828 15.7166 25.8828 15.85V25.0559C25.8828 25.1626 25.9362 25.2694 26.0429 25.3494L33.7812 30.0457C33.8879 30.0991 34.0213 30.0991 34.128 30.0457L41.8663 25.3227C41.973 25.2694 42.0264 25.1626 42.0264 25.0292V15.77C41.9997 15.6899 41.9197 15.6099 41.8396 15.5298ZM33.6211 28.2312C33.6211 28.418 33.5143 28.6048 33.3542 28.6849C33.2742 28.7382 33.1941 28.7382 33.1141 28.7382C33.0073 28.7382 32.9006 28.7115 32.8206 28.6582L26.7901 25.0025C26.63 24.8958 26.5499 24.7357 26.5499 24.5489V17.3443C26.5499 17.1575 26.6566 16.9707 26.8167 16.8907C27.0035 16.784 27.217 16.8106 27.3504 16.9174L33.3542 20.573C33.5143 20.6798 33.5944 20.8399 33.5944 21.0267V28.2312H33.6211ZM33.9413 20.066C33.8345 20.066 33.7278 20.0394 33.6477 19.986L27.5639 16.277C27.4038 16.1702 27.3237 16.0101 27.3237 15.8234C27.3237 15.6366 27.4305 15.4765 27.5639 15.3697L33.6744 11.6607C33.8078 11.554 34.0747 11.554 34.2348 11.6607L40.3186 15.3697C40.4787 15.4765 40.5588 15.6366 40.5588 15.8234C40.5588 16.0101 40.4521 16.1702 40.3186 16.277L34.2081 19.986C34.1547 20.0394 34.048 20.066 33.9413 20.066ZM41.1192 25.0025L35.062 28.6849C35.0086 28.7382 34.9019 28.7649 34.7951 28.7649C34.7151 28.7649 34.635 28.7382 34.555 28.7115C34.3682 28.6048 34.2881 28.418 34.2881 28.2579V21.0533C34.2881 20.8666 34.3949 20.7065 34.5283 20.5997L40.5588 16.8907C40.6655 16.8106 40.9057 16.784 41.0658 16.864C41.2526 16.9707 41.3326 17.1575 41.3326 17.3176V24.3087V24.5222C41.3593 24.7357 41.2526 24.8958 41.1192 25.0025Z" fill="url(#paint2_linear_1485_638)"/>
</g>
<defs>
<linearGradient id="paint0_linear_1485_638" x1="-2.55661" y1="4.81474" x2="41.6555" y2="4.81474" gradientUnits="userSpaceOnUse">
<stop stop-color="#F0BE58"/>
<stop offset="0.3618" stop-color="#E24B68"/>
<stop offset="1" stop-color="#307BDF"/>
</linearGradient>
<linearGradient id="paint1_linear_1485_638" x1="-2.55673" y1="20.4305" x2="41.6554" y2="20.4305" gradientUnits="userSpaceOnUse">
<stop stop-color="#F0BE58"/>
<stop offset="0.3618" stop-color="#E24B68"/>
<stop offset="1" stop-color="#307BDF"/>
</linearGradient>
<linearGradient id="paint2_linear_1485_638" x1="-2.5569" y1="20.4303" x2="41.6552" y2="20.4303" gradientUnits="userSpaceOnUse">
<stop stop-color="#F0BE58"/>
<stop offset="0.3618" stop-color="#E24B68"/>
<stop offset="1" stop-color="#307BDF"/>
</linearGradient>
<clipPath id="clip0_1485_638">
<rect width="42" height="31.9136" fill="white"/>
</clipPath>
</defs>
</svg>
