<svg width="78" height="71" viewBox="0 0 78 71" fill="none" xmlns="http://www.w3.org/2000/svg">
<g clip-path="url(#clip0_823_689)">
<path d="M53.7446 70.7846L55.7815 68.7672C55.9186 68.6301 55.997 68.4538 55.997 68.2384C55.997 68.0425 55.9186 67.8467 55.7815 67.7292L45.4792 57.4268C45.4008 57.3485 45.3617 57.2505 45.3617 57.1526V51.7664C45.3617 51.5509 45.5379 51.3747 45.7534 51.3747H71.2938C71.7051 51.3747 72.0185 51.0417 72.0185 50.6304V13.6908C72.0185 13.4754 72.1948 13.2991 72.4102 13.2991H76.8563C77.2676 13.2991 77.6006 12.9661 77.6006 12.5548V7.07067C77.6006 6.65936 77.2676 6.3264 76.8563 6.3264H42.3846C42.1691 6.3264 41.9928 6.15012 41.9928 5.93468V3.19261C41.9928 1.42985 40.5434 -0.0195312 38.7807 -0.0195312C37.0179 -0.0195312 35.5686 1.42985 35.5686 3.19261V5.93468C35.5686 6.15012 35.3923 6.3264 35.1768 6.3264H0.744276C0.332966 6.3264 0 6.65936 0 7.07067V12.5548C0 12.9661 0.332966 13.2991 0.744276 13.2991H5.19034C5.40579 13.2991 5.58207 13.4754 5.58207 13.6908V50.6304C5.58207 51.0417 5.91503 51.3747 6.32634 51.3747H31.8668C32.0822 51.3747 32.2585 51.5509 32.2585 51.7664V57.466C32.2585 57.5639 32.2193 57.6618 32.141 57.7402L22.152 67.7292C22.0149 67.8663 21.9366 68.0621 21.9366 68.258C21.9366 68.4538 22.0149 68.6301 22.152 68.7868L24.189 70.8042C24.3261 70.9413 24.5023 71.0196 24.6982 71.0196C24.8941 71.0196 25.0703 70.9413 25.2074 70.8042L35.451 60.5606C35.5294 60.4823 35.6273 60.4431 35.7252 60.4431H42.1887C42.2866 60.4431 42.3846 60.4823 42.4629 60.5606L52.7065 70.8042C52.8436 70.9413 53.0199 71.0196 53.2157 71.0196C53.4116 71.0196 53.627 70.9217 53.7446 70.7846ZM37.0571 3.21219C37.0571 2.25247 37.8406 1.46902 38.8003 1.46902C39.76 1.46902 40.5434 2.25247 40.5434 3.21219V5.95426C40.5434 6.16971 40.3672 6.34599 40.1517 6.34599H37.4488C37.2334 6.34599 37.0571 6.16971 37.0571 5.95426V3.21219ZM1.86069 11.8301C1.64524 11.8301 1.46897 11.6538 1.46897 11.4384V8.20668C1.46897 7.99123 1.64524 7.81495 1.86069 7.81495H75.7399C75.9553 7.81495 76.1316 7.99123 76.1316 8.20668V11.4384C76.1316 11.6538 75.9553 11.8301 75.7399 11.8301H1.86069ZM7.42317 49.8861C7.20772 49.8861 7.03145 49.7099 7.03145 49.4944V13.6908C7.03145 13.4754 7.20772 13.2991 7.42317 13.2991H70.1774C70.3928 13.2991 70.5691 13.4754 70.5691 13.6908V49.514C70.5691 49.7294 70.3928 49.9057 70.1774 49.9057H7.42317V49.8861ZM43.168 59.17C43.0309 59.0329 42.8546 58.9545 42.6588 58.9545H35.2552C35.0593 58.9545 34.883 59.0329 34.7263 59.17L24.9332 68.9435C24.8549 69.0219 24.757 69.061 24.659 69.061C24.5611 69.061 24.4632 69.0219 24.3848 68.9435L23.9539 68.5126C23.7972 68.3559 23.7972 68.1209 23.9539 67.9642L33.4728 58.4453C33.6099 58.3082 33.6883 58.1319 33.6883 57.9361V51.7664C33.6883 51.5509 33.8646 51.3747 34.08 51.3747H43.501C43.7164 51.3747 43.8927 51.5509 43.8927 51.7664V57.6227C43.8927 57.8185 43.971 57.9948 44.1081 58.1515L53.9404 67.9838C54.0971 68.1405 54.0971 68.3755 53.9404 68.5322L53.5095 68.9631C53.4312 69.0414 53.3332 69.0806 53.2353 69.0806C53.1374 69.0806 53.0394 69.0414 52.9611 68.9631L43.168 59.17Z" fill="url(#paint0_linear_823_689)"/>
<path d="M51.453 45.3225H56.0165C56.3103 45.3225 56.5454 45.0875 56.5454 44.7741V21.6036C56.5454 21.3098 56.3103 21.0552 56.0165 21.0552H51.4334C51.1396 21.0552 50.9045 21.2902 50.9045 21.6036V44.7741C50.9241 45.0875 51.1592 45.3225 51.453 45.3225ZM51.9818 22.2303C51.9818 22.1716 52.021 22.1324 52.0797 22.1324H55.3898C55.4485 22.1324 55.4877 22.1716 55.4877 22.2303V44.1277C55.4877 44.1865 55.4485 44.2257 55.3898 44.2257H52.0797C52.021 44.2257 51.9818 44.1865 51.9818 44.1277V22.2303Z" fill="url(#paint1_linear_823_689)"/>
<path d="M43.4618 24.483V44.7939C43.4618 45.0877 43.6968 45.3423 43.9906 45.3423H48.5542C48.848 45.3423 49.083 45.1073 49.083 44.7939V24.483C49.083 24.1892 48.848 23.9542 48.5542 23.9542H43.9906C43.6968 23.9346 43.4618 24.1892 43.4618 24.483ZM44.539 25.1098C44.539 25.051 44.5782 25.0118 44.637 25.0118H47.9274C47.9862 25.0118 48.0254 25.051 48.0254 25.1098V44.1476C48.0254 44.2063 47.9862 44.2455 47.9274 44.2455H44.637C44.5782 44.2455 44.539 44.2063 44.539 44.1476V25.1098Z" fill="url(#paint2_linear_823_689)"/>
<path d="M35.9799 27.2642V44.7743C35.9799 45.0681 36.2149 45.3227 36.5087 45.3227H41.0723C41.3661 45.3227 41.6011 45.0877 41.6011 44.7743V27.2642C41.6011 26.9704 41.3661 26.7158 41.0723 26.7158H36.5087C36.2345 26.7354 35.9799 26.9704 35.9799 27.2642ZM37.0571 27.9106C37.0571 27.8518 37.0963 27.8126 37.155 27.8126H40.4455C40.5043 27.8126 40.5434 27.8518 40.5434 27.9106V44.1475C40.5434 44.2063 40.5043 44.2455 40.4455 44.2455H37.155C37.0963 44.2455 37.0571 44.2063 37.0571 44.1475V27.9106Z" fill="url(#paint3_linear_823_689)"/>
<path d="M28.5175 31.1617V44.7741C28.5175 45.0679 28.7526 45.3226 29.0463 45.3226H33.6099C33.9037 45.3226 34.1388 45.0875 34.1388 44.7741V31.1617C34.1388 30.8679 33.9037 30.6329 33.6099 30.6329H29.0463C28.7526 30.6133 28.5175 30.8679 28.5175 31.1617ZM29.5948 31.7885C29.5948 31.7297 29.6339 31.6906 29.6927 31.6906H32.9832C33.0419 31.6906 33.0811 31.7297 33.0811 31.7885V44.1278C33.0811 44.1866 33.0419 44.2257 32.9832 44.2257H29.6927C29.6339 44.2257 29.5948 44.1866 29.5948 44.1278V31.7885Z" fill="url(#paint4_linear_823_689)"/>
<path d="M21.584 45.3223H26.1476C26.4414 45.3223 26.6764 45.0873 26.6764 44.7739V35.2158C26.6764 34.922 26.4414 34.687 26.1476 34.687H21.584C21.2902 34.687 21.0552 34.922 21.0552 35.2158V44.7739C21.0356 45.0873 21.2902 45.3223 21.584 45.3223ZM22.1129 35.8622C22.1129 35.8034 22.152 35.7643 22.2108 35.7643H25.5013C25.56 35.7643 25.5992 35.8034 25.5992 35.8622V44.1471C25.5992 44.2059 25.56 44.2451 25.5013 44.2451H22.2108C22.152 44.2451 22.1129 44.2059 22.1129 44.1471V35.8622Z" fill="url(#paint5_linear_823_689)"/>
<path d="M59.1308 47.0854H18.4698C18.176 47.0854 17.941 47.3205 17.941 47.6339C17.941 47.9277 18.176 48.1627 18.4698 48.1627H59.1308C59.4246 48.1627 59.6596 47.9277 59.6596 47.6339C59.6596 47.3205 59.4246 47.0854 59.1308 47.0854Z" fill="url(#paint6_linear_823_689)"/>
<path d="M46.9481 16.1587V19.9584C46.9481 20.2522 46.7131 20.5068 46.4193 20.5068C46.1255 20.5068 45.8709 20.2718 45.8709 19.9584V17.5493C45.8317 17.5885 45.8121 17.6081 45.7729 17.6473C45.7338 17.6864 45.7142 17.706 45.675 17.7452C37.5663 25.9518 22.4458 31.4555 21.7798 31.6906C21.5056 31.7885 21.1922 31.6318 21.0943 31.3576C21.0551 31.2205 21.0551 31.0834 21.1139 30.9463C21.1727 30.8092 21.2902 30.7113 21.4273 30.6721C21.6036 30.6133 25.8538 29.066 31.0245 26.4415C35.3531 24.2478 41.0918 20.8986 45.0091 16.903C45.0482 16.8638 45.0678 16.8442 45.107 16.8051C45.1462 16.7659 45.1658 16.7463 45.2049 16.7071H44.9307L42.835 16.7267C42.5412 16.7267 42.3062 16.4917 42.2866 16.1979C42.2866 15.9041 42.5216 15.6495 42.8154 15.6495L45.91 15.6299H46.0471H46.2038H46.4193C46.5564 15.6299 46.6935 15.6886 46.811 15.7866C46.8894 15.8845 46.9481 16.0216 46.9481 16.1587Z" fill="url(#paint7_linear_823_689)"/>
</g>
<defs>
<linearGradient id="paint0_linear_823_689" x1="0.629599" y1="35.5001" x2="74.6803" y2="35.5001" gradientUnits="userSpaceOnUse">
<stop stop-color="#FABE3E"/>
<stop offset="0.3618" stop-color="#F63966"/>
<stop offset="1" stop-color="#007AE8"/>
</linearGradient>
<linearGradient id="paint1_linear_823_689" x1="0.629549" y1="33.1912" x2="74.6803" y2="33.1912" gradientUnits="userSpaceOnUse">
<stop stop-color="#FABE3E"/>
<stop offset="0.3618" stop-color="#F63966"/>
<stop offset="1" stop-color="#007AE8"/>
</linearGradient>
<linearGradient id="paint2_linear_823_689" x1="0.629578" y1="34.6306" x2="74.6803" y2="34.6306" gradientUnits="userSpaceOnUse">
<stop stop-color="#FABE3E"/>
<stop offset="0.3618" stop-color="#F63966"/>
<stop offset="1" stop-color="#007AE8"/>
</linearGradient>
<linearGradient id="paint3_linear_823_689" x1="0.629596" y1="36.0253" x2="74.6803" y2="36.0253" gradientUnits="userSpaceOnUse">
<stop stop-color="#FABE3E"/>
<stop offset="0.3618" stop-color="#F63966"/>
<stop offset="1" stop-color="#007AE8"/>
</linearGradient>
<linearGradient id="paint4_linear_823_689" x1="0.6296" y1="37.9713" x2="74.6803" y2="37.9713" gradientUnits="userSpaceOnUse">
<stop stop-color="#FABE3E"/>
<stop offset="0.3618" stop-color="#F63966"/>
<stop offset="1" stop-color="#007AE8"/>
</linearGradient>
<linearGradient id="paint5_linear_823_689" x1="0.629627" y1="40.0013" x2="74.6803" y2="40.0013" gradientUnits="userSpaceOnUse">
<stop stop-color="#FABE3E"/>
<stop offset="0.3618" stop-color="#F63966"/>
<stop offset="1" stop-color="#007AE8"/>
</linearGradient>
<linearGradient id="paint6_linear_823_689" x1="0.629613" y1="47.6145" x2="74.6803" y2="47.6145" gradientUnits="userSpaceOnUse">
<stop stop-color="#FABE3E"/>
<stop offset="0.3618" stop-color="#F63966"/>
<stop offset="1" stop-color="#007AE8"/>
</linearGradient>
<linearGradient id="paint7_linear_823_689" x1="0.629571" y1="23.668" x2="74.6803" y2="23.668" gradientUnits="userSpaceOnUse">
<stop stop-color="#FABE3E"/>
<stop offset="0.3618" stop-color="#F63966"/>
<stop offset="1" stop-color="#007AE8"/>
</linearGradient>
<clipPath id="clip0_823_689">
<rect width="77.6006" height="71" fill="white"/>
</clipPath>
</defs>
</svg>
