<svg width="65" height="62" viewBox="0 0 65 62" fill="none" xmlns="http://www.w3.org/2000/svg">
<g clip-path="url(#clip0_868_994)">
<path d="M58.5709 18.2586L57.6342 21.6722C57.5706 21.9262 57.3325 22.085 57.0943 22.085C57.0467 22.085 56.9991 22.085 56.9514 22.0691L53.5379 21.1324C53.2362 21.053 53.0616 20.7354 53.1409 20.4497C53.2203 20.148 53.5379 19.9733 53.8395 20.0527L56.1258 20.6719C53.6808 15.0356 49.3304 10.4471 43.8211 7.71624C43.5353 7.57335 43.4242 7.23993 43.5671 6.97002C43.71 6.68423 44.0434 6.57309 44.3133 6.71599C49.9338 9.51035 54.4111 14.1465 56.9832 19.8463L57.4913 17.9728C57.5706 17.6712 57.8882 17.4965 58.1899 17.5759C58.4756 17.6553 58.6503 17.957 58.5709 18.2586Z" fill="url(#paint0_linear_868_994)"/>
<path d="M21.3233 7.23993L20.2912 10.6217C20.2119 10.8599 19.9896 11.0187 19.7514 11.0187C19.7038 11.0187 19.6403 11.0187 19.5927 10.9869C19.291 10.8917 19.1322 10.59 19.2116 10.2883L19.8626 8.12904C14.6231 10.971 10.4951 15.5278 8.20878 21.053C8.11352 21.2753 7.90712 21.4023 7.68484 21.4023C7.60546 21.4023 7.54195 21.3864 7.46256 21.3547C7.17677 21.2276 7.03388 20.9101 7.1609 20.6243C9.54246 14.8927 13.7975 10.1613 19.2275 7.19229L17.2111 6.58897C16.9094 6.4937 16.7507 6.19204 16.83 5.89037C16.9253 5.58871 17.227 5.42994 17.5286 5.50932L20.9104 6.52546C21.0533 6.57309 21.1645 6.66835 21.2439 6.79537C21.355 6.93826 21.3709 7.09703 21.3233 7.23993Z" fill="url(#paint1_linear_868_994)"/>
<path d="M20.9578 55.0459C20.8625 55.2364 20.6561 55.3634 20.4497 55.3634C20.3703 55.3634 20.275 55.3475 20.1957 55.2999C14.6228 52.5373 10.1772 47.9329 7.58925 42.3124L7.08118 44.2336C7.01768 44.4876 6.77952 44.6464 6.54136 44.6464C6.49373 44.6464 6.4461 44.6464 6.39847 44.6305C6.09681 44.5511 5.92216 44.2495 6.00154 43.9478L6.90654 40.5342C6.93829 40.3913 7.03355 40.2643 7.16057 40.1849C7.28759 40.1055 7.44636 40.0897 7.58925 40.1214L11.0028 41.0264C11.3045 41.1058 11.4791 41.4075 11.3998 41.7091C11.3204 42.0108 11.0028 42.1854 10.717 42.106L8.46249 41.5027C10.9234 47.0438 15.242 51.5688 20.6878 54.2838C20.9736 54.4267 21.1006 54.776 20.9578 55.0459Z" fill="url(#paint2_linear_868_994)"/>
<path d="M57.3162 41.3756C54.887 47.2501 50.4732 52.0768 44.8368 55.0299L46.9167 55.6809C47.2184 55.7761 47.3771 56.0937 47.2819 56.3795C47.2025 56.6176 46.9802 56.7764 46.7421 56.7764C46.6785 56.7764 46.6309 56.7605 46.5674 56.7446L43.2015 55.6809C43.0586 55.6332 42.9316 55.538 42.868 55.3951C42.8045 55.2681 42.7887 55.1093 42.8363 54.9664L43.9001 51.6005C43.9953 51.2988 44.3129 51.14 44.5986 51.2353C44.9003 51.3306 45.0591 51.6481 44.9638 51.9339L44.3129 53.9979C49.6952 51.1718 53.9185 46.5516 56.2524 40.9311C56.3794 40.6453 56.697 40.5024 56.9828 40.6294C57.3003 40.7564 57.4273 41.0898 57.3162 41.3756Z" fill="url(#paint3_linear_868_994)"/>
<path d="M45.4239 48.5997C43.6933 48.5997 42.2803 47.1866 42.2803 45.456C42.2803 43.7254 43.6933 42.3124 45.4239 42.3124C47.1545 42.3124 48.5676 43.7254 48.5676 45.456C48.5676 47.1866 47.1545 48.5997 45.4239 48.5997ZM45.4239 43.4397C44.3125 43.4397 43.4075 44.3446 43.4075 45.456C43.4075 46.5674 44.3125 47.4724 45.4239 47.4724C46.5353 47.4724 47.4403 46.5674 47.4403 45.456C47.4403 44.3446 46.5353 43.4397 45.4239 43.4397Z" fill="url(#paint4_linear_868_994)"/>
<path d="M19.0841 48.5997C17.3535 48.5997 15.9404 47.1866 15.9404 45.456C15.9404 43.7254 17.3535 42.3124 19.0841 42.3124C20.8147 42.3124 22.2278 43.7254 22.2278 45.456C22.2278 47.1866 20.8147 48.5997 19.0841 48.5997ZM19.0841 43.4397C17.9727 43.4397 17.0677 44.3446 17.0677 45.456C17.0677 46.5674 17.9727 47.4724 19.0841 47.4724C20.1955 47.4724 21.1005 46.5674 21.1005 45.456C21.1005 44.3446 20.1955 43.4397 19.0841 43.4397Z" fill="url(#paint5_linear_868_994)"/>
<path d="M45.4239 19.6876C43.6933 19.6876 42.2803 18.2745 42.2803 16.5439C42.2803 14.8133 43.6933 13.4003 45.4239 13.4003C47.1545 13.4003 48.5676 14.8133 48.5676 16.5439C48.5676 18.2745 47.1545 19.6876 45.4239 19.6876ZM45.4239 14.5275C44.3125 14.5275 43.4075 15.4325 43.4075 16.5439C43.4075 17.6553 44.3125 18.5603 45.4239 18.5603C46.5353 18.5603 47.4403 17.6553 47.4403 16.5439C47.4403 15.4325 46.5353 14.5275 45.4239 14.5275Z" fill="url(#paint6_linear_868_994)"/>
<path d="M19.0841 19.6876C17.3535 19.6876 15.9404 18.2745 15.9404 16.5439C15.9404 14.8133 17.3535 13.4003 19.0841 13.4003C20.8147 13.4003 22.2278 14.8133 22.2278 16.5439C22.2278 18.2745 20.8147 19.6876 19.0841 19.6876ZM19.0841 14.5275C17.9727 14.5275 17.0677 15.4325 17.0677 16.5439C17.0677 17.6553 17.9727 18.5603 19.0841 18.5603C20.1955 18.5603 21.1005 17.6553 21.1005 16.5439C21.1005 15.4325 20.1955 14.5275 19.0841 14.5275Z" fill="url(#paint7_linear_868_994)"/>
<path d="M32.2461 62C29.023 62 26.4033 59.3803 26.4033 56.1572C26.4033 52.9342 29.023 50.3145 32.2461 50.3145C35.4691 50.3145 38.0889 52.9342 38.0889 56.1572C38.0889 59.3803 35.4691 62 32.2461 62ZM32.2461 51.4417C29.6422 51.4417 27.5306 53.5534 27.5306 56.1572C27.5306 58.7611 29.6422 60.8727 32.2461 60.8727C34.8499 60.8727 36.9616 58.7611 36.9616 56.1572C36.9616 53.5693 34.8499 51.4417 32.2461 51.4417Z" fill="url(#paint8_linear_868_994)"/>
<path d="M32.2461 11.6697C29.023 11.6697 26.4033 9.04994 26.4033 5.8269C26.4033 2.60385 29.023 -0.0158691 32.2461 -0.0158691C35.4691 -0.0158691 38.0889 2.60385 38.0889 5.8269C38.0889 9.04994 35.4691 11.6697 32.2461 11.6697ZM32.2461 1.12728C29.6422 1.12728 27.5306 3.23893 27.5306 5.84277C27.5306 8.44661 29.6422 10.5583 32.2461 10.5583C34.8499 10.5583 36.9616 8.44661 36.9616 5.84277C36.9616 3.23893 34.8499 1.12728 32.2461 1.12728Z" fill="url(#paint9_linear_868_994)"/>
<path d="M5.84277 36.8507C2.61972 36.8507 0 34.2151 0 30.9921C0 27.769 2.61972 25.1493 5.84277 25.1493C9.06581 25.1493 11.6855 27.769 11.6855 30.9921C11.6855 34.2151 9.06581 36.8507 5.84277 36.8507ZM5.84277 26.2766C3.23892 26.2766 1.12727 28.3882 1.12727 30.9921C1.12727 33.5959 3.23892 35.7234 5.84277 35.7234C8.44661 35.7234 10.5583 33.6118 10.5583 30.9921C10.5583 28.3882 8.44661 26.2766 5.84277 26.2766Z" fill="url(#paint10_linear_868_994)"/>
<path d="M5.84294 33.7706C4.31874 33.7706 3.06445 32.5322 3.06445 30.9921C3.06445 29.4679 4.30287 28.2136 5.84294 28.2136C7.36714 28.2136 8.62143 29.452 8.62143 30.9921C8.62143 32.5322 7.36714 33.7706 5.84294 33.7706ZM5.84294 29.3409C4.93795 29.3409 4.19173 30.0871 4.19173 30.9921C4.19173 31.8971 4.93795 32.6433 5.84294 32.6433C6.74794 32.6433 7.49416 31.8971 7.49416 30.9921C7.49416 30.0871 6.74794 29.3409 5.84294 29.3409Z" fill="url(#paint11_linear_868_994)"/>
<path d="M58.6662 33.7706C57.142 33.7706 55.8877 32.5322 55.8877 30.9921C55.8877 29.4679 57.1261 28.2136 58.6662 28.2136C60.1904 28.2136 61.4447 29.452 61.4447 30.9921C61.4288 32.5322 60.1904 33.7706 58.6662 33.7706ZM58.6662 29.3409C57.7612 29.3409 57.015 30.0871 57.015 30.9921C57.015 31.8971 57.7612 32.6433 58.6662 32.6433C59.5712 32.6433 60.3174 31.8971 60.3174 30.9921C60.3174 30.0871 59.5712 29.3409 58.6662 29.3409Z" fill="url(#paint12_linear_868_994)"/>
<path d="M58.666 36.8507C55.443 36.8507 52.8232 34.231 52.8232 31.0079C52.8232 27.7849 55.443 25.1652 58.666 25.1652C61.8891 25.1652 64.5088 27.7849 64.5088 31.0079C64.4929 34.2151 61.8732 36.8507 58.666 36.8507ZM58.666 26.2766C56.0622 26.2766 53.9505 28.3882 53.9505 30.992C53.9505 33.5959 56.0622 35.7234 58.666 35.7234C61.2698 35.7234 63.3815 33.6118 63.3815 30.992C63.3815 28.3882 61.254 26.2766 58.666 26.2766Z" fill="url(#paint13_linear_868_994)"/>
<path d="M32.2464 38.4542C28.1342 38.4542 24.7842 35.1042 24.7842 30.992C24.7842 26.8798 28.1342 23.5298 32.2464 23.5298C33.7706 23.5298 35.2472 23.9902 36.5015 24.8635C36.7555 25.0381 36.819 25.3874 36.6444 25.6414C36.4697 25.8955 36.1204 25.959 35.8664 25.7843C34.8026 25.0381 33.5483 24.6571 32.2623 24.6571C28.7693 24.6571 25.9273 27.4991 25.9273 30.992C25.9273 34.485 28.7693 37.327 32.2623 37.327C35.7552 37.327 38.5972 34.485 38.5972 30.992C38.5972 30.6745 38.8513 30.4363 39.1529 30.4363C39.4705 30.4363 39.7086 30.6903 39.7086 30.992C39.7086 35.1042 36.3586 38.4542 32.2464 38.4542Z" fill="url(#paint14_linear_868_994)"/>
<path d="M31.6752 34.3103C31.5323 34.3103 31.3894 34.2468 31.2782 34.1516L27.4519 30.3252C27.2296 30.1029 27.2296 29.7536 27.4519 29.5313C27.6741 29.3091 28.0234 29.3091 28.2457 29.5313L31.6752 32.9608L38.5182 26.1178C38.7405 25.8955 39.0898 25.8955 39.312 26.1178C39.5343 26.34 39.5343 26.6893 39.312 26.9116L32.0721 34.1516C31.961 34.2627 31.8181 34.3103 31.6752 34.3103Z" fill="url(#paint15_linear_868_994)"/>
<path d="M34.5322 45.3449H29.9596C29.6738 45.3449 29.4357 45.1385 29.4039 44.8686L29.0229 42.1218C28.1973 41.8837 27.4193 41.5662 26.689 41.1533L24.4662 42.8204C24.2439 42.9951 23.9263 42.9633 23.7358 42.7728L20.5128 39.5498C20.3222 39.3592 20.2905 39.0417 20.4651 38.8194L22.1322 36.5966C21.7194 35.8663 21.4019 35.0883 21.1637 34.2627L18.4011 33.8658C18.1312 33.8181 17.9248 33.5959 17.9248 33.3101L17.9407 28.7375C17.9407 28.4517 18.1471 28.2294 18.417 28.1818L21.1637 27.8007C21.4019 26.9751 21.7194 26.1813 22.1322 25.4668L20.4651 23.2281C20.2905 23.0058 20.3222 22.6883 20.5128 22.4978L23.7358 19.2747C23.9263 19.0842 24.2439 19.0525 24.4662 19.2271L26.7048 20.8942C27.4193 20.4973 28.1973 20.1638 29.0388 19.9257L29.4357 17.1631C29.4833 16.8932 29.7056 16.6868 29.9914 16.6868H34.5481C34.8339 16.6868 35.0721 16.8932 35.1038 17.1631L35.5007 19.9257C36.3263 20.148 37.1202 20.4655 37.8505 20.8783L40.0733 19.2112C40.2956 19.0366 40.6132 19.0683 40.8037 19.2589L44.0267 22.4819C44.2173 22.6724 44.249 22.99 44.0744 23.2122L42.4073 25.435C42.8201 26.1654 43.1376 26.9592 43.3599 27.7848L46.1066 28.1659C46.3765 28.1976 46.5829 28.4358 46.5829 28.7216L46.5988 33.2942C46.5988 33.58 46.3924 33.8181 46.1225 33.8499L43.3758 34.2309C43.1535 35.0407 42.8201 35.8345 42.3914 36.5807L44.0585 38.8035C44.2331 39.0258 44.2014 39.3434 44.0109 39.5339L40.7878 42.7569C40.5973 42.9475 40.2797 42.9792 40.0575 42.8046L37.8347 41.1375C37.0884 41.5662 36.3105 41.8837 35.5007 42.106L35.1197 44.8527C35.0562 45.1385 34.818 45.3449 34.5322 45.3449ZM30.4518 44.2176H34.0559L34.4211 41.582C34.4528 41.3439 34.6275 41.1692 34.8498 41.1057C35.7865 40.8993 36.6915 40.5183 37.5489 39.9784C37.7394 39.8514 37.9934 39.8673 38.184 40.0102L40.3115 41.6138L42.8518 39.0735L41.2482 36.9459C41.1053 36.7554 41.1053 36.5172 41.2165 36.3108C41.7404 35.4535 42.1215 34.5485 42.3596 33.5959C42.4073 33.3736 42.5978 33.1989 42.8201 33.1672L45.4557 32.802L45.4398 29.2138L42.8042 28.8486C42.566 28.8169 42.3914 28.6422 42.3279 28.4199C42.1056 27.4514 41.7246 26.5306 41.2165 25.7049C41.0895 25.5144 41.1053 25.2604 41.2482 25.0699L42.8518 22.9423L40.3115 20.402L38.184 22.0056C37.9934 22.1485 37.7394 22.1485 37.5489 22.0373C36.7233 21.5293 35.8024 21.1482 34.8339 20.9259C34.6116 20.8783 34.437 20.6878 34.4052 20.4655L34.0242 17.814H30.4518L30.0708 20.4655C30.039 20.6878 29.8802 20.8783 29.658 20.9259C28.6577 21.18 27.7368 21.561 26.943 22.0532C26.7525 22.1802 26.4984 22.1644 26.3079 22.0215L24.1645 20.4179L21.6242 22.9582L23.2278 25.1016C23.3706 25.2921 23.3706 25.5462 23.2595 25.7367C22.7514 26.5464 22.3704 27.4514 22.1322 28.4517C22.0846 28.674 21.8941 28.8486 21.6718 28.8804L19.0362 29.2455L19.0203 32.8338L21.6718 33.2148C21.8941 33.2466 22.0846 33.4212 22.1322 33.6435C22.3704 34.6279 22.7514 35.5329 23.2595 36.3585C23.3865 36.549 23.3706 36.803 23.2278 36.9936L21.6242 39.1211L24.1645 41.6614L26.292 40.0578C26.4826 39.9149 26.7366 39.9149 26.9271 40.0261C27.7368 40.5341 28.6577 40.9152 29.6421 41.1533C29.8644 41.201 30.039 41.3915 30.0708 41.6138L30.4518 44.2176Z" fill="url(#paint16_linear_868_994)"/>
</g>
<defs>
<linearGradient id="paint0_linear_868_994" x1="0.0707963" y1="14.3591" x2="62.6567" y2="14.3591" gradientUnits="userSpaceOnUse">
<stop stop-color="#FABE3E"/>
<stop offset="0.3618" stop-color="#F63966"/>
<stop offset="1" stop-color="#007AE8"/>
</linearGradient>
<linearGradient id="paint1_linear_868_994" x1="0.0707793" y1="13.4402" x2="62.6567" y2="13.4402" gradientUnits="userSpaceOnUse">
<stop stop-color="#FABE3E"/>
<stop offset="0.3618" stop-color="#F63966"/>
<stop offset="1" stop-color="#007AE8"/>
</linearGradient>
<linearGradient id="paint2_linear_868_994" x1="0.0704532" y1="47.7321" x2="62.6564" y2="47.7321" gradientUnits="userSpaceOnUse">
<stop stop-color="#FABE3E"/>
<stop offset="0.3618" stop-color="#F63966"/>
<stop offset="1" stop-color="#007AE8"/>
</linearGradient>
<linearGradient id="paint3_linear_868_994" x1="0.0703661" y1="48.6891" x2="62.6563" y2="48.6891" gradientUnits="userSpaceOnUse">
<stop stop-color="#FABE3E"/>
<stop offset="0.3618" stop-color="#F63966"/>
<stop offset="1" stop-color="#007AE8"/>
</linearGradient>
<linearGradient id="paint4_linear_868_994" x1="0.0700429" y1="45.4521" x2="62.656" y2="45.4521" gradientUnits="userSpaceOnUse">
<stop stop-color="#FABE3E"/>
<stop offset="0.3618" stop-color="#F63966"/>
<stop offset="1" stop-color="#007AE8"/>
</linearGradient>
<linearGradient id="paint5_linear_868_994" x1="0.0702872" y1="45.4521" x2="62.6562" y2="45.4521" gradientUnits="userSpaceOnUse">
<stop stop-color="#FABE3E"/>
<stop offset="0.3618" stop-color="#F63966"/>
<stop offset="1" stop-color="#007AE8"/>
</linearGradient>
<linearGradient id="paint6_linear_868_994" x1="0.0700429" y1="16.5455" x2="62.656" y2="16.5455" gradientUnits="userSpaceOnUse">
<stop stop-color="#FABE3E"/>
<stop offset="0.3618" stop-color="#F63966"/>
<stop offset="1" stop-color="#007AE8"/>
</linearGradient>
<linearGradient id="paint7_linear_868_994" x1="0.0702872" y1="16.5455" x2="62.6562" y2="16.5455" gradientUnits="userSpaceOnUse">
<stop stop-color="#FABE3E"/>
<stop offset="0.3618" stop-color="#F63966"/>
<stop offset="1" stop-color="#007AE8"/>
</linearGradient>
<linearGradient id="paint8_linear_868_994" x1="0.0701822" y1="56.1613" x2="62.6561" y2="56.1613" gradientUnits="userSpaceOnUse">
<stop stop-color="#FABE3E"/>
<stop offset="0.3618" stop-color="#F63966"/>
<stop offset="1" stop-color="#007AE8"/>
</linearGradient>
<linearGradient id="paint9_linear_868_994" x1="0.0701822" y1="5.83569" x2="62.6561" y2="5.83569" gradientUnits="userSpaceOnUse">
<stop stop-color="#FABE3E"/>
<stop offset="0.3618" stop-color="#F63966"/>
<stop offset="1" stop-color="#007AE8"/>
</linearGradient>
<linearGradient id="paint10_linear_868_994" x1="0.0704466" y1="30.9992" x2="62.6564" y2="30.9992" gradientUnits="userSpaceOnUse">
<stop stop-color="#FABE3E"/>
<stop offset="0.3618" stop-color="#F63966"/>
<stop offset="1" stop-color="#007AE8"/>
</linearGradient>
<linearGradient id="paint11_linear_868_994" x1="0.070623" y1="30.9992" x2="62.6565" y2="30.9992" gradientUnits="userSpaceOnUse">
<stop stop-color="#FABE3E"/>
<stop offset="0.3618" stop-color="#F63966"/>
<stop offset="1" stop-color="#007AE8"/>
</linearGradient>
<linearGradient id="paint12_linear_868_994" x1="0.0708161" y1="30.9992" x2="62.6567" y2="30.9992" gradientUnits="userSpaceOnUse">
<stop stop-color="#FABE3E"/>
<stop offset="0.3618" stop-color="#F63966"/>
<stop offset="1" stop-color="#007AE8"/>
</linearGradient>
<linearGradient id="paint13_linear_868_994" x1="0.0706572" y1="30.9991" x2="62.6566" y2="30.9991" gradientUnits="userSpaceOnUse">
<stop stop-color="#FABE3E"/>
<stop offset="0.3618" stop-color="#F63966"/>
<stop offset="1" stop-color="#007AE8"/>
</linearGradient>
<linearGradient id="paint14_linear_868_994" x1="0.0705021" y1="30.9984" x2="62.6564" y2="30.9984" gradientUnits="userSpaceOnUse">
<stop stop-color="#FABE3E"/>
<stop offset="0.3618" stop-color="#F63966"/>
<stop offset="1" stop-color="#007AE8"/>
</linearGradient>
<linearGradient id="paint15_linear_868_994" x1="0.0708365" y1="30.1358" x2="62.6568" y2="30.1358" gradientUnits="userSpaceOnUse">
<stop stop-color="#FABE3E"/>
<stop offset="0.3618" stop-color="#F63966"/>
<stop offset="1" stop-color="#007AE8"/>
</linearGradient>
<linearGradient id="paint16_linear_868_994" x1="0.0700269" y1="30.9983" x2="62.6559" y2="30.9983" gradientUnits="userSpaceOnUse">
<stop stop-color="#FABE3E"/>
<stop offset="0.3618" stop-color="#F63966"/>
<stop offset="1" stop-color="#007AE8"/>
</linearGradient>
<clipPath id="clip0_868_994">
<rect width="64.4927" height="62" fill="white"/>
</clipPath>
</defs>
</svg>
