<svg width="58" height="58" viewBox="0 0 58 58" fill="none" xmlns="http://www.w3.org/2000/svg">
<mask id="path-1-outside-1_868_1116" maskUnits="userSpaceOnUse" x="0" y="0" width="58" height="58" fill="black">
<rect fill="white" width="58" height="58"/>
<path d="M55.2098 22.4383H50.4605C50.209 22.4383 49.9723 22.2756 49.8983 22.0388C49.558 21.0328 49.1585 20.0563 48.6999 19.139C48.5815 18.917 48.6259 18.6359 48.8182 18.4584L52.162 15.1147C52.5022 14.7744 52.6798 14.3305 52.6798 13.8423C52.6798 13.3688 52.4875 12.9102 52.162 12.5699L45.4301 5.83804C45.0898 5.49775 44.646 5.32021 44.1577 5.32021C43.6843 5.32021 43.2256 5.51255 42.8853 5.83804L39.5416 9.18177C39.4233 9.30013 39.2753 9.35931 39.1273 9.35931C39.0386 9.35931 38.9498 9.34452 38.861 9.30013C37.9289 8.84148 36.9524 8.44201 35.9612 8.10172C35.7244 8.02774 35.5617 7.79102 35.5617 7.5395V2.79022C35.5617 1.79894 34.7627 1 33.7715 1H24.2285C23.2373 1 22.4383 1.79894 22.4383 2.79022V7.5395C22.4383 7.79102 22.2756 8.02774 22.0388 8.10172C21.0328 8.42721 20.0563 8.82668 19.139 9.30013C19.0502 9.34452 18.9614 9.35931 18.8727 9.35931C18.7247 9.35931 18.562 9.30013 18.4584 9.18177L15.0999 5.83804C14.7596 5.49775 14.3157 5.32021 13.8275 5.32021C13.354 5.32021 12.8954 5.51255 12.5551 5.83804L5.83805 12.5699C5.49775 12.9102 5.32021 13.354 5.32021 13.8423C5.32021 14.3157 5.51255 14.7744 5.83805 15.1147L9.18177 18.4584C9.35931 18.6359 9.4037 18.917 9.30013 19.139C8.84148 20.0563 8.44201 21.0328 8.10172 22.0388C8.02774 22.2756 7.79102 22.4383 7.5395 22.4383H2.79022C1.79894 22.4383 1 23.252 1 24.2285V28.5339C1.02959 28.6375 1.04439 28.7559 1.0148 28.8742C1 28.9186 1 28.9482 1 28.9926C1 44.424 13.5612 56.9852 28.9926 56.9852C36.3015 56.9852 43.2256 54.1741 48.4779 49.0697C53.7303 43.9802 56.7485 37.1744 56.9704 29.8951C56.9852 29.614 56.9852 29.3033 56.9852 28.9926V24.2285C57 23.252 56.2011 22.4383 55.2098 22.4383ZM55.8016 28.9926C55.8016 43.773 43.7731 55.7868 29.0074 55.7868C22.0684 55.7868 15.4845 53.1384 10.469 48.33C5.46816 43.5363 2.53871 37.1004 2.22801 30.2206C2.22801 30.0579 2.27239 29.8951 2.39075 29.7915C2.50911 29.6732 2.65707 29.614 2.81982 29.614H27.809C28.1345 29.614 28.4008 29.8803 28.4008 30.2058V51.0523H29.5992V46.8653C29.5992 46.5398 29.8655 46.2734 30.191 46.2734H40.3258V45.075H30.191C29.8655 45.075 29.5992 44.8087 29.5992 44.4832V40.9028C29.5992 40.5773 29.8655 40.311 30.191 40.311H43.8914V39.1125H30.191C29.8655 39.1125 29.5992 38.8462 29.5992 38.5207V34.9403C29.5992 34.6148 29.8655 34.3485 30.191 34.3485H47.4719V33.1501H30.191C29.8655 33.1501 29.5992 32.8838 29.5992 32.5583V28.9926C29.5992 28.6671 29.3329 28.386 28.9926 28.386H18.34C18.1773 28.386 18.0145 28.312 17.8962 28.1937C17.7778 28.0753 17.7334 27.8978 17.7482 27.735C18.0589 24.9831 19.3609 22.4531 21.4174 20.5889C23.5036 18.7099 26.1815 17.6742 28.9778 17.6742C35.0143 17.6742 39.9707 22.4383 40.2814 28.4008H41.4798C41.1691 21.7725 35.6801 16.4758 28.9778 16.4758C25.8412 16.4758 22.8378 17.6446 20.5149 19.7752C18.2069 21.8909 16.7865 24.7612 16.5054 27.8534C16.4758 28.1641 16.2243 28.386 15.9136 28.386H2.79022C2.46473 28.386 2.19841 28.1197 2.19841 27.7942V24.2285C2.19841 23.903 2.46473 23.6367 2.79022 23.6367H8.41242C8.67873 23.6367 8.91546 23.4592 8.98943 23.2077C9.41849 21.6985 10.0103 20.2634 10.7501 18.9318C10.8832 18.6951 10.8388 18.3992 10.6465 18.2217L6.68137 14.2565C6.56301 14.1382 6.50383 13.9902 6.50383 13.8423C6.50383 13.6795 6.56301 13.5316 6.68137 13.428L13.428 6.69617C13.5464 6.57781 13.6943 6.51863 13.8423 6.51863C13.9902 6.51863 14.153 6.57781 14.2565 6.69617L18.2217 10.6613C18.34 10.7797 18.488 10.8388 18.6507 10.8388C18.7543 10.8388 18.8431 10.8092 18.9318 10.7649C20.2634 10.0251 21.6985 9.43329 23.2077 9.00423C23.4592 8.93025 23.6367 8.69353 23.6367 8.42721V2.80502C23.6367 2.47952 23.903 2.21321 24.2285 2.21321H33.7567C34.0822 2.21321 34.3485 2.47952 34.3485 2.80502V8.42721C34.3485 8.69353 34.526 8.93025 34.7775 9.00423C36.2867 9.43329 37.7218 10.0251 39.0534 10.7649C39.1421 10.8092 39.2457 10.8388 39.3345 10.8388C39.4972 10.8388 39.6452 10.7797 39.7635 10.6613L43.7287 6.69617C43.847 6.57781 43.995 6.51863 44.1429 6.51863C44.2909 6.51863 44.4388 6.57781 44.5572 6.69617L51.289 13.428C51.5258 13.6647 51.5258 14.0346 51.289 14.2713L47.3239 18.2365C47.1316 18.4288 47.0872 18.7247 47.2203 18.9466C47.9453 20.2782 48.5371 21.7133 48.981 23.2225C49.055 23.474 49.2917 23.6515 49.558 23.6515H55.1802C55.5057 23.6515 55.772 23.9178 55.772 24.2433V28.9926H55.8016Z"/>
</mask>
<path d="M55.2098 22.4383H50.4605C50.209 22.4383 49.9723 22.2756 49.8983 22.0388C49.558 21.0328 49.1585 20.0563 48.6999 19.139C48.5815 18.917 48.6259 18.6359 48.8182 18.4584L52.162 15.1147C52.5022 14.7744 52.6798 14.3305 52.6798 13.8423C52.6798 13.3688 52.4875 12.9102 52.162 12.5699L45.4301 5.83804C45.0898 5.49775 44.646 5.32021 44.1577 5.32021C43.6843 5.32021 43.2256 5.51255 42.8853 5.83804L39.5416 9.18177C39.4233 9.30013 39.2753 9.35931 39.1273 9.35931C39.0386 9.35931 38.9498 9.34452 38.861 9.30013C37.9289 8.84148 36.9524 8.44201 35.9612 8.10172C35.7244 8.02774 35.5617 7.79102 35.5617 7.5395V2.79022C35.5617 1.79894 34.7627 1 33.7715 1H24.2285C23.2373 1 22.4383 1.79894 22.4383 2.79022V7.5395C22.4383 7.79102 22.2756 8.02774 22.0388 8.10172C21.0328 8.42721 20.0563 8.82668 19.139 9.30013C19.0502 9.34452 18.9614 9.35931 18.8727 9.35931C18.7247 9.35931 18.562 9.30013 18.4584 9.18177L15.0999 5.83804C14.7596 5.49775 14.3157 5.32021 13.8275 5.32021C13.354 5.32021 12.8954 5.51255 12.5551 5.83804L5.83805 12.5699C5.49775 12.9102 5.32021 13.354 5.32021 13.8423C5.32021 14.3157 5.51255 14.7744 5.83805 15.1147L9.18177 18.4584C9.35931 18.6359 9.4037 18.917 9.30013 19.139C8.84148 20.0563 8.44201 21.0328 8.10172 22.0388C8.02774 22.2756 7.79102 22.4383 7.5395 22.4383H2.79022C1.79894 22.4383 1 23.252 1 24.2285V28.5339C1.02959 28.6375 1.04439 28.7559 1.0148 28.8742C1 28.9186 1 28.9482 1 28.9926C1 44.424 13.5612 56.9852 28.9926 56.9852C36.3015 56.9852 43.2256 54.1741 48.4779 49.0697C53.7303 43.9802 56.7485 37.1744 56.9704 29.8951C56.9852 29.614 56.9852 29.3033 56.9852 28.9926V24.2285C57 23.252 56.2011 22.4383 55.2098 22.4383ZM55.8016 28.9926C55.8016 43.773 43.7731 55.7868 29.0074 55.7868C22.0684 55.7868 15.4845 53.1384 10.469 48.33C5.46816 43.5363 2.53871 37.1004 2.22801 30.2206C2.22801 30.0579 2.27239 29.8951 2.39075 29.7915C2.50911 29.6732 2.65707 29.614 2.81982 29.614H27.809C28.1345 29.614 28.4008 29.8803 28.4008 30.2058V51.0523H29.5992V46.8653C29.5992 46.5398 29.8655 46.2734 30.191 46.2734H40.3258V45.075H30.191C29.8655 45.075 29.5992 44.8087 29.5992 44.4832V40.9028C29.5992 40.5773 29.8655 40.311 30.191 40.311H43.8914V39.1125H30.191C29.8655 39.1125 29.5992 38.8462 29.5992 38.5207V34.9403C29.5992 34.6148 29.8655 34.3485 30.191 34.3485H47.4719V33.1501H30.191C29.8655 33.1501 29.5992 32.8838 29.5992 32.5583V28.9926C29.5992 28.6671 29.3329 28.386 28.9926 28.386H18.34C18.1773 28.386 18.0145 28.312 17.8962 28.1937C17.7778 28.0753 17.7334 27.8978 17.7482 27.735C18.0589 24.9831 19.3609 22.4531 21.4174 20.5889C23.5036 18.7099 26.1815 17.6742 28.9778 17.6742C35.0143 17.6742 39.9707 22.4383 40.2814 28.4008H41.4798C41.1691 21.7725 35.6801 16.4758 28.9778 16.4758C25.8412 16.4758 22.8378 17.6446 20.5149 19.7752C18.2069 21.8909 16.7865 24.7612 16.5054 27.8534C16.4758 28.1641 16.2243 28.386 15.9136 28.386H2.79022C2.46473 28.386 2.19841 28.1197 2.19841 27.7942V24.2285C2.19841 23.903 2.46473 23.6367 2.79022 23.6367H8.41242C8.67873 23.6367 8.91546 23.4592 8.98943 23.2077C9.41849 21.6985 10.0103 20.2634 10.7501 18.9318C10.8832 18.6951 10.8388 18.3992 10.6465 18.2217L6.68137 14.2565C6.56301 14.1382 6.50383 13.9902 6.50383 13.8423C6.50383 13.6795 6.56301 13.5316 6.68137 13.428L13.428 6.69617C13.5464 6.57781 13.6943 6.51863 13.8423 6.51863C13.9902 6.51863 14.153 6.57781 14.2565 6.69617L18.2217 10.6613C18.34 10.7797 18.488 10.8388 18.6507 10.8388C18.7543 10.8388 18.8431 10.8092 18.9318 10.7649C20.2634 10.0251 21.6985 9.43329 23.2077 9.00423C23.4592 8.93025 23.6367 8.69353 23.6367 8.42721V2.80502C23.6367 2.47952 23.903 2.21321 24.2285 2.21321H33.7567C34.0822 2.21321 34.3485 2.47952 34.3485 2.80502V8.42721C34.3485 8.69353 34.526 8.93025 34.7775 9.00423C36.2867 9.43329 37.7218 10.0251 39.0534 10.7649C39.1421 10.8092 39.2457 10.8388 39.3345 10.8388C39.4972 10.8388 39.6452 10.7797 39.7635 10.6613L43.7287 6.69617C43.847 6.57781 43.995 6.51863 44.1429 6.51863C44.2909 6.51863 44.4388 6.57781 44.5572 6.69617L51.289 13.428C51.5258 13.6647 51.5258 14.0346 51.289 14.2713L47.3239 18.2365C47.1316 18.4288 47.0872 18.7247 47.2203 18.9466C47.9453 20.2782 48.5371 21.7133 48.981 23.2225C49.055 23.474 49.2917 23.6515 49.558 23.6515H55.1802C55.5057 23.6515 55.772 23.9178 55.772 24.2433V28.9926H55.8016Z" fill="#017038"/>
<path d="M55.2098 22.4383H50.4605C50.209 22.4383 49.9723 22.2756 49.8983 22.0388C49.558 21.0328 49.1585 20.0563 48.6999 19.139C48.5815 18.917 48.6259 18.6359 48.8182 18.4584L52.162 15.1147C52.5022 14.7744 52.6798 14.3305 52.6798 13.8423C52.6798 13.3688 52.4875 12.9102 52.162 12.5699L45.4301 5.83804C45.0898 5.49775 44.646 5.32021 44.1577 5.32021C43.6843 5.32021 43.2256 5.51255 42.8853 5.83804L39.5416 9.18177C39.4233 9.30013 39.2753 9.35931 39.1273 9.35931C39.0386 9.35931 38.9498 9.34452 38.861 9.30013C37.9289 8.84148 36.9524 8.44201 35.9612 8.10172C35.7244 8.02774 35.5617 7.79102 35.5617 7.5395V2.79022C35.5617 1.79894 34.7627 1 33.7715 1H24.2285C23.2373 1 22.4383 1.79894 22.4383 2.79022V7.5395C22.4383 7.79102 22.2756 8.02774 22.0388 8.10172C21.0328 8.42721 20.0563 8.82668 19.139 9.30013C19.0502 9.34452 18.9614 9.35931 18.8727 9.35931C18.7247 9.35931 18.562 9.30013 18.4584 9.18177L15.0999 5.83804C14.7596 5.49775 14.3157 5.32021 13.8275 5.32021C13.354 5.32021 12.8954 5.51255 12.5551 5.83804L5.83805 12.5699C5.49775 12.9102 5.32021 13.354 5.32021 13.8423C5.32021 14.3157 5.51255 14.7744 5.83805 15.1147L9.18177 18.4584C9.35931 18.6359 9.4037 18.917 9.30013 19.139C8.84148 20.0563 8.44201 21.0328 8.10172 22.0388C8.02774 22.2756 7.79102 22.4383 7.5395 22.4383H2.79022C1.79894 22.4383 1 23.252 1 24.2285V28.5339C1.02959 28.6375 1.04439 28.7559 1.0148 28.8742C1 28.9186 1 28.9482 1 28.9926C1 44.424 13.5612 56.9852 28.9926 56.9852C36.3015 56.9852 43.2256 54.1741 48.4779 49.0697C53.7303 43.9802 56.7485 37.1744 56.9704 29.8951C56.9852 29.614 56.9852 29.3033 56.9852 28.9926V24.2285C57 23.252 56.2011 22.4383 55.2098 22.4383ZM55.8016 28.9926C55.8016 43.773 43.7731 55.7868 29.0074 55.7868C22.0684 55.7868 15.4845 53.1384 10.469 48.33C5.46816 43.5363 2.53871 37.1004 2.22801 30.2206C2.22801 30.0579 2.27239 29.8951 2.39075 29.7915C2.50911 29.6732 2.65707 29.614 2.81982 29.614H27.809C28.1345 29.614 28.4008 29.8803 28.4008 30.2058V51.0523H29.5992V46.8653C29.5992 46.5398 29.8655 46.2734 30.191 46.2734H40.3258V45.075H30.191C29.8655 45.075 29.5992 44.8087 29.5992 44.4832V40.9028C29.5992 40.5773 29.8655 40.311 30.191 40.311H43.8914V39.1125H30.191C29.8655 39.1125 29.5992 38.8462 29.5992 38.5207V34.9403C29.5992 34.6148 29.8655 34.3485 30.191 34.3485H47.4719V33.1501H30.191C29.8655 33.1501 29.5992 32.8838 29.5992 32.5583V28.9926C29.5992 28.6671 29.3329 28.386 28.9926 28.386H18.34C18.1773 28.386 18.0145 28.312 17.8962 28.1937C17.7778 28.0753 17.7334 27.8978 17.7482 27.735C18.0589 24.9831 19.3609 22.4531 21.4174 20.5889C23.5036 18.7099 26.1815 17.6742 28.9778 17.6742C35.0143 17.6742 39.9707 22.4383 40.2814 28.4008H41.4798C41.1691 21.7725 35.6801 16.4758 28.9778 16.4758C25.8412 16.4758 22.8378 17.6446 20.5149 19.7752C18.2069 21.8909 16.7865 24.7612 16.5054 27.8534C16.4758 28.1641 16.2243 28.386 15.9136 28.386H2.79022C2.46473 28.386 2.19841 28.1197 2.19841 27.7942V24.2285C2.19841 23.903 2.46473 23.6367 2.79022 23.6367H8.41242C8.67873 23.6367 8.91546 23.4592 8.98943 23.2077C9.41849 21.6985 10.0103 20.2634 10.7501 18.9318C10.8832 18.6951 10.8388 18.3992 10.6465 18.2217L6.68137 14.2565C6.56301 14.1382 6.50383 13.9902 6.50383 13.8423C6.50383 13.6795 6.56301 13.5316 6.68137 13.428L13.428 6.69617C13.5464 6.57781 13.6943 6.51863 13.8423 6.51863C13.9902 6.51863 14.153 6.57781 14.2565 6.69617L18.2217 10.6613C18.34 10.7797 18.488 10.8388 18.6507 10.8388C18.7543 10.8388 18.8431 10.8092 18.9318 10.7649C20.2634 10.0251 21.6985 9.43329 23.2077 9.00423C23.4592 8.93025 23.6367 8.69353 23.6367 8.42721V2.80502C23.6367 2.47952 23.903 2.21321 24.2285 2.21321H33.7567C34.0822 2.21321 34.3485 2.47952 34.3485 2.80502V8.42721C34.3485 8.69353 34.526 8.93025 34.7775 9.00423C36.2867 9.43329 37.7218 10.0251 39.0534 10.7649C39.1421 10.8092 39.2457 10.8388 39.3345 10.8388C39.4972 10.8388 39.6452 10.7797 39.7635 10.6613L43.7287 6.69617C43.847 6.57781 43.995 6.51863 44.1429 6.51863C44.2909 6.51863 44.4388 6.57781 44.5572 6.69617L51.289 13.428C51.5258 13.6647 51.5258 14.0346 51.289 14.2713L47.3239 18.2365C47.1316 18.4288 47.0872 18.7247 47.2203 18.9466C47.9453 20.2782 48.5371 21.7133 48.981 23.2225C49.055 23.474 49.2917 23.6515 49.558 23.6515H55.1802C55.5057 23.6515 55.772 23.9178 55.772 24.2433V28.9926H55.8016Z" stroke="#017038" stroke-width="0.2" mask="url(#path-1-outside-1_868_1116)"/>
<path d="M23.6859 34.3485V34.2985H23.6359H22.4375H22.3875V34.3485V35.5469V35.5969H22.4375H23.6359H23.6859V35.5469V34.3485Z" fill="#017038" stroke="#017038" stroke-width="0.1"/>
<path d="M18.9222 34.3485V34.2985H18.8722H17.6738H17.6238V34.3485V35.5469V35.5969H17.6738H18.8722H18.9222V35.5469V34.3485Z" fill="#017038" stroke="#017038" stroke-width="0.1"/>
<path d="M23.6867 39.1273V39.0773H23.6367H12.9102H12.8602V39.1273V40.3257V40.3757H12.9102H23.6367H23.6867V40.3257V39.1273Z" fill="#017038" stroke="#017038" stroke-width="0.1"/>
</svg>
