<svg width="31" height="40" viewBox="0 0 31 40" fill="none" xmlns="http://www.w3.org/2000/svg">
<g clip-path="url(#clip0_1284_2022)">
<path d="M15.3307 20.9454V18.24H14.458V21.7309H17.1635V21.0909H15.4762C15.3889 21.0909 15.3307 21.0327 15.3307 20.9454Z" fill="url(#paint0_linear_1284_2022)"/>
<path d="M20.3344 19.8109C20.1308 19.6945 19.7817 19.6072 19.2871 19.4909C19.0544 19.4327 18.909 19.3745 18.8217 19.3163C18.7053 19.229 18.6762 19.1127 18.6762 19.0545C18.6762 18.9381 18.7344 18.8218 18.8217 18.7345C18.909 18.6472 19.0544 18.6181 19.229 18.6181C19.4326 18.6181 19.578 18.6763 19.6944 18.7636C19.7817 18.8509 19.869 18.9672 19.8981 19.0836L20.7126 19.0254C20.6544 18.7636 20.5381 18.5599 20.3344 18.4145C20.1017 18.2399 19.7526 18.1818 19.3162 18.1818C18.9381 18.1818 18.6471 18.2399 18.4435 18.3272C18.2399 18.4145 18.0944 18.5309 18.0071 18.6763C17.9199 18.8218 17.8617 18.9963 17.8617 19.1418C17.8617 19.4036 17.949 19.6072 18.1526 19.7527C18.3562 19.9272 18.7053 20.0727 19.1999 20.189C19.549 20.2763 19.7526 20.3345 19.869 20.4509C19.9853 20.5672 20.0435 20.6836 20.0435 20.829C20.0435 20.9745 19.9853 21.1199 19.869 21.2072C19.7526 21.2945 19.5781 21.3527 19.3744 21.3527C19.1126 21.3527 18.8799 21.2654 18.7344 21.0618C18.6762 20.9745 18.6181 20.8581 18.589 20.7127L17.7744 20.7709C17.8326 21.0618 17.949 21.2945 18.1235 21.469C18.3271 21.7018 18.7635 21.789 19.3453 21.789C19.6944 21.789 19.9853 21.7309 20.189 21.6436C20.3926 21.5563 20.5671 21.4109 20.6835 21.2363C20.7999 21.0618 20.858 20.8581 20.858 20.6545C20.858 20.4799 20.829 20.3054 20.7417 20.1599C20.6835 20.0436 20.5381 19.8981 20.3344 19.8109Z" fill="url(#paint1_linear_1284_2022)"/>
<path d="M12.5091 19.869L13.5272 18.269H12.5963L11.9854 19.3454C11.9563 19.4036 11.8982 19.4327 11.8691 19.4327C11.8109 19.4327 11.7818 19.4036 11.7527 19.3745L11.1127 18.2981H10.1818L11.2291 19.8981C11.2582 19.9563 11.2582 20.0145 11.2291 20.0436L10.0654 21.789H11.0254L11.7236 20.6545C11.7527 20.6254 11.8109 20.5963 11.84 20.5963C11.8982 20.5963 11.9272 20.6254 11.9563 20.6545L12.6545 21.789H13.6145L12.5091 20.0145C12.48 19.9563 12.48 19.8981 12.5091 19.869Z" fill="url(#paint2_linear_1284_2022)"/>
<path d="M30.72 8.20364L22.6909 0.145455C22.6909 0.145455 22.6909 0.145455 22.6618 0.116364C22.6036 0.0581818 22.5164 0 22.4291 0C22.4 0 22.4 0 22.4 0H22.3709H1.16364H1.13455C0.843636 0 0.552727 0.116364 0.349091 0.349091C0.116364 0.552727 0 0.843636 0 1.16364V38.8073C0 39.1273 0.116364 39.4182 0.349091 39.6218C0.581818 39.8545 0.872727 39.9709 1.16364 39.9709H29.6727C29.9927 39.9709 30.2836 39.8545 30.4873 39.6218C30.72 39.3891 30.8364 39.0982 30.8364 38.8073V8.46546C30.8364 8.37818 30.8073 8.26182 30.72 8.20364ZM22.7491 1.89091C22.7491 1.77455 22.8073 1.65818 22.9236 1.62909C22.9527 1.6 23.0109 1.6 23.04 1.6C23.1273 1.6 23.1855 1.62909 23.2436 1.68727L29.1782 7.65091C29.2655 7.73818 29.2945 7.85455 29.2364 7.97091C29.1782 8.08727 29.0909 8.14546 28.9745 8.14546H23.04C22.8655 8.14546 22.7491 8.02909 22.7491 7.85455V1.89091ZM30.1673 38.8364C30.1673 38.9527 30.1091 39.0982 30.0218 39.1855C29.9345 39.2727 29.8182 39.3309 29.6727 39.3309H1.16364C1.04727 39.3309 0.901818 39.2727 0.814545 39.1855C0.727273 39.0982 0.669091 38.9818 0.669091 38.8364V1.16364C0.669091 1.04727 0.727273 0.901818 0.814545 0.814546C0.901818 0.727273 0.989091 0.698182 1.10545 0.669091C1.13455 0.669091 1.13455 0.669091 1.16364 0.669091H21.7891C21.9636 0.669091 22.08 0.785455 22.08 0.96V8.46546C22.08 8.66909 22.2255 8.81455 22.4291 8.81455H29.8764C30.0509 8.81455 30.1673 8.93091 30.1673 9.10546V38.8364Z" fill="url(#paint3_linear_1284_2022)"/>
<path d="M5.46889 15.1273C5.14889 15.1273 4.82889 15.2437 4.59616 15.4764C4.36343 15.7091 4.24707 16 4.24707 16.3491V23.651C4.24707 23.971 4.36343 24.291 4.59616 24.5237C4.82889 24.7564 5.1198 24.8728 5.46889 24.8728H25.3671C25.6871 24.8728 26.0071 24.7564 26.2398 24.5237C26.4725 24.291 26.5889 24 26.5889 23.651V16.3491C26.5889 16.0291 26.4725 15.7091 26.2398 15.4764C26.0071 15.2437 25.7162 15.1273 25.3671 15.1273H5.46889ZM25.9198 16.3491V23.651C25.9198 23.7964 25.8616 23.9128 25.7743 24.0291C25.6871 24.1164 25.5416 24.1746 25.3962 24.1746H5.46889C5.32343 24.1746 5.20707 24.1164 5.09071 24.0291C5.00343 23.9128 4.94525 23.7964 4.94525 23.651V16.3491C4.94525 16.2037 5.00343 16.0873 5.09071 15.971C5.17798 15.8837 5.32343 15.8255 5.46889 15.8255H25.3671C25.5125 15.8255 25.6289 15.8837 25.7453 15.971C25.8616 16.0582 25.9198 16.2037 25.9198 16.3491Z" fill="url(#paint4_linear_1284_2022)"/>
</g>
<defs>
<linearGradient id="paint0_linear_1284_2022" x1="-1.66333" y1="19.9964" x2="29.7978" y2="19.9964" gradientUnits="userSpaceOnUse">
<stop stop-color="#FABE3E"/>
<stop offset="0.3618" stop-color="#F63966"/>
<stop offset="1" stop-color="#007AE8"/>
</linearGradient>
<linearGradient id="paint1_linear_1284_2022" x1="-1.66328" y1="19.9963" x2="29.7978" y2="19.9963" gradientUnits="userSpaceOnUse">
<stop stop-color="#FABE3E"/>
<stop offset="0.3618" stop-color="#F63966"/>
<stop offset="1" stop-color="#007AE8"/>
</linearGradient>
<linearGradient id="paint2_linear_1284_2022" x1="-1.66318" y1="19.9963" x2="29.7979" y2="19.9963" gradientUnits="userSpaceOnUse">
<stop stop-color="#FABE3E"/>
<stop offset="0.3618" stop-color="#F63966"/>
<stop offset="1" stop-color="#007AE8"/>
</linearGradient>
<linearGradient id="paint3_linear_1284_2022" x1="-1.66316" y1="19.9964" x2="29.798" y2="19.9964" gradientUnits="userSpaceOnUse">
<stop stop-color="#FABE3E"/>
<stop offset="0.3618" stop-color="#F63966"/>
<stop offset="1" stop-color="#007AE8"/>
</linearGradient>
<linearGradient id="paint4_linear_1284_2022" x1="-1.66336" y1="19.9964" x2="29.7978" y2="19.9964" gradientUnits="userSpaceOnUse">
<stop stop-color="#FABE3E"/>
<stop offset="0.3618" stop-color="#F63966"/>
<stop offset="1" stop-color="#007AE8"/>
</linearGradient>
<clipPath id="clip0_1284_2022">
<rect width="30.8364" height="40" fill="white"/>
</clipPath>
</defs>
</svg>
