<svg width="71" height="71" viewBox="0 0 71 71" fill="none" xmlns="http://www.w3.org/2000/svg">
<g clip-path="url(#clip0_971_646)">
<path d="M16.8705 44.2363C11.409 44.2363 6.97754 48.6678 6.97754 54.1293C6.97754 59.5908 11.409 64.0223 16.8705 64.0223C22.332 64.0223 26.7635 59.5908 26.7635 54.1293C26.7635 48.6678 22.332 44.2363 16.8705 44.2363ZM16.8705 62.8561C12.0504 62.8561 8.1437 58.93 8.1437 54.1293C8.1437 49.3286 12.0698 45.4025 16.8705 45.4025C21.6712 45.4025 25.5973 49.3286 25.5973 54.1293C25.5973 58.93 21.6907 62.8561 16.8705 62.8561Z" fill="url(#paint0_linear_971_646)"/>
<path d="M16.8705 48.8818C13.9745 48.8818 11.6422 51.2336 11.6422 54.1101C11.6422 56.9867 13.994 59.3384 16.8705 59.3384C19.7471 59.3384 22.0988 56.9867 22.0988 54.1101C22.0988 51.2336 19.7665 48.8818 16.8705 48.8818ZM16.8705 58.2112C14.6159 58.2112 12.7889 56.3842 12.7889 54.1296C12.7889 51.875 14.6159 50.048 16.8705 50.048C19.1251 50.048 20.9521 51.875 20.9521 54.1296C20.9521 56.3842 19.1251 58.2112 16.8705 58.2112Z" fill="url(#paint1_linear_971_646)"/>
<path d="M43.0704 16.3066H34.9266V17.4728H43.0704V16.3066Z" fill="url(#paint2_linear_971_646)"/>
<path d="M43.0704 20.9521H34.9266V22.1183H43.0704V20.9521Z" fill="url(#paint3_linear_971_646)"/>
<path d="M43.0704 25.6167H34.9266V26.7829H43.0704V25.6167Z" fill="url(#paint4_linear_971_646)"/>
<path d="M43.0704 30.2622H34.9266V31.4284H43.0704V30.2622Z" fill="url(#paint5_linear_971_646)"/>
<path d="M66.3548 39.5718H58.2111V40.7379H66.3548V39.5718Z" fill="url(#paint6_linear_971_646)"/>
<path d="M66.3548 44.2363H58.2111V45.4025H66.3548V44.2363Z" fill="url(#paint7_linear_971_646)"/>
<path d="M66.3548 48.8818H58.2111V50.048H66.3548V48.8818Z" fill="url(#paint8_linear_971_646)"/>
<path d="M66.3548 53.5464H58.2111V54.7126H66.3548V53.5464Z" fill="url(#paint9_linear_971_646)"/>
<path d="M33.8188 51.2141C33.6244 51.2141 33.4301 51.1169 33.3134 50.942C32.9053 50.2811 32.2833 49.8147 31.5253 49.6203C30.9617 49.4843 30.5341 49.0955 30.3008 48.5902V48.5708C30.2814 48.5513 30.2814 48.5125 30.262 48.4542C30.2231 48.2792 30.262 48.1043 30.3592 47.9488C30.4563 47.7933 30.6313 47.7156 30.8256 47.7156H43.0509V36.6564C43.0509 36.326 43.3036 36.0734 43.634 36.0734H47.7156V31.9918C47.7156 31.6614 47.9682 31.4087 48.2987 31.4087H61.107C66.5686 31.4087 71 26.9773 71 21.5157C71 16.0542 66.5686 11.6228 61.1265 11.6228C60.8155 11.6228 60.4851 11.6422 60.1741 11.6616C60.1547 11.6616 60.1352 11.6616 60.1158 11.6616C59.8631 11.6616 59.6493 11.5062 59.5716 11.2729C58.4249 7.96879 56.2869 5.15056 53.4103 3.10977C50.5338 1.08842 47.1519 0 43.6534 0C41.1462 0 38.7555 0.524774 36.5204 1.57432C34.3047 2.62387 32.3611 4.12045 30.7479 6.02519C30.6313 6.16124 30.4758 6.23898 30.3008 6.23898C30.2037 6.23898 30.1259 6.21955 30.0287 6.18067C28.124 5.18943 26.0055 4.66466 23.8675 4.66466C18.1144 4.66466 13.0222 8.31864 11.1952 13.7802C11.1174 14.0134 10.8842 14.1689 10.651 14.1689C10.6121 14.1689 10.5732 14.1689 10.5344 14.1495C9.95127 14.0329 9.34875 13.9551 8.74624 13.9551C3.90665 13.9745 0 17.8812 0 22.7013C0 27.5215 3.90665 31.4281 8.7268 31.4281H29.6789C30.0093 31.4281 30.262 31.6808 30.262 32.0112V36.0928H41.3211C41.6515 36.0928 41.9042 36.3455 41.9042 36.6759V45.9858C41.9042 46.3162 41.6515 46.5689 41.3211 46.5689H31.3893C31.2143 46.5689 31.0589 46.4911 30.9422 46.3551C30.8256 46.219 30.7868 46.0635 30.8062 45.8886C30.9422 44.9751 30.6507 44.0227 29.9899 43.3619L27.6381 41.0101C27.0745 40.4465 26.3553 40.1549 25.5584 40.1549C25.0337 40.1549 24.5089 40.291 24.0619 40.5631C23.7703 40.738 23.4593 40.8158 23.1289 40.8158C22.8957 40.8158 22.6625 40.7769 22.4487 40.6797C21.9239 40.4659 21.5352 40.0189 21.3991 39.4747C21.0687 38.153 19.8831 37.2395 18.542 37.2395H15.2185C13.8774 37.2395 12.7112 38.153 12.3808 39.4552C12.2447 40.0189 11.856 40.4659 11.3312 40.6797C11.098 40.7769 10.8648 40.8352 10.6121 40.8352C10.3011 40.8352 9.99015 40.7575 9.71804 40.5825C9.25157 40.3104 8.7268 40.1549 8.18259 40.1549C7.40515 40.1549 6.66658 40.4659 6.12237 41.0101L3.7706 43.3619C2.81823 44.3143 2.64331 45.7914 3.32357 46.9381C3.61511 47.424 3.65398 48.0266 3.44019 48.5513C3.22639 49.0761 2.77936 49.4648 2.23515 49.6009C0.913496 49.9507 0 51.1169 0 52.458V55.7816C0 57.1226 0.913496 58.2888 2.21571 58.6192C2.77936 58.7553 3.22639 59.144 3.44019 59.6688C3.67342 60.213 3.63455 60.7961 3.34301 61.282C2.64331 62.4481 2.81823 63.9253 3.7706 64.8776L6.12237 67.2294C6.68601 67.793 7.42458 68.0846 8.20203 68.0846C8.7268 68.0846 9.25157 67.9485 9.6986 67.6764C9.99015 67.5015 10.3011 67.4238 10.6315 67.4238C10.8648 67.4238 11.098 67.4626 11.3118 67.5598C11.8366 67.7736 12.2253 68.2206 12.3613 68.7649C12.6918 70.0865 13.8774 71 15.2185 71H18.542C19.8831 71 21.0493 70.0865 21.3797 68.7843C21.5157 68.2206 21.9045 67.7736 22.4292 67.5598C22.6625 67.4626 22.8957 67.4043 23.1484 67.4043C23.4593 67.4043 23.7703 67.4821 24.0424 67.657C24.5089 67.9291 25.0337 68.0846 25.5584 68.0846C26.3359 68.0846 27.0745 67.7736 27.6381 67.2294L29.9899 64.8776C30.9422 63.9253 31.1172 62.4481 30.4369 61.3014C30.1454 60.7961 30.0871 60.213 30.3203 59.6882C30.5341 59.1634 30.9811 58.7747 31.5253 58.6387C32.2833 58.4443 32.9247 57.9778 33.3329 57.317C33.4301 57.1421 33.6244 57.0449 33.8382 57.0449H42.5067C42.8371 57.0449 43.0898 57.2976 43.0898 57.628V62.4481C43.0898 62.7202 42.9149 62.9535 42.6622 63.0118C40.8546 63.4782 39.6107 65.0914 39.6107 66.9379C39.6107 69.1924 41.4377 71.0194 43.6923 71.0194C45.9469 71.0194 47.7739 69.1924 47.7739 66.9379C47.7739 65.0914 46.5105 63.4782 44.7224 63.0118C44.4698 62.9535 44.2948 62.7202 44.2948 62.4481V55.8787H34.4019C34.0714 55.8787 33.8188 55.6261 33.8188 55.2957V52.9633C33.8188 52.6329 34.0714 52.3802 34.4019 52.3802H53.0216C53.352 52.3802 53.6047 52.6329 53.6047 52.9633V59.3578H71.0583V34.9266H53.6047V50.631C53.6047 50.9614 53.352 51.2141 53.0216 51.2141H33.8188ZM30.262 29.6789C30.262 30.0093 30.0093 30.262 29.6789 30.262H8.7268C4.54804 30.262 1.16616 26.8801 1.16616 22.7013C1.16616 18.5226 4.56748 15.1407 8.7268 15.1407C9.56255 15.1407 10.4177 15.2962 11.2341 15.5683L11.8366 15.7821L11.9921 15.1601C13.3332 9.65973 18.2116 5.83082 23.8675 5.83082C26.1415 5.83082 28.3572 6.47221 30.2814 7.67725L30.7284 7.94936L31.0394 7.52176C34.052 3.47906 38.6584 1.16616 43.6534 1.16616C50.631 1.16616 56.8311 5.85026 58.7553 12.5557L58.9108 13.061L59.4355 12.9639C59.9992 12.8472 60.5628 12.7889 61.1459 12.7889C63.4588 12.7889 65.6357 13.7024 67.2877 15.3545C68.9398 17.0066 69.8533 19.2028 69.8533 21.5157C69.8533 26.3359 65.9272 30.2425 61.1265 30.2425H48.3181C47.9877 30.2425 47.735 29.9899 47.735 29.6595V11.6422H30.2814V29.6789H30.262ZM32.0112 34.9266C31.6808 34.9266 31.4281 34.674 31.4281 34.3436V13.3915C31.4281 13.061 31.6808 12.8084 32.0112 12.8084H45.9858C46.3162 12.8084 46.5689 13.061 46.5689 13.3915V34.3436C46.5689 34.674 46.3162 34.9266 45.9858 34.9266H32.0112ZM32.5943 55.7816C32.5943 56.5979 32.0501 57.2976 31.2532 57.4919C30.3397 57.7252 29.6012 58.3666 29.2513 59.2023C28.882 60.0769 28.9403 61.0682 29.4262 61.865C29.8538 62.5842 29.7372 63.4782 29.1736 64.0419L26.8218 66.4131C26.4914 66.7435 26.0443 66.9379 25.5584 66.9379C25.2475 66.9379 24.9365 66.8601 24.645 66.6852C24.1785 66.4131 23.6537 66.2576 23.1289 66.2576C22.7402 66.2576 22.3515 66.3353 22.0016 66.4908C21.1465 66.8601 20.4856 67.5987 20.2718 68.4733C20.058 69.2702 19.3583 69.8338 18.542 69.8338H15.2185C14.4021 69.8338 13.7024 69.2896 13.5081 68.4927C13.2748 67.5987 12.6335 66.8407 11.7977 66.4908C11.4284 66.3353 11.0397 66.2576 10.6315 66.2576C10.1068 66.2576 9.58199 66.3937 9.13496 66.6658C8.84342 66.8407 8.53244 66.9184 8.20203 66.9184C7.73556 66.9184 7.28853 66.7435 6.95812 66.3937L4.60635 64.0419C4.02327 63.4588 3.92609 62.5842 4.33425 61.8845C4.82015 61.0682 4.87846 60.0769 4.52861 59.2217C4.17876 58.3666 3.42075 57.7057 2.54613 57.4919C1.74925 57.2781 1.1856 56.5784 1.1856 55.7621V52.4385C1.1856 51.6222 1.72981 50.9225 2.52669 50.7282C3.42075 50.4949 4.17876 49.8535 4.52861 48.9984C4.89789 48.1237 4.82015 47.1325 4.35368 46.3356C3.92609 45.6359 4.04271 44.7224 4.60635 44.1588L6.95812 41.807C7.28853 41.4766 7.73556 41.2822 8.22146 41.2822C8.53244 41.2822 8.84342 41.36 9.13496 41.5349C9.60142 41.807 10.1262 41.9625 10.651 41.9625C11.0397 41.9625 11.4284 41.8848 11.7783 41.7293C12.6335 41.36 13.2943 40.6214 13.5081 39.7468C13.7219 38.9499 14.4216 38.3863 15.2379 38.3863H18.5615C19.3778 38.3863 20.0775 38.9305 20.2718 39.7273C20.5051 40.6214 21.1465 41.3794 21.9822 41.7293C22.3515 41.8848 22.7402 41.9625 23.1484 41.9625C23.6731 41.9625 24.1979 41.8264 24.645 41.5543C24.9365 41.3794 25.2475 41.3017 25.5779 41.3017C26.0443 41.3017 26.4914 41.4766 26.8218 41.8264L29.1736 44.1782C29.7566 44.7613 29.8538 45.6359 29.4457 46.3356C28.9598 47.1325 28.9015 48.1432 29.2513 48.9984C29.6012 49.8535 30.3592 50.4949 31.2338 50.7282C32.0307 50.942 32.5943 51.6417 32.5943 52.458V55.7816ZM46.5689 66.9379C46.5689 68.5511 45.2666 69.8533 43.6534 69.8533C42.0402 69.8533 40.738 68.5511 40.738 66.9379C40.738 65.3247 42.0402 64.0224 43.6534 64.0224C45.2472 64.0224 46.5689 65.3247 46.5689 66.9379ZM54.7126 36.6759C54.7126 36.3455 54.9652 36.0928 55.2957 36.0928H69.2702C69.6006 36.0928 69.8533 36.3455 69.8533 36.6759V57.628C69.8533 57.9584 69.6006 58.2111 69.2702 58.2111H55.2957C54.9652 58.2111 54.7126 57.9584 54.7126 57.628V36.6759Z" fill="url(#paint10_linear_971_646)"/>
</g>
<defs>
<linearGradient id="paint0_linear_971_646" x1="-5.66007" y1="54.1275" x2="70.7405" y2="54.1275" gradientUnits="userSpaceOnUse">
<stop stop-color="#FABE3E"/>
<stop offset="0.3618" stop-color="#F63966"/>
<stop offset="1" stop-color="#007AE8"/>
</linearGradient>
<linearGradient id="paint1_linear_971_646" x1="-5.66006" y1="54.1278" x2="70.7405" y2="54.1278" gradientUnits="userSpaceOnUse">
<stop stop-color="#FABE3E"/>
<stop offset="0.3618" stop-color="#F63966"/>
<stop offset="1" stop-color="#007AE8"/>
</linearGradient>
<linearGradient id="paint2_linear_971_646" x1="-5.66007" y1="16.8782" x2="70.7405" y2="16.8782" gradientUnits="userSpaceOnUse">
<stop stop-color="#FABE3E"/>
<stop offset="0.3618" stop-color="#F63966"/>
<stop offset="1" stop-color="#007AE8"/>
</linearGradient>
<linearGradient id="paint3_linear_971_646" x1="-5.66007" y1="21.5346" x2="70.7405" y2="21.5346" gradientUnits="userSpaceOnUse">
<stop stop-color="#FABE3E"/>
<stop offset="0.3618" stop-color="#F63966"/>
<stop offset="1" stop-color="#007AE8"/>
</linearGradient>
<linearGradient id="paint4_linear_971_646" x1="-5.66007" y1="26.1907" x2="70.7405" y2="26.1907" gradientUnits="userSpaceOnUse">
<stop stop-color="#FABE3E"/>
<stop offset="0.3618" stop-color="#F63966"/>
<stop offset="1" stop-color="#007AE8"/>
</linearGradient>
<linearGradient id="paint5_linear_971_646" x1="-5.66007" y1="30.8471" x2="70.7405" y2="30.8471" gradientUnits="userSpaceOnUse">
<stop stop-color="#FABE3E"/>
<stop offset="0.3618" stop-color="#F63966"/>
<stop offset="1" stop-color="#007AE8"/>
</linearGradient>
<linearGradient id="paint6_linear_971_646" x1="-5.66005" y1="40.1592" x2="70.7405" y2="40.1592" gradientUnits="userSpaceOnUse">
<stop stop-color="#FABE3E"/>
<stop offset="0.3618" stop-color="#F63966"/>
<stop offset="1" stop-color="#007AE8"/>
</linearGradient>
<linearGradient id="paint7_linear_971_646" x1="-5.66005" y1="44.8152" x2="70.7405" y2="44.8152" gradientUnits="userSpaceOnUse">
<stop stop-color="#FABE3E"/>
<stop offset="0.3618" stop-color="#F63966"/>
<stop offset="1" stop-color="#007AE8"/>
</linearGradient>
<linearGradient id="paint8_linear_971_646" x1="-5.66005" y1="49.4717" x2="70.7405" y2="49.4717" gradientUnits="userSpaceOnUse">
<stop stop-color="#FABE3E"/>
<stop offset="0.3618" stop-color="#F63966"/>
<stop offset="1" stop-color="#007AE8"/>
</linearGradient>
<linearGradient id="paint9_linear_971_646" x1="-5.66005" y1="54.1277" x2="70.7405" y2="54.1277" gradientUnits="userSpaceOnUse">
<stop stop-color="#FABE3E"/>
<stop offset="0.3618" stop-color="#F63966"/>
<stop offset="1" stop-color="#007AE8"/>
</linearGradient>
<linearGradient id="paint10_linear_971_646" x1="-5.66006" y1="35.5029" x2="70.7405" y2="35.5029" gradientUnits="userSpaceOnUse">
<stop stop-color="#FABE3E"/>
<stop offset="0.3618" stop-color="#F63966"/>
<stop offset="1" stop-color="#007AE8"/>
</linearGradient>
<clipPath id="clip0_971_646">
<rect width="71" height="71" fill="white"/>
</clipPath>
</defs>
</svg>
