<svg width="40" height="40" viewBox="0 0 40 40" fill="none" xmlns="http://www.w3.org/2000/svg">
<g clip-path="url(#clip0_1492_644)">
<path d="M37.7186 21.3607C37.2624 21.3607 36.8821 21.51 36.5779 21.7341C35.3612 20.6138 33.7643 19.12 33.1559 18.5972L37.9468 13.8919C38.0228 13.8172 38.0228 13.7425 38.0228 13.6678V3.95845C38.9354 3.80907 39.6198 2.98751 39.6198 2.01657C39.6198 0.97094 38.7072 0.0746877 37.6426 0.0746877C36.654 0 35.7414 0.896252 35.7414 1.94188C35.7414 2.91282 36.4259 3.6597 37.3384 3.88376V13.4438L28.8973 21.7341C28.8213 21.8088 28.8213 21.8835 28.8213 21.9582V30.3232H24.5627V20.9125L31.0266 14.5641L33.0798 12.5475C33.1559 12.4728 33.1559 12.3982 33.1559 12.3235V10.755C34.0684 10.6056 34.7528 9.78408 34.7528 8.88783C34.7528 7.84221 33.8403 6.94595 32.7757 6.94595C31.711 6.94595 30.7985 7.84221 30.7985 8.88783C30.7985 9.85877 31.4829 10.6056 32.3954 10.755V12.1741L30.7224 13.8172L27.5285 10.6803V6.72189C28.4411 6.57252 29.1255 5.75095 29.1255 4.8547C29.1255 3.80907 28.2129 2.91282 27.1483 2.91282C26.0836 2.91282 25.1711 3.80907 25.1711 4.8547C25.1711 5.82564 25.8555 6.57252 26.7681 6.72189V10.8297C26.7681 10.9044 26.7681 10.9791 26.8441 11.0538L30.1901 14.34L23.8783 20.5391C23.8023 20.6138 23.8023 20.6885 23.8023 20.7632V30.3979H20.1521V18.1491L23.7262 14.6388C23.8023 14.5641 23.8023 14.4894 23.8023 14.4147V7.31939C23.8023 7.09533 23.6502 6.94595 23.4221 6.94595C23.1939 6.94595 23.0418 7.09533 23.0418 7.31939V14.2653L20.1521 17.1782V4.48126C21.0646 4.33188 21.749 3.51032 21.749 2.61407C21.749 1.56844 20.8365 0.672189 19.7719 0.672189C18.7072 0.672189 17.7947 1.56844 17.7947 2.61407C17.7947 3.58501 18.4791 4.33188 19.3916 4.48126V17.0288L16.5779 14.2653V7.31939C16.5779 7.09533 16.4259 6.94595 16.1977 6.94595C15.9696 6.94595 15.8175 7.09533 15.8175 7.31939V14.4147C15.8175 14.4894 15.8935 14.5641 15.8935 14.6388L19.3156 17.9997V30.3979H15.8175V20.7632C15.8175 20.6885 15.7414 20.6138 15.7414 20.5391L9.42965 14.34L12.7757 11.0538C12.8517 10.9791 12.8517 10.9044 12.8517 10.8297V6.72189C13.7643 6.57252 14.4487 5.75095 14.4487 4.8547C14.4487 3.80907 13.5361 2.91282 12.4715 2.91282C11.4068 2.91282 10.4943 3.80907 10.4943 4.8547C10.4943 5.82564 11.1787 6.57252 12.0913 6.72189V10.6803L8.89733 13.8172L7.22433 12.1741V10.755C8.13688 10.6056 8.82129 9.78408 8.82129 8.88783C8.82129 7.84221 7.90874 6.94595 6.8441 6.94595C5.77946 6.94595 4.86692 7.84221 4.86692 8.88783C4.86692 9.85877 5.55133 10.6056 6.46387 10.755V12.3235C6.46387 12.3982 6.53992 12.4728 6.53992 12.5475L15.2091 20.9125V30.3979H10.9506V22.0329C10.9506 21.9582 10.9506 21.8835 10.8745 21.8088L2.35741 13.4438V3.80907C3.26996 3.6597 3.95437 2.83813 3.95437 1.86719C3.95437 0.896252 3.04182 0 1.97718 0C0.912543 0 -4.17119e-06 0.896252 -4.17119e-06 1.94188C-4.17119e-06 2.91282 0.684406 3.6597 1.59695 3.88376V13.5932C1.59695 13.6678 1.673 13.7425 1.673 13.8172L6.46387 18.5225C5.85551 19.12 4.18251 20.5391 2.96578 21.5847C2.66159 21.3607 2.28136 21.286 1.90114 21.286C0.836498 21.286 -0.0760498 22.1822 -0.0760498 23.2279C-0.0760498 24.2735 0.836498 25.1697 1.90114 25.1697C2.96578 25.1697 3.87832 24.2735 3.87832 23.2279C3.87832 22.7797 3.72623 22.4063 3.49809 22.1076C4.41064 21.286 6.23574 19.6429 6.99619 19.0454L10.1141 22.1076V30.3232H9.88593H3.42205C3.19391 30.3232 3.04182 30.4726 3.04182 30.6966C3.04182 30.9207 3.19391 31.0701 3.42205 31.0701H9.73384L13.9163 34.207C13.9924 34.2816 14.0684 34.2816 14.1445 34.2816C14.2205 34.2816 14.3726 34.207 14.4487 34.1323C14.6008 33.9829 14.5247 33.7588 14.3726 33.6095L10.9506 30.9954H15.2852C15.3612 31.0701 15.4373 31.1448 15.5133 31.1448C15.5894 31.1448 15.7414 31.0701 15.7414 30.9954H19.5437C19.6198 31.0701 19.6958 31.0701 19.7719 31.0701C19.8479 31.0701 19.924 31.0701 20 30.9954H23.8783C23.9544 31.0701 24.0304 31.1448 24.1065 31.1448C24.1825 31.1448 24.3346 31.0701 24.3346 30.9954H28.5932L25.1711 33.6095C25.019 33.7588 25.019 33.9829 25.0951 34.1323C25.2471 34.2816 25.4753 34.2816 25.6274 34.207L29.8099 31.0701H36.1217C36.3498 31.0701 36.5019 30.9207 36.5019 30.6966C36.5019 30.4726 36.3498 30.3232 36.1217 30.3232H29.6578H29.4297V22.1076L32.5475 19.0454C33.2319 19.7175 35.057 21.4354 35.9696 22.1822C35.7414 22.481 35.6654 22.8544 35.6654 23.2279C35.6654 24.2735 36.5779 25.1697 37.6426 25.1697C38.7072 25.1697 39.6198 24.2735 39.6198 23.2279C39.6958 22.1822 38.8593 21.3607 37.7186 21.3607ZM36.5019 1.94188C36.5019 1.26969 37.0342 0.746877 37.7186 0.746877C38.403 0.746877 38.9354 1.26969 38.9354 1.94188C38.9354 2.61407 38.403 3.21157 37.7186 3.21157C37.0342 3.13688 36.5019 2.61407 36.5019 1.94188ZM31.5589 8.81315C31.5589 8.14096 32.0913 7.61814 32.7757 7.61814C33.4601 7.61814 33.9924 8.14096 33.9924 8.81315C33.9924 9.48533 33.4601 10.0081 32.7757 10.0081C32.0913 10.0081 31.5589 9.48533 31.5589 8.81315ZM25.9316 4.8547C25.9316 4.18251 26.4639 3.6597 27.1483 3.6597C27.8327 3.6597 28.365 4.18251 28.365 4.8547C28.365 5.52689 27.8327 6.0497 27.1483 6.0497C26.4639 6.0497 25.9316 5.52689 25.9316 4.8547ZM18.5551 2.61407C18.5551 1.94188 19.0874 1.34438 19.7719 1.34438C20.4563 1.34438 21.0646 1.86719 21.0646 2.61407C21.0646 3.28626 20.5323 3.80907 19.7719 3.80907C19.0874 3.80907 18.5551 3.28626 18.5551 2.61407ZM11.2547 4.8547C11.2547 4.18251 11.7871 3.6597 12.4715 3.6597C13.1559 3.6597 13.6882 4.18251 13.6882 4.8547C13.6882 5.52689 13.1559 6.0497 12.4715 6.0497C11.8631 6.0497 11.2547 5.52689 11.2547 4.8547ZM5.62737 8.81315C5.62737 8.14096 6.15969 7.61814 6.8441 7.61814C7.52851 7.61814 8.13688 8.14096 8.13688 8.81315C8.13688 9.48533 7.60456 10.0081 6.8441 10.0081C6.23574 10.0081 5.62737 9.48533 5.62737 8.81315ZM0.684407 1.94188C0.684407 1.26969 1.21673 0.746877 1.90114 0.746877C2.58555 0.746877 3.11787 1.26969 3.11787 1.94188C3.11787 2.61407 2.58555 3.21157 1.90114 3.21157C1.29277 3.13688 0.684407 2.61407 0.684407 1.94188ZM1.97718 24.4976C1.29277 24.4976 0.760452 23.9747 0.760452 23.3026C0.760452 22.6304 1.29277 22.0329 1.97718 22.0329C2.66159 22.0329 3.19391 22.5557 3.19391 23.3026C3.19391 23.9747 2.66159 24.4976 1.97718 24.4976ZM37.7186 24.4976C37.0342 24.4976 36.5019 23.9747 36.5019 23.3026C36.5019 22.6304 37.0342 22.0329 37.7186 22.0329C38.403 22.0329 38.9354 22.5557 38.9354 23.3026C39.0114 23.9747 38.403 24.4976 37.7186 24.4976Z" fill="url(#paint0_linear_1492_644)"/>
<path d="M31.3307 36.5223H8.28892C8.06078 36.5223 7.90869 36.6717 7.90869 36.8957C7.90869 37.1198 8.06078 37.2692 8.28892 37.2692H31.3307C31.5589 37.2692 31.711 37.1198 31.711 36.8957C31.711 36.6717 31.5589 36.5223 31.3307 36.5223Z" fill="url(#paint1_linear_1492_644)"/>
<path d="M23.4221 38.6135H16.1217C15.8935 38.6135 15.7415 38.7629 15.7415 38.987C15.7415 39.211 15.8935 39.3604 16.1217 39.3604H23.4221C23.6502 39.3604 23.8023 39.211 23.8023 38.987C23.8023 38.7629 23.6502 38.6135 23.4221 38.6135Z" fill="url(#paint2_linear_1492_644)"/>
</g>
<defs>
<linearGradient id="paint0_linear_1492_644" x1="-0.364947" y1="17.167" x2="39.0351" y2="17.167" gradientUnits="userSpaceOnUse">
<stop stop-color="#F8B000"/>
<stop offset="0.3618" stop-color="#FF1364"/>
<stop offset="1" stop-color="#007AE3"/>
</linearGradient>
<linearGradient id="paint1_linear_1492_644" x1="-0.364997" y1="36.8785" x2="39.035" y2="36.8785" gradientUnits="userSpaceOnUse">
<stop stop-color="#F8B000"/>
<stop offset="0.3618" stop-color="#FF1364"/>
<stop offset="1" stop-color="#007AE3"/>
</linearGradient>
<linearGradient id="paint2_linear_1492_644" x1="-0.364932" y1="38.9462" x2="39.0351" y2="38.9462" gradientUnits="userSpaceOnUse">
<stop stop-color="#F8B000"/>
<stop offset="0.3618" stop-color="#FF1364"/>
<stop offset="1" stop-color="#007AE3"/>
</linearGradient>
<clipPath id="clip0_1492_644">
<rect width="39.6958" height="39.2857" fill="white"/>
</clipPath>
</defs>
</svg>
