<svg width="41" height="38" viewBox="0 0 41 38" fill="none" xmlns="http://www.w3.org/2000/svg">
<g clip-path="url(#clip0_1485_644)">
<path d="M25.859 37.2222C25.6962 37.2222 25.5606 37.0882 25.5606 36.9272V29.3648C25.5606 27.4608 26.3475 25.6104 27.8127 24.1891C28.4639 23.5455 28.9795 22.9555 29.3865 22.3923C29.4679 22.3119 29.495 22.2046 29.4679 22.1241C29.4679 22.0169 29.4136 21.9364 29.3051 21.856C29.1423 21.7219 28.8981 21.7487 28.7624 21.9364C28.274 22.6069 27.8127 23.1968 27.2972 23.6795C25.6962 25.1545 24.7465 27.2731 24.7465 29.3916V36.9541C24.7465 37.115 24.6109 37.2491 24.448 37.2491H11.6949C11.5321 37.2491 11.3964 37.115 11.3964 36.9541V35.3987C11.3964 33.8701 10.2568 32.6097 8.73726 32.4488L6.81072 32.2074C5.69821 32.0733 4.80278 31.0811 4.80278 29.9548V25.2886C4.80278 24.7254 4.31436 24.2963 3.71741 24.2963H1.38385C1.27531 24.2963 1.16678 24.2427 1.11251 24.1623C1.05824 24.0818 1.05824 23.9477 1.11251 23.8673L3.28326 20.1129C4.5857 17.8334 5.2912 15.2858 5.2912 12.7381C5.2912 9.03734 6.97353 5.5511 9.76836 3.45936C12.6175 1.28717 16.1992 0.402198 19.8623 0.858091C20.3508 0.911725 20.8392 1.04581 21.3276 1.15308C21.5175 1.20671 21.7346 1.09945 21.816 0.884908C21.8703 0.67037 21.7346 0.48265 21.5175 0.429015C21.0291 0.321746 20.4864 0.214477 19.9709 0.160843C16.0635 -0.375501 12.2919 0.563101 9.33422 2.86938C6.29517 5.12203 4.47717 8.82281 4.47717 12.7649C4.47717 15.2053 3.85308 17.6457 2.63203 19.7642L0.515553 23.465C0.325612 23.7868 0.325612 24.1623 0.515553 24.4841C0.705493 24.8059 1.03111 24.9936 1.38385 24.9936H3.77167C3.93448 24.9936 4.07015 25.1277 4.07015 25.2886V29.9548C4.07015 31.4565 5.20979 32.6901 6.75645 32.9315L8.65586 33.1728C9.82263 33.3069 10.6638 34.2455 10.6638 35.4255V36.9541C10.6638 37.115 10.5281 37.2491 10.3653 37.2491H0.352746C0.162806 37.2491 0 37.41 0 37.5977C0 37.8122 0.18994 38.0268 0.352746 38.0268H33.9993C34.1893 38.0268 34.3521 37.8122 34.3521 37.5977C34.3521 37.41 34.1893 37.2491 33.9993 37.2491H25.859V37.2222Z" fill="url(#paint0_linear_1485_644)"/>
<path d="M36.74 16.2244C35.519 16.2244 34.4336 17.0825 34.1623 18.2357C34.1351 18.3697 33.9995 18.477 33.8638 18.477H22.386C22.196 18.477 22.0332 18.6379 22.0332 18.8256C22.0332 19.067 22.196 19.2547 22.386 19.2547H33.9452C34.0809 19.2547 34.2165 19.362 34.2437 19.4961C34.515 20.676 35.5461 21.5074 36.7672 21.5074C38.2324 21.5074 39.3992 20.3006 39.3992 18.8525C39.3992 17.4043 38.2053 16.2244 36.74 16.2244ZM36.74 20.7297C35.6818 20.7297 34.8135 19.8715 34.8135 18.8256C34.8135 17.8066 35.6818 17.0021 36.74 17.0021C37.7711 17.0021 38.5852 17.8066 38.5852 18.8256C38.6123 19.8983 37.7983 20.7297 36.74 20.7297Z" fill="url(#paint1_linear_1485_644)"/>
<path d="M33.8908 4.4516C34.0264 4.4516 34.1621 4.55887 34.1892 4.69296C34.4606 5.87292 35.546 6.70425 36.767 6.70425C38.2323 6.70425 39.399 5.52429 39.399 4.10298C39.399 2.68167 38.2051 1.50171 36.767 1.50171C35.546 1.50171 34.4606 2.35986 34.1892 3.513C34.1621 3.64709 34.0264 3.75436 33.8908 3.75436H20.405C20.2151 3.75436 20.0522 3.91526 20.0522 4.10298C20.0522 4.2907 20.2151 4.4516 20.405 4.4516H33.8908ZM36.7399 2.19896C37.771 2.19896 38.585 3.03029 38.585 4.10298C38.585 5.17567 37.771 6.007 36.7399 6.007C35.6545 6.007 34.8133 5.17567 34.8133 4.10298C34.8405 3.05711 35.7088 2.19896 36.7399 2.19896Z" fill="url(#paint2_linear_1485_644)"/>
<path d="M38.3681 8.82275C37.2013 8.82275 36.1159 9.6809 35.8446 10.8609C35.8175 10.9949 35.6818 11.0754 35.5461 11.0754H24.6652C24.4753 11.0754 24.3125 11.2899 24.3125 11.4777C24.3125 11.6654 24.4753 11.8263 24.6652 11.8263H35.4919C35.6275 11.8263 35.7632 11.9336 35.7903 12.0676C36.0617 13.2476 37.147 14.0789 38.3681 14.0789C39.8333 14.0789 41.0001 12.899 41.0001 11.4777C41.0001 10.0563 39.8062 8.82275 38.3681 8.82275ZM38.3681 13.328C37.3099 13.328 36.4687 12.4967 36.4687 11.5045C36.4687 10.4586 37.337 9.60045 38.3681 9.60045C39.4263 9.60045 40.2946 10.4586 40.2946 11.5045C40.2675 12.4967 39.4263 13.328 38.3681 13.328Z" fill="url(#paint3_linear_1485_644)"/>
</g>
<defs>
<linearGradient id="paint0_linear_1485_644" x1="0" y1="18.9992" x2="34.3596" y2="18.9992" gradientUnits="userSpaceOnUse">
<stop stop-color="#F4BB41"/>
<stop offset="0.3618" stop-color="#EA3665"/>
<stop offset="1" stop-color="#2F7AE6"/>
</linearGradient>
<linearGradient id="paint1_linear_1485_644" x1="3.23534" y1="18.8605" x2="39.8546" y2="18.8605" gradientUnits="userSpaceOnUse">
<stop stop-color="#F4BB41"/>
<stop offset="0.3618" stop-color="#EA3665"/>
<stop offset="1" stop-color="#2F7AE6"/>
</linearGradient>
<linearGradient id="paint2_linear_1485_644" x1="6.85684" y1="4.10258" x2="39.1524" y2="4.10258" gradientUnits="userSpaceOnUse">
<stop stop-color="#F4BB41"/>
<stop offset="0.3618" stop-color="#EA3665"/>
<stop offset="1" stop-color="#2F7AE6"/>
</linearGradient>
<linearGradient id="paint3_linear_1485_644" x1="4.60354" y1="11.4663" x2="40.2527" y2="11.4663" gradientUnits="userSpaceOnUse">
<stop stop-color="#F4BB41"/>
<stop offset="0.3618" stop-color="#EA3665"/>
<stop offset="1" stop-color="#2F7AE6"/>
</linearGradient>
<clipPath id="clip0_1485_644">
<rect width="41" height="38" fill="white"/>
</clipPath>
</defs>
</svg>
