<svg width="71" height="71" viewBox="0 0 71 71" fill="none" xmlns="http://www.w3.org/2000/svg">
<path d="M26.397 7.2603H27.9111C28.2395 7.2603 28.4949 6.98666 28.4949 6.67653C28.4949 6.34817 28.2212 6.09277 27.9111 6.09277H26.397C26.0686 6.09277 25.8132 6.36641 25.8132 6.67653C25.8132 6.98666 26.0686 7.2603 26.397 7.2603Z" fill="url(#paint0_linear_970_632)"/>
<path d="M32.4717 7.2603H33.9858C34.3142 7.2603 34.5696 6.98666 34.5696 6.67653C34.5696 6.34817 34.296 6.09277 33.9858 6.09277H32.4717C32.1433 6.09277 31.8879 6.36641 31.8879 6.67653C31.8697 6.98666 32.1433 7.2603 32.4717 7.2603Z" fill="url(#paint1_linear_970_632)"/>
<path d="M38.5465 7.2603H44.6212C44.9496 7.2603 45.205 6.98666 45.205 6.67653C45.205 6.34817 44.9314 6.09277 44.6212 6.09277H38.5465C38.2181 6.09277 37.9627 6.36641 37.9627 6.67653C37.9445 6.98666 38.2181 7.2603 38.5465 7.2603Z" fill="url(#paint2_linear_970_632)"/>
<path d="M71 64.3415C71 64.0496 70.7811 63.8124 70.471 63.776C70.1973 63.7395 69.9784 63.5023 69.9784 63.2287V59.3795C69.9784 59.1059 70.1791 58.8687 70.471 58.8322C70.7811 58.7957 71 58.5586 71 58.2667V52.1919C71 51.8636 70.7264 51.6082 70.4162 51.6082H70.0331C69.723 51.6082 69.4859 51.371 69.4859 51.0609V43.0889C69.4859 42.7605 69.2122 42.5051 68.9021 42.5051H63.9766C63.6665 42.5051 63.4293 42.268 63.4293 41.9579V40.0606C63.4293 39.7323 63.1557 39.4769 62.8456 39.4769H56.3695C56.0594 39.4769 55.8222 39.2397 55.8222 38.9296V35.1352C55.8222 34.825 56.0594 34.5879 56.3695 34.5879H62.8273C63.1557 34.5879 63.4111 34.3142 63.4111 34.0041V27.9111C63.4111 27.5827 63.1375 27.3273 62.8273 27.3273H56.3695C56.0594 27.3273 55.8222 27.0902 55.8222 26.7801V21.8546C55.8222 21.5262 55.5486 21.2708 55.2384 21.2708H42.724C42.4139 21.2708 42.1768 21.0337 42.1768 20.7235V18.8263C42.1768 18.4979 41.9031 18.2425 41.593 18.2425H36.6675C36.3574 18.2425 36.1202 18.0054 36.1202 17.6953V13.8643C36.1202 13.5542 36.3574 13.3171 36.6675 13.3171H50.7143C51.0427 13.3171 51.298 13.0434 51.298 12.7333V0.583762C51.298 0.255396 51.0244 0 50.7143 0H20.3222C19.9938 0 19.7384 0.273638 19.7384 0.583762V12.7333C19.7384 13.0617 20.0121 13.3171 20.3222 13.3171H34.369C34.6791 13.3171 34.9162 13.5542 34.9162 13.8643V17.6588C34.9162 17.9689 34.6791 18.2061 34.369 18.2061H29.4435C29.1151 18.2061 28.8597 18.4797 28.8597 18.7898V20.687C28.8597 20.9972 28.6226 21.2343 28.3124 21.2343H15.7616C15.4332 21.2343 15.1778 21.508 15.1778 21.8181V26.7436C15.1778 27.0537 14.9406 27.2909 14.6305 27.2909H8.17266C7.8443 27.2909 7.5889 27.5645 7.5889 27.8746V33.9494C7.5889 34.2777 7.86254 34.5331 8.17266 34.5331H14.6305C14.9406 34.5331 15.1778 34.7703 15.1778 35.0804V38.8749C15.1778 39.185 14.9406 39.4221 14.6305 39.4221H8.17266C7.8443 39.4221 7.5889 39.6958 7.5889 40.0059V41.9579C7.5889 42.268 7.35175 42.5051 7.04162 42.5051H2.11614C1.78777 42.5051 1.53237 42.7788 1.53237 43.0889V51.0609C1.53237 51.371 1.29522 51.6082 0.985098 51.6082H0.583762C0.255396 51.6082 0 51.8818 0 52.1919V58.2667C0 58.5951 0.273638 58.8505 0.583762 58.8505H0.966855C1.27698 58.8505 1.51413 59.0876 1.51413 59.3977V63.1922C1.51413 63.5023 1.27698 63.7395 0.966855 63.7395H0.583762C0.255396 63.7395 0 64.0131 0 64.3232V70.4162C0 70.7446 0.273638 71 0.583762 71H14.2474C14.5758 71 14.8312 70.7264 14.8312 70.4162V64.3415C14.8312 64.0131 14.5576 63.7577 14.2474 63.7577H3.24717C2.93705 63.7577 2.6999 63.5206 2.6999 63.2104V59.416C2.6999 59.1059 2.93705 58.8687 3.24717 58.8687H14.2474C14.5758 58.8687 14.8312 58.5951 14.8312 58.2849V52.2102C14.8312 51.8818 14.5576 51.6264 14.2474 51.6264H3.24717C2.93705 51.6264 2.6999 51.3893 2.6999 51.0791V44.2564C2.6999 43.9463 2.93705 43.7091 3.24717 43.7091H7.04162C7.35175 43.7091 7.5889 43.9463 7.5889 44.2564V46.1536C7.5889 46.482 7.86254 46.7374 8.17266 46.7374H23.3505C23.6788 46.7374 23.9342 46.4638 23.9342 46.1536V44.2564C23.9342 43.9463 24.1714 43.7091 24.4815 43.7091H28.2759C28.5861 43.7091 28.8232 43.9463 28.8232 44.2564V51.0791C28.8232 51.3893 28.5861 51.6264 28.2759 51.6264H20.304C19.9756 51.6264 19.7202 51.9001 19.7202 52.2102V58.2849C19.7202 58.6133 19.9938 58.8687 20.304 58.8687H28.7867C29.0969 58.8687 29.334 59.1059 29.334 59.416V63.2104C29.334 63.5206 29.0969 63.7577 28.7867 63.7577H20.304C19.9756 63.7577 19.7202 64.0313 19.7202 64.3415V70.4162C19.7202 70.7446 19.9938 71 20.304 71H32.4717C32.8001 71 33.0555 70.7264 33.0555 70.4162V64.3415C33.0555 64.0131 32.7819 63.7577 32.4717 63.7577H31.0853C30.7752 63.7577 30.538 63.5206 30.538 63.2104V59.416C30.538 59.1059 30.7752 58.8687 31.0853 58.8687H32.4717C32.8001 58.8687 33.0555 58.5951 33.0555 58.2849V52.2102C33.0555 51.8818 32.7819 51.6264 32.4717 51.6264H30.5745C30.2644 51.6264 30.0272 51.3893 30.0272 51.0791V43.1071C30.0272 42.7788 29.7536 42.5234 29.4435 42.5234H24.518C24.2079 42.5234 23.9707 42.2862 23.9707 41.9761V40.0789C23.9707 39.7505 23.6971 39.4951 23.3869 39.4951H16.9108C16.6007 39.4951 16.3636 39.258 16.3636 38.9478V35.1534C16.3636 34.8433 16.6007 34.6061 16.9108 34.6061H23.3687C23.6971 34.6061 23.9525 34.3325 23.9525 34.0224V27.9111C23.9525 27.5827 23.6788 27.3273 23.3687 27.3273H16.9108C16.6007 27.3273 16.3636 27.0902 16.3636 26.7801V22.9856C16.3636 22.6755 16.6007 22.4383 16.9108 22.4383H28.2942C28.6043 22.4383 28.8415 22.6755 28.8415 22.9856V24.8828C28.8415 25.2112 29.1151 25.4666 29.4252 25.4666H41.5748C41.9031 25.4666 42.1585 25.193 42.1585 24.8828V22.9856C42.1585 22.6755 42.3957 22.4383 42.7058 22.4383H54.0892C54.3993 22.4383 54.6364 22.6755 54.6364 22.9856V26.7801C54.6364 27.0902 54.3993 27.3273 54.0892 27.3273H47.6313C47.3029 27.3273 47.0475 27.601 47.0475 27.9111V33.9859C47.0475 34.3142 47.3212 34.5696 47.6313 34.5696H54.0892C54.3993 34.5696 54.6364 34.8068 54.6364 35.1169V38.9114C54.6364 39.2215 54.3993 39.4586 54.0892 39.4586H47.6313C47.3029 39.4586 47.0475 39.7323 47.0475 40.0424V41.9579C47.0475 42.268 46.8104 42.5051 46.5003 42.5051H41.5748C41.2464 42.5051 40.991 42.7788 40.991 43.0889V51.0609C40.991 51.371 40.7539 51.6082 40.4437 51.6082H38.5465C38.2181 51.6082 37.9627 51.8818 37.9627 52.1919V58.2667C37.9627 58.5951 38.2364 58.8505 38.5465 58.8505H50.696C51.0244 58.8505 51.2798 58.5768 51.2798 58.2667V52.1919C51.2798 51.8636 51.0062 51.6082 50.696 51.6082H42.724C42.4139 51.6082 42.1768 51.371 42.1768 51.0609V44.2382C42.1768 43.9281 42.4139 43.6909 42.724 43.6909H46.5185C46.8286 43.6909 47.0658 43.9281 47.0658 44.2382V46.1354C47.0658 46.4638 47.3394 46.7192 47.6495 46.7192H62.8273C63.1557 46.7192 63.4111 46.4455 63.4111 46.1354V44.2382C63.4111 43.9281 63.6483 43.6909 63.9584 43.6909H67.7528C68.063 43.6909 68.3001 43.9281 68.3001 44.2382V51.0609C68.3001 51.371 68.063 51.6082 67.7528 51.6082H56.7526C56.4242 51.6082 56.1688 51.8818 56.1688 52.1919V58.2667C56.1688 58.5951 56.4424 58.8505 56.7526 58.8505H68.2636C68.5737 58.8505 68.8109 59.0876 68.8109 59.3977V63.1922C68.8109 63.5023 68.5737 63.7395 68.2636 63.7395H58.2667C57.9383 63.7395 57.6829 64.0131 57.6829 64.3232V66.2205C57.6829 66.5306 57.4458 66.7677 57.1357 66.7677H51.8271C51.517 66.7677 51.2798 66.5306 51.2798 66.2205V64.3232C51.2798 63.9949 51.0062 63.7395 50.696 63.7395H38.5465C38.2181 63.7395 37.9627 64.0131 37.9627 64.3232V70.4162C37.9627 70.7446 38.2364 71 38.5465 71H50.696C51.0244 71 51.2798 70.7264 51.2798 70.4162V68.519C51.2798 68.2089 51.517 67.9717 51.8271 67.9717H57.1357C57.4458 67.9717 57.6829 68.2089 57.6829 68.519V70.4162C57.6829 70.7446 57.9566 71 58.2667 71H70.4162C70.7446 71 71 70.7264 71 70.4162V64.3415ZM13.1164 64.9435C13.4265 64.9435 13.6637 65.1806 13.6637 65.4907V69.2852C13.6637 69.5953 13.4265 69.8325 13.1164 69.8325H1.73304C1.42292 69.8325 1.18577 69.5953 1.18577 69.2852V65.4907C1.18577 65.1806 1.42292 64.9435 1.73304 64.9435H13.1164ZM13.1164 52.7939C13.4265 52.7939 13.6637 53.0311 13.6637 53.3412V57.1357C13.6637 57.4458 13.4265 57.6829 13.1164 57.6829H2.11614H1.73304C1.42292 57.6829 1.18577 57.4458 1.18577 57.1357V53.3412C1.18577 53.0311 1.42292 52.7939 1.73304 52.7939H2.11614H13.1164ZM31.3225 64.9435C31.6326 64.9435 31.8697 65.1806 31.8697 65.4907V69.2852C31.8697 69.5953 31.6326 69.8325 31.3225 69.8325H21.4532C21.1431 69.8325 20.906 69.5953 20.906 69.2852V65.4907C20.906 65.1806 21.1431 64.9435 21.4532 64.9435H31.3225ZM31.3225 52.7939C31.6326 52.7939 31.8697 53.0311 31.8697 53.3412V57.1357C31.8697 57.4458 31.6326 57.6829 31.3225 57.6829H29.936H21.4532C21.1431 57.6829 20.906 57.4458 20.906 57.1357V53.3412C20.906 53.0311 21.1431 52.7939 21.4532 52.7939H29.4252H31.3225ZM22.2194 40.6444C22.5295 40.6444 22.7667 40.8815 22.7667 41.1917V43.0889V44.9861C22.7667 45.2962 22.5295 45.5334 22.2194 45.5334H9.32194C9.01182 45.5334 8.77467 45.2962 8.77467 44.9861V43.0889V41.1917C8.77467 40.8815 9.01182 40.6444 9.32194 40.6444H15.7798H22.2194ZM22.2194 28.5131C22.5295 28.5131 22.7667 28.7503 22.7667 29.0604V32.8548C22.7667 33.165 22.5295 33.4021 22.2194 33.4021H15.7616H9.32194C9.01182 33.4021 8.77467 33.165 8.77467 32.8548V29.0604C8.77467 28.7503 9.01182 28.5131 9.32194 28.5131H15.7798H22.2194ZM21.4715 12.1495C21.1614 12.1495 20.9242 11.9124 20.9242 11.6023V1.73304C20.9242 1.42292 21.1614 1.18577 21.4715 1.18577H49.5468C49.8569 1.18577 50.094 1.42292 50.094 1.73304V11.6023C50.094 11.9124 49.8569 12.1495 49.5468 12.1495H35.5H21.4715ZM40.991 23.7336C40.991 24.0437 40.7539 24.2808 40.4437 24.2808H30.5745C30.2644 24.2808 30.0272 24.0437 30.0272 23.7336V21.8363V19.9391C30.0272 19.629 30.2644 19.3918 30.5745 19.3918H35.5H40.4255C40.7356 19.3918 40.9728 19.629 40.9728 19.9391V23.7336H40.991ZM49.5468 52.7939C49.8569 52.7939 50.094 53.0311 50.094 53.3412V57.1357C50.094 57.4458 49.8569 57.6829 49.5468 57.6829H39.6775C39.3674 57.6829 39.1303 57.4458 39.1303 57.1357V53.3412C39.1303 53.0311 39.3674 52.7939 39.6775 52.7939H41.5748H49.5468ZM48.7806 33.4021C48.4705 33.4021 48.2333 33.165 48.2333 32.8548V29.0604C48.2333 28.7503 48.4705 28.5131 48.7806 28.5131H55.2384H61.6963C62.0064 28.5131 62.2436 28.7503 62.2436 29.0604V32.8548C62.2436 33.165 62.0064 33.4021 61.6963 33.4021H55.2384H48.7806ZM62.2436 43.0889V44.9861C62.2436 45.2962 62.0064 45.5334 61.6963 45.5334H48.7988C48.4887 45.5334 48.2515 45.2962 48.2515 44.9861V43.0889V41.1917C48.2515 40.8815 48.4887 40.6444 48.7988 40.6444H55.2567H61.7145C62.0247 40.6444 62.2618 40.8815 62.2618 41.1917V43.0889H62.2436ZM50.094 67.388V69.2852C50.094 69.5953 49.8569 69.8325 49.5468 69.8325H39.6775C39.3674 69.8325 39.1303 69.5953 39.1303 69.2852V65.4907C39.1303 65.1806 39.3674 64.9435 39.6775 64.9435H49.5468C49.8569 64.9435 50.094 65.1806 50.094 65.4907V67.388ZM69.8325 69.2852C69.8325 69.5953 69.5953 69.8325 69.2852 69.8325H59.416C59.1059 69.8325 58.8687 69.5953 58.8687 69.2852V67.388V65.4907C58.8687 65.1806 59.1059 64.9435 59.416 64.9435H69.2852C69.5953 64.9435 69.8325 65.1806 69.8325 65.4907V69.2852ZM69.8325 57.1357C69.8325 57.4458 69.5953 57.6829 69.2852 57.6829H57.9018C57.5917 57.6829 57.3546 57.4458 57.3546 57.1357V53.3412C57.3546 53.0311 57.5917 52.7939 57.9018 52.7939H68.9021H69.2852C69.5953 52.7939 69.8325 53.0311 69.8325 53.3412V57.1357Z" fill="url(#paint3_linear_970_632)"/>
<defs>
<linearGradient id="paint0_linear_970_632" x1="-0.708703" y1="6.66262" x2="67.62" y2="6.66262" gradientUnits="userSpaceOnUse">
<stop stop-color="#FABE3E"/>
<stop offset="0.3618" stop-color="#F63966"/>
<stop offset="1" stop-color="#007AE8"/>
</linearGradient>
<linearGradient id="paint1_linear_970_632" x1="-0.708724" y1="6.66262" x2="67.62" y2="6.66262" gradientUnits="userSpaceOnUse">
<stop stop-color="#FABE3E"/>
<stop offset="0.3618" stop-color="#F63966"/>
<stop offset="1" stop-color="#007AE8"/>
</linearGradient>
<linearGradient id="paint2_linear_970_632" x1="-0.708728" y1="6.66262" x2="67.62" y2="6.66262" gradientUnits="userSpaceOnUse">
<stop stop-color="#FABE3E"/>
<stop offset="0.3618" stop-color="#F63966"/>
<stop offset="1" stop-color="#007AE8"/>
</linearGradient>
<linearGradient id="paint3_linear_970_632" x1="-0.708705" y1="35.5034" x2="67.62" y2="35.5034" gradientUnits="userSpaceOnUse">
<stop stop-color="#FABE3E"/>
<stop offset="0.3618" stop-color="#F63966"/>
<stop offset="1" stop-color="#007AE8"/>
</linearGradient>
</defs>
</svg>
