<svg width="59" height="62" viewBox="0 0 59 62" fill="none" xmlns="http://www.w3.org/2000/svg">
<g clip-path="url(#clip0_866_852)">
<path d="M39.9397 47.5688C39.6536 47.5688 39.4152 47.3622 39.3834 47.092L38.9225 43.8657C37.4921 43.516 36.1571 42.9438 34.9333 42.1492C34.679 41.9743 34.5995 41.6247 34.7743 41.3704C34.9492 41.1161 35.2988 41.0366 35.5531 41.2115C36.761 42.0061 38.1119 42.5624 39.5423 42.8644C39.7648 42.9121 39.9397 43.1028 39.9874 43.3412L40.4324 46.4563H43.8018L44.2468 43.3253C44.2786 43.0869 44.4534 42.8962 44.6918 42.8485C46.1222 42.5465 47.4572 41.9902 48.681 41.1956C48.8717 41.0684 49.1419 41.0684 49.3168 41.2115L51.8438 43.1028L54.2278 40.7188L52.3365 38.1917C52.1934 38.001 52.1935 37.7467 52.3206 37.556C53.1153 36.3322 53.6715 34.9972 53.9735 33.5668C54.0212 33.3284 54.2119 33.1535 54.4503 33.1217L57.5813 32.6767V29.3073L54.4662 28.8623C54.2596 28.8305 54.0848 28.6875 54.0053 28.4809C54.0053 28.465 53.9894 28.4332 53.9894 28.4173C53.6874 26.9869 53.1312 25.6519 52.3365 24.4281C52.2093 24.2374 52.2093 23.9672 52.3524 23.7764L54.2437 21.2494L51.8597 18.8654L49.3326 20.7567C49.126 20.8998 48.8558 20.8998 48.6651 20.7567C47.4731 19.9938 46.1381 19.4376 44.7077 19.1197C44.6918 19.1197 44.66 19.1038 44.6441 19.1038C44.4375 19.0402 44.2945 18.8654 44.2627 18.6429L43.8177 15.5278H40.4483L40.0032 18.6588C39.9715 18.8972 39.7966 19.072 39.5582 19.1356C38.1278 19.4376 36.7928 19.9938 35.569 20.7885C35.3147 20.9633 34.965 20.8839 34.7902 20.6296C34.6154 20.3753 34.6949 20.0256 34.9492 19.8508C36.1729 19.0561 37.508 18.484 38.9384 18.1343L39.3993 14.908C39.4311 14.6378 39.6695 14.4312 39.9556 14.4312H44.2945C44.5805 14.4312 44.8189 14.6378 44.8507 14.908L45.3116 18.1343C46.599 18.4522 47.8228 18.9608 48.9671 19.6442L51.5736 17.6893C51.7961 17.5145 52.114 17.5463 52.3047 17.737L55.3721 20.8044C55.5628 20.9951 55.5946 21.313 55.4198 21.5355L53.4649 24.1579C54.1483 25.2863 54.6569 26.5101 54.9748 27.8134L58.2011 28.2743C58.4713 28.3061 58.6779 28.5445 58.6779 28.8305V33.1694C58.6779 33.4555 58.4713 33.6939 58.2011 33.7257L54.9748 34.1866C54.6569 35.474 54.1483 36.6978 53.4649 37.8421L55.4198 40.4486C55.5946 40.6711 55.5628 40.989 55.3721 41.1797L52.2888 44.2471C52.0981 44.4378 51.7802 44.4696 51.5577 44.2948L48.9512 42.3558C47.8228 43.0392 46.599 43.5478 45.2957 43.8657L44.8348 47.092C44.803 47.3622 44.5646 47.5688 44.2786 47.5688H39.9397Z" fill="url(#paint0_linear_866_852)"/>
<path d="M42.1167 36.2844C39.2082 36.2844 36.8242 33.9163 36.8242 30.992C36.8242 28.0835 39.1923 25.6995 42.1167 25.6995C45.0252 25.6995 47.4092 28.0676 47.4092 30.992C47.3933 33.9163 45.0252 36.2844 42.1167 36.2844ZM42.1167 26.8438C39.8281 26.8438 37.9526 28.7033 37.9526 31.0078C37.9526 33.3124 39.8122 35.1719 42.1167 35.1719C44.4054 35.1719 46.2808 33.3124 46.2808 31.0078C46.2808 28.7033 44.4054 26.8438 42.1167 26.8438Z" fill="url(#paint1_linear_866_852)"/>
<path d="M44.9934 56.3898H12.5709C12.253 56.3898 12.0146 56.1355 12.0146 55.8335C12.0146 55.5157 12.2689 55.2773 12.5709 55.2773H44.9934C46.2489 55.2773 47.2661 54.2601 47.2661 53.0045V48.6656C47.2661 48.3478 47.5204 48.1094 47.8224 48.1094C48.1403 48.1094 48.3787 48.3637 48.3787 48.6656V53.0045C48.3945 54.8641 46.8688 56.3898 44.9934 56.3898Z" fill="url(#paint2_linear_866_852)"/>
<path d="M43.881 53.5769H33.9C33.5822 53.5769 33.3438 53.3226 33.3438 53.0206C33.3438 52.7028 33.598 52.4644 33.9 52.4644H43.881C44.1989 52.4644 44.4373 52.7186 44.4373 53.0206C44.4532 53.3226 44.1989 53.5769 43.881 53.5769Z" fill="url(#paint3_linear_866_852)"/>
<path d="M51.717 62C50.3025 62 49.1582 60.8557 49.1582 59.4412C49.1582 58.0266 50.3025 56.8823 51.717 56.8823C53.1315 56.8823 54.2759 58.0266 54.2759 59.4412C54.2918 60.8557 53.1315 62 51.717 62ZM51.717 57.9949C50.9224 57.9949 50.2707 58.6465 50.2707 59.4412C50.2707 60.2358 50.9224 60.8875 51.717 60.8875C52.5117 60.8875 53.1633 60.2358 53.1633 59.4412C53.1633 58.6465 52.5117 57.9949 51.717 57.9949Z" fill="url(#paint4_linear_866_852)"/>
<path d="M18.2611 58.8693H7.21522C6.96093 57.7249 5.92786 56.8667 4.71996 56.8667C3.30545 56.8667 2.16113 58.011 2.16113 59.4255C2.16113 60.84 3.30545 61.9844 4.71996 61.9844C5.94375 61.9844 6.96093 61.1261 7.21522 59.9818H18.277C18.579 59.9818 18.8333 59.7275 18.8333 59.4255C18.8333 59.1236 18.579 58.8693 18.2611 58.8693ZM4.71996 60.8718C3.9253 60.8718 3.27367 60.2202 3.27367 59.4255C3.27367 58.6309 3.9253 57.9792 4.71996 57.9792C5.51463 57.9792 6.16626 58.6309 6.16626 59.4255C6.15037 60.2361 5.49874 60.8718 4.71996 60.8718Z" fill="url(#paint5_linear_866_852)"/>
<path d="M46.7892 59.9978H23.2194C22.9015 59.9978 22.6631 59.7435 22.6631 59.4415C22.6631 59.1237 22.9174 58.8853 23.2194 58.8853H46.7892C47.1071 58.8853 47.3455 59.1395 47.3455 59.4415C47.3455 59.7435 47.0912 59.9978 46.7892 59.9978Z" fill="url(#paint6_linear_866_852)"/>
<path d="M51.7164 55.2613C51.3986 55.2613 51.1602 55.007 51.1602 54.7051V46.2975C51.1602 45.9796 51.4145 45.7412 51.7164 45.7412C52.0343 45.7412 52.2727 45.9955 52.2727 46.2975V54.7051C52.2886 55.007 52.0343 55.2613 51.7164 55.2613Z" fill="url(#paint7_linear_866_852)"/>
<path d="M47.839 13.9067C47.5211 13.9067 47.2827 13.6524 47.2827 13.3504V9.01151C47.2827 7.75593 46.2655 6.73876 45.01 6.73876H12.5875C12.2697 6.73876 12.0312 6.48446 12.0312 6.18249C12.0312 5.86462 12.2855 5.62622 12.5875 5.62622H45.01C46.8854 5.62622 48.4112 7.15198 48.4112 9.0274V13.3504C48.3953 13.6524 48.141 13.9067 47.839 13.9067Z" fill="url(#paint8_linear_866_852)"/>
<path d="M43.882 9.55199H33.901C33.5831 9.55199 33.3447 9.29769 33.3447 8.99572C33.3447 8.67785 33.599 8.43945 33.901 8.43945H43.882C44.1999 8.43945 44.4383 8.69375 44.4383 8.99572C44.4542 9.29769 44.1999 9.55199 43.882 9.55199Z" fill="url(#paint9_linear_866_852)"/>
<path d="M51.717 5.13356C50.3025 5.13356 49.1582 3.98923 49.1582 2.57472C49.1582 1.16022 50.3025 0 51.717 0C53.1315 0 54.2759 1.14432 54.2759 2.55883C54.2759 3.97334 53.1315 5.13356 51.717 5.13356ZM51.717 1.12843C50.9224 1.12843 50.2707 1.78006 50.2707 2.57472C50.2707 3.36939 50.9224 4.02102 51.717 4.02102C52.5117 4.02102 53.1633 3.36939 53.1633 2.57472C53.1633 1.76416 52.5117 1.12843 51.717 1.12843Z" fill="url(#paint10_linear_866_852)"/>
<path d="M18.2611 2.00256H7.21522C6.96093 0.858241 5.92786 0 4.71996 0C3.30545 0 2.16113 1.14432 2.16113 2.55883C2.16113 3.97334 3.30545 5.11766 4.71996 5.11766C5.94375 5.11766 6.96093 4.25942 7.21522 3.1151H18.277C18.579 3.1151 18.8333 2.8608 18.8333 2.55883C18.8333 2.25686 18.579 2.00256 18.2611 2.00256ZM4.71996 4.00513C3.9253 4.00513 3.27367 3.3535 3.27367 2.55883C3.27367 1.76416 3.9253 1.11254 4.71996 1.11254C5.51463 1.11254 6.16626 1.76416 6.16626 2.55883C6.15037 3.3535 5.49874 4.00513 4.71996 4.00513Z" fill="url(#paint11_linear_866_852)"/>
<path d="M46.7892 3.13109H23.2194C22.9015 3.13109 22.6631 2.8768 22.6631 2.57482C22.6631 2.25696 22.9174 2.01855 23.2194 2.01855H46.7892C47.1071 2.01855 47.3455 2.27285 47.3455 2.57482C47.3455 2.8768 47.0912 3.13109 46.7892 3.13109Z" fill="url(#paint12_linear_866_852)"/>
<path d="M51.7164 16.2748C51.3986 16.2748 51.1602 16.0205 51.1602 15.7185V7.31091C51.1602 6.99304 51.4145 6.75464 51.7164 6.75464C52.0343 6.75464 52.2727 7.00893 52.2727 7.31091V15.7185C52.2886 16.0205 52.0343 16.2748 51.7164 16.2748Z" fill="url(#paint13_linear_866_852)"/>
<path d="M30.2927 52.1778H3.67137C1.65291 52.1778 0 50.5408 0 48.5065V13.4934C0 11.4749 1.65291 9.82202 3.67137 9.82202H30.2927C32.3112 9.82202 33.9641 11.4749 33.9641 13.4934V48.5224C33.9641 50.5408 32.3112 52.1778 30.2927 52.1778ZM3.67137 10.9505C2.27275 10.9505 1.12843 12.0948 1.12843 13.4934V48.5224C1.12843 49.921 2.27275 51.0653 3.67137 51.0653H30.2927C31.6914 51.0653 32.8357 49.921 32.8357 48.5224V13.4934C32.8357 12.0948 31.6914 10.9505 30.2927 10.9505H3.67137Z" fill="url(#paint14_linear_866_852)"/>
<path d="M28.8147 41.9744H14.1451C13.8273 41.9744 13.5889 41.7201 13.5889 41.4181C13.5889 41.1002 13.8432 40.8618 14.1451 40.8618H28.8147C29.1326 40.8618 29.371 41.1161 29.371 41.4181C29.3869 41.7201 29.1326 41.9744 28.8147 41.9744Z" fill="url(#paint15_linear_866_852)"/>
<path d="M26.0969 44.6125H14.1451C13.8273 44.6125 13.5889 44.3582 13.5889 44.0563C13.5889 43.7384 13.8432 43.5 14.1451 43.5H26.081C26.3989 43.5 26.6373 43.7543 26.6373 44.0563C26.6532 44.3582 26.3989 44.6125 26.0969 44.6125Z" fill="url(#paint16_linear_866_852)"/>
<path d="M8.31194 46.6947C7.26298 46.6947 6.2617 46.2815 5.51471 45.5345C4.76772 44.7875 4.35449 43.7862 4.35449 42.7372C4.35449 40.5598 6.13455 38.7798 8.31194 38.7798C9.3609 38.7798 10.3622 39.193 11.1092 39.94C11.8562 40.687 12.2694 41.6883 12.2694 42.7372C12.2694 43.8021 11.8562 44.7875 11.1092 45.5345C10.3463 46.2815 9.3609 46.6947 8.31194 46.6947ZM8.31194 39.8923C6.75439 39.8923 5.48292 41.1638 5.48292 42.7213C5.48292 43.4842 5.78489 44.1835 6.30938 44.7239C6.84975 45.2643 7.56495 45.5504 8.31194 45.5504C9.07482 45.5504 9.77413 45.2484 10.3145 44.7239C10.8549 44.1994 11.141 43.4842 11.141 42.7213C11.141 41.9585 10.839 41.2433 10.3145 40.7188C9.77413 40.1943 9.05893 39.8923 8.31194 39.8923Z" fill="url(#paint17_linear_866_852)"/>
<path d="M7.96232 44.8351C7.81927 44.8351 7.67623 44.7874 7.56498 44.6761L6.02333 43.1345C5.80082 42.912 5.80082 42.5623 6.02333 42.3398C6.24583 42.1173 6.59549 42.1173 6.81799 42.3398L7.96232 43.4841L9.79005 41.6564C10.0126 41.4339 10.3622 41.4339 10.5847 41.6564C10.8072 41.8789 10.8072 42.2285 10.5847 42.4511L8.35965 44.6761C8.2484 44.7715 8.10536 44.8351 7.96232 44.8351Z" fill="url(#paint18_linear_866_852)"/>
<path d="M28.8147 30.2449H14.1451C13.8273 30.2449 13.5889 29.9906 13.5889 29.6886C13.5889 29.3707 13.8432 29.1323 14.1451 29.1323H28.8147C29.1326 29.1323 29.371 29.3866 29.371 29.6886C29.3869 29.9906 29.1326 30.2449 28.8147 30.2449Z" fill="url(#paint19_linear_866_852)"/>
<path d="M26.0969 32.883H14.1451C13.8273 32.883 13.5889 32.6287 13.5889 32.3268C13.5889 32.0089 13.8432 31.7705 14.1451 31.7705H26.081C26.3989 31.7705 26.6373 32.0248 26.6373 32.3268C26.6532 32.6287 26.3989 32.883 26.0969 32.883Z" fill="url(#paint20_linear_866_852)"/>
<path d="M8.31194 34.9493C7.26298 34.9493 6.2617 34.5361 5.51471 33.7891C4.76772 33.0421 4.35449 32.0408 4.35449 30.9919C4.35449 28.8145 6.13455 27.0344 8.31194 27.0344C9.3609 27.0344 10.3622 27.4476 11.1092 28.1946C11.8562 28.9416 12.2694 29.9429 12.2694 30.9919C12.2694 32.0567 11.8562 33.0421 11.1092 33.7891C10.3463 34.552 9.3609 34.9493 8.31194 34.9493ZM8.31194 28.1629C6.75439 28.1629 5.48292 29.4343 5.48292 30.9919C5.48292 31.7548 5.78489 32.4541 6.30938 32.9944C6.84975 33.5348 7.56495 33.8209 8.31194 33.8209C9.07482 33.8209 9.77413 33.5189 10.3145 32.9944C10.8549 32.47 11.141 31.7548 11.141 30.9919C11.141 30.229 10.839 29.5138 10.3145 28.9893C9.77413 28.4648 9.05893 28.1629 8.31194 28.1629Z" fill="url(#paint21_linear_866_852)"/>
<path d="M7.96232 33.0897C7.81927 33.0897 7.67623 33.042 7.56498 32.9308L6.02333 31.3891C5.80082 31.1666 5.80082 30.8169 6.02333 30.5944C6.24583 30.3719 6.59549 30.3719 6.81799 30.5944L7.96232 31.7388L9.79005 29.911C10.0126 29.6885 10.3622 29.6885 10.5847 29.911C10.8072 30.1335 10.8072 30.4832 10.5847 30.7057L8.35965 32.9308C8.2484 33.042 8.10536 33.0897 7.96232 33.0897Z" fill="url(#paint22_linear_866_852)"/>
<path d="M28.8147 18.5156H14.1451C13.8273 18.5156 13.5889 18.2613 13.5889 17.9593C13.5889 17.6415 13.8432 17.4031 14.1451 17.4031H28.8147C29.1326 17.4031 29.371 17.6574 29.371 17.9593C29.3869 18.2613 29.1326 18.5156 28.8147 18.5156Z" fill="url(#paint23_linear_866_852)"/>
<path d="M26.0969 21.1538H14.1451C13.8273 21.1538 13.5889 20.8995 13.5889 20.5975C13.5889 20.2797 13.8432 20.0413 14.1451 20.0413H26.081C26.3989 20.0413 26.6373 20.2956 26.6373 20.5975C26.6532 20.8995 26.3989 21.1538 26.0969 21.1538Z" fill="url(#paint24_linear_866_852)"/>
<path d="M8.31194 23.2201C7.26298 23.2201 6.2617 22.8068 5.51471 22.0599C4.76772 21.3129 4.35449 20.3116 4.35449 19.2626C4.35449 17.0852 6.13455 15.3052 8.31194 15.3052C9.3609 15.3052 10.3622 15.7184 11.1092 16.4654C11.8562 17.2124 12.2694 18.2137 12.2694 19.2626C12.2694 20.3275 11.8562 21.3129 11.1092 22.0599C10.3463 22.8068 9.3609 23.2201 8.31194 23.2201ZM8.31194 16.4336C6.75439 16.4336 5.48292 17.7051 5.48292 19.2626C5.48292 20.0255 5.78489 20.7248 6.30938 21.2652C6.84975 21.8056 7.56495 22.0916 8.31194 22.0916C9.07482 22.0916 9.77413 21.7897 10.3145 21.2652C10.8549 20.7407 11.141 20.0255 11.141 19.2626C11.141 18.4997 10.839 17.7845 10.3145 17.2601C9.77413 16.7197 9.05893 16.4336 8.31194 16.4336Z" fill="url(#paint25_linear_866_852)"/>
<path d="M7.96232 21.3604C7.81927 21.3604 7.67623 21.3128 7.56498 21.2015L6.02333 19.6599C5.80082 19.4373 5.80082 19.0877 6.02333 18.8652C6.24583 18.6427 6.59549 18.6427 6.81799 18.8652L7.96232 20.0095L9.79005 18.1818C10.0126 17.9593 10.3622 17.9593 10.5847 18.1818C10.8072 18.4043 10.8072 18.7539 10.5847 18.9764L8.35965 21.2015C8.2484 21.3128 8.10536 21.3604 7.96232 21.3604Z" fill="url(#paint26_linear_866_852)"/>
</g>
<defs>
<linearGradient id="paint0_linear_866_852" x1="-0.891072" y1="30.9997" x2="57.6815" y2="30.9997" gradientUnits="userSpaceOnUse">
<stop stop-color="#FABE3E"/>
<stop offset="0.3618" stop-color="#F63966"/>
<stop offset="1" stop-color="#007AE8"/>
</linearGradient>
<linearGradient id="paint1_linear_866_852" x1="-0.891417" y1="30.9995" x2="57.6812" y2="30.9995" gradientUnits="userSpaceOnUse">
<stop stop-color="#FABE3E"/>
<stop offset="0.3618" stop-color="#F63966"/>
<stop offset="1" stop-color="#007AE8"/>
</linearGradient>
<linearGradient id="paint2_linear_866_852" x1="-0.891459" y1="52.2412" x2="57.6811" y2="52.2412" gradientUnits="userSpaceOnUse">
<stop stop-color="#FABE3E"/>
<stop offset="0.3618" stop-color="#F63966"/>
<stop offset="1" stop-color="#007AE8"/>
</linearGradient>
<linearGradient id="paint3_linear_866_852" x1="-0.891249" y1="53.0078" x2="57.6813" y2="53.0078" gradientUnits="userSpaceOnUse">
<stop stop-color="#FABE3E"/>
<stop offset="0.3618" stop-color="#F63966"/>
<stop offset="1" stop-color="#007AE8"/>
</linearGradient>
<linearGradient id="paint4_linear_866_852" x1="-0.890705" y1="59.4354" x2="57.6819" y2="59.4354" gradientUnits="userSpaceOnUse">
<stop stop-color="#FABE3E"/>
<stop offset="0.3618" stop-color="#F63966"/>
<stop offset="1" stop-color="#007AE8"/>
</linearGradient>
<linearGradient id="paint5_linear_866_852" x1="-0.891092" y1="59.4354" x2="57.6815" y2="59.4354" gradientUnits="userSpaceOnUse">
<stop stop-color="#FABE3E"/>
<stop offset="0.3618" stop-color="#F63966"/>
<stop offset="1" stop-color="#007AE8"/>
</linearGradient>
<linearGradient id="paint6_linear_866_852" x1="-0.891572" y1="59.436" x2="57.681" y2="59.436" gradientUnits="userSpaceOnUse">
<stop stop-color="#FABE3E"/>
<stop offset="0.3618" stop-color="#F63966"/>
<stop offset="1" stop-color="#007AE8"/>
</linearGradient>
<linearGradient id="paint7_linear_866_852" x1="-0.891301" y1="50.4917" x2="57.6813" y2="50.4917" gradientUnits="userSpaceOnUse">
<stop stop-color="#FABE3E"/>
<stop offset="0.3618" stop-color="#F63966"/>
<stop offset="1" stop-color="#007AE8"/>
</linearGradient>
<linearGradient id="paint8_linear_866_852" x1="-0.890751" y1="9.75848" x2="57.6818" y2="9.75848" gradientUnits="userSpaceOnUse">
<stop stop-color="#FABE3E"/>
<stop offset="0.3618" stop-color="#F63966"/>
<stop offset="1" stop-color="#007AE8"/>
</linearGradient>
<linearGradient id="paint9_linear_866_852" x1="-0.890273" y1="8.99214" x2="57.6823" y2="8.99214" gradientUnits="userSpaceOnUse">
<stop stop-color="#FABE3E"/>
<stop offset="0.3618" stop-color="#F63966"/>
<stop offset="1" stop-color="#007AE8"/>
</linearGradient>
<linearGradient id="paint10_linear_866_852" x1="-0.890703" y1="2.56384" x2="57.6819" y2="2.56384" gradientUnits="userSpaceOnUse">
<stop stop-color="#FABE3E"/>
<stop offset="0.3618" stop-color="#F63966"/>
<stop offset="1" stop-color="#007AE8"/>
</linearGradient>
<linearGradient id="paint11_linear_866_852" x1="-0.891092" y1="2.56387" x2="57.6815" y2="2.56387" gradientUnits="userSpaceOnUse">
<stop stop-color="#FABE3E"/>
<stop offset="0.3618" stop-color="#F63966"/>
<stop offset="1" stop-color="#007AE8"/>
</linearGradient>
<linearGradient id="paint12_linear_866_852" x1="-0.891572" y1="2.56394" x2="57.681" y2="2.56394" gradientUnits="userSpaceOnUse">
<stop stop-color="#FABE3E"/>
<stop offset="0.3618" stop-color="#F63966"/>
<stop offset="1" stop-color="#007AE8"/>
</linearGradient>
<linearGradient id="paint13_linear_866_852" x1="-0.891301" y1="11.508" x2="57.6813" y2="11.508" gradientUnits="userSpaceOnUse">
<stop stop-color="#FABE3E"/>
<stop offset="0.3618" stop-color="#F63966"/>
<stop offset="1" stop-color="#007AE8"/>
</linearGradient>
<linearGradient id="paint14_linear_866_852" x1="-0.890727" y1="30.9997" x2="57.6819" y2="30.9997" gradientUnits="userSpaceOnUse">
<stop stop-color="#FABE3E"/>
<stop offset="0.3618" stop-color="#F63966"/>
<stop offset="1" stop-color="#007AE8"/>
</linearGradient>
<linearGradient id="paint15_linear_866_852" x1="-0.890684" y1="41.4126" x2="57.6819" y2="41.4126" gradientUnits="userSpaceOnUse">
<stop stop-color="#FABE3E"/>
<stop offset="0.3618" stop-color="#F63966"/>
<stop offset="1" stop-color="#007AE8"/>
</linearGradient>
<linearGradient id="paint16_linear_866_852" x1="-0.890684" y1="44.0534" x2="57.6819" y2="44.0534" gradientUnits="userSpaceOnUse">
<stop stop-color="#FABE3E"/>
<stop offset="0.3618" stop-color="#F63966"/>
<stop offset="1" stop-color="#007AE8"/>
</linearGradient>
<linearGradient id="paint17_linear_866_852" x1="-0.891015" y1="42.7331" x2="57.6816" y2="42.7331" gradientUnits="userSpaceOnUse">
<stop stop-color="#FABE3E"/>
<stop offset="0.3618" stop-color="#F63966"/>
<stop offset="1" stop-color="#007AE8"/>
</linearGradient>
<linearGradient id="paint18_linear_866_852" x1="-0.890984" y1="43.1569" x2="57.6816" y2="43.1569" gradientUnits="userSpaceOnUse">
<stop stop-color="#FABE3E"/>
<stop offset="0.3618" stop-color="#F63966"/>
<stop offset="1" stop-color="#007AE8"/>
</linearGradient>
<linearGradient id="paint19_linear_866_852" x1="-0.890684" y1="29.6793" x2="57.6819" y2="29.6793" gradientUnits="userSpaceOnUse">
<stop stop-color="#FABE3E"/>
<stop offset="0.3618" stop-color="#F63966"/>
<stop offset="1" stop-color="#007AE8"/>
</linearGradient>
<linearGradient id="paint20_linear_866_852" x1="-0.890684" y1="32.3199" x2="57.6819" y2="32.3199" gradientUnits="userSpaceOnUse">
<stop stop-color="#FABE3E"/>
<stop offset="0.3618" stop-color="#F63966"/>
<stop offset="1" stop-color="#007AE8"/>
</linearGradient>
<linearGradient id="paint21_linear_866_852" x1="-0.891015" y1="30.9995" x2="57.6816" y2="30.9995" gradientUnits="userSpaceOnUse">
<stop stop-color="#FABE3E"/>
<stop offset="0.3618" stop-color="#F63966"/>
<stop offset="1" stop-color="#007AE8"/>
</linearGradient>
<linearGradient id="paint22_linear_866_852" x1="-0.890984" y1="31.4235" x2="57.6816" y2="31.4235" gradientUnits="userSpaceOnUse">
<stop stop-color="#FABE3E"/>
<stop offset="0.3618" stop-color="#F63966"/>
<stop offset="1" stop-color="#007AE8"/>
</linearGradient>
<linearGradient id="paint23_linear_866_852" x1="-0.890684" y1="17.946" x2="57.6819" y2="17.946" gradientUnits="userSpaceOnUse">
<stop stop-color="#FABE3E"/>
<stop offset="0.3618" stop-color="#F63966"/>
<stop offset="1" stop-color="#007AE8"/>
</linearGradient>
<linearGradient id="paint24_linear_866_852" x1="-0.890684" y1="20.5864" x2="57.6819" y2="20.5864" gradientUnits="userSpaceOnUse">
<stop stop-color="#FABE3E"/>
<stop offset="0.3618" stop-color="#F63966"/>
<stop offset="1" stop-color="#007AE8"/>
</linearGradient>
<linearGradient id="paint25_linear_866_852" x1="-0.891015" y1="19.2663" x2="57.6816" y2="19.2663" gradientUnits="userSpaceOnUse">
<stop stop-color="#FABE3E"/>
<stop offset="0.3618" stop-color="#F63966"/>
<stop offset="1" stop-color="#007AE8"/>
</linearGradient>
<linearGradient id="paint26_linear_866_852" x1="-0.890984" y1="19.6901" x2="57.6816" y2="19.6901" gradientUnits="userSpaceOnUse">
<stop stop-color="#FABE3E"/>
<stop offset="0.3618" stop-color="#F63966"/>
<stop offset="1" stop-color="#007AE8"/>
</linearGradient>
<clipPath id="clip0_866_852">
<rect width="58.6783" height="62" fill="white"/>
</clipPath>
</defs>
</svg>
