<svg width="59" height="56" viewBox="0 0 59 56" fill="none" xmlns="http://www.w3.org/2000/svg">
<g clip-path="url(#clip0_868_1093)">
<path d="M30.2543 0C15.8366 0 3.85876 10.8096 2.40959 25.1386C2.32087 26.085 2.26172 27.0462 2.26172 27.9926C2.26172 30.817 2.67577 33.597 3.50386 36.2736L5.13048 35.756C4.36153 33.2569 3.96227 30.6396 3.96227 27.9926C3.96227 27.0906 4.00664 26.1885 4.09536 25.3013C5.4558 11.8447 16.709 1.70055 30.2543 1.70055C44.746 1.70055 56.5464 13.4861 56.5464 27.9926C56.5464 42.4843 44.7608 54.2847 30.2543 54.2847C27.4299 54.2847 24.6499 53.841 21.9881 52.9538L21.441 54.5656C24.2802 55.512 27.2377 55.9852 30.2543 55.9852C45.6924 56 58.2617 43.4307 58.2617 27.9926C58.2617 12.5545 45.6924 0 30.2543 0Z" fill="#017038"/>
<path d="M10.1741 40.5028H1.31641V42.2181H10.1741V40.5028Z" fill="#017038"/>
<path d="M17.7745 45.7375H0V47.4529H17.7745V45.7375Z" fill="#017038"/>
<path d="M17.9217 51.3715H12.0215V53.0869H17.9217V51.3715Z" fill="#017038"/>
<path d="M29.0725 30.6839C29.102 30.6691 29.1316 30.6544 29.1612 30.6544C29.1908 30.6544 29.2055 30.6544 29.2203 30.6691C29.2647 30.6987 29.3091 30.7431 29.3091 30.8022V32.7837H31.0244V29.2791C31.0244 29.2348 31.0392 29.1904 31.0835 29.1608L38.5216 23.5268L37.4865 22.1664L31.261 26.8836C31.2314 26.8983 31.2018 26.9131 31.1723 26.9131C31.1427 26.9131 31.1279 26.9131 31.1131 26.8983C31.0688 26.8688 31.0244 26.8244 31.0244 26.7653V12.4214H29.3091V28.2884C29.3091 28.3327 29.2943 28.3771 29.2499 28.4067L26.4551 30.5213L27.4902 31.8817L29.0725 30.6839Z" fill="#017038"/>
</g>
<defs>
<clipPath id="clip0_868_1093">
<rect width="58.2625" height="56" fill="white"/>
</clipPath>
</defs>
</svg>
