<svg width="59" height="56" viewBox="0 0 59 56" fill="none" xmlns="http://www.w3.org/2000/svg">
<g clip-path="url(#clip0_4_5)">
<path d="M38.3077 50.718V50.9744C38.3077 51.0769 38.3077 51.1282 38.3077 51.2308V53.4872C38.3077 53.641 38.3077 53.7436 38.359 53.8974C38.359 54 38.4103 54.1539 38.4615 54.2564C38.5128 54.359 38.5641 54.5128 38.6154 54.6154C39.0256 55.4872 39.9487 56.0513 40.8718 56.0513H55.7949C56.2051 56.0513 56.6154 55.9487 56.9744 55.7436C57.0256 55.6923 57.1282 55.641 57.1795 55.641C57.2308 55.5897 57.3333 55.5385 57.3846 55.4872C57.5897 55.2821 57.7949 55.0769 57.9487 54.8205C58 54.7692 58.0513 54.6667 58.0513 54.6154C58.2051 54.2564 58.3077 53.8974 58.3077 53.5385V51.2821C58.3077 51.1795 58.3077 51.0769 58.3077 50.9744V50.8718C58.3077 50.8205 58.3077 50.718 58.3077 50.6667V50.5641C58.3077 50.5128 58.3077 50.4103 58.3077 50.359V50.2564C58.3077 50.1538 58.2564 50.0513 58.2564 50V49.9487C58.2564 49.8462 58.2051 49.7949 58.2051 49.6923V49.5897C58.2051 49.5385 58.1539 49.4359 58.1539 49.3846V49.2821C57.9487 48.5641 57.6923 47.9487 57.3333 47.3333L57.2821 47.2821C56.5128 46.1026 55.4872 45.1282 54.2051 44.5128C54.1538 44.4615 54.1538 44.4615 54.1026 44.4615C53.5897 44.2051 53.0256 44 52.4615 43.8974L51.7436 43.7436L52.9231 42.5128L53.0769 42.3077C53.1282 42.2564 53.1795 42.2051 53.1795 42.1538L53.5385 42.3077L53.2308 42.1026C53.2821 42.0513 53.2821 42 53.3333 41.8974C53.7949 41.0256 54.0513 40.1026 54.0513 39.1282C54.0513 36 51.5385 33.4872 48.4103 33.4872C46.2564 33.4872 44.2564 34.718 43.3333 36.6667C42.9744 37.4359 42.7692 38.2564 42.7692 39.1282C42.7692 40.6667 43.4359 42.2051 44.5641 43.2308L45.0769 43.7436L44.359 43.8974C44.1026 43.9487 43.7949 44.0513 43.5385 44.1538L43.2821 44.1026L36.7692 40.3077L36.9231 40C37.0256 39.7436 37.1282 39.4872 37.2308 39.2308L37.3333 38.9744H37.5897C38.5641 38.9231 39.3333 38.0513 39.3333 37.0769V36C39.3333 35.0256 38.5641 34.1538 37.5897 34.1026H37.3333L37.1795 33.8462C37.0769 33.4872 36.9231 33.1282 36.718 32.7692L36.6154 32.5641L36.7692 32.359C37.4359 31.5897 37.3846 30.4615 36.6667 29.7436L35.8974 28.9744C35.5385 28.6154 35.0769 28.4103 34.5641 28.4103C34.0513 28.359 33.5897 28.5641 33.2308 28.8205L33.0256 28.9744L32.8205 28.8718C32.5128 28.7179 32.1538 28.5641 31.8462 28.4615L31.5897 28.359V28.1026C31.5385 27.2308 30.8205 26.5128 29.9487 26.359L29.641 26.3077V22.5641H36.6154C38 22.5641 39.1282 21.4359 39.1282 20.0513V17.7949C39.1282 14.2564 36.6154 11.1282 33.1795 10.359L32.5128 10.2564L33.0256 9.74359C34.1538 8.66667 34.8205 7.17949 34.8205 5.64103C34.8205 2.51282 32.3077 0 29.1795 0H29.1282H29.0769C25.9487 0 23.4359 2.51282 23.4359 5.64103C23.4359 7.17949 24.1026 8.71795 25.2308 9.74359L25.7436 10.2564L25.0256 10.4103C21.5897 11.1795 19.0769 14.3077 19.0769 17.8462V20.1026C19.0769 21.4872 20.2051 22.6154 21.5897 22.6154H28.5641V26.359L28.2564 26.4103C27.3846 26.5641 26.718 27.2821 26.6154 28.1538V28.4103L26.359 28.5128C26.0513 28.6154 25.6923 28.7692 25.3846 28.9231L25.1795 29.0256L24.9744 28.8718C24.6154 28.5641 24.1538 28.4103 23.6923 28.4615C23.1795 28.4615 22.6667 28.6667 22.3077 29.0256L21.5897 29.7436C20.8718 30.4615 20.8205 31.5897 21.4872 32.359L21.641 32.5641L21.5385 32.7692C21.3846 33.1282 21.2308 33.4872 21.0769 33.8462L21.0256 34.0513H20.7692C19.7949 34.1026 19.0256 34.9744 19.0256 35.9487V37.0256C19.0256 38 19.7949 38.8718 20.7692 38.9231H21.0256L21.1282 39.1795C21.2308 39.4359 21.3333 39.6923 21.4359 39.9487L21.5897 40.2564L15.0256 44.1026L14.8718 44.0513C14.6154 43.9487 14.3077 43.8974 14.0513 43.7949L13.3333 43.641L13.8462 43.1282C14.9744 42.0513 15.641 40.5641 15.641 39.0256C15.641 38.1538 15.4359 37.3333 15.0769 36.5641C14.1538 34.6154 12.1538 33.3846 10 33.3846C6.8718 33.3846 4.35897 35.8974 4.35897 39.0256C4.35897 40 4.61538 40.9744 5.07692 41.7949C5.12821 41.8974 5.17949 41.9487 5.17949 42C5.23077 42.1026 5.28205 42.1539 5.33333 42.2051L5.07692 42.5128L5.38462 42.3077L6.15385 43.1795L6.66667 43.6923L5.94872 43.8462C5.38462 43.9487 4.82051 44.1538 4.30769 44.4103H4.25641C2.97436 45.0769 1.89744 46 1.12821 47.2308L1.07692 47.2821C0.717949 47.8974 0.410256 48.5641 0.25641 49.2308V49.3333C0.25641 49.3846 0.205128 49.4872 0.205128 49.5385V49.641C0.205128 49.6923 0.153846 49.7949 0.153846 49.8462V49.9487C0.153846 50.0513 0.102564 50.1538 0.102564 50.2051L0 50.6154C0 50.6667 0 50.7692 0 50.8205V50.9231C0 51.0256 0 51.1282 0 51.2308V53.4872C0 54.8718 1.12821 56 2.51282 56H17.4359C18.8205 56 19.9487 54.8718 19.9487 53.4872V51.2308C19.9487 51.1282 19.9487 51.0769 19.9487 50.9744L19.641 49.1282L19.5385 48.718L19.8462 48.5128L19.4872 48.6667V48.5128L19.7949 48.3077L19.4872 48.4615L19.3333 48.1026L19.641 47.8974L19.2821 48.0513L19.2308 47.8974L19.5385 47.6923L19.1795 47.8462L19.0769 47.6923L19.3846 47.4359L19.0256 47.641L18.8205 47.2821C18.7692 47.1795 18.7179 47.1282 18.7179 47.0769C18.6667 46.9744 18.6154 46.9231 18.5641 46.8718C18.5128 46.7692 18.4615 46.718 18.4103 46.6667C18.359 46.5641 18.3077 46.5128 18.2564 46.4615L18.1026 46.3077C18.0513 46.2564 18 46.2051 17.9487 46.1538C17.8974 46.1026 17.8462 46.0513 17.7949 46L17.641 45.8462C17.5897 45.7949 17.5385 45.7436 17.4872 45.6923C17.4359 45.641 17.3846 45.5897 17.3333 45.5385C17.2821 45.4872 17.2308 45.4359 17.1795 45.3846C17.1282 45.3333 17.0769 45.2821 17.0256 45.2308C16.9744 45.1795 16.9231 45.1282 16.8205 45.0769L16.2051 44.6154L16.7179 44.3077L20.9744 41.8462L21.0769 42.359C21.1795 42.718 21.3333 43.0256 21.5897 43.2821L22.359 44.0513C22.7179 44.4103 23.1795 44.6154 23.6923 44.6154C24.2051 44.6154 24.6667 44.4615 25.0256 44.2051L25.2308 44.0513L25.4359 44.1538C25.7436 44.3077 26.1026 44.4615 26.4103 44.5641L26.6667 44.6154V44.8718C26.7692 45.8462 27.5897 46.6154 28.5641 46.6154H29.7436C30.718 46.6154 31.5897 45.8462 31.641 44.8718V44.6154L31.8974 44.5128C32.2051 44.4103 32.5641 44.2564 32.8718 44.1026L33.0769 44L33.2821 44.1538C33.641 44.4615 34.1026 44.6154 34.5641 44.5641C35.0769 44.5641 35.5897 44.359 35.9487 44L36.718 43.2308C36.9744 42.9744 37.1282 42.6667 37.2308 42.3077L37.3333 41.7949L42.1026 44.5641L41.641 44.9231C41.5385 44.9744 41.4872 45.0256 41.4359 45.0769C41.3846 45.1282 41.3333 45.1795 41.2308 45.2308C41.1795 45.2821 41.1282 45.3333 41.0769 45.3846C41.0256 45.4359 40.9744 45.4872 40.9231 45.5385C40.8718 45.5897 40.8205 45.641 40.7692 45.6923C40.718 45.7436 40.6667 45.7949 40.6154 45.8462C40.5641 45.8974 40.5128 45.9487 40.4615 46L39.8462 46.6667C39.7949 46.7692 39.7436 46.8205 39.6923 46.8718C39.641 46.9744 39.5897 47.0256 39.5385 47.0769C39.4872 47.1282 39.4872 47.1795 39.4359 47.2308L39.3333 47.4359L38.9744 47.2821L39.3333 47.4872L39.2308 47.641L38.8718 47.4872L39.2308 47.6923L39.1282 47.8462L38.718 47.6923L39.0769 47.8462L39.0256 48L38.6667 47.8974L39.0256 48.0513L38.9231 48.2051L38.5641 48.1026L38.9231 48.2564L38.8718 48.4103L38.4615 48.359L38.8205 48.5128L38.6667 48.8718L38.2564 48.8205L38.6154 48.9231L38.3077 50.718ZM5.53846 40.4615C5.53846 40.4103 5.48718 40.359 5.48718 40.3077C5.38462 39.8974 5.33333 39.4872 5.33333 39.0769C5.33333 36.5128 7.4359 34.4103 10 34.4103C12.5641 34.4103 14.6667 36.5128 14.6667 39.0769C14.6667 39.4872 14.6154 39.8974 14.5128 40.3077C14.0513 42 12.6154 43.3333 10.8718 43.6923H10.8205H9.07692C7.4359 43.2821 6.05128 42.0513 5.53846 40.4615ZM19.0256 51.2308V53.4872C19.0256 54.359 18.3077 55.0769 17.4359 55.0769H15.6923V52C15.6923 51.8462 15.5897 51.641 15.4359 51.5897C15.3846 51.5385 15.2821 51.5385 15.2308 51.5385C14.9744 51.5385 14.7692 51.7436 14.7692 52V55.0769H5.23077V52C5.23077 51.8462 5.12821 51.641 4.97436 51.5897C4.92308 51.5385 4.82051 51.5385 4.76923 51.5385C4.51282 51.5385 4.30769 51.7436 4.30769 52V55.0769H2.51282C2.10256 55.0769 1.69231 54.9231 1.38462 54.6154C1.07692 54.3077 0.923077 53.9487 0.923077 53.4872V51.2308C0.923077 51.1282 0.923077 51.0256 0.923077 50.9231V50.8205C0.923077 50.718 0.923077 50.6667 0.923077 50.5641V50.5128C1.02564 50.4103 1.02564 50.359 1.02564 50.2564V50.1539C1.02564 50.0513 1.07692 50 1.07692 49.8974V49.8462C1.07692 49.7436 1.12821 49.641 1.12821 49.5897V49.5385C1.12821 49.4359 1.17949 49.3333 1.23077 49.2821C1.84615 47.3333 3.38462 45.7436 5.28205 45.0256C5.38462 44.9744 5.48718 44.9744 5.58974 44.9231H5.64103C5.74359 44.8718 5.79487 44.8718 5.89744 44.8718H5.94872C6.05128 44.8718 6.10256 44.8205 6.20513 44.8205H6.25641C6.35897 44.8205 6.46154 44.7692 6.51282 44.7692H6.61538C6.71795 44.7692 6.76923 44.7692 6.8718 44.7179C6.92308 44.7179 6.97436 44.7179 7.02564 44.7179H7.17949C7.28205 44.7179 7.4359 44.7179 7.53846 44.7179H12.3077C13.4359 44.7179 14.5128 44.9744 15.4872 45.5385C17.6923 46.5641 19.0256 48.7692 19.0256 51.2308ZM24.5128 5.64103C24.5128 3.07692 26.5641 1.02564 29.1282 0.974359C31.6923 1.02564 33.7436 3.07692 33.7436 5.64103C33.7436 7.89744 32.1538 9.79487 29.9487 10.2051H29.8974H28.2564C26.1026 9.79487 24.5128 7.89744 24.5128 5.64103ZM24.4615 21.6923V18.6154C24.4615 18.359 24.2564 18.1538 24 18.1538H23.9487C23.641 18.1538 23.4359 18.359 23.4359 18.6154V21.6923H21.7949C20.9231 21.6923 20.2051 20.9744 20.2051 20.1026V17.8462C20.2051 16.6667 20.5128 15.5385 21.0769 14.5641C21.1282 14.5128 21.1282 14.4615 21.1282 14.359V14.2564L21.1795 14.1538C21.7949 13.2821 22.5641 12.5128 23.5385 12L23.641 11.9487C23.6923 11.9487 23.7436 11.9487 23.7949 11.8974C24.718 11.3846 25.7436 11.1795 26.8205 11.1795H31.4872C32.5641 11.1795 33.5897 11.4359 34.5128 11.8974C34.5641 11.8974 34.6154 11.9487 34.6667 11.9487L34.7692 12C35.6923 12.5128 36.5128 13.2821 37.1282 14.1538L37.1795 14.2564V14.359C37.1795 14.4103 37.2308 14.5128 37.2308 14.5641C37.7949 15.5385 38.1026 16.7179 38.1026 17.8462V20.1026C38.1026 20.9744 37.3846 21.6923 36.5128 21.6923H34.8718V18.6154C34.8718 18.359 34.6667 18.1538 34.4103 18.1538H34.359C34.0513 18.1538 33.8462 18.359 33.8462 18.6154V21.6923H24.4615ZM36.2051 38.7692C36.0513 39.1795 35.8974 39.5897 35.6923 39.9487C35.4872 40.359 35.5385 40.8718 35.8462 41.2308L35.8974 41.2821C36.0513 41.4359 36.1538 41.6923 36.1538 41.9487C36.1538 42.2051 36.0513 42.4615 35.8974 42.6154L35.1282 43.3846C34.9744 43.5385 34.7692 43.641 34.5641 43.641H34.5128H34.4615C34.2564 43.641 34.0513 43.5385 33.8974 43.3846C33.6923 43.1795 33.3846 43.0769 33.0769 43.0769H33.0256C32.8205 43.0769 32.6667 43.1282 32.5128 43.1795C32.1538 43.3846 31.7436 43.5385 31.3333 43.6923C30.8718 43.8462 30.5641 44.2564 30.5641 44.7179V44.8205C30.5128 45.3333 30.1538 45.6923 29.641 45.6923H28.6667C28.1538 45.6923 27.7949 45.3333 27.7436 44.8205V44.7179C27.7436 44.2564 27.4359 43.8462 26.9744 43.6923C26.5641 43.5385 26.1538 43.3846 25.7949 43.1795C25.641 43.0769 25.4359 43.0769 25.2821 43.0769H25.2308C24.9231 43.0769 24.6667 43.1795 24.4103 43.3846C24.2564 43.5385 24.0513 43.641 23.7949 43.6923H23.7436H23.6923C23.4872 43.6923 23.2821 43.5897 23.1282 43.4359L22.359 42.6667C22.2051 42.5128 22.1026 42.2564 22.1026 42C22.1026 41.7436 22.2051 41.4872 22.359 41.3333C22.7179 40.9744 22.7692 40.4615 22.5641 40.0513C22.359 39.6923 22.2051 39.2821 22.0513 38.8718C21.8974 38.4103 21.4872 38.1026 21.0256 38.1026C20.4615 38.1026 20.0513 37.6923 20.0513 37.1795V36.0513C20.0513 35.5385 20.4615 35.1282 21.0256 35.1282C21.5385 35.1282 21.9487 34.8205 22.1026 34.359C22.2564 33.9487 22.4103 33.5385 22.6154 33.1795C22.8205 32.7692 22.7692 32.2564 22.4615 31.8974L22.4103 31.8462C22.2564 31.6923 22.1538 31.4359 22.1538 31.1795C22.1538 30.9231 22.2564 30.6667 22.4103 30.5128L23.1795 29.7436C23.3333 29.5897 23.5385 29.4872 23.7436 29.4872H23.7949H23.8462C24.0513 29.4872 24.2564 29.5897 24.4103 29.7436C24.6667 29.9487 24.9231 30.0513 25.2308 30.0513C25.4359 30.0513 25.641 30 25.7949 29.9487C26.1538 29.7436 26.5641 29.5897 26.9744 29.4359C27.4359 29.2821 27.7436 28.8718 27.7436 28.4103C27.7436 27.8462 28.1538 27.4359 28.718 27.4359H29.6923C30.2051 27.4359 30.6154 27.8462 30.6154 28.359C30.6154 28.8718 30.9231 29.2821 31.3846 29.4359C31.7949 29.5897 32.2051 29.7436 32.5641 29.9487C32.718 30.0513 32.9231 30.0513 33.1282 30.0513C33.4872 30.0513 33.7436 29.9487 33.9487 29.7436C34.1026 29.5897 34.3077 29.4872 34.5641 29.4359H34.6154H34.6667C34.8718 29.4359 35.0769 29.5385 35.2308 29.6923L36 30.4615C36.1538 30.6154 36.2564 30.8718 36.2564 31.1282C36.2564 31.3846 36.1538 31.641 36 31.7949C35.641 32.1538 35.5897 32.6667 35.7949 33.0769C36 33.4359 36.1538 33.8462 36.3077 34.2564C36.4615 34.718 36.8718 35.0256 37.3333 35.0256C37.8974 35.0256 38.3077 35.4359 38.3077 35.9487V37.0769C38.3077 37.5897 37.8974 38 37.3333 38C36.7692 38 36.359 38.3077 36.2051 38.7692ZM43.7949 40.2564C43.6923 39.8462 43.641 39.4359 43.641 39.0256C43.641 37.1282 44.7692 35.4359 46.5128 34.7179C46.7179 34.6154 46.9231 34.5641 47.1795 34.5128C47.3333 34.4615 47.4872 34.4615 47.641 34.4103C47.6923 34.4103 47.7949 34.4103 47.8974 34.359C48.0513 34.359 48.2051 34.359 48.359 34.359C50.9231 34.359 53.0256 36.4615 53.0256 39.0256C53.0256 39.2821 53.0256 39.5897 52.9744 39.8462C52.6154 41.7436 51.1282 43.2821 49.2308 43.641H49.1795H47.4359C45.6923 43.2821 44.2564 41.9487 43.7949 40.2564ZM39.2821 51.2308C39.2821 48.8205 40.6154 46.5641 42.7692 45.3846C43.7436 44.8718 44.8205 44.5641 45.9487 44.5641H50.718C50.8205 44.5641 50.9744 44.5641 51.0769 44.5641H51.1795V44.9744L51.2308 44.6154C51.2821 44.6154 51.3333 44.6154 51.3846 44.6154C51.4359 44.6154 51.5385 44.6154 51.5897 44.6667H51.7436C51.7949 44.6667 51.8974 44.7179 52 44.7179H52.1026C52.2051 44.7179 52.2564 44.7692 52.359 44.7692H52.4103C52.5128 44.7692 52.5641 44.8205 52.6667 44.8205H52.718C52.8205 44.8718 52.8718 44.8718 52.9744 44.9231C54.9231 45.641 56.4103 47.2308 57.0256 49.1795V49.2308C57.0256 49.3333 57.0769 49.3846 57.0769 49.4872V49.5385C57.0769 49.641 57.1282 49.7436 57.1282 49.8462V49.8974C57.1282 49.9487 57.1795 50.0513 57.1795 50.1539V50.2564C57.1795 50.359 57.1795 50.4103 57.2308 50.5128V50.5641C57.2308 50.6667 57.2308 50.718 57.2308 50.8205V50.9231C57.2308 51.0256 57.2308 51.1282 57.2308 51.1795V53.4872C57.2308 53.8974 57.0769 54.3077 56.7692 54.6154C56.4615 54.9231 56.1026 55.0769 55.641 55.0769H53.8974V52C53.8974 51.7436 53.6923 51.5385 53.4359 51.5385C53.3333 51.5385 53.2821 51.5385 53.2308 51.5897C53.0769 51.6923 52.9744 51.8462 52.9744 52V55.0769H43.5385V52C43.5385 51.7436 43.3333 51.5385 43.0769 51.5385C42.9744 51.5385 42.9231 51.5385 42.8718 51.5897C42.718 51.6923 42.6154 51.8462 42.6154 52V55.0769H40.8718C40 55.0769 39.2821 54.359 39.2821 53.4872V51.2308Z" fill="url(#paint0_linear_4_5)"/>
<path d="M29.1795 31.8462H29.1282H29.0769C26.5128 31.8462 24.4103 33.9487 24.4103 36.5128C24.4103 39.0769 26.5128 41.1795 29.0769 41.1795H29.1282H29.1795C31.7436 41.1795 33.8462 39.0769 33.8462 36.5128C33.8462 33.9487 31.7436 31.8462 29.1795 31.8462ZM29.1795 40.2051C27.1795 40.1538 25.5385 38.5128 25.5385 36.5128C25.5385 34.5128 27.1795 32.8718 29.1795 32.8205C31.1795 32.8718 32.8205 34.5128 32.8205 36.5128C32.7693 38.5128 31.1795 40.1538 29.1795 40.2051Z" fill="url(#paint1_linear_4_5)"/>
</g>
<defs>
<linearGradient id="paint0_linear_4_5" x1="-0.384718" y1="28.0108" x2="58.6825" y2="28.0108" gradientUnits="userSpaceOnUse">
<stop stop-color="#F0BE58"/>
<stop offset="0.3618" stop-color="#E24B68"/>
<stop offset="1" stop-color="#307BDF"/>
</linearGradient>
<linearGradient id="paint1_linear_4_5" x1="3.29935" y1="36.5157" x2="56.6477" y2="36.5157" gradientUnits="userSpaceOnUse">
<stop stop-color="#F0BE58"/>
<stop offset="0.3618" stop-color="#E24B68"/>
<stop offset="1" stop-color="#307BDF"/>
</linearGradient>
<clipPath id="clip0_4_5">
<rect width="58.3077" height="56" fill="white"/>
</clipPath>
</defs>
</svg>
