<svg width="70" height="64" viewBox="0 0 70 64" fill="none" xmlns="http://www.w3.org/2000/svg">
<path d="M44.4551 63.7702H52.4491V5.85343L44.4551 2.01099V63.7702ZM50.3077 7.12467V61.7089H46.6037V5.3435L50.3077 7.12467Z" fill="white"/>
<path d="M53.2305 63.7701H61.2245V11.477L53.2305 7.63452V63.7701ZM59.0831 12.7482V61.7088H55.3791V10.9742L59.0831 12.7554V12.7482Z" fill="white"/>
<path d="M62.0059 13.2583V63.7703H69.9999V17.1007L62.0059 13.2583ZM64.1545 61.709V16.598L67.8585 18.3792V61.709H64.1545Z" fill="white"/>
<path d="M37.4018 0L0 13.1002V64H42.6033V1.4867L37.3946 0H37.4018ZM31.2309 42.8486C26.8034 42.8486 23.5045 38.9846 21.8262 36.4637C20.1478 38.9846 16.8561 42.8486 12.4287 42.8486C7.52377 42.8486 3.53038 38.7692 3.53038 33.7632C3.53038 28.7573 7.52377 24.6778 12.4287 24.6778C16.8561 24.6778 20.155 28.5418 21.8262 31.0627C23.5045 28.5418 26.8034 24.6778 31.2309 24.6778C36.1358 24.6778 40.1292 28.7573 40.1292 33.7632C40.1292 38.7692 36.1358 42.8486 31.2309 42.8486Z" fill="white"/>
<path d="M31.2308 27.407C27.3531 27.407 24.3436 32.0826 23.3887 33.7632C24.3436 35.451 27.3604 40.1194 31.2308 40.1194C34.6309 40.1194 37.3872 37.2681 37.3872 33.7632C37.3872 30.2583 34.6237 27.407 31.2308 27.407Z" fill="white"/>
<path d="M12.428 27.407C9.02779 27.407 6.27148 30.2583 6.27148 33.7632C6.27148 37.2681 9.02779 40.1194 12.428 40.1194C16.3056 40.1194 19.3151 35.4438 20.2773 33.7632C19.3223 32.0754 16.3056 27.407 12.428 27.407Z" fill="white"/>
</svg>
