<svg width="62" height="62" viewBox="0 0 62 62" fill="none" xmlns="http://www.w3.org/2000/svg">
<g clip-path="url(#clip0_866_740)">
<path d="M56.2659 20.3515L59.4006 17.2169L54.6592 12.4755L51.5246 15.6102C50.9417 15.3109 50.3432 15.0588 49.7288 14.8698V10.4277H43.0027V14.8698C42.3884 15.0588 41.7741 15.3109 41.207 15.6102L38.0723 12.4755L33.331 17.2169L36.4656 20.3515C36.1663 20.9343 35.9143 21.5329 35.7253 22.1472H31.2832V28.8576H35.7253C35.9143 29.4719 36.1663 30.0863 36.4656 30.6533L33.331 33.788L38.0723 38.5294L41.207 35.3947C41.7898 35.694 42.3884 35.946 43.0027 36.135V40.5771H49.7131V36.135C50.3274 35.946 50.9417 35.694 51.5088 35.3947L54.6435 38.5294L59.3848 33.788L56.2502 30.6533C56.5495 30.0705 56.8015 29.4719 56.9905 28.8576H61.4326V22.1472H56.9905C56.8172 21.5329 56.5652 20.9343 56.2659 20.3515ZM59.9519 27.3612H55.8721L55.7304 27.9282C55.5098 28.8104 55.1633 29.6452 54.7065 30.4171L54.4072 30.9211L57.2898 33.8038L54.6592 36.4343L51.7766 33.5517L51.2725 33.851C50.5007 34.3078 49.6658 34.6544 48.7837 34.8749L48.2166 35.0167V39.0964H44.4992V35.0167L43.9321 34.8749C43.05 34.6544 42.2151 34.3078 41.4433 33.851L40.9392 33.5517L38.0566 36.4343L35.4417 33.8038L38.3244 30.9211L38.0251 30.4171C37.5683 29.6452 37.2217 28.8104 37.0012 27.9282L36.8594 27.3612H32.7796V23.6437H36.8594L37.0012 23.0766C37.2217 22.1945 37.5683 21.3596 38.0251 20.5878L38.3244 20.0837L35.4417 17.2169L38.0723 14.5863L40.9549 17.4846L41.459 17.1854C42.2309 16.7285 43.0657 16.382 43.9478 16.1615L44.5149 16.0197V11.9242H48.2324V16.004L48.7995 16.1457C49.6816 16.3663 50.5164 16.7128 51.2883 17.1696L51.7923 17.4689L54.6592 14.5863L57.2898 17.2169L54.4072 20.0995L54.7065 20.6035C55.1633 21.3754 55.5098 22.2103 55.7304 23.0924L55.8721 23.6594H59.9519V27.3612Z" fill="url(#paint0_linear_866_740)"/>
<path d="M46.3579 20.8557C43.7903 20.8557 41.6953 22.9507 41.6953 25.5183C41.6953 28.0859 43.7903 30.1809 46.3579 30.1809C48.9255 30.1809 51.0205 28.0859 51.0205 25.5183C51.0205 22.9507 48.9255 20.8557 46.3579 20.8557ZM46.3579 28.6687C44.6094 28.6687 43.1918 27.251 43.1918 25.5026C43.1918 23.7541 44.6094 22.3364 46.3579 22.3364C48.1064 22.3364 49.5241 23.7541 49.5241 25.5026C49.5241 27.251 48.1064 28.6687 46.3579 28.6687Z" fill="url(#paint1_linear_866_740)"/>
<path d="M55.4787 0H5.97002C2.67785 0 0 2.67785 0 5.97002V43.7591H1.49644V5.97002C1.49644 3.5127 3.49695 1.5122 5.95427 1.5122H55.4787C57.936 1.5122 59.9365 3.5127 59.9365 5.97002V11.1839H61.4329V5.97002C61.4487 2.67785 58.7708 0 55.4787 0Z" fill="url(#paint2_linear_866_740)"/>
<path d="M59.9522 55.4786C59.9522 57.9359 57.9517 59.9364 55.4944 59.9364H29.4248V61.4329H55.4944C58.7866 61.4329 61.4644 58.755 61.4644 55.4629V38.5452H59.968V55.4786H59.9522Z" fill="url(#paint3_linear_866_740)"/>
<path d="M34.6392 10.4277H4.66309V11.9242H34.6392V10.4277Z" fill="url(#paint4_linear_866_740)"/>
<path d="M8.56881 5.21387H5.96973V6.71031H8.56881V5.21387Z" fill="url(#paint5_linear_866_740)"/>
<path d="M13.7827 5.21387H11.1836V6.71031H13.7827V5.21387Z" fill="url(#paint6_linear_866_740)"/>
<path d="M55.479 5.21387H52.8799V6.71031H55.479V5.21387Z" fill="url(#paint7_linear_866_740)"/>
<path d="M18.997 45.6179C18.7134 45.6179 16.4294 45.5233 15.9253 43.3653C18.2093 41.7113 19.7373 38.4507 19.7373 34.6072V31.9451L19.7215 31.8506C19.7058 31.7876 18.2093 26.0696 12.4756 26.0696C6.74187 26.0696 5.24543 31.7876 5.22967 31.8506L5.21392 31.9451V34.6072C5.21392 38.4507 6.74187 41.7113 9.02591 43.3653C8.52185 45.5391 6.25356 45.6179 5.97002 45.6179C2.67785 45.6179 0 48.2799 0 51.5721V62H1.49644V51.5721C1.49644 49.1148 3.49695 47.1143 5.95427 47.1143C6.00152 47.1143 7.11992 47.1143 8.23831 46.5472C9.04167 46.1534 9.93953 45.4131 10.3648 44.1057C11.0264 44.3734 11.7353 44.5152 12.4599 44.5152C13.1845 44.5152 13.8933 44.3734 14.5549 44.1057C15.5 47.067 18.9339 47.1143 18.9812 47.1143C21.4385 47.1143 23.439 49.1148 23.439 51.5721V62H24.9355V51.5721C24.9512 48.2799 22.2891 45.6179 18.997 45.6179ZM12.4756 43.003C11.814 43.003 11.1997 42.8455 10.6169 42.562C10.6169 42.5147 10.6169 42.4832 10.6169 42.4359H10.3806C8.20681 41.2388 6.71037 38.2144 6.71037 34.5757V32.1341C6.89939 31.4883 8.20681 27.566 12.4756 27.566C16.7444 27.566 18.0518 31.4883 18.2409 32.1341V34.6072C18.2409 38.2459 16.7287 41.2703 14.5706 42.4674H14.3343C14.3343 42.5147 14.3343 42.5462 14.3343 42.5935C13.7515 42.8455 13.1372 43.003 12.4756 43.003Z" fill="url(#paint8_linear_866_740)"/>
<path d="M6.71031 52.8796H5.21387V62.0001H6.71031V52.8796Z" fill="url(#paint9_linear_866_740)"/>
<path d="M19.7377 52.8796H18.2412V62.0001H19.7377V52.8796Z" fill="url(#paint10_linear_866_740)"/>
<path d="M32.5752 48.217V54.9274H54.9273V48.217H32.5752ZM53.4309 53.431H34.0874V49.7135H53.4309V53.431Z" fill="url(#paint11_linear_866_740)"/>
<path d="M29.4252 15.6418H9.87695V17.1383H29.4252V15.6418Z" fill="url(#paint12_linear_866_740)"/>
<path d="M26.826 20.8557H20.3047V22.3522H26.826V20.8557Z" fill="url(#paint13_linear_866_740)"/>
<path d="M17.6899 20.8557H15.0908V22.3522H17.6899V20.8557Z" fill="url(#paint14_linear_866_740)"/>
</g>
<defs>
<linearGradient id="paint0_linear_866_740" x1="3.31467" y1="59.7865" x2="65.0711" y2="10.6144" gradientUnits="userSpaceOnUse">
<stop stop-color="#FABE3E"/>
<stop offset="0.3618" stop-color="#F63966"/>
<stop offset="1" stop-color="#007AE8"/>
</linearGradient>
<linearGradient id="paint1_linear_866_740" x1="3.31468" y1="59.7866" x2="65.0711" y2="10.6146" gradientUnits="userSpaceOnUse">
<stop stop-color="#FABE3E"/>
<stop offset="0.3618" stop-color="#F63966"/>
<stop offset="1" stop-color="#007AE8"/>
</linearGradient>
<linearGradient id="paint2_linear_866_740" x1="-11.7077" y1="40.9192" x2="50.0487" y2="-8.2529" gradientUnits="userSpaceOnUse">
<stop stop-color="#FABE3E"/>
<stop offset="0.3618" stop-color="#F63966"/>
<stop offset="1" stop-color="#007AE8"/>
</linearGradient>
<linearGradient id="paint3_linear_866_740" x1="19.3476" y1="79.9224" x2="81.1041" y2="30.7502" gradientUnits="userSpaceOnUse">
<stop stop-color="#FABE3E"/>
<stop offset="0.3618" stop-color="#F63966"/>
<stop offset="1" stop-color="#007AE8"/>
</linearGradient>
<linearGradient id="paint4_linear_866_740" x1="-14.0354" y1="37.9951" x2="47.721" y2="-11.177" gradientUnits="userSpaceOnUse">
<stop stop-color="#FABE3E"/>
<stop offset="0.3618" stop-color="#F63966"/>
<stop offset="1" stop-color="#007AE8"/>
</linearGradient>
<linearGradient id="paint5_linear_866_740" x1="-21.3799" y1="28.7721" x2="40.3766" y2="-20.4001" gradientUnits="userSpaceOnUse">
<stop stop-color="#FABE3E"/>
<stop offset="0.3618" stop-color="#F63966"/>
<stop offset="1" stop-color="#007AE8"/>
</linearGradient>
<linearGradient id="paint6_linear_866_740" x1="-19.3574" y1="31.3122" x2="42.3991" y2="-17.8599" gradientUnits="userSpaceOnUse">
<stop stop-color="#FABE3E"/>
<stop offset="0.3618" stop-color="#F63966"/>
<stop offset="1" stop-color="#007AE8"/>
</linearGradient>
<linearGradient id="paint7_linear_866_740" x1="-3.17644" y1="51.6334" x2="58.58" y2="2.46132" gradientUnits="userSpaceOnUse">
<stop stop-color="#FABE3E"/>
<stop offset="0.3618" stop-color="#F63966"/>
<stop offset="1" stop-color="#007AE8"/>
</linearGradient>
<linearGradient id="paint8_linear_866_740" x1="1.11872" y1="57.0282" x2="62.8752" y2="7.85612" gradientUnits="userSpaceOnUse">
<stop stop-color="#FABE3E"/>
<stop offset="0.3618" stop-color="#F63966"/>
<stop offset="1" stop-color="#007AE8"/>
</linearGradient>
<linearGradient id="paint9_linear_866_740" x1="3.19869" y1="59.6407" x2="64.9551" y2="10.4686" gradientUnits="userSpaceOnUse">
<stop stop-color="#FABE3E"/>
<stop offset="0.3618" stop-color="#F63966"/>
<stop offset="1" stop-color="#007AE8"/>
</linearGradient>
<linearGradient id="paint10_linear_866_740" x1="8.25545" y1="65.9911" x2="70.0119" y2="16.819" gradientUnits="userSpaceOnUse">
<stop stop-color="#FABE3E"/>
<stop offset="0.3618" stop-color="#F63966"/>
<stop offset="1" stop-color="#007AE8"/>
</linearGradient>
<linearGradient id="paint11_linear_866_740" x1="15.0045" y1="74.4678" x2="76.7609" y2="25.2957" gradientUnits="userSpaceOnUse">
<stop stop-color="#FABE3E"/>
<stop offset="0.3618" stop-color="#F63966"/>
<stop offset="1" stop-color="#007AE8"/>
</linearGradient>
<linearGradient id="paint12_linear_866_740" x1="-11.4954" y1="41.1855" x2="50.2611" y2="-7.98665" gradientUnits="userSpaceOnUse">
<stop stop-color="#FABE3E"/>
<stop offset="0.3618" stop-color="#F63966"/>
<stop offset="1" stop-color="#007AE8"/>
</linearGradient>
<linearGradient id="paint13_linear_866_740" x1="-7.43841" y1="46.2808" x2="54.318" y2="-2.89134" gradientUnits="userSpaceOnUse">
<stop stop-color="#FABE3E"/>
<stop offset="0.3618" stop-color="#F63966"/>
<stop offset="1" stop-color="#007AE8"/>
</linearGradient>
<linearGradient id="paint14_linear_866_740" x1="-10.2193" y1="42.7881" x2="51.5371" y2="-6.38403" gradientUnits="userSpaceOnUse">
<stop stop-color="#FABE3E"/>
<stop offset="0.3618" stop-color="#F63966"/>
<stop offset="1" stop-color="#007AE8"/>
</linearGradient>
<clipPath id="clip0_866_740">
<rect width="61.4487" height="62" fill="white"/>
</clipPath>
</defs>
</svg>
