<svg width="75" height="56" viewBox="0 0 75 56" fill="none" xmlns="http://www.w3.org/2000/svg">
<path d="M44.8062 56C36.8283 56 29.2453 52.8136 23.4594 47.0268C17.8709 41.4415 14.6719 33.9516 14.6719 26.4984C14.6719 25.9856 15.1063 25.5827 15.6592 25.5827C16.2122 25.5827 16.6466 25.9856 16.6466 26.4984C16.6466 33.4938 19.6679 40.5258 24.9207 45.7816C30.3314 51.2021 37.4009 54.1687 44.8259 54.1687C60.3867 54.1687 73.0447 42.4304 73.0447 28C73.0447 13.5697 60.367 1.83126 44.8062 1.83126C44.2532 1.83126 43.8188 1.42838 43.8188 0.915631C43.8188 0.402878 44.2532 0 44.8062 0C61.4531 0 74.9997 12.5625 74.9997 28C74.9997 43.4375 61.4531 56 44.8062 56Z" fill="url(#paint0_linear_915_765)"/>
<path d="M54.1462 35.3616L48.1431 29.7946C48.4788 29.2635 48.6565 28.6592 48.6565 28C48.6565 26.3518 47.4322 24.9601 45.7932 24.5572V12.068C45.7932 11.5552 45.3587 11.1523 44.8058 11.1523C44.2529 11.1523 43.8184 11.5552 43.8184 12.068V24.5572C42.1794 24.9601 40.9551 26.3518 40.9551 28C40.9551 29.9777 42.6928 31.5709 44.8058 31.5709C45.5167 31.5709 46.1683 31.3878 46.741 31.0948L52.7442 36.6801C52.9417 36.8633 53.1984 36.9548 53.4353 36.9548C53.692 36.9548 53.9488 36.8633 54.1265 36.6801C54.5214 36.2956 54.5214 35.7279 54.1462 35.3616ZM42.9298 28C42.9298 27.0477 43.7789 26.2603 44.8058 26.2603C45.8326 26.2603 46.6818 27.0477 46.6818 28C46.6818 28.9522 45.8326 29.7397 44.8058 29.7397C43.7592 29.7397 42.9298 28.9522 42.9298 28Z" fill="url(#paint1_linear_915_765)"/>
<path d="M44.8057 8.71681C44.2528 8.71681 43.8184 8.31394 43.8184 7.80118V5.18248C43.8184 4.66972 44.2528 4.26685 44.8057 4.26685C45.3586 4.26685 45.7931 4.66972 45.7931 5.18248V7.80118C45.7931 8.31394 45.3389 8.71681 44.8057 8.71681Z" fill="url(#paint2_linear_915_765)"/>
<path d="M44.8057 52.1177C44.2528 52.1177 43.8184 51.7148 43.8184 51.2021V48.5834C43.8184 48.0706 44.2528 47.6677 44.8057 47.6677C45.3586 47.6677 45.7931 48.0706 45.7931 48.5834V51.2021C45.7931 51.7148 45.3389 52.1177 44.8057 52.1177Z" fill="url(#paint3_linear_915_765)"/>
<path d="M61.8471 45.5617C61.5904 45.5617 61.3336 45.4701 61.1559 45.287L59.1614 43.4374C58.7665 43.0712 58.7665 42.5035 59.1614 42.1372C59.5564 41.771 60.1686 41.771 60.5635 42.1372L62.558 43.9868C62.9529 44.3531 62.9529 44.9208 62.558 45.287C62.3407 45.4701 62.1038 45.5617 61.8471 45.5617Z" fill="url(#paint4_linear_915_765)"/>
<path d="M23.1042 29.758H20.2803C19.7274 29.758 19.293 29.3551 19.293 28.8424C19.293 28.3296 19.7274 27.9268 20.2803 27.9268H23.1042C23.6571 27.9268 24.0915 28.3296 24.0915 28.8424C24.0915 29.3551 23.6571 29.758 23.1042 29.758Z" fill="url(#paint5_linear_915_765)"/>
<path d="M69.3132 29.758H66.4893C65.9364 29.758 65.502 29.3551 65.502 28.8424C65.502 28.3296 65.9364 27.9268 66.4893 27.9268H69.3132C69.8661 27.9268 70.3005 28.3296 70.3005 28.8424C70.3005 29.3551 69.8661 29.758 69.3132 29.758Z" fill="url(#paint6_linear_915_765)"/>
<path d="M27.7647 45.5617C27.508 45.5617 27.2513 45.4701 27.0736 45.287C26.6786 44.9208 26.6786 44.3531 27.0736 43.9868L29.068 42.1372C29.463 41.771 30.0751 41.771 30.4701 42.1372C30.865 42.5035 30.865 43.0712 30.4701 43.4374L28.4756 45.287C28.2584 45.4701 28.0017 45.5617 27.7647 45.5617Z" fill="url(#paint7_linear_915_765)"/>
<path d="M60.4463 14.705C60.1896 14.705 59.9329 14.6134 59.7552 14.4303C59.3602 14.0641 59.3602 13.4964 59.7552 13.1301L61.7497 11.2805C62.1446 10.9143 62.7568 10.9143 63.1517 11.2805C63.5467 11.6468 63.5467 12.2145 63.1517 12.5807L61.1572 14.4303C60.94 14.6134 60.6833 14.705 60.4463 14.705Z" fill="url(#paint8_linear_915_765)"/>
<path d="M39.475 1.83126H34.5381C33.9852 1.83126 33.5508 1.42838 33.5508 0.915631C33.5508 0.402878 33.9852 0 34.5381 0H39.475C40.0279 0 40.4623 0.402878 40.4623 0.915631C40.4623 1.42838 40.0279 1.83126 39.475 1.83126Z" fill="url(#paint9_linear_915_765)"/>
<path d="M29.5806 1.83126H6.77252C6.2196 1.83126 5.78516 1.42838 5.78516 0.915631C5.78516 0.402878 6.2196 0 6.77252 0H29.6003C30.1532 0 30.5877 0.402878 30.5877 0.915631C30.5877 1.42838 30.1335 1.83126 29.5806 1.83126Z" fill="url(#paint10_linear_915_765)"/>
<path d="M19.6082 8.6069H9.6358C9.08288 8.6069 8.64844 8.20402 8.64844 7.69127C8.64844 7.17851 9.08288 6.77563 9.6358 6.77563H19.5884C20.1413 6.77563 20.5758 7.17851 20.5758 7.69127C20.5758 8.20402 20.1413 8.6069 19.6082 8.6069Z" fill="url(#paint11_linear_915_765)"/>
<path d="M6.77255 15.3825H3.1983C2.64538 15.3825 2.21094 14.9797 2.21094 14.4669C2.21094 13.9541 2.64538 13.5513 3.1983 13.5513H6.77255C7.32547 13.5513 7.75991 13.9541 7.75991 14.4669C7.75991 14.9797 7.30572 15.3825 6.77255 15.3825Z" fill="url(#paint12_linear_915_765)"/>
<path d="M32.82 8.6069H23.1241C22.5712 8.6069 22.1367 8.20402 22.1367 7.69127C22.1367 7.17851 22.5712 6.77563 23.1241 6.77563H32.82C33.3729 6.77563 33.8073 7.17851 33.8073 7.69127C33.8073 8.20402 33.3729 8.6069 32.82 8.6069Z" fill="url(#paint13_linear_915_765)"/>
<path d="M27.4095 15.3825H11.1378C10.5848 15.3825 10.1504 14.9797 10.1504 14.4669C10.1504 13.9541 10.5848 13.5513 11.1378 13.5513H27.3897C27.9426 13.5513 28.3771 13.9541 28.3771 14.4669C28.3771 14.9797 27.9427 15.3825 27.4095 15.3825Z" fill="url(#paint14_linear_915_765)"/>
<path d="M19.293 22.1399H0.987362C0.434439 22.1399 0 21.737 0 21.2242C0 20.7115 0.434439 20.3086 0.987362 20.3086H19.293C19.846 20.3086 20.2804 20.7115 20.2804 21.2242C20.2804 21.737 19.846 22.1399 19.293 22.1399Z" fill="url(#paint15_linear_915_765)"/>
<defs>
<linearGradient id="paint0_linear_915_765" x1="-2.05409" y1="28.0013" x2="73.7029" y2="28.0013" gradientUnits="userSpaceOnUse">
<stop stop-color="#FABE3E"/>
<stop offset="0.3618" stop-color="#F63966"/>
<stop offset="1" stop-color="#007AE8"/>
</linearGradient>
<linearGradient id="paint1_linear_915_765" x1="-2.05447" y1="24.0408" x2="73.7025" y2="24.0408" gradientUnits="userSpaceOnUse">
<stop stop-color="#FABE3E"/>
<stop offset="0.3618" stop-color="#F63966"/>
<stop offset="1" stop-color="#007AE8"/>
</linearGradient>
<linearGradient id="paint2_linear_915_765" x1="-2.05453" y1="6.50027" x2="73.7024" y2="6.50027" gradientUnits="userSpaceOnUse">
<stop stop-color="#FABE3E"/>
<stop offset="0.3618" stop-color="#F63966"/>
<stop offset="1" stop-color="#007AE8"/>
</linearGradient>
<linearGradient id="paint3_linear_915_765" x1="-2.05453" y1="49.8958" x2="73.7024" y2="49.8958" gradientUnits="userSpaceOnUse">
<stop stop-color="#FABE3E"/>
<stop offset="0.3618" stop-color="#F63966"/>
<stop offset="1" stop-color="#007AE8"/>
</linearGradient>
<linearGradient id="paint4_linear_915_765" x1="-2.05499" y1="43.7192" x2="73.7019" y2="43.7192" gradientUnits="userSpaceOnUse">
<stop stop-color="#FABE3E"/>
<stop offset="0.3618" stop-color="#F63966"/>
<stop offset="1" stop-color="#007AE8"/>
</linearGradient>
<linearGradient id="paint5_linear_915_765" x1="-2.05386" y1="28.8392" x2="73.7031" y2="28.8392" gradientUnits="userSpaceOnUse">
<stop stop-color="#FABE3E"/>
<stop offset="0.3618" stop-color="#F63966"/>
<stop offset="1" stop-color="#007AE8"/>
</linearGradient>
<linearGradient id="paint6_linear_915_765" x1="-2.05337" y1="28.8392" x2="73.7036" y2="28.8392" gradientUnits="userSpaceOnUse">
<stop stop-color="#FABE3E"/>
<stop offset="0.3618" stop-color="#F63966"/>
<stop offset="1" stop-color="#007AE8"/>
</linearGradient>
<linearGradient id="paint7_linear_915_765" x1="-2.05368" y1="43.7193" x2="73.7033" y2="43.7193" gradientUnits="userSpaceOnUse">
<stop stop-color="#FABE3E"/>
<stop offset="0.3618" stop-color="#F63966"/>
<stop offset="1" stop-color="#007AE8"/>
</linearGradient>
<linearGradient id="paint8_linear_915_765" x1="-2.05366" y1="12.86" x2="73.7032" y2="12.86" gradientUnits="userSpaceOnUse">
<stop stop-color="#FABE3E"/>
<stop offset="0.3618" stop-color="#F63966"/>
<stop offset="1" stop-color="#007AE8"/>
</linearGradient>
<linearGradient id="paint9_linear_915_765" x1="-2.05355" y1="0.915631" x2="73.7034" y2="0.915631" gradientUnits="userSpaceOnUse">
<stop stop-color="#FABE3E"/>
<stop offset="0.3618" stop-color="#F63966"/>
<stop offset="1" stop-color="#007AE8"/>
</linearGradient>
<linearGradient id="paint10_linear_915_765" x1="-2.05455" y1="0.915631" x2="73.7024" y2="0.915631" gradientUnits="userSpaceOnUse">
<stop stop-color="#FABE3E"/>
<stop offset="0.3618" stop-color="#F63966"/>
<stop offset="1" stop-color="#007AE8"/>
</linearGradient>
<linearGradient id="paint11_linear_915_765" x1="-2.05462" y1="7.68698" x2="73.7023" y2="7.68698" gradientUnits="userSpaceOnUse">
<stop stop-color="#FABE3E"/>
<stop offset="0.3618" stop-color="#F63966"/>
<stop offset="1" stop-color="#007AE8"/>
</linearGradient>
<linearGradient id="paint12_linear_915_765" x1="-2.05452" y1="14.4585" x2="73.7024" y2="14.4585" gradientUnits="userSpaceOnUse">
<stop stop-color="#FABE3E"/>
<stop offset="0.3618" stop-color="#F63966"/>
<stop offset="1" stop-color="#007AE8"/>
</linearGradient>
<linearGradient id="paint13_linear_915_765" x1="-2.0537" y1="7.68698" x2="73.7033" y2="7.68698" gradientUnits="userSpaceOnUse">
<stop stop-color="#FABE3E"/>
<stop offset="0.3618" stop-color="#F63966"/>
<stop offset="1" stop-color="#007AE8"/>
</linearGradient>
<linearGradient id="paint14_linear_915_765" x1="-2.05346" y1="14.4585" x2="73.7035" y2="14.4585" gradientUnits="userSpaceOnUse">
<stop stop-color="#FABE3E"/>
<stop offset="0.3618" stop-color="#F63966"/>
<stop offset="1" stop-color="#007AE8"/>
</linearGradient>
<linearGradient id="paint15_linear_915_765" x1="-2.05377" y1="21.2298" x2="73.7032" y2="21.2298" gradientUnits="userSpaceOnUse">
<stop stop-color="#FABE3E"/>
<stop offset="0.3618" stop-color="#F63966"/>
<stop offset="1" stop-color="#007AE8"/>
</linearGradient>
</defs>
</svg>
