<svg width="62" height="62" viewBox="0 0 62 62" fill="none" xmlns="http://www.w3.org/2000/svg">
<g clip-path="url(#clip0_838_573)">
<path d="M26.641 55.4899C26.641 55.4412 26.6572 55.3925 26.6897 55.36L28.3619 53.6879C28.3943 53.6554 28.4268 53.6392 28.4755 53.6392C28.4755 53.6392 28.4755 53.6392 28.4918 53.6392L32.4855 53.8502C32.5017 53.8502 32.5179 53.8502 32.5342 53.8502C32.8913 53.8502 33.216 53.6392 33.3459 53.3145L34.9369 49.4669C35.083 49.126 34.9856 48.7363 34.7096 48.4766L31.7387 45.7979C31.7062 45.7654 31.69 45.7167 31.69 45.6842V43.3302C31.69 43.2815 31.7062 43.2328 31.7387 43.2166L34.7096 40.5378C34.9856 40.2943 35.0668 39.8885 34.9369 39.5475L33.3459 35.6999C33.216 35.3752 32.8913 35.1642 32.5342 35.1642C32.5179 35.1642 32.5017 35.1642 32.4855 35.1642L28.4918 35.3752C28.4918 35.3752 28.4918 35.3752 28.4755 35.3752C28.4268 35.3752 28.3943 35.359 28.3619 35.3265L26.6897 33.6544C26.6572 33.6219 26.641 33.5732 26.641 33.5245L26.8521 29.5308C26.8683 29.1574 26.6572 28.8164 26.3163 28.6703L22.4687 27.0793C22.3551 27.0306 22.2414 27.0144 22.1278 27.0144C21.8843 27.0144 21.6407 27.1118 21.4784 27.3066L18.7997 30.2776C18.7672 30.31 18.7185 30.3263 18.686 30.3263H16.332C16.2833 30.3263 16.2346 30.31 16.2184 30.2776L13.5397 27.3066C13.3773 27.128 13.1338 27.0144 12.8903 27.0144C12.7766 27.0144 12.663 27.0306 12.5494 27.0793L8.70176 28.6703C8.36083 28.8164 8.14978 29.1574 8.16602 29.5308L8.37707 33.5245C8.37707 33.5732 8.36083 33.6219 8.32836 33.6544L6.6562 35.3265C6.62373 35.359 6.59126 35.3752 6.54255 35.3752C6.54255 35.3752 6.54255 35.3752 6.52632 35.3752L2.5326 35.1642C2.51637 35.1642 2.50013 35.1642 2.4839 35.1642C2.12674 35.1642 1.81828 35.3752 1.67217 35.6999L0.0811759 39.5475C-0.0649356 39.8885 0.0324721 40.2781 0.308461 40.5378L3.24693 43.2003C3.2794 43.2328 3.29563 43.2815 3.29563 43.314V45.668C3.29563 45.7167 3.2794 45.7654 3.24693 45.7816L0.292226 48.4766C0.0162375 48.7201 -0.0649356 49.126 0.0649413 49.4669L1.65593 53.3145C1.78581 53.6392 2.1105 53.8502 2.46766 53.8502C2.4839 53.8502 2.50013 53.8502 2.51637 53.8502L6.51008 53.6392C6.51008 53.6392 6.51008 53.6392 6.52632 53.6392C6.57502 53.6392 6.60749 53.6554 6.63996 53.6879L8.29589 55.36C8.32836 55.3925 8.3446 55.4412 8.3446 55.4899L8.13355 59.4836C8.11731 59.857 8.32836 60.198 8.66929 60.3441L12.5169 61.9351C12.6305 61.9838 12.7442 62 12.8578 62C13.1013 62 13.3449 61.9026 13.5072 61.7078L16.1859 58.7368C16.2184 58.7044 16.2671 58.6881 16.2996 58.6881H18.6698C18.7185 58.6881 18.7672 58.7044 18.7835 58.7368L21.4622 61.7078C21.6245 61.8864 21.868 62 22.1116 62C22.2252 62 22.3388 61.9838 22.4525 61.9351L26.3001 60.3441C26.641 60.198 26.8521 59.857 26.8358 59.4836L26.641 55.4899ZM25.1312 54.4509C24.9526 54.6295 24.8552 54.873 24.8714 55.1165L25.0662 58.8343C25.0662 58.8992 25.0338 58.9641 24.9688 58.9966L22.4687 60.0356C22.4525 60.0518 22.42 60.0518 22.4038 60.0518C22.3551 60.0518 22.3226 60.0356 22.2901 60.0031L19.79 57.2433C19.6277 57.0647 19.3841 56.951 19.1406 56.951H15.845C15.6015 56.951 15.358 57.0484 15.1956 57.2433L12.6955 60.0031C12.663 60.0356 12.6143 60.0518 12.5818 60.0518C12.5656 60.0518 12.5331 60.0518 12.5169 60.0356L10.0168 58.9966C9.95182 58.9641 9.91935 58.8992 9.91935 58.8343L10.1142 55.1165C10.1304 54.873 10.033 54.6295 9.85442 54.4509L7.53287 52.1294C7.37052 51.967 7.14323 51.8696 6.91595 51.8696C6.89971 51.8696 6.88348 51.8696 6.86725 51.8696L3.14952 52.0644C3.14952 52.0644 3.14952 52.0644 3.13328 52.0644C3.06835 52.0644 3.00341 52.032 2.98717 51.967L1.94816 49.4669C1.91569 49.4019 1.93192 49.337 1.99686 49.2883L4.75675 46.7882C4.93533 46.6258 5.04897 46.3823 5.04897 46.1388V42.8594C5.04897 42.6159 4.95156 42.3724 4.75675 42.21L1.99686 39.7099C1.94816 39.6612 1.93192 39.5962 1.94816 39.5313L2.98717 37.0312C3.01964 36.9662 3.06835 36.9338 3.13328 36.9338C3.13328 36.9338 3.13328 36.9338 3.14952 36.9338L6.86725 37.1286C6.88348 37.1286 6.89971 37.1286 6.91595 37.1286C7.14323 37.1286 7.37052 37.0312 7.53287 36.8688L9.85442 34.5473C10.033 34.3687 10.1304 34.1252 10.1142 33.8816L9.91935 30.1639C9.91935 30.099 9.95182 30.034 10.0168 30.0016L12.5169 28.9626C12.5331 28.9463 12.5656 28.9463 12.5818 28.9463C12.6305 28.9463 12.663 28.9626 12.6955 28.995L15.1956 31.7549C15.358 31.9335 15.6015 32.0471 15.845 32.0471H19.1244C19.3679 32.0471 19.6114 31.9497 19.7738 31.7549L22.2739 28.995C22.3064 28.9626 22.3551 28.9463 22.3875 28.9463C22.4038 28.9463 22.4362 28.9463 22.4525 28.9626L24.9526 30.0016C25.0175 30.034 25.05 30.099 25.05 30.1639L24.8552 33.8816C24.839 34.1252 24.9364 34.3687 25.115 34.5473L27.4365 36.8688C27.5989 37.0312 27.8261 37.1286 28.0534 37.1286C28.0697 37.1286 28.0859 37.1286 28.1021 37.1286L31.8199 36.9338C31.8199 36.9338 31.8199 36.9338 31.8361 36.9338C31.901 36.9338 31.966 36.9662 31.9822 37.0312L33.0212 39.5313C33.0537 39.5962 33.0374 39.6612 32.9725 39.7099L30.2126 42.21C30.034 42.3724 29.9204 42.6159 29.9204 42.8594V46.1388C29.9204 46.3823 30.0178 46.6258 30.2126 46.7882L32.9725 49.2883C33.0212 49.337 33.0374 49.4019 33.0212 49.4669L31.9822 51.967C31.9497 52.032 31.901 52.0644 31.8361 52.0644C31.8361 52.0644 31.8361 52.0644 31.8199 52.0644L28.1021 51.8696C28.0859 51.8696 28.0697 51.8696 28.0534 51.8696C27.8261 51.8696 27.5989 51.967 27.4365 52.1294L25.1312 54.4509Z" fill="url(#paint0_linear_838_573)"/>
<path d="M17.5009 39.4663C14.7248 39.4663 12.4682 41.7229 12.4682 44.499C12.4682 47.2752 14.7248 49.5318 17.5009 49.5318C20.2771 49.5318 22.5337 47.2752 22.5337 44.499C22.5174 41.7229 20.2608 39.4663 17.5009 39.4663ZM17.5009 47.7784C15.6989 47.7784 14.2215 46.3011 14.2215 44.499C14.2215 42.697 15.6989 41.2196 17.5009 41.2196C19.303 41.2196 20.7803 42.697 20.7803 44.499C20.7641 46.3011 19.303 47.7784 17.5009 47.7784Z" fill="url(#paint1_linear_838_573)"/>
<path d="M62 0.876669C62 0.389631 61.6104 0 61.1233 0H15.4229C14.9358 0 14.5462 0.389631 14.5462 0.876669V25.6345H16.2995V1.91568C16.2995 1.81828 16.3645 1.75334 16.4619 1.75334H60.0843C60.1817 1.75334 60.2466 1.81828 60.2466 1.91568V55.9283C60.2466 56.0257 60.1817 56.0906 60.0843 56.0906H29.0762V57.8439H61.1071C61.5941 57.8439 61.9837 57.4543 61.9837 56.9673V0.876669H62Z" fill="url(#paint2_linear_838_573)"/>
<path d="M19.7413 19.5789V23.735C19.7413 24.222 20.1309 24.6116 20.6179 24.6116H25.813C25.9104 24.6116 25.9754 24.6766 25.9754 24.774V26.6897H27.7287V24.774C27.7287 24.6766 27.7936 24.6116 27.8911 24.6116H33.0861C33.5732 24.6116 33.9628 24.222 33.9628 23.735V22.6959C33.9628 22.5985 34.0277 22.5336 34.1251 22.5336H37.2422C37.3396 22.5336 37.4045 22.5985 37.4045 22.6959V52.6488H39.1579V40.343C39.1579 40.2456 39.2228 40.1806 39.3202 40.1806H42.4373C42.5347 40.1806 42.5996 40.2456 42.5996 40.343V41.382C42.5996 41.869 42.9892 42.2586 43.4763 42.2586H48.6714C48.7688 42.2586 48.8337 42.3236 48.8337 42.421V44.499C48.8337 44.5964 48.7688 44.6614 48.6714 44.6614H43.4763C42.9892 44.6614 42.5996 45.051 42.5996 45.538V49.6941C42.5996 50.1811 42.9892 50.5708 43.4763 50.5708H48.6714C48.7688 50.5708 48.8337 50.6357 48.8337 50.7331V52.6488H50.587V50.7331C50.587 50.6357 50.652 50.5708 50.7494 50.5708H55.9445C56.4315 50.5708 56.8211 50.1811 56.8211 49.6941V45.538C56.8211 45.051 56.4315 44.6614 55.9445 44.6614H50.7494C50.652 44.6614 50.587 44.5964 50.587 44.499V42.421C50.587 42.3236 50.652 42.2586 50.7494 42.2586H55.9445C56.4315 42.2586 56.8211 41.869 56.8211 41.382V37.2259C56.8211 36.7389 56.4315 36.3493 55.9445 36.3493H43.4763C42.9892 36.3493 42.5996 36.7389 42.5996 37.2259V38.2649C42.5996 38.3623 42.5347 38.4273 42.4373 38.4273H39.3202C39.2228 38.4273 39.1579 38.3623 39.1579 38.2649V22.6797C39.1579 22.5823 39.2228 22.5174 39.3202 22.5174H42.4373C42.5347 22.5174 42.5996 22.5823 42.5996 22.6797V23.7187C42.5996 24.2058 42.9892 24.5954 43.4763 24.5954H48.6714C48.7688 24.5954 48.8337 24.6603 48.8337 24.7577V26.8358C48.8337 26.9332 48.7688 26.9981 48.6714 26.9981H43.4763C42.9892 26.9981 42.5996 27.3877 42.5996 27.8748V32.0308C42.5996 32.5179 42.9892 32.9075 43.4763 32.9075H55.9445C56.4315 32.9075 56.8211 32.5179 56.8211 32.0308V27.8748C56.8211 27.3877 56.4315 26.9981 55.9445 26.9981H50.7494C50.652 26.9981 50.587 26.9332 50.587 26.8358V24.7577C50.587 24.6603 50.652 24.5954 50.7494 24.5954H55.9445C56.4315 24.5954 56.8211 24.2058 56.8211 23.7187V19.5627C56.8211 19.0756 56.4315 18.686 55.9445 18.686H43.4763C42.9892 18.686 42.5996 19.0756 42.5996 19.5627V20.6017C42.5996 20.6991 42.5347 20.764 42.4373 20.764H39.3202C39.2228 20.764 39.1579 20.6991 39.1579 20.6017V17.4035C39.1579 17.3223 39.2228 17.2573 39.2878 17.2411C40.8787 16.9651 42.2749 16.1047 43.2165 14.7734C44.1581 13.4584 44.5315 11.8512 44.2555 10.244C44.1094 9.35108 43.736 8.47441 43.2165 7.72762C43.1678 7.66268 43.1841 7.58151 43.2328 7.51657L44.8238 5.92558C44.8562 5.89311 44.8887 5.87688 44.9374 5.87688H55.7659V4.15601H44.4991C44.2718 4.15601 44.0445 4.25341 43.8821 4.41576L41.9989 6.29897C41.9665 6.33144 41.934 6.34768 41.8853 6.34768C41.8528 6.34768 41.8203 6.33144 41.7879 6.31521C40.7489 5.58465 39.5475 5.19502 38.2812 5.19502C36.3168 5.19502 34.4661 6.15286 33.3296 7.74386C32.388 9.05886 32.0146 10.6661 32.2906 12.2733C32.5666 13.8643 33.4433 15.2767 34.7583 16.2021C35.5051 16.7378 36.3655 17.095 37.2584 17.2411C37.3396 17.2573 37.3883 17.3223 37.3883 17.4035V20.6179C37.3883 20.7153 37.3234 20.7803 37.226 20.7803H34.1089C34.0115 20.7803 33.9466 20.7153 33.9466 20.6179V19.5789C33.9466 19.0919 33.5569 18.7022 33.0699 18.7022H20.6179C20.1309 18.7022 19.7413 19.0919 19.7413 19.5789ZM54.8892 46.4147C54.9866 46.4147 55.0516 46.4796 55.0516 46.5771V48.6551C55.0516 48.7525 54.9866 48.8174 54.8892 48.8174H44.4991C44.4017 48.8174 44.3367 48.7525 44.3367 48.6551V46.5771C44.3367 46.4796 44.4017 46.4147 44.4991 46.4147H54.8892ZM44.3367 38.2649C44.3367 38.1675 44.4017 38.1026 44.4991 38.1026H54.8892C54.9866 38.1026 55.0516 38.1675 55.0516 38.2649V40.343C55.0516 40.4404 54.9866 40.5053 54.8892 40.5053H44.4991C44.4017 40.5053 44.3367 40.4404 44.3367 40.343V38.2649ZM54.8892 28.7514C54.9866 28.7514 55.0516 28.8164 55.0516 28.9138V30.9918C55.0516 31.0892 54.9866 31.1542 54.8892 31.1542H44.4991C44.4017 31.1542 44.3367 31.0892 44.3367 30.9918V28.9138C44.3367 28.8164 44.4017 28.7514 44.4991 28.7514H54.8892ZM44.3367 20.6179C44.3367 20.5205 44.4017 20.4556 44.4991 20.4556H54.8892C54.9866 20.4556 55.0516 20.5205 55.0516 20.6179V22.6959C55.0516 22.7933 54.9866 22.8583 54.8892 22.8583H44.4991C44.4017 22.8583 44.3367 22.7933 44.3367 22.6959V20.6179ZM34.5472 13.4584C34.1576 12.7928 33.9466 12.0298 33.9466 11.2668C33.9466 8.88028 35.8785 6.94836 38.265 6.94836C39.0442 6.94836 39.791 7.15941 40.4566 7.54904C40.5053 7.58151 40.5216 7.61398 40.5378 7.66268C40.5378 7.71139 40.5216 7.76009 40.4891 7.79256L37.7617 10.52L38.9955 11.7538L41.7229 9.04263C41.7554 9.01016 41.7879 8.99392 41.8366 8.99392H41.8528C41.9015 8.99392 41.9502 9.02639 41.9665 9.0751C42.5509 10.0654 42.7133 11.2343 42.421 12.3383C42.1288 13.4584 41.4307 14.3838 40.4404 14.9845C39.7748 15.3741 39.0118 15.5852 38.2487 15.5852C36.7552 15.5852 35.3265 14.7734 34.5472 13.4584ZM21.4946 20.6179C21.4946 20.5205 21.5595 20.4556 21.657 20.4556H32.0471C32.1445 20.4556 32.2095 20.5205 32.2095 20.6179V22.6959C32.2095 22.7933 32.1445 22.8583 32.0471 22.8583H21.657C21.5595 22.8583 21.4946 22.7933 21.4946 22.6959V20.6179Z" fill="url(#paint3_linear_838_573)"/>
<path d="M17.5009 35.3103C12.4357 35.3103 8.31213 39.4339 8.31213 44.4991C8.31213 49.5643 12.4357 53.6879 17.5009 53.6879C22.5661 53.6879 26.6897 49.5643 26.6897 44.4991C26.6735 39.4339 22.5499 35.3265 17.5009 35.3103ZM17.5009 51.9345C13.4098 51.9345 10.0655 48.6065 10.0655 44.4991C10.0655 40.3917 13.3936 37.0636 17.5009 37.0636C21.6083 37.0636 24.9364 40.3917 24.9364 44.4991C24.9201 48.5902 21.5921 51.9345 17.5009 51.9345Z" fill="url(#paint4_linear_838_573)"/>
</g>
<defs>
<linearGradient id="paint0_linear_838_573" x1="-2.02807" y1="62.552" x2="50.2168" y2="14.2434" gradientUnits="userSpaceOnUse">
<stop stop-color="#FABE3E"/>
<stop offset="0.3618" stop-color="#F63966"/>
<stop offset="1" stop-color="#007AE8"/>
</linearGradient>
<linearGradient id="paint1_linear_838_573" x1="-2.02845" y1="62.5515" x2="50.2164" y2="14.243" gradientUnits="userSpaceOnUse">
<stop stop-color="#FABE3E"/>
<stop offset="0.3618" stop-color="#F63966"/>
<stop offset="1" stop-color="#007AE8"/>
</linearGradient>
<linearGradient id="paint2_linear_838_573" x1="-0.219945" y1="64.5075" x2="52.0249" y2="16.1989" gradientUnits="userSpaceOnUse">
<stop stop-color="#FABE3E"/>
<stop offset="0.3618" stop-color="#F63966"/>
<stop offset="1" stop-color="#007AE8"/>
</linearGradient>
<linearGradient id="paint3_linear_838_573" x1="2.62758" y1="67.587" x2="54.8724" y2="19.2784" gradientUnits="userSpaceOnUse">
<stop stop-color="#FABE3E"/>
<stop offset="0.3618" stop-color="#F63966"/>
<stop offset="1" stop-color="#007AE8"/>
</linearGradient>
<linearGradient id="paint4_linear_838_573" x1="-2.02844" y1="62.5516" x2="50.2164" y2="14.243" gradientUnits="userSpaceOnUse">
<stop stop-color="#FABE3E"/>
<stop offset="0.3618" stop-color="#F63966"/>
<stop offset="1" stop-color="#007AE8"/>
</linearGradient>
<clipPath id="clip0_838_573">
<rect width="62" height="62" fill="white"/>
</clipPath>
</defs>
</svg>
