<svg width="44" height="29" viewBox="0 0 44 29" fill="none" xmlns="http://www.w3.org/2000/svg">
<g clip-path="url(#clip0_1470_879)">
<path d="M10.758 20.9906H6.27781C6.16719 20.9906 6.05657 20.9353 6.00126 20.8524L4.25896 18.9441C4.20365 18.8612 4.09302 18.8335 4.01006 18.8335H1.18919C0.525456 18.8335 0 19.359 0 20.0227V27.2131C0 27.8769 0.525456 28.4023 1.18919 28.4023H10.758C11.4217 28.4023 11.9472 27.8769 11.9472 27.2131V22.1798C11.9472 21.5161 11.4217 20.9906 10.758 20.9906ZM11.2835 27.2408C11.2835 27.5173 11.0622 27.7662 10.758 27.7662H1.18919C0.912634 27.7662 0.663734 27.545 0.663734 27.2408V20.0503C0.663734 19.7738 0.884978 19.5249 1.18919 19.5249H3.70585C3.81647 19.5249 3.92709 19.5802 3.9824 19.6632L4.61848 20.3822C4.7291 20.4928 4.75676 20.6588 4.67379 20.797C4.61848 20.9353 4.4802 21.0183 4.31427 21.0183H3.59522C3.40163 21.0183 3.26336 21.1566 3.26336 21.3502C3.26336 21.5437 3.40163 21.682 3.59522 21.682H10.758C11.0346 21.682 11.2835 21.9033 11.2835 22.2075V27.2408Z" fill="url(#paint0_linear_1470_879)"/>
<path d="M26.7707 20.9906H22.3182C22.2075 20.9906 22.0969 20.9353 22.0416 20.8524L20.2993 18.9441C20.244 18.8612 20.1334 18.8335 20.0504 18.8335H17.2019C16.5382 18.8335 16.0127 19.359 16.0127 20.0227V27.2131C16.0127 27.8769 16.5382 28.4023 17.2019 28.4023H26.7707C27.4344 28.4023 27.9599 27.8769 27.9599 27.2131V22.1798C27.9599 21.5161 27.4344 20.9906 26.7707 20.9906ZM27.2962 27.2408C27.2962 27.5173 27.0749 27.7662 26.7707 27.7662H17.2019C16.9253 27.7662 16.6764 27.545 16.6764 27.2408V20.0503C16.6764 19.7738 16.8977 19.5249 17.2019 19.5249H19.7185C19.8292 19.5249 19.9398 19.5802 19.9951 19.6632L20.6312 20.3822C20.7418 20.4928 20.7695 20.6588 20.6865 20.797C20.6312 20.9353 20.4929 21.0183 20.327 21.0183H19.6356C19.442 21.0183 19.3037 21.1566 19.3037 21.3502C19.3037 21.5437 19.442 21.682 19.6356 21.682H26.7984C27.0749 21.682 27.3238 21.9033 27.3238 22.2075V27.2408H27.2962Z" fill="url(#paint1_linear_1470_879)"/>
<path d="M42.8109 20.9906H38.3584C38.2478 20.9906 38.1371 20.9353 38.0818 20.8524L36.3395 18.9441C36.2842 18.8612 36.1736 18.8335 36.0906 18.8335H33.2698C32.606 18.8335 32.0806 19.359 32.0806 20.0227V27.2131C32.0806 27.8769 32.606 28.4023 33.2698 28.4023H42.8386C43.5023 28.4023 44.0278 27.8769 44.0278 27.2131V22.1798C44.0001 21.5161 43.447 20.9906 42.8109 20.9906ZM43.3087 27.2408C43.3087 27.5173 43.0875 27.7662 42.7833 27.7662H33.2144C32.9379 27.7662 32.689 27.545 32.689 27.2408V20.0503C32.689 19.7738 32.9102 19.5249 33.2144 19.5249H35.7311C35.8417 19.5249 35.9523 19.5802 36.0077 19.6632L36.6437 20.3822C36.7544 20.4928 36.782 20.6588 36.699 20.797C36.6437 20.9353 36.5055 21.0183 36.3395 21.0183H35.5928C35.3992 21.0183 35.261 21.1566 35.261 21.3502C35.261 21.5437 35.3992 21.682 35.5928 21.682H42.7556C43.0322 21.682 43.2811 21.9033 43.2811 22.2075V27.2408H43.3087Z" fill="url(#paint2_linear_1470_879)"/>
<path d="M5.97347 18.0591C6.16706 18.0591 6.30533 17.9208 6.30533 17.7272V13.3023C6.30533 13.164 6.36065 13.0534 6.47127 12.9981L17.0633 5.61408C17.2016 5.50346 17.4229 5.53111 17.5611 5.66939L21.5712 9.67945C21.6542 9.76241 21.6818 9.84538 21.6818 9.956V17.7825C21.6818 17.9761 21.8201 18.1144 22.0137 18.1144C22.2073 18.1144 22.3456 17.9761 22.3456 17.7825V9.90069C22.3456 9.79007 22.3732 9.7071 22.4562 9.62414L26.4662 5.61408C26.5492 5.53111 26.6322 5.50346 26.7428 5.50346C26.8258 5.50346 26.9087 5.53111 26.964 5.58642L37.5561 12.9705C37.6667 13.0534 37.7221 13.164 37.7221 13.2747V17.6996C37.7221 17.8931 37.8603 18.0314 38.0539 18.0314C38.2475 18.0314 38.3858 17.8931 38.3858 17.6996V12.9151C38.3858 12.8045 38.3305 12.6939 38.2475 12.6386L28.734 6.00126C28.5957 5.91829 28.5404 5.7247 28.5957 5.55877C28.651 5.39283 28.7893 5.28221 28.9552 5.28221H38.0539C38.2475 5.28221 38.3858 5.14393 38.3858 4.95035C38.3858 4.75676 38.2475 4.61848 38.0539 4.61848H26.9364C26.8258 4.61848 26.7428 4.59082 26.6598 4.50786L22.2349 0.0829667C22.1243 -0.0276556 21.8754 -0.0276556 21.7648 0.0829667L17.3399 4.50786C17.2569 4.59082 17.174 4.61848 17.0633 4.61848H5.97347C5.77988 4.61848 5.6416 4.75676 5.6416 4.95035C5.6416 5.14393 5.77988 5.28221 5.97347 5.28221H15.0721C15.2381 5.28221 15.3764 5.39283 15.4317 5.55877C15.487 5.7247 15.4317 5.89064 15.2934 6.00126L5.77988 12.6386C5.69691 12.6939 5.6416 12.8045 5.6416 12.9151V17.7272C5.6416 17.8931 5.77988 18.0591 5.97347 18.0591ZM18.0866 4.70145L21.7371 1.07857C21.8754 0.940289 22.1243 0.940289 22.2902 1.07857L25.8855 4.70145C25.9684 4.78441 25.9961 4.86738 25.9961 4.978C25.9961 5.08862 25.9684 5.17159 25.8855 5.25456L22.2626 8.84978C22.1796 8.93275 22.0967 8.9604 21.986 8.9604C21.8754 8.9604 21.7924 8.93275 21.7095 8.84978L18.0866 5.2269C18.0036 5.14393 17.976 5.06097 17.976 4.95035C17.976 4.83972 18.0313 4.75676 18.0866 4.70145Z" fill="url(#paint3_linear_1470_879)"/>
</g>
<defs>
<linearGradient id="paint0_linear_1470_879" x1="-0.207472" y1="23.6317" x2="43.3018" y2="23.6317" gradientUnits="userSpaceOnUse">
<stop stop-color="#FABE3E"/>
<stop offset="0.3618" stop-color="#F63966"/>
<stop offset="1" stop-color="#007AE8"/>
</linearGradient>
<linearGradient id="paint1_linear_1470_879" x1="-0.603871" y1="23.5492" x2="43.8862" y2="23.7401" gradientUnits="userSpaceOnUse">
<stop stop-color="#FABE3E"/>
<stop offset="0.3618" stop-color="#F63966"/>
<stop offset="1" stop-color="#007AE8"/>
</linearGradient>
<linearGradient id="paint2_linear_1470_879" x1="-0.233488" y1="22.7374" x2="44.4476" y2="23.8831" gradientUnits="userSpaceOnUse">
<stop stop-color="#FABE3E"/>
<stop offset="0.3618" stop-color="#F63966"/>
<stop offset="1" stop-color="#007AE8"/>
</linearGradient>
<linearGradient id="paint3_linear_1470_879" x1="5.42713" y1="9.02678" x2="38.5623" y2="9.02678" gradientUnits="userSpaceOnUse">
<stop stop-color="#FABE3E"/>
<stop offset="0.3618" stop-color="#F63966"/>
<stop offset="1" stop-color="#007AE8"/>
</linearGradient>
<clipPath id="clip0_1470_879">
<rect width="44" height="28.4299" fill="white"/>
</clipPath>
</defs>
</svg>
