<svg width="41" height="40" viewBox="0 0 41 40" fill="none" xmlns="http://www.w3.org/2000/svg">
<g clip-path="url(#clip0_1339_1401)">
<path d="M31.9139 14.3727C31.706 14.5212 31.6763 14.8181 31.8248 15.026C32.8641 16.3623 33.6659 17.8174 34.2004 19.3912C34.2301 19.4803 34.2004 19.5991 34.1114 19.6288C34.0223 19.6882 33.9332 19.6585 33.8441 19.5991C32.5078 18.2034 30.5479 17.0453 28.1722 16.2435C28.1128 16.2138 28.0535 16.1841 28.0535 16.1247C27.905 15.6496 27.7268 15.2042 27.5189 14.7587C27.4892 14.6696 27.5189 14.5509 27.608 14.4915L33.1908 11.5813C33.3393 11.4922 33.4284 11.3437 33.4284 11.1656V7.98812C33.4284 7.89904 33.4878 7.80995 33.6065 7.78025C35.1507 7.4833 36.2791 6.1173 36.2791 4.54343C36.2791 2.7023 34.7944 1.21752 32.9532 1.21752C31.1418 1.21752 29.6273 2.7023 29.6273 4.54343C29.6273 6.1173 30.7558 7.4833 32.2999 7.78025C32.389 7.80995 32.4781 7.89904 32.4781 7.98812V10.7795C32.4781 10.8686 32.4484 10.928 32.3593 10.9577L27.2517 13.66C27.1923 13.6897 27.1329 13.6897 27.1032 13.66C27.0438 13.6303 27.0141 13.6006 26.9844 13.5709C25.3808 10.5716 23.1834 8.73051 20.778 8.46325C20.6592 8.46325 20.5999 8.37416 20.5999 8.25538V6.7706C20.5999 6.68151 20.6592 6.59243 20.778 6.56273C22.3222 6.26578 23.4506 4.89978 23.4506 3.32591C23.4506 1.48478 21.9659 0 20.1544 0C18.343 0 16.8285 1.48478 16.8285 3.32591C16.8285 4.89978 17.9569 6.26578 19.5011 6.56273C19.5902 6.59243 19.6793 6.68151 19.6793 6.7706V8.25538C19.6793 8.37416 19.5902 8.46325 19.5011 8.46325C17.0958 8.73051 14.8983 10.5419 13.3244 13.5709C13.2947 13.6303 13.265 13.66 13.2056 13.66C13.1463 13.6897 13.0869 13.66 13.0572 13.66L7.91982 10.9577C7.86043 10.928 7.80104 10.8389 7.80104 10.7795V7.98812C7.80104 7.89904 7.86043 7.80995 7.97921 7.78025C9.52339 7.4833 10.6518 6.1173 10.6518 4.54343C10.6518 2.7023 9.16704 1.21752 7.32591 1.21752C5.48478 1.21752 4 2.7023 4 4.51373C4 6.0876 5.12843 7.4536 6.67261 7.75056C6.76169 7.78025 6.85078 7.86934 6.85078 7.95843V11.1656C6.85078 11.3437 6.93987 11.4922 7.08834 11.5813L12.6414 14.4915C12.7305 14.5509 12.7899 14.6696 12.7305 14.7587C12.5226 15.2339 12.3445 15.709 12.196 16.1841C12.1663 16.2435 12.1366 16.3029 12.0772 16.3029C9.70156 17.1344 7.74165 18.2925 6.37565 19.6882C6.31626 19.7476 6.19748 19.7773 6.10839 19.7179C6.0193 19.6585 5.98961 19.5694 6.0193 19.4803C6.52413 17.9362 7.29621 16.5108 8.27617 15.2042C8.36526 15.1151 8.39495 14.9963 8.36526 14.8478C8.33556 14.729 8.27617 14.6102 8.18708 14.5509C8.098 14.4915 8.00891 14.4618 7.91982 14.4618C7.89013 14.4618 7.89013 14.4618 7.86043 14.4618C7.74165 14.4915 7.62287 14.5509 7.56347 14.6399C5.45509 17.4313 4.35635 20.7275 4.35635 24.2019C4.35635 32.9027 11.4536 40 20.1544 40C28.8552 40 35.9525 32.9027 35.9525 24.2019C35.9525 20.6385 34.7944 17.2532 32.5969 14.4618C32.4187 14.2539 32.1218 14.2242 31.9139 14.3727ZM30.5776 4.51373C30.5776 3.20713 31.6466 2.13808 32.9532 2.13808C34.2598 2.13808 35.3289 3.20713 35.3289 4.51373C35.3289 5.82034 34.2598 6.88938 32.9532 6.88938C31.6466 6.88938 30.5776 5.82034 30.5776 4.51373ZM4.92056 4.51373C4.92056 3.20713 5.98961 2.13808 7.29621 2.13808C8.60282 2.13808 9.67186 3.20713 9.67186 4.51373C9.67186 5.82034 8.60282 6.88938 7.29621 6.88938C5.98961 6.88938 4.92056 5.82034 4.92056 4.51373ZM27.2517 16.9562C27.3111 16.9859 27.3705 17.0156 27.4002 17.1047C27.9941 19.0646 28.3207 21.2324 28.3801 23.5486C28.3801 23.608 28.3504 23.6674 28.3207 23.6971C28.291 23.7268 28.2316 23.7565 28.1722 23.7565H23.9258C23.8367 23.7565 23.7476 23.6971 23.7179 23.5783C23.4506 22.0935 22.2628 20.9057 20.778 20.6385C20.6889 20.6088 20.5999 20.5494 20.5999 20.4306V16.1841C20.5999 16.1247 20.6295 16.0653 20.6592 16.0356C20.6889 16.0059 20.7483 15.9762 20.8077 15.9762C23.124 16.0356 25.2918 16.3623 27.2517 16.9562ZM28.3801 24.8849C28.3207 27.1715 27.9941 29.3393 27.4002 31.3289C27.3705 31.3883 27.3408 31.4477 27.2517 31.4774C25.2918 32.0713 23.124 32.3979 20.8077 32.4573C20.7483 32.4573 20.6889 32.4276 20.6592 32.3979C20.6295 32.3682 20.5999 32.3088 20.5999 32.2494V28.003C20.5999 27.9139 20.6592 27.8248 20.778 27.7951C22.2628 27.5278 23.4506 26.34 23.7179 24.8552C23.7476 24.7661 23.8367 24.6771 23.9258 24.6771H28.1722C28.2316 24.6771 28.291 24.7068 28.3207 24.7365C28.3504 24.7661 28.3801 24.8255 28.3801 24.8849ZM20.6889 9.44321C20.7483 9.41351 20.8077 9.38382 20.8671 9.38382C23.0349 9.71047 25.0245 11.5516 26.4499 14.5509C26.4499 14.5509 26.4499 14.5806 26.4796 14.6102L26.5093 14.6399C26.5093 14.6399 26.5093 14.6696 26.539 14.6696C26.6578 14.9369 26.7765 15.2339 26.8953 15.5011C26.925 15.5605 26.925 15.6496 26.8656 15.709C26.8359 15.7684 26.7765 15.7684 26.7172 15.7684C26.6875 15.7684 26.6875 15.7684 26.6578 15.7684C24.876 15.3229 22.9161 15.0557 20.8671 14.9963C20.7483 14.9963 20.6592 14.9072 20.6592 14.7884V9.62138C20.5999 9.56199 20.6295 9.5026 20.6889 9.44321ZM17.7491 3.32591C17.7491 2.0193 18.8181 0.95026 20.1247 0.95026C21.4313 0.95026 22.5004 2.0193 22.5004 3.32591C22.5004 4.63252 21.4313 5.70156 20.1247 5.70156C18.8181 5.70156 17.7491 4.63252 17.7491 3.32591ZM13.4432 15.5605C13.562 15.2932 13.6808 14.9963 13.7996 14.6993C13.7996 14.6993 13.7996 14.6696 13.8293 14.6696L13.8589 14.6399C13.8589 14.6399 13.8589 14.6102 13.8886 14.5805C15.2843 11.5813 17.2739 9.74016 19.4417 9.41351C19.5011 9.41351 19.5605 9.41351 19.6199 9.4729C19.6793 9.5026 19.6793 9.56199 19.6793 9.62138V14.8478C19.6793 14.9666 19.5902 15.0557 19.4714 15.0557C17.4521 15.1151 15.4922 15.3823 13.6808 15.8575C13.6511 15.8575 13.6511 15.8575 13.6214 15.8575C13.562 15.8575 13.5026 15.8278 13.4729 15.7981C13.4135 15.709 13.4135 15.6199 13.4432 15.5605ZM12.9087 17.1047C12.9384 17.0453 12.9681 16.9859 13.0572 16.9562C15.0171 16.3623 17.1849 16.0356 19.5011 15.9762C19.5605 15.9762 19.6199 16.0059 19.6496 16.0356C19.6793 16.0653 19.709 16.1247 19.709 16.1841V20.4306C19.709 20.5197 19.6496 20.6088 19.5308 20.6385C18.046 20.9057 16.8582 22.0935 16.5909 23.5783C16.5612 23.6674 16.4722 23.7565 16.3831 23.7565H12.1069C12.0475 23.7565 11.9881 23.7268 11.9584 23.6971C11.9287 23.6674 11.899 23.608 11.899 23.5486C11.9584 21.2324 12.2851 19.0646 12.9087 17.1047ZM11.4536 17.5204C11.513 17.4907 11.6021 17.4907 11.6615 17.5501C11.7209 17.6095 11.7506 17.6689 11.7209 17.758C11.2754 19.5397 11.0082 21.4996 10.9488 23.5486C10.9488 23.6674 10.8597 23.7565 10.7409 23.7565H5.54417C5.48478 23.7565 5.42539 23.7268 5.39569 23.6971C5.366 23.6377 5.3363 23.5783 5.3363 23.5189C5.72235 21.1136 7.94952 18.9161 11.4536 17.5204ZM5.39569 24.7365C5.42539 24.6771 5.48478 24.6771 5.54417 24.6771H10.7706C10.8894 24.6771 10.9785 24.7661 10.9785 24.8849C11.0379 26.9339 11.2754 28.8641 11.7506 30.6756C11.7803 30.7647 11.7506 30.8241 11.6912 30.8834C11.6615 30.9131 11.6021 30.9428 11.5427 30.9428C11.513 30.9428 11.4833 30.9428 11.4536 30.9131C7.94952 29.4878 5.72235 27.2903 5.3363 24.9146C5.3363 24.8552 5.366 24.7958 5.39569 24.7365ZM15.5516 38.1589C15.5219 38.2183 15.4328 38.248 15.3734 38.248C15.3437 38.248 15.314 38.248 15.314 38.248C10.9785 36.7632 7.53378 33.2591 6.049 28.9235C6.0193 28.8344 6.049 28.7454 6.13808 28.686C6.22717 28.6266 6.31626 28.6563 6.40535 28.7157C7.74165 30.1114 9.70156 31.2695 12.0772 32.101C12.1366 32.1307 12.196 32.1604 12.196 32.2197C12.9978 34.5954 14.1559 36.5553 15.5219 37.9213C15.611 37.951 15.611 38.0698 15.5516 38.1589ZM19.6793 38.7825C19.6793 38.8419 19.6496 38.9013 19.6199 38.931C19.5902 38.9607 19.5308 38.9904 19.4714 38.9904H19.4417C17.0364 38.634 14.8389 36.3771 13.4432 32.8434C13.4135 32.784 13.4432 32.6949 13.4729 32.6355C13.5323 32.5761 13.5917 32.5464 13.6808 32.5761C15.4922 33.0512 17.4521 33.3185 19.4714 33.3779C19.5902 33.3779 19.6793 33.467 19.6793 33.5857V38.7825ZM19.6793 32.2197C19.6793 32.2791 19.6496 32.3385 19.6199 32.3682C19.5902 32.3979 19.5308 32.4276 19.4714 32.4276C17.1849 32.3682 15.0171 32.0416 13.0275 31.4477C12.9681 31.418 12.9087 31.3883 12.879 31.2992C12.2851 29.3393 11.9584 27.1715 11.899 24.8552C11.899 24.7958 11.9287 24.7365 11.9584 24.7068C11.9881 24.6771 12.0475 24.6474 12.1069 24.6474H16.3534C16.4425 24.6474 16.5316 24.7068 16.5612 24.8255C16.8285 26.3103 18.0163 27.4981 19.5011 27.7654C19.5902 27.7951 19.6793 27.8545 19.6793 27.9733V32.2197ZM17.4224 24.2019C17.4224 22.6875 18.6399 21.4699 20.1544 21.4699C21.6689 21.4699 22.8864 22.6875 22.8864 24.2019C22.8864 25.7164 21.6689 26.9339 20.1544 26.9339C18.6399 26.9339 17.4224 25.7164 17.4224 24.2019ZM20.8374 38.9904H20.8077C20.7483 38.9904 20.7186 38.9607 20.6592 38.931C20.5999 38.9013 20.5999 38.8419 20.5999 38.7825V33.5561C20.5999 33.4373 20.6889 33.3482 20.8077 33.3482C22.8567 33.2888 24.7869 33.0512 26.5984 32.5761C26.6875 32.5464 26.7468 32.5761 26.8062 32.6355C26.8656 32.6949 26.8656 32.784 26.8359 32.8434C25.4105 36.4068 23.2428 38.634 20.8374 38.9904ZM34.1708 29.0423C32.686 33.3185 29.2413 36.7632 24.9651 38.248C24.9354 38.248 24.9057 38.248 24.9057 38.248C24.8463 38.248 24.7572 38.2183 24.7275 38.1589C24.6682 38.0698 24.6978 37.9807 24.7572 37.8916C26.1232 36.5553 27.2814 34.5954 28.0831 32.2494C28.1128 32.1901 28.1425 32.1307 28.2019 32.1307C30.5479 31.3289 32.5078 30.2004 33.8441 28.8048C33.9035 28.7454 34.0223 28.7157 34.1114 28.7751C34.1708 28.8344 34.2004 28.9235 34.1708 29.0423ZM28.8255 30.8834C28.7958 30.8834 28.7661 30.9131 28.7365 30.9131C28.6771 30.9131 28.6474 30.8834 28.588 30.8538C28.5286 30.7944 28.4989 30.735 28.5286 30.6459C28.974 28.8641 29.2413 26.9042 29.3007 24.8552C29.3007 24.7365 29.3898 24.6474 29.5085 24.6474H34.735C34.7944 24.6474 34.8538 24.6771 34.8834 24.7068C34.9131 24.7661 34.9428 24.8255 34.9428 24.8849C34.5865 27.2903 32.3593 29.4878 28.8255 30.8834ZM34.8834 23.6674C34.8538 23.7268 34.7944 23.7268 34.735 23.7268H29.5085C29.3898 23.7268 29.3007 23.6377 29.3007 23.5189C29.2413 21.4699 29.0037 19.5397 28.5286 17.7283C28.4989 17.6392 28.5286 17.5798 28.588 17.5204C28.6474 17.461 28.7365 17.461 28.7958 17.4907C32.3296 18.8864 34.5568 21.0839 34.9131 23.4892C34.9428 23.5486 34.9428 23.608 34.8834 23.6674Z" fill="url(#paint0_linear_1339_1401)"/>
</g>
<defs>
<linearGradient id="paint0_linear_1339_1401" x1="3.79204" y1="19.9963" x2="36.4933" y2="19.9963" gradientUnits="userSpaceOnUse">
<stop stop-color="#FABE3E"/>
<stop offset="0.3618" stop-color="#F63966"/>
<stop offset="1" stop-color="#007AE8"/>
</linearGradient>
<clipPath id="clip0_1339_1401">
<rect width="32.2791" height="40" fill="white" transform="translate(4)"/>
</clipPath>
</defs>
</svg>
