<svg width="62" height="62" viewBox="0 0 62 62" fill="none" xmlns="http://www.w3.org/2000/svg">
<path d="M51.9025 12.8146C51.9025 12.0922 52.4992 11.4954 53.2216 11.4954H55.2475C55.8756 11.4954 56.3939 11.9195 56.5352 12.5005H57.9486C57.7915 11.15 56.6451 10.0978 55.2475 10.0978C55.0747 10.0978 54.9334 9.95644 54.9334 9.7837V8.08765H53.5514V9.7994C53.5514 9.97215 53.4101 10.1135 53.2373 10.1135C51.7454 10.1135 50.5205 11.3384 50.5205 12.8303C50.5205 14.3222 51.7454 15.5471 53.2373 15.5471H55.2632C56.0013 15.5471 56.5823 16.1439 56.5823 16.8663C56.5823 17.5887 55.9856 18.1854 55.2632 18.1854H53.2373C52.6092 18.1854 52.0909 17.7614 51.9496 17.1804H50.5362C50.6932 18.5309 51.8397 19.5831 53.2373 19.5831C53.4101 19.5831 53.5514 19.7244 53.5514 19.8972V21.6089H54.9491V19.8972C54.9491 19.7244 55.0904 19.5831 55.2632 19.5831C56.7551 19.5831 57.98 18.3582 57.98 16.8663C57.98 15.3744 56.7551 14.1494 55.2632 14.1494H53.2373C52.4992 14.1494 51.9025 13.5527 51.9025 12.8146Z" fill="url(#paint0_linear_866_723)"/>
<path d="M59.2989 0H28.9899C27.498 0 26.273 1.22492 26.273 2.71682V3.72188C26.273 3.89463 26.1317 4.03597 25.959 4.03597H2.71682C1.22492 4.03597 0 5.26089 0 6.75279V55.2472C0 56.7391 1.22492 57.964 2.71682 57.964H38.6636C38.7579 57.964 38.8521 58.0111 38.8992 58.074C38.9463 58.1368 38.9777 58.2467 38.962 58.3409L38.2239 62H56.0795L53.9909 51.5253C53.9752 51.4311 53.9909 51.3369 54.0537 51.2741L56.4721 48.2432C57.4301 47.0497 57.9483 45.542 57.9483 44.0187V33.5755C57.9483 32.3192 57.1003 31.2356 55.8911 30.9372L52.1221 29.9949L50.0962 29.4924L48.0704 28.9899L46.0446 28.4873C45.9032 28.4559 45.809 28.3303 45.809 28.189V25.9433C45.809 25.7705 45.9504 25.6292 46.1231 25.6292H59.2518C60.7437 25.6292 61.9686 24.4043 61.9686 22.9124V2.71682C62 1.22492 60.7908 0 59.2989 0ZM39.0719 56.5821H2.71682C1.99443 56.5821 1.39767 55.9853 1.39767 55.2629V6.75279C1.39767 6.0304 1.99443 5.43364 2.71682 5.43364H25.959C26.1317 5.43364 26.273 5.57497 26.273 5.74772V22.9281C26.273 24.42 27.498 25.6449 28.9899 25.6449H40.1084C40.2812 25.6449 40.4225 25.7862 40.4225 25.959V32.2563C40.4225 32.382 40.3597 32.4919 40.2497 32.539C40.2026 32.5547 40.1555 32.5704 40.1084 32.5704C40.0299 32.5704 39.9671 32.539 39.9043 32.4919C38.962 31.7224 37.847 31.3141 36.6849 31.3141C35.3972 31.3141 34.3607 32.3663 34.3607 33.6383C34.3607 33.9995 34.4392 34.3607 34.612 34.6748L35.8212 37.0932C36.1981 37.8313 36.3865 38.6636 36.3865 39.4959V44.0187C36.3865 45.542 36.9048 47.0497 37.8627 48.2432L40.2812 51.2741C40.344 51.3526 40.3597 51.4468 40.344 51.5253L39.386 56.3151C39.3389 56.4721 39.2133 56.5821 39.0719 56.5821ZM54.3207 60.2411C54.3364 60.3354 54.3207 60.4296 54.2579 60.5081C54.195 60.5866 54.1165 60.618 54.0223 60.618H40.3283C40.234 60.618 40.1398 60.5709 40.0927 60.5081C40.0456 60.4453 40.0142 60.3354 40.0299 60.2411L41.6474 52.1535C41.6788 52.0122 41.8045 51.9022 41.9615 51.9022H52.4362C52.5932 51.9022 52.7188 52.0122 52.7503 52.1535L54.3207 60.2411ZM45.9661 30.0263C46.0289 29.9792 46.0917 29.9635 46.1545 29.9635C46.1859 29.9635 46.2016 29.9635 46.233 29.9792L48.2589 30.4818C48.4002 30.5132 48.4944 30.6388 48.4944 30.7801V40.7837H49.8921V31.2827C49.8921 31.1885 49.9392 31.0942 50.0177 31.0314C50.0805 30.9843 50.1434 30.9686 50.2062 30.9686C50.2376 30.9686 50.2533 30.9686 50.2847 30.9843L52.3105 31.4868C52.4519 31.5182 52.5461 31.6439 52.5461 31.7852V40.7837H53.9438V32.2877C53.9438 32.1935 53.9909 32.0993 54.0694 32.0365C54.1322 31.9894 54.195 31.9737 54.2579 31.9737C54.2893 31.9737 54.305 31.9737 54.3364 31.9894L55.5927 32.3034C56.1895 32.4448 56.5978 32.9787 56.5978 33.5912V44.0345C56.5978 45.2437 56.1738 46.4372 55.42 47.3794L53.0172 50.3946C52.9544 50.4732 52.8602 50.5203 52.766 50.5203H41.616C41.5218 50.5203 41.4276 50.4732 41.3647 50.3946L38.962 47.3794C38.2082 46.4372 37.7842 45.2437 37.7842 44.0345V39.5117C37.7842 38.4752 37.5329 37.423 37.0775 36.4965L35.8683 34.078C35.8055 33.9524 35.7741 33.811 35.7741 33.654C35.7741 33.1358 36.1981 32.7118 36.7163 32.7118C38.7736 32.7118 40.4539 34.3921 40.4539 36.4493V38.0826V40.7994H41.8516V38.0826V36.4336V20.8865C41.8516 20.1641 42.4483 19.5674 43.1707 19.5674C43.8931 19.5674 44.4899 20.1641 44.4899 20.8865V27.6707V40.768H45.8875V30.2462C45.8404 30.1834 45.8875 30.0892 45.9661 30.0263ZM40.2812 20.2112H40.0927C39.92 20.2112 39.7786 20.0699 39.7786 19.8972V13.4428C39.7786 13.3328 39.8414 13.2386 39.92 13.1758C39.9671 13.1444 40.0299 13.1287 40.0927 13.1287C40.1398 13.1287 40.1869 13.1444 40.234 13.1601L42.2599 14.1651C42.3698 14.2123 42.4326 14.3222 42.4326 14.4478V18.0598C42.4326 18.1854 42.3541 18.311 42.2285 18.3582C41.459 18.6251 40.8622 19.2376 40.5795 20.0071C40.5324 20.117 40.4225 20.2112 40.2812 20.2112ZM45.6834 19.9914C45.4164 19.2219 44.8039 18.6251 44.0344 18.3425C43.9088 18.2953 43.8303 18.1854 43.8303 18.0441V14.1809C43.8303 14.1023 43.8617 14.0395 43.8931 13.9924L45.9189 11.464C45.9818 11.3855 46.076 11.3384 46.1702 11.3384C46.2016 11.3384 46.233 11.3384 46.2801 11.3541C46.4058 11.4012 46.4843 11.5111 46.4843 11.6525V19.8815C46.4843 20.0542 46.343 20.1955 46.1702 20.1955H45.9818C45.8404 20.2112 45.7148 20.117 45.6834 19.9914ZM60.618 22.9281C60.618 23.6505 60.0213 24.2472 59.2989 24.2472H46.1702C45.9975 24.2472 45.8561 24.1059 45.8561 23.9331V21.9073C45.8561 21.7346 45.9975 21.5932 46.1702 21.5932H49.8921V20.1955H48.1803C48.0076 20.1955 47.8663 20.0542 47.8663 19.8815V6.7999L43.0922 12.7675C43.0294 12.846 42.9352 12.8931 42.8409 12.8931C42.7938 12.8931 42.7467 12.8774 42.6996 12.8617L38.9463 10.9772L34.8475 15.076C34.7847 15.1388 34.7062 15.1702 34.6277 15.1702H32.0208C31.848 15.1702 31.7067 15.0289 31.7067 14.8561V4.03597H30.309V21.5932H40.0927C40.2654 21.5932 40.4068 21.7346 40.4068 21.9073V23.9331C40.4068 24.1059 40.2654 24.2472 40.0927 24.2472H28.9742C28.2361 24.2472 27.655 23.6505 27.655 22.9281V2.71682C27.655 1.99443 28.2518 1.39767 28.9742 1.39767H59.2832C60.0056 1.39767 60.6023 1.99443 60.6023 2.71682V22.9281H60.618ZM38.3967 14.2437V19.8815C38.3967 20.0542 38.2553 20.1955 38.0826 20.1955H36.0567C35.884 20.1955 35.7427 20.0542 35.7427 19.8815V16.2538C35.7427 16.1753 35.7741 16.0968 35.8369 16.0339L37.847 14.0238C37.9098 13.961 37.9883 13.9296 38.0669 13.9296C38.114 13.9296 38.1454 13.9296 38.1925 13.961C38.3181 14.0081 38.3967 14.118 38.3967 14.2437ZM34.345 16.8663V19.8972C34.345 20.0699 34.2036 20.2112 34.0309 20.2112H32.0051C31.8323 20.2112 31.691 20.0699 31.691 19.8972V16.8663C31.691 16.6935 31.8323 16.5522 32.0051 16.5522H34.0309C34.2036 16.5522 34.345 16.6935 34.345 16.8663Z" fill="url(#paint1_linear_866_723)"/>
<path d="M23.6192 12.1235H4.03613V13.5212H23.6192V12.1235Z" fill="url(#paint2_linear_866_723)"/>
<path d="M23.6187 16.1597H20.2109V17.5573H23.6187V16.1597Z" fill="url(#paint3_linear_866_723)"/>
<path d="M17.5574 16.1597H4.03613V17.5573H17.5574V16.1597Z" fill="url(#paint4_linear_866_723)"/>
<path d="M4.03613 45.8405H23.6192V24.2473H4.03613V45.8405ZM22.2215 44.1445C22.2215 44.3172 22.0802 44.4586 21.9075 44.4586H17.8715C17.6987 44.4586 17.5574 44.3172 17.5574 44.1445V32.0209C17.5574 31.8481 17.6987 31.7068 17.8715 31.7068H21.9075C22.0802 31.7068 22.2215 31.8481 22.2215 32.0209V44.1445ZM11.4956 25.9591C11.4956 25.7863 11.6369 25.645 11.8097 25.645H21.9075C22.0802 25.645 22.2215 25.7863 22.2215 25.9591V29.995C22.2215 30.1678 22.0802 30.3091 21.9075 30.3091H11.8097C11.6369 30.3091 11.4956 30.1678 11.4956 29.995V25.9591ZM11.4956 32.0209C11.4956 31.8481 11.6369 31.7068 11.8097 31.7068H15.8457C16.0184 31.7068 16.1597 31.8481 16.1597 32.0209V44.1445C16.1597 44.3172 16.0184 44.4586 15.8457 44.4586H11.8097C11.6369 44.4586 11.4956 44.3172 11.4956 44.1445V32.0209ZM5.4338 25.9591C5.4338 25.7863 5.57514 25.645 5.74789 25.645H9.78385C9.9566 25.645 10.0979 25.7863 10.0979 25.9591V29.995C10.0979 30.1678 9.9566 30.3091 9.78385 30.3091H5.74789C5.57514 30.3091 5.4338 30.1678 5.4338 29.995V25.9591ZM5.4338 32.0209C5.4338 31.8481 5.57514 31.7068 5.74789 31.7068H9.78385C9.9566 31.7068 10.0979 31.8481 10.0979 32.0209V44.1445C10.0979 44.3172 9.9566 44.4586 9.78385 44.4586H5.74789C5.57514 44.4586 5.4338 44.3172 5.4338 44.1445V32.0209Z" fill="url(#paint5_linear_866_723)"/>
<path d="M5.4338 48.4944H4.03613V49.8921H5.4338V48.4944Z" fill="url(#paint6_linear_866_723)"/>
<path d="M23.6193 48.4944H8.08789V49.8921H23.6193V48.4944Z" fill="url(#paint7_linear_866_723)"/>
<path d="M33.7329 48.4944H26.2734V49.8921H33.7329V48.4944Z" fill="url(#paint8_linear_866_723)"/>
<path d="M27.6711 44.4585H26.2734V45.8562H27.6711V44.4585Z" fill="url(#paint9_linear_866_723)"/>
<path d="M33.7164 44.4585H30.3086V45.8562H33.7164V44.4585Z" fill="url(#paint10_linear_866_723)"/>
<path d="M33.7329 40.4067H26.2734V41.8044H33.7329V40.4067Z" fill="url(#paint11_linear_866_723)"/>
<path d="M33.7329 36.3708H26.2734V37.7685H33.7329V36.3708Z" fill="url(#paint12_linear_866_723)"/>
<path d="M26.2734 33.7169H33.7172V33.6541V32.335H26.2734V33.7169Z" fill="url(#paint13_linear_866_723)"/>
<defs>
<linearGradient id="paint0_linear_866_723" x1="19.6033" y1="66.2364" x2="56.9162" y2="10.8688" gradientUnits="userSpaceOnUse">
<stop stop-color="#FABE3E"/>
<stop offset="0.3618" stop-color="#F63966"/>
<stop offset="1" stop-color="#007AE8"/>
</linearGradient>
<linearGradient id="paint1_linear_866_723" x1="10.4575" y1="60.0731" x2="47.7704" y2="4.70554" gradientUnits="userSpaceOnUse">
<stop stop-color="#FABE3E"/>
<stop offset="0.3618" stop-color="#F63966"/>
<stop offset="1" stop-color="#007AE8"/>
</linearGradient>
<linearGradient id="paint2_linear_866_723" x1="-9.12266" y1="46.8775" x2="28.1903" y2="-8.48999" gradientUnits="userSpaceOnUse">
<stop stop-color="#FABE3E"/>
<stop offset="0.3618" stop-color="#F63966"/>
<stop offset="1" stop-color="#007AE8"/>
</linearGradient>
<linearGradient id="paint3_linear_866_723" x1="-1.69248" y1="51.8853" x2="35.6204" y2="-3.4822" gradientUnits="userSpaceOnUse">
<stop stop-color="#FABE3E"/>
<stop offset="0.3618" stop-color="#F63966"/>
<stop offset="1" stop-color="#007AE8"/>
</linearGradient>
<linearGradient id="paint4_linear_866_723" x1="-9.33412" y1="46.7352" x2="27.9788" y2="-8.63233" gradientUnits="userSpaceOnUse">
<stop stop-color="#FABE3E"/>
<stop offset="0.3618" stop-color="#F63966"/>
<stop offset="1" stop-color="#007AE8"/>
</linearGradient>
<linearGradient id="paint5_linear_866_723" x1="1.17755" y1="53.8192" x2="38.4905" y2="-1.54838" gradientUnits="userSpaceOnUse">
<stop stop-color="#FABE3E"/>
<stop offset="0.3618" stop-color="#F63966"/>
<stop offset="1" stop-color="#007AE8"/>
</linearGradient>
<linearGradient id="paint6_linear_866_723" x1="1.47962" y1="54.0226" x2="38.7927" y2="-1.34498" gradientUnits="userSpaceOnUse">
<stop stop-color="#FABE3E"/>
<stop offset="0.3618" stop-color="#F63966"/>
<stop offset="1" stop-color="#007AE8"/>
</linearGradient>
<linearGradient id="paint7_linear_866_723" x1="9.12182" y1="59.1727" x2="46.4349" y2="3.80514" gradientUnits="userSpaceOnUse">
<stop stop-color="#FABE3E"/>
<stop offset="0.3618" stop-color="#F63966"/>
<stop offset="1" stop-color="#007AE8"/>
</linearGradient>
<linearGradient id="paint8_linear_866_723" x1="18.8483" y1="65.7274" x2="56.1613" y2="10.3598" gradientUnits="userSpaceOnUse">
<stop stop-color="#FABE3E"/>
<stop offset="0.3618" stop-color="#F63966"/>
<stop offset="1" stop-color="#007AE8"/>
</linearGradient>
<linearGradient id="paint9_linear_866_723" x1="14.8913" y1="63.0608" x2="52.2042" y2="7.6933" gradientUnits="userSpaceOnUse">
<stop stop-color="#FABE3E"/>
<stop offset="0.3618" stop-color="#F63966"/>
<stop offset="1" stop-color="#007AE8"/>
</linearGradient>
<linearGradient id="paint10_linear_866_723" x1="18.3642" y1="65.4018" x2="55.677" y2="10.0342" gradientUnits="userSpaceOnUse">
<stop stop-color="#FABE3E"/>
<stop offset="0.3618" stop-color="#F63966"/>
<stop offset="1" stop-color="#007AE8"/>
</linearGradient>
<linearGradient id="paint11_linear_866_723" x1="15.1027" y1="63.2033" x2="52.4158" y2="7.8357" gradientUnits="userSpaceOnUse">
<stop stop-color="#FABE3E"/>
<stop offset="0.3618" stop-color="#F63966"/>
<stop offset="1" stop-color="#007AE8"/>
</linearGradient>
<linearGradient id="paint12_linear_866_723" x1="13.2299" y1="61.9412" x2="50.5428" y2="6.57367" gradientUnits="userSpaceOnUse">
<stop stop-color="#FABE3E"/>
<stop offset="0.3618" stop-color="#F63966"/>
<stop offset="1" stop-color="#007AE8"/>
</linearGradient>
<linearGradient id="paint13_linear_866_723" x1="11.3572" y1="60.6792" x2="48.6701" y2="5.3117" gradientUnits="userSpaceOnUse">
<stop stop-color="#FABE3E"/>
<stop offset="0.3618" stop-color="#F63966"/>
<stop offset="1" stop-color="#007AE8"/>
</linearGradient>
</defs>
</svg>
