<svg width="39" height="33" viewBox="0 0 39 33" fill="none" xmlns="http://www.w3.org/2000/svg">
<g clip-path="url(#clip0_1284_2105)">
<path d="M2.31908 32.427L9.08344 32.427C10.176 32.427 11.0593 31.5437 11.0593 30.4512L11.0593 29.5214C11.0593 29.3121 11.1987 29.1494 11.3847 29.0797C12.0356 28.8705 12.547 28.3591 12.7562 27.7082C12.8259 27.5223 12.9886 27.3828 13.1978 27.3828L25.2621 27.3363C25.4713 27.3363 25.634 27.4758 25.7038 27.6617C25.913 28.3126 26.4244 28.824 27.0752 29.0332C27.2612 29.1029 27.4006 29.2657 27.4006 29.4749L27.4006 30.4047C27.4006 31.4972 28.284 32.3805 29.3765 32.3805L36.1176 32.3805C37.2101 32.3805 38.1167 31.4972 38.1167 30.4047L38.1167 23.6403C38.1167 22.5478 37.2334 21.6645 36.1408 21.6645L35.211 21.6645C35.0018 21.6645 34.8391 21.525 34.7694 21.339C34.5602 20.6882 34.0488 20.1768 33.3979 19.9676C33.2119 19.8978 33.0725 19.7351 33.0725 19.5259L33.0725 16.3646C33.0725 14.9931 31.9567 13.8773 30.5852 13.8773L23.3095 13.8773C23.1003 13.8773 22.9376 13.7379 22.8678 13.5519C22.6586 12.901 22.1472 12.3896 21.4964 12.1804C21.3104 12.1107 21.1709 11.948 21.1709 11.7388L21.1709 10.7392C21.1709 9.66996 20.3109 8.80989 19.2416 8.80989L18.1956 8.80989C17.9863 8.80989 17.8004 8.67041 17.7539 8.48445C17.5679 7.85683 17.103 7.34544 16.4987 7.11298C16.3824 7.06649 16.2894 6.97351 16.243 6.85729C16.1965 6.74106 16.1965 6.60159 16.2662 6.48536C16.5684 5.85774 17.196 5.48582 17.8934 5.48582L26.0989 5.48582C26.3081 5.48582 26.4941 5.62529 26.5638 5.85775C26.7265 6.57835 27.2612 7.18272 27.9818 7.39193C28.1677 7.46167 28.3072 7.62438 28.3072 7.83359L28.3072 8.76339C28.3072 9.85592 29.1905 10.7392 30.2831 10.7392L37.0242 10.7392C38.1167 10.7392 39 9.85592 39 8.7634L39 1.99905C39 0.906521 38.1167 0.0232047 37.0242 0.0232046L30.2598 0.023204C29.1673 0.0232039 28.284 0.90652 28.284 1.99905L28.284 2.92885C28.284 3.13806 28.1445 3.30077 27.9585 3.37051C27.3774 3.55647 26.8893 3.99813 26.6568 4.55601C26.5871 4.71873 26.4244 4.83496 26.2384 4.83496L17.8469 4.83496C16.7079 4.83496 15.7548 5.60205 15.4759 6.69457C15.4294 6.85729 15.3132 6.99676 15.1504 7.04325C14.4531 7.22921 13.8952 7.7871 13.7092 8.48445C13.6627 8.69366 13.4768 8.80988 13.2676 8.80988L12.3843 8.80988C11.315 8.80988 10.4549 9.66996 10.4549 10.7392L10.4549 12.7616C10.4549 12.9243 10.5944 13.0638 10.7571 13.0638C10.9198 13.0638 11.0593 12.9243 11.0593 12.7616L11.0593 10.7392C11.0593 10.0186 11.6404 9.4375 12.361 9.4375L13.2908 9.4375C13.5 9.4375 13.6627 9.55373 13.7325 9.73969C14.1044 10.7857 14.9877 11.1576 15.7083 11.1576C16.4289 11.1576 17.3355 10.7857 17.6842 9.73969C17.7539 9.55373 17.9166 9.4375 18.1258 9.4375L19.2183 9.4375C19.9389 9.4375 20.5201 10.0186 20.5201 10.7392L20.5201 11.7388C20.5201 11.948 20.3806 12.1107 20.1946 12.1804C20.0552 12.2269 19.9389 12.2734 19.8227 12.3432C19.8227 12.3432 19.8227 12.3432 19.7995 12.3432C19.5438 12.4826 18.7302 13.0405 18.7302 14.1795C18.7302 15.0861 19.3113 15.8997 20.1946 16.1786C20.3806 16.2483 20.5201 16.4111 20.5201 16.6203L20.5201 17.5966C20.5201 18.3172 19.9389 18.8983 19.2183 18.8983L12.361 18.8983C11.6404 18.8983 11.0593 18.3172 11.0593 17.5966L11.0593 15.5742C11.0593 15.4115 10.9198 15.272 10.7571 15.272C10.5944 15.272 10.4549 15.4115 10.4549 15.5742L10.4549 17.5966C10.4549 18.6658 11.315 19.5259 12.3843 19.5259L19.2183 19.5259C20.2876 19.5259 21.1477 18.6658 21.1477 17.5966L21.1477 16.6203C21.1477 16.4111 21.2872 16.2483 21.4731 16.1786C22.124 15.9694 22.6354 15.458 22.8446 14.8071C22.9143 14.6212 23.077 14.4817 23.2863 14.4817L30.562 14.4817C31.5848 14.4817 32.4449 15.3185 32.4449 16.3646L32.4449 19.5259C32.4449 19.7351 32.3054 19.8978 32.1194 19.9676C31.4686 20.1768 30.9572 20.6882 30.748 21.339C30.6782 21.525 30.5155 21.6645 30.3063 21.6645L29.3765 21.6645C28.284 21.6645 27.4006 22.5478 27.4006 23.6403L27.4006 24.5701C27.4006 24.7793 27.2612 24.942 27.0752 25.0118C26.4244 25.221 25.913 25.7324 25.7038 26.3833C25.634 26.5692 25.4713 26.7087 25.2621 26.7087L13.1978 26.7552C12.9886 26.7552 12.8259 26.6157 12.7562 26.4297C12.547 25.7789 12.0356 25.2675 11.3847 25.0583C11.1987 24.9885 11.0593 24.8258 11.0593 24.6166L11.0593 23.6868C11.0593 22.5943 10.176 21.711 9.08344 21.711L2.31909 21.711C1.22656 21.711 0.343243 22.5943 0.343243 23.6868L0.343243 30.4512C0.32 31.5437 1.22656 32.427 2.31908 32.427ZM28.8883 1.99905C28.8883 1.2552 29.4927 0.627576 30.2598 0.627576L37.0242 0.627577C37.768 0.627577 38.3956 1.23195 38.3956 1.99905L38.3956 8.7634C38.3956 9.50724 37.7913 10.1349 37.0242 10.1349L30.2598 10.1349C29.516 10.1349 28.8883 9.53048 28.8883 8.76339L28.8883 7.83359C28.8883 7.62438 29.0278 7.46167 29.2138 7.39193C30.2831 7.04325 30.6782 6.13669 30.6782 5.39284C30.6782 4.67224 30.3063 3.74243 29.2138 3.39375C29.0278 3.32402 28.8883 3.1613 28.8883 2.9521L28.8883 1.99905ZM28.5862 3.8819C29.3997 3.8819 30.0738 4.55601 30.0738 5.3696C30.0738 6.18318 29.3997 6.85729 28.5862 6.85729C27.7726 6.85729 27.0985 6.18318 27.0985 5.3696C27.0985 4.55601 27.7726 3.8819 28.5862 3.8819ZM17.196 9.11207C17.103 10.1116 16.3824 10.5533 15.7316 10.5533C14.8482 10.5533 14.3136 9.83267 14.2439 9.11207C14.2439 9.08882 14.2439 9.08883 14.2439 9.06558C14.2439 8.252 14.918 7.60113 15.7316 7.60113C16.5451 7.60113 17.2193 8.252 17.2193 9.06558C17.196 9.06558 17.196 9.08883 17.196 9.11207ZM20.8455 15.6672C20.7758 15.6672 20.706 15.6672 20.6131 15.644C19.8925 15.5277 19.3578 14.9001 19.3578 14.1795C19.3578 13.3659 20.0319 12.6918 20.8455 12.6918C21.6591 12.6918 22.3332 13.3659 22.3332 14.1795C22.3332 14.9931 21.6591 15.6672 20.8455 15.6672ZM32.747 20.479C33.1887 20.479 33.5839 20.6649 33.8628 20.9904C34.1418 21.3158 34.258 21.7575 34.2115 22.1759C34.0953 22.8965 33.4676 23.4311 32.747 23.4311C31.9335 23.4311 31.2594 22.757 31.2594 21.9434C31.2594 21.1531 31.9335 20.479 32.747 20.479ZM28.005 23.6403C28.005 22.8965 28.6094 22.2689 29.3765 22.2689L30.3063 22.2689C30.5155 22.2689 30.6782 22.4083 30.748 22.5943C31.0269 23.4776 31.8405 24.0587 32.747 24.0587C32.8865 24.0587 33.026 24.0355 33.1655 24.0122C33.3747 23.9658 34.3742 23.7101 34.7461 22.5943C34.8159 22.4083 34.9786 22.2689 35.1878 22.2689L36.1176 22.2689C36.8614 22.2689 37.4891 22.8732 37.4891 23.6403L37.4891 30.4047C37.4891 31.1485 36.8847 31.7761 36.1176 31.7761L29.3532 31.7761C28.6094 31.7761 27.9818 31.1718 27.9818 30.4047L27.9818 29.4749C27.9818 29.2657 28.1212 29.1029 28.3072 29.0332C29.2138 28.7543 29.8181 27.8942 29.7717 26.9411L29.7717 26.9179C29.7484 26.5692 29.5857 25.4534 28.3072 25.035C28.1212 24.9653 27.9818 24.8026 27.9818 24.5934L27.9818 23.6403L28.005 23.6403ZM27.7028 25.5464C28.5164 25.5464 29.1905 26.2205 29.1905 27.0341C29.1905 27.8477 28.5164 28.5218 27.7028 28.5218C26.8893 28.5218 26.2151 27.8477 26.2151 27.0341C26.2151 26.2205 26.8893 25.5464 27.7028 25.5464ZM10.7338 25.5929C11.5474 25.5929 12.2215 26.267 12.2215 27.0806C12.2215 27.8942 11.5474 28.5683 10.7338 28.5683C9.92026 28.5683 9.24615 27.8942 9.24615 27.0806C9.24615 26.267 9.92026 25.5929 10.7338 25.5929ZM0.947621 23.6868C0.947621 22.943 1.552 22.3153 2.31909 22.3153L9.08344 22.3153C9.82728 22.3153 10.4549 22.9197 10.4549 23.6868L10.4549 24.6166C10.4549 24.8258 10.3154 24.9885 10.1295 25.0583C9.22291 25.3372 8.61853 26.2205 8.66502 27.1736C8.71151 28.0337 9.29264 28.8007 10.1295 29.0564C10.3154 29.1262 10.4549 29.2889 10.4549 29.4981L10.4549 30.4279C10.4549 31.1718 9.85053 31.7994 9.08344 31.7994L2.31908 31.7994C1.57524 31.7994 0.94762 31.195 0.947621 30.4279L0.947621 23.6868Z" fill="url(#paint0_linear_1284_2105)"/>
</g>
<defs>
<linearGradient id="paint0_linear_1284_2105" x1="39.4649" y1="16.2163" x2="-0.13651" y2="16.2163" gradientUnits="userSpaceOnUse">
<stop stop-color="#FABE3E"/>
<stop offset="0.3618" stop-color="#F63966"/>
<stop offset="1" stop-color="#007AE8"/>
</linearGradient>
<clipPath id="clip0_1284_2105">
<rect width="38.68" height="32.427" fill="white" transform="translate(39 32.427) rotate(-180)"/>
</clipPath>
</defs>
</svg>
