<svg width="40" height="37" viewBox="0 0 40 37" fill="none" xmlns="http://www.w3.org/2000/svg">
<g clip-path="url(#clip0_866_575)">
<path d="M18.0969 31.4534C18.1066 31.4534 18.1163 31.4534 18.1163 31.4534H34.7075C36.2035 31.4534 37.4468 30.346 37.6605 28.9084C38.8553 28.5587 39.7296 27.461 39.7296 26.1594V2.86558C39.7296 1.28223 38.4474 0 36.864 0H2.86558C1.28223 0 0 1.28223 0 2.86558V26.1594C0 27.7427 1.28223 29.0249 2.86558 29.0249H10.015C10.0344 29.0347 10.0538 29.0444 10.0732 29.0444H15.2119C15.2799 29.3649 15.4061 29.6758 15.5616 29.9478V33.0659H13.9296C13.6091 33.0659 13.3468 33.3282 13.3468 33.6487V35.8441H0.58283C0.262274 35.8441 0 36.1063 0 36.4269C0 36.7474 0.262274 37.0097 0.58283 37.0097H39.1565C39.477 37.0097 39.7393 36.7474 39.7393 36.4269C39.7393 36.1063 39.477 35.8441 39.1565 35.8441H26.3828V33.6487C26.3828 33.3282 26.1205 33.0659 25.7999 33.0659H16.7175V32.6385L16.6204 31.0357C16.9798 31.2591 17.3878 31.3951 17.8249 31.4437C17.922 31.4534 18.0095 31.4534 18.0969 31.4534ZM36.456 29.0249C36.2229 29.7632 35.5235 30.2975 34.7075 30.2975H20.4865C20.5059 30.2683 20.535 30.2295 20.5545 30.2003C20.5739 30.1712 20.603 30.1323 20.6225 30.1032C20.6419 30.0837 20.6516 30.0546 20.671 30.0352C20.6808 30.0158 20.6905 29.9963 20.7099 29.9769C20.7196 29.9575 20.7293 29.9478 20.739 29.9283C20.7585 29.8992 20.7682 29.8798 20.7779 29.8506C20.7876 29.8312 20.7973 29.8118 20.807 29.7923C20.8167 29.7729 20.8167 29.7632 20.8265 29.7438C20.8362 29.7243 20.8459 29.6952 20.8556 29.6758C20.8653 29.6466 20.875 29.6272 20.8847 29.5981C20.8945 29.5786 20.9042 29.5592 20.9042 29.5398C20.9139 29.5106 20.9236 29.4815 20.9333 29.4524C20.943 29.4329 20.943 29.4232 20.9527 29.4038C20.9625 29.3844 20.9625 29.3746 20.9722 29.3552C20.9819 29.3358 20.9819 29.3261 20.9916 29.3066C21.0013 29.2775 21.0013 29.2581 21.011 29.2289C21.0207 29.2095 21.0207 29.1901 21.0207 29.1706C21.0207 29.1706 21.0207 29.1707 21.0207 29.1609C21.0305 29.1027 21.0499 29.0541 21.0596 28.9958C21.0596 28.9764 21.0693 28.9569 21.0693 28.9375V28.9278C21.0693 28.9181 21.0693 28.9084 21.0693 28.8987C21.0693 28.8889 21.0693 28.8889 21.0693 28.8792C21.0693 28.8695 21.0693 28.8695 21.0693 28.8598C21.0693 28.8404 21.079 28.821 21.079 28.8015V28.7918C21.079 28.7724 21.079 28.7627 21.079 28.7432C21.079 28.7335 21.079 28.7238 21.079 28.7141C21.079 28.7044 21.079 28.6947 21.079 28.685C21.079 28.6752 21.079 28.6752 21.079 28.6655C21.079 28.6364 21.079 28.6072 21.079 28.5781C21.079 28.5393 21.079 28.4907 21.079 28.4518C21.079 27.7621 20.8459 27.1307 20.4476 26.6159H34.6784C35.4749 26.6159 36.1646 27.1307 36.4075 27.8496C36.4755 28.0341 36.5046 28.2381 36.5046 28.4421C36.5434 28.6655 36.5143 28.8501 36.456 29.0249ZM38.5736 26.1594C38.5736 26.8393 38.1754 27.4222 37.6023 27.7039C37.2623 26.4216 36.0966 25.4794 34.7075 25.4794H34.1247V24.8966C34.1344 24.9063 34.1538 24.9063 34.1636 24.9063H38.5639V26.1594H38.5736ZM15.1342 27.8884H12.4143C12.3754 27.8787 12.3269 27.869 12.2783 27.869H2.86558C1.92334 27.869 1.15595 27.1016 1.15595 26.1594V24.8966H15.1342V27.8884ZM13.2982 7.24652C12.9777 7.24652 12.7154 7.5088 12.7154 7.82935C12.7154 8.14991 12.9777 8.41218 13.2982 8.41218C14.3085 8.41218 15.1342 9.23786 15.1342 10.2481V23.7503H1.15595V2.86558C1.15595 1.92334 1.92334 1.15595 2.86558 1.15595H36.8737C37.816 1.15595 38.5834 1.92334 38.5834 2.86558V23.7406H34.183C34.1636 23.7406 34.1538 23.7406 34.1441 23.7503V10.2384C34.1441 8.58703 32.8036 7.24652 31.1523 7.24652H13.2982ZM25.2268 34.2316V35.8441H14.5125V34.2316H25.2268ZM16.2901 28.3644V10.2384C16.2901 9.5487 16.057 8.9173 15.6587 8.40247H31.1426C32.1528 8.40247 32.9785 9.22814 32.9785 10.2384V25.4794H18.126C17.8055 25.4794 17.5432 25.7417 17.5432 26.0622C17.5432 26.3828 17.8055 26.6451 18.126 26.6451C19.1363 26.6451 19.9619 27.4707 19.9619 28.481C19.9619 28.5101 19.9619 28.5392 19.9619 28.5587C19.9619 28.5878 19.9619 28.6072 19.9522 28.6364C19.9522 28.6461 19.9522 28.6558 19.9522 28.6655C19.9522 28.6947 19.9425 28.7238 19.9425 28.753C19.9425 28.7627 19.9425 28.7724 19.9328 28.7918V28.8015V28.8112C19.9328 28.821 19.9231 28.8404 19.9231 28.8501C19.9134 28.8792 19.9134 28.9084 19.9037 28.9375C19.8939 28.9667 19.8842 28.9958 19.8745 29.0249C19.8648 29.0541 19.8551 29.0832 19.8454 29.1124C19.8357 29.1415 19.8259 29.1707 19.8065 29.1998C19.7968 29.2289 19.7774 29.2581 19.7677 29.2872C19.7579 29.2969 19.7579 29.3164 19.7482 29.3261C19.7385 29.3358 19.7385 29.3552 19.7288 29.3649C19.7288 29.3746 19.7191 29.3746 19.7191 29.3746C19.7094 29.3941 19.6997 29.4038 19.6899 29.4232C19.6802 29.4426 19.6705 29.4524 19.6608 29.4718C19.6608 29.4815 19.6511 29.4815 19.6511 29.4912C19.6414 29.5106 19.6219 29.5301 19.6025 29.5495C19.5831 29.5689 19.5637 29.5981 19.5442 29.6175C19.5248 29.6369 19.5054 29.6661 19.486 29.6855C19.4665 29.7049 19.4471 29.7243 19.4277 29.7535C19.4082 29.7729 19.3888 29.7923 19.3694 29.8118C19.35 29.8312 19.3305 29.8506 19.3014 29.87C19.2528 29.9089 19.2043 29.9478 19.1557 29.9769C19.1363 29.9963 19.1071 30.006 19.078 30.0255C19.0294 30.0546 18.9808 30.0837 18.9226 30.1129C18.8934 30.1226 18.8643 30.142 18.8448 30.1517C18.8157 30.1615 18.7963 30.1712 18.7671 30.1809H18.7574C18.7283 30.1906 18.7088 30.2003 18.6797 30.21C18.6603 30.2197 18.6311 30.2197 18.6117 30.2295C18.602 30.2295 18.5923 30.2392 18.5826 30.2392C18.5631 30.2392 18.5534 30.2489 18.534 30.2489C18.5146 30.2489 18.4951 30.2586 18.4854 30.2586C18.466 30.2683 18.4369 30.2683 18.4174 30.2683C18.398 30.2683 18.3689 30.278 18.3494 30.278C18.33 30.278 18.3106 30.278 18.2912 30.2877C18.2717 30.2877 18.2523 30.2877 18.2329 30.2877C18.2037 30.2877 18.1746 30.2877 18.1454 30.2877C18.0872 30.2877 18.0289 30.2877 17.9609 30.278C17.0186 30.2003 16.2901 29.3552 16.2901 28.3644Z" fill="url(#paint0_linear_866_575)"/>
<path d="M18.9126 30.1227C18.9709 30.1033 19.0195 30.0742 19.068 30.0353C19.0195 30.0644 18.9709 30.0936 18.9126 30.1227ZM19.1457 29.9867C19.1943 29.9576 19.2429 29.9187 19.2914 29.8799C19.2429 29.9187 19.1943 29.9576 19.1457 29.9867Z" fill="url(#paint1_linear_866_575)"/>
<path d="M29.8506 12.6764H19.3597C19.0391 12.6764 18.7769 12.4141 18.7769 12.0936C18.7769 11.773 19.0391 11.5107 19.3597 11.5107H29.8506C30.1712 11.5107 30.4335 11.773 30.4335 12.0936C30.4335 12.4141 30.1712 12.6764 29.8506 12.6764Z" fill="url(#paint2_linear_866_575)"/>
<path d="M29.8506 15.7848H19.3597C19.0391 15.7848 18.7769 15.5225 18.7769 15.202C18.7769 14.8814 19.0391 14.6191 19.3597 14.6191H29.8506C30.1712 14.6191 30.4335 14.8814 30.4335 15.202C30.4335 15.5225 30.1712 15.7848 29.8506 15.7848Z" fill="url(#paint3_linear_866_575)"/>
<path d="M29.8506 18.8932H19.3597C19.0391 18.8932 18.7769 18.6309 18.7769 18.3104C18.7769 17.9898 19.0391 17.7275 19.3597 17.7275H29.8506C30.1712 17.7275 30.4335 17.9898 30.4335 18.3104C30.4335 18.6309 30.1712 18.8932 29.8506 18.8932Z" fill="url(#paint4_linear_866_575)"/>
<path d="M29.8506 22.0016H19.3597C19.0391 22.0016 18.7769 21.7393 18.7769 21.4188C18.7769 21.0982 19.0391 20.8359 19.3597 20.8359H29.8506C30.1712 20.8359 30.4335 21.0982 30.4335 21.4188C30.4335 21.7393 30.1712 22.0016 29.8506 22.0016Z" fill="url(#paint5_linear_866_575)"/>
</g>
<defs>
<linearGradient id="paint0_linear_866_575" x1="-0.696501" y1="18.4569" x2="39.3963" y2="18.5489" gradientUnits="userSpaceOnUse">
<stop stop-color="#FABE3E"/>
<stop offset="0.3618" stop-color="#F63966"/>
<stop offset="1" stop-color="#007AE8"/>
</linearGradient>
<linearGradient id="paint1_linear_866_575" x1="-0.72316" y1="29.9544" x2="39.3697" y2="30.0463" gradientUnits="userSpaceOnUse">
<stop stop-color="#FABE3E"/>
<stop offset="0.3618" stop-color="#F63966"/>
<stop offset="1" stop-color="#007AE8"/>
</linearGradient>
<linearGradient id="paint2_linear_866_575" x1="-0.681771" y1="12.0383" x2="39.4111" y2="12.1302" gradientUnits="userSpaceOnUse">
<stop stop-color="#FABE3E"/>
<stop offset="0.3618" stop-color="#F63966"/>
<stop offset="1" stop-color="#007AE8"/>
</linearGradient>
<linearGradient id="paint3_linear_866_575" x1="-0.6889" y1="15.1485" x2="39.4039" y2="15.2404" gradientUnits="userSpaceOnUse">
<stop stop-color="#FABE3E"/>
<stop offset="0.3618" stop-color="#F63966"/>
<stop offset="1" stop-color="#007AE8"/>
</linearGradient>
<linearGradient id="paint4_linear_866_575" x1="-0.696041" y1="18.2587" x2="39.3968" y2="18.3507" gradientUnits="userSpaceOnUse">
<stop stop-color="#FABE3E"/>
<stop offset="0.3618" stop-color="#F63966"/>
<stop offset="1" stop-color="#007AE8"/>
</linearGradient>
<linearGradient id="paint5_linear_866_575" x1="-0.70317" y1="21.3688" x2="39.3897" y2="21.4608" gradientUnits="userSpaceOnUse">
<stop stop-color="#FABE3E"/>
<stop offset="0.3618" stop-color="#F63966"/>
<stop offset="1" stop-color="#007AE8"/>
</linearGradient>
<clipPath id="clip0_866_575">
<rect width="39.7296" height="37" fill="white"/>
</clipPath>
</defs>
</svg>
