<svg width="58" height="71" viewBox="0 0 58 71" fill="none" xmlns="http://www.w3.org/2000/svg">
<g clip-path="url(#clip0_970_642)">
<path d="M57.4823 21.2527L57.464 20.3771C57.3911 16.3272 57.3181 11.7301 57.3181 6.22087C57.3181 6.0202 57.2269 5.83778 57.0992 5.71008C56.9532 5.58238 56.7343 5.52765 56.5336 5.54589C44.5118 7.29718 35.573 5.52765 29.2428 0.1461C29.0056 -0.0363255 28.6773 -0.054568 28.4219 0.109615C20.1945 5.58238 10.9455 7.40663 0.930366 5.54589C0.875638 5.52765 0.839153 5.52765 0.802668 5.52765C0.602 5.52765 0.456059 5.61887 0.346604 5.69183C0.200664 5.80129 0.109451 6.00196 0.109451 6.22087C0.109451 10.9639 0.0729659 15.0867 0.0364808 18.5893C-0.0729745 31.6692 -0.145945 38.8568 2.09789 44.3113C4.25051 49.5287 8.40981 53.3049 17.6405 61.3498L17.75 61.4411C20.7965 64.1045 24.2443 67.1145 28.3124 70.8177C28.4401 70.9272 28.5861 70.9819 28.7867 70.9819C28.9692 70.9819 29.1151 70.9272 29.2428 70.7995C33.092 67.2787 36.4486 64.3051 39.2215 61.8606C48.1968 53.8886 53.1405 49.4922 55.4573 44.3296C57.8106 39.1852 57.6829 32.8185 57.4823 21.2527ZM54.1804 43.7823C51.9365 48.7807 47.3941 52.8123 38.3276 60.8573C37.5979 61.514 36.8499 62.1708 36.0655 62.8822C33.9859 64.7247 31.6508 66.8226 29.1151 69.1394L28.805 69.4131L28.4949 69.1394C24.8828 65.8558 21.7451 63.1194 18.9905 60.7114L18.5527 60.3283C9.9057 52.7759 5.56397 48.9996 3.39311 43.7275C1.24049 38.4555 1.29522 31.8152 1.42291 18.5893C1.42291 17.2576 1.44116 15.8529 1.4594 14.3935C1.47764 12.2774 1.49588 10.0153 1.49588 7.57082V7.04178L2.02492 7.11475C11.6205 8.61064 20.5229 6.76815 28.4949 1.69672L28.7685 1.51429L29.0239 1.71496C32.1616 4.19595 35.9743 5.91075 40.3343 6.78639C44.7307 7.68027 49.8204 7.77149 55.4756 7.06003L55.9864 6.98706V7.49785C56.0046 12.7335 56.0776 17.2029 56.1506 21.271C56.3147 32.9462 56.4242 38.7838 54.1804 43.7823Z" fill="url(#paint0_linear_970_642)"/>
<path d="M39.3492 28.4039H36.029V25.704C36.029 21.7089 32.7818 18.48 28.805 18.48C24.8099 18.48 21.5627 21.7272 21.5627 25.704V28.4039H18.2425C17.8594 28.4039 17.5493 28.714 17.5493 29.0971V42.7426C17.5493 44.2749 18.8081 45.5337 20.3404 45.5337H37.0688C38.6924 45.5337 40.0241 44.2202 40.0241 42.6149V29.0789C40.0241 28.6958 39.714 28.4039 39.3492 28.4039ZM22.9126 25.6858C22.9126 22.4569 25.5578 19.8299 28.7867 19.8299C32.0157 19.8299 34.6426 22.4569 34.6426 25.6858V28.3857H22.9126V25.6858ZM38.6559 42.6149C38.6559 43.4723 37.9445 44.1655 37.0688 44.1655H20.3404C19.556 44.1655 18.9175 43.527 18.9175 42.7426V29.7721H38.6377V42.6149H38.6559Z" fill="url(#paint1_linear_970_642)"/>
</g>
<defs>
<linearGradient id="paint0_linear_970_642" x1="-0.650005" y1="35.5035" x2="57.5113" y2="35.5035" gradientUnits="userSpaceOnUse">
<stop stop-color="#FABE3E"/>
<stop offset="0.3618" stop-color="#F63966"/>
<stop offset="1" stop-color="#007AE8"/>
</linearGradient>
<linearGradient id="paint1_linear_970_642" x1="-0.650015" y1="31.9942" x2="57.5113" y2="31.9942" gradientUnits="userSpaceOnUse">
<stop stop-color="#FABE3E"/>
<stop offset="0.3618" stop-color="#F63966"/>
<stop offset="1" stop-color="#007AE8"/>
</linearGradient>
<clipPath id="clip0_970_642">
<rect width="57.5917" height="71" fill="white"/>
</clipPath>
</defs>
</svg>
