<svg width="39" height="39" viewBox="0 0 39 39" fill="none" xmlns="http://www.w3.org/2000/svg">
<g clip-path="url(#clip0_1284_1856)">
<path d="M36.7068 30.8163C36.4457 30.6422 36.1555 30.4681 35.8943 30.294L35.7493 30.207C33.7471 28.9592 31.7159 27.6535 29.8588 26.1155C28.9882 25.3901 28.1177 24.6067 27.2762 23.8812L27.1601 23.7942C26.8119 23.475 26.4637 23.1848 26.1155 22.8656C25.9995 22.7495 25.9704 22.5754 26.0575 22.4304L26.2026 22.1982C26.2896 22.0531 26.3767 21.9371 26.4637 21.792C28.524 18.426 29.1043 14.7698 28.2048 10.9395C27.4213 7.83468 25.7963 5.22313 23.3009 3.19192C20.4862 0.928573 17.2362 -0.145065 13.6381 2.08048e-05C10.4462 0.145107 7.5735 1.27678 5.13605 3.30799C2.40843 5.60035 0.754449 8.53109 0.203121 12.0132C0.145086 12.3324 0.116069 12.6806 0.0580345 12.9998C0.0290173 13.1739 0.0290173 13.3189 0 13.493L0.0290173 15.0019C0.0580345 15.089 0.0580345 15.176 0.0870518 15.2631C0.232138 17.6425 0.957569 19.8768 2.26335 21.879C4.2075 24.9549 6.99316 27.0151 10.4752 28.0017C13.464 28.8432 16.4238 28.7271 19.2675 27.6244C19.9929 27.3633 20.6603 27.0151 21.3857 26.6379C21.7049 26.4638 22.0241 26.3187 22.3433 26.1736C22.3723 26.1446 22.4303 26.1155 22.4594 26.1155C22.6044 26.0865 22.7495 26.1446 22.8656 26.2897C23.1848 26.6379 23.504 26.9861 23.7941 27.3343L23.8232 27.3633C24.5776 28.1758 25.3321 29.0173 26.0865 29.8588C27.6825 31.6869 28.9882 33.7471 30.236 35.7203C30.4681 36.0685 30.6712 36.4167 30.9034 36.7939C31.0194 36.997 31.1645 37.1711 31.3096 37.3452C31.8609 37.9836 32.6444 38.3318 33.3118 38.5639H35.5171C35.6042 38.5349 35.6622 38.5059 35.7202 38.4769C37.4903 37.8385 38.4769 36.5908 38.651 34.8207C38.8251 33.0797 38.1577 31.7449 36.7068 30.8163ZM14.3635 27.6825H14.3055C6.90611 27.6244 0.870518 21.6179 0.870518 14.2475C0.870518 6.87711 6.87709 0.870538 14.2475 0.841521H14.3055C17.8456 0.841521 21.2116 2.23435 23.7361 4.75885C26.2896 7.31237 27.7115 10.7074 27.6825 14.3055C27.6825 17.8746 26.2606 21.2407 23.7071 23.7652C21.2116 26.2897 17.8746 27.6825 14.3635 27.6825ZM25.9995 28.2048C25.8834 28.2048 25.8254 28.1468 25.7673 28.0887L23.591 25.7383C23.475 25.5932 23.475 25.4191 23.591 25.274L25.216 23.591C25.3321 23.446 25.5352 23.446 25.6803 23.591L28.0887 25.7673C28.1467 25.8254 28.2048 25.9124 28.2048 25.9995C28.2048 26.0865 28.1758 26.1736 28.1177 26.2316L26.2896 28.0887C26.1736 28.1758 26.0865 28.2048 25.9995 28.2048ZM37.6644 35.3721C37.2291 36.7939 35.8943 37.7805 34.4725 37.7805C34.4435 37.7805 34.3854 37.7805 34.3564 37.7805C33.1087 37.7225 32.1801 37.2001 31.5418 36.1845L31.3676 35.8944C30.0038 33.7181 28.582 31.4547 26.899 29.4816C26.87 29.4525 26.841 29.3945 26.8119 29.3365L26.7829 29.2784C26.6959 29.1624 26.7249 28.9883 26.841 28.8722L28.8722 26.841C28.9882 26.7249 29.1333 26.7249 29.2494 26.7829H29.2784C29.3074 26.812 29.3945 26.841 29.4525 26.899C31.2806 28.3789 33.2828 29.6557 35.2269 30.9034L35.285 30.9324C35.6332 31.1646 35.9814 31.3677 36.3296 31.5998C37.5483 32.3833 38.0997 33.9792 37.6644 35.3721Z" fill="url(#paint0_linear_1284_1856)"/>
<path d="M22.0241 20.051C21.85 20.051 21.6759 20.022 21.4728 20.022C21.3567 20.022 21.2697 20.022 21.1536 20.022C20.9795 20.022 20.8344 19.8769 20.8344 19.7028V6.90617C20.8344 6.35484 20.7183 6.23877 20.167 6.23877C18.7742 6.23877 17.4104 6.23877 16.0176 6.23877C15.4662 6.23877 15.3502 6.35484 15.3502 6.93518V9.16951V10.5333C15.3502 10.7074 15.2051 10.8815 15.031 10.8815H13.377C12.7096 10.8815 12.0712 10.8815 11.4038 10.8815C10.8815 10.8815 10.7654 10.9976 10.7654 11.5199C10.7654 12.2163 10.7654 12.8837 10.7654 13.5801V15.1761C10.7654 15.3502 10.6203 15.5243 10.4462 15.5243H8.15387C7.71862 15.5243 7.25434 15.5243 6.81908 15.5243C6.26775 15.5243 6.15168 15.6404 6.15168 16.1917C6.15168 16.9461 6.15168 17.7006 6.15168 18.455V19.7898C6.15168 19.9639 6.0066 20.109 5.83249 20.109C5.71643 20.109 5.60036 20.109 5.5133 20.138C5.31018 20.138 5.10706 20.1671 4.93296 20.1961C4.75886 20.2251 4.61377 20.3992 4.61377 20.5733C4.61377 20.7764 4.75886 20.9505 4.93296 20.9795C5.07805 21.0086 5.25215 21.0086 5.39724 21.0086C10.7944 21.0086 16.1917 21.0086 21.5598 21.0086C21.7049 21.0086 21.85 21.0086 21.9661 20.9795C22.1982 20.9505 22.3723 20.7764 22.3433 20.5733C22.3723 20.2541 22.2272 20.08 22.0241 20.051ZM10.7364 19.6738C10.7364 19.8479 10.5913 20.022 10.4172 20.022H7.39943C7.22532 20.022 7.08024 19.8769 7.08024 19.6738V16.656C7.08024 16.4819 7.22532 16.3078 7.39943 16.3078H10.4172C10.5913 16.3078 10.7364 16.4528 10.7364 16.656V19.6738ZM15.3502 19.7028C15.3502 19.8769 15.2051 20.051 15.031 20.051H11.9842C11.81 20.051 11.665 19.9059 11.665 19.7028V12.0422C11.665 11.8681 11.81 11.694 11.9842 11.694H15.0019C15.1761 11.694 15.3211 11.8391 15.3211 12.0422V19.7028H15.3502ZM19.9639 19.7028C19.9639 19.8769 19.8188 20.051 19.6447 20.051H16.5979C16.4238 20.051 16.2787 19.9059 16.2787 19.7028V7.42848C16.2787 7.25437 16.4238 7.08027 16.5979 7.08027H19.6157C19.7898 7.08027 19.9349 7.22536 19.9349 7.42848V19.7028H19.9639Z" fill="url(#paint1_linear_1284_1856)"/>
</g>
<defs>
<linearGradient id="paint0_linear_1284_1856" x1="0.13731" y1="11.7306" x2="38.707" y2="23.4761" gradientUnits="userSpaceOnUse">
<stop stop-color="#FABE3E"/>
<stop offset="0.3618" stop-color="#F63966"/>
<stop offset="1" stop-color="#007AE8"/>
</linearGradient>
<linearGradient id="paint1_linear_1284_1856" x1="0.724906" y1="9.89634" x2="39.2946" y2="21.6418" gradientUnits="userSpaceOnUse">
<stop stop-color="#FABE3E"/>
<stop offset="0.3618" stop-color="#F63966"/>
<stop offset="1" stop-color="#007AE8"/>
</linearGradient>
<clipPath id="clip0_1284_1856">
<rect width="38.68" height="38.5349" fill="white"/>
</clipPath>
</defs>
</svg>
