<svg width="57" height="56" viewBox="0 0 57 56" fill="none" xmlns="http://www.w3.org/2000/svg">
<g clip-path="url(#clip0_349_687)">
<path d="M55.9251 41.5415C55.2854 41.0124 54.5239 40.971 53.5201 41.2234C53.5738 40.9981 53.6086 40.7685 53.5984 40.5289C53.5767 39.9969 53.3576 39.2183 52.4409 38.528C52.4264 38.5166 52.409 38.5123 52.393 38.5023V0.849997C52.393 0.380787 52.0071 0 51.5299 0H21.5902C21.361 0 21.142 0.0884226 20.9795 0.248154L11.767 9.30576C11.606 9.46407 11.5146 9.68084 11.5146 9.90618V36.4814C10.4658 36.46 9.35905 36.4444 8.12462 36.4444H0.863087C0.385851 36.4444 0 36.8237 0 37.2929V52.5672C0 53.0364 0.385851 53.4172 0.863087 53.4172H7.98682C9.07909 53.7666 16.4436 56.0014 25.9695 56.0014C34.8528 56.0014 45.6116 54.0547 54.8909 46.8226C55.0969 46.6828 56.9159 45.4007 56.9971 43.7192C57.0232 43.1531 56.8607 42.3159 55.9237 41.5443L55.9251 41.5415ZM7.26153 51.7172H1.72617V38.1429H7.26153V51.7172ZM51.3892 39.8757C51.8563 40.228 51.8664 40.5047 51.8708 40.5959C51.8868 41.0067 51.5154 41.6014 50.9062 42.1661C50.7132 42.246 50.529 42.3216 50.3245 42.4072C48.0079 43.377 44.7065 44.7546 40.0907 45.8899C40.1908 45.6046 40.2373 45.3294 40.2547 45.077C40.2837 44.6049 40.2518 44.1756 40.1923 43.7677C42.931 42.9976 45.3041 42.0164 47.2275 41.2049C48.8087 40.536 50.9743 39.6204 51.3907 39.8743L51.3892 39.8757ZM20.7271 2.89798V9.05618H14.4636L20.7271 2.89798ZM13.2422 10.7548H21.5902C22.0675 10.7548 22.4533 10.374 22.4533 9.90475V1.69714H50.6654V38.1971C49.6224 38.3511 48.2937 38.9059 46.5443 39.6447C44.6455 40.4448 42.3058 41.416 39.6367 42.159C39.4888 41.9237 39.3219 41.7041 39.1247 41.5087C37.9207 40.3235 36.2308 40.4077 36.196 40.4077C28.2454 40.536 26.9066 39.7631 25.3515 38.8646C23.6776 37.899 21.789 36.8266 13.2408 36.5271V10.7548H13.2422ZM55.2724 43.6351C55.2405 44.3539 54.2512 45.1882 53.8639 45.4563C36.2018 59.2189 12.9361 53.1234 8.98771 51.9454V38.1443C20.7808 38.1971 22.742 39.3281 24.4783 40.3307C26.2596 41.3575 27.7899 42.2389 36.2613 42.1034C36.27 42.1034 37.2476 42.0649 37.9004 42.7095C38.3805 43.183 38.5909 43.946 38.527 44.9757C38.5111 45.2267 38.4647 45.9854 36.9387 46.5873C36.9271 46.5901 36.9184 46.6001 36.9082 46.6044C36.901 46.6072 36.8952 46.6044 36.8879 46.6072C35.2734 47.2248 31.7108 47.7539 23.9213 46.7641C23.4441 46.6999 23.0132 47.0322 22.9538 47.4972C22.8928 47.9621 23.2265 48.3871 23.6994 48.4484C26.6643 48.8264 29.2376 49.0146 31.4135 49.0146C33.9839 49.0146 35.9856 48.7465 37.4159 48.2202C37.4188 48.2202 37.4232 48.2202 37.4261 48.2202C43.8289 46.9709 48.1428 45.1682 51.0005 43.9745C52.7701 43.2329 54.4441 42.5412 54.814 42.845C55.2419 43.1987 55.2796 43.4682 55.2738 43.6394L55.2724 43.6351Z" fill="url(#paint0_linear_349_687)"/>
<path d="M4.49382 41.7825C4.97106 41.7825 5.35836 41.4017 5.35836 40.9325C5.35836 40.4633 4.97251 40.0825 4.49382 40.0825C4.01514 40.0825 3.63074 40.4633 3.63074 40.9325C3.63074 41.4017 4.01659 41.7825 4.49382 41.7825Z" fill="url(#paint1_linear_349_687)"/>
<path d="M42.9556 26.6337C43.0571 26.1759 42.7627 25.7224 42.2956 25.6226C41.8387 25.5256 41.3701 25.8137 41.2686 26.2715C40.3228 30.5215 36.4208 33.6049 31.9879 33.6049C26.7499 33.6049 22.4881 29.4148 22.4881 24.2663C22.4881 19.1178 26.7499 14.9263 31.9879 14.9263C34.1652 14.9263 36.2931 15.6693 37.9773 17.0157C38.3486 17.3123 38.8911 17.2595 39.1928 16.893C39.4931 16.5293 39.438 15.9945 39.0681 15.6979C37.0765 14.1048 34.5612 13.2263 31.9879 13.2263C25.7969 13.2263 20.7605 18.178 20.7605 24.2649C20.7605 30.3518 25.7969 35.3034 31.9879 35.3034C37.2259 35.3034 41.8387 31.6567 42.9556 26.6337Z" fill="url(#paint2_linear_349_687)"/>
<path d="M27.2199 23.4577C26.8819 23.1254 26.3365 23.1254 25.9985 23.4577C25.6605 23.79 25.6605 24.3262 25.9985 24.6585L31.7558 30.319C31.9168 30.4773 32.1358 30.5671 32.3665 30.5671C32.5971 30.5671 32.8147 30.4773 32.9772 30.319L45.6435 17.8642C45.9815 17.5319 45.9815 16.9943 45.6435 16.662C45.3055 16.3311 44.7601 16.3311 44.4221 16.662L32.3665 28.5163L27.2199 23.4563V23.4577Z" fill="url(#paint3_linear_349_687)"/>
</g>
<defs>
<linearGradient id="paint0_linear_349_687" x1="0" y1="28" x2="57" y2="28" gradientUnits="userSpaceOnUse">
<stop stop-color="#EFB33E"/>
<stop offset="0.36" stop-color="#EB3966"/>
<stop offset="1" stop-color="#007ADD"/>
</linearGradient>
<linearGradient id="paint1_linear_349_687" x1="0.429338" y1="40.9339" x2="56.5749" y2="40.9339" gradientUnits="userSpaceOnUse">
<stop stop-color="#EFB33E"/>
<stop offset="0.36" stop-color="#EB3966"/>
<stop offset="1" stop-color="#007ADD"/>
</linearGradient>
<linearGradient id="paint2_linear_349_687" x1="0.881952" y1="24.2649" x2="58.0386" y2="24.2649" gradientUnits="userSpaceOnUse">
<stop stop-color="#EFB33E"/>
<stop offset="0.36" stop-color="#EB3966"/>
<stop offset="1" stop-color="#007ADD"/>
</linearGradient>
<linearGradient id="paint3_linear_349_687" x1="0.718017" y1="23.4919" x2="57.5309" y2="23.4919" gradientUnits="userSpaceOnUse">
<stop stop-color="#EFB33E"/>
<stop offset="0.36" stop-color="#EB3966"/>
<stop offset="1" stop-color="#007ADD"/>
</linearGradient>
<clipPath id="clip0_349_687">
<rect width="57" height="56" fill="white"/>
</clipPath>
</defs>
</svg>
