<svg width="71" height="71" viewBox="0 0 71 71" fill="none" xmlns="http://www.w3.org/2000/svg">
<g clip-path="url(#clip0_898_2311)">
<path d="M68.8107 0H50.4636C50.0293 0 49.6855 0.343782 49.6855 0.778033V7.2737C49.6855 8.39552 50.6083 9.3183 51.7301 9.3183H51.8749C52.4177 9.3183 52.9243 9.10117 53.3405 8.70311C53.8471 8.17839 54.5528 7.90698 55.2765 7.90698C56.0546 7.90698 56.8145 8.23267 57.3211 8.82977C57.8458 9.42686 58.0992 10.1868 58.0087 10.9829C57.8639 12.2314 56.8688 13.2446 55.6203 13.4075C54.7699 13.5161 53.9376 13.2266 53.3405 12.6295C52.9424 12.2314 52.4177 12.0143 51.8749 12.0143H51.7301C50.6083 12.0143 49.6855 12.9371 49.6855 14.0589V20.5545C49.6855 20.9888 50.0293 21.3326 50.4636 21.3326H56.9592C57.2307 21.3326 57.4478 21.5497 57.4478 21.8211V21.9659C57.4478 22.0925 57.3935 22.2192 57.2849 22.3277C56.3441 23.2686 55.9098 24.5714 56.0726 25.8922C56.3079 27.8463 57.9001 29.4205 59.8542 29.6376C60.0171 29.6557 60.1618 29.6557 60.3428 29.6557C61.4103 29.6557 62.4417 29.2757 63.2197 28.552C64.1244 27.7378 64.6491 26.5617 64.6491 25.3494C64.6491 24.2095 64.1968 23.1239 63.4006 22.3096C63.2921 22.2011 63.2378 22.0744 63.2378 21.9478V21.803C63.2378 21.5316 63.4549 21.3145 63.7263 21.3145H70.222C70.6562 21.3145 71 20.9707 71 20.5364V2.18935C71 0.977064 70.023 0 68.8107 0ZM69.8058 19.487C69.8058 19.8308 69.5163 20.1203 69.1725 20.1203H63.7263C62.8035 20.1203 62.0436 20.8802 62.0436 21.803V21.9478C62.0436 22.4001 62.2245 22.8163 62.5502 23.1419C63.1292 23.7209 63.4549 24.499 63.4549 25.3313C63.4549 26.2179 63.0749 27.0683 62.4236 27.6473C61.8446 28.1539 61.1208 28.4434 60.3428 28.4434C60.2161 28.4434 60.1076 28.4434 59.9809 28.4253C58.5696 28.2625 57.4116 27.1407 57.2487 25.7294C57.1221 24.7704 57.4478 23.8295 58.1173 23.1419C58.4429 22.8163 58.6239 22.382 58.6239 21.9297V21.7849C58.6239 20.8621 57.8639 20.1022 56.9412 20.1022H51.4949C51.1511 20.1022 50.8616 19.8127 50.8616 19.4689V14.0408C50.8616 13.5703 51.2416 13.1904 51.712 13.1904H51.8568C52.0739 13.1904 52.3091 13.2808 52.472 13.4618C53.2138 14.2036 54.1909 14.6017 55.2403 14.6017C55.4032 14.6017 55.566 14.5836 55.7289 14.5655C57.5202 14.3484 58.9496 12.8828 59.1486 11.0915C59.2752 9.96967 58.9134 8.84786 58.1715 8.01555C57.4297 7.18323 56.3621 6.6947 55.2403 6.6947C54.1909 6.6947 53.2138 7.09276 52.4539 7.83461C52.291 7.99745 52.0739 8.10601 51.8387 8.10601H51.694C51.2235 8.10601 50.8435 7.72605 50.8435 7.25561V1.82747C50.8435 1.48369 51.133 1.19419 51.4768 1.19419H68.7745C69.3173 1.19419 69.7696 1.64653 69.7696 2.18935V19.487H69.8058Z" fill="url(#paint0_linear_898_2311)"/>
<path d="M70.2219 49.6856H63.7263C62.6045 49.6856 61.6817 50.6084 61.6817 51.7302V51.8749C61.6817 52.4177 61.8988 52.9425 62.2969 53.3224C62.8216 53.8471 63.093 54.5347 63.093 55.2585C63.093 56.0365 62.7673 56.7964 62.1702 57.3031C61.5912 57.8278 60.8132 58.0811 60.0171 57.9906C58.7686 57.8459 57.7553 56.8507 57.6106 55.6022C57.502 54.7518 57.7915 53.9195 58.3886 53.3224C58.7867 52.9244 59.0038 52.3996 59.0038 51.8568V51.7121C59.0038 50.5903 58.081 49.6675 56.9592 49.6675H50.4635C50.0293 49.6675 49.6855 50.0113 49.6855 50.4455V56.9412C49.6855 57.2126 49.4684 57.4297 49.197 57.4297H49.0522C48.9256 57.4297 48.7989 57.3754 48.6903 57.2669C47.7495 56.3441 46.4648 55.8917 45.1259 56.0546C43.1717 56.2898 41.5976 57.8821 41.3805 59.8362C41.2357 61.0666 41.6338 62.2788 42.448 63.2016C43.2622 64.1063 44.4383 64.631 45.6506 64.631C46.7905 64.631 47.8761 64.1787 48.6903 63.3826C48.7989 63.274 48.9256 63.2197 49.0522 63.2197H49.4141C49.5588 63.2197 49.6855 63.3464 49.6855 63.4911V70.2039C49.6855 70.6382 50.0293 70.982 50.4635 70.982H68.8106C70.0229 70.982 71 70.0049 71 68.7926V50.4636C71 50.0294 70.6562 49.6856 70.2219 49.6856ZM69.8058 68.8107C69.8058 69.3535 69.3534 69.8059 68.8106 69.8059H51.513C51.1692 69.8059 50.8797 69.5164 50.8797 69.1726V62.4598C50.8797 62.2246 50.6988 62.0436 50.4635 62.0436H49.0522C48.5999 62.0436 48.1837 62.2246 47.858 62.5503C47.279 63.1293 46.501 63.4549 45.6687 63.4549C44.7821 63.4549 43.9317 63.075 43.3527 62.4236C42.7556 61.7541 42.4842 60.8856 42.5746 59.9809C42.7375 58.5696 43.8593 57.4297 45.2706 57.2488C45.3973 57.2307 45.5239 57.2307 45.6506 57.2307C46.4829 57.2307 47.2609 57.5564 47.8399 58.1354C48.1656 58.4611 48.5999 58.642 49.0522 58.642H49.197C50.1198 58.642 50.8797 57.8821 50.8797 56.9593V51.513C50.8797 51.1693 51.1692 50.8798 51.513 50.8798H56.9592C57.4296 50.8798 57.8096 51.2597 57.8096 51.7302V51.8749C57.8096 52.092 57.7191 52.3273 57.5382 52.4901C56.6878 53.3586 56.2716 54.5528 56.4345 55.7651C56.6516 57.5564 58.1172 58.9858 59.9085 59.1848C60.0532 59.2029 60.198 59.2029 60.3427 59.2029C61.3198 59.2029 62.2607 58.841 62.9844 58.1897C63.8167 57.4478 64.3053 56.3803 64.3053 55.2585C64.3053 54.209 63.9072 53.2139 63.1654 52.472C63.0025 52.3092 62.894 52.074 62.894 51.8568V51.7121C62.894 51.2416 63.2739 50.8617 63.7444 50.8617H69.1906C69.5344 50.8617 69.8239 51.1512 69.8239 51.495V68.8107H69.8058Z" fill="url(#paint1_linear_898_2311)"/>
<path d="M15.3978 57.6105C15.5064 57.5924 15.633 57.5924 15.7416 57.5924C16.4653 57.5924 17.171 57.8819 17.6776 58.3886C18.0757 58.7866 18.6004 59.0037 19.1432 59.0037H19.2699C20.3917 59.0037 21.3145 58.081 21.3145 56.9591V50.4635C21.3145 50.0292 20.9707 49.6854 20.5364 49.6854H14.0408C13.7694 49.6854 13.5522 49.4683 13.5522 49.1969V49.0522C13.5522 48.9255 13.6065 48.7808 13.7151 48.6903C14.656 47.7494 15.0902 46.4467 14.9274 45.1258C14.6922 43.1717 13.0999 41.5975 11.1458 41.3804C10.9829 41.3623 10.8201 41.3623 10.6753 41.3623C9.6078 41.3623 8.59455 41.7604 7.79842 42.466C6.89373 43.2802 6.36901 44.4563 6.36901 45.6686C6.36901 46.8085 6.82136 47.8942 7.63558 48.7084C7.76223 48.835 7.78033 48.9798 7.78033 49.0703V49.215C7.78033 49.4864 7.5632 49.7035 7.29179 49.7035H0.778033C0.343782 49.7035 0 50.0473 0 50.4816V68.8287C0 70.0409 0.977064 71.018 2.18935 71.018H20.5364C20.9707 71.018 21.3145 70.6742 21.3145 70.24V63.7443C21.3145 62.6225 20.3917 61.6997 19.2699 61.6997H19.1432C18.6004 61.6997 18.0757 61.9168 17.6957 62.3149C17.171 62.8396 16.4834 63.111 15.7597 63.111C14.9817 63.111 14.2217 62.7673 13.7151 62.1882C13.1904 61.5912 12.9371 60.8312 13.0275 60.0351C13.1361 58.7866 14.1493 57.7734 15.3978 57.6105ZM12.8104 62.9663C13.5522 63.7986 14.6198 64.2871 15.7416 64.2871C16.791 64.2871 17.7862 63.8891 18.528 63.1472C18.6366 63.0567 18.8356 62.8758 19.1432 62.8758H19.2699C19.7403 62.8758 20.1203 63.2558 20.1203 63.7262V69.1724C20.1203 69.5162 19.8308 69.8057 19.487 69.8057H2.18935C1.64653 69.8057 1.19419 69.3534 1.19419 68.8106V51.5129C1.19419 51.1691 1.48369 50.8796 1.82747 50.8796H7.2737C8.19648 50.8796 8.95642 50.1197 8.95642 49.1969V49.0522C8.95642 48.5998 8.77549 48.1837 8.4498 47.8399C7.8708 47.2609 7.54511 46.4828 7.54511 45.6505C7.54511 44.7639 7.92508 43.9135 8.57645 43.3345C9.24592 42.7374 10.0963 42.466 11.001 42.5565C12.4123 42.7193 13.5703 43.8412 13.7332 45.2525C13.8417 46.2114 13.5341 47.1523 12.8466 47.8399C12.5209 48.1656 12.34 48.5998 12.34 49.0522V49.1969C12.34 50.1197 13.0999 50.8796 14.0227 50.8796H19.4689C19.8127 50.8796 20.1022 51.1691 20.1022 51.5129V56.9591C20.1022 57.4296 19.7222 57.8096 19.2518 57.8096H19.1251C18.908 57.8096 18.6728 57.7191 18.5099 57.5381C17.7681 56.7963 16.791 56.3982 15.7416 56.3982C15.5787 56.3982 15.4159 56.3982 15.2531 56.4344C13.4618 56.6515 12.0324 58.1171 11.8333 59.9084C11.6886 61.0122 12.0505 62.134 12.8104 62.9663Z" fill="url(#paint2_linear_898_2311)"/>
<path d="M28.552 7.78033C27.7378 6.87564 26.5617 6.35092 25.3494 6.35092C24.2095 6.35092 23.1239 6.80326 22.3096 7.59939C22.2011 7.70795 22.0744 7.76223 21.9478 7.76223H21.803C21.5316 7.76223 21.3145 7.54511 21.3145 7.2737V0.778033C21.3145 0.343782 20.9707 0 20.5364 0H2.18935C0.977064 0 0 0.977064 0 2.18935V20.5364C0 20.9707 0.343782 21.3145 0.778033 21.3145H7.2737C8.39551 21.3145 9.3183 20.3917 9.3183 19.2699V19.1251C9.3183 18.5823 9.10117 18.0576 8.70311 17.6595C8.17839 17.1348 7.90698 16.4472 7.90698 15.7235C7.90698 14.9455 8.23267 14.1855 8.82977 13.6789C9.40877 13.1542 10.2049 12.9009 10.9829 12.9913C12.2314 13.1361 13.2446 14.1312 13.3894 15.3797C13.498 16.2301 13.2085 17.0624 12.6114 17.6595C12.2133 18.0576 11.9962 18.5823 11.9962 19.1251V19.2699C11.9962 20.3917 12.919 21.3145 14.0408 21.3145H20.5364C20.9707 21.3145 21.3145 20.9707 21.3145 20.5364V14.0408C21.3145 13.7694 21.5316 13.5522 21.803 13.5522H21.9478C22.0744 13.5522 22.2011 13.6065 22.3096 13.7151C23.1239 14.5112 24.1914 14.9636 25.3494 14.9636C25.5303 14.9636 25.7113 14.9455 25.8922 14.9274C27.8463 14.6922 29.4205 13.0999 29.6376 11.1458C29.7462 9.91539 29.3662 8.70311 28.552 7.78033ZM23.1419 12.8647C22.8163 12.539 22.382 12.3581 21.9297 12.3581H21.7849C20.8621 12.3581 20.1022 13.118 20.1022 14.0408V19.487C20.1022 19.8308 19.8127 20.1203 19.4689 20.1203H14.0408C13.5703 20.1203 13.1904 19.7403 13.1904 19.2699V19.1251C13.1904 18.908 13.2808 18.6728 13.4618 18.5099C14.3122 17.6414 14.7283 16.4472 14.5655 15.235C14.3484 13.4437 12.8828 12.0143 11.0915 11.8152C10.9467 11.7971 10.802 11.7971 10.6572 11.7971C9.68017 11.7971 8.7393 12.159 8.01554 12.7923C7.18323 13.5341 6.6947 14.6017 6.6947 15.7235C6.6947 16.7729 7.11086 17.75 7.83461 18.5099C7.99745 18.6909 8.10601 18.908 8.10601 19.1251V19.2699C8.10601 19.7403 7.72604 20.1203 7.25561 20.1203H1.82747C1.48369 20.1203 1.19419 19.8308 1.19419 19.487V2.18935C1.19419 1.64653 1.64653 1.19419 2.18935 1.19419H19.487C19.8308 1.19419 20.1203 1.48369 20.1203 1.82747V7.2737C20.1203 8.19648 20.8802 8.95642 21.803 8.95642H21.9478C22.4001 8.95642 22.8163 8.77549 23.1419 8.4498C23.7209 7.8708 24.5171 7.54511 25.3313 7.54511C26.2179 7.54511 27.0683 7.92508 27.6473 8.57645C28.2444 9.24592 28.5158 10.1144 28.4253 11.0191C28.2806 12.4304 27.1407 13.5703 25.7294 13.7513C24.7704 13.8598 23.8295 13.5341 23.1419 12.8647Z" fill="url(#paint3_linear_898_2311)"/>
<path d="M34.722 10.802C34.722 11.2362 34.3782 11.58 33.944 11.58H33.1117C32.6774 11.58 32.3336 11.2362 32.3336 10.802C32.3336 10.3677 32.6774 10.0239 33.1117 10.0239H33.944C34.3601 10.0239 34.722 10.3677 34.722 10.802Z" fill="url(#paint4_linear_898_2311)"/>
<path d="M41.489 10.802C41.489 11.2362 41.1452 11.58 40.711 11.58H38.6302C38.196 11.58 37.8522 11.2362 37.8522 10.802C37.8522 10.3677 38.196 10.0239 38.6302 10.0239H40.711C41.1452 10.0239 41.489 10.3677 41.489 10.802Z" fill="url(#paint5_linear_898_2311)"/>
<path d="M47.0076 10.802C47.0076 11.2362 46.6639 11.58 46.2296 11.58H45.3973C44.963 11.58 44.6193 11.2362 44.6193 10.802C44.6193 10.3677 44.963 10.0239 45.3973 10.0239H46.2296C46.6639 10.0239 47.0076 10.3677 47.0076 10.802Z" fill="url(#paint6_linear_898_2311)"/>
<path d="M60.976 33.0935V33.9258C60.976 34.36 60.6323 34.7038 60.198 34.7038C59.7638 34.7038 59.42 34.36 59.42 33.9258V33.0935C59.42 32.6592 59.7638 32.3154 60.198 32.3154C60.6323 32.3154 60.976 32.6773 60.976 33.0935Z" fill="url(#paint7_linear_898_2311)"/>
<path d="M60.976 38.6301V40.7109C60.976 41.1451 60.6323 41.4889 60.198 41.4889C59.7638 41.4889 59.42 41.1451 59.42 40.7109V38.6301C59.42 38.1958 59.7638 37.8521 60.198 37.8521C60.6323 37.8521 60.976 38.1958 60.976 38.6301Z" fill="url(#paint8_linear_898_2311)"/>
<path d="M60.976 45.3972V46.2295C60.976 46.6637 60.6323 47.0075 60.198 47.0075C59.7638 47.0075 59.42 46.6637 59.42 46.2295V45.3972C59.42 44.9629 59.7638 44.6191 60.198 44.6191C60.6323 44.6191 60.976 44.9629 60.976 45.3972Z" fill="url(#paint9_linear_898_2311)"/>
<path d="M38.6845 60.198C38.6845 60.6322 38.3407 60.976 37.9065 60.976H37.0742C36.6399 60.976 36.2961 60.6322 36.2961 60.198C36.2961 59.7637 36.6399 59.4199 37.0742 59.4199H37.9065C38.3407 59.4199 38.6845 59.7818 38.6845 60.198Z" fill="url(#paint10_linear_898_2311)"/>
<path d="M33.1478 60.198C33.1478 60.6322 32.804 60.976 32.3698 60.976H30.289C29.8547 60.976 29.511 60.6322 29.511 60.198C29.511 59.7637 29.8547 59.4199 30.289 59.4199H32.3879C32.804 59.4199 33.1478 59.7818 33.1478 60.198Z" fill="url(#paint11_linear_898_2311)"/>
<path d="M26.3807 60.198C26.3807 60.6322 26.037 60.976 25.6027 60.976H24.7704C24.3362 60.976 23.9924 60.6322 23.9924 60.198C23.9924 59.7637 24.3362 59.4199 24.7704 59.4199H25.6027C26.037 59.4199 26.3807 59.7818 26.3807 60.198Z" fill="url(#paint12_linear_898_2311)"/>
<path d="M11.58 37.0739V37.9062C11.58 38.3405 11.2362 38.6843 10.802 38.6843C10.3677 38.6843 10.024 38.3405 10.024 37.9062V37.0739C10.024 36.6397 10.3677 36.2959 10.802 36.2959C11.2362 36.2959 11.58 36.6397 11.58 37.0739Z" fill="url(#paint13_linear_898_2311)"/>
<path d="M11.58 30.2892V32.3881C11.58 32.8224 11.2362 33.1661 10.802 33.1661C10.3677 33.1661 10.024 32.8224 10.024 32.3881V30.3073C10.024 29.8731 10.3677 29.5293 10.802 29.5293C11.2362 29.5293 11.58 29.8731 11.58 30.2892Z" fill="url(#paint14_linear_898_2311)"/>
<path d="M11.58 24.7702V25.6025C11.58 26.0368 11.2362 26.3806 10.802 26.3806C10.3677 26.3806 10.024 26.0368 10.024 25.6025V24.7702C10.024 24.336 10.3677 23.9922 10.802 23.9922C11.2362 23.9922 11.58 24.336 11.58 24.7702Z" fill="url(#paint15_linear_898_2311)"/>
<path d="M49.9207 39.2094L47.7133 37.9428C47.3514 37.7257 47.1524 37.3095 47.1886 36.8753C47.2429 36.423 47.261 35.9706 47.261 35.5002C47.261 35.0478 47.2429 34.5774 47.1886 34.125C47.1343 33.6908 47.3514 33.2746 47.7133 33.0575L49.9207 31.7729C50.355 31.5195 50.6807 31.1034 50.8073 30.6148C50.934 30.1263 50.8797 29.6016 50.6264 29.1673L48.5275 25.5486C48.2742 25.1143 47.858 24.7887 47.3695 24.662C46.881 24.5353 46.3563 24.6077 45.922 24.8429L43.7146 26.1276C43.3527 26.3266 42.8642 26.2904 42.5385 26.0371C41.8147 25.4943 41.0186 25.042 40.1863 24.6801C39.7882 24.4991 39.5168 24.1192 39.5168 23.6849V21.1518C39.5168 20.1024 38.6664 19.252 37.617 19.252H33.4373C32.3879 19.252 31.5375 20.1024 31.5375 21.1518V23.6849C31.5375 24.1192 31.266 24.4991 30.868 24.6801C30.0357 25.042 29.2395 25.4943 28.5158 26.0371C28.172 26.2904 27.6835 26.3266 27.3397 26.1095L25.1323 24.8429C24.698 24.5896 24.1733 24.5172 23.6848 24.662C23.1962 24.7887 22.7801 25.1143 22.5268 25.5486L20.446 29.1673C20.1927 29.6016 20.1203 30.1263 20.2469 30.6148C20.3736 31.1034 20.6993 31.5195 21.1335 31.7729L23.341 33.0575C23.7028 33.2746 23.92 33.6908 23.8657 34.125C23.8114 34.5774 23.7933 35.0297 23.7933 35.4821C23.7933 35.9344 23.8114 36.4049 23.8657 36.8572C23.92 37.2915 23.7028 37.7076 23.341 37.9247L21.1335 39.1913C20.6993 39.4446 20.3736 39.8608 20.2469 40.3493C20.1203 40.8378 20.1746 41.3626 20.446 41.7968L22.5268 45.4156C22.7801 45.8498 23.1962 46.1755 23.6848 46.3022C24.1733 46.4288 24.698 46.3564 25.1323 46.1031L27.3397 44.8366C27.5025 44.7461 27.6835 44.6918 27.8644 44.6918C28.0996 44.6918 28.3349 44.7642 28.5158 44.9089C29.2395 45.4517 30.0357 45.9041 30.868 46.266C31.266 46.4469 31.5375 46.8269 31.5375 47.2611V49.7943C31.5375 50.8437 32.3879 51.6941 33.4373 51.6941H37.617C38.6664 51.6941 39.5168 50.8437 39.5168 49.7943V47.2611C39.5168 46.8269 39.7882 46.4469 40.1863 46.266C41.0186 45.9041 41.8147 45.4517 42.5385 44.9089C42.8823 44.6556 43.3708 44.6194 43.7146 44.8366L45.922 46.1212C46.3563 46.3745 46.881 46.4469 47.3695 46.3203C47.858 46.1936 48.2742 45.8679 48.5275 45.4337L50.6264 41.8149C50.8797 41.3806 50.9521 40.8559 50.8073 40.3674C50.6807 39.8789 50.355 39.4627 49.9207 39.2094ZM49.577 41.2178L47.4781 44.8366C47.3876 44.9994 47.2248 45.1261 47.0438 45.1623C46.8629 45.2165 46.6639 45.1803 46.501 45.0899L44.2936 43.8233C43.9498 43.6243 43.5698 43.5338 43.1718 43.5338C42.6832 43.5338 42.1947 43.6967 41.7966 43.9862C41.1453 44.4747 40.4396 44.8908 39.6797 45.2165C38.8293 45.5784 38.2864 46.3926 38.2864 47.2973V49.8304C38.2864 50.2285 37.9607 50.5542 37.5627 50.5542H33.383C32.985 50.5542 32.6593 50.2285 32.6593 49.8304V47.2973C32.6593 46.3926 32.1165 45.5784 31.266 45.2165C30.5242 44.8908 29.8005 44.4747 29.1491 43.9862C28.751 43.6786 28.2806 43.5338 27.7739 43.5338C27.3759 43.5338 26.9959 43.6424 26.6521 43.8233L24.4447 45.0899C24.2818 45.1803 24.0828 45.2165 23.9019 45.1623C23.7933 45.1261 23.5943 45.0537 23.4676 44.8366L21.3687 41.2178C21.2421 41.0007 21.2602 40.7836 21.2964 40.675C21.3507 40.4941 21.4592 40.3312 21.6402 40.2407L23.8476 38.9742C24.6256 38.5218 25.0599 37.6533 24.9513 36.7486C24.897 36.3506 24.8789 35.9344 24.8789 35.5183C24.8789 35.1021 24.897 34.6859 24.9513 34.2879C25.0599 33.3832 24.6256 32.4966 23.8476 32.0623L21.6402 30.7958C21.423 30.6691 21.3326 30.4701 21.2964 30.3615C21.2421 30.1806 21.2783 29.9816 21.3687 29.8187L23.4676 26.2C23.5581 26.0371 23.7209 25.9105 23.9019 25.8562C24.0828 25.8019 24.2818 25.8381 24.4447 25.9286L26.6521 27.1951C26.9959 27.3942 27.3759 27.5027 27.7739 27.5027C28.2625 27.5027 28.751 27.3399 29.1491 27.0504C29.8005 26.5618 30.5242 26.1457 31.266 25.82C32.1165 25.4581 32.6593 24.6258 32.6593 23.7211V21.188C32.6593 20.7899 32.985 20.4642 33.383 20.4642H37.5627C37.9607 20.4642 38.2864 20.7899 38.2864 21.188V23.7211C38.2864 24.6258 38.8293 25.44 39.6797 25.82C40.4215 26.1457 41.1453 26.5618 41.7966 27.0504C42.1947 27.3399 42.6651 27.5027 43.1718 27.5027C43.5698 27.5027 43.9498 27.3942 44.2936 27.1951L46.501 25.9286C46.6639 25.8381 46.8629 25.8019 47.0438 25.8562C47.1524 25.8924 47.3514 25.9647 47.4781 26.2L49.577 29.8187C49.7036 30.0358 49.6674 30.253 49.6493 30.3615C49.595 30.5425 49.4865 30.7053 49.3236 30.7958L47.1162 32.0623C46.3382 32.5147 45.9039 33.3832 46.0125 34.2879C46.0668 34.6859 46.0849 35.1021 46.0849 35.5183C46.0849 35.9344 46.0668 36.3506 46.0125 36.7486C45.9039 37.6533 46.3382 38.5218 47.1162 38.9742L49.3236 40.2407C49.5408 40.3674 49.6312 40.5664 49.6493 40.675C49.7036 40.8559 49.6855 41.055 49.577 41.2178Z" fill="url(#paint16_linear_898_2311)"/>
<path d="M35.5 28.0273C31.3746 28.0273 28.0273 31.3747 28.0273 35.5001C28.0273 39.6255 31.3746 42.9728 35.5 42.9728C39.6254 42.9728 42.9727 39.6255 42.9727 35.5001C42.9727 31.3747 39.6254 28.0273 35.5 28.0273ZM35.5 41.7786C32.026 41.7786 29.2215 38.956 29.2215 35.5001C29.2215 32.0442 32.0441 29.2215 35.5 29.2215C38.9559 29.2215 41.7786 32.0442 41.7786 35.5001C41.7786 38.9741 38.974 41.7786 35.5 41.7786Z" fill="url(#paint17_linear_898_2311)"/>
<path d="M35.5 32.3516C33.763 32.3516 32.3517 33.7629 32.3517 35.4999C32.3517 37.2369 33.763 38.6482 35.5 38.6482C37.237 38.6482 38.6483 37.2369 38.6483 35.4999C38.6483 33.7629 37.237 32.3516 35.5 32.3516ZM35.5 37.454C34.4144 37.454 33.5459 36.5855 33.5459 35.4999C33.5459 34.4323 34.4144 33.5458 35.5 33.5458C36.5675 33.5458 37.4541 34.4143 37.4541 35.4999C37.4541 36.5855 36.5856 37.454 35.5 37.454Z" fill="url(#paint18_linear_898_2311)"/>
</g>
<defs>
<linearGradient id="paint0_linear_898_2311" x1="-0.536273" y1="14.8215" x2="70.5708" y2="14.8215" gradientUnits="userSpaceOnUse">
<stop stop-color="#EFB33E"/>
<stop offset="0.3618" stop-color="#EB3966"/>
<stop offset="1" stop-color="#007ADD"/>
</linearGradient>
<linearGradient id="paint1_linear_898_2311" x1="-0.536324" y1="60.3447" x2="70.5708" y2="60.3447" gradientUnits="userSpaceOnUse">
<stop stop-color="#EFB33E"/>
<stop offset="0.3618" stop-color="#EB3966"/>
<stop offset="1" stop-color="#007ADD"/>
</linearGradient>
<linearGradient id="paint2_linear_898_2311" x1="-0.5363" y1="56.1802" x2="70.5708" y2="56.1802" gradientUnits="userSpaceOnUse">
<stop stop-color="#EFB33E"/>
<stop offset="0.3618" stop-color="#EB3966"/>
<stop offset="1" stop-color="#007ADD"/>
</linearGradient>
<linearGradient id="paint3_linear_898_2311" x1="-0.5363" y1="10.6573" x2="70.5708" y2="10.6573" gradientUnits="userSpaceOnUse">
<stop stop-color="#EFB33E"/>
<stop offset="0.3618" stop-color="#EB3966"/>
<stop offset="1" stop-color="#007ADD"/>
</linearGradient>
<linearGradient id="paint4_linear_898_2311" x1="-0.536263" y1="10.7984" x2="70.5708" y2="10.7984" gradientUnits="userSpaceOnUse">
<stop stop-color="#EFB33E"/>
<stop offset="0.3618" stop-color="#EB3966"/>
<stop offset="1" stop-color="#007ADD"/>
</linearGradient>
<linearGradient id="paint5_linear_898_2311" x1="-0.536329" y1="10.7984" x2="70.5708" y2="10.7984" gradientUnits="userSpaceOnUse">
<stop stop-color="#EFB33E"/>
<stop offset="0.3618" stop-color="#EB3966"/>
<stop offset="1" stop-color="#007ADD"/>
</linearGradient>
<linearGradient id="paint6_linear_898_2311" x1="-0.536243" y1="10.7984" x2="70.5708" y2="10.7984" gradientUnits="userSpaceOnUse">
<stop stop-color="#EFB33E"/>
<stop offset="0.3618" stop-color="#EB3966"/>
<stop offset="1" stop-color="#007ADD"/>
</linearGradient>
<linearGradient id="paint7_linear_898_2311" x1="-0.536343" y1="33.5151" x2="70.5708" y2="33.5151" gradientUnits="userSpaceOnUse">
<stop stop-color="#EFB33E"/>
<stop offset="0.3618" stop-color="#EB3966"/>
<stop offset="1" stop-color="#007ADD"/>
</linearGradient>
<linearGradient id="paint8_linear_898_2311" x1="-0.536343" y1="39.665" x2="70.5708" y2="39.665" gradientUnits="userSpaceOnUse">
<stop stop-color="#EFB33E"/>
<stop offset="0.3618" stop-color="#EB3966"/>
<stop offset="1" stop-color="#007ADD"/>
</linearGradient>
<linearGradient id="paint9_linear_898_2311" x1="-0.536343" y1="45.8152" x2="70.5708" y2="45.8152" gradientUnits="userSpaceOnUse">
<stop stop-color="#EFB33E"/>
<stop offset="0.3618" stop-color="#EB3966"/>
<stop offset="1" stop-color="#007ADD"/>
</linearGradient>
<linearGradient id="paint10_linear_898_2311" x1="-0.536276" y1="60.2034" x2="70.5708" y2="60.2034" gradientUnits="userSpaceOnUse">
<stop stop-color="#EFB33E"/>
<stop offset="0.3618" stop-color="#EB3966"/>
<stop offset="1" stop-color="#007ADD"/>
</linearGradient>
<linearGradient id="paint11_linear_898_2311" x1="-0.536289" y1="60.2034" x2="70.5708" y2="60.2034" gradientUnits="userSpaceOnUse">
<stop stop-color="#EFB33E"/>
<stop offset="0.3618" stop-color="#EB3966"/>
<stop offset="1" stop-color="#007ADD"/>
</linearGradient>
<linearGradient id="paint12_linear_898_2311" x1="-0.536279" y1="60.2034" x2="70.5708" y2="60.2034" gradientUnits="userSpaceOnUse">
<stop stop-color="#EFB33E"/>
<stop offset="0.3618" stop-color="#EB3966"/>
<stop offset="1" stop-color="#007ADD"/>
</linearGradient>
<linearGradient id="paint13_linear_898_2311" x1="-0.536297" y1="37.4865" x2="70.5708" y2="37.4865" gradientUnits="userSpaceOnUse">
<stop stop-color="#EFB33E"/>
<stop offset="0.3618" stop-color="#EB3966"/>
<stop offset="1" stop-color="#007ADD"/>
</linearGradient>
<linearGradient id="paint14_linear_898_2311" x1="-0.536297" y1="31.3369" x2="70.5708" y2="31.3369" gradientUnits="userSpaceOnUse">
<stop stop-color="#EFB33E"/>
<stop offset="0.3618" stop-color="#EB3966"/>
<stop offset="1" stop-color="#007ADD"/>
</linearGradient>
<linearGradient id="paint15_linear_898_2311" x1="-0.536297" y1="25.1864" x2="70.5708" y2="25.1864" gradientUnits="userSpaceOnUse">
<stop stop-color="#EFB33E"/>
<stop offset="0.3618" stop-color="#EB3966"/>
<stop offset="1" stop-color="#007ADD"/>
</linearGradient>
<linearGradient id="paint16_linear_898_2311" x1="-0.536306" y1="35.5011" x2="70.5708" y2="35.5011" gradientUnits="userSpaceOnUse">
<stop stop-color="#EFB33E"/>
<stop offset="0.3618" stop-color="#EB3966"/>
<stop offset="1" stop-color="#007ADD"/>
</linearGradient>
<linearGradient id="paint17_linear_898_2311" x1="-0.536288" y1="35.501" x2="70.5708" y2="35.501" gradientUnits="userSpaceOnUse">
<stop stop-color="#EFB33E"/>
<stop offset="0.3618" stop-color="#EB3966"/>
<stop offset="1" stop-color="#007ADD"/>
</linearGradient>
<linearGradient id="paint18_linear_898_2311" x1="-0.536299" y1="35.5008" x2="70.5708" y2="35.5008" gradientUnits="userSpaceOnUse">
<stop stop-color="#EFB33E"/>
<stop offset="0.3618" stop-color="#EB3966"/>
<stop offset="1" stop-color="#007ADD"/>
</linearGradient>
<clipPath id="clip0_898_2311">
<rect width="71" height="71" fill="white"/>
</clipPath>
</defs>
</svg>
