<svg width="39" height="37" viewBox="0 0 39 37" fill="none" xmlns="http://www.w3.org/2000/svg">
<g clip-path="url(#clip0_866_583)">
<path d="M24.4797 13.1309H13.9476C12.1857 13.1309 10.7388 14.5679 10.7388 16.3298V20.7002C10.7388 22.4621 12.1759 23.8991 13.9476 23.8991H24.4797C26.2416 23.8991 27.6786 22.4621 27.6786 20.7002V16.3298C27.6786 14.5679 26.2416 13.1309 24.4797 13.1309ZM26.655 20.7002C26.655 21.901 25.6805 22.8755 24.4797 22.8755H13.9476C12.7468 22.8755 11.7723 21.901 11.7723 20.7002V16.3298C11.7723 15.129 12.7468 14.1545 13.9476 14.1545H24.4797C25.6805 14.1545 26.655 15.129 26.655 16.3298V20.7002Z" fill="url(#paint0_linear_866_583)"/>
<path d="M24.4797 26.2217H13.9476C12.1857 26.2217 10.7388 27.6588 10.7388 29.4207V33.791C10.7388 35.5529 12.1759 36.9998 13.9476 36.9998H24.4797C26.2416 36.9998 27.6786 35.5627 27.6786 33.791V29.4305C27.6786 27.6588 26.2416 26.2217 24.4797 26.2217ZM26.655 33.8008C26.655 35.0017 25.6805 35.9761 24.4797 35.9761H13.9476C12.7468 35.9761 11.7723 35.0017 11.7723 33.8008V29.4305C11.7723 28.2297 12.7468 27.2552 13.9476 27.2552H24.4797C25.6805 27.2552 26.655 28.2297 26.655 29.4305V33.8008Z" fill="url(#paint1_linear_866_583)"/>
<path d="M24.4797 0H22.6685C22.3831 0 22.1567 0.22639 22.1567 0.511838C22.1567 0.797287 22.3831 1.02368 22.6685 1.02368H24.4797C25.6805 1.02368 26.655 1.99814 26.655 3.19899V7.5693C26.655 8.77015 25.6805 9.74461 24.4797 9.74461H13.9476C12.7468 9.74461 11.7723 8.77015 11.7723 7.5693V3.19899C11.7723 1.99814 12.7468 1.02368 13.9476 1.02368H15.9556C16.241 1.02368 16.4674 0.797287 16.4674 0.511838C16.4674 0.22639 16.241 0 15.9556 0H13.9476C12.1857 0 10.7388 1.43708 10.7388 3.19899V7.5693C10.7388 9.33121 12.1759 10.7781 13.9476 10.7781H24.4797C26.2416 10.7781 27.6786 9.34105 27.6786 7.5693V3.19899C27.6786 1.43708 26.2416 0 24.4797 0Z" fill="url(#paint2_linear_866_583)"/>
<path d="M32.7181 18.0029H30.3459C30.0605 18.0029 29.8341 18.2293 29.8341 18.5148C29.8341 18.8002 30.0605 19.0266 30.3459 19.0266H32.7181C35.3363 19.0266 37.4624 21.1527 37.4624 23.771V26.3597C37.4624 28.9779 35.3363 31.104 32.7181 31.104H31.5861L32.7968 29.8933C32.9937 29.6965 32.9937 29.3618 32.7968 29.1649C32.6984 29.0665 32.5606 29.0173 32.4326 29.0173C32.3047 29.0173 32.1669 29.0665 32.0684 29.1649L29.9719 31.2615C29.775 31.4584 29.775 31.793 29.9719 31.9899L32.0684 34.0865C32.2653 34.2833 32.6 34.2833 32.7968 34.0865C32.8952 33.988 32.9445 33.8601 32.9445 33.7223C32.9445 33.5845 32.8952 33.4565 32.7968 33.3581L31.5861 32.1474H32.7181C35.8974 32.1474 38.4861 29.5587 38.4861 26.3794V23.7906C38.4861 22.2551 37.8857 20.8082 36.7931 19.7156C35.7005 18.6034 34.2536 18.0029 32.7181 18.0029Z" fill="url(#paint3_linear_866_583)"/>
<path d="M0 13.3569C0 16.5362 2.58872 19.1249 5.76802 19.1249H6.89997L5.68928 20.3356C5.49242 20.5325 5.49242 20.8671 5.68928 21.064C5.88614 21.2609 6.2208 21.2609 6.41766 21.064L8.51423 18.9674C8.71109 18.7706 8.71109 18.4359 8.51423 18.239L6.41766 16.1425C6.2208 15.9456 5.88614 15.9456 5.68928 16.1425C5.49242 16.3393 5.49242 16.674 5.68928 16.8709L6.89997 18.0816H5.76802C3.14977 18.0816 1.02368 15.9555 1.02368 13.3372V10.7485C1.02368 8.13024 3.14977 6.00415 5.76802 6.00415H8.1402C8.42565 6.00415 8.65204 5.77776 8.65204 5.49231C8.65204 5.20686 8.42565 4.98047 8.1402 4.98047H5.76802C2.58872 5.00015 0 7.58888 0 10.7682" fill="url(#paint4_linear_866_583)"/>
<path d="M8.15976 31.1038H3.26776L4.47846 29.8931C4.67532 29.6963 4.67532 29.3616 4.47846 29.1647C4.38003 29.0663 4.24223 29.0171 4.11427 29.0171C3.98631 29.0171 3.8485 29.0663 3.75007 29.1647L1.65351 31.2613C1.45664 31.4582 1.45664 31.7928 1.65351 31.9897L3.75007 34.0863C3.94693 34.2831 4.2816 34.2831 4.47846 34.0863C4.67532 33.8894 4.67532 33.5547 4.47846 33.3579L3.26776 32.1472H8.15976C8.44521 32.1472 8.6716 31.9208 8.6716 31.6353C8.6716 31.3302 8.44521 31.1038 8.15976 31.1038Z" fill="url(#paint5_linear_866_583)"/>
<path d="M32.0588 7.45134C32.2556 7.6482 32.5903 7.6482 32.7872 7.45134C32.984 7.25448 32.984 6.91981 32.7872 6.72295L31.5765 5.51226H36.4685C36.7539 5.51226 36.9803 5.28587 36.9803 5.00042C36.9803 4.71497 36.7539 4.48858 36.4685 4.48858H31.5765L32.7872 3.27789C32.8856 3.17946 32.9348 3.0515 32.9348 2.91369C32.9348 2.77589 32.8856 2.64793 32.7872 2.5495C32.5903 2.35264 32.2556 2.35264 32.0588 2.5495L29.9622 4.62638C29.9425 4.64607 29.9327 4.65591 29.913 4.6756C29.7555 4.87246 29.7752 5.17759 29.9622 5.35477L32.0588 7.45134Z" fill="url(#paint6_linear_866_583)"/>
<path d="M14.5186 5.38391C14.5186 5.66936 14.7449 5.89575 15.0304 5.89575H23.4757C23.7612 5.89575 23.9876 5.66936 23.9876 5.38391C23.9876 5.09846 23.7612 4.87207 23.4757 4.87207H15.0304C14.7548 4.87207 14.5186 5.1083 14.5186 5.38391Z" fill="url(#paint7_linear_866_583)"/>
<path d="M20.1487 18.0029H15.0402C14.7547 18.0029 14.5283 18.2293 14.5283 18.5148C14.5283 18.8002 14.7547 19.0266 15.0402 19.0266H20.1487C20.4341 19.0266 20.6605 18.8002 20.6605 18.5148C20.6605 18.2293 20.4341 18.0029 20.1487 18.0029Z" fill="url(#paint8_linear_866_583)"/>
<path d="M23.4855 31.1235H15.0402C14.7547 31.1235 14.5283 31.3499 14.5283 31.6354C14.5283 31.9208 14.7547 32.1472 15.0402 32.1472H23.4855C23.7709 32.1472 23.9973 31.9208 23.9973 31.6354C23.9973 31.3598 23.7709 31.1235 23.4855 31.1235Z" fill="url(#paint9_linear_866_583)"/>
<path d="M23.9578 18.3178C23.8593 18.0914 23.6526 18.0127 23.4853 18.0127H23.4755C23.3081 18.0127 23.0916 18.1111 23.003 18.3474C22.9242 18.5541 22.9931 18.7903 23.1703 18.9281C23.3377 19.0561 23.5739 19.0757 23.7511 18.9675C23.9676 18.8198 24.0562 18.5442 23.9578 18.3178Z" fill="url(#paint10_linear_866_583)"/>
<path d="M19.5582 0.994312C19.6861 0.945096 19.7845 0.846666 19.8338 0.718706C19.883 0.590747 19.8928 0.452944 19.8338 0.324984C19.7255 0.0690653 19.4204 -0.0588942 19.1644 0.0493793C19.0365 0.0985945 18.938 0.197025 18.8888 0.324984C18.8396 0.452944 18.8298 0.590747 18.8888 0.718706C18.9873 0.964782 19.2924 1.09274 19.5582 0.994312Z" fill="url(#paint11_linear_866_583)"/>
</g>
<defs>
<linearGradient id="paint0_linear_866_583" x1="0.283744" y1="18.516" x2="35.9283" y2="18.516" gradientUnits="userSpaceOnUse">
<stop stop-color="#FABE3E"/>
<stop offset="0.3618" stop-color="#F63966"/>
<stop offset="1" stop-color="#007AE8"/>
</linearGradient>
<linearGradient id="paint1_linear_866_583" x1="0.283744" y1="31.6141" x2="35.9283" y2="31.6141" gradientUnits="userSpaceOnUse">
<stop stop-color="#FABE3E"/>
<stop offset="0.3618" stop-color="#F63966"/>
<stop offset="1" stop-color="#007AE8"/>
</linearGradient>
<linearGradient id="paint2_linear_866_583" x1="0.283744" y1="5.38863" x2="35.9283" y2="5.38863" gradientUnits="userSpaceOnUse">
<stop stop-color="#FABE3E"/>
<stop offset="0.3618" stop-color="#F63966"/>
<stop offset="1" stop-color="#007AE8"/>
</linearGradient>
<linearGradient id="paint3_linear_866_583" x1="0.28353" y1="26.1105" x2="35.9281" y2="26.1105" gradientUnits="userSpaceOnUse">
<stop stop-color="#FABE3E"/>
<stop offset="0.3618" stop-color="#F63966"/>
<stop offset="1" stop-color="#007AE8"/>
</linearGradient>
<linearGradient id="paint4_linear_866_583" x1="0.283736" y1="13.106" x2="35.9283" y2="13.106" gradientUnits="userSpaceOnUse">
<stop stop-color="#FABE3E"/>
<stop offset="0.3618" stop-color="#F63966"/>
<stop offset="1" stop-color="#007AE8"/>
</linearGradient>
<linearGradient id="paint5_linear_866_583" x1="0.283609" y1="31.6116" x2="35.9281" y2="31.6116" gradientUnits="userSpaceOnUse">
<stop stop-color="#FABE3E"/>
<stop offset="0.3618" stop-color="#F63966"/>
<stop offset="1" stop-color="#007AE8"/>
</linearGradient>
<linearGradient id="paint6_linear_866_583" x1="0.283719" y1="4.99027" x2="35.9283" y2="4.99027" gradientUnits="userSpaceOnUse">
<stop stop-color="#FABE3E"/>
<stop offset="0.3618" stop-color="#F63966"/>
<stop offset="1" stop-color="#007AE8"/>
</linearGradient>
<linearGradient id="paint7_linear_866_583" x1="0.283802" y1="5.3884" x2="35.9283" y2="5.3884" gradientUnits="userSpaceOnUse">
<stop stop-color="#FABE3E"/>
<stop offset="0.3618" stop-color="#F63966"/>
<stop offset="1" stop-color="#007AE8"/>
</linearGradient>
<linearGradient id="paint8_linear_866_583" x1="0.283726" y1="18.5157" x2="35.9282" y2="18.5157" gradientUnits="userSpaceOnUse">
<stop stop-color="#FABE3E"/>
<stop offset="0.3618" stop-color="#F63966"/>
<stop offset="1" stop-color="#007AE8"/>
</linearGradient>
<linearGradient id="paint9_linear_866_583" x1="0.283724" y1="31.643" x2="35.9282" y2="31.643" gradientUnits="userSpaceOnUse">
<stop stop-color="#FABE3E"/>
<stop offset="0.3618" stop-color="#F63966"/>
<stop offset="1" stop-color="#007AE8"/>
</linearGradient>
<linearGradient id="paint10_linear_866_583" x1="0.283533" y1="18.515" x2="35.9281" y2="18.515" gradientUnits="userSpaceOnUse">
<stop stop-color="#FABE3E"/>
<stop offset="0.3618" stop-color="#F63966"/>
<stop offset="1" stop-color="#007AE8"/>
</linearGradient>
<linearGradient id="paint11_linear_866_583" x1="0.283756" y1="0.515211" x2="35.9283" y2="0.515211" gradientUnits="userSpaceOnUse">
<stop stop-color="#FABE3E"/>
<stop offset="0.3618" stop-color="#F63966"/>
<stop offset="1" stop-color="#007AE8"/>
</linearGradient>
<clipPath id="clip0_866_583">
<rect width="38.4863" height="37" fill="white"/>
</clipPath>
</defs>
</svg>
