<svg width="109" height="62" viewBox="0 0 109 62" fill="none" xmlns="http://www.w3.org/2000/svg">
<path d="M93.6093 45.4236H92.8728C92.5968 45.4236 92.3481 45.2522 92.2529 44.9961C92.1712 44.7842 92.0838 44.5763 91.9886 44.3702C91.872 44.1199 91.9244 43.8233 92.1227 43.6307L92.6473 43.1108C93.4266 42.3328 93.4247 41.0772 92.6435 40.2993L90.7526 38.4255C89.9675 37.6514 88.7005 37.6514 87.9154 38.4255L87.3907 38.9455C87.1944 39.14 86.8971 39.1939 86.6445 39.0784C86.4365 38.984 86.2267 38.8973 86.0129 38.8126C85.7506 38.7183 85.5776 38.4718 85.5795 38.1964V37.4665C85.5795 36.367 84.6798 35.4773 83.5721 35.4773H80.8962C79.7866 35.4773 78.8887 36.3689 78.8887 37.4665V38.1964C78.8887 38.4698 78.7158 38.7163 78.4573 38.8107C78.2436 38.8916 78.0337 38.9782 77.8258 39.0726C77.5731 39.1881 77.2758 39.1361 77.0795 38.9397L76.5548 38.4198C75.7697 37.6476 74.5027 37.6476 73.7176 38.4198L71.8268 40.2993C71.0456 41.0772 71.0456 42.3328 71.8268 43.1108L72.3515 43.6307C72.5497 43.8252 72.6022 44.1199 72.4856 44.3702C72.3903 44.5763 72.3029 44.7842 72.2213 44.9961C72.126 45.256 71.8754 45.4274 71.5975 45.4236H70.861C69.7513 45.4236 68.8535 46.3152 68.8535 47.4128V50.0645C68.8535 51.1641 69.7533 52.0538 70.861 52.0538H71.5975C71.8734 52.0538 72.1222 52.2252 72.2174 52.4813C72.299 52.6931 72.3864 52.9011 72.4817 53.1071C72.5983 53.3575 72.5458 53.654 72.3476 53.8466L71.8229 54.3665C71.0436 55.1445 71.0436 56.4001 71.8229 57.1781L73.7137 59.0518C74.4988 59.8259 75.7659 59.8259 76.551 59.0518L77.0756 58.5318C77.2719 58.3373 77.5692 58.2834 77.8219 58.399C78.0298 58.4933 78.2397 58.58 78.4534 58.6647C78.7158 58.7571 78.8907 59.0036 78.8907 59.2809V60.0108C78.8907 61.1104 79.7904 62 80.8981 62H83.5741C84.6837 62 85.5815 61.1084 85.5815 60.0108V59.2809C85.5815 59.0075 85.7544 58.761 86.0129 58.6666C86.2267 58.5858 86.4365 58.4991 86.6445 58.4047C86.8971 58.2892 87.1944 58.3412 87.3907 58.5376L87.9154 59.0576C88.7005 59.8298 89.9675 59.8278 90.7526 59.0537L92.6435 57.18C93.4247 56.402 93.4247 55.1464 92.6435 54.3685L92.1188 53.8485C91.9205 53.654 91.8681 53.3594 91.9847 53.1091C92.0799 52.903 92.1673 52.695 92.2529 52.4832C92.3481 52.2232 92.5968 52.0518 92.8747 52.0538H93.6112C94.7208 52.0538 95.6187 51.1622 95.6187 50.0645V47.4128C95.6187 46.3132 94.7189 45.4236 93.6112 45.4236H93.6093ZM94.2778 50.0645C94.2778 50.4304 93.9785 50.727 93.6093 50.727H92.8728C92.041 50.7308 91.2967 51.2392 90.9994 52.0095C90.9275 52.1943 90.8517 52.3773 90.7701 52.5583C90.4261 53.3112 90.5855 54.1951 91.1724 54.7844L91.6951 55.3044C91.9575 55.5624 91.9575 55.9822 91.6951 56.2422L89.8043 58.1159C89.5439 58.3739 89.1202 58.3739 88.8579 58.1159L88.3332 57.5959C87.7405 57.0144 86.8466 56.8565 86.0867 57.1973C85.906 57.2782 85.7214 57.3552 85.5348 57.4246C84.7595 57.7192 84.2445 58.4567 84.2406 59.279V60.0089C84.2406 60.3747 83.9413 60.6713 83.5721 60.6713H80.8962C80.5269 60.6713 80.2277 60.3747 80.2277 60.0089V59.279C80.2238 58.4548 79.7108 57.7173 78.9334 57.4226C78.7469 57.3514 78.5623 57.2763 78.3796 57.1954C77.6198 56.8545 76.7278 57.0125 76.1331 57.594L75.6084 58.112C75.348 58.372 74.9244 58.372 74.6621 58.112L72.7712 56.2402C72.5108 55.9822 72.5108 55.5624 72.7712 55.3024L73.2959 54.7825C73.8828 54.1952 74.0421 53.3093 73.6982 52.5564C73.6166 52.3773 73.5388 52.1943 73.4689 52.0095C73.1715 51.2392 72.4292 50.7289 71.5975 50.725H70.861C70.4917 50.725 70.1925 50.4285 70.1925 50.0626V47.4109C70.1925 47.045 70.4917 46.7484 70.861 46.7484H71.5975C72.4292 46.7446 73.1735 46.2362 73.4708 45.4659C73.5427 45.2811 73.6185 45.0981 73.7001 44.9171C74.0441 44.1642 73.8847 43.2803 73.2979 42.691L72.7712 42.171C72.5089 41.913 72.5089 41.4932 72.7712 41.2332L74.6621 39.3595C74.9225 39.1015 75.3461 39.1015 75.6084 39.3595L76.1331 39.8795C76.7258 40.461 77.6198 40.6189 78.3796 40.2781C78.5603 40.1972 78.7449 40.1202 78.9315 40.0508C79.7088 39.7562 80.2238 39.0206 80.2277 38.1964V37.4665C80.2277 37.1007 80.5269 36.8041 80.8962 36.8041H83.5721C83.9413 36.8041 84.2406 37.1007 84.2406 37.4665V38.1964C84.2445 39.0206 84.7575 39.7581 85.5348 40.0528C85.7214 40.124 85.906 40.1991 86.0887 40.28C86.8485 40.6209 87.7405 40.4629 88.3351 39.8814L88.8598 39.3634C89.1222 39.1053 89.5439 39.1053 89.8062 39.3634L91.6971 41.2371C91.9575 41.4951 91.9575 41.9149 91.6971 42.1749L91.1724 42.6948C90.5874 43.2822 90.4261 44.168 90.7701 44.921C90.8517 45.1 90.9295 45.283 90.9994 45.4679C91.2967 46.2362 92.041 46.7465 92.8708 46.7504H93.6073C93.9766 46.7504 94.2758 47.0469 94.2758 47.4128V50.0645H94.2778Z" fill="url(#paint0_linear_1520_2058)"/>
<path d="M88.2421 48.474C88.2362 48.3142 88.2246 48.1563 88.2052 47.9984C88.1838 47.8289 88.1585 47.6594 88.1235 47.4958C88.1002 47.3879 88.0691 47.2801 88.04 47.1742C88.003 47.0374 87.9603 46.9026 87.9137 46.7698C87.8806 46.6773 87.8476 46.5868 87.8126 46.4944C87.7271 46.2826 87.628 46.0746 87.5172 45.8743C87.5094 45.8589 87.5036 45.8416 87.4939 45.8281C87.319 45.5219 87.1188 45.2292 86.8915 44.9596C86.872 44.9365 86.8507 44.9134 86.8293 44.8903C86.736 44.7824 86.6427 44.6765 86.5417 44.5764C86.4892 44.5225 86.4348 44.4724 86.3804 44.4204C86.3143 44.3588 86.2463 44.2972 86.1802 44.2394C86.0986 44.1701 86.017 44.1027 85.9315 44.0372L85.8227 43.9563C84.7869 43.188 83.5276 42.772 82.2353 42.7739C82.1692 42.7739 82.1012 42.7836 82.0352 42.7874C81.8933 42.7913 81.7495 42.799 81.6057 42.8144C81.5299 42.8221 81.4541 42.8317 81.3783 42.8413C81.1607 42.8702 80.943 42.9107 80.7293 42.9607C77.5073 43.7849 75.5698 47.0432 76.4035 50.236C76.9515 52.3408 78.6111 53.9835 80.7351 54.5246C80.7467 54.5246 80.7565 54.5284 80.7681 54.5304C80.9994 54.5881 81.2326 54.6324 81.4697 54.6632C81.6251 54.6825 81.7806 54.6863 81.938 54.694C82.0429 54.6998 82.1382 54.7152 82.247 54.7152C82.4374 54.7152 82.6356 54.7017 82.8377 54.6825C82.8591 54.6825 82.8805 54.6767 82.9038 54.6748C83.067 54.6575 83.2303 54.6324 83.3994 54.5997C83.4654 54.5862 83.5276 54.5708 83.5937 54.5554C83.7122 54.5284 83.8288 54.4995 83.9493 54.4649C84.0426 54.4379 84.1339 54.4052 84.2253 54.3725C84.3166 54.3397 84.4118 54.307 84.507 54.2704C84.6023 54.2338 84.6819 54.1934 84.7674 54.1529C84.8802 54.1009 84.9909 54.0509 85.1017 53.9912H85.1056C85.7294 53.6599 86.3065 53.2478 86.8215 52.7645C86.9595 52.6355 87.0819 52.4891 87.181 52.3293C87.7038 51.4993 88.0458 50.5711 88.1896 49.6044C88.209 49.4773 88.2246 49.3483 88.2343 49.2173C88.244 49.0979 88.2498 48.9786 88.2537 48.8592C88.2537 48.8206 88.2596 48.786 88.2596 48.7475C88.2596 48.6531 88.2518 48.5684 88.246 48.4779L88.2421 48.474ZM86.909 48.9092C86.909 48.9651 86.9051 49.019 86.9012 49.0729C86.8895 49.2327 86.8682 49.3945 86.8409 49.5543C86.5903 50.9331 85.7274 52.1271 84.4895 52.803C84.406 52.8454 84.3244 52.8858 84.2427 52.9243L84.1864 52.9513C83.7977 53.1265 83.3877 53.2498 82.966 53.3172C82.9368 53.321 82.9058 53.3268 82.8766 53.3306C82.793 53.3422 82.7114 53.3518 82.6298 53.3595C82.5229 53.3692 82.4141 53.3749 82.3033 53.3769H82.1634C82.006 53.3769 81.8467 53.3653 81.6892 53.348L81.6096 53.3384C81.425 53.3152 81.2423 53.2806 81.0635 53.2363C78.5566 52.6008 77.0447 50.0724 77.688 47.5882C78.1116 45.9475 79.4039 44.665 81.0596 44.2432C81.4444 44.147 81.8389 44.0969 82.2353 44.0969C82.4258 44.0969 82.6181 44.1104 82.8066 44.1354C82.8572 44.1412 82.9077 44.1508 82.9582 44.1585C83.102 44.1816 83.2458 44.2105 83.3877 44.2452C83.4343 44.2567 83.481 44.2683 83.5257 44.2798C83.8813 44.3819 84.2233 44.5244 84.5459 44.7054C84.5984 44.7343 84.647 44.767 84.6994 44.7979C84.8044 44.8633 84.9074 44.9307 85.0084 45.0058C85.0628 45.0443 85.1172 45.0829 85.1697 45.1252C85.3018 45.2292 85.4262 45.339 85.5467 45.4564C85.5933 45.5046 85.638 45.5566 85.6847 45.6066C85.7624 45.6895 85.8363 45.7742 85.9082 45.8647C85.9567 45.9263 86.0053 45.9899 86.052 46.0534C86.118 46.1497 86.1861 46.2479 86.2463 46.35C86.2793 46.4058 86.3124 46.4578 86.3473 46.5156C86.4329 46.6735 86.5106 46.8352 86.5767 47.0009C86.6039 47.0663 86.6252 47.1337 86.6505 47.1992C86.6933 47.3205 86.7321 47.4438 86.7652 47.5689C86.7827 47.6344 86.8001 47.6941 86.8137 47.7577C86.8526 47.9367 86.8818 48.1178 86.8993 48.3007C86.9031 48.3489 86.9031 48.3989 86.907 48.4471C86.9167 48.5992 86.9187 48.7532 86.9128 48.9073L86.909 48.9092Z" fill="url(#paint1_linear_1520_2058)"/>
<path d="M106.993 36.1398H104.888C104.609 36.1417 104.356 35.9684 104.265 35.7046C104.057 35.0884 103.806 34.4876 103.513 33.906C103.388 33.6556 103.441 33.3533 103.641 33.1569L105.133 31.676C105.916 30.9 105.916 29.6406 105.133 28.8645L102.288 26.0491C101.505 25.2731 100.234 25.2731 99.4511 26.0491L97.9586 27.5261C97.7604 27.7245 97.4573 27.7765 97.2046 27.6532C96.6178 27.3624 96.0115 27.1121 95.3896 26.9041C95.1234 26.8136 94.9446 26.5652 94.9485 26.286V24.2004C94.9485 23.1009 94.0487 22.2112 92.941 22.2112H88.9262C87.8165 22.2112 86.9187 23.1028 86.9187 24.2004V26.286C86.9207 26.5633 86.7458 26.8136 86.4795 26.9041C85.8577 27.1102 85.2514 27.3605 84.6645 27.6513C84.4119 27.7745 84.1068 27.7245 83.9085 27.5242L82.4141 26.0453C81.6291 25.2711 80.3601 25.2711 79.5769 26.0453L76.7378 28.8587C75.9546 29.6348 75.9546 30.8942 76.7378 31.6722L78.9317 33.8501C79.198 34.1043 79.6216 34.0986 79.8781 33.8347C80.1288 33.5786 80.1288 33.1704 79.8781 32.9143L77.6822 30.7363C77.4218 30.4782 77.4218 30.0584 77.6822 29.7985L80.5214 26.985C80.7818 26.727 81.2054 26.727 81.4678 26.985L82.9622 28.4639C83.5665 29.0667 84.4935 29.2169 85.2611 28.8375C85.7916 28.5737 86.3396 28.3484 86.9012 28.1616C87.7116 27.8901 88.2577 27.1333 88.2538 26.284V24.1985C88.2538 23.8326 88.553 23.5361 88.9223 23.5361H92.9371C93.3064 23.5361 93.6056 23.8326 93.6056 24.1985V26.284C93.6018 27.1333 94.1478 27.8882 94.9582 28.1597C95.5198 28.3465 96.0678 28.5718 96.5983 28.8356C97.3659 29.213 98.291 29.0628 98.8973 28.4601L100.392 26.9812C100.652 26.7231 101.076 26.7231 101.338 26.9812L104.177 29.7965C104.438 30.0546 104.438 30.4744 104.177 30.7344L102.685 32.2152C102.077 32.8141 101.925 33.7327 102.308 34.4933C102.574 35.019 102.801 35.5621 102.99 36.1186C103.264 36.9236 104.028 37.4628 104.885 37.4589H106.989C107.358 37.4589 107.658 37.7555 107.658 38.1214V42.0999C107.658 42.4657 107.358 42.7623 106.989 42.7623H104.885C104.028 42.7585 103.266 43.2996 102.992 44.1026C102.803 44.6591 102.576 45.2022 102.31 45.7279C101.929 46.4885 102.08 47.4071 102.689 48.006L104.181 49.4869C104.442 49.7449 104.442 50.1647 104.181 50.4247L101.34 53.2381C101.08 53.4962 100.656 53.4962 100.394 53.2381L98.1938 51.064C97.9373 50.8002 97.5136 50.7944 97.2474 51.0486C96.9812 51.3028 96.9753 51.7226 97.2318 51.9864C97.2377 51.9922 97.2435 51.998 97.2474 52.0018L99.4453 54.176C100.228 54.952 101.499 54.952 102.283 54.176L105.122 51.3625C105.905 50.5864 105.905 49.327 105.122 48.5491L103.631 47.0701C103.431 46.8737 103.379 46.5733 103.503 46.3229C103.796 45.7414 104.049 45.1406 104.259 44.5243C104.35 44.2605 104.601 44.0833 104.883 44.0872H106.987C108.097 44.0872 108.995 43.1956 108.995 42.0979V38.1194C108.995 37.0199 108.095 36.1302 106.987 36.1302L106.993 36.1398Z" fill="url(#paint2_linear_1520_2058)"/>
<path d="M97.0835 34.0234C93.6846 30.6611 88.1812 30.6611 84.7824 34.0234C84.5258 34.2872 84.5336 34.707 84.7979 34.9612C85.0564 35.2097 85.4683 35.2097 85.7268 34.9612C88.5815 32.0939 93.2435 32.0631 96.1371 34.8919C99.0307 37.7208 99.0618 42.3405 96.207 45.2079C96.1837 45.231 96.1604 45.2541 96.1371 45.2772C95.8709 45.5314 95.8631 45.9512 96.1215 46.2151C96.3781 46.4789 96.8017 46.4866 97.0679 46.2305C97.0738 46.2247 97.0796 46.2189 97.0835 46.2151C100.476 42.847 100.476 37.3934 97.0835 34.0253V34.0234Z" fill="url(#paint3_linear_1520_2058)"/>
<path d="M69.6014 48.6029H62.384V17.1658H50.831C50.4016 17.1658 50.0537 16.8211 50.0537 16.3955C50.0537 15.9699 50.4016 15.6252 50.831 15.6252H63.9386V47.0624H69.6014C70.0309 47.0624 70.3787 47.4071 70.3787 47.8327C70.3787 48.2582 70.0309 48.6029 69.6014 48.6029Z" fill="url(#paint4_linear_1520_2058)"/>
<path d="M21.2986 5.04331V22.6057H1.16598V7.6122L21.2986 5.04524V5.04331ZM22.4646 3.73191L21.149 3.89944L1.01635 6.46641L0 6.59543V23.7612H22.4646V3.72998V3.73191Z" fill="url(#paint5_linear_1520_2058)"/>
<path d="M49.8341 1.32103V22.6059H28.4033V4.16337L49.8341 1.32103ZM51 0L49.6786 0.175239L28.2478 3.01758L27.2373 3.15238V23.7613H51V0V0Z" fill="url(#paint6_linear_1520_2058)"/>
<path d="M28.4033 29.7252L49.8341 29.7541V51.4433L28.4033 48.5721V29.7252ZM27.2373 28.5679V49.5812L28.2478 49.716L49.6786 52.5872L51 52.7644V28.6006H49.836L28.4052 28.5698H27.2373V28.5679Z" fill="url(#paint7_linear_1520_2058)"/>
<path d="M21.2982 29.7135V47.6784L1.27829 45.1538V29.7559L21.2963 29.7155L21.2982 29.7135ZM22.4623 28.5581H21.2943L1.27634 28.6024H0.112305V46.1745L1.1306 46.3035L21.1486 48.8281L22.4623 48.9937V28.5581Z" fill="url(#paint8_linear_1520_2058)"/>
<defs>
<linearGradient id="paint0_linear_1520_2058" x1="-3.69396" y1="62.7973" x2="94.941" y2="46.3637" gradientUnits="userSpaceOnUse">
<stop stop-color="#FABE3E"/>
<stop offset="0.36" stop-color="#F63966"/>
<stop offset="1" stop-color="#007AE8"/>
</linearGradient>
<linearGradient id="paint1_linear_1520_2058" x1="-3.69376" y1="62.7993" x2="94.9412" y2="46.3658" gradientUnits="userSpaceOnUse">
<stop stop-color="#FABE3E"/>
<stop offset="0.36" stop-color="#F63966"/>
<stop offset="1" stop-color="#007AE8"/>
</linearGradient>
<linearGradient id="paint2_linear_1520_2058" x1="-5.01904" y1="54.8384" x2="93.6159" y2="38.4048" gradientUnits="userSpaceOnUse">
<stop stop-color="#FABE3E"/>
<stop offset="0.36" stop-color="#F63966"/>
<stop offset="1" stop-color="#007AE8"/>
</linearGradient>
<linearGradient id="paint3_linear_1520_2058" x1="-4.9828" y1="55.0618" x2="93.6521" y2="38.6262" gradientUnits="userSpaceOnUse">
<stop stop-color="#FABE3E"/>
<stop offset="0.36" stop-color="#F63966"/>
<stop offset="1" stop-color="#007AE8"/>
</linearGradient>
<linearGradient id="paint4_linear_1520_2058" x1="-6.97452" y1="43.107" x2="91.6604" y2="26.6734" gradientUnits="userSpaceOnUse">
<stop stop-color="#FABE3E"/>
<stop offset="0.36" stop-color="#F63966"/>
<stop offset="1" stop-color="#007AE8"/>
</linearGradient>
<linearGradient id="paint5_linear_1520_2058" x1="-11.0205" y1="18.8198" x2="87.6125" y2="2.38427" gradientUnits="userSpaceOnUse">
<stop stop-color="#FABE3E"/>
<stop offset="0.36" stop-color="#F63966"/>
<stop offset="1" stop-color="#007AE8"/>
</linearGradient>
<linearGradient id="paint6_linear_1520_2058" x1="-10.56" y1="21.5852" x2="88.0749" y2="5.1497" gradientUnits="userSpaceOnUse">
<stop stop-color="#FABE3E"/>
<stop offset="0.36" stop-color="#F63966"/>
<stop offset="1" stop-color="#007AE8"/>
</linearGradient>
<linearGradient id="paint7_linear_1520_2058" x1="-6.14674" y1="48.0733" x2="92.4882" y2="31.6378" gradientUnits="userSpaceOnUse">
<stop stop-color="#FABE3E"/>
<stop offset="0.36" stop-color="#F63966"/>
<stop offset="1" stop-color="#007AE8"/>
</linearGradient>
<linearGradient id="paint8_linear_1520_2058" x1="-7.18869" y1="41.8185" x2="91.4443" y2="25.3849" gradientUnits="userSpaceOnUse">
<stop stop-color="#FABE3E"/>
<stop offset="0.36" stop-color="#F63966"/>
<stop offset="1" stop-color="#007AE8"/>
</linearGradient>
</defs>
</svg>
