<svg width="71" height="71" viewBox="0 0 71 71" fill="none" xmlns="http://www.w3.org/2000/svg">
<g clip-path="url(#clip0_898_2429)">
<path d="M68.8107 0H50.4636C50.0293 0 49.6855 0.343782 49.6855 0.778033V7.2737C49.6855 8.39552 50.6083 9.3183 51.7301 9.3183H51.8749C52.4177 9.3183 52.9243 9.10117 53.3405 8.70311C53.8471 8.17839 54.5528 7.90698 55.2765 7.90698C56.0546 7.90698 56.8145 8.23267 57.3211 8.82977C57.8458 9.42686 58.0992 10.1868 58.0087 10.9829C57.8639 12.2314 56.8688 13.2446 55.6203 13.4075C54.7699 13.5161 53.9376 13.2266 53.3405 12.6295C52.9424 12.2314 52.4177 12.0143 51.8749 12.0143H51.7301C50.6083 12.0143 49.6855 12.9371 49.6855 14.0589V20.5545C49.6855 20.9888 50.0293 21.3326 50.4636 21.3326H56.9592C57.2307 21.3326 57.4478 21.5497 57.4478 21.8211V21.9659C57.4478 22.0925 57.3935 22.2192 57.2849 22.3277C56.3441 23.2686 55.9098 24.5714 56.0726 25.8922C56.3079 27.8463 57.9001 29.4205 59.8542 29.6376C60.0171 29.6557 60.1618 29.6557 60.3428 29.6557C61.4103 29.6557 62.4417 29.2757 63.2197 28.552C64.1244 27.7378 64.6491 26.5617 64.6491 25.3494C64.6491 24.2095 64.1968 23.1239 63.4006 22.3096C63.2921 22.2011 63.2378 22.0744 63.2378 21.9478V21.803C63.2378 21.5316 63.4549 21.3145 63.7263 21.3145H70.222C70.6562 21.3145 71 20.9707 71 20.5364V2.18935C71 0.977064 70.023 0 68.8107 0ZM69.8058 19.487C69.8058 19.8308 69.5163 20.1203 69.1725 20.1203H63.7263C62.8035 20.1203 62.0436 20.8802 62.0436 21.803V21.9478C62.0436 22.4001 62.2245 22.8163 62.5502 23.1419C63.1292 23.7209 63.4549 24.499 63.4549 25.3313C63.4549 26.2179 63.0749 27.0683 62.4236 27.6473C61.8446 28.1539 61.1208 28.4434 60.3428 28.4434C60.2161 28.4434 60.1076 28.4434 59.9809 28.4253C58.5696 28.2625 57.4116 27.1407 57.2487 25.7294C57.1221 24.7704 57.4478 23.8295 58.1173 23.1419C58.4429 22.8163 58.6239 22.382 58.6239 21.9297V21.7849C58.6239 20.8621 57.8639 20.1022 56.9412 20.1022H51.4949C51.1511 20.1022 50.8616 19.8127 50.8616 19.4689V14.0408C50.8616 13.5703 51.2416 13.1904 51.712 13.1904H51.8568C52.0739 13.1904 52.3091 13.2808 52.472 13.4618C53.2138 14.2036 54.1909 14.6017 55.2403 14.6017C55.4032 14.6017 55.566 14.5836 55.7289 14.5655C57.5202 14.3484 58.9496 12.8828 59.1486 11.0915C59.2752 9.96967 58.9134 8.84786 58.1715 8.01555C57.4297 7.18323 56.3621 6.6947 55.2403 6.6947C54.1909 6.6947 53.2138 7.09276 52.4539 7.83461C52.291 7.99745 52.0739 8.10601 51.8387 8.10601H51.694C51.2235 8.10601 50.8435 7.72605 50.8435 7.25561V1.82747C50.8435 1.48369 51.133 1.19419 51.4768 1.19419H68.7745C69.3173 1.19419 69.7696 1.64653 69.7696 2.18935V19.487H69.8058Z" fill="url(#paint0_linear_898_2429)"/>
<path d="M70.2223 49.6856H63.7266C62.6048 49.6856 61.682 50.6084 61.682 51.7302V51.8749C61.682 52.4177 61.8992 52.9425 62.2972 53.3224C62.822 53.8471 63.0934 54.5347 63.0934 55.2585C63.0934 56.0365 62.7677 56.7964 62.1706 57.3031C61.5916 57.8278 60.8135 58.0811 60.0174 57.9906C58.7689 57.8459 57.7557 56.8507 57.6109 55.6022C57.5024 54.7518 57.7919 53.9195 58.389 53.3224C58.787 52.9244 59.0042 52.3996 59.0042 51.8568V51.7121C59.0042 50.5903 58.0814 49.6675 56.9596 49.6675H50.4639C50.0296 49.6675 49.6859 50.0113 49.6859 50.4455V56.9412C49.6859 57.2126 49.4687 57.4297 49.1973 57.4297H49.0526C48.9259 57.4297 48.7993 57.3754 48.6907 57.2669C47.7498 56.3441 46.4652 55.8917 45.1262 56.0546C43.1721 56.2898 41.5979 57.8821 41.3808 59.8362C41.2361 61.0666 41.6341 62.2788 42.4484 63.2016C43.2626 64.1063 44.4387 64.631 45.651 64.631C46.7909 64.631 47.8765 64.1787 48.6907 63.3826C48.7993 63.274 48.9259 63.2197 49.0526 63.2197H49.4145C49.5592 63.2197 49.6859 63.3464 49.6859 63.4911V70.2039C49.6859 70.6382 50.0296 70.982 50.4639 70.982H68.811C70.0233 70.982 71.0003 70.0049 71.0003 68.7926V50.4636C71.0003 50.0294 70.6566 49.6856 70.2223 49.6856ZM69.8062 68.8107C69.8062 69.3535 69.3538 69.8059 68.811 69.8059H51.5133C51.1696 69.8059 50.8801 69.5164 50.8801 69.1726V62.4598C50.8801 62.2246 50.6991 62.0436 50.4639 62.0436H49.0526C48.6002 62.0436 48.1841 62.2246 47.8584 62.5503C47.2794 63.1293 46.5014 63.4549 45.669 63.4549C44.7825 63.4549 43.932 63.075 43.353 62.4236C42.7559 61.7541 42.4845 60.8856 42.575 59.9809C42.7379 58.5696 43.8597 57.4297 45.271 57.2488C45.3976 57.2307 45.5243 57.2307 45.651 57.2307C46.4833 57.2307 47.2613 57.5564 47.8403 58.1354C48.166 58.4611 48.6002 58.642 49.0526 58.642H49.1973C50.1201 58.642 50.8801 57.8821 50.8801 56.9593V51.513C50.8801 51.1693 51.1696 50.8798 51.5133 50.8798H56.9596C57.43 50.8798 57.81 51.2597 57.81 51.7302V51.8749C57.81 52.092 57.7195 52.3273 57.5386 52.4901C56.6882 53.3586 56.272 54.5528 56.4348 55.7651C56.652 57.5564 58.1176 58.9858 59.9089 59.1848C60.0536 59.2029 60.1984 59.2029 60.3431 59.2029C61.3202 59.2029 62.261 58.841 62.9848 58.1897C63.8171 57.4478 64.3056 56.3803 64.3056 55.2585C64.3056 54.209 63.9076 53.2139 63.1657 52.472C63.0029 52.3092 62.8943 52.074 62.8943 51.8568V51.7121C62.8943 51.2416 63.2743 50.8617 63.7447 50.8617H69.191C69.5347 50.8617 69.8242 51.1512 69.8242 51.495V68.8107H69.8062Z" fill="url(#paint1_linear_898_2429)"/>
<path d="M15.3978 57.6105C15.5064 57.5924 15.633 57.5924 15.7416 57.5924C16.4653 57.5924 17.171 57.8819 17.6776 58.3886C18.0757 58.7866 18.6004 59.0037 19.1432 59.0037H19.2699C20.3917 59.0037 21.3145 58.081 21.3145 56.9591V50.4635C21.3145 50.0292 20.9707 49.6854 20.5364 49.6854H14.0408C13.7694 49.6854 13.5522 49.4683 13.5522 49.1969V49.0522C13.5522 48.9255 13.6065 48.7808 13.7151 48.6903C14.656 47.7494 15.0902 46.4467 14.9274 45.1258C14.6922 43.1717 13.0999 41.5975 11.1458 41.3804C10.9829 41.3623 10.8201 41.3623 10.6753 41.3623C9.6078 41.3623 8.59455 41.7604 7.79842 42.466C6.89373 43.2802 6.36901 44.4563 6.36901 45.6686C6.36901 46.8085 6.82136 47.8942 7.63558 48.7084C7.76223 48.835 7.78033 48.9798 7.78033 49.0703V49.215C7.78033 49.4864 7.5632 49.7035 7.29179 49.7035H0.778033C0.343782 49.7035 0 50.0473 0 50.4816V68.8287C0 70.0409 0.977064 71.018 2.18935 71.018H20.5364C20.9707 71.018 21.3145 70.6742 21.3145 70.24V63.7443C21.3145 62.6225 20.3917 61.6997 19.2699 61.6997H19.1432C18.6004 61.6997 18.0757 61.9168 17.6957 62.3149C17.171 62.8396 16.4834 63.111 15.7597 63.111C14.9817 63.111 14.2217 62.7673 13.7151 62.1882C13.1904 61.5912 12.9371 60.8312 13.0275 60.0351C13.1361 58.7866 14.1493 57.7734 15.3978 57.6105ZM12.8104 62.9663C13.5522 63.7986 14.6198 64.2871 15.7416 64.2871C16.791 64.2871 17.7862 63.8891 18.528 63.1472C18.6366 63.0567 18.8356 62.8758 19.1432 62.8758H19.2699C19.7403 62.8758 20.1203 63.2558 20.1203 63.7262V69.1724C20.1203 69.5162 19.8308 69.8057 19.487 69.8057H2.18935C1.64653 69.8057 1.19419 69.3534 1.19419 68.8106V51.5129C1.19419 51.1691 1.48369 50.8796 1.82747 50.8796H7.2737C8.19648 50.8796 8.95642 50.1197 8.95642 49.1969V49.0522C8.95642 48.5998 8.77549 48.1837 8.4498 47.8399C7.8708 47.2609 7.54511 46.4828 7.54511 45.6505C7.54511 44.7639 7.92508 43.9135 8.57645 43.3345C9.24592 42.7374 10.0963 42.466 11.001 42.5565C12.4123 42.7193 13.5703 43.8412 13.7332 45.2525C13.8417 46.2114 13.5341 47.1523 12.8466 47.8399C12.5209 48.1656 12.34 48.5998 12.34 49.0522V49.1969C12.34 50.1197 13.0999 50.8796 14.0227 50.8796H19.4689C19.8127 50.8796 20.1022 51.1691 20.1022 51.5129V56.9591C20.1022 57.4296 19.7222 57.8096 19.2518 57.8096H19.1251C18.908 57.8096 18.6728 57.7191 18.5099 57.5381C17.7681 56.7963 16.791 56.3982 15.7416 56.3982C15.5787 56.3982 15.4159 56.3982 15.2531 56.4344C13.4618 56.6515 12.0324 58.1171 11.8333 59.9084C11.6886 61.0122 12.0505 62.134 12.8104 62.9663Z" fill="url(#paint2_linear_898_2429)"/>
<path d="M28.552 7.78033C27.7378 6.87564 26.5617 6.35092 25.3494 6.35092C24.2095 6.35092 23.1239 6.80326 22.3096 7.59939C22.2011 7.70795 22.0744 7.76223 21.9478 7.76223H21.803C21.5316 7.76223 21.3145 7.54511 21.3145 7.2737V0.778033C21.3145 0.343782 20.9707 0 20.5364 0H2.18935C0.977064 0 0 0.977064 0 2.18935V20.5364C0 20.9707 0.343782 21.3145 0.778033 21.3145H7.2737C8.39551 21.3145 9.3183 20.3917 9.3183 19.2699V19.1251C9.3183 18.5823 9.10117 18.0576 8.70311 17.6595C8.17839 17.1348 7.90698 16.4472 7.90698 15.7235C7.90698 14.9455 8.23267 14.1855 8.82977 13.6789C9.40877 13.1542 10.2049 12.9009 10.9829 12.9913C12.2314 13.1361 13.2446 14.1312 13.3894 15.3797C13.498 16.2301 13.2085 17.0624 12.6114 17.6595C12.2133 18.0576 11.9962 18.5823 11.9962 19.1251V19.2699C11.9962 20.3917 12.919 21.3145 14.0408 21.3145H20.5364C20.9707 21.3145 21.3145 20.9707 21.3145 20.5364V14.0408C21.3145 13.7694 21.5316 13.5522 21.803 13.5522H21.9478C22.0744 13.5522 22.2011 13.6065 22.3096 13.7151C23.1239 14.5112 24.1914 14.9636 25.3494 14.9636C25.5303 14.9636 25.7113 14.9455 25.8922 14.9274C27.8463 14.6922 29.4205 13.0999 29.6376 11.1458C29.7462 9.91539 29.3662 8.70311 28.552 7.78033ZM23.1419 12.8647C22.8163 12.539 22.382 12.3581 21.9297 12.3581H21.7849C20.8621 12.3581 20.1022 13.118 20.1022 14.0408V19.487C20.1022 19.8308 19.8127 20.1203 19.4689 20.1203H14.0408C13.5703 20.1203 13.1904 19.7403 13.1904 19.2699V19.1251C13.1904 18.908 13.2808 18.6728 13.4618 18.5099C14.3122 17.6414 14.7283 16.4472 14.5655 15.235C14.3484 13.4437 12.8828 12.0143 11.0915 11.8152C10.9467 11.7971 10.802 11.7971 10.6572 11.7971C9.68017 11.7971 8.7393 12.159 8.01554 12.7923C7.18323 13.5341 6.6947 14.6017 6.6947 15.7235C6.6947 16.7729 7.11086 17.75 7.83461 18.5099C7.99745 18.6909 8.10601 18.908 8.10601 19.1251V19.2699C8.10601 19.7403 7.72604 20.1203 7.25561 20.1203H1.82747C1.48369 20.1203 1.19419 19.8308 1.19419 19.487V2.18935C1.19419 1.64653 1.64653 1.19419 2.18935 1.19419H19.487C19.8308 1.19419 20.1203 1.48369 20.1203 1.82747V7.2737C20.1203 8.19648 20.8802 8.95642 21.803 8.95642H21.9478C22.4001 8.95642 22.8163 8.77549 23.1419 8.4498C23.7209 7.8708 24.5171 7.54511 25.3313 7.54511C26.2179 7.54511 27.0683 7.92508 27.6473 8.57645C28.2444 9.24592 28.5158 10.1144 28.4253 11.0191C28.2806 12.4304 27.1407 13.5703 25.7294 13.7513C24.7704 13.8598 23.8295 13.5341 23.1419 12.8647Z" fill="url(#paint3_linear_898_2429)"/>
<path d="M34.7224 10.802C34.7224 11.2362 34.3786 11.58 33.9443 11.58H33.112C32.6778 11.58 32.334 11.2362 32.334 10.802C32.334 10.3677 32.6778 10.0239 33.112 10.0239H33.9443C34.3605 10.0239 34.7224 10.3677 34.7224 10.802Z" fill="url(#paint4_linear_898_2429)"/>
<path d="M41.4884 10.802C41.4884 11.2362 41.1446 11.58 40.7104 11.58H38.6296C38.1953 11.58 37.8516 11.2362 37.8516 10.802C37.8516 10.3677 38.1953 10.0239 38.6296 10.0239H40.7104C41.1446 10.0239 41.4884 10.3677 41.4884 10.802Z" fill="url(#paint5_linear_898_2429)"/>
<path d="M47.0075 10.802C47.0075 11.2362 46.6637 11.58 46.2295 11.58H45.3972C44.9629 11.58 44.6191 11.2362 44.6191 10.802C44.6191 10.3677 44.9629 10.0239 45.3972 10.0239H46.2295C46.6637 10.0239 47.0075 10.3677 47.0075 10.802Z" fill="url(#paint6_linear_898_2429)"/>
<path d="M60.976 33.0935V33.9258C60.976 34.36 60.6322 34.7038 60.198 34.7038C59.7637 34.7038 59.4199 34.36 59.4199 33.9258V33.0935C59.4199 32.6592 59.7637 32.3154 60.198 32.3154C60.6322 32.3154 60.976 32.6773 60.976 33.0935Z" fill="url(#paint7_linear_898_2429)"/>
<path d="M60.976 38.6303V40.7111C60.976 41.1454 60.6322 41.4891 60.198 41.4891C59.7637 41.4891 59.4199 41.1454 59.4199 40.7111V38.6303C59.4199 38.1961 59.7637 37.8523 60.198 37.8523C60.6322 37.8523 60.976 38.1961 60.976 38.6303Z" fill="url(#paint8_linear_898_2429)"/>
<path d="M60.976 45.3974V46.2297C60.976 46.664 60.6322 47.0078 60.198 47.0078C59.7637 47.0078 59.4199 46.664 59.4199 46.2297V45.3974C59.4199 44.9632 59.7637 44.6194 60.198 44.6194C60.6322 44.6194 60.976 44.9632 60.976 45.3974Z" fill="url(#paint9_linear_898_2429)"/>
<path d="M38.6853 60.198C38.6853 60.6322 38.3415 60.976 37.9072 60.976H37.0749C36.6407 60.976 36.2969 60.6322 36.2969 60.198C36.2969 59.7637 36.6407 59.4199 37.0749 59.4199H37.9072C38.3415 59.4199 38.6853 59.7818 38.6853 60.198Z" fill="url(#paint10_linear_898_2429)"/>
<path d="M33.1486 60.198C33.1486 60.6322 32.8048 60.976 32.3705 60.976H30.2897C29.8555 60.976 29.5117 60.6322 29.5117 60.198C29.5117 59.7637 29.8555 59.4199 30.2897 59.4199H32.3886C32.8048 59.4199 33.1486 59.7818 33.1486 60.198Z" fill="url(#paint11_linear_898_2429)"/>
<path d="M26.3806 60.198C26.3806 60.6322 26.0368 60.976 25.6025 60.976H24.7702C24.336 60.976 23.9922 60.6322 23.9922 60.198C23.9922 59.7637 24.336 59.4199 24.7702 59.4199H25.6025C26.0368 59.4199 26.3806 59.7818 26.3806 60.198Z" fill="url(#paint12_linear_898_2429)"/>
<path d="M11.5795 37.0742V37.9065C11.5795 38.3407 11.2357 38.6845 10.8015 38.6845C10.3672 38.6845 10.0234 38.3407 10.0234 37.9065V37.0742C10.0234 36.6399 10.3672 36.2961 10.8015 36.2961C11.2357 36.2961 11.5795 36.6399 11.5795 37.0742Z" fill="url(#paint13_linear_898_2429)"/>
<path d="M11.5795 30.289V32.3879C11.5795 32.8221 11.2357 33.1659 10.8015 33.1659C10.3672 33.1659 10.0234 32.8221 10.0234 32.3879V30.3071C10.0234 29.8728 10.3672 29.5291 10.8015 29.5291C11.2357 29.5291 11.5795 29.8728 11.5795 30.289Z" fill="url(#paint14_linear_898_2429)"/>
<path d="M11.5795 24.7705V25.6028C11.5795 26.037 11.2357 26.3808 10.8015 26.3808C10.3672 26.3808 10.0234 26.037 10.0234 25.6028V24.7705C10.0234 24.3362 10.3672 23.9924 10.8015 23.9924C11.2357 23.9924 11.5795 24.3362 11.5795 24.7705Z" fill="url(#paint15_linear_898_2429)"/>
<path d="M49.9205 39.2091L47.713 37.9426C47.3511 37.7255 47.1521 37.3093 47.1883 36.8751C47.2426 36.4227 47.2607 35.9704 47.2607 35.4999C47.2607 35.0476 47.2426 34.5771 47.1883 34.1248C47.134 33.6905 47.3511 33.2744 47.713 33.0573L49.9205 31.7726C50.3547 31.5193 50.6804 31.1031 50.8071 30.6146C50.9337 30.1261 50.8794 29.6014 50.6261 29.1671L48.5272 25.5483C48.2739 25.1141 47.8578 24.7884 47.3692 24.6617C46.8807 24.5351 46.356 24.6075 45.9217 24.8427L43.7143 26.1273C43.3524 26.3264 42.8639 26.2902 42.5382 26.0369C41.8144 25.4941 41.0183 25.0417 40.186 24.6798C39.7879 24.4989 39.5165 24.1189 39.5165 23.6847V21.1516C39.5165 20.1021 38.6661 19.2517 37.6167 19.2517H33.437C32.3876 19.2517 31.5372 20.1021 31.5372 21.1516V23.6847C31.5372 24.1189 31.2658 24.4989 30.8677 24.6798C30.0354 25.0417 29.2393 25.4941 28.5155 26.0369C28.1717 26.2902 27.6832 26.3264 27.3394 26.1093L25.132 24.8427C24.6977 24.5894 24.173 24.517 23.6845 24.6617C23.1959 24.7884 22.7798 25.1141 22.5265 25.5483L20.4457 29.1671C20.1924 29.6014 20.12 30.1261 20.2467 30.6146C20.3733 31.1031 20.699 31.5193 21.1333 31.7726L23.3407 33.0573C23.7026 33.2744 23.9197 33.6905 23.8654 34.1248C23.8111 34.5771 23.793 35.0295 23.793 35.4818C23.793 35.9342 23.8111 36.4046 23.8654 36.857C23.9197 37.2912 23.7026 37.7074 23.3407 37.9245L21.1333 39.1911C20.699 39.4444 20.3733 39.8605 20.2467 40.3491C20.12 40.8376 20.1743 41.3623 20.4457 41.7966L22.5265 45.4153C22.7798 45.8496 23.1959 46.1753 23.6845 46.3019C24.173 46.4286 24.6977 46.3562 25.132 46.1029L27.3394 44.8363C27.5023 44.7458 27.6832 44.6916 27.8641 44.6916C28.0994 44.6916 28.3346 44.7639 28.5155 44.9087C29.2393 45.4515 30.0354 45.9038 30.8677 46.2657C31.2658 46.4467 31.5372 46.8266 31.5372 47.2609V49.794C31.5372 50.8435 32.3876 51.6939 33.437 51.6939H37.6167C38.6661 51.6939 39.5165 50.8435 39.5165 49.794V47.2609C39.5165 46.8266 39.7879 46.4467 40.186 46.2657C41.0183 45.9038 41.8144 45.4515 42.5382 44.9087C42.882 44.6554 43.3705 44.6192 43.7143 44.8363L45.9217 46.121C46.356 46.3743 46.8807 46.4467 47.3692 46.32C47.8578 46.1933 48.2739 45.8677 48.5272 45.4334L50.6261 41.8147C50.8794 41.3804 50.9518 40.8557 50.8071 40.3672C50.6804 39.8786 50.3547 39.4625 49.9205 39.2091ZM49.5767 41.2176L47.4778 44.8363C47.3873 44.9992 47.2245 45.1258 47.0436 45.162C46.8626 45.2163 46.6636 45.1801 46.5007 45.0896L44.2933 43.8231C43.9495 43.624 43.5695 43.5336 43.1715 43.5336C42.683 43.5336 42.1944 43.6964 41.7964 43.9859C41.145 44.4744 40.4393 44.8906 39.6794 45.2163C38.829 45.5782 38.2862 46.3924 38.2862 47.2971V49.8302C38.2862 50.2283 37.9605 50.554 37.5624 50.554H33.3827C32.9847 50.554 32.659 50.2283 32.659 49.8302V47.2971C32.659 46.3924 32.1162 45.5782 31.2658 45.2163C30.5239 44.8906 29.8002 44.4744 29.1488 43.9859C28.7507 43.6783 28.2803 43.5336 27.7737 43.5336C27.3756 43.5336 26.9956 43.6421 26.6519 43.8231L24.4444 45.0896C24.2816 45.1801 24.0825 45.2163 23.9016 45.162C23.793 45.1258 23.594 45.0534 23.4674 44.8363L21.3685 41.2176C21.2418 41.0004 21.2599 40.7833 21.2961 40.6747C21.3504 40.4938 21.4589 40.331 21.6399 40.2405L23.8473 38.9739C24.6254 38.5216 25.0596 37.6531 24.951 36.7484C24.8968 36.3503 24.8787 35.9342 24.8787 35.518C24.8787 35.1019 24.8968 34.6857 24.951 34.2876C25.0596 33.383 24.6254 32.4964 23.8473 32.0621L21.6399 30.7955C21.4228 30.6689 21.3323 30.4699 21.2961 30.3613C21.2418 30.1804 21.278 29.9813 21.3685 29.8185L23.4674 26.1997C23.5578 26.0369 23.7207 25.9102 23.9016 25.8559C24.0825 25.8017 24.2816 25.8378 24.4444 25.9283L26.6519 27.1949C26.9956 27.3939 27.3756 27.5025 27.7737 27.5025C28.2622 27.5025 28.7507 27.3396 29.1488 27.0501C29.8002 26.5616 30.5239 26.1454 31.2658 25.8198C32.1162 25.4579 32.659 24.6256 32.659 23.7209V21.1877C32.659 20.7897 32.9847 20.464 33.3827 20.464H37.5624C37.9605 20.464 38.2862 20.7897 38.2862 21.1877V23.7209C38.2862 24.6256 38.829 25.4398 39.6794 25.8198C40.4212 26.1454 41.145 26.5616 41.7964 27.0501C42.1944 27.3396 42.6649 27.5025 43.1715 27.5025C43.5695 27.5025 43.9495 27.3939 44.2933 27.1949L46.5007 25.9283C46.6636 25.8378 46.8626 25.8017 47.0436 25.8559C47.1521 25.8921 47.3511 25.9645 47.4778 26.1997L49.5767 29.8185C49.7033 30.0356 49.6672 30.2527 49.6491 30.3613C49.5948 30.5422 49.4862 30.7051 49.3234 30.7955L47.1159 32.0621C46.3379 32.5145 45.9036 33.383 46.0122 34.2876C46.0665 34.6857 46.0846 35.1019 46.0846 35.518C46.0846 35.9342 46.0665 36.3503 46.0122 36.7484C45.9036 37.6531 46.3379 38.5216 47.1159 38.9739L49.3234 40.2405C49.5405 40.3671 49.631 40.5662 49.6491 40.6747C49.7033 40.8557 49.6852 41.0547 49.5767 41.2176Z" fill="url(#paint16_linear_898_2429)"/>
<path d="M35.5001 28.0273C31.3747 28.0273 28.0273 31.3747 28.0273 35.5001C28.0273 39.6255 31.3747 42.9728 35.5001 42.9728C39.6255 42.9728 42.9728 39.6255 42.9728 35.5001C42.9728 31.3747 39.6255 28.0273 35.5001 28.0273ZM35.5001 41.7786C32.0261 41.7786 29.2215 38.956 29.2215 35.5001C29.2215 32.0442 32.0442 29.2215 35.5001 29.2215C38.956 29.2215 41.7786 32.0442 41.7786 35.5001C41.7786 38.9741 38.9741 41.7786 35.5001 41.7786Z" fill="url(#paint17_linear_898_2429)"/>
<path d="M35.4999 32.3518C33.7629 32.3518 32.3516 33.7631 32.3516 35.5001C32.3516 37.2371 33.7629 38.6484 35.4999 38.6484C37.2369 38.6484 38.6482 37.2371 38.6482 35.5001C38.6482 33.7631 37.2369 32.3518 35.4999 32.3518ZM35.4999 37.4543C34.4143 37.4543 33.5458 36.5858 33.5458 35.5001C33.5458 34.4326 34.4143 33.546 35.4999 33.546C36.5674 33.546 37.454 34.4145 37.454 35.5001C37.454 36.5858 36.5855 37.4543 35.4999 37.4543Z" fill="url(#paint18_linear_898_2429)"/>
</g>
<defs>
<linearGradient id="paint0_linear_898_2429" x1="-0.536273" y1="14.8215" x2="70.5708" y2="14.8215" gradientUnits="userSpaceOnUse">
<stop stop-color="#EFB33E"/>
<stop offset="0.3618" stop-color="#EB3966"/>
<stop offset="1" stop-color="#007ADD"/>
</linearGradient>
<linearGradient id="paint1_linear_898_2429" x1="-0.535958" y1="60.3447" x2="70.5712" y2="60.3447" gradientUnits="userSpaceOnUse">
<stop stop-color="#EFB33E"/>
<stop offset="0.3618" stop-color="#EB3966"/>
<stop offset="1" stop-color="#007ADD"/>
</linearGradient>
<linearGradient id="paint2_linear_898_2429" x1="-0.5363" y1="56.1802" x2="70.5708" y2="56.1802" gradientUnits="userSpaceOnUse">
<stop stop-color="#EFB33E"/>
<stop offset="0.3618" stop-color="#EB3966"/>
<stop offset="1" stop-color="#007ADD"/>
</linearGradient>
<linearGradient id="paint3_linear_898_2429" x1="-0.5363" y1="10.6573" x2="70.5708" y2="10.6573" gradientUnits="userSpaceOnUse">
<stop stop-color="#EFB33E"/>
<stop offset="0.3618" stop-color="#EB3966"/>
<stop offset="1" stop-color="#007ADD"/>
</linearGradient>
<linearGradient id="paint4_linear_898_2429" x1="-0.535897" y1="10.7984" x2="70.5712" y2="10.7984" gradientUnits="userSpaceOnUse">
<stop stop-color="#EFB33E"/>
<stop offset="0.3618" stop-color="#EB3966"/>
<stop offset="1" stop-color="#007ADD"/>
</linearGradient>
<linearGradient id="paint5_linear_898_2429" x1="-0.53694" y1="10.7984" x2="70.5702" y2="10.7984" gradientUnits="userSpaceOnUse">
<stop stop-color="#EFB33E"/>
<stop offset="0.3618" stop-color="#EB3966"/>
<stop offset="1" stop-color="#007ADD"/>
</linearGradient>
<linearGradient id="paint6_linear_898_2429" x1="-0.536365" y1="10.7984" x2="70.5707" y2="10.7984" gradientUnits="userSpaceOnUse">
<stop stop-color="#EFB33E"/>
<stop offset="0.3618" stop-color="#EB3966"/>
<stop offset="1" stop-color="#007ADD"/>
</linearGradient>
<linearGradient id="paint7_linear_898_2429" x1="-0.536404" y1="33.5151" x2="70.5708" y2="33.5151" gradientUnits="userSpaceOnUse">
<stop stop-color="#EFB33E"/>
<stop offset="0.3618" stop-color="#EB3966"/>
<stop offset="1" stop-color="#007ADD"/>
</linearGradient>
<linearGradient id="paint8_linear_898_2429" x1="-0.536404" y1="39.6653" x2="70.5708" y2="39.6653" gradientUnits="userSpaceOnUse">
<stop stop-color="#EFB33E"/>
<stop offset="0.3618" stop-color="#EB3966"/>
<stop offset="1" stop-color="#007ADD"/>
</linearGradient>
<linearGradient id="paint9_linear_898_2429" x1="-0.536404" y1="45.8154" x2="70.5708" y2="45.8154" gradientUnits="userSpaceOnUse">
<stop stop-color="#EFB33E"/>
<stop offset="0.3618" stop-color="#EB3966"/>
<stop offset="1" stop-color="#007ADD"/>
</linearGradient>
<linearGradient id="paint10_linear_898_2429" x1="-0.535544" y1="60.2034" x2="70.5716" y2="60.2034" gradientUnits="userSpaceOnUse">
<stop stop-color="#EFB33E"/>
<stop offset="0.3618" stop-color="#EB3966"/>
<stop offset="1" stop-color="#007ADD"/>
</linearGradient>
<linearGradient id="paint11_linear_898_2429" x1="-0.535526" y1="60.2034" x2="70.5716" y2="60.2034" gradientUnits="userSpaceOnUse">
<stop stop-color="#EFB33E"/>
<stop offset="0.3618" stop-color="#EB3966"/>
<stop offset="1" stop-color="#007ADD"/>
</linearGradient>
<linearGradient id="paint12_linear_898_2429" x1="-0.536462" y1="60.2034" x2="70.5706" y2="60.2034" gradientUnits="userSpaceOnUse">
<stop stop-color="#EFB33E"/>
<stop offset="0.3618" stop-color="#EB3966"/>
<stop offset="1" stop-color="#007ADD"/>
</linearGradient>
<linearGradient id="paint13_linear_898_2429" x1="-0.536816" y1="37.4867" x2="70.5703" y2="37.4867" gradientUnits="userSpaceOnUse">
<stop stop-color="#EFB33E"/>
<stop offset="0.3618" stop-color="#EB3966"/>
<stop offset="1" stop-color="#007ADD"/>
</linearGradient>
<linearGradient id="paint14_linear_898_2429" x1="-0.536816" y1="31.3367" x2="70.5703" y2="31.3367" gradientUnits="userSpaceOnUse">
<stop stop-color="#EFB33E"/>
<stop offset="0.3618" stop-color="#EB3966"/>
<stop offset="1" stop-color="#007ADD"/>
</linearGradient>
<linearGradient id="paint15_linear_898_2429" x1="-0.536816" y1="25.1867" x2="70.5703" y2="25.1867" gradientUnits="userSpaceOnUse">
<stop stop-color="#EFB33E"/>
<stop offset="0.3618" stop-color="#EB3966"/>
<stop offset="1" stop-color="#007ADD"/>
</linearGradient>
<linearGradient id="paint16_linear_898_2429" x1="-0.53658" y1="35.5008" x2="70.5705" y2="35.5008" gradientUnits="userSpaceOnUse">
<stop stop-color="#EFB33E"/>
<stop offset="0.3618" stop-color="#EB3966"/>
<stop offset="1" stop-color="#007ADD"/>
</linearGradient>
<linearGradient id="paint17_linear_898_2429" x1="-0.536227" y1="35.501" x2="70.5709" y2="35.501" gradientUnits="userSpaceOnUse">
<stop stop-color="#EFB33E"/>
<stop offset="0.3618" stop-color="#EB3966"/>
<stop offset="1" stop-color="#007ADD"/>
</linearGradient>
<linearGradient id="paint18_linear_898_2429" x1="-0.536421" y1="35.5011" x2="70.5707" y2="35.5011" gradientUnits="userSpaceOnUse">
<stop stop-color="#EFB33E"/>
<stop offset="0.3618" stop-color="#EB3966"/>
<stop offset="1" stop-color="#007ADD"/>
</linearGradient>
<clipPath id="clip0_898_2429">
<rect width="71" height="71" fill="white"/>
</clipPath>
</defs>
</svg>
