<svg width="54" height="62" viewBox="0 0 54 62" fill="none" xmlns="http://www.w3.org/2000/svg">
<g clip-path="url(#clip0_868_1060)">
<path d="M45.7821 7.86028C40.7291 2.80724 33.9917 0 26.8373 0H26.8212C19.6507 0 12.9294 2.7912 7.86028 7.84424C2.7912 12.8973 0 19.6347 0 26.7891C0 30.8797 0.946442 35.0023 2.75912 38.6758C4.5718 42.3493 7.25071 45.6057 10.5071 48.1081C10.6194 48.2044 10.6675 48.3488 10.6034 48.4931L6.48072 58.1019C5.87115 59.5296 6.54489 61.1819 7.98862 61.7915C8.34153 61.9358 8.71048 62.016 9.07943 62.016H44.547C46.103 62.016 47.3702 60.7488 47.3702 59.1928C47.3702 58.8078 47.29 58.4388 47.1457 58.0859L43.023 48.4931C42.9589 48.3648 43.007 48.2044 43.1193 48.1081C46.3757 45.6217 49.0385 42.3653 50.8512 38.7079C52.6639 35.0344 53.6264 30.9439 53.6264 26.8533C53.6264 19.6668 50.8512 12.9294 45.7821 7.86028ZM45.5415 58.0217L45.8142 58.6473C46.0067 59.0805 45.9586 59.5617 45.6859 59.9467C45.4453 60.3317 45.0122 60.5563 44.547 60.5563H44.5309H9.07943C8.32548 60.5563 7.71591 59.9467 7.69987 59.1928C7.69987 59.0003 7.73195 58.8238 7.81216 58.6634L8.08486 58.0378C8.13299 57.9255 8.24528 57.8453 8.37361 57.8453H45.2367C45.3811 57.8292 45.4934 57.8934 45.5415 58.0217ZM44.6432 55.9364C44.6913 56.0326 44.6753 56.1449 44.6111 56.2411C44.547 56.3374 44.4507 56.3855 44.3384 56.3855H9.28797C9.17568 56.3855 9.07943 56.3374 9.01527 56.2411C8.9511 56.1449 8.9511 56.0326 8.98318 55.9364L11.7583 49.4717C11.7904 49.3915 11.8706 49.3113 11.9669 49.2952C11.999 49.2792 12.031 49.2792 12.0631 49.2792C12.1273 49.2792 12.1915 49.2952 12.2396 49.3273C16.5868 52.1666 21.6238 53.6585 26.8212 53.6585C32.0186 53.6585 37.0556 52.1666 41.4028 49.3273C41.451 49.2952 41.5151 49.2792 41.5793 49.2792C41.6114 49.2792 41.6435 49.2792 41.6755 49.2952C41.7718 49.3273 41.836 49.3915 41.8841 49.4717L44.6432 55.9364ZM44.7395 44.7715C39.9431 49.5679 33.5907 52.1987 26.8052 52.2147C20.0357 52.2147 13.6512 49.584 8.87089 44.7876C4.09056 39.9752 1.44373 33.6067 1.44373 26.8373C1.44373 20.0678 4.07451 13.6833 8.87089 8.90298C13.6673 4.12264 20.0357 1.45977 26.8212 1.45977C33.6067 1.45977 39.9752 4.09056 44.7555 8.88693C49.5519 13.6833 52.1827 20.0517 52.1827 26.8212C52.1666 33.6067 49.5358 39.9752 44.7395 44.7715Z" fill="url(#paint0_linear_868_1060)"/>
<path d="M36.2053 29.2434C31.7778 29.2434 28.1846 32.8527 28.1846 37.2641C28.1846 41.6915 31.7939 45.2848 36.2053 45.2848C40.6327 45.2848 44.226 41.6755 44.226 37.2641C44.226 32.8527 40.6327 29.2434 36.2053 29.2434ZM35.4834 43.44C35.4834 43.5363 35.4353 43.6165 35.3711 43.6807C35.307 43.7288 35.2428 43.7609 35.1626 43.7609C35.1465 43.7609 35.1305 43.7609 35.1145 43.7609C31.9383 43.2155 29.6283 40.4884 29.6283 37.2801C29.6283 34.0558 31.9383 31.3288 35.1145 30.7994C35.1305 30.7994 35.1465 30.7994 35.1626 30.7994C35.2428 30.7994 35.307 30.8315 35.3711 30.8796C35.4513 30.9438 35.4834 31.024 35.4834 31.1203V43.44ZM36.9271 31.1042C36.9271 31.008 36.9753 30.9278 37.0394 30.8636C37.1036 30.8155 37.1678 30.7834 37.248 30.7834C37.264 30.7834 37.28 30.7834 37.2961 30.7834C40.0552 31.2486 42.2048 33.4142 42.686 36.1733C42.702 36.2695 42.67 36.3658 42.6218 36.43C42.5737 36.4941 42.4775 36.5422 42.3812 36.5422H37.264C37.0875 36.5422 36.9432 36.3979 36.9432 36.2214V31.1042H36.9271ZM42.686 38.371C42.2208 41.1301 40.0552 43.2796 37.2961 43.7609C37.28 43.7609 37.264 43.7609 37.248 43.7609C37.1678 43.7609 37.1036 43.7288 37.0394 43.6807C36.9592 43.6165 36.9271 43.5363 36.9271 43.44V38.3228C36.9271 38.1464 37.0715 38.002 37.248 38.002H42.3652C42.4614 38.002 42.5416 38.0501 42.6058 38.1143C42.67 38.1785 42.702 38.2747 42.686 38.371Z" fill="url(#paint1_linear_868_1060)"/>
<path d="M25.7622 24.03H24.7195C24.543 24.03 24.3987 23.8856 24.3987 23.7092V17.453C24.3987 17.052 24.0778 16.7312 23.6768 16.7312C23.2758 16.7312 22.955 17.052 22.955 17.453V17.9182C22.955 18.0145 22.9068 18.1107 22.8266 18.1749L20.8856 19.6026C20.8214 19.6507 20.7573 19.6667 20.6931 19.6667C20.6129 19.6667 20.5167 19.6347 20.4525 19.5545L19.2975 18.2872C19.0729 18.0305 18.7361 17.8862 18.3992 17.8862C18.1425 17.8862 17.8859 17.9664 17.6773 18.1268L15.6561 19.6186C15.5919 19.6667 15.5278 19.6828 15.4636 19.6828C15.3834 19.6828 15.2872 19.6507 15.223 19.5705L13.0253 17.1482C12.8007 16.8916 12.4639 16.7472 12.127 16.7472C11.8703 16.7472 11.6137 16.8274 11.4051 16.9878L10.2822 17.8059C10.2341 17.8541 10.1539 17.8701 10.0897 17.8701C10.0416 17.8701 9.9935 17.8541 9.94538 17.838C9.83309 17.7899 9.76892 17.6776 9.76892 17.5493V14.341C9.76892 13.94 9.44809 13.6191 9.04706 13.6191C8.64602 13.6191 8.3252 13.94 8.3252 14.341V24.784C8.3252 25.185 8.64602 25.5058 9.04706 25.5058H25.7462C26.1472 25.5058 26.468 25.185 26.468 24.784C26.468 24.3829 26.1632 24.03 25.7622 24.03ZM22.955 23.7092C22.955 23.8856 22.8106 24.03 22.6341 24.03H10.1218C9.94538 24.03 9.801 23.8856 9.801 23.7092V20.1159C9.801 20.0197 9.84913 19.9234 9.92934 19.8592L11.8703 18.4316C11.9345 18.3834 11.9987 18.3674 12.0628 18.3674C12.143 18.3674 12.2393 18.3995 12.3035 18.4797L14.5011 20.9019C14.7257 21.1586 15.0626 21.303 15.3995 21.303C15.6561 21.303 15.9128 21.2228 16.1213 21.0623L18.1265 19.5705C18.1907 19.5224 18.2548 19.5063 18.319 19.5063C18.3992 19.5063 18.4954 19.5384 18.5596 19.6186L19.7146 20.8859C19.9392 21.1426 20.276 21.2869 20.6289 21.2869C20.8856 21.2869 21.1423 21.2067 21.3508 21.0463L22.4737 20.2282C22.5218 20.1801 22.602 20.164 22.6662 20.164C22.7143 20.164 22.7625 20.1801 22.8106 20.1961C22.9229 20.2442 22.987 20.3565 22.987 20.4849V23.7092H22.955Z" fill="url(#paint2_linear_868_1060)"/>
<path d="M30.9924 25.4738H37.2485C37.6496 25.4738 37.9704 25.1529 37.9704 24.7519C37.9704 24.3509 37.6496 24.03 37.2485 24.03H30.9924C30.5913 24.03 30.2705 24.3509 30.2705 24.7519C30.2705 25.1529 30.5913 25.4738 30.9924 25.4738Z" fill="url(#paint3_linear_868_1060)"/>
<path d="M43.5041 19.8433H30.9758C30.5747 19.8433 30.2539 20.1641 30.2539 20.5651C30.2539 20.9662 30.5747 21.287 30.9758 21.287H43.5041C43.9051 21.287 44.226 20.9662 44.226 20.5651C44.226 20.1641 43.9051 19.8433 43.5041 19.8433Z" fill="url(#paint4_linear_868_1060)"/>
<path d="M43.5041 15.6725H30.9758C30.5747 15.6725 30.2539 15.9933 30.2539 16.3943C30.2539 16.7954 30.5747 17.1162 30.9758 17.1162H43.5041C43.9051 17.1162 44.226 16.7954 44.226 16.3943C44.242 15.9933 43.9051 15.6725 43.5041 15.6725Z" fill="url(#paint5_linear_868_1060)"/>
<path d="M30.9924 12.9454H42.478C42.879 12.9454 43.1999 12.6246 43.1999 12.2236C43.1999 11.8225 42.879 11.5017 42.478 11.5017H30.9924C30.5913 11.5017 30.2705 11.8225 30.2705 12.2236C30.2705 12.6246 30.5913 12.9454 30.9924 12.9454Z" fill="url(#paint6_linear_868_1060)"/>
<path d="M24.7194 42.8145H15.3351C14.9341 42.8145 14.6133 43.1353 14.6133 43.5363C14.6133 43.9374 14.9341 44.2582 15.3351 44.2582H24.7354C25.1364 44.2582 25.4573 43.9374 25.4573 43.5363C25.4412 43.1353 25.1204 42.8145 24.7194 42.8145Z" fill="url(#paint7_linear_868_1060)"/>
<path d="M24.7196 38.6277H9.07928C8.67825 38.6277 8.35742 38.9485 8.35742 39.3495C8.35742 39.7506 8.67825 40.0714 9.07928 40.0714H24.7357C25.1367 40.0714 25.4576 39.7506 25.4576 39.3495C25.4576 38.9485 25.1207 38.6277 24.7196 38.6277Z" fill="url(#paint8_linear_868_1060)"/>
<path d="M24.7196 34.4569H9.07928C8.67825 34.4569 8.35742 34.7777 8.35742 35.1788C8.35742 35.5798 8.67825 35.9006 9.07928 35.9006H24.7357C25.1367 35.9006 25.4576 35.5798 25.4576 35.1788C25.4415 34.7777 25.1207 34.4569 24.7196 34.4569Z" fill="url(#paint9_linear_868_1060)"/>
<path d="M24.7196 30.2861H9.07928C8.67825 30.2861 8.35742 30.607 8.35742 31.008C8.35742 31.409 8.67825 31.7299 9.07928 31.7299H24.7357C25.1367 31.7299 25.4576 31.409 25.4576 31.008C25.4576 30.607 25.1207 30.2861 24.7196 30.2861Z" fill="url(#paint10_linear_868_1060)"/>
</g>
<defs>
<linearGradient id="paint0_linear_868_1060" x1="1.36304" y1="65.431" x2="46.2452" y2="11.5725" gradientUnits="userSpaceOnUse">
<stop stop-color="#FABE3E"/>
<stop offset="0.3618" stop-color="#F63966"/>
<stop offset="1" stop-color="#007AE8"/>
</linearGradient>
<linearGradient id="paint1_linear_868_1060" x1="8.07661" y1="71.0257" x2="52.9587" y2="17.1672" gradientUnits="userSpaceOnUse">
<stop stop-color="#FABE3E"/>
<stop offset="0.3618" stop-color="#F63966"/>
<stop offset="1" stop-color="#007AE8"/>
</linearGradient>
<linearGradient id="paint2_linear_868_1060" x1="-11.7353" y1="54.516" x2="33.1468" y2="0.657419" gradientUnits="userSpaceOnUse">
<stop stop-color="#FABE3E"/>
<stop offset="0.3618" stop-color="#F63966"/>
<stop offset="1" stop-color="#007AE8"/>
</linearGradient>
<linearGradient id="paint3_linear_868_1060" x1="0.686256" y1="64.8667" x2="45.5684" y2="11.0082" gradientUnits="userSpaceOnUse">
<stop stop-color="#FABE3E"/>
<stop offset="0.3618" stop-color="#F63966"/>
<stop offset="1" stop-color="#007AE8"/>
</linearGradient>
<linearGradient id="paint4_linear_868_1060" x1="0.480379" y1="64.6957" x2="45.3625" y2="10.8371" gradientUnits="userSpaceOnUse">
<stop stop-color="#FABE3E"/>
<stop offset="0.3618" stop-color="#F63966"/>
<stop offset="1" stop-color="#007AE8"/>
</linearGradient>
<linearGradient id="paint5_linear_868_1060" x1="-1.57265" y1="62.9848" x2="43.3095" y2="9.12625" gradientUnits="userSpaceOnUse">
<stop stop-color="#FABE3E"/>
<stop offset="0.3618" stop-color="#F63966"/>
<stop offset="1" stop-color="#007AE8"/>
</linearGradient>
<linearGradient id="paint6_linear_868_1060" x1="-3.93307" y1="61.0173" x2="40.9491" y2="7.15875" gradientUnits="userSpaceOnUse">
<stop stop-color="#FABE3E"/>
<stop offset="0.3618" stop-color="#F63966"/>
<stop offset="1" stop-color="#007AE8"/>
</linearGradient>
<linearGradient id="paint7_linear_868_1060" x1="1.60929" y1="65.6366" x2="46.4914" y2="11.778" gradientUnits="userSpaceOnUse">
<stop stop-color="#FABE3E"/>
<stop offset="0.3618" stop-color="#F63966"/>
<stop offset="1" stop-color="#007AE8"/>
</linearGradient>
<linearGradient id="paint8_linear_868_1060" x1="-2.29119" y1="62.386" x2="42.5909" y2="8.5274" gradientUnits="userSpaceOnUse">
<stop stop-color="#FABE3E"/>
<stop offset="0.3618" stop-color="#F63966"/>
<stop offset="1" stop-color="#007AE8"/>
</linearGradient>
<linearGradient id="paint9_linear_868_1060" x1="-4.34424" y1="60.6751" x2="40.5379" y2="6.81652" gradientUnits="userSpaceOnUse">
<stop stop-color="#FABE3E"/>
<stop offset="0.3618" stop-color="#F63966"/>
<stop offset="1" stop-color="#007AE8"/>
</linearGradient>
<linearGradient id="paint10_linear_868_1060" x1="-6.39726" y1="58.9642" x2="38.4849" y2="5.10565" gradientUnits="userSpaceOnUse">
<stop stop-color="#FABE3E"/>
<stop offset="0.3618" stop-color="#F63966"/>
<stop offset="1" stop-color="#007AE8"/>
</linearGradient>
<clipPath id="clip0_868_1060">
<rect width="53.6264" height="62" fill="white"/>
</clipPath>
</defs>
</svg>
