<svg width="38" height="37" viewBox="0 0 38 37" fill="none" xmlns="http://www.w3.org/2000/svg">
<g clip-path="url(#clip0_866_534)">
<path d="M37.0386 4.53417C37.0095 4.51479 32.6788 0.377848 32.6401 0.339094C32.4754 0.18408 32.2816 0 31.9425 0H14.3193C13.7768 0 13.3408 0.445666 13.3408 0.978528V3.80754L7.16926 4.86358C6.64609 4.95077 6.29731 5.45457 6.3845 5.97774L6.69453 7.7701C4.62121 8.46766 2.59634 9.15554 0.639281 9.8531C0.145173 10.0372 -0.116414 10.5894 0.0579771 11.0932L4.87311 24.4826L4.96031 24.7345V24.7442L9.13601 36.3509C9.27165 36.7287 9.6398 36.9903 10.0467 36.9903C10.1533 36.9903 10.2696 36.9709 10.3761 36.9322L28.6194 30.3731L31.0318 29.9565H36.3798C36.9223 29.9565 37.3583 29.5109 37.3583 28.9683V5.18329C37.368 4.83451 37.1742 4.66012 37.0386 4.53417ZM35.44 4.65043H32.8338H32.766C32.4947 4.65043 32.33 4.63106 32.2913 4.5923C32.2816 4.58261 32.2719 4.53417 32.2719 4.43729L32.2622 1.60827L35.44 4.65043ZM5.51255 24.7829C5.58037 24.7829 5.44473 24.812 5.51255 24.7829V24.7829ZM10.1824 35.7502L6.18105 24.6376L5.98728 24.0951V24.0854L1.24965 10.9091C3.10013 10.2503 5.05719 9.58183 6.89799 8.97146L8.76785 19.8515L10.9284 32.4465C11.0059 32.9115 11.4128 33.2506 11.8875 33.2506C11.9456 33.2506 11.9941 33.2506 12.0425 33.2409L21.915 31.5454L10.1824 35.7502ZM12.0522 32.0202L9.93046 19.6481L7.59555 5.99712L13.3408 5.0089V28.978C13.3408 29.5206 13.7768 29.9662 14.3193 29.9662H23.998L12.0522 32.0202ZM36.1763 28.7842H14.5324V1.19167H31.0609L31.0705 4.44698C31.0705 4.86358 31.1965 5.19298 31.4484 5.44488C31.8069 5.80335 32.301 5.85179 32.6982 5.85179H36.186V28.7842H36.1763Z" fill="url(#paint0_linear_866_534)"/>
<path d="M33.8608 8.52556C33.8608 8.85497 33.5895 9.11655 33.2698 9.11655H17.6618C17.3324 9.11655 17.0708 8.84528 17.0708 8.52556C17.0708 8.19616 17.3421 7.93457 17.6618 7.93457H33.2698C33.5895 7.93457 33.8608 8.19616 33.8608 8.52556Z" fill="url(#paint1_linear_866_534)"/>
<path d="M33.8608 12.4011C33.8608 12.7305 33.5895 12.992 33.2698 12.992H17.6618C17.3324 12.992 17.0708 12.7208 17.0708 12.4011C17.0708 12.0716 17.3421 11.8101 17.6618 11.8101H33.2698C33.5895 11.8101 33.8608 12.0716 33.8608 12.4011Z" fill="url(#paint2_linear_866_534)"/>
<path d="M33.8608 16.2861C33.8608 16.6155 33.5895 16.8771 33.2698 16.8771H17.6618C17.3324 16.8771 17.0708 16.6058 17.0708 16.2861C17.0708 15.9567 17.3421 15.6951 17.6618 15.6951H33.2698C33.5895 15.6854 33.8608 15.9567 33.8608 16.2861Z" fill="url(#paint3_linear_866_534)"/>
<path d="M33.8608 20.1618C33.8608 20.4912 33.5895 20.7528 33.2698 20.7528H17.6618C17.3324 20.7528 17.0708 20.4815 17.0708 20.1618C17.0708 19.8324 17.3421 19.5708 17.6618 19.5708H33.2698C33.5895 19.5708 33.8608 19.8324 33.8608 20.1618Z" fill="url(#paint4_linear_866_534)"/>
<path d="M33.8608 24.0368C33.8608 24.3662 33.5895 24.6278 33.2698 24.6278H17.6618C17.3324 24.6278 17.0708 24.3565 17.0708 24.0368C17.0708 23.7074 17.3421 23.4458 17.6618 23.4458H33.2698C33.5895 23.4458 33.8608 23.7074 33.8608 24.0368Z" fill="url(#paint5_linear_866_534)"/>
</g>
<defs>
<linearGradient id="paint0_linear_866_534" x1="-0.0421815" y1="18.3852" x2="37.422" y2="18.5922" gradientUnits="userSpaceOnUse">
<stop stop-color="#EFB33E"/>
<stop offset="0.3618" stop-color="#EB3966"/>
<stop offset="1" stop-color="#007ADD"/>
</linearGradient>
<linearGradient id="paint1_linear_866_534" x1="1.72274" y1="8.39388" x2="36.3267" y2="8.58506" gradientUnits="userSpaceOnUse">
<stop stop-color="#EFB33E"/>
<stop offset="0.3618" stop-color="#EB3966"/>
<stop offset="1" stop-color="#007ADD"/>
</linearGradient>
<linearGradient id="paint2_linear_866_534" x1="1.70132" y1="12.2722" x2="36.3053" y2="12.4633" gradientUnits="userSpaceOnUse">
<stop stop-color="#EFB33E"/>
<stop offset="0.3618" stop-color="#EB3966"/>
<stop offset="1" stop-color="#007ADD"/>
</linearGradient>
<linearGradient id="paint3_linear_866_534" x1="1.67989" y1="16.1508" x2="36.2839" y2="16.3419" gradientUnits="userSpaceOnUse">
<stop stop-color="#EFB33E"/>
<stop offset="0.3618" stop-color="#EB3966"/>
<stop offset="1" stop-color="#007ADD"/>
</linearGradient>
<linearGradient id="paint4_linear_866_534" x1="1.65847" y1="20.0293" x2="36.2625" y2="20.2205" gradientUnits="userSpaceOnUse">
<stop stop-color="#EFB33E"/>
<stop offset="0.3618" stop-color="#EB3966"/>
<stop offset="1" stop-color="#007ADD"/>
</linearGradient>
<linearGradient id="paint5_linear_866_534" x1="1.63703" y1="23.9076" x2="36.241" y2="24.0987" gradientUnits="userSpaceOnUse">
<stop stop-color="#EFB33E"/>
<stop offset="0.3618" stop-color="#EB3966"/>
<stop offset="1" stop-color="#007ADD"/>
</linearGradient>
<clipPath id="clip0_866_534">
<rect width="37.3682" height="37" fill="white"/>
</clipPath>
</defs>
</svg>
