<svg width="62" height="62" viewBox="0 0 62 62" fill="none" xmlns="http://www.w3.org/2000/svg">
<g clip-path="url(#clip0_838_551)">
<path d="M25.9692 35.1086C25.1623 35.1086 24.3718 35.405 23.7461 35.9319C23.6637 35.9978 23.5649 36.0307 23.4497 36.0307C23.3673 36.0307 23.285 36.0143 23.2191 35.9649L18.2295 32.9678C18.0648 32.869 17.9825 32.6714 18.0319 32.4902C18.0813 32.2432 18.1142 31.9962 18.1142 31.7492C18.1142 29.8554 16.5827 28.324 14.689 28.324C12.7952 28.324 11.2637 29.8554 11.2637 31.7492C11.2637 31.9962 11.2967 32.2432 11.3461 32.4902C11.3955 32.6714 11.3131 32.869 11.1485 32.9678L6.15883 35.9649C6.09296 36.0143 6.01062 36.0307 5.92829 36.0307C5.82948 36.0307 5.71421 35.9978 5.63187 35.9319C5.00611 35.405 4.21567 35.1086 3.40877 35.1086C1.53147 35.1086 0 36.64 0 38.5338C0 39.9994 0.938645 41.3168 2.33838 41.7779C2.51952 41.8438 2.63479 42.0084 2.63479 42.206V48.1343C2.63479 48.3319 2.51952 48.4966 2.33838 48.5625C0.938645 49.0071 0 50.308 0 51.7901C0 53.6839 1.53147 55.2153 3.42523 55.2153C4.23214 55.2153 5.02258 54.9189 5.64834 54.392C5.73068 54.3261 5.82948 54.2932 5.94475 54.2932C6.02709 54.2932 6.10943 54.3096 6.1753 54.359L11.1649 57.3561C11.3296 57.4549 11.412 57.6525 11.3625 57.8337C11.3131 58.0807 11.2802 58.3277 11.2802 58.5747C11.2802 60.4685 12.8117 61.9999 14.7054 61.9999C16.5992 61.9999 18.1307 60.4685 18.1307 58.5747C18.1307 58.3277 18.0977 58.0807 18.0483 57.8337C17.9989 57.6525 18.0813 57.4549 18.246 57.3561L23.2191 54.3426C23.285 54.2932 23.3673 54.2767 23.4497 54.2767C23.5485 54.2767 23.6637 54.3096 23.7461 54.3755C24.3718 54.9025 25.1623 55.1989 25.9692 55.1989C27.8629 55.1989 29.3944 53.6674 29.3944 51.7736C29.3944 50.308 28.4558 48.9906 27.056 48.5296C26.8749 48.4637 26.7596 48.299 26.7596 48.1014V42.1731C26.7596 41.9755 26.8749 41.8108 27.056 41.745C28.4558 41.2839 29.3944 39.9665 29.3944 38.5009C29.3944 36.64 27.8465 35.1086 25.9692 35.1086ZM14.689 29.8884C15.71 29.8884 16.5498 30.7282 16.5498 31.7492C16.5498 32.7702 15.71 33.61 14.689 33.61C13.668 33.61 12.8282 32.7702 12.8282 31.7492C12.8282 30.7282 13.668 29.8884 14.689 29.8884ZM6.76813 37.7928C6.71873 37.6116 6.80106 37.414 6.96574 37.3152L11.9554 34.3181C12.0212 34.2687 12.1036 34.2523 12.1859 34.2523C12.2847 34.2523 12.4 34.2852 12.4823 34.3511C13.1081 34.878 13.8821 35.1744 14.7054 35.1744C15.5124 35.1744 16.3028 34.878 16.9286 34.3511C17.0109 34.2852 17.1097 34.2523 17.225 34.2523C17.3073 34.2523 17.3896 34.2687 17.4555 34.3181L22.4452 37.3152C22.6098 37.414 22.6922 37.6116 22.6428 37.7928C22.5934 38.0398 22.5604 38.2868 22.5604 38.5338C22.5604 38.7808 22.5934 39.0278 22.6428 39.2748C22.6922 39.456 22.6098 39.6536 22.4452 39.7524L17.4555 42.7495C17.3896 42.7989 17.3073 42.8153 17.225 42.8153C17.1262 42.8153 17.0109 42.7824 16.9286 42.7165C16.3028 42.1896 15.5124 41.8932 14.7054 41.8932C13.8985 41.8932 13.1081 42.1896 12.4823 42.7165C12.4 42.7824 12.3012 42.8153 12.1859 42.8153C12.1036 42.8153 12.0212 42.7989 11.9554 42.7495L6.96574 39.7524C6.80106 39.6536 6.71873 39.456 6.76813 39.2748C6.81753 39.0278 6.85046 38.7808 6.85046 38.5338C6.85046 38.2868 6.81753 38.0233 6.76813 37.7928ZM16.5498 45.3184C16.5498 46.3394 15.71 47.1792 14.689 47.1792C13.668 47.1792 12.8282 46.3394 12.8282 45.3184C12.8282 44.2974 13.668 43.4576 14.689 43.4576C15.183 43.4576 15.6441 43.6552 16.0064 44.001C16.3522 44.3468 16.5498 44.8079 16.5498 45.3184ZM1.56441 38.5338C1.56441 37.5128 2.40425 36.673 3.42523 36.673C4.44622 36.673 5.28606 37.5128 5.28606 38.5338C5.28606 39.5548 4.44622 40.3946 3.42523 40.3946C2.40425 40.3782 1.56441 39.5548 1.56441 38.5338ZM4.74263 53.1075C4.39681 53.4533 3.91926 53.6509 3.42523 53.6509C2.40425 53.6509 1.56441 52.8111 1.56441 51.7901C1.56441 50.7691 2.40425 49.9293 3.42523 49.9293C4.44622 49.9293 5.28606 50.7691 5.28606 51.7901C5.28606 52.2841 5.08845 52.7452 4.74263 53.1075ZM12.1859 56.0717C12.1036 56.0717 12.0212 56.0552 11.9554 56.0058L6.96574 53.0087C6.80106 52.9099 6.71873 52.7123 6.76813 52.5311C6.81753 52.2841 6.85046 52.0371 6.85046 51.7901C6.85046 50.3245 5.91182 49.0071 4.51208 48.546C4.33094 48.4801 4.21567 48.3155 4.21567 48.1179V42.1896C4.21567 41.992 4.33094 41.8273 4.51208 41.7614C4.92377 41.6297 5.30252 41.3991 5.64834 41.1192C5.73068 41.0533 5.82948 41.0204 5.94475 41.0204C6.02709 41.0204 6.10943 41.0369 6.1753 41.0863L11.1649 44.0833C11.3296 44.1821 11.412 44.3798 11.3625 44.5609C11.3131 44.8079 11.2802 45.0549 11.2802 45.3019C11.2802 46.7675 12.2189 48.0849 13.6186 48.546C13.7997 48.6119 13.915 48.7766 13.915 48.9742V54.9025C13.915 55.1001 13.7997 55.2647 13.6186 55.3306C13.2069 55.4624 12.8282 55.6929 12.4823 55.9728C12.4 56.0387 12.2847 56.0717 12.1859 56.0717ZM14.689 60.4191C13.668 60.4191 12.8282 59.5792 12.8282 58.5582C12.8282 57.5373 13.668 56.6974 14.689 56.6974C15.71 56.6974 16.5498 57.5373 16.5498 58.5582C16.5498 59.5957 15.7264 60.4191 14.689 60.4191ZM22.544 51.7901C22.544 52.0371 22.5769 52.2841 22.6263 52.5311C22.6757 52.7123 22.5934 52.9099 22.4287 53.0087L17.439 56.0058C17.3732 56.0552 17.2908 56.0717 17.2085 56.0717C17.1097 56.0717 16.9944 56.0387 16.9121 55.9728C16.5827 55.6929 16.1875 55.4624 15.7758 55.3306C15.5947 55.2647 15.4794 55.1001 15.4794 54.9025V48.9742C15.4794 48.7766 15.5947 48.6119 15.7758 48.546C17.1756 48.0849 18.1142 46.7675 18.1142 45.3019C18.1142 45.0549 18.0813 44.8079 18.0319 44.5609C17.9825 44.3798 18.0648 44.1821 18.2295 44.0833L23.2191 41.0863C23.285 41.0369 23.3673 41.0204 23.4497 41.0204C23.5485 41.0204 23.6637 41.0533 23.7461 41.1192C24.0754 41.3991 24.4707 41.6132 24.8823 41.7614C25.0635 41.8273 25.1788 41.992 25.1788 42.1896V48.1179C25.1788 48.3155 25.0635 48.4801 24.8823 48.546C23.4826 49.0071 22.544 50.308 22.544 51.7901ZM27.8135 51.7901C27.8135 52.2841 27.6159 52.7452 27.2701 53.1075C26.9243 53.4533 26.4467 53.6509 25.9527 53.6509C24.9317 53.6509 24.0919 52.8111 24.0919 51.7901C24.0919 50.7691 24.9317 49.9293 25.9527 49.9293C26.9902 49.9293 27.8135 50.7691 27.8135 51.7901ZM25.9692 40.3782C24.9482 40.3782 24.1084 39.5383 24.1084 38.5173C24.1084 37.4964 24.9482 36.6565 25.9692 36.6565C26.9902 36.6565 27.83 37.4964 27.83 38.5173C27.83 39.5383 26.9902 40.3782 25.9692 40.3782Z" fill="url(#paint0_linear_838_551)"/>
<path d="M37.941 24.9482C38.0069 24.9153 38.0728 24.8988 38.1551 24.8988C38.2704 24.8988 38.3857 24.9482 38.468 25.0305L38.5833 25.1458C38.9291 25.4916 39.3902 25.6892 39.8842 25.6892C40.3782 25.6892 40.8393 25.4916 41.1851 25.1458L43.2765 23.0709C43.9846 22.3628 43.9846 21.1936 43.2765 20.469L43.1612 20.3538C43.0295 20.222 42.9965 20.008 43.0789 19.8268C43.4247 19.1681 43.7211 18.46 43.9517 17.7354C44.0175 17.5543 44.1822 17.4226 44.3798 17.4226H44.5445C45.549 17.4226 46.3724 16.5992 46.3724 15.5947V12.647C46.3724 11.6425 45.549 10.8191 44.5445 10.8191H44.3798C44.1822 10.8191 44.0175 10.6874 43.9517 10.5062C43.7211 9.78166 43.4412 9.07356 43.0789 8.41486C42.9801 8.23372 43.013 8.03611 43.1612 7.8879L43.2765 7.77263C43.6223 7.42681 43.8199 6.96572 43.8199 6.4717C43.8199 5.97768 43.6223 5.51659 43.2765 5.17077L41.1687 3.09587C40.8228 2.75005 40.3618 2.55244 39.8677 2.55244C39.3737 2.55244 38.9126 2.75005 38.5668 3.0794L38.4515 3.19468C38.3692 3.27701 38.2539 3.32642 38.1386 3.32642C38.0728 3.32642 37.9904 3.30995 37.9246 3.27701C37.2494 2.91473 36.5578 2.63478 35.8332 2.40424C35.6521 2.33837 35.5203 2.17369 35.5203 1.97608V1.82788C35.5203 1.33385 35.3227 0.872763 34.9769 0.526947C34.6311 0.18113 34.17 -0.0164795 33.676 -0.0164795H30.7283C29.7073 -0.0164795 28.8839 0.806894 28.8839 1.81141V1.95962C28.8839 2.15723 28.7522 2.3219 28.571 2.38777C27.8465 2.60185 27.1548 2.89826 26.4797 3.26055C26.4138 3.29348 26.3479 3.30995 26.2656 3.30995C26.1503 3.30995 26.0351 3.26055 25.9527 3.17821L25.8374 3.06294C25.4916 2.71712 25.0305 2.51951 24.5365 2.51951C24.0425 2.51951 23.5814 2.71712 23.2356 3.06294L21.1442 5.13784C20.7984 5.48365 20.6008 5.94474 20.6008 6.43877C20.6008 6.93279 20.7984 7.39388 21.1442 7.7397L21.2595 7.85497C21.3912 7.98671 21.4242 8.20078 21.3418 8.38193C20.996 9.04062 20.6996 9.74872 20.4691 10.4733C20.4032 10.6544 20.2385 10.7862 20.0409 10.7862H19.8762C18.8717 10.7862 18.0483 11.6095 18.0483 12.6141V15.5617C18.0483 16.5663 18.8717 17.3896 19.8762 17.3896H20.0409C20.2385 17.3896 20.4032 17.5214 20.4691 17.7025C20.6996 18.4271 20.9795 19.1352 21.3418 19.7939C21.4406 19.975 21.4077 20.1726 21.2595 20.3208L21.1442 20.4361C20.4361 21.1442 20.4361 22.3134 21.1442 23.0215L23.2356 25.0964C23.5814 25.4422 24.0425 25.6398 24.5365 25.6398C25.0305 25.6398 25.4916 25.4422 25.8374 25.0964L25.9527 24.9811C26.0351 24.8988 26.1503 24.8494 26.2656 24.8494C26.3315 24.8494 26.4138 24.8659 26.4797 24.8988C27.1548 25.2446 27.8465 25.541 28.571 25.7716C28.7522 25.8374 28.8839 26.0021 28.8839 26.1997V26.3479C28.8839 27.3524 29.7073 28.1758 30.7283 28.1758H33.676C34.6969 28.1758 35.5203 27.3524 35.5203 26.3479V26.1997C35.5203 26.0021 35.6521 25.8374 35.8332 25.7716C36.5742 25.5904 37.2823 25.3105 37.941 24.9482ZM34.5817 24.5365C34.2194 24.6188 33.9724 24.9317 33.9724 25.294V26.2162C33.9724 26.4632 33.7748 26.6608 33.5278 26.6608H30.9259C30.6789 26.6608 30.4813 26.4632 30.4813 26.2162V25.294C30.4813 24.9317 30.2343 24.6024 29.872 24.5365C28.6863 24.273 27.5665 23.8119 26.5291 23.1532C26.3973 23.0709 26.2656 23.038 26.1174 23.038C25.9033 23.038 25.7057 23.1203 25.5575 23.2685L24.8988 23.9272C24.8165 24.0096 24.7012 24.059 24.5859 24.059C24.4707 24.059 24.3554 24.0096 24.273 23.9272L22.4452 22.0993C22.3628 22.017 22.3134 21.9017 22.3134 21.7864C22.3134 21.6712 22.3628 21.5559 22.4452 21.4736L23.1039 20.8149C23.3673 20.5514 23.4167 20.1562 23.2191 19.8433C22.5604 18.8058 22.0993 17.686 21.8194 16.5004C21.7371 16.1381 21.4242 15.8911 21.0619 15.8911H20.1397C19.8927 15.8911 19.6951 15.6935 19.6951 15.4465V12.8281C19.6951 12.5811 19.8927 12.3835 20.1397 12.3835H21.0619C21.4242 12.3835 21.7371 12.1365 21.8194 11.7742C22.0829 10.5886 22.5604 9.45231 23.2191 8.43133C23.4167 8.11845 23.3673 7.72323 23.1039 7.45975L22.4452 6.80105C22.3628 6.71871 22.3134 6.60344 22.3134 6.48817C22.3134 6.3729 22.3628 6.25762 22.4452 6.17529L24.273 4.3474C24.3554 4.26506 24.4707 4.21566 24.5859 4.21566C24.7012 4.21566 24.8165 4.26506 24.8988 4.3474L25.5575 5.0061C25.7057 5.1543 25.9033 5.23664 26.1174 5.23664C26.2656 5.23664 26.4138 5.18724 26.5291 5.12137C27.5665 4.46267 28.7028 4.00158 29.872 3.7381C30.2343 3.65576 30.4813 3.34288 30.4813 2.9806V2.05842C30.4813 1.81141 30.6789 1.6138 30.9259 1.6138H33.5278C33.7748 1.6138 33.9724 1.81141 33.9724 2.05842V2.9806C33.9724 3.34288 34.2194 3.67223 34.5817 3.7381C35.7673 4.00158 36.8871 4.46267 37.9246 5.12137C38.0563 5.20371 38.188 5.23664 38.3363 5.23664C38.5503 5.23664 38.7479 5.1543 38.8961 5.0061L39.5548 4.3474C39.6372 4.26506 39.7525 4.21566 39.8677 4.21566C39.983 4.21566 40.0983 4.26506 40.1806 4.3474L42.0085 6.17529C42.0908 6.25762 42.1402 6.3729 42.1402 6.48817C42.1402 6.60344 42.0908 6.71871 42.0085 6.80105L41.3498 7.45975C41.0863 7.72323 41.0369 8.11845 41.2345 8.43133C41.8932 9.46878 42.3543 10.5886 42.6343 11.7742C42.7166 12.1365 43.0295 12.3835 43.3918 12.3835H44.3139C44.561 12.3835 44.7586 12.5811 44.7586 12.8281V15.4135C44.7586 15.6605 44.561 15.8582 44.3139 15.8582H43.3918C43.0295 15.8582 42.7166 16.1052 42.6343 16.4675C42.3708 17.6531 41.8932 18.7894 41.2345 19.8103C41.0369 20.1232 41.0863 20.5184 41.3498 20.7819L42.0085 21.4406C42.0908 21.523 42.1402 21.6382 42.1402 21.7535C42.1402 21.8688 42.0908 21.9841 42.0085 22.0664L40.1806 23.8943C40.0983 23.9766 39.983 24.026 39.8677 24.026C39.7525 24.026 39.6372 23.9766 39.5548 23.8943L38.8961 23.2356C38.7479 23.0874 38.5503 23.005 38.3363 23.005C38.188 23.005 38.0398 23.0544 37.9246 23.1203C36.9036 23.8119 35.7673 24.273 34.5817 24.5365Z" fill="url(#paint1_linear_838_551)"/>
<path d="M61.4401 37.941L50.1763 31.1564C50.061 31.0905 49.9128 31.0411 49.7646 31.0411C49.6164 31.0411 49.4847 31.0741 49.3529 31.1564L38.0892 37.941C37.8587 38.0727 37.7104 38.3362 37.7104 38.6162V51.8725C37.7104 52.1524 37.8587 52.3994 38.0892 52.5476L49.3529 59.3322C49.4682 59.3981 49.6164 59.4475 49.7646 59.4475C49.9128 59.4475 50.0446 59.4146 50.1763 59.3322L61.4401 52.5476C61.6706 52.3994 61.8188 52.1524 61.8188 51.8725V38.6162C61.8188 38.5832 61.8188 38.5668 61.8188 38.5174C61.7859 38.2704 61.6377 38.0563 61.4401 37.941ZM48.9742 56.4834C48.9742 56.648 48.8919 56.7962 48.7437 56.8786C48.6778 56.9115 48.5954 56.928 48.5296 56.928C48.4472 56.928 48.3649 56.9115 48.299 56.8621L39.4889 51.5596C39.3572 51.4773 39.2749 51.3291 39.2749 51.1808V40.7899C39.2749 40.6252 39.3572 40.477 39.5054 40.3947C39.5713 40.3617 39.6536 40.3453 39.7195 40.3453C39.8018 40.3453 39.8842 40.3617 39.95 40.4111L48.7601 45.7136C48.8919 45.796 48.9742 45.9442 48.9742 46.0924V56.4834ZM49.9952 44.3468C49.9293 44.3962 49.847 44.4127 49.7646 44.4127C49.6823 44.4127 49.6 44.3962 49.5341 44.3468L40.6417 38.9949C40.5099 38.9126 40.4276 38.7644 40.4276 38.6162C40.4276 38.468 40.5099 38.3198 40.6417 38.2374L49.5341 32.8855C49.6 32.8361 49.6823 32.8196 49.7646 32.8196C49.847 32.8196 49.9293 32.8361 49.9952 32.8855L58.8876 38.2374C59.0193 38.3198 59.1017 38.468 59.1017 38.6162C59.1017 38.7644 59.0193 38.9126 58.8876 38.9949L49.9952 44.3468ZM60.2379 51.1808C60.2379 51.3291 60.1556 51.4773 60.0239 51.5596L51.2138 56.8621C51.1479 56.9115 51.0656 56.928 50.9832 56.928C50.9009 56.928 50.835 56.9115 50.7691 56.8786C50.6374 56.7962 50.5386 56.648 50.5386 56.4834V46.0924C50.5386 45.9442 50.6209 45.796 50.7527 45.7136L59.5628 40.4111C59.6286 40.3617 59.711 40.3453 59.7933 40.3453C59.8757 40.3453 59.9415 40.3617 60.0074 40.3947C60.1391 40.477 60.2379 40.6252 60.2379 40.7899V51.1808Z" fill="url(#paint2_linear_838_551)"/>
<path d="M32.2268 21.2595C36.2614 21.2595 39.5384 17.9824 39.5384 13.9479C39.5384 9.91338 36.2614 6.63635 32.2268 6.63635C28.1923 6.63635 24.8988 9.91338 24.8988 13.9479C24.8988 17.9824 28.1923 21.2595 32.2268 21.2595ZM32.2268 8.20076C35.405 8.20076 37.974 10.7862 37.974 13.9479C37.974 15.4794 37.3811 16.9285 36.2943 18.0154C35.2074 19.1022 33.7583 19.6951 32.2268 19.6951C29.0486 19.6951 26.4797 17.1097 26.4797 13.9479C26.4797 10.7697 29.0486 8.20076 32.2268 8.20076Z" fill="url(#paint3_linear_838_551)"/>
<path d="M56.434 29.1144C56.467 29.1474 56.681 29.345 56.9939 29.345H57.0269C57.3068 29.3285 57.4879 29.1803 57.5538 29.1144L61.7695 24.8988C62.0824 24.5859 62.0824 24.0919 61.7695 23.7955C61.6213 23.6472 61.4237 23.5649 61.2096 23.5649C60.9955 23.5649 60.7979 23.6472 60.6497 23.7955L58.5254 25.9198C58.4431 26.0021 58.3278 26.0515 58.2125 26.0515C58.1466 26.0515 58.0972 26.035 58.0478 26.0186C57.8832 25.9527 57.7679 25.788 57.7679 25.6069V10.4403C57.7679 10.0122 57.4221 9.6499 56.9775 9.6499H50.4728C50.0447 9.6499 49.6824 9.99572 49.6824 10.4403C49.6824 10.885 50.0282 11.2308 50.4728 11.2308H55.7424C55.9894 11.2308 56.187 11.4284 56.187 11.6754V25.6069C56.187 25.788 56.0717 25.9527 55.9071 26.0186C55.8577 26.035 55.7918 26.0515 55.7424 26.0515C55.6271 26.0515 55.5119 26.0021 55.4295 25.9198L53.3052 23.7955C53.157 23.6472 52.9594 23.5649 52.7453 23.5649C52.5312 23.5649 52.3336 23.6472 52.1854 23.7955C51.8725 24.1083 51.8725 24.6024 52.1854 24.8988L56.434 29.1144Z" fill="url(#paint4_linear_838_551)"/>
<path d="M4.85794 14.7548C5.2861 14.7548 5.64838 14.409 5.64838 13.9644V11.6589C5.64838 11.4119 5.84599 11.2143 6.093 11.2143H11.0003C11.1814 11.2143 11.3461 11.3296 11.412 11.4942C11.4779 11.6589 11.4449 11.8565 11.3132 11.9718L9.18889 14.0961C9.04068 14.2443 8.95834 14.4419 8.95834 14.656C8.95834 14.8701 9.04068 15.0677 9.18889 15.2159C9.33709 15.3641 9.5347 15.4464 9.74878 15.4464C9.96286 15.4464 10.1605 15.3641 10.3087 15.2159L14.5243 11.0002C14.6726 10.852 14.7549 10.6544 14.7549 10.4403C14.7549 10.2262 14.6726 10.0286 14.5243 9.88042L10.2922 5.66475C10.144 5.51654 9.94639 5.4342 9.73231 5.4342C9.51824 5.4342 9.32063 5.51654 9.17242 5.66475C8.85954 5.97763 8.85954 6.47165 9.17242 6.76807L11.3132 8.89237C11.4449 9.02411 11.4779 9.20525 11.412 9.36993C11.3461 9.5346 11.1814 9.64987 11.0003 9.64987H4.85794C4.42979 9.64987 4.0675 9.99569 4.0675 10.4403V13.9808C4.08397 14.409 4.42979 14.7548 4.85794 14.7548Z" fill="url(#paint5_linear_838_551)"/>
<path d="M4.85794 29.3285C5.2861 29.3285 5.64838 28.9827 5.64838 28.5381V24.9976C5.64838 24.5694 5.30256 24.2072 4.85794 24.2072C4.41332 24.2072 4.0675 24.553 4.0675 24.9976V28.5381C4.08397 28.9827 4.42979 29.3285 4.85794 29.3285Z" fill="url(#paint6_linear_838_551)"/>
<path d="M4.85794 20.2879C5.2861 20.2879 5.64838 19.9421 5.64838 19.4975C5.64838 19.0693 5.30256 18.707 4.85794 18.707C4.41332 18.707 4.0675 19.0528 4.0675 19.4975C4.08397 19.9256 4.42979 20.2879 4.85794 20.2879Z" fill="url(#paint7_linear_838_551)"/>
</g>
<defs>
<linearGradient id="paint0_linear_838_551" x1="-2.59442" y1="56.1612" x2="56.9843" y2="18.2475" gradientUnits="userSpaceOnUse">
<stop stop-color="#FABE3E"/>
<stop offset="0.3618" stop-color="#F63966"/>
<stop offset="1" stop-color="#007AE8"/>
</linearGradient>
<linearGradient id="paint1_linear_838_551" x1="-11.601" y1="42.008" x2="47.9776" y2="4.09426" gradientUnits="userSpaceOnUse">
<stop stop-color="#FABE3E"/>
<stop offset="0.3618" stop-color="#F63966"/>
<stop offset="1" stop-color="#007AE8"/>
</linearGradient>
<linearGradient id="paint2_linear_838_551" x1="7.54899" y1="72.101" x2="67.1277" y2="34.1872" gradientUnits="userSpaceOnUse">
<stop stop-color="#FABE3E"/>
<stop offset="0.3618" stop-color="#F63966"/>
<stop offset="1" stop-color="#007AE8"/>
</linearGradient>
<linearGradient id="paint3_linear_838_551" x1="-11.6781" y1="41.8869" x2="47.9006" y2="3.97321" gradientUnits="userSpaceOnUse">
<stop stop-color="#FABE3E"/>
<stop offset="0.3618" stop-color="#F63966"/>
<stop offset="1" stop-color="#007AE8"/>
</linearGradient>
<linearGradient id="paint4_linear_838_551" x1="-2.96506" y1="55.5788" x2="56.6136" y2="17.665" gradientUnits="userSpaceOnUse">
<stop stop-color="#FABE3E"/>
<stop offset="0.3618" stop-color="#F63966"/>
<stop offset="1" stop-color="#007AE8"/>
</linearGradient>
<linearGradient id="paint5_linear_838_551" x1="-19.7512" y1="29.2004" x2="39.8275" y2="-8.71327" gradientUnits="userSpaceOnUse">
<stop stop-color="#FABE3E"/>
<stop offset="0.3618" stop-color="#F63966"/>
<stop offset="1" stop-color="#007AE8"/>
</linearGradient>
<linearGradient id="paint6_linear_838_551" x1="-13.7524" y1="38.6272" x2="45.8263" y2="0.713499" gradientUnits="userSpaceOnUse">
<stop stop-color="#FABE3E"/>
<stop offset="0.3618" stop-color="#F63966"/>
<stop offset="1" stop-color="#007AE8"/>
</linearGradient>
<linearGradient id="paint7_linear_838_551" x1="-17.0538" y1="33.4394" x2="42.5249" y2="-4.47431" gradientUnits="userSpaceOnUse">
<stop stop-color="#FABE3E"/>
<stop offset="0.3618" stop-color="#F63966"/>
<stop offset="1" stop-color="#007AE8"/>
</linearGradient>
<clipPath id="clip0_838_551">
<rect width="62" height="62" fill="white"/>
</clipPath>
</defs>
</svg>
