<svg width="109" height="62" viewBox="0 0 109 62" fill="none" xmlns="http://www.w3.org/2000/svg">
<path d="M93.609 45.4233H92.8725C92.5966 45.4233 92.3478 45.2519 92.2526 44.9958C92.171 44.784 92.0835 44.576 91.9883 44.37C91.8717 44.1196 91.9242 43.8231 92.1224 43.6305L92.6471 43.1105C93.4264 42.3326 93.4244 41.077 92.6432 40.299L90.7524 38.4253C89.9673 37.6512 88.7002 37.6512 87.9152 38.4253L87.3905 38.9452C87.1942 39.1397 86.8969 39.1937 86.6442 39.0781C86.4363 38.9838 86.2264 38.8971 86.0127 38.8124C85.7503 38.718 85.5774 38.4715 85.5793 38.1961V37.4663C85.5793 36.3667 84.6795 35.4771 83.5719 35.4771H80.8959C79.7863 35.4771 78.8885 36.3687 78.8885 37.4663V38.1961C78.8885 38.4696 78.7155 38.7161 78.4571 38.8104C78.2433 38.8913 78.0334 38.978 77.8255 39.0723C77.5729 39.1879 77.2756 39.1359 77.0793 38.9395L76.5546 38.4195C75.7695 37.6473 74.5025 37.6473 73.7174 38.4195L71.8265 40.299C71.0453 41.077 71.0453 42.3326 71.8265 43.1105L72.3512 43.6305C72.5494 43.825 72.6019 44.1196 72.4853 44.37C72.3901 44.576 72.3026 44.784 72.221 44.9958C72.1258 45.2558 71.8751 45.4272 71.5972 45.4233H70.8607C69.7511 45.4233 68.8533 46.3149 68.8533 47.4126V50.0643C68.8533 51.1638 69.753 52.0535 70.8607 52.0535H71.5972C71.8732 52.0535 72.1219 52.2249 72.2171 52.481C72.2988 52.6929 72.3862 52.9008 72.4814 53.1069C72.598 53.3572 72.5456 53.6538 72.3473 53.8464L71.8226 54.3663C71.0434 55.1443 71.0434 56.3998 71.8226 57.1778L73.7135 59.0515C74.4986 59.8257 75.7656 59.8257 76.5507 59.0515L77.0754 58.5316C77.2717 58.3371 77.569 58.2832 77.8216 58.3987C78.0296 58.4931 78.2394 58.5797 78.4532 58.6645C78.7155 58.7569 78.8904 59.0034 78.8904 59.2807V60.0105C78.8904 61.1101 79.7902 61.9998 80.8979 61.9998H83.5738C84.6834 61.9998 85.5812 61.1082 85.5812 60.0105V59.2807C85.5812 59.0072 85.7542 58.7607 86.0127 58.6664C86.2264 58.5855 86.4363 58.4989 86.6442 58.4045C86.8969 58.289 87.1942 58.341 87.3905 58.5374L87.9152 59.0573C88.7002 59.8295 89.9673 59.8276 90.7524 59.0535L92.6432 57.1797C93.4244 56.4018 93.4244 55.1462 92.6432 54.3682L92.1185 53.8483C91.9203 53.6538 91.8678 53.3591 91.9844 53.1088C92.0797 52.9028 92.1671 52.6948 92.2526 52.483C92.3478 52.223 92.5966 52.0516 92.8745 52.0535H93.611C94.7206 52.0535 95.6184 51.1619 95.6184 50.0643V47.4126C95.6184 46.313 94.7187 45.4233 93.611 45.4233H93.609ZM94.2775 50.0643C94.2775 50.4302 93.9783 50.7267 93.609 50.7267H92.8725C92.0408 50.7306 91.2965 51.2389 90.9992 52.0092C90.9273 52.1941 90.8515 52.377 90.7699 52.5581C90.4259 53.311 90.5853 54.1949 91.1721 54.7842L91.6949 55.3041C91.9572 55.5622 91.9572 55.982 91.6949 56.2419L89.804 58.1156C89.5436 58.3737 89.12 58.3737 88.8577 58.1156L88.333 57.5957C87.7403 57.0141 86.8463 56.8562 86.0865 57.1971C85.9058 57.278 85.7212 57.355 85.5346 57.4243C84.7592 57.7189 84.2442 58.4565 84.2404 59.2788V60.0086C84.2404 60.3745 83.9411 60.6711 83.5719 60.6711H80.8959C80.5267 60.6711 80.2274 60.3745 80.2274 60.0086V59.2788C80.2235 58.4546 79.7105 57.717 78.9332 57.4224C78.7466 57.3511 78.562 57.276 78.3794 57.1952C77.6195 56.8543 76.7275 57.0122 76.1329 57.5938L75.6082 58.1118C75.3478 58.3718 74.9242 58.3718 74.6618 58.1118L72.771 56.24C72.5106 55.982 72.5106 55.5622 72.771 55.3022L73.2957 54.7822C73.8825 54.1949 74.0419 53.3091 73.6979 52.5561C73.6163 52.377 73.5386 52.1941 73.4686 52.0092C73.1713 51.2389 72.429 50.7286 71.5972 50.7248H70.8607C70.4915 50.7248 70.1922 50.4282 70.1922 50.0623V47.4106C70.1922 47.0448 70.4915 46.7482 70.8607 46.7482H71.5972C72.429 46.7444 73.1732 46.236 73.4706 45.4657C73.5425 45.2808 73.6183 45.0979 73.6999 44.9169C74.0438 44.1639 73.8845 43.28 73.2976 42.6907L72.771 42.1708C72.5086 41.9128 72.5086 41.493 72.771 41.233L74.6618 39.3593C74.9222 39.1012 75.3459 39.1012 75.6082 39.3593L76.1329 39.8792C76.7256 40.4608 77.6195 40.6187 78.3794 40.2778C78.5601 40.197 78.7447 40.1199 78.9313 40.0506C79.7086 39.756 80.2235 39.0204 80.2274 38.1961V37.4663C80.2274 37.1004 80.5267 36.8039 80.8959 36.8039H83.5719C83.9411 36.8039 84.2404 37.1004 84.2404 37.4663V38.1961C84.2442 39.0204 84.7573 39.7579 85.5346 40.0525C85.7212 40.1238 85.9058 40.1989 86.0884 40.2798C86.8483 40.6206 87.7403 40.4627 88.3349 39.8811L88.8596 39.3631C89.1219 39.1051 89.5436 39.1051 89.806 39.3631L91.6968 41.2368C91.9572 41.4949 91.9572 41.9147 91.6968 42.1747L91.1721 42.6946C90.5872 43.2819 90.4259 44.1678 90.7699 44.9207C90.8515 45.0998 90.9292 45.2827 90.9992 45.4676C91.2965 46.236 92.0408 46.7463 92.8706 46.7501H93.6071C93.9763 46.7501 94.2756 47.0467 94.2756 47.4126V50.0643H94.2775Z" fill="url(#paint0_linear_1483_794)"/>
<path d="M88.2416 48.4735C88.2358 48.3137 88.2241 48.1558 88.2047 47.9979C88.1833 47.8284 88.158 47.659 88.123 47.4953C88.0997 47.3874 88.0686 47.2796 88.0395 47.1737C88.0026 47.037 87.9598 46.9022 87.9132 46.7693C87.8801 46.6768 87.8471 46.5863 87.8121 46.4939C87.7266 46.2821 87.6275 46.0741 87.5167 45.8738C87.509 45.8584 87.5031 45.8411 87.4934 45.8276C87.3185 45.5214 87.1184 45.2287 86.891 44.9591C86.8716 44.936 86.8502 44.9129 86.8288 44.8898C86.7355 44.782 86.6422 44.676 86.5412 44.5759C86.4887 44.522 86.4343 44.4719 86.3799 44.4199C86.3138 44.3583 86.2458 44.2967 86.1797 44.2389C86.0981 44.1696 86.0165 44.1022 85.931 44.0367L85.8222 43.9558C84.7864 43.1875 83.5271 42.7715 82.2348 42.7734C82.1688 42.7734 82.1007 42.7831 82.0347 42.7869C81.8928 42.7908 81.749 42.7985 81.6052 42.8139C81.5294 42.8216 81.4536 42.8312 81.3778 42.8408C81.1602 42.8697 80.9425 42.9102 80.7288 42.9602C77.5068 43.7844 75.5693 47.0427 76.403 50.2356C76.951 52.3403 78.6106 53.983 80.7346 54.5241C80.7463 54.5241 80.756 54.528 80.7676 54.5299C80.9989 54.5876 81.2321 54.6319 81.4692 54.6627C81.6246 54.682 81.7801 54.6859 81.9375 54.6936C82.0424 54.6993 82.1377 54.7147 82.2465 54.7147C82.4369 54.7147 82.6351 54.7013 82.8372 54.682C82.8586 54.682 82.88 54.6762 82.9033 54.6743C83.0666 54.657 83.2298 54.6319 83.3989 54.5992C83.4649 54.5857 83.5271 54.5703 83.5932 54.5549C83.7117 54.5279 83.8283 54.4991 83.9488 54.4644C84.0421 54.4374 84.1334 54.4047 84.2248 54.372C84.3161 54.3392 84.4113 54.3065 84.5065 54.2699C84.6018 54.2333 84.6815 54.1929 84.767 54.1524C84.8797 54.1004 84.9904 54.0504 85.1012 53.9907H85.1051C85.7289 53.6595 86.306 53.2474 86.821 52.764C86.959 52.635 87.0814 52.4886 87.1805 52.3288C87.7033 51.4988 88.0453 50.5706 88.1891 49.6039C88.2085 49.4768 88.2241 49.3478 88.2338 49.2169C88.2435 49.0975 88.2494 48.9781 88.2532 48.8587C88.2532 48.8202 88.2591 48.7855 88.2591 48.747C88.2591 48.6526 88.2513 48.5679 88.2455 48.4774L88.2416 48.4735ZM86.9085 48.9087C86.9085 48.9646 86.9046 49.0185 86.9007 49.0724C86.889 49.2323 86.8677 49.394 86.8405 49.5538C86.5898 50.9327 85.7269 52.1266 84.4891 52.8025C84.4055 52.8449 84.3239 52.8853 84.2423 52.9238L84.1859 52.9508C83.7972 53.126 83.3872 53.2493 82.9655 53.3167C82.9364 53.3205 82.9053 53.3263 82.8761 53.3302C82.7926 53.3417 82.7109 53.3513 82.6293 53.359C82.5224 53.3687 82.4136 53.3744 82.3028 53.3764H82.1629C82.0055 53.3764 81.8462 53.3648 81.6888 53.3475L81.6091 53.3379C81.4245 53.3148 81.2418 53.2801 81.063 53.2358C78.5562 52.6003 77.0443 50.0719 77.6875 47.5877C78.1111 45.947 79.4034 44.6645 81.0591 44.2428C81.4439 44.1465 81.8384 44.0964 82.2348 44.0964C82.4253 44.0964 82.6177 44.1099 82.8062 44.1349C82.8567 44.1407 82.9072 44.1503 82.9577 44.158C83.1015 44.1811 83.2453 44.21 83.3872 44.2447C83.4338 44.2562 83.4805 44.2678 83.5252 44.2793C83.8808 44.3814 84.2228 44.5239 84.5454 44.7049C84.5979 44.7338 84.6465 44.7666 84.6989 44.7974C84.8039 44.8628 84.9069 44.9302 85.0079 45.0053C85.0623 45.0439 85.1167 45.0824 85.1692 45.1247C85.3014 45.2287 85.4257 45.3385 85.5462 45.456C85.5929 45.5041 85.6376 45.5561 85.6842 45.6062C85.7619 45.689 85.8358 45.7737 85.9077 45.8642C85.9563 45.9258 86.0048 45.9894 86.0515 46.0529C86.1176 46.1492 86.1856 46.2474 86.2458 46.3495C86.2788 46.4053 86.3119 46.4573 86.3469 46.5151C86.4324 46.673 86.5101 46.8348 86.5762 47.0004C86.6034 47.0658 86.6248 47.1332 86.65 47.1987C86.6928 47.32 86.7316 47.4433 86.7647 47.5685C86.7822 47.6339 86.7997 47.6936 86.8133 47.7572C86.8521 47.9363 86.8813 48.1173 86.8988 48.3002C86.9026 48.3484 86.9026 48.3984 86.9065 48.4466C86.9162 48.5987 86.9182 48.7528 86.9124 48.9068L86.9085 48.9087Z" fill="url(#paint1_linear_1483_794)"/>
<path d="M106.993 36.1396H104.888C104.608 36.1415 104.356 35.9682 104.264 35.7044C104.056 35.0881 103.806 34.4873 103.512 33.9057C103.388 33.6554 103.44 33.3531 103.64 33.1566L105.133 31.6758C105.916 30.8997 105.916 29.6403 105.133 28.8642L102.288 26.0489C101.505 25.2728 100.234 25.2728 99.4506 26.0489L97.9582 27.5259C97.7599 27.7242 97.4568 27.7762 97.2042 27.653C96.6173 27.3622 96.011 27.1119 95.3891 26.9039C95.1229 26.8134 94.9441 26.565 94.948 26.2857V24.2002C94.948 23.1006 94.0482 22.2109 92.9405 22.2109H88.9257C87.816 22.2109 86.9182 23.1025 86.9182 24.2002V26.2857C86.9202 26.563 86.7453 26.8134 86.4791 26.9039C85.8572 27.1099 85.2509 27.3603 84.664 27.6511C84.4114 27.7743 84.1063 27.7242 83.9081 27.524L82.4137 26.045C81.6286 25.2709 80.3596 25.2709 79.5764 26.045L76.7373 28.8585C75.9541 29.6345 75.9541 30.8939 76.7373 31.6719L78.9313 33.8499C79.1975 34.1041 79.6211 34.0983 79.8776 33.8345C80.1283 33.5784 80.1283 33.1701 79.8776 32.914L77.6817 30.736C77.4213 30.478 77.4213 30.0582 77.6817 29.7982L80.5209 26.9848C80.7813 26.7267 81.2049 26.7267 81.4673 26.9848L82.9617 28.4637C83.566 29.0664 84.493 29.2167 85.2606 28.8373C85.7911 28.5735 86.3391 28.3482 86.9008 28.1614C87.7111 27.8898 88.2572 27.133 88.2533 26.2838V24.1983C88.2533 23.8324 88.5526 23.5358 88.9218 23.5358H92.9367C93.3059 23.5358 93.6052 23.8324 93.6052 24.1983V26.2838C93.6013 27.133 94.1473 27.8879 94.9577 28.1594C95.5193 28.3462 96.0673 28.5715 96.5978 28.8354C97.3654 29.2128 98.2905 29.0626 98.8968 28.4598L100.391 26.9809C100.652 26.7229 101.075 26.7229 101.338 26.9809L104.177 29.7963C104.437 30.0543 104.437 30.4741 104.177 30.7341L102.684 32.215C102.076 32.8139 101.924 33.7324 102.307 34.4931C102.574 35.0188 102.801 35.5619 102.989 36.1184C103.263 36.9233 104.027 37.4625 104.884 37.4587H106.989C107.358 37.4587 107.657 37.7552 107.657 38.1211V42.0996C107.657 42.4655 107.358 42.7621 106.989 42.7621H104.884C104.027 42.7582 103.265 43.2993 102.991 44.1024C102.803 44.6589 102.575 45.2019 102.309 45.7276C101.928 46.4883 102.08 47.4069 102.688 48.0058L104.181 49.4866C104.441 49.7447 104.441 50.1645 104.181 50.4244L101.34 53.2379C101.079 53.4959 100.655 53.4959 100.393 53.2379L98.1933 51.0638C97.9368 50.8 97.5131 50.7942 97.2469 51.0484C96.9807 51.3026 96.9748 51.7224 97.2314 51.9862C97.2372 51.992 97.243 51.9977 97.2469 52.0016L99.4448 54.1757C100.228 54.9518 101.499 54.9518 102.282 54.1757L105.121 51.3623C105.904 50.5862 105.904 49.3268 105.121 48.5488L103.631 47.0699C103.431 46.8734 103.378 46.573 103.502 46.3227C103.796 45.7411 104.048 45.1403 104.258 44.5241C104.35 44.2603 104.6 44.0831 104.882 44.0869H106.987C108.096 44.0869 108.994 43.1953 108.994 42.0977V38.1192C108.994 37.0196 108.094 36.1299 106.987 36.1299L106.993 36.1396Z" fill="url(#paint2_linear_1483_794)"/>
<path d="M97.0837 34.0232C93.6849 30.6609 88.1814 30.6609 84.7826 34.0232C84.5261 34.287 84.5339 34.7068 84.7981 34.961C85.0566 35.2094 85.4686 35.2094 85.727 34.961C88.5818 32.0936 93.2437 32.0628 96.1373 34.8917C99.0309 37.7205 99.062 42.3403 96.2073 45.2077C96.184 45.2308 96.1607 45.2539 96.1373 45.277C95.8711 45.5312 95.8633 45.951 96.1218 46.2148C96.3783 46.4786 96.8019 46.4863 97.0682 46.2302C97.074 46.2244 97.0798 46.2187 97.0837 46.2148C100.477 42.8468 100.477 37.3932 97.0837 34.0251V34.0232Z" fill="url(#paint3_linear_1483_794)"/>
<path d="M69.6014 48.6027H62.384V17.1656H50.831C50.4016 17.1656 50.0537 16.8209 50.0537 16.3953C50.0537 15.9697 50.4016 15.625 50.831 15.625H63.9386V47.0621H69.6014C70.0309 47.0621 70.3787 47.4068 70.3787 47.8324C70.3787 48.258 70.0309 48.6027 69.6014 48.6027Z" fill="url(#paint4_linear_1483_794)"/>
<path d="M21.2986 5.04331V22.6057H1.16598V7.6122L21.2986 5.04524V5.04331ZM22.4646 3.73191L21.149 3.89944L1.01635 6.46641L0 6.59543V23.7612H22.4646V3.72998V3.73191Z" fill="url(#paint5_linear_1483_794)"/>
<path d="M49.8342 1.32103V22.6059H28.4034V4.16337L49.8342 1.32103ZM51.0002 0L49.6787 0.175239L28.2479 3.01758L27.2374 3.15238V23.7613H51.0002V0V0Z" fill="url(#paint6_linear_1483_794)"/>
<path d="M28.4034 29.7252L49.8342 29.7541V51.4433L28.4034 48.5721V29.7252ZM27.2374 28.5679V49.5812L28.2479 49.716L49.6787 52.5872L51.0002 52.7644V28.6006H49.8361L28.4054 28.5698H27.2374V28.5679Z" fill="url(#paint7_linear_1483_794)"/>
<path d="M21.2986 29.7135V47.6784L1.27865 45.1538V29.7559L21.2966 29.7155L21.2986 29.7135ZM22.4626 28.5581H21.2947L1.27671 28.6024H0.112671V46.1745L1.13096 46.3035L21.149 48.8281L22.4626 48.9937V28.5581Z" fill="url(#paint8_linear_1483_794)"/>
<defs>
<linearGradient id="paint0_linear_1483_794" x1="-3.69421" y1="62.797" x2="94.9407" y2="46.3635" gradientUnits="userSpaceOnUse">
<stop stop-color="#FABE3E"/>
<stop offset="0.36" stop-color="#F63966"/>
<stop offset="1" stop-color="#007AE8"/>
</linearGradient>
<linearGradient id="paint1_linear_1483_794" x1="-3.69425" y1="62.7989" x2="94.9407" y2="46.3653" gradientUnits="userSpaceOnUse">
<stop stop-color="#FABE3E"/>
<stop offset="0.36" stop-color="#F63966"/>
<stop offset="1" stop-color="#007AE8"/>
</linearGradient>
<linearGradient id="paint2_linear_1483_794" x1="-5.01953" y1="54.8382" x2="93.6154" y2="38.4046" gradientUnits="userSpaceOnUse">
<stop stop-color="#FABE3E"/>
<stop offset="0.36" stop-color="#F63966"/>
<stop offset="1" stop-color="#007AE8"/>
</linearGradient>
<linearGradient id="paint3_linear_1483_794" x1="-4.98256" y1="55.0615" x2="93.6524" y2="38.626" gradientUnits="userSpaceOnUse">
<stop stop-color="#FABE3E"/>
<stop offset="0.36" stop-color="#F63966"/>
<stop offset="1" stop-color="#007AE8"/>
</linearGradient>
<linearGradient id="paint4_linear_1483_794" x1="-6.97452" y1="43.1067" x2="91.6604" y2="26.6732" gradientUnits="userSpaceOnUse">
<stop stop-color="#FABE3E"/>
<stop offset="0.36" stop-color="#F63966"/>
<stop offset="1" stop-color="#007AE8"/>
</linearGradient>
<linearGradient id="paint5_linear_1483_794" x1="-11.0205" y1="18.8198" x2="87.6125" y2="2.38427" gradientUnits="userSpaceOnUse">
<stop stop-color="#FABE3E"/>
<stop offset="0.36" stop-color="#F63966"/>
<stop offset="1" stop-color="#007AE8"/>
</linearGradient>
<linearGradient id="paint6_linear_1483_794" x1="-10.5599" y1="21.5852" x2="88.0751" y2="5.1497" gradientUnits="userSpaceOnUse">
<stop stop-color="#FABE3E"/>
<stop offset="0.36" stop-color="#F63966"/>
<stop offset="1" stop-color="#007AE8"/>
</linearGradient>
<linearGradient id="paint7_linear_1483_794" x1="-6.14661" y1="48.0733" x2="92.4883" y2="31.6378" gradientUnits="userSpaceOnUse">
<stop stop-color="#FABE3E"/>
<stop offset="0.36" stop-color="#F63966"/>
<stop offset="1" stop-color="#007AE8"/>
</linearGradient>
<linearGradient id="paint8_linear_1483_794" x1="-7.18833" y1="41.8185" x2="91.4447" y2="25.3849" gradientUnits="userSpaceOnUse">
<stop stop-color="#FABE3E"/>
<stop offset="0.36" stop-color="#F63966"/>
<stop offset="1" stop-color="#007AE8"/>
</linearGradient>
</defs>
</svg>
