<svg width="65" height="56" viewBox="0 0 65 56" fill="none" xmlns="http://www.w3.org/2000/svg">
<path d="M29.3947 27.0809C29.3789 27.0809 29.363 27.0809 29.3472 27.0809C28.0795 26.9858 26.9386 26.9225 25.972 26.9225C25.6233 26.9225 25.3223 26.6372 25.3223 26.2728V23.262C25.3223 22.9134 25.6075 22.6123 25.972 22.6123H29.3947C29.7433 22.6123 30.0444 22.8976 30.0444 23.262V26.3837C30.0444 26.4154 30.0444 26.4629 30.0285 26.4946L30.0127 26.5422C29.9652 26.8591 29.6958 27.0809 29.3947 27.0809ZM26.6058 25.6389C27.2555 25.6548 27.9844 25.6865 28.745 25.734V23.8959H26.6058V25.6389Z" fill="#017038"/>
<path d="M34.9723 27.8732C34.9248 27.8732 34.8931 27.8732 34.8455 27.8574C33.7839 27.6356 32.6588 27.4612 31.4862 27.3028C31.3119 27.2869 31.1534 27.1919 31.0583 27.0493C30.9474 26.9066 30.9157 26.7323 30.9316 26.558V18.9361C30.9316 18.5875 31.2168 18.2864 31.5812 18.2864H35.004C35.3526 18.2864 35.6537 18.5716 35.6537 18.9361V27.1126C35.6537 27.1602 35.6537 27.2236 35.6378 27.2711L35.6061 27.3662C35.5111 27.6672 35.2575 27.8732 34.9723 27.8732ZM32.2151 26.0985C32.944 26.1936 33.6571 26.3203 34.3543 26.4471V19.5858H32.2151V26.0985Z" fill="#017038"/>
<path d="M40.4708 29.5054C40.3916 29.5054 40.2965 29.4895 40.2173 29.4578C39.3141 29.0617 38.2365 28.6972 37.0164 28.3645C36.7312 28.2852 36.541 28.0317 36.541 27.7465V14.8002C36.541 14.4516 36.8262 14.1505 37.1907 14.1505H40.6135C40.9621 14.1505 41.2631 14.4358 41.2631 14.8002V28.5546C41.2631 28.6338 41.2473 28.7289 41.2156 28.8082L41.0888 29.1092C41.0254 29.2677 40.8987 29.3945 40.7402 29.4578C40.6293 29.4895 40.5501 29.5054 40.4708 29.5054ZM37.8087 27.2552C38.5852 27.4771 39.2982 27.7148 39.9479 27.9683V15.4499H37.8087V27.2552Z" fill="#017038"/>
<path d="M48.3626 33.0074C48.2517 33.0074 48.1407 32.9757 48.0298 32.9123C47.8397 32.8014 47.7129 32.5795 47.7129 32.3577V8.74704C47.7129 8.39843 47.9981 8.09735 48.3626 8.09735H51.8012C52.1498 8.09735 52.4509 8.38258 52.4509 8.74704V30.4403V30.4562C52.5776 30.7889 52.435 31.1534 52.1022 31.296C50.8821 31.8031 49.7253 32.3418 48.6637 32.9123C48.5686 32.9757 48.4735 33.0074 48.3626 33.0074ZM49.0123 9.39673V31.3118C49.6936 30.9632 50.4226 30.6305 51.1673 30.3135V9.39673H49.0123Z" fill="#017038"/>
<path d="M44.7655 35.305C44.6229 35.305 44.4961 35.2575 44.3852 35.1783C44.1475 35.004 44.0682 34.687 44.1792 34.4177C44.3218 34.069 44.3535 33.6412 44.2742 33.1183C44.1316 32.1992 43.4502 31.3277 42.2618 30.5354C42.0875 30.4244 41.9766 30.2185 41.9766 29.9966C41.9766 29.854 42.0241 29.7114 42.1033 29.6005L42.135 29.5529V11.8212C42.135 11.4726 42.4203 11.1715 42.7847 11.1715H46.2075C46.5561 11.1715 46.8572 11.4567 46.8572 11.8212V33.2767C47.0156 33.5778 46.9205 33.9423 46.6353 34.1324C46.0965 34.481 45.6053 34.8297 45.1933 35.1624C45.0507 35.2575 44.9081 35.305 44.7655 35.305ZM43.4186 29.7748C44.6545 30.6938 45.3676 31.7555 45.5578 32.9123C45.5578 32.9281 45.5578 32.9281 45.5578 32.944V12.4709H43.4186V29.7748Z" fill="#017038"/>
<path d="M46.2697 34.2275C46.2221 34.2275 46.1746 34.2275 46.1271 34.2117C45.9528 34.18 45.8101 34.0691 45.7151 33.9264L45.6358 33.7997C45.5725 33.7046 45.5408 33.5778 45.5408 33.4669V12.4709H43.4174V29.7748C43.4174 29.9174 43.3699 30.0442 43.2906 30.1551L43.1322 30.3769C42.9262 30.6463 42.5459 30.7255 42.2606 30.5354C41.6743 30.1551 40.9929 29.7906 40.2165 29.4737C40.058 29.4103 39.9313 29.2835 39.8679 29.1251C39.8045 28.9666 39.8045 28.7923 39.8679 28.6339L39.9471 28.4437V15.4499H37.8079V27.7306C37.8079 27.9366 37.7128 28.1109 37.5543 28.2377C37.3959 28.3645 37.1899 28.3962 36.9997 28.3486C36.35 28.1743 35.637 28.0159 34.8288 27.8415C34.6545 27.8099 34.5119 27.6989 34.4168 27.5563C34.3217 27.4137 34.2901 27.2236 34.3376 27.0651V27.0334V19.5699H32.1984V26.6214C32.1984 26.6531 32.1984 26.6848 32.1825 26.7323L32.1667 26.7799C32.1033 27.1285 31.7864 27.3503 31.4536 27.3186C30.8039 27.2394 30.1225 27.1602 29.3144 27.0968C29.1401 27.0809 28.9658 26.9859 28.8549 26.8432C28.7439 26.7006 28.6964 26.5263 28.7281 26.352V23.9434H26.5889V26.3203C26.5889 26.4946 26.5255 26.6531 26.3987 26.7799C26.2719 26.9066 26.1135 26.97 25.9392 26.97C24.5289 26.97 23.3404 27.0492 22.5164 27.2077C22.0727 27.3028 21.5974 27.4296 21.1061 27.5722C20.7734 27.6672 20.4247 27.4929 20.3138 27.1602C19.6958 25.2745 19.3789 23.1987 19.3789 20.9644C19.3789 9.42842 28.7598 0.0475464 40.2957 0.0475464C51.8316 0.0475464 61.2125 9.42842 61.2125 20.9644C61.2125 23.674 60.7054 26.3203 59.6913 28.824C59.5962 29.0617 59.3744 29.2202 59.1208 29.2202H59.105C57.251 29.4737 54.6998 30.2502 52.101 31.3435C51.9426 31.4069 51.7683 31.4069 51.6098 31.3435C51.4513 31.2801 51.3246 31.1534 51.2612 30.9949L51.1978 30.8523C51.1661 30.7731 51.1503 30.6938 51.1503 30.6146V9.39673H48.9952V32.3577C48.9952 32.5954 48.8684 32.8172 48.6466 32.9281C47.886 33.3243 47.2046 33.7363 46.6024 34.1166C46.5232 34.1958 46.3964 34.2275 46.2697 34.2275ZM42.7677 11.1873H46.1905C46.5391 11.1873 46.8401 11.4726 46.8401 11.837V32.4844C47.1254 32.3101 47.4264 32.1517 47.7275 31.9774V8.76288C47.7275 8.41427 48.0127 8.1132 48.3772 8.1132H51.8158C52.1644 8.1132 52.4655 8.39842 52.4655 8.76288V29.7906C54.7632 28.8715 56.9341 28.2377 58.6771 27.9525C59.5328 25.7023 59.9765 23.3413 59.9765 20.9168C59.9765 10.094 51.1661 1.28354 40.3433 1.28354C29.5204 1.28354 20.71 10.094 20.71 20.9168C20.71 22.7867 20.9477 24.5297 21.4072 26.1302C21.7241 26.0509 22.0252 25.9717 22.3263 25.9083C23.1027 25.7499 24.1486 25.6706 25.3687 25.6548V23.2779C25.3687 22.9293 25.6539 22.6282 26.0184 22.6282H29.4412C29.7898 22.6282 30.0908 22.9134 30.0908 23.2779V25.8608C30.4078 25.8925 30.693 25.9242 30.9782 25.9559V18.9519C30.9782 18.6033 31.2635 18.3022 31.6279 18.3022H35.0507C35.3993 18.3022 35.7004 18.5874 35.7004 18.9519V26.7165C36.0173 26.7799 36.3183 26.8591 36.6036 26.9225V14.8002C36.6036 14.4516 36.8888 14.1505 37.2533 14.1505H40.676C41.0246 14.1505 41.3257 14.4358 41.3257 14.8002V28.5071C41.6426 28.6497 41.9437 28.8082 42.2289 28.9508V11.837C42.1339 11.4726 42.4191 11.1873 42.7677 11.1873Z" fill="#017038"/>
<path d="M2.53491 56C2.42399 56 2.31306 55.9683 2.21799 55.9049C2.04368 55.794 1.91691 55.6197 1.90107 55.4137L-0.000462991 35.2575C-0.0321551 34.9564 0.157998 34.6712 0.443227 34.5761L9.30118 31.8506C9.58641 31.7714 9.88748 31.8823 10.0301 32.12L17.9373 44.8919C17.9848 44.9711 18.0165 45.0504 18.0324 45.1454L18.4602 48.4097C18.4919 48.695 18.3493 48.9643 18.0799 49.0753L2.80429 55.9366C2.72506 55.9683 2.62998 56 2.53491 56ZM1.33061 35.6536L3.10537 54.3995L17.1133 48.1087L16.7647 45.4465L9.19026 33.2134L1.33061 35.6536ZM10.5847 47.9027C9.49133 47.9027 8.54057 47.0787 8.4138 45.9694C8.28703 44.7651 9.14272 43.6876 10.3312 43.5608C10.9175 43.4974 11.4879 43.6559 11.9316 44.0204C12.3912 44.3848 12.6764 44.9078 12.7398 45.4941C12.8032 46.0645 12.6447 46.635 12.2802 47.0945C11.9158 47.554 11.3929 47.8393 10.8066 47.9027C10.7432 47.9027 10.6639 47.9027 10.5847 47.9027ZM10.4896 44.8285C9.99841 44.8919 9.63395 45.3356 9.69733 45.8268C9.76071 46.3181 10.2044 46.6825 10.6956 46.6191C10.9333 46.5874 11.1552 46.4765 11.2978 46.2864C11.4404 46.0962 11.5038 45.8744 11.4879 45.6208C11.4562 45.3831 11.3453 45.1613 11.1552 45.0187C10.965 44.8602 10.7273 44.7968 10.4896 44.8285Z" fill="#017038"/>
<path d="M39.0445 46.8727C35.9229 46.8727 33.6569 46.1437 31.4384 45.4307C27.8255 44.2739 24.4186 43.1805 17.6207 45.8268C17.3354 45.9377 17.0027 45.8268 16.8442 45.5733L8.93701 32.8014C8.84193 32.6587 8.81024 32.4686 8.85778 32.3101C8.90532 32.1358 9.01624 31.9932 9.15885 31.914C11.0128 30.8523 16.654 27.6038 20.7423 26.3203C21.2811 26.1619 21.7882 26.0192 22.2794 25.9242C23.1985 25.7499 24.4662 25.6548 25.9557 25.6706C26.954 25.6706 28.1266 25.7182 29.426 25.8291C30.2658 25.9083 30.963 25.9717 31.6286 26.0668C32.817 26.2252 33.9896 26.4154 35.083 26.6372C35.907 26.8115 36.6518 26.97 37.3332 27.1602C38.6167 27.5088 39.7576 27.9049 40.7084 28.3169C41.5482 28.6655 42.3088 29.0617 42.9585 29.4895C42.9902 29.5054 43.0061 29.5212 43.0377 29.5529C44.4956 30.5354 45.3513 31.6921 45.5414 32.9598C45.5573 33.0866 45.5731 33.1975 45.589 33.3084C45.6999 33.2292 45.8108 33.1658 45.9217 33.0866C46.5556 32.6746 47.2686 32.2626 48.0609 31.8347C49.1543 31.2484 50.3586 30.678 51.6105 30.1551C54.336 29.0141 56.9189 28.2218 58.9155 27.9366C58.9789 27.9208 59.0264 27.9208 59.074 27.9208C60.2783 27.7623 62.4809 27.6831 63.8278 28.7923C64.4933 29.3469 64.8736 30.0917 64.9529 31.0266C65.0162 31.8664 64.5567 32.8489 63.5584 34.0057C59.1373 39.1398 45.3196 46.4924 40.6133 46.841C40.0587 46.8568 39.5358 46.8727 39.0445 46.8727ZM25.1634 42.8795C27.7304 42.8795 29.7587 43.5291 31.8346 44.1947C34.2907 44.987 36.8102 45.7951 40.5182 45.5257C44.9234 45.2088 58.4084 37.983 62.5918 33.1341C63.5742 31.9932 63.701 31.3594 63.6693 31.09C63.6218 30.5037 63.4158 30.0758 63.0196 29.7431C61.9738 28.9032 60.0089 29.0458 59.2007 29.1568C59.1849 29.1568 59.1532 29.1568 59.1373 29.1568H59.1215C57.2675 29.4103 54.7163 30.1868 52.1175 31.2801C50.8974 31.7872 49.7406 32.326 48.6789 32.8964C47.9183 33.2926 47.2369 33.7046 46.6348 34.0849C46.096 34.4335 45.6048 34.7821 45.177 35.1149C44.9551 35.305 44.6223 35.305 44.3847 35.1307C44.147 34.9564 44.0677 34.6395 44.1787 34.3701C44.3213 34.0215 44.353 33.5937 44.2737 33.0707C44.1311 32.1517 43.4497 31.2801 42.2613 30.4878C42.2296 30.472 42.2137 30.4561 42.1821 30.4403C41.6116 30.0758 40.9619 29.7272 40.2171 29.4103C39.3139 29.0141 38.2364 28.6497 37.0004 28.3169C36.3507 28.1426 35.6376 27.9841 34.8295 27.8098C33.7678 27.588 32.6427 27.4137 31.4701 27.2552C30.8204 27.176 30.139 27.0968 29.315 27.0334C28.0474 26.9383 26.9223 26.8908 25.9557 26.8908C24.5454 26.8908 23.3569 26.97 22.5329 27.1285C22.0892 27.2235 21.6139 27.3503 21.1226 27.4929C17.5256 28.618 12.5974 31.3752 10.3632 32.6429L17.6365 44.4007C20.7106 43.2915 23.1034 42.8795 25.1634 42.8795Z" fill="#017038"/>
<path d="M40.391 37.0798C37.4595 37.0798 33.7832 36.2241 30.7249 35.4001C30.5348 35.3526 30.3763 35.305 30.2495 35.2733C29.9009 35.1783 29.6949 34.8297 29.79 34.4969C29.8851 34.1483 30.2337 33.9423 30.5665 34.0373C30.6932 34.069 30.8675 34.1166 31.0577 34.1641C32.5314 34.5603 35.5738 35.3843 38.4419 35.6853C40.7079 35.923 43.5444 35.8913 44.1782 34.4177C44.3208 34.069 44.3525 33.6412 44.2733 33.1183C44.1307 32.1992 43.4493 31.3277 42.2608 30.5354C42.2292 30.5195 42.2133 30.5037 42.1816 30.4878C41.6112 30.1234 40.9615 29.7748 40.2167 29.4578C39.3135 29.0617 38.2359 28.6972 37 28.3645C36.3503 28.1901 35.6372 28.0317 34.829 27.8574C33.7674 27.6355 32.6423 27.4612 31.4697 27.3028C30.82 27.2235 30.1386 27.1443 29.3146 27.0809C28.0469 26.9858 26.9219 26.9383 25.9552 26.9383C24.5449 26.9383 23.3565 27.0175 22.5325 27.176C22.0888 27.2711 21.6134 27.3978 21.1222 27.5405C17.1607 28.7765 11.6146 31.9774 9.79226 33.0232C9.49118 33.1975 9.09503 33.0866 8.92072 32.7855C8.74642 32.4844 8.85734 32.0883 9.15842 31.914C11.0124 30.8523 16.6536 27.6038 20.7419 26.3203C21.2807 26.1619 21.7877 26.0192 22.279 25.9242C23.198 25.7499 24.4657 25.6548 25.9552 25.6706C26.9535 25.6706 28.1262 25.7182 29.4255 25.8291C30.2654 25.9083 30.9626 25.9717 31.6281 26.0668C32.8166 26.2252 33.9892 26.4154 35.0826 26.6372C35.9066 26.8115 36.6513 26.97 37.3327 27.1602C38.6163 27.5088 39.7572 27.9049 40.7079 28.3169C41.5478 28.6655 42.3084 29.0617 42.9581 29.4895C42.9898 29.5054 43.0056 29.5212 43.0373 29.5529C44.4951 30.5354 45.3508 31.6921 45.541 32.9598C45.6678 33.7204 45.6044 34.386 45.3508 34.9564C44.6853 36.5093 42.7838 37.0798 40.391 37.0798Z" fill="#017038"/>
<path d="M39.0434 46.8727C35.9217 46.8727 33.6557 46.1438 31.4373 45.4307C27.8244 44.2739 24.4175 43.1805 17.6195 45.8268C17.2867 45.9536 16.9223 45.7951 16.7955 45.4624C16.6687 45.1296 16.8272 44.7652 17.16 44.6384C24.3858 41.8178 28.0145 42.9745 31.8334 44.2105C34.2896 45.0028 36.8091 45.811 40.5171 45.5416C44.9223 45.2247 58.4073 37.9989 62.5906 33.15C63.5731 32.0091 63.6999 31.3752 63.6682 31.1058C63.6206 30.5195 63.4146 30.0917 63.0185 29.7589C61.9727 28.9191 60.0077 29.0617 59.1996 29.1726C59.1837 29.1726 59.1521 29.1726 59.1362 29.1726H59.1204C57.2664 29.4262 54.7151 30.2026 52.1164 31.296C50.8962 31.8031 49.7395 32.3418 48.6778 32.9123C47.9172 33.3084 47.2358 33.7204 46.6337 34.1007C46.0949 34.4494 45.6037 34.798 45.1758 35.1307C44.9064 35.3526 44.4944 35.305 44.2726 35.0357C44.0507 34.7663 44.0983 34.3543 44.3677 34.1324C44.8272 33.768 45.3501 33.3877 45.9206 33.0232C46.5544 32.6112 47.2675 32.1992 48.0598 31.7714C49.1532 31.1851 50.3575 30.6146 51.6093 30.0917C54.3348 28.9508 56.9178 28.1585 58.9144 27.8732C58.9777 27.8574 59.0253 27.8574 59.0728 27.8574C60.2771 27.6989 62.4797 27.6197 63.8266 28.7289C64.4922 29.2835 64.8725 30.0283 64.9517 30.9632C65.0151 31.8031 64.5556 32.7855 63.5573 33.9423C59.1362 39.0764 45.3184 46.429 40.6121 46.7776C40.0575 46.8568 39.5346 46.8727 39.0434 46.8727Z" fill="#017038"/>
<path d="M2.53491 56C2.42399 56 2.31306 55.9683 2.21799 55.9049C2.04368 55.794 1.91691 55.6197 1.90107 55.4137L-0.000462991 35.2575C-0.0321551 34.9564 0.157998 34.6712 0.443227 34.5761L9.30118 31.8506C9.58641 31.7714 9.88748 31.8823 10.0301 32.12L17.9373 44.8919C17.9848 44.9711 18.0165 45.0504 18.0324 45.1454L18.4602 48.4097C18.4919 48.695 18.3493 48.9643 18.0799 49.0753L2.80429 55.9366C2.72506 55.9683 2.62998 56 2.53491 56ZM1.33061 35.6536L3.10537 54.3995L17.1133 48.1087L16.7647 45.4465L9.19026 33.2134L1.33061 35.6536Z" fill="#017038"/>
<path d="M10.5838 47.9027C9.49037 47.9027 8.53961 47.0787 8.41284 45.9694C8.28607 44.7651 9.14176 43.6876 10.3302 43.5608C10.9165 43.4975 11.487 43.6559 11.9307 44.0204C12.3902 44.3848 12.6754 44.9078 12.7388 45.4941C12.8022 46.0645 12.6437 46.635 12.2793 47.0945C11.9148 47.5541 11.3919 47.8393 10.8056 47.9027C10.7422 47.9027 10.663 47.9027 10.5838 47.9027ZM10.4887 44.8285C9.99745 44.8919 9.63299 45.3356 9.69637 45.8268C9.75975 46.3181 10.2034 46.6825 10.6947 46.6191C10.9324 46.5874 11.1542 46.4765 11.2968 46.2864C11.4394 46.0962 11.5028 45.8744 11.487 45.6208C11.4553 45.3831 11.3444 45.1613 11.1542 45.0187C10.9641 44.8602 10.7264 44.7968 10.4887 44.8285Z" fill="#017038"/>
<path d="M48.3626 33.0074C48.014 33.0074 47.7129 32.7221 47.7129 32.3577V8.74704C47.7129 8.39843 47.9981 8.09735 48.3626 8.09735H51.8012C52.1498 8.09735 52.4509 8.38258 52.4509 8.74704V30.5829C52.4509 30.9315 52.1656 31.2326 51.8012 31.2326C51.4367 31.2326 51.1515 30.9474 51.1515 30.5829V9.39673H48.9964V32.3577C49.0123 32.7221 48.727 33.0074 48.3626 33.0074Z" fill="#017038"/>
<path d="M46.1916 34.1007C45.843 34.1007 45.5419 33.8155 45.5419 33.451V12.4709H43.4185V29.7748C43.4185 30.1234 43.1333 30.4244 42.7688 30.4244C42.4202 30.4244 42.1191 30.1392 42.1191 29.7748V11.8212C42.1191 11.4726 42.4044 11.1715 42.7688 11.1715H46.1916C46.5402 11.1715 46.8413 11.4567 46.8413 11.8212V33.451C46.8413 33.8155 46.556 34.1007 46.1916 34.1007Z" fill="#017038"/>
<path d="M40.5981 29.1885C40.2494 29.1885 39.9484 28.9032 39.9484 28.5388V15.4341H37.8091V27.7623C37.8091 28.1109 37.5239 28.412 37.1595 28.412C36.8108 28.412 36.5098 28.1268 36.5098 27.7623V14.8002C36.5098 14.4516 36.795 14.1505 37.1595 14.1505H40.5822C40.9308 14.1505 41.2319 14.4358 41.2319 14.8002V28.5546C41.2319 28.9032 40.9467 29.1885 40.5981 29.1885Z" fill="#017038"/>
<path d="M34.9867 27.7623C34.6381 27.7623 34.337 27.4771 34.337 27.1126V19.5699H32.1978V26.6214C32.1978 26.97 31.9126 27.2711 31.5481 27.2711C31.1837 27.2711 30.8984 26.9859 30.8984 26.6214V18.9361C30.8984 18.5875 31.1837 18.2864 31.5481 18.2864H34.9709C35.3195 18.2864 35.6206 18.5716 35.6206 18.9361V27.1126C35.6364 27.4771 35.3512 27.7623 34.9867 27.7623Z" fill="#017038"/>
<path d="M29.3949 27.0334C29.0463 27.0334 28.7452 26.7482 28.7452 26.3837V23.9117H26.606V26.3362C26.606 26.6848 26.3208 26.9859 25.9563 26.9859C25.5919 26.9859 25.3066 26.7006 25.3066 26.3362V23.262C25.3066 22.9134 25.5919 22.6123 25.9563 22.6123H29.3791C29.7277 22.6123 30.0288 22.8976 30.0288 23.262V26.3837C30.0446 26.7482 29.7594 27.0334 29.3949 27.0334Z" fill="#017038"/>
<path d="M59.1048 29.1885C58.7562 29.1885 58.4551 28.9032 58.4551 28.5388C58.4551 28.4437 58.4709 28.3486 58.5185 28.2535C59.4692 25.9083 59.9446 23.4363 59.9446 20.901C59.9446 10.0781 51.1342 1.26769 40.3113 1.26769C29.4885 1.26769 20.6781 10.0781 20.6781 20.901C20.6781 22.9927 20.9791 24.9576 21.5496 26.7006C21.5496 26.7165 21.5654 26.7323 21.5654 26.7482C21.6764 27.0492 21.5338 27.3979 21.2327 27.5405C20.9158 27.6989 20.5354 27.5563 20.377 27.2394C20.3453 27.176 20.3294 27.1285 20.3136 27.0651C19.6956 25.1953 19.3945 23.1194 19.3945 20.901C19.3945 9.36503 28.7754 -0.0158386 40.3113 -0.0158386C51.8473 -0.0158386 61.2281 9.36503 61.2281 20.901C61.2281 23.6106 60.7211 26.2569 59.7069 28.7606C59.6911 28.7765 59.6911 28.8082 59.6752 28.824C59.5643 29.0458 59.3583 29.1885 59.1048 29.1885Z" fill="#017038"/>
</svg>
