<svg width="94" height="56" viewBox="0 0 94 56" fill="none" xmlns="http://www.w3.org/2000/svg">
<g clip-path="url(#clip0_4_12)">
<path d="M92.6134 50.0997H89.5579C88.9784 50.0997 88.5042 49.6256 88.5042 49.0461V47.7291C88.5042 46.412 87.3452 45.3057 85.9755 45.3057H77.81C77.2305 45.3057 76.7563 44.8316 76.7563 44.2521V26.1825C76.7563 25.603 77.2305 25.1289 77.81 25.1289H90.1373C91.349 25.1289 92.3499 24.1279 92.3499 22.9163V2.21261C92.3499 1.00094 91.349 0 90.1373 0H62.2164C61.0047 0 60.0038 1.00094 60.0038 2.21261V12.8015C60.0038 13.381 59.5296 13.8551 58.9501 13.8551H34.1373C33.5579 13.8551 33.0837 13.381 33.0837 12.8015V2.21261C33.0837 1.00094 32.0828 0 30.8711 0H3.00282C1.79116 0 0.790216 1.00094 0.790216 2.21261V22.9163C0.790216 24.1279 1.79116 25.1289 3.00282 25.1289H15.3302C15.9097 25.1289 16.3838 25.603 16.3838 26.1825V44.2521C16.3838 44.8316 15.9097 45.3057 15.3302 45.3057H7.21731C5.79492 45.3057 4.63594 46.3594 4.63594 47.7291V49.0461C4.63594 49.6256 4.16181 50.0997 3.58231 50.0997H0.526811C0.210724 50.0997 0 50.3631 0 50.6265C0 50.8899 0.263405 51.1533 0.526811 51.1533H3.58231C4.16181 51.1533 4.63594 51.6275 4.63594 52.207V53.524C4.63594 54.841 5.79492 55.9473 7.21731 55.9473H26.7093C28.1317 55.9473 29.238 54.841 29.238 53.524V52.207C29.238 51.6275 29.7121 51.1533 30.2916 51.1533H33.2418C33.8213 51.1533 34.2954 51.6275 34.2954 52.207V53.524C34.2954 54.841 35.4544 55.9473 36.8241 55.9473H56.3161C57.7385 55.9473 58.8975 54.841 58.8975 53.524V52.207C58.8975 51.6275 59.3716 51.1533 59.9511 51.1533H62.9012C63.4807 51.1533 63.9548 51.6275 63.9548 52.207V53.524C63.9548 54.841 65.1138 55.9473 66.5362 55.9473H86.0282C87.4506 55.9473 88.5569 54.841 88.5569 53.524V52.207C88.5569 51.6275 89.031 51.1533 89.6105 51.1533H92.666C92.9821 51.1533 93.1928 50.8899 93.1928 50.6265C93.1928 50.3631 92.9294 50.0997 92.6134 50.0997ZM61.2154 8.06021C61.2154 7.48071 61.6896 7.00658 62.269 7.00658H82.2352C82.5513 7.00658 82.762 6.74318 82.762 6.47977C82.762 6.16369 82.4986 5.95296 82.2352 5.95296H62.269C62.0056 5.95296 61.7422 5.8476 61.5315 5.63688C61.3208 5.42615 61.2154 5.16275 61.2154 4.89934V2.21261C61.2154 1.63311 61.6896 1.15898 62.269 1.15898C62.269 1.15898 69.2229 1.15898 76.2295 1.15898C79.7065 1.15898 83.2361 1.15898 85.8175 1.15898C90.6115 1.15898 90.6115 1.15898 90.9276 1.47507C91.1383 1.68579 91.2436 1.9492 91.2436 2.21261L91.191 22.969C91.191 23.5484 90.7168 24.0226 90.1373 24.0226L62.1637 23.9699C61.9003 23.9699 61.6369 23.8645 61.4261 23.6538C61.2154 23.4431 61.1101 23.1797 61.1101 22.9163L61.2154 8.06021ZM33.0837 16.0151C33.0837 15.4356 33.5579 14.9614 34.1373 14.9614H59.0028C59.5823 14.9614 60.0564 15.4356 60.0564 16.0151V18.7018C60.0564 19.2813 59.5823 19.7554 59.0028 19.7554H34.7168C34.5588 19.7554 34.4008 19.7554 34.2427 19.8081C34.19 19.8081 34.1373 19.8081 34.0847 19.8081C33.8213 19.8081 33.6105 19.7027 33.3998 19.5447C33.1891 19.334 33.031 19.0706 33.031 18.7545V16.0151H33.0837ZM33.0837 22.9163V21.8627C33.0837 21.5466 33.2418 21.2832 33.4525 21.0724C33.6632 20.8617 33.9793 20.7563 34.2954 20.809C34.4007 20.809 34.5588 20.8617 34.7695 20.8617H59.0028C59.5823 20.8617 60.0564 21.3358 60.0564 21.9153V22.9163C60.0564 23.6538 60.4779 24.3913 61.1101 24.8128C61.4261 25.0235 61.6369 25.3396 61.6369 25.7084L61.5842 36.8241C61.5842 37.4036 61.1101 37.8777 60.5306 37.8777L32.6096 37.825C32.0301 37.825 31.556 37.3509 31.556 36.7714V25.7084C31.556 25.3396 31.7667 25.0235 32.0828 24.8128C32.6623 24.3913 33.0837 23.6538 33.0837 22.9163ZM2.95014 23.9699C2.68674 23.9699 2.42333 23.8645 2.21261 23.6538C2.00188 23.4431 1.89652 23.1797 1.89652 22.9163L1.9492 8.06021C1.9492 7.48071 2.42333 7.00658 3.00282 7.00658H22.969C23.285 7.00658 23.4958 6.74318 23.4958 6.47977C23.4958 6.16369 23.2324 5.95296 22.969 5.95296H3.00282C2.73942 5.95296 2.47601 5.8476 2.26529 5.63688C2.05456 5.42615 1.9492 5.16275 1.9492 4.89934V2.21261C1.9492 1.63311 2.42333 1.15898 3.00282 1.15898C3.00282 1.15898 9.95673 1.15898 16.9633 1.15898C20.4403 1.15898 23.9699 1.15898 26.5513 1.15898C31.3979 1.15898 31.3979 1.15898 31.714 1.52775C31.8721 1.73848 31.9774 1.9492 31.9774 2.21261L31.9247 22.969C31.9247 23.5484 31.4506 24.0226 30.8711 24.0226L2.95014 23.9699ZM28.1317 53.5767C28.1317 54.3142 27.4995 54.8937 26.6566 54.8937H7.16463C6.37441 54.8937 5.68956 54.3142 5.68956 53.5767V47.6764C5.68956 46.9388 6.32173 46.3594 7.16463 46.3594H26.6566C27.4468 46.3594 28.1317 46.9388 28.1317 47.6764V53.5767ZM34.2954 47.6764V48.9934C34.2954 49.5729 33.8213 50.047 33.2418 50.047H30.2916C29.7121 50.047 29.238 49.5729 29.238 48.9934V47.6764C29.238 46.3594 28.079 45.2531 26.7093 45.2531H18.5437C17.9643 45.2531 17.4901 44.7789 17.4901 44.1994V26.1825C17.4901 25.603 17.9643 25.1289 18.5437 25.1289H29.396C29.9755 25.1289 30.4497 25.603 30.4497 26.1825V36.7714C30.4497 37.9831 31.4506 38.984 32.6623 38.984H44.9897C45.5691 38.984 46.0433 39.4581 46.0433 40.0376V44.2521C46.0433 44.8316 45.5691 45.3057 44.9897 45.3057H36.8241C35.4544 45.3057 34.2954 46.3594 34.2954 47.6764ZM57.7912 53.5767C57.7912 54.3142 57.159 54.8937 56.3161 54.8937H36.8241C36.0339 54.8937 35.349 54.3142 35.349 53.5767V47.6764C35.349 46.9388 35.9812 46.3594 36.8241 46.3594H56.3161C57.1063 46.3594 57.7912 46.9388 57.7912 47.6764V53.5767ZM63.9022 47.6764V48.9934C63.9022 49.5729 63.428 50.047 62.8485 50.047H59.8984C59.3189 50.047 58.8448 49.5729 58.8448 48.9934V47.6764C58.8448 46.3594 57.6858 45.2531 56.2634 45.2531H48.2032C47.6237 45.2531 47.1496 44.7789 47.1496 44.1994V39.9849C47.1496 39.4055 47.6237 38.9313 48.2032 38.9313H60.5306C61.7422 38.9313 62.7432 37.9304 62.7432 36.7187V26.1825C62.7432 25.603 63.2173 25.1289 63.7968 25.1289H74.6491C75.2286 25.1289 75.7027 25.603 75.7027 26.1825V44.2521C75.7027 44.8316 75.2286 45.3057 74.6491 45.3057H66.4835C65.0611 45.3057 63.9022 46.3594 63.9022 47.6764ZM87.3979 53.5767C87.3979 54.3142 86.7658 54.8937 85.9229 54.8937H66.4309C65.6406 54.8937 64.9558 54.3142 64.9558 53.5767V47.6764C64.9558 46.9388 65.588 46.3594 66.4309 46.3594H85.9229C86.7131 46.3594 87.3979 46.9388 87.3979 47.6764V53.5767Z" fill="url(#paint0_linear_4_12)"/>
</g>
<defs>
<linearGradient id="paint0_linear_4_12" x1="-1.05362" y1="27.9971" x2="94.2096" y2="27.9971" gradientUnits="userSpaceOnUse">
<stop stop-color="#F0BE58"/>
<stop offset="0.3618" stop-color="#E24B68"/>
<stop offset="1" stop-color="#307BDF"/>
</linearGradient>
<clipPath id="clip0_4_12">
<rect width="93.1402" height="56" fill="white"/>
</clipPath>
</defs>
</svg>
