<svg width="62" height="62" viewBox="0 0 62 62" fill="none" xmlns="http://www.w3.org/2000/svg">
<g clip-path="url(#clip0_866_764)">
<path d="M56.0648 33.8718C55.9691 33.7921 55.9213 33.6804 55.9213 33.5687V13.7051C55.9213 13.5136 56.0648 13.3381 56.2563 13.3062C59.527 12.8276 61.984 9.98765 61.984 6.68502C61.984 2.99949 58.9846 0 55.299 0C51.6135 0 48.614 2.99949 48.614 6.68502C48.614 6.90839 48.4385 7.08389 48.2151 7.08389H0V46.7952H30.0427C30.2501 46.7952 30.4256 46.9547 30.4416 47.1621C30.9521 55.4745 37.8765 61.984 46.2048 61.984C54.9161 61.984 62.016 54.9002 62.016 46.1729C62 41.3865 59.8461 36.9032 56.0648 33.8718ZM55.315 1.22851C58.3304 1.22851 60.7715 3.68554 60.7715 6.68502C60.7715 9.68451 58.3145 12.1415 55.315 12.1415C52.3155 12.1415 49.8585 9.68451 49.8585 6.68502C49.8585 3.68554 52.2995 1.22851 55.315 1.22851ZM30.6809 43.2373C30.5692 43.8435 30.4894 44.4977 30.4416 45.2156C30.4256 45.4231 30.2501 45.5826 30.0427 45.5826H1.62738C1.40401 45.5826 1.22851 45.4071 1.22851 45.1837V8.71127C1.22851 8.4879 1.40401 8.3124 1.62738 8.3124H48.5183C48.6938 8.3124 48.8533 8.42409 48.9012 8.59959C49.1245 9.34946 49.4756 10.0515 49.9542 10.6897C50.0659 10.8492 50.0499 11.0726 49.9223 11.2162L43.7319 17.4066C43.6042 17.5342 43.4287 17.5502 43.2851 17.4864C42.5512 17.1354 41.7535 17.1354 41.0196 17.4864C40.86 17.5661 40.6845 17.5342 40.5569 17.4066L38.5147 15.3644C38.403 15.2527 38.3711 15.0612 38.4349 14.9177C38.6104 14.5507 38.7061 14.1678 38.7061 13.7849C38.7061 12.333 37.5255 11.1523 36.0736 11.1523C34.6217 11.1523 33.4411 12.333 33.4411 13.7849C33.4411 14.1678 33.5368 14.5507 33.7123 14.9177C33.7921 15.0772 33.7602 15.2527 33.6325 15.3803L28.5589 20.4539C28.4472 20.5816 28.2558 20.5975 28.1122 20.5337C27.7452 20.3582 27.3623 20.2625 26.9794 20.2625C25.5275 20.2625 24.3469 21.4431 24.3469 22.895C24.3469 24.3469 25.5275 25.5275 26.9794 25.5275C28.4313 25.5275 29.6119 24.3469 29.6119 22.895C29.6119 22.5121 29.5162 22.1292 29.3407 21.7622C29.2609 21.6027 29.2928 21.4272 29.4205 21.2995L34.4941 16.2259C34.6058 16.1143 34.7972 16.0823 34.9408 16.1462C35.6747 16.4972 36.4725 16.4972 37.2064 16.1462C37.3659 16.0664 37.5414 16.0983 37.6691 16.2259L39.7113 18.2681C39.823 18.3798 39.8549 18.5713 39.791 18.7149C39.6155 19.0818 39.5198 19.4647 39.5198 19.8477C39.5198 21.2995 40.7005 22.4802 42.1523 22.4802C43.6042 22.4802 44.7849 21.2995 44.7849 19.8477C44.7849 19.4647 44.6891 19.0818 44.5136 18.7149C44.4339 18.5553 44.4658 18.3798 44.5934 18.2522L50.7838 12.0618C50.9274 11.9182 51.1508 11.9022 51.3103 12.0299C52.2038 12.6999 53.2568 13.1307 54.3577 13.2903C54.5492 13.3222 54.6927 13.4817 54.6927 13.6891V32.1647C54.6927 32.3083 54.613 32.4359 54.4853 32.5157C54.3577 32.5795 54.2141 32.5795 54.0865 32.5157C51.6773 31.1117 48.949 30.3778 46.1889 30.3778C41.6737 30.3778 37.35 32.3402 34.3345 35.7705C34.2229 35.8981 34.0473 35.946 33.8878 35.8821C33.7283 35.8183 33.6325 35.6747 33.6325 35.5152V31.3989H28.3515V42.7586H30.282C30.3937 42.7586 30.5214 42.8065 30.5852 42.9022C30.6649 42.9979 30.6969 43.1096 30.6809 43.2373ZM43.5564 19.8636C43.5564 20.6454 42.9182 21.2676 42.1523 21.2676C41.3706 21.2676 40.7483 20.6294 40.7483 19.8636C40.7483 19.0978 41.3865 18.4596 42.1523 18.4596C42.9182 18.4436 43.5564 19.0818 43.5564 19.8636ZM37.4776 13.7849C37.4776 14.5666 36.8394 15.1889 36.0736 15.1889C35.3078 15.1889 34.6696 14.5507 34.6696 13.7849C34.6696 13.019 35.3078 12.3809 36.0736 12.3809C36.8394 12.3809 37.4776 13.0031 37.4776 13.7849ZM28.3675 22.895C28.3675 23.6768 27.7293 24.299 26.9635 24.299C26.1817 24.299 25.5594 23.6608 25.5594 22.895C25.5594 22.1292 26.1976 21.491 26.9635 21.491C27.7293 21.491 28.3675 22.1132 28.3675 22.895ZM54.6927 46.1889C54.6927 50.8796 50.8796 54.6927 46.1889 54.6927C41.4982 54.6927 37.685 50.8796 37.685 46.1889C37.685 41.4982 41.4982 37.685 46.1889 37.685C50.8796 37.685 54.6927 41.4982 54.6927 46.1889ZM30.8085 41.5301H29.9949C29.7715 41.5301 29.596 41.3546 29.596 41.1312V33.0262C29.596 32.8029 29.7715 32.6274 29.9949 32.6274H32.0211C32.2445 32.6274 32.42 32.8029 32.42 33.0262V38.3711C32.42 38.4349 32.404 38.4987 32.3721 38.5625C31.9094 39.4081 31.5105 40.3176 31.1915 41.2589C31.1276 41.4184 30.984 41.5301 30.8085 41.5301ZM33.457 52.7782C33.4251 52.7782 33.3773 52.7782 33.3453 52.7622C33.2337 52.7303 33.1539 52.6505 33.106 52.5548C32.1168 50.5445 31.6222 48.4066 31.6222 46.1889C31.6222 38.5785 37.5733 32.1966 45.1678 31.6701C45.2795 31.6701 45.3911 31.702 45.4709 31.7818C45.5507 31.8616 45.5986 31.9573 45.5986 32.069V36.1215C45.5986 36.3289 45.439 36.5044 45.2316 36.5203C42.8384 36.7596 40.6366 37.8765 39.0093 39.6634C37.3659 41.4663 36.4725 43.7797 36.4725 46.2048C36.4725 47.5769 36.7597 48.9171 37.334 50.1935C37.4138 50.385 37.35 50.6083 37.1745 50.7041L33.6644 52.7303C33.5847 52.7622 33.5208 52.7782 33.457 52.7782ZM58.2666 54.3577C55.5383 58.3783 51.0232 60.7715 46.2048 60.7715C41.3865 60.7715 36.8554 58.3783 34.1431 54.3577C34.0793 54.262 34.0633 54.1503 34.0793 54.0386C34.1112 53.9269 34.175 53.8312 34.2707 53.7833L37.7967 51.7411C37.9722 51.6454 38.1956 51.6933 38.3232 51.8528C40.158 54.3896 43.1096 55.9053 46.2048 55.9053C49.316 55.9053 52.2517 54.3896 54.0865 51.8528C54.2141 51.6933 54.4375 51.6454 54.613 51.7411L58.139 53.7833C58.2347 53.8312 58.2985 53.9269 58.3304 54.0386C58.3464 54.1662 58.3304 54.2779 58.2666 54.3577ZM59.2877 52.5548C59.2398 52.6505 59.1441 52.7303 59.0484 52.7622C59.0165 52.7782 58.9686 52.7782 58.9367 52.7782C58.8729 52.7782 58.7931 52.7622 58.7452 52.7303L55.2352 50.7041C55.0597 50.6083 54.9799 50.385 55.0757 50.1935C55.65 48.9171 55.9372 47.5769 55.9372 46.2048C55.9372 43.7797 55.0437 41.4503 53.4004 39.6634C51.773 37.8765 49.5713 36.7596 47.1781 36.5203C46.9707 36.5044 46.8111 36.3289 46.8111 36.1215V32.069C46.8111 31.9573 46.859 31.8456 46.9388 31.7818C47.0185 31.702 47.1302 31.6701 47.2419 31.6701C54.8363 32.2126 60.7874 38.5944 60.7874 46.1889C60.7715 48.4066 60.2769 50.5445 59.2877 52.5548Z" fill="url(#paint0_linear_866_764)"/>
<path d="M46.1887 51.8688C49.3158 51.8688 51.8685 49.316 51.8685 46.1889C51.8685 43.0618 49.3158 40.509 46.1887 40.509C43.0615 40.509 40.5088 43.0618 40.5088 46.1889C40.5088 49.316 43.0615 51.8688 46.1887 51.8688ZM46.1887 41.7375C48.6457 41.7375 50.64 43.7319 50.64 46.1889C50.64 48.6459 48.6457 50.6403 46.1887 50.6403C43.7316 50.6403 41.7373 48.6459 41.7373 46.1889C41.7373 43.7319 43.7316 41.7375 46.1887 41.7375Z" fill="url(#paint1_linear_866_764)"/>
<path d="M9.33374 33.425H4.05273V42.7586H9.33374V33.425ZM8.10523 41.1312C8.10523 41.3545 7.92973 41.53 7.70636 41.53H5.68011C5.45675 41.53 5.28125 41.3545 5.28125 41.1312V35.0524C5.28125 34.8291 5.45675 34.6536 5.68011 34.6536H7.70636C7.92973 34.6536 8.10523 34.8291 8.10523 35.0524V41.1312Z" fill="url(#paint2_linear_866_764)"/>
<path d="M17.4382 35.4514H12.1572V42.7587H17.4382V35.4514ZM16.2097 41.1313C16.2097 41.3547 16.0342 41.5302 15.8109 41.5302H13.7846C13.5612 41.5302 13.3857 41.3547 13.3857 41.1313V37.0788C13.3857 36.8554 13.5612 36.6799 13.7846 36.6799H15.8109C16.0342 36.6799 16.2097 36.8554 16.2097 37.0788V41.1313Z" fill="url(#paint3_linear_866_764)"/>
<path d="M25.5437 27.3464H20.2627V42.7587H25.5437V27.3464ZM24.3152 41.1313C24.3152 41.3547 24.1397 41.5302 23.9163 41.5302H21.8901C21.6667 41.5302 21.4912 41.3547 21.4912 41.1313V28.9738C21.4912 28.7505 21.6667 28.575 21.8901 28.575H23.9163C24.1397 28.575 24.3152 28.7505 24.3152 28.9738V41.1313Z" fill="url(#paint4_linear_866_764)"/>
</g>
<defs>
<linearGradient id="paint0_linear_866_764" x1="1.98435" y1="48.9691" x2="52.1824" y2="17.9644" gradientUnits="userSpaceOnUse">
<stop stop-color="#FABE3E"/>
<stop offset="0.3618" stop-color="#F63966"/>
<stop offset="1" stop-color="#007AE8"/>
</linearGradient>
<linearGradient id="paint1_linear_866_764" x1="12.9512" y1="66.7253" x2="63.1492" y2="35.7206" gradientUnits="userSpaceOnUse">
<stop stop-color="#FABE3E"/>
<stop offset="0.3618" stop-color="#F63966"/>
<stop offset="1" stop-color="#007AE8"/>
</linearGradient>
<linearGradient id="paint2_linear_866_764" x1="-1.57936" y1="43.1989" x2="48.6187" y2="12.1942" gradientUnits="userSpaceOnUse">
<stop stop-color="#FABE3E"/>
<stop offset="0.3618" stop-color="#F63966"/>
<stop offset="1" stop-color="#007AE8"/>
</linearGradient>
<linearGradient id="paint3_linear_866_764" x1="1.11057" y1="47.5549" x2="51.3086" y2="16.5502" gradientUnits="userSpaceOnUse">
<stop stop-color="#FABE3E"/>
<stop offset="0.3618" stop-color="#F63966"/>
<stop offset="1" stop-color="#007AE8"/>
</linearGradient>
<linearGradient id="paint4_linear_866_764" x1="1.53726" y1="48.245" x2="51.7353" y2="17.2403" gradientUnits="userSpaceOnUse">
<stop stop-color="#FABE3E"/>
<stop offset="0.3618" stop-color="#F63966"/>
<stop offset="1" stop-color="#007AE8"/>
</linearGradient>
<clipPath id="clip0_866_764">
<rect width="62" height="62" fill="white"/>
</clipPath>
</defs>
</svg>
