<svg width="61" height="62" viewBox="0 0 61 62" fill="none" xmlns="http://www.w3.org/2000/svg">
<g clip-path="url(#clip0_349_695)">
<path d="M6.72644 52.8842H5.16931V62.0016H6.72644V52.8842Z" fill="url(#paint0_linear_349_695)"/>
<path d="M19.6488 52.8842H18.0917V62.0016H19.6488V52.8842Z" fill="url(#paint1_linear_349_695)"/>
<path d="M55.056 45.5871C54.7746 45.584 52.5556 45.4951 52.0562 43.3786C54.323 41.7173 55.8322 38.4506 55.8322 34.6119V32.045C55.8322 31.9811 55.8245 31.9172 55.809 31.8549C55.3111 29.8475 53.1618 26.0509 48.5925 26.0509C45.9235 26.0509 44.0803 27.3476 42.9098 28.8251V25.5334C42.9098 22.2278 40.2424 19.5393 36.9658 19.5393C36.6844 19.5362 34.4655 19.4474 33.966 17.3309C36.2329 15.6695 37.7421 12.4028 37.7421 8.56414V5.99723C37.7421 5.93334 37.7343 5.86943 37.7189 5.80709C37.2194 3.79659 35.0701 0 30.5007 0C25.9314 0 23.7821 3.79659 23.2842 5.80398C23.2687 5.86632 23.261 5.93022 23.261 5.99412V8.56102C23.261 12.4012 24.7701 15.6664 27.037 17.3278C26.5376 19.4443 24.3186 19.5347 24.0403 19.5362C20.7606 19.5362 18.0932 22.2247 18.0932 25.5303V28.8219C16.9227 27.3445 15.0795 26.0478 12.4106 26.0478C7.84125 26.0478 5.69189 29.8443 5.19398 31.8517C5.17852 31.9141 5.17079 31.978 5.17079 32.0419V34.6088C5.17079 38.449 6.67998 41.7157 8.94685 43.3755C8.4474 45.492 6.22846 45.5824 5.95012 45.584C2.67042 45.584 0.00305176 48.2724 0.00305176 51.5781V61.9984H1.55708V51.5781C1.55708 49.1374 3.52707 47.1534 5.94703 47.1534C5.99342 47.1534 7.11294 47.1472 8.23401 46.5814C9.02262 46.184 9.92102 45.4562 10.3493 44.1517C11.0003 44.4073 11.69 44.5475 12.409 44.5475C13.1281 44.5475 13.8146 44.4088 14.4656 44.1532C15.4228 47.1098 18.8308 47.1519 18.871 47.1519C21.2925 47.1519 23.261 49.1374 23.261 51.5765V61.9969H24.8181V51.5765C24.8181 48.2709 22.1507 45.5824 18.8741 45.5824C18.5927 45.5793 16.3737 45.4905 15.8743 43.374C17.8706 41.9105 19.2792 39.1987 19.5854 35.9476H19.6503V25.5272C19.6503 23.0865 21.6203 21.1025 24.0403 21.1025C24.0805 21.1025 27.4885 21.0605 28.4457 18.1039C29.0951 18.3595 29.7848 18.4982 30.5023 18.4982C31.2198 18.4982 31.911 18.3595 32.562 18.1024C32.9903 19.4069 33.8871 20.1331 34.6773 20.5321C35.7984 21.0963 36.9163 21.1041 36.9643 21.1041C39.3858 21.1041 41.3542 23.0897 41.3542 25.5288V35.9491H41.4192C41.7253 39.2002 43.1325 41.9121 45.1303 43.3755C44.6308 45.492 42.4119 45.5824 42.1336 45.584C38.8539 45.584 36.1865 48.2724 36.1865 51.5781V61.9984H37.7436V51.5781C37.7436 49.1374 39.7136 47.1534 42.1336 47.1534C42.1738 47.1534 45.5818 47.1113 46.539 44.1548C47.1884 44.4104 47.8781 44.5491 48.5955 44.5491C49.313 44.5491 50.0042 44.4104 50.6552 44.1532C51.0835 45.4577 51.9804 46.184 52.7706 46.583C53.8916 47.1472 55.0096 47.155 55.0575 47.155C57.479 47.155 59.4475 49.1405 59.4475 51.5797V62H61.0046V51.5797C61.0046 48.274 58.3372 45.5855 55.0606 45.5855L55.056 45.5871ZM14.413 42.4638H14.2151C14.2151 42.4981 14.2182 42.5292 14.2182 42.562C13.6522 42.8332 13.0446 42.9812 12.409 42.9812C11.7735 42.9812 11.1658 42.8332 10.5998 42.562C10.5998 42.5292 10.6029 42.4981 10.6029 42.4638H10.405C8.23556 41.2933 6.72637 38.2604 6.72637 34.6103V32.1494C6.91501 31.4964 8.21545 27.6188 12.409 27.6188C16.6026 27.6188 17.9046 31.5026 18.0917 32.1494V34.6103C18.0917 38.2604 16.5825 41.2933 14.413 42.4638ZM30.5007 16.9319C29.8652 16.9319 29.2575 16.7838 28.6916 16.5127C28.6916 16.4799 28.6947 16.4488 28.6947 16.4145H28.4967C26.3273 15.244 24.8181 12.2111 24.8181 8.56102V6.10166C25.0021 5.4798 26.3288 1.56944 30.5007 1.56944C34.6727 1.56944 35.9963 5.45331 36.1834 6.1001V8.56102C36.1834 12.2111 34.6742 15.244 32.5047 16.4145H32.3068C32.3068 16.4488 32.3099 16.4799 32.3099 16.5127C31.744 16.7838 31.1363 16.9319 30.5007 16.9319ZM48.5925 42.9812C47.9569 42.9812 47.3492 42.8332 46.7833 42.562C46.7833 42.5292 46.7864 42.4981 46.7864 42.4638H46.5885C44.419 41.2933 42.9098 38.2604 42.9098 34.6103V32.1494C43.0984 31.4964 44.3973 27.6188 48.5925 27.6188C52.7876 27.6188 54.088 31.5026 54.2751 32.1494V34.6103C54.2751 38.2604 52.7659 41.2933 50.5965 42.4638H50.3985C50.3985 42.4981 50.4016 42.5292 50.4016 42.562C49.8357 42.8332 49.228 42.9812 48.5925 42.9812Z" fill="url(#paint2_linear_349_695)"/>
<path d="M42.9083 52.8842H41.3512V62.0016H42.9083V52.8842Z" fill="url(#paint3_linear_349_695)"/>
<path d="M55.8323 52.8842H54.2751V62.0016H55.8323V52.8842Z" fill="url(#paint4_linear_349_695)"/>
<path d="M31.2786 48.9753H29.7214V51.5797H31.2786V48.9753Z" fill="url(#paint5_linear_349_695)"/>
<path d="M34.8908 32.829V37.2536H36.4479V32.0435C36.4479 31.6102 36.1 31.2595 35.6701 31.2595H31.2802V22.9276H29.723V31.2595H25.3331C24.9032 31.2595 24.5553 31.6102 24.5553 32.0435V37.2536H26.1124V32.829H29.7246V46.3711H31.2817V32.829H34.8939H34.8908Z" fill="url(#paint6_linear_349_695)"/>
<path d="M26.1092 39.8595H24.5521V42.4638H26.1092V39.8595Z" fill="url(#paint7_linear_349_695)"/>
<path d="M36.4479 39.8595H34.8907V42.4638H36.4479V39.8595Z" fill="url(#paint8_linear_349_695)"/>
</g>
<defs>
<linearGradient id="paint0_linear_349_695" x1="2.72925" y1="60.3558" x2="61.1202" y2="8.31094" gradientUnits="userSpaceOnUse">
<stop stop-color="#FABE3E"/>
<stop offset="0.36" stop-color="#F63966"/>
<stop offset="1" stop-color="#007AE8"/>
</linearGradient>
<linearGradient id="paint1_linear_349_695" x1="8.50155" y1="66.8315" x2="66.8909" y2="14.7868" gradientUnits="userSpaceOnUse">
<stop stop-color="#FABE3E"/>
<stop offset="0.36" stop-color="#F63966"/>
<stop offset="1" stop-color="#007AE8"/>
</linearGradient>
<linearGradient id="paint2_linear_349_695" x1="6.84234" y1="64.9706" x2="65.2333" y2="12.9257" gradientUnits="userSpaceOnUse">
<stop stop-color="#FABE3E"/>
<stop offset="0.36" stop-color="#F63966"/>
<stop offset="1" stop-color="#007AE8"/>
</linearGradient>
<linearGradient id="paint3_linear_349_695" x1="18.8897" y1="78.4862" x2="77.2806" y2="26.4416" gradientUnits="userSpaceOnUse">
<stop stop-color="#FABE3E"/>
<stop offset="0.36" stop-color="#F63966"/>
<stop offset="1" stop-color="#007AE8"/>
</linearGradient>
<linearGradient id="paint4_linear_349_695" x1="24.6604" y1="84.9619" x2="83.0513" y2="32.917" gradientUnits="userSpaceOnUse">
<stop stop-color="#FABE3E"/>
<stop offset="0.36" stop-color="#F63966"/>
<stop offset="1" stop-color="#007AE8"/>
</linearGradient>
<linearGradient id="paint5_linear_349_695" x1="10.1623" y1="68.6939" x2="68.5533" y2="16.6492" gradientUnits="userSpaceOnUse">
<stop stop-color="#FABE3E"/>
<stop offset="0.36" stop-color="#F63966"/>
<stop offset="1" stop-color="#007AE8"/>
</linearGradient>
<linearGradient id="paint6_linear_349_695" x1="2.45248" y1="60.0456" x2="60.8434" y2="8.0008" gradientUnits="userSpaceOnUse">
<stop stop-color="#FABE3E"/>
<stop offset="0.36" stop-color="#F63966"/>
<stop offset="1" stop-color="#007AE8"/>
</linearGradient>
<linearGradient id="paint7_linear_349_695" x1="3.35698" y1="61.0586" x2="61.7463" y2="9.01377" gradientUnits="userSpaceOnUse">
<stop stop-color="#FABE3E"/>
<stop offset="0.36" stop-color="#F63966"/>
<stop offset="1" stop-color="#007AE8"/>
</linearGradient>
<linearGradient id="paint8_linear_349_695" x1="7.97409" y1="66.2392" x2="66.3635" y2="14.1939" gradientUnits="userSpaceOnUse">
<stop stop-color="#FABE3E"/>
<stop offset="0.36" stop-color="#F63966"/>
<stop offset="1" stop-color="#007AE8"/>
</linearGradient>
<clipPath id="clip0_349_695">
<rect width="61" height="62" fill="white"/>
</clipPath>
</defs>
</svg>
