<svg width="35" height="41" viewBox="0 0 35 41" fill="none" xmlns="http://www.w3.org/2000/svg">
<g clip-path="url(#clip0_1284_2188)">
<path d="M21.1107 20.9005H28.9784C29.0684 20.9005 29.1585 20.9605 29.1886 21.0506C29.4889 22.3118 30.5999 23.1827 31.8612 23.1827C33.3927 23.1827 34.6239 21.9515 34.6239 20.42C34.6239 18.8885 33.3927 17.6573 31.8612 17.6573C30.5699 17.6573 29.4889 18.5281 29.1886 19.7894C29.1585 19.8795 29.0684 19.9395 28.9784 19.9395H21.1107C20.9905 19.9395 20.9005 19.8494 20.9005 19.7293V16.8465C20.9005 16.7264 20.9905 16.6363 21.1107 16.6363H22.9725C23.0626 16.6363 23.1527 16.6963 23.1827 16.7864C23.453 17.6573 24.2637 18.2579 25.1947 18.2579C26.3358 18.2579 27.2967 17.327 27.2967 16.1558C27.2967 15.0147 26.3658 14.0538 25.1947 14.0538C24.2637 14.0538 23.483 14.6543 23.1827 15.5252C23.1527 15.6153 23.0626 15.6753 22.9725 15.6753H21.1107C20.9905 15.6753 20.9005 15.5853 20.9005 15.4651V10.9007C20.9005 10.7806 20.9905 10.6905 21.1107 10.6905H26.6961C26.7862 10.6905 26.8763 10.7505 26.9063 10.8406C27.2066 12.1018 28.3177 12.9727 29.5789 12.9727C29.8492 12.9727 30.0594 12.7625 30.0594 12.4922C30.0594 12.222 29.8492 12.0118 29.5789 12.0118C28.588 12.0118 27.7772 11.201 27.7772 10.21C27.7772 9.21902 28.588 8.40823 29.5789 8.40823C30.5699 8.40823 31.3807 9.21902 31.3807 10.21C31.3807 10.4803 31.5909 10.6905 31.8612 10.6905C32.1314 10.6905 32.3417 10.4803 32.3417 10.21C32.3417 8.67849 31.1104 7.44729 29.5789 7.44729C28.2877 7.44729 27.2066 8.31814 26.9063 9.57938C26.8763 9.66946 26.7862 9.72952 26.6961 9.72952H21.1107C20.9905 9.72952 20.9005 9.63943 20.9005 9.51932V5.85573C20.9005 5.73561 20.9905 5.64552 21.1107 5.64552H22.9725C23.0626 5.64552 23.1527 5.70558 23.1827 5.79567C23.453 6.66652 24.2637 7.26711 25.1947 7.26711C26.3358 7.26711 27.2967 6.3362 27.2967 5.16506C27.2967 3.99391 26.3658 3.063 25.1947 3.063C24.2637 3.063 23.483 3.66359 23.1827 4.53444C23.1527 4.62453 23.0626 4.68458 22.9725 4.68458H21.1107C20.9905 4.68458 20.9005 4.5945 20.9005 4.47438V0.48047C20.9005 0.210206 20.6902 0 20.42 0H17.5372C16.4561 0 15.5853 0.870852 15.5853 1.95191V7.02688C15.5853 7.11697 15.5252 7.20705 15.4351 7.23708C15.1648 7.32717 14.8946 7.44729 14.5943 7.59744C14.5042 7.62746 14.4141 7.62747 14.354 7.56741L10.7505 3.96388C10.3902 3.60353 9.9097 3.42335 9.36917 3.42335C8.85867 3.42335 8.34817 3.63356 7.98782 3.96388L3.93385 8.01785C3.18312 8.76858 3.18312 9.99979 3.93385 10.7806L7.53738 14.3841C7.59744 14.4441 7.62747 14.5342 7.56741 14.6243C7.44729 14.9246 7.32717 15.1949 7.20705 15.4651C7.17702 15.5552 7.08694 15.6153 6.99685 15.6153H1.95191C0.870852 15.6153 0 16.4861 0 17.5672V23.3328C0 24.4139 0.870852 25.2847 1.95191 25.2847H7.02688C7.11697 25.2847 7.20705 25.3448 7.23708 25.4349C7.32717 25.7052 7.44729 25.9754 7.59744 26.2757C7.62746 26.3658 7.62747 26.4559 7.56741 26.516L3.96388 30.1195C3.60353 30.4798 3.39332 30.9903 3.39332 31.5008C3.39332 32.0113 3.60353 32.5218 3.96388 32.8822L8.04788 36.9662C8.40823 37.3265 8.8887 37.5067 9.42923 37.5067C9.93973 37.5067 10.4502 37.2965 10.8106 36.9662L14.4141 33.3627C14.4441 33.3326 14.5042 33.3026 14.5643 33.3026C14.5943 33.3026 14.6243 33.3026 14.6543 33.3326C14.9546 33.4527 15.2249 33.5729 15.4952 33.693C15.5853 33.723 15.6453 33.8131 15.6453 33.9032V38.9781C15.6453 40.0592 16.5162 40.9301 17.5972 40.9301H20.42C20.6902 40.9301 20.9005 40.7199 20.9005 40.4496V36.4257C20.9005 36.3055 20.9905 36.2154 21.1107 36.2154H22.9725C23.0626 36.2154 23.1527 36.2755 23.1827 36.3656C23.453 37.2364 24.2637 37.837 25.1947 37.837C26.3358 37.837 27.2967 36.9061 27.2967 35.735C27.2967 34.5939 26.3658 33.6329 25.1947 33.6329C24.2637 33.6329 23.483 34.2335 23.1827 35.1044C23.1527 35.1944 23.0626 35.2545 22.9725 35.2545H21.1107C20.9905 35.2545 20.9005 35.1644 20.9005 35.0443V31.3807C20.9005 31.2606 20.9905 31.1705 21.1107 31.1705H26.6961C26.7862 31.1705 26.8763 31.2306 26.9063 31.3207C27.2066 32.5819 28.3177 33.4527 29.5789 33.4527C31.1104 33.4527 32.3417 32.2215 32.3417 30.69C32.3417 29.8192 31.9513 29.0384 31.2606 28.4979C31.0504 28.3477 30.7501 28.3778 30.5999 28.588C30.4498 28.7982 30.4798 29.0985 30.69 29.2486C31.1405 29.609 31.4107 30.1195 31.4107 30.69C31.4107 31.681 30.5999 32.4918 29.609 32.4918C28.618 32.4918 27.8072 31.681 27.8072 30.69C27.8072 30.2396 27.9574 29.8192 28.2577 29.4889C28.4378 29.3087 28.4078 29.0084 28.2276 28.8282C28.0474 28.648 27.7472 28.6781 27.567 28.8582C27.2667 29.1886 27.0565 29.609 26.9364 30.0594C26.9063 30.1495 26.8162 30.2096 26.7262 30.2096H21.1107C20.9905 30.2096 20.9005 30.1195 20.9005 29.9994V25.3748C20.9005 25.2547 20.9905 25.1646 21.1107 25.1646H22.9725C23.0626 25.1646 23.1527 25.2247 23.1827 25.3148C23.453 26.1856 24.2637 26.7862 25.1947 26.7862C26.3358 26.7862 27.2967 25.8553 27.2967 24.6842C27.2967 23.543 26.3658 22.5821 25.1947 22.5821C24.2637 22.5821 23.483 23.1827 23.1827 24.0535C23.1527 24.1436 23.0626 24.2037 22.9725 24.2037H21.1107C20.9905 24.2037 20.9005 24.1136 20.9005 23.9935V21.1107C20.9005 20.9905 20.9905 20.9005 21.1107 20.9005ZM31.8612 18.6182C32.8521 18.6182 33.6629 19.429 33.6629 20.42C33.6629 21.411 32.8521 22.2217 31.8612 22.2217C30.8702 22.2217 30.0594 21.411 30.0594 20.42C30.0594 19.429 30.8702 18.6182 31.8612 18.6182ZM25.1947 15.0147C25.8253 15.0147 26.3358 15.5252 26.3358 16.1558C26.3358 16.7864 25.8253 17.2969 25.1947 17.2969C24.564 17.2969 24.0235 16.8165 24.0235 16.1858C24.0235 15.5552 24.564 15.0147 25.1947 15.0147ZM25.1947 4.02394C25.8253 4.02394 26.3358 4.53444 26.3358 5.16506C26.3358 5.79567 25.8253 6.30617 25.1947 6.30617C24.564 6.30617 24.0235 5.79567 24.0235 5.16506C24.0235 4.53444 24.564 4.02394 25.1947 4.02394ZM6.78664 24.0535C6.81667 24.1136 6.78664 24.1737 6.75661 24.2337C6.72658 24.2938 6.66652 24.3238 6.60647 24.3238H1.95191C1.41138 24.3238 0.96094 23.8734 0.96094 23.3328V17.5372C0.96094 16.9966 1.41138 16.5462 1.95191 16.5462H6.60647C6.66652 16.5462 6.72658 16.5762 6.78664 16.6363C6.81667 16.6963 6.8467 16.7564 6.81667 16.8165C6.51638 17.9876 6.3362 19.2188 6.3362 20.45C6.3362 21.6512 6.48635 22.8824 6.78664 24.0535ZM4.62453 10.1199C4.23414 9.72952 4.23414 9.0989 4.62453 8.70852L8.70852 4.62453C8.8887 4.44435 9.15896 4.32423 9.42923 4.32423C9.69949 4.32423 9.93973 4.41432 10.1499 4.62453L13.4532 7.92776C13.5132 7.98782 13.5132 8.04788 13.5132 8.10793C13.5132 8.16799 13.4532 8.22805 13.4231 8.25808C11.2911 9.48929 9.51932 11.261 8.28811 13.3931C8.25808 13.4532 8.19802 13.4832 8.13796 13.4832H8.10793C8.04788 13.4832 7.98782 13.4532 7.95779 13.4231L4.62453 10.1199ZM13.3931 32.9723L10.0899 36.2755C9.87967 36.4857 9.63943 36.5758 9.36917 36.5758C9.09891 36.5758 8.85867 36.4857 8.64846 36.2755L4.56447 32.1915C4.38429 32.0113 4.26417 31.7411 4.26417 31.4708C4.26417 31.2005 4.35426 30.9603 4.56447 30.7501L7.8677 27.4469C7.92776 27.3868 7.98782 27.3868 8.04788 27.3868C8.10793 27.3868 8.16799 27.4469 8.19802 27.4769C9.42923 29.609 11.201 31.3807 13.333 32.6119C13.3931 32.6419 13.4231 32.702 13.4231 32.7621C13.4832 32.8521 13.4532 32.9122 13.3931 32.9723ZM19.9695 39.6989C19.9695 39.819 19.8795 39.9091 19.7593 39.9091H17.5672C17.0267 39.9091 16.5762 39.4586 16.5762 38.9181V34.2635C16.5762 34.2035 16.6063 34.1434 16.6663 34.0834C16.7264 34.0533 16.7864 34.0233 16.8465 34.0533C17.8074 34.3236 18.7984 34.4737 19.7894 34.5038C19.9095 34.5038 19.9996 34.5939 19.9996 34.714V39.6989H19.9695ZM19.9695 25.9754C19.9695 26.0355 19.9395 26.0955 19.9095 26.1256C19.8795 26.1556 19.8194 26.1856 19.7593 26.1856H19.7293C16.8165 25.8253 14.6543 23.3629 14.6543 20.42C14.6543 17.5071 16.8465 15.0147 19.7293 14.6844C19.7894 14.6844 19.8494 14.6844 19.8795 14.7444C19.9395 14.7745 19.9395 14.8345 19.9395 14.8946V25.9754H19.9695ZM19.9695 13.5132C19.9695 13.6333 19.8795 13.7234 19.7894 13.7234C16.306 14.0538 13.6934 16.9366 13.6934 20.42C13.6934 23.9034 16.306 26.7862 19.7593 27.1165C19.8795 27.1165 19.9395 27.2066 19.9395 27.3267V33.3326C19.9395 33.3927 19.9095 33.4527 19.8795 33.4828C19.8494 33.5128 19.7894 33.5428 19.7293 33.5428C18.5582 33.4828 17.417 33.2726 16.2759 32.8822H16.2459C16.2459 32.8822 16.2159 32.8822 16.2159 32.8522C15.6753 32.672 15.1348 32.4317 14.5943 32.1615H14.5643C12.0418 30.9002 9.96976 28.8282 8.67849 26.3057V26.2757C8.67849 26.2457 8.67849 26.2457 8.64846 26.2157C8.3782 25.6751 8.16799 25.1346 7.95779 24.5941V24.564V24.534C7.50735 23.1827 7.29714 21.8013 7.29714 20.39C7.29714 18.9786 7.53738 17.5972 7.95779 16.2459V16.2159V16.1858C8.13796 15.6453 8.3782 15.1048 8.64846 14.5643C8.64846 14.5342 8.67849 14.5342 8.67849 14.5042V14.4742C9.93973 12.0118 12.0418 9.9097 14.5643 8.64846L14.6243 8.61843C15.1348 8.34817 15.7054 8.13796 16.2159 7.95779C16.2459 7.95779 16.2459 7.95779 16.2759 7.92776C17.417 7.53738 18.5882 7.32717 19.7293 7.26711C19.7894 7.26711 19.8494 7.29714 19.8795 7.32717C19.9095 7.3572 19.9395 7.41726 19.9395 7.47732V13.5132H19.9695ZM19.9695 6.126C19.9695 6.24611 19.8795 6.3362 19.7593 6.3362C18.7684 6.39626 17.7774 6.54641 16.8165 6.78664C16.7864 6.78664 16.7864 6.78664 16.7564 6.78664C16.6963 6.78664 16.6663 6.78664 16.6363 6.75661C16.5762 6.72658 16.5462 6.66652 16.5462 6.57644V1.95191C16.5462 1.41138 16.9966 0.96094 17.5372 0.96094H19.7293C19.8494 0.96094 19.9395 1.05103 19.9395 1.17115V6.126H19.9695ZM25.1947 34.5338C25.8253 34.5338 26.3358 35.0443 26.3358 35.6749C26.3358 36.3055 25.8253 36.816 25.1947 36.816C24.564 36.816 24.0535 36.3055 24.0535 35.6749C24.0235 35.0443 24.564 34.5338 25.1947 34.5338ZM25.1947 23.543C25.8253 23.543 26.3358 24.0535 26.3358 24.6842C26.3358 25.3148 25.8253 25.8253 25.1947 25.8253C24.564 25.8253 24.0235 25.3148 24.0235 24.6842C24.0235 24.0535 24.564 23.543 25.1947 23.543Z" fill="url(#paint0_linear_1284_2188)"/>
</g>
<defs>
<linearGradient id="paint0_linear_1284_2188" x1="-0.210236" y1="20.4313" x2="34.8227" y2="20.4313" gradientUnits="userSpaceOnUse">
<stop stop-color="#FABE3E"/>
<stop offset="0.3618" stop-color="#F63966"/>
<stop offset="1" stop-color="#007AE8"/>
</linearGradient>
<clipPath id="clip0_1284_2188">
<rect width="34.6239" height="40.87" fill="white"/>
</clipPath>
</defs>
</svg>
