<svg width="74" height="56" viewBox="0 0 74 56" fill="none" xmlns="http://www.w3.org/2000/svg">
<g clip-path="url(#clip0_4_32)">
<path d="M69.0515 0H4.55285C2.02349 0 0 2.02349 0 4.55285V47.5014C0 50.0307 2.02349 52.0542 4.55285 52.0542C4.95754 52.0542 5.31165 51.7001 5.31165 51.2954C5.31165 50.8907 4.95754 50.5366 4.55285 50.5366C2.83288 50.5366 1.46703 49.1707 1.46703 47.4508V11.8374C1.46703 11.5339 1.66938 11.3315 1.9729 11.3315H62.5763C62.981 11.3315 63.3351 10.9774 63.3351 10.5727C63.3351 10.168 62.981 9.81391 62.5763 9.81391H1.9729C1.66938 9.81391 1.46703 9.61156 1.46703 9.30804V4.55285C1.46703 2.83288 2.83288 1.46703 4.55285 1.46703H69.0515C70.7715 1.46703 72.1373 2.83288 72.1373 4.55285V47.5014C72.1373 49.2213 70.7715 50.5872 69.0515 50.5872C68.6468 50.5872 68.2927 50.9413 68.2927 51.346C68.2927 51.7507 68.6468 52.1048 69.0515 52.1048C71.5809 52.1048 73.6043 50.0813 73.6043 47.5519V4.55285C73.6043 2.02349 71.5303 0 69.0515 0Z" fill="url(#paint0_linear_4_32)"/>
<path d="M29.3911 4.90695C28.9864 4.90695 28.6323 5.26106 28.6323 5.66576C28.6323 6.07046 28.9864 6.42457 29.3911 6.42457H51.346C51.7507 6.42457 52.1048 6.07046 52.1048 5.66576C52.1048 5.26106 51.7507 4.90695 51.346 4.90695H29.3911Z" fill="url(#paint1_linear_4_32)"/>
<path d="M36.7769 15.5809C33.944 15.5809 31.6676 17.9079 31.6676 20.6902C31.6676 23.0678 33.3369 25.1924 35.664 25.6983C35.9169 25.7489 36.0687 25.9512 36.0687 26.2042V33.3875C36.0687 33.7922 36.4228 34.1463 36.7769 34.1463C37.1816 34.1463 37.5357 33.7922 37.5357 33.3875V26.2042C37.5357 25.9512 37.6874 25.7489 37.9404 25.6983C40.2674 25.1924 41.9368 23.0678 41.9368 20.6902C41.9368 17.9079 39.6098 15.5809 36.7769 15.5809ZM36.7769 24.383C34.7534 24.383 33.1346 22.7642 33.1346 20.7407C33.1346 18.7173 34.7534 17.0985 36.7769 17.0985C38.8004 17.0985 40.4192 18.7173 40.4192 20.7407C40.4192 22.7642 38.8004 24.383 36.7769 24.383Z" fill="url(#paint2_linear_4_32)"/>
<path d="M58.4282 27.0135C58.4282 24.1807 56.1518 21.9042 53.3189 21.9042C50.486 21.9042 48.2096 24.1807 48.2096 27.0135C48.2096 28.0253 48.5131 28.9864 49.0696 29.7958C49.2213 29.9982 49.1707 30.2511 49.019 30.4535L44.5167 34.7534C44.3649 34.9051 44.3144 35.1075 44.3144 35.2593V43.3026C44.3144 43.7073 44.6685 44.0614 45.0732 44.0614C45.4779 44.0614 45.832 43.7073 45.832 43.3026V35.8157C45.832 35.664 45.8826 35.5628 45.9837 35.4616L50.0813 31.4652C50.2331 31.3135 50.486 31.2629 50.6883 31.4146C51.4977 31.9205 52.4083 32.1734 53.3695 32.1734C56.1012 32.1229 58.4282 29.8464 58.4282 27.0135ZM53.2683 30.6558C52.3071 30.6558 51.4472 30.3017 50.7895 29.6441L50.6883 29.5429C49.9801 28.8347 49.626 27.9241 49.626 26.963C49.626 24.9395 51.2448 23.3207 53.2683 23.3207C55.2918 23.3207 56.9106 24.9395 56.9106 26.963C56.9106 28.9864 55.2918 30.6558 53.2683 30.6558Z" fill="url(#paint3_linear_4_32)"/>
<path d="M61.0587 35.6134C58.6811 35.6134 56.5565 37.2828 56.0506 39.6098C56 39.8627 55.7977 40.0145 55.5447 40.0145H51.953C51.5483 40.0145 51.1942 40.3686 51.1942 40.7227V45.832C51.1942 46.2367 51.5483 46.5908 51.953 46.5908C52.3577 46.5908 52.7118 46.2367 52.7118 45.832V41.9874C52.7118 41.6838 52.9142 41.4815 53.2177 41.4815H55.5953C55.8482 41.4815 56.0506 41.6332 56.1012 41.8862C56.607 44.2132 58.7317 45.8826 61.1093 45.8826C63.9422 45.8826 66.2186 43.6061 66.2186 40.7733C66.168 37.8898 63.8916 35.6134 61.0587 35.6134ZM61.0587 44.365C59.0352 44.365 57.4164 42.7462 57.4164 40.7227C57.4164 38.6992 59.0352 37.0804 61.0587 37.0804C63.0822 37.0804 64.701 38.6992 64.701 40.7227C64.701 42.7462 63.0822 44.365 61.0587 44.365Z" fill="url(#paint4_linear_4_32)"/>
<path d="M36.7769 37.8392C36.3722 37.8392 36.0181 38.1933 36.0181 38.598V41.178C36.0181 41.5827 36.3722 41.9368 36.7769 41.9368C37.1816 41.9368 37.5357 41.5827 37.5357 41.178V38.598C37.5357 38.1427 37.1816 37.8392 36.7769 37.8392Z" fill="url(#paint5_linear_4_32)"/>
<path d="M36.7769 45.579C36.3722 45.579 36.0181 45.9332 36.0181 46.3378V55.2918C36.0181 55.6965 36.3722 56.0506 36.7769 56.0506C37.1816 56.0506 37.5357 55.6965 37.5357 55.2918V46.3378C37.5357 45.9332 37.1816 45.579 36.7769 45.579Z" fill="url(#paint6_linear_4_32)"/>
<path d="M45.0226 46.5908C44.6179 46.5908 44.2638 46.9449 44.2638 47.3496V49.3225C44.2638 49.7272 44.6179 50.0813 45.0226 50.0813C45.4273 50.0813 45.7814 49.7272 45.7814 49.3225V47.3496C45.7814 46.8943 45.4273 46.5908 45.0226 46.5908Z" fill="url(#paint7_linear_4_32)"/>
<path d="M45.0226 52.5601C44.6179 52.5601 44.2638 52.9142 44.2638 53.3189V55.2918C44.2638 55.6965 44.6179 56.0506 45.0226 56.0506C45.4273 56.0506 45.7814 55.6965 45.7814 55.2918V53.3189C45.7814 52.9142 45.4273 52.5601 45.0226 52.5601Z" fill="url(#paint8_linear_4_32)"/>
<path d="M51.953 52.5601C51.5483 52.5601 51.1942 52.9142 51.1942 53.3189V55.2918C51.1942 55.6965 51.5483 56.0506 51.953 56.0506C52.3577 56.0506 52.7118 55.6965 52.7118 55.2918V53.3189C52.6612 52.9142 52.3577 52.5601 51.953 52.5601Z" fill="url(#paint9_linear_4_32)"/>
<path d="M61.0587 49.6766C60.654 49.6766 60.2999 50.0307 60.2999 50.4354V55.3424C60.2999 55.7471 60.654 56.1012 61.0587 56.1012C61.4634 56.1012 61.8175 55.7471 61.8175 55.3424V50.4354C61.767 49.9801 61.4634 49.6766 61.0587 49.6766Z" fill="url(#paint10_linear_4_32)"/>
<path d="M24.6865 30.4535C24.5348 30.3017 24.4842 29.9982 24.6359 29.7958C25.1924 28.9864 25.4959 27.9747 25.4959 27.0135C25.4959 24.1807 23.1689 21.9042 20.3866 21.9042C17.5537 21.9042 15.2773 24.1807 15.2773 27.0135C15.2773 29.8464 17.5537 32.1734 20.3866 32.1734C21.3478 32.1734 22.2583 31.9205 23.0677 31.4146C23.1689 31.364 23.2195 31.364 23.3207 31.364C23.4724 31.364 23.5736 31.4146 23.6748 31.5158L27.7723 35.5122C27.8735 35.6134 27.9241 35.7145 27.9241 35.8663V43.4038C27.9241 43.8085 28.2782 44.1626 28.6829 44.1626C29.0876 44.1626 29.4417 43.8085 29.4417 43.4038V35.3098C29.4417 35.1075 29.3405 34.9051 29.2394 34.804L24.6865 30.4535ZM22.916 29.5935L22.8654 29.6441C22.1572 30.3017 21.2466 30.6558 20.336 30.6558C18.3125 30.6558 16.6938 29.037 16.6938 27.0135C16.6938 24.9901 18.3125 23.3713 20.336 23.3713C22.3595 23.3713 23.9783 24.9901 23.9783 27.0135C23.9783 27.9747 23.5736 28.8853 22.916 29.5935Z" fill="url(#paint11_linear_4_32)"/>
<path d="M21.6513 40.0145H18.0596C17.8067 40.0145 17.6043 39.8627 17.5537 39.6098C17.0479 37.2828 14.9232 35.6134 12.5456 35.6134C9.71273 35.6134 7.43631 37.9404 7.43631 40.7227C7.43631 43.5556 9.71273 45.832 12.5456 45.832C14.9232 45.832 17.0479 44.1626 17.5537 41.8356C17.6043 41.5827 17.8067 41.4309 18.0596 41.4309H20.4372C20.7407 41.4309 20.9431 41.6332 20.9431 41.9368V45.7814C20.9431 46.1861 21.2972 46.5402 21.7019 46.5402C22.1066 46.5402 22.4607 46.1861 22.4607 45.7814V40.7227C22.4101 40.318 22.056 40.0145 21.6513 40.0145ZM12.5456 44.365C10.5221 44.365 8.90334 42.7462 8.90334 40.7227C8.90334 38.6992 10.5221 37.0804 12.5456 37.0804C14.5691 37.0804 16.1879 38.6992 16.1879 40.7227C16.1879 42.7462 14.5691 44.365 12.5456 44.365Z" fill="url(#paint12_linear_4_32)"/>
<path d="M28.5817 46.5908C28.177 46.5908 27.8229 46.9449 27.8229 47.3496V49.3225C27.8229 49.7272 28.177 50.0813 28.5817 50.0813C28.9864 50.0813 29.3406 49.7272 29.3406 49.3225V47.3496C29.29 46.8943 28.9864 46.5908 28.5817 46.5908Z" fill="url(#paint13_linear_4_32)"/>
<path d="M28.5817 52.5601C28.177 52.5601 27.8229 52.9142 27.8229 53.3189V55.2918C27.8229 55.6965 28.177 56.0506 28.5817 56.0506C28.9864 56.0506 29.3406 55.6965 29.3406 55.2918V53.3189C29.29 52.9142 28.9864 52.5601 28.5817 52.5601Z" fill="url(#paint14_linear_4_32)"/>
<path d="M21.6513 52.5601C21.2466 52.5601 20.8925 52.9142 20.8925 53.3189V55.2918C20.8925 55.6965 21.2466 56.0506 21.6513 56.0506C22.056 56.0506 22.4101 55.6965 22.4101 55.2918V53.3189C22.4101 52.9142 22.056 52.5601 21.6513 52.5601Z" fill="url(#paint15_linear_4_32)"/>
<path d="M12.5456 49.6766C12.1409 49.6766 11.7868 50.0307 11.7868 50.4354V55.3424C11.7868 55.7471 12.1409 56.1012 12.5456 56.1012C12.9503 56.1012 13.3044 55.7471 13.3044 55.3424V50.4354C13.2538 49.9801 12.9503 49.6766 12.5456 49.6766Z" fill="url(#paint16_linear_4_32)"/>
</g>
<defs>
<linearGradient id="paint0_linear_4_32" x1="-0.505771" y1="26.0171" x2="74.0951" y2="26.0171" gradientUnits="userSpaceOnUse">
<stop stop-color="#F0BE58"/>
<stop offset="0.3618" stop-color="#E24B68"/>
<stop offset="1" stop-color="#307BDF"/>
</linearGradient>
<linearGradient id="paint1_linear_4_32" x1="0.798955" y1="5.65402" x2="72.3412" y2="5.65402" gradientUnits="userSpaceOnUse">
<stop stop-color="#F0BE58"/>
<stop offset="0.3618" stop-color="#E24B68"/>
<stop offset="1" stop-color="#307BDF"/>
</linearGradient>
<linearGradient id="paint2_linear_4_32" x1="1.4218" y1="24.8487" x2="67.9888" y2="24.8487" gradientUnits="userSpaceOnUse">
<stop stop-color="#F0BE58"/>
<stop offset="0.3618" stop-color="#E24B68"/>
<stop offset="1" stop-color="#307BDF"/>
</linearGradient>
<linearGradient id="paint3_linear_4_32" x1="1.4218" y1="32.9703" x2="67.9888" y2="32.9703" gradientUnits="userSpaceOnUse">
<stop stop-color="#F0BE58"/>
<stop offset="0.3618" stop-color="#E24B68"/>
<stop offset="1" stop-color="#307BDF"/>
</linearGradient>
<linearGradient id="paint4_linear_4_32" x1="1.4218" y1="41.0719" x2="67.9888" y2="41.0719" gradientUnits="userSpaceOnUse">
<stop stop-color="#F0BE58"/>
<stop offset="0.3618" stop-color="#E24B68"/>
<stop offset="1" stop-color="#307BDF"/>
</linearGradient>
<linearGradient id="paint5_linear_4_32" x1="1.79549" y1="39.8576" x2="71.7911" y2="39.8576" gradientUnits="userSpaceOnUse">
<stop stop-color="#F0BE58"/>
<stop offset="0.3618" stop-color="#E24B68"/>
<stop offset="1" stop-color="#307BDF"/>
</linearGradient>
<linearGradient id="paint6_linear_4_32" x1="0.0515469" y1="50.8095" x2="72.1203" y2="50.8095" gradientUnits="userSpaceOnUse">
<stop stop-color="#F0BE58"/>
<stop offset="0.3618" stop-color="#E24B68"/>
<stop offset="1" stop-color="#307BDF"/>
</linearGradient>
<linearGradient id="paint7_linear_4_32" x1="1.79551" y1="48.3181" x2="71.7912" y2="48.3181" gradientUnits="userSpaceOnUse">
<stop stop-color="#F0BE58"/>
<stop offset="0.3618" stop-color="#E24B68"/>
<stop offset="1" stop-color="#307BDF"/>
</linearGradient>
<linearGradient id="paint8_linear_4_32" x1="1.79551" y1="54.2933" x2="71.7912" y2="54.2933" gradientUnits="userSpaceOnUse">
<stop stop-color="#F0BE58"/>
<stop offset="0.3618" stop-color="#E24B68"/>
<stop offset="1" stop-color="#307BDF"/>
</linearGradient>
<linearGradient id="paint9_linear_4_32" x1="1.79548" y1="54.2933" x2="71.7911" y2="54.2933" gradientUnits="userSpaceOnUse">
<stop stop-color="#F0BE58"/>
<stop offset="0.3618" stop-color="#E24B68"/>
<stop offset="1" stop-color="#307BDF"/>
</linearGradient>
<linearGradient id="paint10_linear_4_32" x1="1.7955" y1="52.8394" x2="71.7912" y2="52.8394" gradientUnits="userSpaceOnUse">
<stop stop-color="#F0BE58"/>
<stop offset="0.3618" stop-color="#E24B68"/>
<stop offset="1" stop-color="#307BDF"/>
</linearGradient>
<linearGradient id="paint11_linear_4_32" x1="1.42179" y1="32.9703" x2="67.9887" y2="32.9703" gradientUnits="userSpaceOnUse">
<stop stop-color="#F0BE58"/>
<stop offset="0.3618" stop-color="#E24B68"/>
<stop offset="1" stop-color="#307BDF"/>
</linearGradient>
<linearGradient id="paint12_linear_4_32" x1="1.4218" y1="41.0719" x2="67.9888" y2="41.0719" gradientUnits="userSpaceOnUse">
<stop stop-color="#F0BE58"/>
<stop offset="0.3618" stop-color="#E24B68"/>
<stop offset="1" stop-color="#307BDF"/>
</linearGradient>
<linearGradient id="paint13_linear_4_32" x1="1.79548" y1="48.3181" x2="71.7911" y2="48.3181" gradientUnits="userSpaceOnUse">
<stop stop-color="#F0BE58"/>
<stop offset="0.3618" stop-color="#E24B68"/>
<stop offset="1" stop-color="#307BDF"/>
</linearGradient>
<linearGradient id="paint14_linear_4_32" x1="1.79548" y1="54.2933" x2="71.7911" y2="54.2933" gradientUnits="userSpaceOnUse">
<stop stop-color="#F0BE58"/>
<stop offset="0.3618" stop-color="#E24B68"/>
<stop offset="1" stop-color="#307BDF"/>
</linearGradient>
<linearGradient id="paint15_linear_4_32" x1="1.7955" y1="54.2933" x2="71.7912" y2="54.2933" gradientUnits="userSpaceOnUse">
<stop stop-color="#F0BE58"/>
<stop offset="0.3618" stop-color="#E24B68"/>
<stop offset="1" stop-color="#307BDF"/>
</linearGradient>
<linearGradient id="paint16_linear_4_32" x1="1.79548" y1="52.8394" x2="71.7911" y2="52.8394" gradientUnits="userSpaceOnUse">
<stop stop-color="#F0BE58"/>
<stop offset="0.3618" stop-color="#E24B68"/>
<stop offset="1" stop-color="#307BDF"/>
</linearGradient>
<clipPath id="clip0_4_32">
<rect width="73.6043" height="56" fill="white"/>
</clipPath>
</defs>
</svg>
