<svg width="57" height="56" viewBox="0 0 57 56" fill="none" xmlns="http://www.w3.org/2000/svg">
<g clip-path="url(#clip0_868_1119)">
<path d="M53.3957 31.0457L45.2443 27.6469C45.1414 27.6027 45.0678 27.4997 45.0678 27.382V24.9396C45.0678 24.8366 45.1266 24.7336 45.2149 24.6894C47.4072 23.4241 48.9522 21.2906 49.4524 18.804C49.4819 18.6716 49.5996 18.5686 49.7467 18.5686H49.9233H49.9674C51.2916 18.5686 52.3952 17.4798 52.4099 16.1555C52.4246 14.8019 51.3505 13.6984 49.9968 13.6837C49.8938 13.6837 49.8056 13.6248 49.7467 13.5512C49.6879 13.463 49.6879 13.36 49.7173 13.2717L50.6148 11.1823C51.3505 9.47557 51.3946 7.5628 50.7178 5.82659C50.041 4.09039 48.7462 2.70731 47.0394 1.92749L44.494 0.765112C43.3316 0.250135 42.0956 -0.0147095 40.8156 -0.0147095C38.8734 -0.0147095 37.0047 0.588548 35.4451 1.75092L34.0326 2.82502C34.0032 2.85444 33.959 2.86916 33.9296 2.86916C32.5465 3.22228 31.3694 4.09039 30.6337 5.32633C29.8098 6.6947 29.6332 8.34262 30.1629 9.84341C30.1923 9.9464 30.1776 10.0494 30.104 10.1377C30.0452 10.1965 29.9716 10.2407 29.8833 10.2407C29.8686 10.2407 29.8392 10.2407 29.8245 10.2407C29.2359 10.123 28.6327 10.0641 28.0294 10.0641C27.279 10.0641 26.5286 10.1524 25.793 10.3437C25.7635 10.3437 25.7488 10.3584 25.7194 10.3584C25.6458 10.3584 25.5723 10.329 25.5134 10.2701C25.4398 10.1965 25.4104 10.0935 25.4398 9.99055C26.2049 6.72412 24.5423 3.33999 21.4966 1.95691L18.9511 0.794539C17.7888 0.279563 16.5528 0.0147177 15.2727 0.0147177C13.3158 4.13693e-06 11.4619 0.603262 9.88754 1.76564L8.47504 2.83973C8.44561 2.86916 8.40147 2.88387 8.37204 2.88387C5.48818 3.61955 3.75197 6.56227 4.48765 9.44614C4.57593 9.81398 4.72307 10.1818 4.88492 10.5202L6.25328 13.2423C6.29742 13.3305 6.29742 13.4335 6.23857 13.5218C6.17972 13.6101 6.09143 13.6689 5.98844 13.6689C5.34104 13.6837 4.72307 13.9485 4.28166 14.4193C3.82554 14.8902 3.59012 15.5081 3.60483 16.1703C3.63426 17.4945 4.72307 18.5686 6.04729 18.5686C6.06201 18.5686 6.07672 18.5686 6.10615 18.5686H6.29742C6.44456 18.5686 6.56227 18.6716 6.5917 18.804C7.09196 21.2906 8.63689 23.4241 10.8292 24.6894C10.9175 24.7483 10.9764 24.8366 10.9764 24.9396V27.382C10.9764 27.4997 10.9028 27.6027 10.7998 27.6469L2.63374 31.0457C1.02995 31.7078 0 33.2528 0 34.989V47.1571C0 47.4955 0.279559 47.7751 0.617972 47.7751H7.00368C7.16553 47.7751 7.29795 47.9075 7.29795 48.0694V55.3673C7.29795 55.7057 7.57751 55.9853 7.91592 55.9853H48.0841C48.4225 55.9853 48.702 55.7057 48.702 55.3673V48.0694C48.702 47.9075 48.8345 47.7751 48.9963 47.7751H55.382C55.7204 47.7751 56 47.4955 56 47.1571V34.989C56.0147 33.2528 54.9848 31.7078 53.3957 31.0457ZM28.0589 11.2853C29.1477 11.2853 30.207 11.506 31.2076 11.9475L33.753 13.1098C35.1508 13.7425 36.2249 14.8902 36.784 16.3321C37.3431 17.774 37.3137 19.3337 36.6957 20.7462L36.4162 21.3789C36.372 21.4819 36.269 21.5554 36.1513 21.5554C36.0336 21.5554 35.9306 21.4966 35.8865 21.3936L34.9448 19.4955C34.8418 19.2895 34.6211 19.1571 34.3857 19.1571C34.2974 19.1571 34.1944 19.1718 34.1061 19.216C34.0767 19.2307 34.0326 19.2601 34.0032 19.2748L32.5465 20.3784C31.2223 21.3789 29.6479 21.8939 27.9853 21.8939C26.3226 21.8939 24.7483 21.3642 23.4241 20.3784L21.9674 19.2895C21.8644 19.216 21.732 19.1718 21.5996 19.1718C21.5554 19.1718 21.4966 19.1718 21.4524 19.1866C21.2759 19.2307 21.114 19.3484 21.0405 19.5103L20.0252 21.5407C19.9811 21.6437 19.8781 21.7026 19.7604 21.7026C19.6427 21.7026 19.5544 21.6437 19.4955 21.5407L18.7451 20.0399C18.2449 19.0541 18.1713 17.9212 18.5244 16.8618C18.8776 15.8024 19.6132 14.949 20.6138 14.4635C21.1876 14.1839 21.835 14.0221 22.4677 14.0221C23.9979 14.0221 25.4251 14.7872 26.2638 16.0526L26.3815 16.2438L27.4115 15.5523L27.2937 15.361C26.5286 14.1986 25.3515 13.36 24.0126 12.9921C23.8949 12.9627 23.8213 12.8597 23.8066 12.7567C23.7919 12.639 23.8508 12.5213 23.939 12.4624C25.1897 11.6826 26.6169 11.2853 28.0589 11.2853ZM36.8429 25.2486C36.8429 25.0867 36.9753 24.9543 37.1371 24.9543H38.0494C38.7115 24.9543 39.2559 25.4987 39.2559 26.1608C39.2559 26.8229 38.7115 27.3673 38.0494 27.3673H37.1371C36.9753 27.3673 36.8429 27.2349 36.8429 27.073V25.2486ZM28.0147 34.6653C23.836 34.6653 20.4225 31.2517 20.4225 27.073V23.6301C20.4225 23.5859 20.4372 23.5418 20.4519 23.4976L21.6879 21.011C21.732 20.9375 21.8056 20.8786 21.8791 20.8492C21.9086 20.8492 21.9233 20.8345 21.9527 20.8345C22.0116 20.8345 22.0704 20.8492 22.1293 20.8933L22.7178 21.3347C24.2627 22.4971 26.0872 23.1004 28.0147 23.1004C29.9422 23.1004 31.7814 22.4824 33.3116 21.3347L33.9002 20.8933C33.9443 20.8492 34.0179 20.8345 34.0767 20.8345C34.1061 20.8345 34.1209 20.8345 34.1503 20.8492C34.2386 20.8639 34.3121 20.9228 34.3416 21.011L35.5775 23.4976C35.5922 23.5418 35.6069 23.5859 35.6069 23.6301V27.073C35.6069 31.2517 32.1934 34.6653 28.0147 34.6653ZM31.0457 35.7835V37.6521C31.0457 37.7257 31.0163 37.7993 30.9574 37.8581L28.2207 40.5949C28.1618 40.6537 28.0883 40.6831 28.0147 40.6831C27.9411 40.6831 27.8676 40.6537 27.8087 40.5949L25.072 37.8581C25.0131 37.7993 24.9837 37.7257 24.9837 37.6521V35.7835C24.9837 35.6952 25.0279 35.6069 25.1014 35.5481C25.1456 35.5039 25.2191 35.4892 25.278 35.4892C25.3074 35.4892 25.3368 35.4892 25.3663 35.5039C26.2197 35.7688 27.1172 35.9159 28.0147 35.9159C28.9122 35.9159 29.8098 35.7835 30.6632 35.5039C30.6926 35.4892 30.722 35.4892 30.7514 35.4892C30.8103 35.4892 30.8692 35.5039 30.928 35.5481C31.0016 35.6069 31.0457 35.6952 31.0457 35.7835ZM19.1718 25.2486V27.073C19.1718 27.2349 19.0394 27.3673 18.8776 27.3673H17.9653C17.3032 27.3673 16.7588 26.8229 16.7588 26.1608C16.7588 25.4987 17.3032 24.9543 17.9653 24.9543H18.8776C19.0394 24.9543 19.1718 25.0867 19.1718 25.2486ZM7.29795 45.3768V46.2596C7.29795 46.4214 7.16553 46.5539 7.00368 46.5539H1.53022C1.36837 46.5539 1.23594 46.4214 1.23594 46.2596V35.0037C1.23594 33.7825 1.97162 32.6789 3.10457 32.2081L11.815 28.5738C12.0504 28.4708 12.1976 28.2501 12.1976 28V24.4099C12.1829 24.1597 12.0504 23.9538 11.8297 23.8361C9.50499 22.6884 7.96006 20.4519 7.6805 17.877C7.65108 17.5681 7.38623 17.3326 7.06253 17.3326H6.10615C5.44404 17.3326 4.89963 16.7882 4.89963 16.1261C4.89963 15.464 5.44404 14.9196 6.10615 14.9196H7.01839C7.18024 14.9196 7.34209 14.8607 7.4598 14.743C7.57751 14.6253 7.63636 14.4635 7.63636 14.3016V13.3894C7.63636 13.3011 7.60694 13.1981 7.57751 13.1098L5.98844 9.96112C5.48818 8.96059 5.41461 7.84236 5.76774 6.78298C6.12086 5.7236 6.85654 4.88492 7.85707 4.38466C8.16605 4.23752 8.48975 4.11981 8.82817 4.04625C8.91645 4.03153 9.00473 3.98739 9.0783 3.92854L10.6527 2.73674C12.0063 1.73621 13.5954 1.22123 15.2727 1.22123C16.3615 1.22123 17.4356 1.44194 18.4362 1.89806L20.9963 3.06043C22.3941 3.69312 23.4682 4.84078 24.0273 6.28272C24.5864 7.72465 24.557 9.28429 23.939 10.6968L23.7919 11.0352C23.7625 11.0941 23.7183 11.1382 23.6595 11.1823C23.3211 11.3736 22.9974 11.5796 22.6884 11.8003L21.2465 12.8744C21.217 12.9038 21.1876 12.9186 21.1435 12.9186C18.2743 13.6542 16.5234 16.597 17.2738 19.4808C17.3621 19.8487 17.5092 20.2165 17.671 20.5549L19.0394 23.2769C19.0835 23.3652 19.0836 23.4829 19.0247 23.5565C18.9658 23.6301 18.8776 23.6889 18.7746 23.6889H17.98C16.6264 23.6889 15.5376 24.7924 15.5376 26.1314C15.5376 27.4703 16.6411 28.5738 17.98 28.5738H19.0688C19.2013 28.5738 19.3337 28.6768 19.3631 28.8093C19.8781 31.2811 21.423 33.4146 23.6006 34.68C23.6889 34.7388 23.7478 34.8271 23.7478 34.9301V37.299C23.7478 37.4314 23.6595 37.5491 23.5271 37.5786L10.4319 41.2128C8.59275 41.7719 7.31266 43.464 7.29795 45.3768ZM47.4808 54.4698C47.4808 54.6316 47.3484 54.7641 47.1865 54.7641H41.7131C41.5512 54.7641 41.4188 54.6316 41.4188 54.4698V47.4661H40.1682V54.4698C40.1682 54.6316 40.0357 54.7641 39.8739 54.7641H16.1408C15.979 54.7641 15.8466 54.6316 15.8466 54.4698V47.4661H14.6106V54.4698C14.6106 54.6316 14.4782 54.7641 14.3163 54.7641H8.84288C8.68103 54.7641 8.54861 54.6316 8.54861 54.4698V45.3768C8.54861 44.0231 9.46085 42.8166 10.7704 42.4488L24.0126 38.7704C24.042 38.7704 24.0715 38.7556 24.0862 38.7556C24.1597 38.7556 24.2333 38.7851 24.2922 38.8439L27.5733 42.1251C27.691 42.2428 27.8381 42.3016 28.0147 42.3016C28.1913 42.3016 28.3384 42.2428 28.4561 42.1251L31.7373 38.8439C31.7961 38.7851 31.8697 38.7556 31.9432 38.7556C31.9727 38.7556 32.0021 38.7557 32.0168 38.7704L45.2591 42.4488C46.5686 42.8166 47.4808 44.0084 47.4808 45.3768V54.4698ZM54.7788 46.2449C54.7788 46.4067 54.6463 46.5392 54.4845 46.5392H49.011C48.8492 46.5392 48.7168 46.4067 48.7168 46.2449V45.3621C48.7168 43.4493 47.422 41.7572 45.5828 41.2422L32.4876 37.608C32.3552 37.5786 32.2669 37.4609 32.2669 37.3284V34.9595C32.2669 34.8565 32.3258 34.7535 32.4141 34.7094C34.5917 33.444 36.1513 31.3106 36.6516 28.8387C36.681 28.7063 36.7987 28.6033 36.9459 28.6033H38.0347C39.3883 28.6033 40.4771 27.4997 40.4771 26.1608C40.4771 24.8219 39.3736 23.7183 38.0347 23.7183H37.196C37.093 23.7183 37.0047 23.6742 36.9459 23.5859C36.887 23.4976 36.887 23.3946 36.9164 23.3064L37.814 21.2317C38.5497 19.525 38.5938 17.6122 37.917 15.876C37.2401 14.1398 35.9453 12.7567 34.2386 11.9769L32.1198 11.0058C32.061 10.9764 32.0021 10.9322 31.9727 10.8734L31.5166 9.96112C30.4866 7.91593 31.3253 5.41461 33.3705 4.38466C33.6795 4.22281 34.0032 4.11981 34.3416 4.04625C34.4298 4.03153 34.5181 3.98739 34.5917 3.92854L36.1661 2.73674C37.5197 1.73621 39.1088 1.22123 40.7861 1.22123C41.8749 1.22123 42.949 1.44194 43.9496 1.89806L46.5097 3.06043C47.9075 3.69312 48.9816 4.84078 49.5407 6.28272C50.0998 7.72465 50.0704 9.28429 49.4524 10.6968L48.4078 13.1245C48.3783 13.1981 48.3636 13.2864 48.3636 13.3747V14.2869C48.3636 14.6253 48.6432 14.9049 48.9816 14.9049H49.8938C50.556 14.9049 51.1004 15.4493 51.1004 16.1114C51.1004 16.7735 50.556 17.3179 49.8938 17.3179H48.9375C48.6285 17.3179 48.3636 17.5533 48.3195 17.8623C48.0399 20.4519 46.4803 22.6737 44.1408 23.8213C43.9348 23.9243 43.8024 24.145 43.8024 24.3805V27.9706C43.8024 28.2207 43.9496 28.4414 44.185 28.5444L52.8954 32.1787C54.0284 32.6495 54.7641 33.753 54.7641 34.9743V46.2449H54.7788Z" fill="#017038"/>
</g>
<defs>
<clipPath id="clip0_868_1119">
<rect width="56.0147" height="56" fill="white"/>
</clipPath>
</defs>
</svg>
