<svg width="53" height="52" viewBox="0 0 53 52" fill="none" xmlns="http://www.w3.org/2000/svg">
<path d="M22.0505 52.0001C25.0252 52.0001 27.5884 49.8192 28.013 46.9277L28.038 46.7614H38.1766L36.8292 48.0833L37.8085 49.0441L40.3389 46.5615C40.4704 46.4325 40.5413 46.2623 40.5413 46.0804C40.5413 45.8986 40.469 45.7283 40.3389 45.5994L37.8085 43.1167L36.8292 44.0775L38.1766 45.3995H28.038L28.013 45.2331C27.5884 42.3416 25.0252 40.1608 22.0505 40.1608C18.7248 40.1608 16.0183 42.8162 16.0183 46.0791C16.0183 49.342 18.7248 51.9975 22.0505 51.9975V52.0001ZM22.0505 41.5227C24.6124 41.5227 26.6972 43.5681 26.6972 46.0817C26.6972 48.5953 24.6124 50.6407 22.0505 50.6407C19.4885 50.6407 17.4038 48.5953 17.4038 46.0817C17.4038 43.5681 19.4885 41.5227 22.0505 41.5227Z" fill="url(#paint0_linear_349_678)"/>
<path d="M46.9678 52C50.2935 52 53 49.3446 53 46.0817C53 42.8188 50.2935 40.1633 46.9678 40.1633C43.6422 40.1633 40.9357 42.8188 40.9357 46.0817C40.9357 49.3446 43.6422 52 46.9678 52ZM46.9678 41.5227C49.5298 41.5227 51.6145 43.5681 51.6145 46.0817C51.6145 48.5953 49.5298 50.6407 46.9678 50.6407C44.4059 50.6407 42.3211 48.5953 42.3211 46.0817C42.3211 43.5681 44.4059 41.5227 46.9678 41.5227Z" fill="url(#paint1_linear_349_678)"/>
<path d="M12.8911 43.118L11.9119 44.0788L13.2592 45.4007H10.9273C5.66674 45.4007 1.38678 41.2015 1.38678 36.0402C1.38678 30.8789 5.66674 26.6797 10.9273 26.6797H12.5047L12.5297 26.846C12.9542 29.7375 15.5175 31.9184 18.4922 31.9184C21.8178 31.9184 24.5243 29.2629 24.5243 26C24.5243 22.7371 21.8178 20.0817 18.4922 20.0817C15.5175 20.0817 12.9542 22.2625 12.5297 25.154L12.5047 25.3204H10.9273C4.90171 25.3204 0 30.1296 0 36.0415C0 41.9534 4.90171 46.7613 10.926 46.7613H13.2579L11.9105 48.0833L12.8898 49.0441L15.4202 46.5614C15.5517 46.4325 15.6226 46.2622 15.6226 46.0804C15.6226 45.8985 15.5503 45.7283 15.4202 45.5993L12.8898 43.1167L12.8911 43.118ZM18.4908 21.441C21.0528 21.441 23.1375 23.4864 23.1375 26C23.1375 28.5136 21.0528 30.559 18.4908 30.559C15.9289 30.559 13.8441 28.5136 13.8441 26C13.8441 23.4864 15.9289 21.441 18.4908 21.441Z" fill="url(#paint2_linear_349_678)"/>
<path d="M21.7902 2.95466L20.8109 3.91548L22.1583 5.2374H12.0196L11.9947 5.07103C11.5701 2.18085 9.00685 0 6.03217 0C2.70652 0 0 2.65546 0 5.91835C0 9.18125 2.70652 11.8367 6.03217 11.8367C9.00685 11.8367 11.5701 9.65585 11.9947 6.76439L12.0196 6.59802H22.1583L20.8109 7.91994L21.7902 8.88075L24.3206 6.39812C24.452 6.26915 24.523 6.09891 24.523 5.91706C24.523 5.73522 24.4507 5.56498 24.3206 5.43601L21.7902 2.95337V2.95466ZM6.03217 10.4774C3.47024 10.4774 1.38547 8.43194 1.38547 5.91835C1.38547 3.40476 3.47024 1.35933 6.03217 1.35933C8.5941 1.35933 10.6789 3.40476 10.6789 5.91835C10.6789 8.43194 8.5941 10.4774 6.03217 10.4774Z" fill="url(#paint3_linear_349_678)"/>
<path d="M28.6308 28.0016L27.2835 26.6797H42.074C48.0996 26.6797 53 21.8705 53 15.9599C53 10.0493 48.0983 5.24003 42.074 5.24003H36.9383L36.9134 5.07367C36.4888 2.1822 33.9255 0.00134277 30.9509 0.00134277C27.6252 0.00134277 24.9187 2.6568 24.9187 5.9197C24.9187 9.1826 27.6252 11.8381 30.9509 11.8381C33.9255 11.8381 36.4888 9.6572 36.9134 6.76573L36.9383 6.59936H42.074C47.3346 6.59936 51.6146 10.7986 51.6146 15.9599C51.6146 21.1212 47.3346 25.3204 42.074 25.3204H27.2835L28.6308 23.9985L27.6515 23.0377L25.1211 25.5203C24.9897 25.6493 24.9187 25.8195 24.9187 26.0014C24.9187 26.1832 24.991 26.3534 25.1211 26.4824L27.6515 28.965L28.6308 28.0016ZM30.9496 1.35938C33.5115 1.35938 35.5963 3.40482 35.5963 5.91841C35.5963 8.432 33.5115 10.4774 30.9496 10.4774C28.3876 10.4774 26.3029 8.432 26.3029 5.91841C26.3029 3.40482 28.3876 1.35938 30.9496 1.35938Z" fill="url(#paint4_linear_349_678)"/>
<defs>
<linearGradient id="paint0_linear_349_678" x1="-9.87047" y1="46.0817" x2="61.8439" y2="46.0817" gradientUnits="userSpaceOnUse">
<stop stop-color="#EFB33E"/>
<stop offset="0.36" stop-color="#EB3966"/>
<stop offset="1" stop-color="#007ADD"/>
</linearGradient>
<linearGradient id="paint1_linear_349_678" x1="-9.87045" y1="4.81997e-05" x2="61.8439" y2="4.81997e-05" gradientUnits="userSpaceOnUse">
<stop stop-color="#EFB33E"/>
<stop offset="0.36" stop-color="#EB3966"/>
<stop offset="1" stop-color="#007ADD"/>
</linearGradient>
<linearGradient id="paint2_linear_349_678" x1="-9.87046" y1="34.5635" x2="61.8438" y2="34.5635" gradientUnits="userSpaceOnUse">
<stop stop-color="#EFB33E"/>
<stop offset="0.36" stop-color="#EB3966"/>
<stop offset="1" stop-color="#007ADD"/>
</linearGradient>
<linearGradient id="paint3_linear_349_678" x1="-9.87046" y1="5.91835" x2="61.8438" y2="5.91835" gradientUnits="userSpaceOnUse">
<stop stop-color="#EFB33E"/>
<stop offset="0.36" stop-color="#EB3966"/>
<stop offset="1" stop-color="#007ADD"/>
</linearGradient>
<linearGradient id="paint4_linear_349_678" x1="-9.87044" y1="14.4819" x2="61.8439" y2="14.4819" gradientUnits="userSpaceOnUse">
<stop stop-color="#EFB33E"/>
<stop offset="0.36" stop-color="#EB3966"/>
<stop offset="1" stop-color="#007ADD"/>
</linearGradient>
</defs>
</svg>
