<svg width="38" height="40" viewBox="0 0 38 40" fill="none" xmlns="http://www.w3.org/2000/svg">
<g clip-path="url(#clip0_1492_649)">
<path d="M18.9162 6.47431C20.5489 6.47431 21.8719 5.01056 21.8719 3.23716C21.8719 1.46376 20.5489 0 18.9162 0C17.2836 0 15.9606 1.46376 15.9606 3.23716C15.9606 5.01056 17.2836 6.47431 18.9162 6.47431ZM18.9162 0.957072C20.0141 0.957072 20.8867 1.97044 20.8867 3.23716C20.8867 4.50387 20.0141 5.51724 18.9162 5.51724C17.8184 5.51724 16.9458 4.50387 16.9458 3.23716C16.9458 1.97044 17.8184 0.957072 18.9162 0.957072Z" fill="url(#paint0_linear_1492_649)"/>
<path d="M10.0492 25.1372L15.8761 21.8438C15.9324 21.8156 15.9606 21.8156 16.0169 21.8156C16.1013 21.8156 16.1858 21.8438 16.2421 21.9001C16.7488 22.4912 17.4525 22.9134 18.2125 23.0542C18.3533 23.0823 18.4377 23.1949 18.4377 23.3357V26.601C18.4377 26.8543 18.6629 27.0795 18.9162 27.0795C19.1696 27.0795 19.3948 26.8543 19.3948 26.601V23.3357C19.3948 23.1949 19.4792 23.0823 19.62 23.0542C20.38 22.9134 21.0837 22.4912 21.5904 21.9001C21.6749 21.7875 21.8156 21.7875 21.9282 21.8438L27.7551 25.1372C27.9803 25.278 28.2899 25.1654 28.4025 24.9683C28.5433 24.7431 28.4588 24.4335 28.2336 24.3209L22.4349 20.9993C22.3223 20.943 22.266 20.8022 22.2941 20.6615C22.4067 20.2956 22.463 19.9296 22.463 19.5355C22.463 17.8466 21.2526 16.3828 19.5918 16.045C19.4511 16.0169 19.3666 15.9043 19.3666 15.7635V13.202C19.3666 13.0331 19.4792 12.9205 19.6481 12.9205H23.4764C24.2646 12.9205 24.8839 12.273 24.8839 11.4849C24.8839 9.85221 24.5179 7.85361 21.6749 7.06544C21.5623 7.03729 21.4215 7.03729 21.3089 7.09359C21.1963 7.14989 21.1119 7.26248 21.0837 7.37508C21.0556 7.48768 21.0556 7.62842 21.14 7.74102C21.2245 7.85361 21.3089 7.93806 21.4215 7.96621C23.6172 8.58549 23.9268 10.0211 23.9268 11.4567C23.9268 11.7101 23.7298 11.9071 23.4764 11.9071H14.3279C14.0746 11.9071 13.8775 11.7101 13.8775 11.4567C13.8775 10.0211 14.1872 8.58549 16.3828 7.96621C16.4954 7.93806 16.608 7.85361 16.6643 7.74102C16.7206 7.62842 16.7488 7.48768 16.7206 7.37508C16.6925 7.26248 16.608 7.14989 16.4954 7.09359C16.3828 7.03729 16.2421 7.00914 16.1295 7.03729C13.2583 7.88176 12.9205 9.88036 12.9205 11.513C12.9205 12.3012 13.5679 12.9205 14.3279 12.9205H18.1562C18.3251 12.9205 18.4377 13.0331 18.4377 13.202V15.7635C18.4377 15.9043 18.3533 16.0169 18.2125 16.045C16.5517 16.3828 15.3413 17.8466 15.3413 19.5355C15.3413 19.9015 15.3976 20.2956 15.5102 20.6615C15.5383 20.8022 15.5102 20.9148 15.3694 20.9993L9.57071 24.3209C9.34552 24.4616 9.26107 24.7431 9.40182 24.9683C9.51441 25.1935 9.82405 25.278 10.0492 25.1372ZM18.9162 16.9458C20.3518 16.9458 21.5341 18.1281 21.5341 19.5637C21.5341 20.9993 20.3518 22.1816 18.9162 22.1816C17.4806 22.1816 16.2984 20.9993 16.2984 19.5637C16.2984 18.1281 17.4806 16.9458 18.9162 16.9458Z" fill="url(#paint1_linear_1492_649)"/>
<path d="M7.82545 23.6172C7.82545 22.0408 6.67133 20.7741 5.23572 20.7741C3.80011 20.7741 2.646 22.0408 2.646 23.6172C2.646 25.1935 3.80011 26.4602 5.20757 26.4602C6.61503 26.4602 7.82545 25.1654 7.82545 23.6172ZM3.60307 23.6172C3.60307 22.5757 4.33495 21.7312 5.23572 21.7312C6.1365 21.7312 6.86837 22.5757 6.86837 23.6172C6.86837 24.6587 6.1365 25.5032 5.23572 25.5032C4.33495 25.475 3.60307 24.6305 3.60307 23.6172Z" fill="url(#paint2_linear_1492_649)"/>
<path d="M7.65658 26.8543C7.54398 26.8262 7.40324 26.8262 7.29064 26.9106C7.17804 26.9669 7.0936 27.0795 7.06545 27.1921C7.0373 27.3047 7.0373 27.4455 7.12174 27.5581C7.17804 27.6707 7.29064 27.7551 7.40324 27.7833C9.14849 28.2618 9.48628 29.3315 9.45813 30.7671C9.45813 30.9078 9.31738 31.0486 9.17663 31.0486L1.23856 30.9641C1.09782 30.9641 0.957072 30.8234 0.957072 30.6826C0.957072 29.2752 1.32301 28.2336 3.04011 27.7551C3.29345 27.6707 3.4342 27.4173 3.3779 27.164C3.3216 26.9388 3.12456 26.798 2.89937 26.798C2.84307 26.798 2.81492 26.798 2.75862 26.8262C0 27.6144 0 29.8663 0 30.7108C0 31.4145 0.562984 32.0056 1.29486 32.0056H9.17663C9.88036 32.0056 10.4715 31.4145 10.4715 30.7108C10.4433 29.8663 10.4433 27.6144 7.65658 26.8543Z" fill="url(#paint3_linear_1492_649)"/>
<path d="M35.2146 23.6172C35.2146 22.0408 34.0605 20.7741 32.6249 20.7741C31.1893 20.7741 30.0352 22.0408 30.0352 23.6172C30.0352 25.1935 31.1893 26.4602 32.6249 26.4602C34.0605 26.4602 35.2146 25.1654 35.2146 23.6172ZM32.6249 25.475C31.7241 25.475 30.9922 24.6305 30.9922 23.589C30.9922 22.5475 31.7241 21.703 32.6249 21.703C33.5257 21.703 34.2575 22.5475 34.2575 23.589C34.2575 24.6305 33.4975 25.475 32.6249 25.475Z" fill="url(#paint4_linear_1492_649)"/>
<path d="M35.0457 26.8543C34.9331 26.8262 34.7924 26.8262 34.6798 26.9106C34.5672 26.9669 34.4828 27.0795 34.4546 27.1921C34.3702 27.4455 34.5391 27.7269 34.7924 27.7832C36.5376 28.2618 36.8754 29.3314 36.8473 30.7671C36.8473 30.9078 36.7065 31.0486 36.5658 31.0486L28.6559 30.9923C28.5151 30.9923 28.3744 30.8515 28.3744 30.7108C28.3744 29.3033 28.7403 28.2618 30.4574 27.7832C30.7108 27.6988 30.8515 27.4455 30.7952 27.1921C30.7389 26.9669 30.5419 26.8262 30.3167 26.8262C30.2604 26.8262 30.2322 26.8262 30.1759 26.8543C27.3892 27.6425 27.3892 29.8663 27.3892 30.7108C27.3892 31.4145 27.9521 32.0056 28.684 32.0056H36.5658C37.2695 32.0056 37.8607 31.4145 37.8607 30.7108C37.8325 29.8663 37.8325 27.6143 35.0457 26.8543Z" fill="url(#paint5_linear_1492_649)"/>
<path d="M21.506 31.6116C21.506 30.0352 20.3519 28.7685 18.9163 28.7685C17.4807 28.7685 16.3265 30.0352 16.3265 31.6116C16.3265 33.1879 17.4807 34.4546 18.9163 34.4546C20.3519 34.4546 21.506 33.1879 21.506 31.6116ZM17.2836 31.6116C17.2836 30.57 18.0155 29.7256 18.9163 29.7256C19.817 29.7256 20.5489 30.57 20.5489 31.6116C20.5489 32.6531 19.817 33.4976 18.9163 33.4976C18.0155 33.4976 17.2836 32.6531 17.2836 31.6116Z" fill="url(#paint6_linear_1492_649)"/>
<path d="M21.3371 34.8487C21.2245 34.8206 21.0838 34.8206 20.9712 34.905C20.8586 34.9613 20.7741 35.0739 20.746 35.1865C20.7178 35.2991 20.7178 35.4398 20.8023 35.5524C20.8867 35.665 20.9712 35.7495 21.0838 35.7776C22.829 36.2562 23.1668 37.3258 23.1387 38.7614C23.1387 38.9022 22.9979 39.0429 22.8572 39.0429L14.9473 38.9866C14.8065 38.9866 14.6658 38.8459 14.6658 38.7051C14.6658 37.2977 15.0317 36.2562 16.7488 35.7776C16.8614 35.7495 16.974 35.665 17.0303 35.5524C17.0866 35.4398 17.1147 35.2991 17.0866 35.1865C17.0303 34.9613 16.8333 34.8206 16.6081 34.8206C16.5518 34.8206 16.5236 34.8206 16.4673 34.8487C13.6805 35.6369 13.6805 37.8607 13.6805 38.7051C13.6805 39.4089 14.2435 40 14.9754 40H22.8572C23.5609 40 24.152 39.4089 24.152 38.7051C24.1239 37.8607 24.1239 35.6369 21.3371 34.8487Z" fill="url(#paint7_linear_1492_649)"/>
</g>
<defs>
<linearGradient id="paint0_linear_1492_649" x1="-0.294681" y1="3.234" x2="37.1757" y2="3.234" gradientUnits="userSpaceOnUse">
<stop stop-color="#F4BB41"/>
<stop offset="0.3618" stop-color="#EA3665"/>
<stop offset="1" stop-color="#2F7AE6"/>
</linearGradient>
<linearGradient id="paint1_linear_1492_649" x1="-0.294678" y1="17.0815" x2="37.1757" y2="17.0815" gradientUnits="userSpaceOnUse">
<stop stop-color="#F4BB41"/>
<stop offset="0.3618" stop-color="#EA3665"/>
<stop offset="1" stop-color="#2F7AE6"/>
</linearGradient>
<linearGradient id="paint2_linear_1492_649" x1="-0.377424" y1="23.606" x2="37.9262" y2="23.606" gradientUnits="userSpaceOnUse">
<stop stop-color="#F4BB41"/>
<stop offset="0.3618" stop-color="#EA3665"/>
<stop offset="1" stop-color="#2F7AE6"/>
</linearGradient>
<linearGradient id="paint3_linear_1492_649" x1="-0.294666" y1="29.4071" x2="37.5234" y2="29.4071" gradientUnits="userSpaceOnUse">
<stop stop-color="#F4BB41"/>
<stop offset="0.3618" stop-color="#EA3665"/>
<stop offset="1" stop-color="#2F7AE6"/>
</linearGradient>
<linearGradient id="paint4_linear_1492_649" x1="-0.377427" y1="23.606" x2="37.9262" y2="23.606" gradientUnits="userSpaceOnUse">
<stop stop-color="#F4BB41"/>
<stop offset="0.3618" stop-color="#EA3665"/>
<stop offset="1" stop-color="#2F7AE6"/>
</linearGradient>
<linearGradient id="paint5_linear_1492_649" x1="-0.294664" y1="29.4071" x2="37.1757" y2="29.4071" gradientUnits="userSpaceOnUse">
<stop stop-color="#F4BB41"/>
<stop offset="0.3618" stop-color="#EA3665"/>
<stop offset="1" stop-color="#2F7AE6"/>
</linearGradient>
<linearGradient id="paint6_linear_1492_649" x1="-0.294657" y1="31.613" x2="37.1757" y2="31.613" gradientUnits="userSpaceOnUse">
<stop stop-color="#F4BB41"/>
<stop offset="0.3618" stop-color="#EA3665"/>
<stop offset="1" stop-color="#2F7AE6"/>
</linearGradient>
<linearGradient id="paint7_linear_1492_649" x1="-0.294631" y1="37.4144" x2="37.1757" y2="37.4144" gradientUnits="userSpaceOnUse">
<stop stop-color="#F4BB41"/>
<stop offset="0.3618" stop-color="#EA3665"/>
<stop offset="1" stop-color="#2F7AE6"/>
</linearGradient>
<clipPath id="clip0_1492_649">
<rect width="37.8325" height="40" fill="white"/>
</clipPath>
</defs>
</svg>
