<svg width="36" height="40" viewBox="0 0 36 40" fill="none" xmlns="http://www.w3.org/2000/svg">
<g clip-path="url(#clip0_1492_729)">
<path d="M18.8385 3.78392C18.6685 3.78392 18.4986 3.75609 18.3286 3.75609C18.1303 3.72827 17.9603 3.72827 17.762 3.72827C17.3654 3.72827 17.0255 3.72827 16.6289 3.78392C10.7365 4.42384 5.97733 9.09806 5.32577 14.8852C4.90084 18.8082 6.28894 22.6199 9.20679 25.3465C10.8782 26.9046 11.9547 28.7409 12.2946 30.4938V32.2466H11.3881C11.2181 32.2466 11.0481 32.3857 11.0481 32.5805C11.0481 32.7474 11.1898 32.9143 11.3881 32.9143H12.2946V34.4446H11.3881C11.2181 34.4446 11.0481 34.5837 11.0481 34.7785C11.0481 34.9732 11.1898 35.1123 11.3881 35.1123H12.2946C12.3513 35.641 12.4646 36.1696 12.6912 36.6426H11.3881C11.2181 36.6426 11.0481 36.7817 11.0481 36.9764C11.0481 37.1434 11.1898 37.3103 11.3881 37.3103H13.0595C13.881 38.5345 15.3258 39.3692 16.9405 39.3692H18.5269C20.1416 39.3692 21.5864 38.5623 22.4079 37.3103H24.0793C24.2493 37.3103 24.4193 37.1712 24.4193 36.9764C24.4193 36.8095 24.2776 36.6426 24.0793 36.6426H22.7762C23.0028 36.1696 23.1161 35.6688 23.1728 35.1123H24.0793C24.2493 35.1123 24.4193 34.9732 24.4193 34.7785C24.4193 34.5837 24.2776 34.4446 24.0793 34.4446H23.1728V32.9143H24.0793C24.2493 32.9143 24.4193 32.7752 24.4193 32.5805C24.4193 32.4135 24.2776 32.2466 24.0793 32.2466H23.1728V30.4938C23.5127 28.7409 24.6176 26.9046 26.2606 25.3465C29.1501 22.6477 30.5666 18.836 30.1416 14.8852C29.5184 9.09806 24.7592 4.42384 18.8385 3.78392ZM18.5269 38.6458H16.9405C15.7224 38.6458 14.6176 38.0894 13.881 37.2269H21.5864C20.8782 38.0894 19.7734 38.6458 18.5269 38.6458ZM22.068 36.5869H13.4278C13.1728 36.1418 13.0028 35.6131 12.9462 35.0567H22.4929C22.4646 35.6131 22.3229 36.1418 22.068 36.5869ZM22.5496 34.4168H12.9462V32.8865H22.5496V34.4168ZM12.9462 32.2744V30.7998H17.1671H17.1955C17.1955 30.7998 17.1955 30.7998 17.2238 30.7998H22.5496V32.2744H12.9462ZM25.8357 24.8736C24.1643 26.4595 23.0028 28.3236 22.6062 30.1321H17.677L19.0651 25.5413C19.1218 25.3744 19.0085 25.1796 18.8385 25.1518C18.6685 25.0961 18.4702 25.2074 18.4419 25.3744L17.1105 29.7425L14.3909 25.3187C14.3059 25.1796 14.1076 25.124 13.9377 25.2074C13.796 25.2909 13.7394 25.4857 13.8244 25.6526L16.6006 30.1877H12.8895C12.4646 28.3236 11.3314 26.4595 9.66005 24.8736C6.91217 22.286 5.5524 18.6969 5.97733 14.9408C6.60056 9.45976 11.1048 5.03594 16.7139 4.42384C17.0821 4.36819 17.3654 4.36819 17.762 4.36819C17.932 4.36819 18.102 4.39602 18.2719 4.39602C18.4702 4.42384 18.6402 4.42384 18.8102 4.42384C24.3909 5.03594 28.8952 9.45976 29.5184 14.9687C29.9433 18.6969 28.6119 22.3139 25.8357 24.8736Z" fill="url(#paint0_linear_1492_729)"/>
<path d="M25.2691 13.1323H24.3342C24.1926 12.5202 23.966 11.9638 23.6544 11.4351L24.2776 10.823C24.4476 10.6561 24.5609 10.4335 24.5609 10.1831C24.5609 9.9327 24.4759 9.71012 24.2776 9.54319L23.1161 8.40245C22.7762 8.06858 22.1813 8.06858 21.813 8.40245L21.2464 8.95891C20.6799 8.62504 20.0849 8.37463 19.4617 8.20769V7.42866C19.4617 6.92785 19.0368 6.53833 18.5552 6.53833H16.9121C16.4022 6.53833 16.0056 6.95567 16.0056 7.42866V8.20769C15.3824 8.37463 14.7875 8.62504 14.2209 8.95891L13.626 8.37463C13.2861 8.04076 12.6912 8.04076 12.3229 8.37463L11.1614 9.51536C10.9915 9.6823 10.8782 9.90488 10.9065 10.1553C10.9065 10.4057 10.9915 10.6283 11.1614 10.7952L11.7847 11.4073C11.4731 11.9359 11.2464 12.5202 11.1048 13.1045H10.1983C9.68835 13.1045 9.29175 13.5218 9.29175 13.9948V15.6085C9.29175 16.1094 9.71668 16.4989 10.1983 16.4989H11.1898C11.3597 17.0553 11.5864 17.584 11.898 18.0848L11.1614 18.8082C10.9915 18.9751 10.8782 19.1977 10.9065 19.4481C10.9065 19.6985 10.9915 19.9211 11.1614 20.088L12.3229 21.2287C12.6629 21.5626 13.2861 21.5626 13.626 21.2287L14.4192 20.4497C14.9291 20.7279 15.4391 20.9227 16.0056 21.0618V22.1747C16.0056 22.6755 16.4306 23.065 16.9121 23.065H18.5552C19.0651 23.065 19.4617 22.6477 19.4617 22.1747V21.1453C20 21.0062 20.5382 20.7836 21.0481 20.5053L21.8413 21.2844C22.1813 21.6183 22.8045 21.6183 23.1444 21.2844L24.2776 20.1437C24.4476 19.9767 24.5609 19.7541 24.5609 19.5037C24.5609 19.2533 24.4759 19.0307 24.2776 18.8638L23.541 18.1404C23.8527 17.6396 24.0793 17.111 24.2493 16.5545H25.2691C25.779 16.5545 26.1756 16.1372 26.1756 15.6642V14.0505C26.1756 13.5497 25.779 13.1323 25.2691 13.1323ZM25.524 15.6364C25.524 15.7755 25.4107 15.8868 25.2691 15.8868H24.0226C23.881 15.8868 23.7393 15.9981 23.711 16.1372C23.541 16.8049 23.2578 17.417 22.8895 18.0013C22.8045 18.1404 22.8328 18.3074 22.9178 18.4186L23.8527 19.3368C23.9093 19.3924 23.9376 19.4481 23.9376 19.5037C23.9376 19.5594 23.9093 19.6428 23.8527 19.6707L22.6629 20.8114C22.5779 20.8949 22.3796 20.8949 22.2946 20.8114L21.3314 19.8654C21.2181 19.7541 21.0481 19.7541 20.9348 19.8098C20.3399 20.1715 19.7167 20.4219 19.0651 20.561C18.9235 20.5888 18.8102 20.7279 18.8102 20.867V22.2304C18.8102 22.3695 18.6968 22.4808 18.5552 22.4808H16.9121C16.7705 22.4808 16.6572 22.3695 16.6572 22.2304V20.867C16.6572 20.7279 16.5439 20.5888 16.4022 20.561C15.7507 20.4219 15.1274 20.1715 14.5325 19.8098C14.4759 19.782 14.4192 19.7541 14.3626 19.7541C14.2776 19.7541 14.1926 19.782 14.1359 19.8376L13.1728 20.7836C13.0878 20.867 12.8895 20.867 12.8045 20.7836L11.643 19.6428C11.5864 19.5872 11.558 19.5316 11.558 19.4759C11.558 19.4203 11.5864 19.3368 11.643 19.309L12.5779 18.3908C12.6912 18.2795 12.7195 18.1126 12.6062 17.9735C12.2379 17.417 11.9546 16.7771 11.7847 16.1094C11.7563 15.9702 11.6147 15.8589 11.4731 15.8589H10.2266C10.0849 15.8589 9.97164 15.7477 9.97164 15.6085V13.9948C9.97164 13.8557 10.0849 13.7444 10.2266 13.7444H11.4164C11.5864 13.7444 11.6997 13.6331 11.728 13.494C11.8697 12.7984 12.1246 12.1307 12.5212 11.5186C12.6062 11.3795 12.5779 11.2404 12.4646 11.1291L11.643 10.3222C11.5864 10.2666 11.558 10.2109 11.558 10.1553C11.558 10.0718 11.5864 10.0162 11.643 9.96053L12.8045 8.8198C12.8895 8.73633 13.0878 8.73633 13.1728 8.8198L13.9376 9.57101C14.051 9.6823 14.2209 9.71012 14.3626 9.59883C14.9858 9.18149 15.6657 8.90326 16.4022 8.73633C16.5439 8.7085 16.6572 8.56939 16.6572 8.43028V7.40084C16.6572 7.26172 16.7705 7.15043 16.9121 7.15043H18.5552C18.6968 7.15043 18.8102 7.26172 18.8102 7.40084V8.43028C18.8102 8.56939 18.9235 8.7085 19.0651 8.73633C19.8017 8.90326 20.4816 9.18149 21.1048 9.59883C21.2464 9.6823 21.4164 9.65448 21.5297 9.54319L22.2946 8.79197C22.4079 8.7085 22.5779 8.7085 22.6629 8.79197L23.8243 9.93271C23.881 9.98835 23.9093 10.044 23.9093 10.1275C23.9093 10.1831 23.881 10.2666 23.8243 10.2944L23.0311 11.0734C22.9178 11.1847 22.9178 11.3517 22.9745 11.463C23.3427 12.0751 23.626 12.7428 23.7677 13.4384C23.796 13.5775 23.9376 13.6888 24.0793 13.6888H25.2691C25.4107 13.6888 25.524 13.8001 25.524 13.9392V15.6364Z" fill="url(#paint1_linear_1492_729)"/>
<path d="M17.762 11.296C15.779 11.296 14.1643 12.8819 14.1643 14.8295C14.1643 16.7771 15.779 18.363 17.762 18.363C19.745 18.363 21.3598 16.7771 21.3598 14.8295C21.3598 12.8819 19.745 11.296 17.762 11.296ZM17.762 17.7509C16.1473 17.7509 14.8159 16.4432 14.8159 14.8573C14.8159 13.2714 16.1473 11.9638 17.762 11.9638C19.3768 11.9638 20.6799 13.2436 20.6799 14.8573C20.6799 16.4432 19.3768 17.7509 17.762 17.7509Z" fill="url(#paint2_linear_1492_729)"/>
<path d="M20.0283 24.5396C19.8867 24.484 18.5836 23.9554 17.847 23.9832C17.5354 23.9832 17.2805 24.1223 17.0255 24.2614C16.5439 24.5118 16.1756 24.7066 15.6374 24.2892C14.6742 23.5659 13.6544 24.011 13.1161 24.2614C13.0028 24.3171 12.8612 24.3727 12.8045 24.3727C12.6346 24.3727 12.4929 24.5118 12.4929 24.7066C12.4929 24.8735 12.6346 25.0405 12.8329 25.0405C13.0028 25.0405 13.1728 24.957 13.3994 24.8457C14.0227 24.5675 14.6459 24.3449 15.2408 24.7901C15.6091 25.0683 15.949 25.1796 16.2606 25.1796C16.6856 25.1796 17.0538 24.9848 17.3371 24.8457C17.5354 24.7344 17.7337 24.6509 17.8754 24.6231C18.3853 24.5953 19.4051 24.9848 19.7734 25.1239C19.9433 25.2074 20.1416 25.1239 20.1983 24.957C20.255 24.7901 20.17 24.5953 20.0283 24.5396Z" fill="url(#paint3_linear_1492_729)"/>
<path d="M17.7621 2.75445C17.932 2.75445 18.102 2.61534 18.102 2.42058V0.333873C18.102 0.166936 17.9604 0 17.7621 0C17.5921 0 17.4221 0.139114 17.4221 0.333873V2.42058C17.4221 2.58752 17.5638 2.75445 17.7621 2.75445Z" fill="url(#paint4_linear_1492_729)"/>
<path d="M25.2124 4.702C25.2691 4.72983 25.3258 4.75765 25.3824 4.75765C25.4957 4.75765 25.609 4.702 25.6657 4.59071L26.7422 2.78223C26.8272 2.6153 26.7705 2.42054 26.6289 2.33707C26.4589 2.2536 26.2606 2.30925 26.1756 2.44836L25.0991 4.25684C25.0141 4.42378 25.0708 4.61853 25.2124 4.702Z" fill="url(#paint5_linear_1492_729)"/>
<path d="M30.9916 10.2387C31.0482 10.2387 31.1049 10.2109 31.1615 10.1831L33.0029 9.12584C33.1729 9.04237 33.2012 8.84761 33.1162 8.68067C33.0312 8.51374 32.8329 8.48591 32.6629 8.56938L30.8216 9.62665C30.6516 9.71011 30.6233 9.90487 30.7083 10.0718C30.7649 10.1831 30.8782 10.2387 30.9916 10.2387Z" fill="url(#paint6_linear_1492_729)"/>
<path d="M35.1558 17.111H33.0311C32.8611 17.111 32.6912 17.2501 32.6912 17.4448C32.6912 17.6118 32.8328 17.7787 33.0311 17.7787H35.1558C35.3257 17.7787 35.4957 17.6396 35.4957 17.4448C35.4957 17.2501 35.3541 17.111 35.1558 17.111Z" fill="url(#paint7_linear_1492_729)"/>
<path d="M33.0029 25.7082L31.1615 24.6509C30.9916 24.5674 30.7933 24.6231 30.7083 24.7622C30.6233 24.9291 30.6799 25.1239 30.8216 25.2074L32.6629 26.2646C32.7196 26.2925 32.7763 26.3203 32.8329 26.3203C32.9462 26.3203 33.0595 26.2646 33.1162 26.1533C33.2012 25.9864 33.1445 25.7916 33.0029 25.7082Z" fill="url(#paint8_linear_1492_729)"/>
<path d="M4.33433 24.6509L2.49297 25.7082C2.323 25.7916 2.29467 25.9864 2.37966 26.1533C2.43632 26.2646 2.54963 26.3203 2.66294 26.3203C2.7196 26.3203 2.77626 26.2925 2.83292 26.2646L4.67428 25.2074C4.84425 25.1239 4.87258 24.9291 4.78759 24.7622C4.7026 24.6231 4.5043 24.5674 4.33433 24.6509Z" fill="url(#paint9_linear_1492_729)"/>
<path d="M2.80453 17.417C2.80453 17.2501 2.66289 17.0831 2.46459 17.0831H0.339943C0.141643 17.111 0 17.2501 0 17.417C0 17.5839 0.141643 17.7509 0.339943 17.7509H2.46459C2.63456 17.7509 2.80453 17.6118 2.80453 17.417Z" fill="url(#paint10_linear_1492_729)"/>
<path d="M4.67427 9.65447L2.83291 8.5972C2.66294 8.51373 2.46464 8.56938 2.37965 8.70849C2.29467 8.87543 2.35132 9.07019 2.49297 9.15366L4.33433 10.2109C4.39098 10.2387 4.44764 10.2666 4.5043 10.2666C4.61761 10.2666 4.73093 10.2109 4.78758 10.0996C4.87257 9.93269 4.84424 9.73793 4.67427 9.65447Z" fill="url(#paint11_linear_1492_729)"/>
<path d="M9.83005 4.59072C9.88671 4.70201 10 4.75766 10.1133 4.75766C10.17 4.75766 10.2266 4.72984 10.2833 4.70201C10.4533 4.61855 10.4816 4.42379 10.3966 4.25685L9.32013 2.44837C9.23515 2.28144 9.03685 2.25361 8.86687 2.33708C8.6969 2.42055 8.66857 2.61531 8.75356 2.78225L9.83005 4.59072Z" fill="url(#paint12_linear_1492_729)"/>
</g>
<defs>
<linearGradient id="paint0_linear_1492_729" x1="1.27982" y1="21.5062" x2="27.177" y2="21.5062" gradientUnits="userSpaceOnUse">
<stop stop-color="#F4BB41"/>
<stop offset="0.3618" stop-color="#EA3665"/>
<stop offset="1" stop-color="#2F7AE6"/>
</linearGradient>
<linearGradient id="paint1_linear_1492_729" x1="1.27979" y1="14.8449" x2="27.177" y2="14.8449" gradientUnits="userSpaceOnUse">
<stop stop-color="#F4BB41"/>
<stop offset="0.3618" stop-color="#EA3665"/>
<stop offset="1" stop-color="#2F7AE6"/>
</linearGradient>
<linearGradient id="paint2_linear_1492_729" x1="1.27983" y1="14.8468" x2="27.177" y2="14.8468" gradientUnits="userSpaceOnUse">
<stop stop-color="#F4BB41"/>
<stop offset="0.3618" stop-color="#EA3665"/>
<stop offset="1" stop-color="#2F7AE6"/>
</linearGradient>
<linearGradient id="paint3_linear_1492_729" x1="1.27983" y1="24.5364" x2="27.177" y2="24.5364" gradientUnits="userSpaceOnUse">
<stop stop-color="#F4BB41"/>
<stop offset="0.3618" stop-color="#EA3665"/>
<stop offset="1" stop-color="#2F7AE6"/>
</linearGradient>
<linearGradient id="paint4_linear_1492_729" x1="1.27984" y1="1.3706" x2="27.177" y2="1.3706" gradientUnits="userSpaceOnUse">
<stop stop-color="#F4BB41"/>
<stop offset="0.3618" stop-color="#EA3665"/>
<stop offset="1" stop-color="#2F7AE6"/>
</linearGradient>
<linearGradient id="paint5_linear_1492_729" x1="1.2798" y1="3.52321" x2="27.177" y2="3.52321" gradientUnits="userSpaceOnUse">
<stop stop-color="#F4BB41"/>
<stop offset="0.3618" stop-color="#EA3665"/>
<stop offset="1" stop-color="#2F7AE6"/>
</linearGradient>
<linearGradient id="paint6_linear_1492_729" x1="1.27989" y1="9.39956" x2="27.1771" y2="9.39956" gradientUnits="userSpaceOnUse">
<stop stop-color="#F4BB41"/>
<stop offset="0.3618" stop-color="#EA3665"/>
<stop offset="1" stop-color="#2F7AE6"/>
</linearGradient>
<linearGradient id="paint7_linear_1492_729" x1="1.27977" y1="17.4271" x2="27.1769" y2="17.4271" gradientUnits="userSpaceOnUse">
<stop stop-color="#F4BB41"/>
<stop offset="0.3618" stop-color="#EA3665"/>
<stop offset="1" stop-color="#2F7AE6"/>
</linearGradient>
<linearGradient id="paint8_linear_1492_729" x1="1.27988" y1="25.4608" x2="27.177" y2="25.4608" gradientUnits="userSpaceOnUse">
<stop stop-color="#F4BB41"/>
<stop offset="0.3618" stop-color="#EA3665"/>
<stop offset="1" stop-color="#2F7AE6"/>
</linearGradient>
<linearGradient id="paint9_linear_1492_729" x1="1.27989" y1="25.4608" x2="27.1771" y2="25.4608" gradientUnits="userSpaceOnUse">
<stop stop-color="#F4BB41"/>
<stop offset="0.3618" stop-color="#EA3665"/>
<stop offset="1" stop-color="#2F7AE6"/>
</linearGradient>
<linearGradient id="paint10_linear_1492_729" x1="1.27983" y1="17.427" x2="27.177" y2="17.427" gradientUnits="userSpaceOnUse">
<stop stop-color="#F4BB41"/>
<stop offset="0.3618" stop-color="#EA3665"/>
<stop offset="1" stop-color="#2F7AE6"/>
</linearGradient>
<linearGradient id="paint11_linear_1492_729" x1="1.27988" y1="9.39955" x2="27.177" y2="9.39955" gradientUnits="userSpaceOnUse">
<stop stop-color="#F4BB41"/>
<stop offset="0.3618" stop-color="#EA3665"/>
<stop offset="1" stop-color="#2F7AE6"/>
</linearGradient>
<linearGradient id="paint12_linear_1492_729" x1="1.27985" y1="3.52322" x2="27.177" y2="3.52322" gradientUnits="userSpaceOnUse">
<stop stop-color="#F4BB41"/>
<stop offset="0.3618" stop-color="#EA3665"/>
<stop offset="1" stop-color="#2F7AE6"/>
</linearGradient>
<clipPath id="clip0_1492_729">
<rect width="35.4958" height="39.2857" fill="white"/>
</clipPath>
</defs>
</svg>
