<svg width="115" height="62" viewBox="0 0 115 62" fill="none" xmlns="http://www.w3.org/2000/svg">
<g clip-path="url(#clip0_1339_866)">
<path d="M98.9408 44.5083H98.1722C97.8842 44.5083 97.6246 44.3275 97.5253 44.0573C97.4401 43.8338 97.3488 43.6144 97.2495 43.397C97.1278 43.1328 97.1825 42.8199 97.3894 42.6167L97.9369 42.0682C98.7501 41.2473 98.7481 39.9226 97.9329 39.1018L95.9597 37.1248C95.1404 36.308 93.8182 36.308 92.9989 37.1248L92.4514 37.6734C92.2466 37.8786 91.9363 37.9355 91.6727 37.8136C91.4557 37.714 91.2366 37.6226 91.0136 37.5332C90.7398 37.4337 90.5593 37.1736 90.5614 36.883V36.113C90.5614 34.9528 89.6224 34.0142 88.4665 34.0142H85.674C84.5161 34.0142 83.5792 34.9549 83.5792 36.113V36.883C83.5792 37.1716 83.3987 37.4316 83.129 37.5312C82.9059 37.6165 82.6869 37.7079 82.4699 37.8075C82.2063 37.9294 81.896 37.8746 81.6912 37.6673L81.1436 37.1187C80.3243 36.304 79.0021 36.304 78.1828 37.1187L76.2097 39.1018C75.3944 39.9226 75.3944 41.2473 76.2097 42.0682L76.7572 42.6167C76.9641 42.822 77.0188 43.1328 76.8971 43.397C76.7978 43.6144 76.7065 43.8338 76.6213 44.0573C76.522 44.3316 76.2604 44.5124 75.9704 44.5083H75.2018C74.0438 44.5083 73.1069 45.4491 73.1069 46.6072V49.405C73.1069 50.5651 74.0459 51.5038 75.2018 51.5038H75.9704C76.2583 51.5038 76.5179 51.6846 76.6173 51.9548C76.7025 52.1783 76.7937 52.3978 76.8931 52.6152C77.0148 52.8793 76.96 53.1922 76.7532 53.3954L76.2056 53.944C75.3924 54.7648 75.3924 56.0895 76.2056 56.9104L78.1788 58.8873C78.9981 59.7041 80.3203 59.7041 81.1396 58.8873L81.6871 58.3387C81.8919 58.1335 82.2022 58.0766 82.4658 58.1985C82.6828 58.2981 82.9018 58.3895 83.1249 58.4789C83.3987 58.5764 83.5812 58.8365 83.5812 59.1291V59.8991C83.5812 61.0593 84.5201 61.998 85.6761 61.998H88.4685C89.6265 61.998 90.5634 61.0573 90.5634 59.8991V59.1291C90.5634 58.8406 90.7439 58.5805 91.0136 58.4809C91.2366 58.3956 91.4557 58.3042 91.6727 58.2046C91.9363 58.0827 92.2466 58.1376 92.4514 58.3448L92.9989 58.8934C93.8182 59.7081 95.1404 59.7061 95.9597 58.8893L97.9329 56.9124C98.7481 56.0916 98.7481 54.7668 97.9329 53.946L97.3853 53.3974C97.1785 53.1922 97.1237 52.8813 97.2454 52.6172C97.3448 52.3998 97.436 52.1804 97.5253 51.9569C97.6246 51.6826 97.8842 51.5018 98.1742 51.5038H98.9428C100.101 51.5038 101.038 50.5631 101.038 49.405V46.6072C101.038 45.447 100.099 44.5083 98.9428 44.5083H98.9408ZM99.6384 49.405C99.6384 49.791 99.3261 50.1039 98.9408 50.1039H98.1722C97.3042 50.108 96.5275 50.6443 96.2173 51.4571C96.1422 51.6521 96.0631 51.8451 95.978 52.0361C95.619 52.8305 95.7853 53.7631 96.3977 54.3849L96.9433 54.9334C97.217 55.2057 97.217 55.6486 96.9433 55.9229L94.9701 57.8999C94.6983 58.1721 94.2562 58.1721 93.9825 57.8999L93.4349 57.3513C92.8164 56.7377 91.8836 56.5711 91.0906 56.9307C90.902 57.016 90.7094 57.0973 90.5147 57.1704C89.7056 57.4813 89.1682 58.2595 89.1641 59.1271V59.8971C89.1641 60.2831 88.8518 60.596 88.4665 60.596H85.674C85.2887 60.596 84.9764 60.2831 84.9764 59.8971V59.1271C84.9724 58.2575 84.437 57.4793 83.6258 57.1684C83.4311 57.0932 83.2385 57.014 83.0479 56.9287C82.2549 56.569 81.3241 56.7356 80.7036 57.3492L80.156 57.8958C79.8843 58.1701 79.4422 58.1701 79.1684 57.8958L77.1952 55.9209C76.9235 55.6486 76.9235 55.2057 77.1952 54.9314L77.7428 54.3828C78.3552 53.7631 78.5215 52.8285 78.1626 52.0341C78.0774 51.8451 77.9963 51.6521 77.9233 51.4571C77.613 50.6443 76.8383 50.1059 75.9704 50.1019H75.2018C74.8165 50.1019 74.5042 49.789 74.5042 49.4029V46.6051C74.5042 46.2191 74.8165 45.9062 75.2018 45.9062H75.9704C76.8383 45.9021 77.615 45.3658 77.9253 44.553C78.0003 44.358 78.0794 44.165 78.1646 43.974C78.5235 43.1796 78.3572 42.247 77.7448 41.6252L77.1952 41.0767C76.9215 40.8044 76.9215 40.3615 77.1952 40.0872L79.1684 38.1102C79.4402 37.838 79.8823 37.838 80.156 38.1102L80.7036 38.6588C81.3221 39.2724 82.2549 39.439 83.0479 39.0794C83.2365 38.9941 83.4291 38.9128 83.6238 38.8397C84.435 38.5288 84.9724 37.7526 84.9764 36.883V36.113C84.9764 35.727 85.2887 35.4141 85.674 35.4141H88.4665C88.8518 35.4141 89.1641 35.727 89.1641 36.113V36.883C89.1682 37.7526 89.7035 38.5308 90.5147 38.8417C90.7094 38.9169 90.902 38.9961 91.0927 39.0814C91.8856 39.4411 92.8164 39.2745 93.437 38.6609L93.9845 38.1143C94.2583 37.842 94.6983 37.842 94.9721 38.1143L96.9453 40.0912C97.217 40.3635 97.217 40.8064 96.9453 41.0807L96.3977 41.6293C95.7873 42.249 95.619 43.1836 95.978 43.978C96.0631 44.167 96.1442 44.36 96.2173 44.5551C96.5275 45.3658 97.3042 45.9042 98.1702 45.9082H98.9387C99.324 45.9082 99.6363 46.2211 99.6363 46.6072V49.405H99.6384Z" fill="url(#paint0_linear_1339_866)"/>
<path d="M93.3397 47.7265C93.3336 47.5579 93.3214 47.3913 93.3011 47.2246C93.2788 47.0458 93.2525 46.8671 93.216 46.6944C93.1916 46.5806 93.1592 46.4668 93.1288 46.355C93.0902 46.2108 93.0456 46.0686 92.9969 45.9284C92.9625 45.8308 92.928 45.7353 92.8915 45.6378C92.8023 45.4143 92.6988 45.1949 92.5832 44.9836C92.5751 44.9673 92.569 44.949 92.5589 44.9348C92.3764 44.6118 92.1675 44.3029 91.9302 44.0185C91.91 43.9941 91.8877 43.9697 91.8653 43.9453C91.768 43.8316 91.6707 43.7198 91.5652 43.6142C91.5105 43.5573 91.4537 43.5044 91.3969 43.4496C91.3279 43.3846 91.257 43.3196 91.188 43.2586C91.1028 43.1855 91.0177 43.1143 90.9284 43.0453L90.8149 42.9599C89.734 42.1492 88.4199 41.7104 87.0713 41.7124C87.0024 41.7124 86.9314 41.7226 86.8624 41.7266C86.7144 41.7307 86.5643 41.7388 86.4143 41.7551C86.3352 41.7632 86.2561 41.7734 86.177 41.7835C85.9499 41.814 85.7227 41.8567 85.4997 41.9095C82.1374 42.7791 80.1155 46.2169 80.9855 49.5856C81.5574 51.8063 83.2892 53.5394 85.5058 54.1104C85.5179 54.1104 85.5281 54.1144 85.5402 54.1165C85.7816 54.1774 86.0249 54.2242 86.2723 54.2567C86.4345 54.277 86.5968 54.281 86.761 54.2892C86.8705 54.2953 86.9699 54.3115 87.0835 54.3115C87.2822 54.3115 87.4891 54.2973 87.7 54.277C87.7223 54.277 87.7446 54.2709 87.7689 54.2689C87.9393 54.2506 88.1096 54.2242 88.2861 54.1896C88.355 54.1754 88.4199 54.1591 88.4888 54.1429C88.6125 54.1144 88.7342 54.084 88.86 54.0474C88.9573 54.0189 89.0526 53.9844 89.1479 53.9499C89.2432 53.9153 89.3426 53.8808 89.442 53.8422C89.5413 53.8036 89.6245 53.7609 89.7137 53.7182C89.8313 53.6634 89.9469 53.6106 90.0625 53.5476H90.0666C90.7175 53.1981 91.3198 52.7633 91.8572 52.2533C92.0012 52.1172 92.129 51.9628 92.2324 51.7941C92.7779 50.9184 93.1348 49.9391 93.2849 48.9192C93.3052 48.7851 93.3214 48.6489 93.3315 48.5108C93.3417 48.3848 93.3478 48.2588 93.3518 48.1329C93.3518 48.0922 93.3579 48.0557 93.3579 48.015C93.3579 47.9155 93.3498 47.8261 93.3437 47.7306L93.3397 47.7265ZM91.9485 48.1857C91.9485 48.2446 91.9444 48.3015 91.9404 48.3584C91.9282 48.527 91.9059 48.6977 91.8775 48.8663C91.6159 50.3211 90.7155 51.5808 89.4237 52.294C89.3365 52.3387 89.2513 52.3813 89.1662 52.422L89.1074 52.4504C88.7018 52.6353 88.2739 52.7653 87.8338 52.8364C87.8034 52.8405 87.771 52.8466 87.7405 52.8507C87.6533 52.8629 87.5682 52.873 87.483 52.8811C87.3715 52.8913 87.2579 52.8974 87.1423 52.8994H86.9963C86.832 52.8994 86.6657 52.8872 86.5015 52.869L86.4183 52.8588C86.2257 52.8344 86.035 52.7978 85.8485 52.7511C83.2324 52.0806 81.6547 49.4129 82.326 46.7919C82.768 45.0608 84.1166 43.7076 85.8444 43.2627C86.2459 43.1611 86.6576 43.1082 87.0713 43.1082C87.2701 43.1082 87.4708 43.1225 87.6675 43.1489C87.7203 43.155 87.773 43.1651 87.8257 43.1733C87.9758 43.1976 88.1258 43.2281 88.2739 43.2647C88.3226 43.2769 88.3712 43.2891 88.4179 43.3013C88.789 43.409 89.1459 43.5593 89.4825 43.7503C89.5373 43.7808 89.588 43.8153 89.6427 43.8478C89.7522 43.9169 89.8597 43.988 89.9652 44.0673C90.022 44.1079 90.0787 44.1485 90.1335 44.1932C90.2714 44.3029 90.4012 44.4187 90.5269 44.5427C90.5756 44.5935 90.6222 44.6483 90.6709 44.7012C90.752 44.7885 90.8291 44.8779 90.9041 44.9734C90.9548 45.0384 91.0055 45.1055 91.0542 45.1725C91.1231 45.2741 91.1941 45.3778 91.257 45.4854C91.2914 45.5444 91.3259 45.5992 91.3624 45.6602C91.4516 45.8268 91.5328 45.9974 91.6017 46.1722C91.6301 46.2413 91.6524 46.3124 91.6788 46.3815C91.7234 46.5095 91.764 46.6395 91.7984 46.7716C91.8167 46.8406 91.8349 46.9036 91.8491 46.9707C91.8897 47.1596 91.9201 47.3506 91.9384 47.5436C91.9424 47.5944 91.9424 47.6473 91.9465 47.6981C91.9566 47.8586 91.9586 48.0211 91.9525 48.1837L91.9485 48.1857Z" fill="url(#paint1_linear_1339_866)"/>
<path d="M112.905 34.715H110.709C110.417 34.717 110.153 34.5341 110.058 34.2558C109.841 33.6056 109.579 32.9717 109.273 32.3581C109.143 32.094 109.198 31.775 109.407 31.5677L110.964 30.0053C111.782 29.1865 111.782 27.8577 110.964 27.0389L107.995 24.0684C107.178 23.2496 105.852 23.2496 105.035 24.0684L103.477 25.6268C103.27 25.8361 102.954 25.8909 102.69 25.7609C102.078 25.4541 101.445 25.1899 100.796 24.9705C100.518 24.875 100.332 24.6129 100.336 24.3183V22.1179C100.336 20.9577 99.397 20.019 98.2411 20.019H94.0514C92.8934 20.019 91.9565 20.9598 91.9565 22.1179V24.3183C91.9586 24.6109 91.776 24.875 91.4982 24.9705C90.8493 25.1879 90.2166 25.452 89.6041 25.7588C89.3405 25.8889 89.0221 25.8361 88.8153 25.6247L87.2558 24.0643C86.4365 23.2476 85.1123 23.2476 84.295 24.0643L81.3322 27.0328C80.5149 27.8516 80.5149 29.1804 81.3322 30.0012L83.6217 32.2992C83.8995 32.5674 84.3416 32.5613 84.6093 32.2829C84.8709 32.0127 84.8709 31.5819 84.6093 31.3117L82.3178 29.0138C82.046 28.7415 82.046 28.2986 82.3178 28.0243L85.2806 25.0558C85.5523 24.7836 85.9944 24.7836 86.2682 25.0558L87.8276 26.6163C88.4583 27.2522 89.4257 27.4107 90.2267 27.0104C90.7803 26.7321 91.3522 26.4943 91.9383 26.2973C92.7839 26.0108 93.3538 25.2123 93.3497 24.3163V22.1158C93.3497 21.7298 93.662 21.4169 94.0473 21.4169H98.237C98.6223 21.4169 98.9346 21.7298 98.9346 22.1158V24.3163C98.9306 25.2123 99.5004 26.0088 100.346 26.2952C100.932 26.4923 101.504 26.73 102.058 27.0084C102.859 27.4066 103.824 27.2481 104.457 26.6122L106.016 25.0518C106.288 24.7795 106.73 24.7795 107.004 25.0518L109.967 28.0223C110.238 28.2945 110.238 28.7374 109.967 29.0117L108.409 30.5742C107.774 31.2061 107.616 32.1752 108.016 32.9778C108.294 33.5325 108.531 34.1054 108.728 34.6926C109.013 35.5419 109.81 36.1108 110.705 36.1067H112.901C113.286 36.1067 113.599 36.4196 113.599 36.8057V41.0033C113.599 41.3894 113.286 41.7023 112.901 41.7023H110.705C109.81 41.6982 109.015 42.2692 108.73 43.1164C108.533 43.7036 108.296 44.2766 108.018 44.8312C107.62 45.6338 107.778 46.603 108.413 47.2348L109.971 48.7973C110.242 49.0695 110.242 49.5125 109.971 49.7868L107.006 52.7552C106.734 53.0275 106.292 53.0275 106.018 52.7552L103.723 50.4613C103.455 50.183 103.013 50.1769 102.735 50.4451C102.457 50.7133 102.451 51.1562 102.719 51.4345C102.725 51.4406 102.731 51.4467 102.735 51.4508L105.029 53.7447C105.846 54.5635 107.172 54.5635 107.989 53.7447L110.952 50.7762C111.769 49.9574 111.769 48.6286 110.952 47.8078L109.397 46.2474C109.188 46.0401 109.133 45.7232 109.263 45.4591C109.569 44.8455 109.833 44.2115 110.052 43.5614C110.147 43.283 110.409 43.0961 110.703 43.1002H112.899C114.057 43.1002 114.994 42.1594 114.994 41.0013V36.8036C114.994 35.6435 114.055 34.7048 112.899 34.7048L112.905 34.715Z" fill="url(#paint2_linear_1339_866)"/>
<path d="M102.565 32.48C99.0179 28.9325 93.2748 28.9325 89.7279 32.48C89.4602 32.7583 89.4683 33.2012 89.7441 33.4694C90.0138 33.7315 90.4438 33.7315 90.7135 33.4694C93.6925 30.4441 98.5575 30.4116 101.577 33.3963C104.597 36.381 104.629 41.2553 101.65 44.2806C101.626 44.305 101.601 44.3293 101.577 44.3537C101.299 44.6219 101.291 45.0649 101.561 45.3432C101.829 45.6216 102.271 45.6297 102.548 45.3595C102.555 45.3534 102.561 45.3473 102.565 45.3432C106.105 41.7896 106.105 36.0356 102.565 32.482V32.48Z" fill="url(#paint3_linear_1339_866)"/>
<path d="M55.3078 0.306853C55.0401 0.0711654 54.6852 -0.0365193 54.3283 0.0102118L29.4942 3.34031C28.8797 3.42158 28.4235 3.94782 28.4235 4.56751V26.3483C28.4235 27.031 28.9771 27.5856 29.6585 27.5856H54.4925C55.1739 27.5856 55.7275 27.031 55.7275 26.3483V1.23741C55.7275 0.879817 55.5734 0.540508 55.3057 0.306853H55.3078ZM53.2575 25.1129H30.8935V5.65249L53.2575 2.65357V25.1129V25.1129Z" fill="url(#paint4_linear_1339_866)"/>
<path d="M24.7164 30.1318H24.7144L1.35261 30.1806C0.671227 30.1806 0.119629 30.7373 0.119629 31.418V49.9905C0.119629 50.6143 0.581997 51.1405 1.19849 51.2198L24.5603 54.1984C24.613 54.2045 24.6657 54.2085 24.7164 54.2085C25.0145 54.2085 25.3066 54.0988 25.5337 53.8997C25.7993 53.664 25.9535 53.3267 25.9535 52.9712V31.3712C25.9535 31.0421 25.8237 30.7271 25.5905 30.4955C25.3593 30.2639 25.0449 30.1339 24.7185 30.1339L24.7164 30.1318ZM23.4814 51.5652L2.59168 48.9015V32.6553L23.4814 32.6126V51.5672V51.5652Z" fill="url(#paint5_linear_1339_866)"/>
<path d="M24.5583 3.94603L1.07683 6.97339C0.460341 7.05466 0 7.58089 0 8.20262V26.3506C0 27.0332 0.553626 27.5879 1.23501 27.5879H24.7164C25.3978 27.5879 25.9515 27.0332 25.9515 26.3506V5.17323C25.9515 4.81563 25.7973 4.47835 25.5317 4.24267C25.266 4.00698 24.9071 3.89929 24.5562 3.94399L24.5583 3.94603ZM23.4814 25.1132H2.47205V9.29166L23.4814 6.58329V25.1132V25.1132Z" fill="url(#paint6_linear_1339_866)"/>
<path d="M54.4967 30.1805L29.6626 30.146C29.3361 30.146 29.0218 30.276 28.7906 30.5077C28.5594 30.7393 28.4276 31.0542 28.4276 31.3834V53.5888C28.4276 54.2085 28.8839 54.7327 29.4984 54.816L54.3324 58.1806C54.3852 58.1887 54.4419 58.1908 54.4947 58.1908C54.7928 58.1908 55.0807 58.0831 55.3079 57.884C55.5755 57.6483 55.7297 57.309 55.7297 56.9514V31.4138C55.7297 30.7312 55.1781 30.1765 54.4967 30.1765V30.1805ZM53.2576 55.5372L30.8936 52.5079V32.6227L53.2576 32.6532V55.5372V55.5372Z" fill="url(#paint7_linear_1339_866)"/>
<path d="M73.8877 47.8626H66.356V14.6957H54.2999C53.8518 14.6957 53.4888 14.3321 53.4888 13.883C53.4888 13.434 53.8518 13.0703 54.2999 13.0703H67.9783V46.2372H73.8877C74.3359 46.2372 74.6989 46.6009 74.6989 47.0499C74.6989 47.499 74.3359 47.8626 73.8877 47.8626Z" fill="url(#paint8_linear_1339_866)"/>
</g>
<defs>
<linearGradient id="paint0_linear_1339_866" x1="-0.659121" y1="62.705" x2="118.681" y2="42.786" gradientUnits="userSpaceOnUse">
<stop stop-color="#FABE3E"/>
<stop offset="0.36" stop-color="#F63966"/>
<stop offset="1" stop-color="#007AE8"/>
</linearGradient>
<linearGradient id="paint1_linear_1339_866" x1="-0.65905" y1="62.7069" x2="118.683" y2="42.7878" gradientUnits="userSpaceOnUse">
<stop stop-color="#FABE3E"/>
<stop offset="0.36" stop-color="#F63966"/>
<stop offset="1" stop-color="#007AE8"/>
</linearGradient>
<linearGradient id="paint2_linear_1339_866" x1="-2.05437" y1="54.342" x2="117.286" y2="34.423" gradientUnits="userSpaceOnUse">
<stop stop-color="#FABE3E"/>
<stop offset="0.36" stop-color="#F63966"/>
<stop offset="1" stop-color="#007AE8"/>
</linearGradient>
<linearGradient id="paint3_linear_1339_866" x1="-2.01578" y1="54.5716" x2="117.324" y2="34.6525" gradientUnits="userSpaceOnUse">
<stop stop-color="#FABE3E"/>
<stop offset="0.36" stop-color="#F63966"/>
<stop offset="1" stop-color="#007AE8"/>
</linearGradient>
<linearGradient id="paint4_linear_1339_866" x1="-7.16878" y1="23.709" x2="112.173" y2="3.79197" gradientUnits="userSpaceOnUse">
<stop stop-color="#FABE3E"/>
<stop offset="0.36" stop-color="#F63966"/>
<stop offset="1" stop-color="#007AE8"/>
</linearGradient>
<linearGradient id="paint5_linear_1339_866" x1="-3.61785" y1="44.9842" x2="115.724" y2="25.0651" gradientUnits="userSpaceOnUse">
<stop stop-color="#FABE3E"/>
<stop offset="0.36" stop-color="#F63966"/>
<stop offset="1" stop-color="#007AE8"/>
</linearGradient>
<linearGradient id="paint6_linear_1339_866" x1="-7.66356" y1="20.7347" x2="111.676" y2="0.81564" gradientUnits="userSpaceOnUse">
<stop stop-color="#FABE3E"/>
<stop offset="0.36" stop-color="#F63966"/>
<stop offset="1" stop-color="#007AE8"/>
</linearGradient>
<linearGradient id="paint7_linear_1339_866" x1="-2.50647" y1="51.6382" x2="116.835" y2="31.7212" gradientUnits="userSpaceOnUse">
<stop stop-color="#FABE3E"/>
<stop offset="0.36" stop-color="#F63966"/>
<stop offset="1" stop-color="#007AE8"/>
</linearGradient>
<linearGradient id="paint8_linear_1339_866" x1="-4.1329" y1="41.8973" x2="115.209" y2="21.9783" gradientUnits="userSpaceOnUse">
<stop stop-color="#FABE3E"/>
<stop offset="0.36" stop-color="#F63966"/>
<stop offset="1" stop-color="#007AE8"/>
</linearGradient>
<clipPath id="clip0_1339_866">
<rect width="115" height="62" fill="white"/>
</clipPath>
</defs>
</svg>
