<svg width="31" height="40" viewBox="0 0 31 40" fill="none" xmlns="http://www.w3.org/2000/svg">
<g clip-path="url(#clip0_1490_648)">
<path d="M6.22558 6.83645L7.27285 5.23645H6.34194L5.73104 6.31281C5.70194 6.371 5.64376 6.40009 5.61467 6.40009C5.55649 6.40009 5.5274 6.371 5.49831 6.3419L4.85831 5.23645H3.9274L4.97467 6.83645C5.00376 6.89463 5.00376 6.95281 4.97467 6.9819L3.81104 8.72736H4.77103L5.46922 7.59281C5.49831 7.56372 5.55649 7.53463 5.58558 7.53463C5.64376 7.53463 5.67285 7.56372 5.70194 7.59281L6.40013 8.72736H7.36013L6.22558 7.011C6.19649 6.95281 6.19649 6.89463 6.22558 6.83645Z" fill="url(#paint0_linear_1490_648)"/>
<path d="M23.3892 14.7782H6.19646C6.02192 14.7782 5.87646 14.9237 5.87646 15.0982V35.2291C5.87646 35.4037 6.02192 35.5491 6.19646 35.5491H23.3892C23.5637 35.5491 23.7092 35.4037 23.7092 35.2291V15.1273C23.7092 14.9237 23.5637 14.7782 23.3892 14.7782ZM11.6946 34.6764C11.6946 34.7927 11.6074 34.9091 11.4619 34.9091H6.7201C6.60374 34.9091 6.48737 34.8218 6.48737 34.6764V31.7382C6.48737 31.6218 6.57465 31.5055 6.7201 31.5055H11.4619C11.5783 31.5055 11.6946 31.5927 11.6946 31.7382V34.6764ZM11.6946 30.6618C11.6946 30.7782 11.6074 30.8946 11.4619 30.8946H6.7201C6.60374 30.8946 6.48737 30.8073 6.48737 30.6618V27.7237C6.48737 27.6073 6.57465 27.4909 6.7201 27.4909H11.4619C11.5783 27.4909 11.6946 27.5782 11.6946 27.7237V30.6618ZM11.6946 26.6473C11.6946 26.7637 11.6074 26.88 11.4619 26.88H6.7201C6.60374 26.88 6.48737 26.7927 6.48737 26.6473V23.7091C6.48737 23.5927 6.57465 23.4764 6.7201 23.4764H11.4619C11.5783 23.4764 11.6946 23.5637 11.6946 23.7091V26.6473ZM11.6946 22.6037C11.6946 22.72 11.6074 22.8364 11.4619 22.8364H6.7201C6.60374 22.8364 6.48737 22.7491 6.48737 22.6037V19.6946C6.48737 19.5782 6.57465 19.4618 6.7201 19.4618H11.4619C11.5783 19.4618 11.6946 19.5491 11.6946 19.6946V22.6037ZM11.6946 18.5891C11.6946 18.7055 11.6074 18.8218 11.4619 18.8218H6.7201C6.60374 18.8218 6.48737 18.7346 6.48737 18.5891V15.68C6.48737 15.5637 6.57465 15.4473 6.7201 15.4473H11.4619C11.5783 15.4473 11.6946 15.5346 11.6946 15.68V18.5891ZM23.0401 34.6764C23.0401 34.7927 22.9528 34.9091 22.8074 34.9091H12.5965C12.4801 34.9091 12.3637 34.8218 12.3637 34.6764V31.7382C12.3637 31.6218 12.451 31.5055 12.5965 31.5055H22.8365C22.9528 31.5055 23.0692 31.5927 23.0692 31.7382V34.6764H23.0401ZM23.0401 30.6618C23.0401 30.7782 22.9528 30.8946 22.8074 30.8946H12.5965C12.4801 30.8946 12.3637 30.8073 12.3637 30.6618V27.7237C12.3637 27.6073 12.451 27.4909 12.5965 27.4909H22.8365C22.9528 27.4909 23.0692 27.5782 23.0692 27.7237V30.6618H23.0401ZM23.0401 26.6473C23.0401 26.7637 22.9528 26.88 22.8074 26.88H12.5965C12.4801 26.88 12.3637 26.7927 12.3637 26.6473V23.7091C12.3637 23.5927 12.451 23.4764 12.5965 23.4764H22.8365C22.9528 23.4764 23.0692 23.5637 23.0692 23.7091V26.6473H23.0401ZM23.0401 22.6037C23.0401 22.72 22.9528 22.8364 22.8074 22.8364H12.5965C12.4801 22.8364 12.3637 22.7491 12.3637 22.6037V19.6946C12.3637 19.5782 12.451 19.4618 12.5965 19.4618H22.8365C22.9528 19.4618 23.0692 19.5491 23.0692 19.6946V22.6037H23.0401ZM23.0401 18.5891C23.0401 18.7055 22.9528 18.8218 22.8074 18.8218H12.5965C12.4801 18.8218 12.3637 18.7346 12.3637 18.5891V15.68C12.3637 15.5637 12.451 15.4473 12.5965 15.4473H22.8365C22.9528 15.4473 23.0692 15.5346 23.0692 15.68V18.5891H23.0401Z" fill="url(#paint1_linear_1490_648)"/>
<path d="M30.72 8.20364L22.6909 0.145455C22.6909 0.145455 22.6909 0.145455 22.6909 0.116364C22.6036 0.0581818 22.5164 0 22.4291 0C22.4 0 22.4 0 22.4 0H1.16364H1.13455C0.843636 0 0.552727 0.145455 0.349091 0.349091C0.32 0.378182 0.290909 0.407273 0.261818 0.436364C0.174545 0.552727 0.0872727 0.698182 0.0581818 0.843636C0 0.930909 0 1.04727 0 1.16364V38.8073C0 39.1273 0.116364 39.4182 0.349091 39.6218C0.581818 39.8255 0.872727 39.9709 1.16364 39.9709H29.6727C29.9927 39.9709 30.2836 39.8545 30.4873 39.6218C30.6909 39.3891 30.8364 39.0982 30.8364 38.8073V8.46546C30.8364 8.37818 30.8073 8.29091 30.72 8.20364ZM22.7491 1.89091C22.7491 1.77455 22.8073 1.65818 22.9236 1.62909C22.9527 1.6 22.9818 1.6 23.04 1.6C23.1273 1.6 23.1855 1.62909 23.2436 1.68727L29.1782 7.65091C29.2655 7.73818 29.2945 7.85455 29.2364 7.97091C29.1782 8.08727 29.0909 8.14546 28.9745 8.14546H23.04C22.8945 8.14546 22.7491 8.02909 22.7491 7.85455V1.89091ZM0.698182 2.79273H10.3564C10.5018 2.79273 10.6473 2.85091 10.7345 2.93818C10.8509 3.02545 10.88 3.17091 10.88 3.31636V10.6182C10.88 10.7636 10.8218 10.88 10.7345 10.9964C10.6473 11.1127 10.5018 11.1418 10.3564 11.1418H0.698182V2.79273ZM30.1673 38.8364C30.1673 38.9527 30.1091 39.0982 30.0218 39.1855C29.9345 39.2727 29.8182 39.3309 29.6727 39.3309H1.16364C1.04727 39.3309 0.901818 39.2727 0.814545 39.1855C0.756364 39.1273 0.727273 39.0691 0.698182 38.9818C0.698182 38.9236 0.669091 38.8945 0.669091 38.8364V11.84H10.3273C10.6473 11.84 10.9673 11.7236 11.2 11.4909C11.4327 11.2582 11.5491 10.9673 11.5491 10.6182V3.34545C11.5491 3.02545 11.4327 2.70545 11.2 2.47273C10.9673 2.24 10.6764 2.12364 10.3273 2.12364H0.698182V1.16364C0.698182 1.04727 0.756364 0.901818 0.843636 0.814546C0.930909 0.727273 1.01818 0.698182 1.13455 0.669091C1.16364 0.669091 1.16364 0.669091 1.19273 0.669091H21.8182C21.9927 0.669091 22.1091 0.785455 22.1091 0.96V8.46546C22.1091 8.64 22.2545 8.81455 22.4582 8.81455H29.9055C30.0509 8.81455 30.1964 8.96 30.1964 9.10546V38.8364H30.1673Z" fill="url(#paint2_linear_1490_648)"/>
</g>
<defs>
<linearGradient id="paint0_linear_1490_648" x1="0.420229" y1="6.97998" x2="31.8814" y2="6.97998" gradientUnits="userSpaceOnUse">
<stop stop-color="#FABE3E"/>
<stop offset="0.3618" stop-color="#F63966"/>
<stop offset="1" stop-color="#007AE8"/>
</linearGradient>
<linearGradient id="paint1_linear_1490_648" x1="-0.0589242" y1="25.1766" x2="30.094" y2="25.1766" gradientUnits="userSpaceOnUse">
<stop stop-color="#FABE3E"/>
<stop offset="0.3618" stop-color="#F63966"/>
<stop offset="1" stop-color="#007AE8"/>
</linearGradient>
<linearGradient id="paint2_linear_1490_648" x1="0" y1="19.9971" x2="30.8422" y2="19.9971" gradientUnits="userSpaceOnUse">
<stop stop-color="#FABE3E"/>
<stop offset="0.3618" stop-color="#F63966"/>
<stop offset="1" stop-color="#007AE8"/>
</linearGradient>
<clipPath id="clip0_1490_648">
<rect width="30.8364" height="40" fill="white"/>
</clipPath>
</defs>
</svg>
