<svg width="41" height="32" viewBox="0 0 41 32" fill="none" xmlns="http://www.w3.org/2000/svg">
<g clip-path="url(#clip0_1492_744)">
<path d="M18.7789 8.69355C18.9633 8.87467 19.3014 8.87467 19.4858 8.69355L20.5001 7.69742L21.5143 8.69355C21.6987 8.87467 22.0368 8.87467 22.2212 8.69355C22.3134 8.60299 22.3749 8.48225 22.3749 8.36151C22.3749 8.24077 22.3134 8.12002 22.2212 8.02946L21.207 7.03333L22.2212 6.0372C22.4056 5.85609 22.4056 5.55423 22.2212 5.34293C22.0368 5.16181 21.7294 5.16181 21.5143 5.34293L20.5001 6.33906L19.4858 5.34293C19.3014 5.16181 18.9941 5.16181 18.7789 5.34293C18.5945 5.52404 18.5945 5.8259 18.7789 6.0372L19.7932 7.03333L18.7789 8.02946C18.6867 8.12002 18.6252 8.24077 18.6252 8.36151C18.656 8.48225 18.6867 8.60299 18.7789 8.69355Z" fill="url(#paint0_linear_1492_744)"/>
<path d="M19.7932 24.1486L18.7789 25.1448C18.6867 25.2353 18.6252 25.3561 18.6252 25.4768C18.6252 25.5975 18.6867 25.7183 18.7789 25.8088C18.9633 25.99 19.3014 25.99 19.4858 25.8088L20.5001 24.8127L21.5143 25.8088C21.6987 25.99 22.0368 25.99 22.2212 25.8088C22.3134 25.7183 22.3749 25.5975 22.3749 25.4768C22.3749 25.3561 22.3134 25.2353 22.2212 25.1448L21.207 24.1486L22.2212 23.1525C22.4056 22.9714 22.4056 22.6695 22.2212 22.4582C22.0368 22.2771 21.6987 22.2771 21.5143 22.4582L20.5001 23.4544L19.4858 22.4582C19.3014 22.2771 18.9633 22.2771 18.7789 22.4582C18.5945 22.6393 18.5945 22.9412 18.7789 23.1525L19.7932 24.1486Z" fill="url(#paint1_linear_1492_744)"/>
<path d="M40.8463 17.2364L38.3568 14.7913C38.1724 14.6102 37.8343 14.6102 37.6499 14.7913C37.5577 14.8819 37.4963 15.0026 37.4963 15.1234C37.4963 15.2441 37.5577 15.3649 37.6499 15.4554L39.7706 17.5382L33.8081 23.3943L27.8763 17.5986L33.8388 11.7426L35.0067 12.8896C35.1912 13.0707 35.4985 13.0707 35.7136 12.8896C35.8058 12.7991 35.8673 12.6783 35.8673 12.5576C35.8673 12.4368 35.8058 12.3161 35.7136 12.2255L34.2076 10.7464C34.0232 10.5653 33.6852 10.5653 33.5008 10.7464L30.458 13.7348L24.8951 9.9616L27.5382 7.36562C27.6304 7.27507 27.6919 7.15432 27.6919 7.03358C27.6919 6.91284 27.6304 6.79209 27.5382 6.70154L20.8381 0.151217C20.6537 -0.0298978 20.3156 -0.0298978 20.1312 0.151217L17.7031 2.5359C17.6109 2.62645 17.5495 2.7472 17.5495 2.86794C17.5495 2.98868 17.6109 3.10943 17.7031 3.19998C17.8876 3.3811 18.1949 3.3811 18.41 3.19998L20.4693 1.17753L26.4318 7.03358L20.5 12.8896L14.5375 7.03358L15.2751 6.30912C15.3673 6.21856 15.4288 6.09782 15.4288 5.97708C15.4288 5.85633 15.3673 5.73559 15.2751 5.64503C15.06 5.43373 14.7526 5.43373 14.5682 5.64503L13.4925 6.70154C13.4003 6.79209 13.3388 6.91284 13.3388 7.03358C13.3388 7.15432 13.4003 7.27507 13.4925 7.36562L16.1357 9.9616L10.542 13.6745L7.49925 10.6861C7.31484 10.5049 6.97676 10.5049 6.79235 10.6861L0.153673 17.2364C0.0614693 17.3269 0 17.4477 0 17.5986C0 17.7194 0.0614693 17.8401 0.153673 17.9307L6.82309 24.481C7.0075 24.6621 7.34558 24.6621 7.52999 24.481L14.0457 18.0816H19.3321L13.4925 23.8169C13.4003 23.9074 13.3388 24.0282 13.3388 24.1489C13.3388 24.2697 13.4003 24.3904 13.4925 24.481L20.1619 31.0313C20.3463 31.2124 20.6844 31.2124 20.8688 31.0313L27.5382 24.481C27.6304 24.3904 27.6919 24.2697 27.6919 24.1489C27.6919 24.0282 27.6304 23.9074 27.5382 23.8169L21.6987 18.0816H26.985L33.5008 24.481C33.6852 24.6621 34.0232 24.6621 34.2076 24.481L40.8771 17.9307C40.9693 17.8401 41.0307 17.7194 41.0307 17.5986C41 17.4477 40.9385 17.3269 40.8463 17.2364ZM7.16117 23.4547L1.19865 17.5986L7.16117 11.7426L13.1237 17.5986L7.16117 23.4547ZM14.0457 17.1156L11.2489 14.3687L16.8118 10.6559L20.0082 13.7952V17.1156H14.0457ZM26.4625 24.1489L20.5 30.005L14.5375 24.1489L20.5 18.2929L26.4625 24.1489ZM20.9918 17.1156V13.7952L24.1882 10.6559L29.7511 14.3687L26.9543 17.1156H20.9918Z" fill="url(#paint2_linear_1492_744)"/>
<path d="M33.8389 15.0325C32.3944 15.0325 31.2264 16.1796 31.2264 17.5983C31.2264 19.0171 32.3944 20.1641 33.8389 20.1641C35.2834 20.1641 36.4513 19.0171 36.4513 17.5983C36.4513 16.1796 35.2834 15.0325 33.8389 15.0325ZM33.8389 19.168C32.9476 19.168 32.21 18.4435 32.21 17.5681C32.21 16.6928 32.9476 15.9683 33.8389 15.9683C34.7302 15.9683 35.4678 16.6928 35.4678 17.5681C35.4678 18.4435 34.7302 19.168 33.8389 19.168Z" fill="url(#paint3_linear_1492_744)"/>
<path d="M7.16115 20.134C8.60568 20.134 9.77359 18.9869 9.77359 17.5682C9.77359 16.1494 8.60568 15.0024 7.16115 15.0024C5.71662 15.0024 4.54871 16.1494 4.54871 17.5682C4.54871 18.9869 5.71662 20.134 7.16115 20.134ZM7.16115 15.9985C8.05245 15.9985 8.79009 16.723 8.79009 17.5984C8.79009 18.4737 8.05245 19.1982 7.16115 19.1982C6.26985 19.1982 5.53221 18.4737 5.53221 17.5984C5.53221 16.723 6.26985 15.9985 7.16115 15.9985Z" fill="url(#paint4_linear_1492_744)"/>
</g>
<defs>
<linearGradient id="paint0_linear_1492_744" x1="0.175727" y1="7.0257" x2="40.4263" y2="7.0257" gradientUnits="userSpaceOnUse">
<stop stop-color="#F4BB41"/>
<stop offset="0.3618" stop-color="#EA3665"/>
<stop offset="1" stop-color="#2F7AE6"/>
</linearGradient>
<linearGradient id="paint1_linear_1492_744" x1="0.768045" y1="24.1367" x2="39.7298" y2="24.1367" gradientUnits="userSpaceOnUse">
<stop stop-color="#F4BB41"/>
<stop offset="0.3618" stop-color="#EA3665"/>
<stop offset="1" stop-color="#2F7AE6"/>
</linearGradient>
<linearGradient id="paint2_linear_1492_744" x1="-0.153612" y1="15.5814" x2="41.1516" y2="15.5814" gradientUnits="userSpaceOnUse">
<stop stop-color="#F4BB41"/>
<stop offset="0.3618" stop-color="#EA3665"/>
<stop offset="1" stop-color="#2F7AE6"/>
</linearGradient>
<linearGradient id="paint3_linear_1492_744" x1="0.504776" y1="17.5862" x2="38.4134" y2="17.5862" gradientUnits="userSpaceOnUse">
<stop stop-color="#F4BB41"/>
<stop offset="0.3618" stop-color="#EA3665"/>
<stop offset="1" stop-color="#2F7AE6"/>
</linearGradient>
<linearGradient id="paint4_linear_1492_744" x1="0.636341" y1="17.5862" x2="40.1299" y2="17.5862" gradientUnits="userSpaceOnUse">
<stop stop-color="#F4BB41"/>
<stop offset="0.3618" stop-color="#EA3665"/>
<stop offset="1" stop-color="#2F7AE6"/>
</linearGradient>
<clipPath id="clip0_1492_744">
<rect width="41" height="31.1517" fill="white"/>
</clipPath>
</defs>
</svg>
