<svg width="62" height="62" viewBox="0 0 62 62" fill="none" xmlns="http://www.w3.org/2000/svg">
<g clip-path="url(#clip0_866_688)">
<path d="M53.5469 0H36.4659V29.3504H48.224C48.4464 29.3504 48.6212 29.5238 48.6212 29.7445V33.764C48.6212 33.9847 48.4464 34.1581 48.224 34.1581H41.5346V41.8031C41.5346 42.0238 41.3598 42.1971 41.1374 42.1971H37.0856C36.8631 42.1971 36.6884 42.0238 36.6884 41.8031V34.1581H34.1779C34.0349 34.1581 33.9077 34.0793 33.8442 33.9689C33.7647 33.8586 33.7647 33.701 33.8283 33.5749L34.6386 32.0301L33.7488 31.1474C33.6694 31.0686 33.6376 30.974 33.6376 30.8637V26.718C33.6376 25.2678 32.4459 24.1014 31 24.1014H29.9831C29.7606 24.1014 29.5859 23.928 29.5859 23.7073V21.7054C29.5859 21.4848 29.7606 21.3114 29.9831 21.3114H31C32.4618 21.3114 33.6376 20.1292 33.6376 18.6947V14.6752C33.6376 13.225 32.4459 12.0586 31 12.0586H29.9831C29.7606 12.0586 29.5859 11.8852 29.5859 11.6645V9.64686C29.5859 9.42618 29.7606 9.25279 29.9831 9.25279H31C32.4618 9.25279 33.6376 8.07058 33.6376 6.63616V2.61663C33.6376 1.16645 32.4459 0 31 0H6.68939C5.24346 0 4.05177 1.18221 4.05177 2.61663V6.63616C4.05177 8.08634 5.24346 9.25279 6.68939 9.25279H7.7063C7.92875 9.25279 8.10354 9.42618 8.10354 9.64686V11.6645C8.10354 11.8852 7.92875 12.0586 7.7063 12.0586H6.68939C5.22758 12.0586 4.05177 13.2408 4.05177 14.6752V18.6947C4.05177 20.1449 5.24346 21.3114 6.68939 21.3114H7.7063C7.92875 21.3114 8.10354 21.4848 8.10354 21.7054V23.7073C8.10354 23.928 7.92875 24.1014 7.7063 24.1014H6.68939C5.22758 24.1014 4.05177 25.2836 4.05177 26.718V30.8637C4.05177 30.974 4.0041 31.0686 3.94054 31.1474L3.06663 32.0143L4.19477 34.2842C4.25833 34.3945 4.24244 34.5364 4.17888 34.6467C3.52742 35.7817 3.01896 37.0112 2.6694 38.2564C2.63762 38.3825 2.54229 38.4771 2.41517 38.5244L0 39.3598V46.264L2.41517 47.0679C2.54229 47.1151 2.63762 47.2097 2.6694 47.3358C3.03485 48.5969 3.54331 49.8106 4.17888 50.9455C4.24244 51.0559 4.24244 51.1977 4.19477 51.3081L3.06663 53.5937L7.99231 58.4802L10.2804 57.361C10.3439 57.3295 10.3916 57.3137 10.4552 57.3137C10.5187 57.3137 10.5823 57.3295 10.6458 57.361C11.7899 58.0073 13.0292 58.5117 14.2845 58.8585C14.4116 58.89 14.5069 58.9846 14.5546 59.1107L15.3649 61.5066H22.3244L23.1348 59.1107C23.1825 58.9846 23.2778 58.89 23.4049 58.8585C24.6761 58.5117 25.8995 58.0073 27.0436 57.361C27.1071 57.3295 27.1707 57.3137 27.2342 57.3137C27.2978 57.3137 27.3614 57.3295 27.409 57.361L29.713 58.4802L34.6386 53.5937L33.8442 52.0332C33.7806 51.9071 33.7806 51.7652 33.8601 51.6549C33.9395 51.5445 34.0666 51.4657 34.1937 51.4657H36.6725V43.8207C36.6725 43.6 36.8473 43.4266 37.0697 43.4266H41.1215C41.3439 43.4266 41.5187 43.6 41.5187 43.8207V51.4657H56.9313V34.1581H50.2419C50.0195 34.1581 49.8447 33.9847 49.8447 33.764V29.7445C49.8447 29.5238 50.0195 29.3504 50.2419 29.3504H62V8.38583L53.5469 0ZM31 25.3309C31.7786 25.3309 32.4141 25.9614 32.4141 26.7338V28.8775C32.4141 29.0352 32.3188 29.177 32.1758 29.2401C32.1281 29.2558 32.0805 29.2716 32.0169 29.2716C31.9057 29.2716 31.8104 29.2243 31.7309 29.1613L29.713 27.1436L27.4249 28.2628C27.3614 28.2943 27.3137 28.3101 27.2501 28.3101C27.1866 28.3101 27.123 28.2943 27.0595 28.2628C25.9154 27.6165 24.6761 27.1121 23.4208 26.7653C23.2937 26.7338 23.1984 26.6392 23.1507 26.5131L22.9282 25.8511C22.8806 25.725 22.9124 25.5989 22.9759 25.4885C23.0554 25.3782 23.1666 25.3309 23.2937 25.3309H31ZM9.72424 24.1172C9.50179 24.1172 9.32701 23.9438 9.32701 23.7231V21.7212C9.32701 21.5005 9.50179 21.3271 9.72424 21.3271H27.9651C28.1876 21.3271 28.3624 21.5005 28.3624 21.7212V23.7231C28.3624 23.9438 28.1876 24.1172 27.9651 24.1172H9.72424ZM6.68939 8.03905C5.91081 8.03905 5.27524 7.40854 5.27524 6.63616V2.61663C5.27524 1.84425 5.91081 1.21374 6.68939 1.21374H31C31.7786 1.21374 32.4141 1.84425 32.4141 2.61663V6.63616C32.4141 7.40854 31.7786 8.03905 31 8.03905H6.68939ZM28.3624 9.64686V11.6645C28.3624 11.8852 28.1876 12.0586 27.9651 12.0586H9.72424C9.50179 12.0586 9.32701 11.8852 9.32701 11.6645V9.64686C9.32701 9.42618 9.50179 9.25279 9.72424 9.25279H27.9651C28.1876 9.25279 28.3624 9.44195 28.3624 9.64686ZM6.68939 20.0976C5.91081 20.0976 5.27524 19.4671 5.27524 18.6947V14.6752C5.27524 13.9028 5.91081 13.2723 6.68939 13.2723H31C31.7786 13.2723 32.4141 13.9028 32.4141 14.6752V18.6947C32.4141 19.4671 31.7786 20.0976 31 20.0976H6.68939ZM5.27524 26.7338C5.27524 25.9614 5.91081 25.3309 6.68939 25.3309H14.3957C14.5228 25.3309 14.6499 25.3939 14.7135 25.4885C14.777 25.5831 14.8088 25.725 14.7611 25.8511L14.5387 26.5131C14.491 26.6392 14.3957 26.7338 14.2686 26.7653C12.9974 27.1279 11.774 27.6323 10.6299 28.2628C10.5664 28.2943 10.5028 28.3101 10.4393 28.3101C10.3757 28.3101 10.3121 28.2943 10.2645 28.2628L7.97642 27.1436L5.95848 29.1613C5.87904 29.2401 5.7837 29.2716 5.67248 29.2716C5.62481 29.2716 5.57714 29.2558 5.51358 29.2401C5.37058 29.177 5.27524 29.0352 5.27524 28.8775V26.7338ZM32.9385 53.5621L29.6812 56.7935C29.6017 56.8723 29.5064 56.9039 29.3952 56.9039C29.3316 56.9039 29.2681 56.8881 29.2204 56.8566L27.1866 55.8635L26.9006 56.0369C25.5659 56.8408 24.104 57.4398 22.5946 57.8024L22.2609 57.8812L21.5459 60.0092C21.4982 60.1668 21.3393 60.2771 21.1645 60.2771H16.5407C16.366 60.2771 16.223 60.1668 16.1594 60.0092L15.4444 57.8812L15.1107 57.8024C13.5853 57.424 12.1394 56.8408 10.8047 56.0369L10.5187 55.8635L8.48488 56.8566C8.42132 56.8881 8.37365 56.9039 8.3101 56.9039C8.21476 56.9039 8.10354 56.8566 8.02409 56.7935L4.7509 53.5464C4.62378 53.4203 4.60789 53.2469 4.67145 53.0893L5.67248 51.0716L5.49769 50.7879C4.68734 49.4638 4.08355 48.0136 3.71809 46.5162L3.63865 46.1851L1.49359 45.4758C1.3347 45.4285 1.22348 45.2709 1.22348 45.0975V40.5105C1.22348 40.3371 1.3347 40.1953 1.49359 40.1322L3.63865 39.4229L3.71809 39.0919C4.09944 37.5786 4.68734 36.1442 5.49769 34.8201L5.67248 34.5364L4.67145 32.5188C4.592 32.3611 4.62378 32.1877 4.7509 32.0616L8.02409 28.8145C8.10354 28.7357 8.19887 28.7041 8.3101 28.7041C8.37365 28.7041 8.43721 28.7199 8.48488 28.7514L10.5187 29.7445L10.8047 29.5711C12.1394 28.7672 13.6012 28.1682 15.1107 27.8057L15.4444 27.7268L16.1594 25.5989C16.2071 25.4412 16.366 25.3309 16.5407 25.3309H21.1645C21.3393 25.3309 21.4823 25.4412 21.5459 25.5989L22.2609 27.7268L22.5946 27.8057C24.1199 28.184 25.5659 28.7672 26.9006 29.5711L27.1866 29.7445L29.2204 28.7514C29.284 28.7199 29.3316 28.7041 29.3952 28.7041C29.4905 28.7041 29.6017 28.7514 29.6812 28.8145L32.9385 32.0459C33.0656 32.172 33.0974 32.3611 33.002 32.503L32.2553 33.9374C32.1917 34.0635 32.0487 34.1423 31.9057 34.1423H28.3465C28.2353 34.1423 28.1399 34.095 28.0605 34.0162C25.6612 31.5415 22.3086 30.1228 18.8606 30.1228C11.8216 30.1228 6.0856 35.8132 6.0856 42.7961C6.0856 49.7791 11.8057 55.4852 18.8447 55.4852C22.2768 55.4852 25.6294 54.0666 28.0446 51.5918C28.124 51.513 28.2194 51.4657 28.3306 51.4657H31.9216C32.0646 51.4657 32.2076 51.5445 32.2711 51.6864L33.002 53.105C33.0815 53.2469 33.0497 53.436 32.9385 53.5621ZM8.13531 46.2167C7.96053 46.2167 7.80164 46.1063 7.75397 45.9329C7.5633 45.2394 7.4203 44.5458 7.35674 43.8522C7.34085 43.7419 7.38852 43.6316 7.45208 43.5527C7.51563 43.4739 7.62686 43.4266 7.73808 43.4266H12.3778V42.2129H7.75397C7.64275 42.2129 7.53152 42.1656 7.46797 42.0868C7.40441 42.008 7.35674 41.8976 7.37263 41.7873C7.43619 41.0937 7.5633 40.4002 7.76986 39.7066C7.81753 39.5332 7.97642 39.4229 8.1512 39.4229H12.3936V38.2091H8.92978C8.78678 38.2091 8.65966 38.1303 8.5961 38.02C8.53255 37.9096 8.51666 37.752 8.58022 37.6417C8.97745 36.8851 9.43824 36.1757 9.94669 35.561C10.0261 35.4664 10.1374 35.4191 10.2486 35.4191H14.7929C15.0154 35.4191 15.1902 35.5925 15.1902 35.8132V49.8736C15.1902 50.0943 15.0154 50.2677 14.7929 50.2677H10.2645C10.1533 50.2677 10.0261 50.2204 9.96258 50.1259C9.45413 49.5111 8.97745 48.8018 8.5961 48.0452C8.53255 47.9191 8.53255 47.7772 8.61199 47.6668C8.69144 47.5565 8.81855 47.4777 8.94567 47.4777H12.3778V46.264H8.13531V46.2167ZM12.0759 51.7337C12.1235 51.576 12.2824 51.4657 12.4572 51.4657H16.4136V43.8207C16.4136 43.6 16.5884 43.4266 16.8109 43.4266H20.8626C21.0851 43.4266 21.2599 43.6 21.2599 43.8207V51.4657H25.2322C25.407 51.4657 25.5659 51.576 25.6135 51.7337C25.6612 51.8913 25.5976 52.0804 25.4546 52.175C23.5003 53.5306 21.2122 54.2557 18.8288 54.2557C16.4613 54.2557 14.1732 53.5306 12.2189 52.175C12.0917 52.0804 12.0282 51.9071 12.0759 51.7337ZM21.2758 41.8031C21.2758 42.0238 21.101 42.1971 20.8785 42.1971H16.8268C16.6043 42.1971 16.4295 42.0238 16.4295 41.8031V34.1581H12.4572C12.2824 34.1581 12.1235 34.0477 12.0759 33.8901C12.0282 33.7325 12.0917 33.5433 12.2189 33.4488C14.1732 32.0932 16.4613 31.3681 18.8288 31.3681C21.1963 31.3681 23.4844 32.0932 25.4387 33.4488C25.5818 33.5433 25.6453 33.7325 25.5976 33.8901C25.55 34.0477 25.3911 34.1581 25.2163 34.1581H21.244V41.8031H21.2758ZM35.449 49.8421C35.449 50.0628 35.2742 50.2362 35.0518 50.2362H22.8965C22.674 50.2362 22.4992 50.0628 22.4992 49.8421V35.7817C22.4992 35.561 22.674 35.3876 22.8965 35.3876H35.0518C35.2742 35.3876 35.449 35.561 35.449 35.7817V49.8421ZM53.8965 3.04223C53.8965 2.8846 53.9918 2.74274 54.1348 2.67968C54.1825 2.66392 54.2301 2.64816 54.2937 2.64816C54.4049 2.64816 54.5003 2.69545 54.5797 2.7585L59.2194 7.36125C59.3306 7.47159 59.3624 7.64498 59.2988 7.78685C59.2353 7.92871 59.0923 8.02329 58.9334 8.02329H54.2937C54.0712 8.02329 53.8965 7.8499 53.8965 7.62922V3.04223ZM55.3106 35.3876C55.5331 35.3876 55.7078 35.561 55.7078 35.7817V49.8421C55.7078 50.0628 55.5331 50.2362 55.3106 50.2362H43.1553C42.9329 50.2362 42.7581 50.0628 42.7581 49.8421V35.7817C42.7581 35.561 42.9329 35.3876 43.1553 35.3876H55.3106ZM60.7765 27.7426C60.7765 27.9633 60.6017 28.1367 60.3793 28.1367H38.0866C37.8642 28.1367 37.6894 27.9633 37.6894 27.7426V1.60781C37.6894 1.38713 37.8642 1.21374 38.0866 1.21374H52.2758C52.4982 1.21374 52.673 1.38713 52.673 1.60781V9.25279H60.3793C60.6017 9.25279 60.7765 9.42618 60.7765 9.64686V27.7426Z" fill="url(#paint0_linear_866_688)"/>
<path d="M32.6362 38.1777H25.3271V39.3915H32.6362V38.1777Z" fill="url(#paint1_linear_866_688)"/>
<path d="M32.6362 42.197H25.3271V47.446H32.6362V42.197ZM31.3969 45.8225C31.3969 46.0432 31.2221 46.2165 30.9996 46.2165H26.9479C26.7254 46.2165 26.5506 46.0432 26.5506 45.8225V43.8206C26.5506 43.5999 26.7254 43.4265 26.9479 43.4265H30.9996C31.2221 43.4265 31.3969 43.5999 31.3969 43.8206V45.8225Z" fill="url(#paint2_linear_866_688)"/>
<path d="M52.895 38.1777H45.5859V39.3915H52.895V38.1777Z" fill="url(#paint3_linear_866_688)"/>
<path d="M52.895 42.197H45.5859V43.4108H52.895V42.197Z" fill="url(#paint4_linear_866_688)"/>
<path d="M52.895 46.2166H45.5859V47.4303H52.895V46.2166Z" fill="url(#paint5_linear_866_688)"/>
<path d="M57.9481 25.3309V24.1172H56.3274C56.105 24.1172 55.9302 23.9438 55.9302 23.7231V12.0586H50.6549V15.684C50.6549 15.9047 50.4802 16.0781 50.2577 16.0781H46.6032V19.7036C46.6032 19.9243 46.4284 20.0976 46.2059 20.0976H42.5514V23.7231C42.5514 23.9438 42.3766 24.1172 42.1542 24.1172H40.5176V25.3309H57.9481ZM51.8784 15.684V13.6664C51.8784 13.4457 52.0532 13.2723 52.2757 13.2723H54.2936C54.516 13.2723 54.6908 13.4457 54.6908 13.6664V23.7073C54.6908 23.928 54.516 24.1014 54.2936 24.1014H52.2757C52.0532 24.1014 51.8784 23.928 51.8784 23.7073V15.684ZM47.8267 19.7036V17.6859C47.8267 17.4653 48.0014 17.2919 48.2239 17.2919H50.2418C50.4643 17.2919 50.6391 17.4653 50.6391 17.6859V23.7073C50.6391 23.928 50.4643 24.1014 50.2418 24.1014H48.2239C48.0014 24.1014 47.8267 23.928 47.8267 23.7073V19.7036ZM43.7749 21.7055C43.7749 21.4848 43.9497 21.3114 44.1721 21.3114H46.1901C46.4125 21.3114 46.5873 21.4848 46.5873 21.7055V23.7073C46.5873 23.928 46.4125 24.1014 46.1901 24.1014H44.1721C43.9497 24.1014 43.7749 23.928 43.7749 23.7073V21.7055Z" fill="url(#paint6_linear_866_688)"/>
<path d="M49.8446 4.01953H40.5176V5.24903H49.8446V4.01953Z" fill="url(#paint7_linear_866_688)"/>
<path d="M49.8446 8.03906H40.5176V9.2528H49.8446V8.03906Z" fill="url(#paint8_linear_866_688)"/>
</g>
<defs>
<linearGradient id="paint0_linear_866_688" x1="-5.20088" y1="52.9477" x2="52.3859" y2="9.41118" gradientUnits="userSpaceOnUse">
<stop stop-color="#FABE3E"/>
<stop offset="0.3618" stop-color="#F63966"/>
<stop offset="1" stop-color="#007AE8"/>
</linearGradient>
<linearGradient id="paint1_linear_866_688" x1="0.255044" y1="60.165" x2="57.8418" y2="16.6285" gradientUnits="userSpaceOnUse">
<stop stop-color="#FABE3E"/>
<stop offset="0.3618" stop-color="#F63966"/>
<stop offset="1" stop-color="#007AE8"/>
</linearGradient>
<linearGradient id="paint2_linear_866_688" x1="3.17221" y1="64.0233" x2="60.7589" y2="20.4868" gradientUnits="userSpaceOnUse">
<stop stop-color="#FABE3E"/>
<stop offset="0.3618" stop-color="#F63966"/>
<stop offset="1" stop-color="#007AE8"/>
</linearGradient>
<linearGradient id="paint3_linear_866_688" x1="7.54794" y1="69.8115" x2="65.1347" y2="26.275" gradientUnits="userSpaceOnUse">
<stop stop-color="#FABE3E"/>
<stop offset="0.3618" stop-color="#F63966"/>
<stop offset="1" stop-color="#007AE8"/>
</linearGradient>
<linearGradient id="paint4_linear_866_688" x1="9.4927" y1="72.3836" x2="67.0794" y2="28.8471" gradientUnits="userSpaceOnUse">
<stop stop-color="#FABE3E"/>
<stop offset="0.3618" stop-color="#F63966"/>
<stop offset="1" stop-color="#007AE8"/>
</linearGradient>
<linearGradient id="paint5_linear_866_688" x1="11.4375" y1="74.956" x2="69.0241" y2="31.4195" gradientUnits="userSpaceOnUse">
<stop stop-color="#FABE3E"/>
<stop offset="0.3618" stop-color="#F63966"/>
<stop offset="1" stop-color="#007AE8"/>
</linearGradient>
<linearGradient id="paint6_linear_866_688" x1="-0.352439" y1="59.361" x2="57.2343" y2="15.8245" gradientUnits="userSpaceOnUse">
<stop stop-color="#FABE3E"/>
<stop offset="0.3618" stop-color="#F63966"/>
<stop offset="1" stop-color="#007AE8"/>
</linearGradient>
<linearGradient id="paint7_linear_866_688" x1="-10.441" y1="46.0166" x2="47.1457" y2="2.48007" gradientUnits="userSpaceOnUse">
<stop stop-color="#FABE3E"/>
<stop offset="0.3618" stop-color="#F63966"/>
<stop offset="1" stop-color="#007AE8"/>
</linearGradient>
<linearGradient id="paint8_linear_866_688" x1="-8.49623" y1="48.589" x2="49.0905" y2="5.0525" gradientUnits="userSpaceOnUse">
<stop stop-color="#FABE3E"/>
<stop offset="0.3618" stop-color="#F63966"/>
<stop offset="1" stop-color="#007AE8"/>
</linearGradient>
<clipPath id="clip0_866_688">
<rect width="62" height="61.5066" fill="white"/>
</clipPath>
</defs>
</svg>
