<svg width="75" height="56" viewBox="0 0 75 56" fill="none" xmlns="http://www.w3.org/2000/svg">
<g clip-path="url(#clip0_4_18)">
<path d="M44.1704 15.0281H45.9474C48.0798 15.0281 49.806 13.3019 49.806 11.1695V3.85857C49.806 1.7262 48.0798 0 45.9474 0H3.85857C1.7262 0 0 1.7262 0 3.85857V11.2203C0 13.3527 1.7262 15.0789 3.85857 15.0789H5.63554C5.83862 15.0789 6.0417 15.2312 6.0417 15.485V18.5313C6.0417 18.7344 5.88939 18.9374 5.63554 18.9374H3.85857C1.7262 18.9374 0 20.6636 0 22.796V30.1578C0 32.2901 1.7262 34.0163 3.85857 34.0163H11.6265C11.7788 34.0163 11.8803 34.0671 11.9311 34.2194C11.9819 34.3209 11.9819 34.4733 11.9311 34.5748L8.17407 41.1242C8.1233 41.1242 8.1233 41.2257 8.1233 41.3273V43.155C8.1233 43.4597 8.37715 43.7135 8.68178 43.7135C8.9864 43.7135 9.24025 43.4597 9.24025 43.155V41.5811C9.24025 41.5304 9.24025 41.4288 9.29102 41.3781L13.4542 34.1179C13.505 34.0163 13.6573 33.9148 13.7588 33.9148H23.8622C24.0653 33.9148 24.2684 34.0671 24.2684 34.3209V43.155C24.2684 43.4597 24.5222 43.7135 24.8268 43.7135C25.1315 43.7135 25.3853 43.4597 25.3853 43.155V34.3209C25.3853 34.1179 25.5376 33.9148 25.7915 33.9148H35.8948C36.0471 33.9148 36.1487 33.9655 36.1995 34.1179L40.3626 41.3781C40.4134 41.4288 40.4134 41.4796 40.4134 41.5811V43.155C40.4134 43.4597 40.6673 43.7135 40.9719 43.7135C41.2765 43.7135 41.5304 43.4597 41.5304 43.155V41.3273C41.5304 41.2257 41.4796 41.1242 41.4288 41.0227L37.8241 34.524C37.7733 34.4225 37.7733 34.2702 37.8241 34.1686C37.8749 34.0671 38.0272 33.9655 38.1287 33.9655H45.8966C48.029 33.9655 49.7552 32.2393 49.7552 30.107V22.7452C49.7552 20.6129 48.029 18.8867 45.8966 18.8867H44.1704C43.9674 18.8867 43.7643 18.7344 43.7643 18.4805V15.4343C43.7643 15.2312 43.9674 15.0281 44.1704 15.0281ZM45.9474 20.0544C47.4198 20.0544 48.6383 21.2729 48.6383 22.7452V25.4361C48.6383 25.6392 48.4859 25.8422 48.2321 25.8422H38.5857C38.281 25.8422 38.0272 26.0961 38.0272 26.4007C38.0272 26.7053 38.281 26.9592 38.5857 26.9592H48.2321C48.4352 26.9592 48.6383 27.1115 48.6383 27.3654V30.0562C48.6383 31.5286 47.4198 32.7471 45.9474 32.7471H3.85857C2.38622 32.7471 1.16772 31.5286 1.16772 30.0562V22.7452C1.16772 21.2729 2.38622 20.0544 3.85857 20.0544H45.9474ZM7.15866 18.4805V15.4343C7.15866 15.2312 7.31097 15.0281 7.56482 15.0281H42.2412C42.4442 15.0281 42.6473 15.1804 42.6473 15.4343V18.4805C42.6473 18.6836 42.495 18.8867 42.2412 18.8867H7.56482C7.36174 18.8867 7.15866 18.7344 7.15866 18.4805ZM3.85857 13.9112C2.38622 13.9112 1.16772 12.6927 1.16772 11.2203V3.85857C1.16772 2.38622 2.38622 1.16772 3.85857 1.16772H45.9474C47.4198 1.16772 48.6383 2.38622 48.6383 3.85857V6.54941C48.6383 6.75249 48.4859 6.95558 48.2321 6.95558H38.5857C38.281 6.95558 38.0272 7.20943 38.0272 7.51405C38.0272 7.81868 38.281 8.1233 38.5857 8.1233H48.2321C48.4352 8.1233 48.6383 8.27561 48.6383 8.52946V11.2203C48.6383 12.6927 47.4198 13.9112 45.9474 13.9112H3.85857V13.9112Z" fill="url(#paint0_linear_4_18)"/>
<path d="M33.7625 6.95558H31.427C31.1224 6.95558 30.8685 7.20943 30.8685 7.51406C30.8685 7.81868 31.1224 8.07254 31.427 8.07254H33.7625C34.0671 8.07254 34.3209 7.81868 34.3209 7.51406C34.3209 7.20943 34.1179 6.95558 33.7625 6.95558Z" fill="url(#paint1_linear_4_18)"/>
<path d="M8.27561 6.95558H7.2602C6.95557 6.95558 6.70172 7.20943 6.70172 7.51406C6.70172 7.81868 6.95557 8.07254 7.2602 8.07254H8.27561C8.58023 8.07254 8.83409 7.81868 8.83409 7.51406C8.83409 7.20943 8.631 6.95558 8.27561 6.95558Z" fill="url(#paint2_linear_4_18)"/>
<path d="M31.427 27.01H33.7625C34.0671 27.01 34.3209 26.7561 34.3209 26.4515C34.3209 26.1469 34.0671 25.893 33.7625 25.893H31.427C31.1224 25.893 30.8685 26.1469 30.8685 26.4515C30.8685 26.7561 31.1224 27.01 31.427 27.01Z" fill="url(#paint3_linear_4_18)"/>
<path d="M7.31096 27.01H8.32638C8.631 27.01 8.88485 26.7561 8.88485 26.4515C8.88485 26.1469 8.631 25.893 8.32638 25.893H7.31096C7.00634 25.893 6.75249 26.1469 6.75249 26.4515C6.75249 26.7561 6.95557 27.01 7.31096 27.01Z" fill="url(#paint4_linear_4_18)"/>
<path d="M27.3654 47.2167H22.3898C21.3237 47.2167 20.4606 48.0798 20.4606 49.146V54.1215C20.4606 55.1877 21.3237 56.0508 22.3898 56.0508H27.3654C28.4315 56.0508 29.2946 55.1877 29.2946 54.1215V49.146C29.2946 48.0798 28.4315 47.2167 27.3654 47.2167ZM28.1269 54.0707C28.1269 54.4769 27.7715 54.8323 27.3654 54.8323H22.3898C21.9837 54.8323 21.6283 54.4769 21.6283 54.0707V49.0952C21.6283 48.689 21.9837 48.3336 22.3898 48.3336H27.3654C27.7715 48.3336 28.1269 48.689 28.1269 49.0952V54.0707V54.0707Z" fill="url(#paint5_linear_4_18)"/>
<path d="M43.5612 47.2167H38.5857C37.5195 47.2167 36.6564 48.0798 36.6564 49.146V54.1215C36.6564 55.1877 37.5195 56.0508 38.5857 56.0508H43.5612C44.6274 56.0508 45.4905 55.1877 45.4905 54.1215V49.146C45.4905 48.0798 44.6274 47.2167 43.5612 47.2167ZM44.3228 54.0707C44.3228 54.4769 43.9674 54.8323 43.5612 54.8323H38.5857C38.1795 54.8323 37.8241 54.4769 37.8241 54.0707V49.0952C37.8241 48.689 38.1795 48.3336 38.5857 48.3336H43.5612C43.9674 48.3336 44.3228 48.689 44.3228 49.0952V54.0707Z" fill="url(#paint6_linear_4_18)"/>
<path d="M11.1695 47.2167H6.19402C5.12784 47.2167 4.26474 48.0798 4.26474 49.146V54.1215C4.26474 55.1877 5.12784 56.0508 6.19402 56.0508H11.1695C12.2357 56.0508 13.0988 55.1877 13.0988 54.1215V49.146C13.0988 48.0798 12.2357 47.2167 11.1695 47.2167ZM11.9311 54.0707C11.9311 54.4769 11.5757 54.8323 11.1695 54.8323H6.19402C5.78786 54.8323 5.43246 54.4769 5.43246 54.0707V49.0952C5.43246 48.689 5.78786 48.3336 6.19402 48.3336H11.1695C11.5757 48.3336 11.9311 48.689 11.9311 49.0952V54.0707Z" fill="url(#paint7_linear_4_18)"/>
</g>
<defs>
<linearGradient id="paint0_linear_4_18" x1="-0.380678" y1="21.8591" x2="50.1632" y2="21.8591" gradientUnits="userSpaceOnUse">
<stop stop-color="#F0BE58"/>
<stop offset="0.3618" stop-color="#E24B68"/>
<stop offset="1" stop-color="#307BDF"/>
</linearGradient>
<linearGradient id="paint1_linear_4_18" x1="0.56238" y1="7.52711" x2="46.4861" y2="7.52711" gradientUnits="userSpaceOnUse">
<stop stop-color="#F0BE58"/>
<stop offset="0.3618" stop-color="#E24B68"/>
<stop offset="1" stop-color="#307BDF"/>
</linearGradient>
<linearGradient id="paint2_linear_4_18" x1="0.562385" y1="7.52711" x2="46.4861" y2="7.52711" gradientUnits="userSpaceOnUse">
<stop stop-color="#F0BE58"/>
<stop offset="0.3618" stop-color="#E24B68"/>
<stop offset="1" stop-color="#307BDF"/>
</linearGradient>
<linearGradient id="paint3_linear_4_18" x1="0.332441" y1="26.4079" x2="49.0888" y2="26.4079" gradientUnits="userSpaceOnUse">
<stop stop-color="#F0BE58"/>
<stop offset="0.3618" stop-color="#E24B68"/>
<stop offset="1" stop-color="#307BDF"/>
</linearGradient>
<linearGradient id="paint4_linear_4_18" x1="0.33244" y1="26.4079" x2="49.0888" y2="26.4079" gradientUnits="userSpaceOnUse">
<stop stop-color="#F0BE58"/>
<stop offset="0.3618" stop-color="#E24B68"/>
<stop offset="1" stop-color="#307BDF"/>
</linearGradient>
<linearGradient id="paint5_linear_4_18" x1="0.447384" y1="51.6033" x2="50.0519" y2="51.6033" gradientUnits="userSpaceOnUse">
<stop stop-color="#F0BE58"/>
<stop offset="0.3618" stop-color="#E24B68"/>
<stop offset="1" stop-color="#307BDF"/>
</linearGradient>
<linearGradient id="paint6_linear_4_18" x1="1.02231" y1="51.6033" x2="50.5024" y2="51.6033" gradientUnits="userSpaceOnUse">
<stop stop-color="#F0BE58"/>
<stop offset="0.3618" stop-color="#E24B68"/>
<stop offset="1" stop-color="#307BDF"/>
</linearGradient>
<linearGradient id="paint7_linear_4_18" x1="-0.127477" y1="51.6033" x2="49.3141" y2="51.6033" gradientUnits="userSpaceOnUse">
<stop stop-color="#F0BE58"/>
<stop offset="0.3618" stop-color="#E24B68"/>
<stop offset="1" stop-color="#307BDF"/>
</linearGradient>
<clipPath id="clip0_4_18">
<rect width="49.806" height="56" fill="white"/>
</clipPath>
</defs>
</svg>
