<svg width="548" height="483" viewBox="0 0 548 483" fill="none" xmlns="http://www.w3.org/2000/svg">
<g clip-path="url(#clip0_725_3892)">
<path d="M450.892 108.333H25.6191C11.4701 108.333 0 119.802 0 133.948V423.993C0 438.14 11.4701 449.608 25.6191 449.608H450.892C465.042 449.608 476.512 438.14 476.512 423.993V133.948C476.512 119.802 465.042 108.333 450.892 108.333Z" fill="#E6E3F5"/>
<path d="M448.166 123.846H27.2047C23.3756 123.846 20.2715 126.95 20.2715 130.778V135.174C20.2715 139.003 23.3756 142.106 27.2047 142.106H448.166C451.995 142.106 455.099 139.003 455.099 135.174V130.778C455.099 126.95 451.995 123.846 448.166 123.846Z" fill="#FBFBFD"/>
<path d="M446.94 132.976C446.94 135.681 444.741 137.858 442.057 137.858C439.372 137.858 437.174 135.66 437.174 132.976C437.174 130.292 439.372 128.094 442.057 128.094C444.741 128.094 446.94 130.292 446.94 132.976Z" fill="#CAC3E3"/>
<path d="M430.389 132.976C430.389 135.681 428.191 137.858 425.507 137.858C422.822 137.858 420.603 135.66 420.603 132.976C420.603 130.292 422.801 128.094 425.507 128.094C428.212 128.094 430.389 130.292 430.389 132.976Z" fill="#CAC3E3"/>
<path d="M413.838 132.976C413.838 135.681 411.64 137.858 408.955 137.858C406.271 137.858 404.072 135.66 404.072 132.976C404.072 130.292 406.271 128.094 408.955 128.094C411.64 128.094 413.838 130.292 413.838 132.976Z" fill="#CAC3E3"/>
<path d="M456.812 161.824H234.885V301.479H456.812V161.824Z" fill="white"/>
<path d="M273.778 201.852H250.252C250.78 214.617 261.011 224.846 273.778 225.374V201.852Z" fill="url(#paint0_linear_725_3892)"/>
<path d="M274.391 199.781L291.471 182.705C287.095 178.668 281.261 176.195 274.835 176.195C261.582 176.195 250.802 186.657 250.252 199.781H274.391Z" fill="#E1E1FB"/>
<path d="M275.871 201.239V225.375C288.977 224.825 299.461 214.047 299.461 200.796C299.461 194.371 296.988 188.538 292.951 184.163L275.871 201.239Z" fill="#E1E1FB"/>
<path d="M273.758 236.132C272.574 236.132 271.369 236.195 270.249 236.385C259.003 237.928 250.104 246.889 248.561 258.132C248.371 259.253 248.308 260.394 248.308 261.577H257.566C257.566 260.394 257.693 259.189 257.946 258.069C259.32 251.919 264.161 247.079 270.312 245.706C271.432 245.452 272.574 245.325 273.758 245.325V236.132Z" fill="#E1E1FB"/>
<path d="M299.271 261.556C299.271 264.283 298.891 266.903 298.087 269.376C294.79 279.626 285.151 287.086 273.842 287.086C259.743 287.086 248.371 275.695 248.308 261.577H257.566C257.566 270.559 264.837 277.83 273.779 277.83C279.93 277.83 285.278 274.406 287.941 269.376C289.315 267.072 289.992 264.409 289.992 261.556C289.992 255.596 286.757 250.44 281.98 247.629C279.549 246.192 276.738 245.325 273.737 245.325V236.132C278.746 236.132 283.333 237.506 287.244 239.978C294.452 244.459 299.229 252.469 299.229 261.535L299.271 261.556Z" fill="url(#paint1_linear_725_3892)"/>
<path d="M350.171 248.665H310.918V250.461H350.171V248.665Z" fill="#E1E1FB"/>
<path d="M369.66 254.688H310.918V256.484H369.66V254.688Z" fill="#E1E1FB"/>
<path d="M369.66 260.711H310.918V262.507H369.66V260.711Z" fill="#E1E1FB"/>
<path d="M369.66 266.734H310.918V268.531H369.66V266.734Z" fill="#E1E1FB"/>
<path d="M369.66 272.736H310.918V274.533H369.66V272.736Z" fill="#E1E1FB"/>
<path d="M350.171 187.84H310.918V189.637H350.171V187.84Z" fill="#E1E1FB"/>
<path d="M369.66 193.864H310.918V195.66H369.66V193.864Z" fill="#E1E1FB"/>
<path d="M369.66 199.887H310.918V201.683H369.66V199.887Z" fill="#E1E1FB"/>
<path d="M369.66 205.91H310.918V207.707H369.66V205.91Z" fill="#E1E1FB"/>
<path d="M369.66 211.912H310.918V213.709H369.66V211.912Z" fill="#E1E1FB"/>
<path d="M388.98 187.84H382.956V274.533H388.98V187.84Z" fill="#E1E1FB"/>
<path d="M408.554 187.84H402.529V274.533H408.554V187.84Z" fill="#E1E1FB"/>
<path d="M428.106 187.84H422.082V274.533H428.106V187.84Z" fill="#E1E1FB"/>
<path d="M447.681 187.84H441.656V274.533H447.681V187.84Z" fill="#E1E1FB"/>
<path d="M388.98 248.178H382.956V274.532H388.98V248.178Z" fill="url(#paint2_linear_725_3892)"/>
<path d="M408.554 216.688H402.529V274.533H408.554V216.688Z" fill="url(#paint3_linear_725_3892)"/>
<path d="M428.106 200.795H422.082V274.554H428.106V200.795Z" fill="url(#paint4_linear_725_3892)"/>
<path d="M447.681 223.832H441.656V274.533H447.681V223.832Z" fill="url(#paint5_linear_725_3892)"/>
<path d="M456.812 315.004H234.885V426.508H456.812V315.004Z" fill="white"/>
<path d="M448.314 416.744H243.361V324.79H448.314V416.744ZM244.651 415.455H447.046V326.058H244.651V415.455Z" fill="#E1E1FB"/>
<path d="M285.574 325.423H284.284V416.089H285.574V325.423Z" fill="#E1E1FB"/>
<path d="M306.036 325.423H304.746V416.089H306.036V325.423Z" fill="#E1E1FB"/>
<path d="M326.496 325.423H325.207V416.089H326.496V325.423Z" fill="#E1E1FB"/>
<path d="M346.937 325.423H345.647V416.089H346.937V325.423Z" fill="#E1E1FB"/>
<path d="M367.399 325.423H366.109V416.089H367.399V325.423Z" fill="#E1E1FB"/>
<path d="M387.86 325.423H386.57V416.089H387.86V325.423Z" fill="#E1E1FB"/>
<path d="M447.617 339.964H243.953V341.253H447.617V339.964Z" fill="#E1E1FB"/>
<path d="M447.617 355.159H243.953V356.448H447.617V355.159Z" fill="#E1E1FB"/>
<path d="M447.617 370.333H243.953V371.623H447.617V370.333Z" fill="#E1E1FB"/>
<path d="M408.322 325.423H407.032V416.089H408.322V325.423Z" fill="#E1E1FB"/>
<path d="M428.783 325.423H427.493V416.089H428.783V325.423Z" fill="#E1E1FB"/>
<path d="M265.113 325.423H263.823V416.089H265.113V325.423Z" fill="#E1E1FB"/>
<path d="M447.617 385.529H243.953V386.818H447.617V385.529Z" fill="#E1E1FB"/>
<path d="M447.617 400.704H243.953V401.993H447.617V400.704Z" fill="#E1E1FB"/>
<path d="M252.895 348.249H249.64V415.349H252.895V348.249Z" fill="url(#paint6_linear_725_3892)"/>
<path d="M259.426 362.366H256.171V415.35H259.426V362.366Z" fill="url(#paint7_linear_725_3892)"/>
<path d="M272.468 379.21H269.213V415.349H272.468V379.21Z" fill="url(#paint8_linear_725_3892)"/>
<path d="M278.979 393.602H275.724V415.349H278.979V393.602Z" fill="url(#paint9_linear_725_3892)"/>
<path d="M375.157 391.975H371.901V415.349H375.157V391.975Z" fill="url(#paint10_linear_725_3892)"/>
<path d="M381.667 362.366H378.412V415.35H381.667V362.366Z" fill="url(#paint11_linear_725_3892)"/>
<path d="M394.709 379.21H391.454V415.349H394.709V379.21Z" fill="url(#paint12_linear_725_3892)"/>
<path d="M401.219 408.27H397.964V415.349H401.219V408.27Z" fill="url(#paint13_linear_725_3892)"/>
<path d="M353.955 357.209H350.7V415.35H353.955V357.209Z" fill="url(#paint14_linear_725_3892)"/>
<path d="M360.487 345.248H357.231V415.35H360.487V345.248Z" fill="url(#paint15_linear_725_3892)"/>
<path d="M292.021 404.465H288.766V415.349H292.021V404.465Z" fill="url(#paint16_linear_725_3892)"/>
<path d="M298.532 361.267H295.276V415.349H298.532V361.267Z" fill="url(#paint17_linear_725_3892)"/>
<path d="M313.202 393.602H309.946V415.349H313.202V393.602Z" fill="url(#paint18_linear_725_3892)"/>
<path d="M319.733 350.679H316.478V415.349H319.733V350.679Z" fill="url(#paint19_linear_725_3892)"/>
<path d="M333.578 366.445H330.323V415.349H333.578V366.445Z" fill="url(#paint20_linear_725_3892)"/>
<path d="M340.11 379.21H336.854V415.349H340.11V379.21Z" fill="url(#paint21_linear_725_3892)"/>
<path d="M415.889 403.662H412.634V415.349H415.889V403.662Z" fill="url(#paint22_linear_725_3892)"/>
<path d="M422.421 352.855H419.166V415.349H422.421V352.855Z" fill="url(#paint23_linear_725_3892)"/>
<path d="M435.463 347.699H432.208V415.349H435.463V347.699Z" fill="url(#paint24_linear_725_3892)"/>
<path d="M441.973 331.679H438.718V415.349H441.973V331.679Z" fill="url(#paint25_linear_725_3892)"/>
<path d="M217.974 315.004H19.1514V426.508H217.974V315.004Z" fill="white"/>
<path d="M186.923 415.518V330.918H185.634V415.518H164.58V330.918H163.312V415.518H142.259V330.918H140.969V415.518H119.916V330.918H118.648V415.518H97.5944V330.918H96.305V415.518H75.2516V330.918H73.9622V415.518H52.9089V330.918H51.6406V415.518H30.5873V330.918H29.2979V416.808H207.194V415.518H186.923Z" fill="#E1E1FB"/>
<path d="M64.9363 396.794C62.9705 396.794 61.3851 396.498 60.603 396.35C56.8616 395.652 54.7478 394.258 52.7186 392.905C50.8162 391.658 49.0195 390.453 45.9545 389.988C43.6082 389.629 39.8668 389.439 34.7302 391.912L34.1807 390.749C39.6554 388.129 43.6293 388.34 46.1659 388.72C49.5056 389.228 51.5137 390.559 53.4373 391.827C55.3608 393.095 57.3689 394.427 60.8567 395.082C62.0827 395.314 65.3168 395.906 68.7623 395.082C73.941 393.814 76.7101 390.01 79.6271 385.994C82.6921 381.767 85.8628 377.414 92.0351 375.194C95.5651 373.926 98.5033 373.948 99.7504 373.948C107.952 373.969 112.581 378.28 116.64 382.063C119.853 385.043 122.622 387.621 126.532 387.621C132.197 387.6 136.277 382.148 140.61 376.378C145.852 369.383 151.813 361.436 161.875 361.14C163.333 361.098 164.771 361.225 166.166 361.5C173.775 363.042 177.686 369.425 181.47 375.575C184.978 381.281 188.593 387.156 195.125 389.291C197.915 390.2 201.064 390.348 204.446 389.693L204.679 390.961C201.086 391.637 197.746 391.489 194.723 390.517C187.726 388.255 183.985 382.148 180.37 376.251C176.566 370.038 172.951 364.184 165.891 362.746C164.602 362.493 163.249 362.366 161.896 362.408C152.447 362.683 146.951 370.038 141.625 377.139C137.101 383.162 132.831 388.868 126.574 388.911C122.093 388.911 119.007 386.036 115.752 382.993C111.841 379.358 107.423 375.237 99.7293 375.216C98.5244 375.216 95.7765 375.216 92.4579 376.399C86.6449 378.491 83.6011 382.676 80.6418 386.734C77.5768 390.961 74.6809 394.934 69.0371 396.308C67.5785 396.667 66.1834 396.772 64.9363 396.772V396.794Z" fill="url(#paint26_linear_725_3892)"/>
<path d="M217.974 161.824H19.1514V301.479H217.974V161.824Z" fill="white"/>
<path d="M208.632 235.9C206.539 232.074 204.446 228.27 202.375 224.445C200.282 228.27 198.19 232.074 196.118 235.9H200.303V292.307H204.468V235.9H208.653H208.632Z" fill="url(#paint27_linear_725_3892)"/>
<path d="M186.394 241.627C184.302 237.801 182.209 233.997 180.138 230.172C178.045 233.997 175.952 237.801 173.881 241.627H178.066V292.306H182.23V241.627H186.416H186.394Z" fill="url(#paint28_linear_725_3892)"/>
<path d="M164.157 248.051C162.065 244.226 159.972 240.422 157.9 236.597C155.808 240.422 153.715 244.226 151.644 248.051H155.829V292.285H159.993V248.051H164.178H164.157Z" fill="url(#paint29_linear_725_3892)"/>
<path d="M141.941 253.948C139.849 250.123 137.756 246.318 135.685 242.493C133.592 246.318 131.499 250.123 129.428 253.948H133.613V292.306H137.777V253.948H141.963H141.941Z" fill="url(#paint30_linear_725_3892)"/>
<path d="M119.704 259.359C117.611 255.533 115.519 251.729 113.447 247.904C111.355 251.729 109.262 255.533 107.19 259.359H111.376V292.307H115.54V259.359H119.725H119.704Z" fill="url(#paint31_linear_725_3892)"/>
<path d="M35.153 251.412H28.2197V258.344H35.153V251.412Z" fill="url(#paint32_linear_725_3892)"/>
<path d="M35.153 264.367H28.2197V271.299H35.153V264.367Z" fill="url(#paint33_linear_725_3892)"/>
<path d="M94.9312 254.244H39.3174V255.533H94.9312V254.244Z" fill="#E1E1FB"/>
<path d="M94.9312 267.199H39.3174V268.488H94.9312V267.199Z" fill="#E1E1FB"/>
<path d="M98.6084 172.687H28.0078V173.976H98.6084V172.687Z" fill="#E1E1FB"/>
<path d="M98.6084 178.689H28.0078V179.978H98.6084V178.689Z" fill="#E1E1FB"/>
<path d="M98.6084 184.712H28.0078V186.002H98.6084V184.712Z" fill="#E1E1FB"/>
<path d="M98.6084 190.735H28.0078V192.025H98.6084V190.735Z" fill="#E1E1FB"/>
<path d="M98.6084 196.759H28.0078V198.048H98.6084V196.759Z" fill="#E1E1FB"/>
<path d="M98.6084 211.807H28.0078V213.096H98.6084V211.807Z" fill="#E1E1FB"/>
<path d="M98.6084 217.809H28.0078V219.098H98.6084V217.809Z" fill="#E1E1FB"/>
<path d="M98.6084 223.832H28.0078V225.121H98.6084V223.832Z" fill="#E1E1FB"/>
<path d="M98.6084 229.855H28.0078V231.144H98.6084V229.855Z" fill="#E1E1FB"/>
<path d="M98.6084 235.878H28.0078V237.168H98.6084V235.878Z" fill="#E1E1FB"/>
<path d="M188.783 192.384H210.513C210.027 180.591 200.578 171.144 188.783 170.658V192.384Z" fill="url(#paint34_linear_725_3892)"/>
<path d="M187.599 194.772L172.253 210.116C176.185 213.73 181.427 215.97 187.197 215.97C199.098 215.97 208.779 206.565 209.265 194.794H187.578L187.599 194.772Z" fill="#E1E1FB"/>
<path d="M186.289 193.462V171.778C174.515 172.264 165.108 181.944 165.108 193.842C165.108 199.612 167.328 204.853 170.964 208.784L186.31 193.441L186.289 193.462Z" fill="#E1E1FB"/>
<path d="M133.422 194.772L118.076 210.116C122.008 213.73 127.25 215.97 133.021 215.97C144.921 215.97 154.602 206.565 155.089 194.794H133.401L133.422 194.772Z" fill="#E1E1FB"/>
<path d="M132.112 193.462V171.778C120.338 172.264 110.932 181.944 110.932 193.842C110.932 199.612 113.151 204.853 116.787 208.784L132.133 193.441L132.112 193.462Z" fill="#E1E1FB"/>
<path d="M134.627 192.384H156.357C155.871 180.591 146.422 171.144 134.627 170.658V192.384Z" fill="url(#paint35_linear_725_3892)"/>
<path d="M52.4009 281.93H28.0078V283.219H52.4009V281.93Z" fill="#E1E1FB"/>
<path d="M68.191 286.452H28.0078V287.741H68.191V286.452Z" fill="#E1E1FB"/>
<path d="M112.961 308.157C112.856 307.1 111.926 306.318 110.848 306.445C109.791 306.551 109.03 307.502 109.135 308.559L111.017 327.22H67.6839L69.5652 308.559C69.6709 307.502 68.9099 306.551 67.853 306.445C66.7961 306.318 65.8449 307.1 65.7392 308.157L48.2793 480.633C48.1736 481.69 48.9346 482.641 49.9915 482.746C50.0549 482.746 50.1183 482.746 50.1817 482.746C51.1541 482.746 51.9996 482.007 52.0842 481.013L55.8256 444.134H122.812L126.553 481.013C126.659 482.007 127.483 482.746 128.455 482.746C128.519 482.746 128.582 482.746 128.646 482.746C129.703 482.641 130.463 481.69 130.358 480.633L112.898 308.157H112.961ZM63.4141 369.509H115.308L118.732 403.282H59.9897L63.4141 369.509ZM111.418 331.045L114.927 365.663H63.7945L67.3034 331.045H111.418ZM56.2483 440.309L59.6092 407.128H119.112L122.473 440.309H56.2483Z" fill="#A49DCE"/>
<path d="M354.842 77.0127C353.215 77.2663 351.819 77.4988 350.741 77.689C347.507 78.2596 346.387 78.5766 345.119 79.2318C343.745 79.9503 343.153 80.6055 343.005 80.7746C342.392 81.472 342.096 82.254 341.504 83.7968C340.553 86.3329 340.891 86.7133 340.997 86.819C341.124 86.9458 341.293 86.9458 341.335 86.9458C342.603 87.0092 343.301 82.2962 344.548 82.3174C345.182 82.3174 345.119 83.5432 346.197 84.0715C347.972 84.938 350.805 82.9303 351.122 82.7189C352.094 82.0426 352.496 81.472 353.595 81.1761C354.377 80.9648 355.096 81.0071 355.582 81.0916C355.328 79.739 355.075 78.3653 354.842 77.0127Z" fill="#F7B690"/>
<path d="M374.036 83.226C374.057 82.2538 374.078 81.3028 374.141 80.3729C368.603 81.1971 362.431 81.9157 355.519 82.444C355.265 80.2461 355.011 78.027 354.758 75.829C360.423 75.0893 367.25 73.6945 374.649 71.2852C374.881 68.0305 375.135 64.7547 375.473 61.3944C376.699 48.6505 378.517 36.8788 380.652 26.1426C381.138 26.1849 382.533 26.3962 384.034 25.6777C385.133 25.1493 385.767 24.3674 386.084 23.9658C391.622 31.6587 395.216 38.4004 397.499 43.219C402.508 53.7861 407.476 64.3955 403.713 70.947C404.094 73.462 404.432 76.1038 404.707 78.809C404.96 81.3239 405.172 83.7543 405.32 86.0791H373.993C373.993 85.1492 373.993 84.1559 374.036 83.1837V83.226Z" fill="#7283F7"/>
<path d="M401.05 104.508C398.45 107.002 395.342 107.953 391.516 108.333H349.875C350.467 117.865 350.932 127.671 351.291 137.668C351.629 147.685 351.819 157.449 351.904 167.023H342.371C338.27 149.482 334.169 130.82 330.174 111.081C328.716 103.959 326.919 94.9555 331.823 90.3905C334.825 87.622 341.187 87.2416 353.954 86.523C359.619 86.1637 364.312 86.1426 367.567 86.1426H405.341C405.827 89.2704 406.947 98.9287 401.092 104.529L401.05 104.508Z" fill="#4B4AA8"/>
<path d="M386.084 23.9871C385.767 24.3887 385.133 25.1706 384.033 25.699C382.512 26.4176 381.138 26.2062 380.651 26.1428C380.081 24.8325 379.531 23.5222 378.96 22.1907C378.686 22.6345 378.03 23.5222 376.91 23.966C376.91 23.966 375.79 24.4098 374.395 24.1139C371.372 23.4799 365.939 15.0051 367.165 8.39013C368.201 8.17878 369.427 7.7561 371.647 7.16434C376.466 5.91743 377.629 6.12877 378.051 6.34011C378.094 6.36125 378.136 6.36125 378.157 6.38238C380.165 7.6293 378.559 12.1943 379.447 12.5113C379.912 12.6592 380.313 11.518 381.222 11.5814C381.92 11.6237 382.617 12.3845 382.702 13.251C382.807 14.0963 382.237 14.7092 382.131 14.7938C381.37 15.618 380.208 15.3644 380.165 15.3644C380.609 18.4077 381.645 20.5 382.807 20.5423C383.061 20.5634 383.378 20.5 383.78 20.1618C383.907 20.1196 384.097 20.035 384.287 19.9082C384.393 19.8237 384.498 19.7814 384.562 19.6758C384.71 20.4366 384.9 21.0284 386.084 23.9871Z" fill="#F7B690"/>
<path d="M375.769 71.3276C375.642 71.3276 375.515 71.243 375.473 71.1162C375.41 70.9472 375.473 70.7569 375.663 70.6935C380.335 68.8971 385.07 67.0162 390.143 64.9239C390.904 64.6069 392.045 64.142 392.574 63.043C393.144 61.8595 392.574 60.6337 391.263 57.6326C390.925 56.8718 390.544 56.0053 390.1 55.012C389.509 53.6383 388.959 52.2434 388.431 50.8908C388.071 49.9821 385.196 42.8176 384.605 41.3171C384.541 41.148 384.605 40.9578 384.795 40.8944C384.964 40.831 385.154 40.8944 385.218 41.0846C385.809 42.5851 390.122 53.4058 390.692 54.7584C391.115 55.7517 391.517 56.6182 391.834 57.379C393.25 60.5491 393.842 61.8806 393.144 63.3177C392.51 64.628 391.178 65.1775 390.375 65.5157C385.302 67.608 380.546 69.4889 375.875 71.2853C375.832 71.2853 375.79 71.3064 375.769 71.3064V71.3276Z" fill="#556FB7"/>
<path d="M374.902 80.796C374.733 80.796 374.606 80.6692 374.585 80.5212C374.564 80.3521 374.691 80.1831 374.86 80.1619C379.172 79.5913 383.484 78.746 387.691 77.647C392.553 76.3578 397.372 74.7093 402.001 72.7438C402.17 72.6804 402.361 72.7438 402.424 72.9129C402.487 73.082 402.424 73.2722 402.255 73.3356C397.604 75.3222 392.764 76.9918 387.86 78.281C383.632 79.4011 379.278 80.2465 374.945 80.8171H374.902V80.796Z" fill="#556FB7"/>
<path d="M330.09 90.2006C329.456 90.2006 328.906 89.7357 328.822 89.0805L325.038 59.1757C324.953 58.4782 325.439 57.8231 326.158 57.7385C326.877 57.654 327.511 58.1401 327.596 58.8587L331.21 87.4954L360.169 83.9449C360.888 83.8392 361.522 84.3676 361.606 85.065C361.691 85.7624 361.184 86.4176 360.486 86.5021L330.259 90.2217C330.259 90.2217 330.153 90.2217 330.111 90.2217L330.09 90.2006Z" fill="#A49DCE"/>
<path d="M384.563 19.697C384.563 19.697 384.394 19.8449 384.288 19.9294C384.076 20.0562 383.907 20.1408 383.781 20.183C383.379 20.5212 383.062 20.5846 382.808 20.5635C381.646 20.5212 380.61 18.4289 380.166 15.3856C380.208 15.3856 381.371 15.6392 382.132 14.815C382.237 14.7304 382.808 14.1175 382.702 13.2722C382.597 12.4057 381.899 11.666 381.223 11.6026C380.335 11.518 379.912 12.6804 379.447 12.5325C378.581 12.2155 380.166 7.67162 378.158 6.40357C378.137 6.38244 378.116 6.38244 378.052 6.3613C377.608 6.14996 376.467 5.91749 371.647 7.18553C369.407 7.77729 368.181 8.22111 367.166 8.41132C366.405 8.58039 365.75 8.62266 364.904 8.51699C364.038 8.41132 361.691 8.11544 360.93 6.38244C360.55 5.51594 360.613 4.37469 361.142 3.52933C362.114 1.94426 364.376 1.94426 367.441 1.64839C375.642 0.887556 375.389 -0.591835 377.946 0.211263C383.569 1.92313 385.408 9.32008 385.683 10.4825C385.767 10.8629 387.205 17.4356 384.563 19.6547V19.697Z" fill="#1A1B75"/>
<path d="M350.487 167.002V178.922C350.487 179.197 350.234 179.429 349.959 179.429H331.506C331.252 179.429 331.041 179.26 330.998 179.027C330.956 178.858 330.998 178.668 331.125 178.541C331.167 178.499 331.231 178.457 331.273 178.436C333.598 177.379 335.522 176.597 336.896 176.048C337.741 175.688 338.481 175.413 339.136 175.16C341.736 174.167 342.751 173.68 343.427 172.434C343.871 171.609 343.871 170.489 343.829 168.27C343.829 167.826 343.808 167.404 343.808 166.981H350.53L350.487 167.002Z" fill="#F7B690"/>
<path d="M350.487 175.16V178.922C350.487 179.196 350.234 179.429 349.959 179.429H331.506C331.252 179.429 331.041 179.26 330.998 179.027C330.956 178.858 330.998 178.668 331.125 178.541C331.167 178.499 331.231 178.457 331.273 178.435C333.598 177.379 335.522 176.597 336.896 176.047C337.741 175.688 338.481 175.413 339.136 175.16H350.53H350.487Z" fill="#1A1B75"/>
<path d="M318.063 167.235C317.302 169.876 314.934 177.844 314.533 179.196C314.49 179.429 314.279 179.577 314.025 179.577H295.572C295.318 179.577 295.107 179.408 295.065 179.175C295.022 178.922 295.149 178.689 295.382 178.584C296.058 178.245 297.115 177.738 298.489 177.168C300.857 176.174 302.548 175.583 303.837 175.139C306.099 174.378 307.177 174.04 308.382 172.772C309.544 171.546 310.073 170.088 311.151 167.213H318.105L318.063 167.235Z" fill="#F7B690"/>
<path d="M315.716 175.16C315.314 176.512 314.913 177.844 314.511 179.217C314.469 179.45 314.258 179.598 314.004 179.598H295.551C295.297 179.598 295.085 179.429 295.043 179.196C295.001 178.943 295.128 178.71 295.36 178.605C296.037 178.266 297.094 177.759 298.468 177.189C300.835 176.195 302.526 175.603 303.815 175.16H315.737H315.716Z" fill="#1A1B75"/>
<path d="M335.099 134.603C329.899 145.466 324.721 156.371 319.542 167.234H309.755C316.308 147.242 322.882 127.27 329.413 107.277C329.646 108.587 329.899 109.834 330.153 111.081C331.802 119.133 333.429 126.953 335.099 134.603Z" fill="#3A3B8E"/>
<path d="M123.953 234.314L158.534 213.371C158.703 213.265 158.915 213.328 159.02 213.497C159.126 213.666 159.063 213.878 158.915 213.983L125.073 236.111C124.587 236.428 123.931 236.301 123.614 235.815C123.297 235.329 123.424 234.674 123.91 234.357H123.931L123.953 234.314Z" fill="#5683BA"/>
<path d="M126.996 238.499C128.581 236.47 128.941 234.801 128.962 233.617C129.004 231.948 128.18 230.447 129.046 229.39C129.152 229.263 129.575 228.799 130.167 228.777C130.843 228.756 131.541 229.263 131.541 229.707C131.541 230.003 131.224 230.067 131.118 230.426C130.991 230.87 131.308 231.356 131.604 231.694C134.331 229.94 137.079 228.207 139.806 226.453C139.658 228.249 139.214 229.602 138.833 230.468C137.798 232.856 136.402 233.871 133.189 237.675C132.154 238.901 131.351 239.915 130.843 240.57C129.554 239.873 128.264 239.197 126.996 238.499Z" fill="#F7B690"/>
<path d="M91.2735 238.922C91.2735 238.922 91.2523 238.753 91.2312 238.668C90.5548 238.436 89.5824 238.203 88.5044 238.415C86.0735 238.879 85.4183 241.035 83.685 241.352C82.6069 241.564 81.0216 241.077 78.6541 238.182C77.407 238.668 76.0542 238.288 75.42 237.337C74.9127 236.576 74.7014 235.244 75.568 234.484C76.3078 233.85 77.6184 233.892 78.4428 234.758C77.1111 229.58 77.872 227.53 78.9501 226.664C81.4655 224.593 86.3906 228.355 89.7938 226.643C90.0263 227.615 90.2377 229.031 90.5125 231.081C90.9564 234.293 91.1466 236.977 91.2523 238.922H91.2735Z" fill="#F7B690"/>
<path d="M84.0867 252.469C83.4737 252.807 82.3746 253.272 80.9372 253.356C79.1193 253.483 77.7031 252.955 77.0055 252.638C76.9633 251.602 76.8787 250.25 76.6885 248.644C78.5909 250.546 81.36 251.56 84.0233 251.771C84.0445 252.004 84.0445 252.236 84.0656 252.469H84.0867Z" fill="#F7B690"/>
<path d="M91.6965 243.317C91.8022 246.72 91.8234 248.453 91.0201 249.594C89.8575 251.264 87.0462 252.025 84.0446 251.771C81.3812 251.56 78.6122 250.545 76.7098 248.643C74.9342 246.868 74.4057 244.797 73.4334 240.802C73.0529 239.196 72.3765 235.963 72.5879 231.799C72.757 228.207 72.8415 226.41 74.0041 224.719C75.822 222.078 78.8024 221.38 81.7406 220.704C82.7763 220.45 90.5762 218.612 92.0136 221.422C92.7112 222.754 91.9713 225.058 90.4494 226.22C90.238 226.368 90.0478 226.537 89.8153 226.621C86.4121 228.333 81.4869 224.571 78.9715 226.643C77.8935 227.509 77.1325 229.559 78.4642 234.737C77.6398 233.87 76.3293 233.807 75.5895 234.462C74.7228 235.202 74.913 236.533 75.4415 237.315C76.0756 238.266 77.4073 238.647 78.6756 238.161C81.043 241.056 82.6284 241.542 83.7064 241.331C85.4397 240.993 86.095 238.837 88.5259 238.393C89.6039 238.182 90.5762 238.414 91.2526 238.647C91.2738 238.731 91.2738 238.795 91.2949 238.9C91.464 240.021 91.6543 241.542 91.6965 243.317Z" fill="#1A1B75"/>
<path d="M64.4282 258.788C68.846 254.899 73.3484 253.504 74.2996 253.23C76.7305 252.511 80.1548 251.919 87.3206 252.807C98.4602 254.181 100.68 256.928 105.33 256.949C110.551 256.949 117.992 253.504 127.144 237.421C128.751 238.182 130.357 238.964 131.964 239.725C130.442 242.937 124.418 255.407 116.998 263.374C113.574 267.051 111.122 268.404 109.959 268.975C105.224 271.321 103.047 270.095 100.553 271.807C96.7058 274.427 97.0229 280.683 97.4245 291.313C97.6147 296.259 97.9318 304.882 98.27 316.653H61.4055C61.3632 309.827 61.2998 303.001 61.2575 296.174C59.5665 296.808 57.1356 297.421 55.3812 296.259C54.5991 295.731 52.6333 293.998 54.0072 284.276C55.3389 274.829 56.6283 265.635 64.4071 258.788H64.4282Z" fill="#FF457C"/>
<path d="M111.989 402.733C111.904 403.05 111.63 403.261 111.291 403.261H90.9355C90.7241 403.261 90.5339 403.155 90.4071 402.986C90.2802 402.838 90.238 402.627 90.2591 402.458L91.7599 391.954H98.9468C98.6086 393.666 98.5029 394.68 98.9468 395.674C99.5175 396.921 100.659 397.533 102.773 398.4C103.005 398.506 103.259 398.59 103.513 398.696C107.233 400.175 110.023 401.317 111.608 401.929C111.925 402.077 112.073 402.415 111.989 402.733Z" fill="#F7B690"/>
<path d="M111.989 402.733C111.904 403.05 111.63 403.261 111.291 403.261H90.9355C90.7241 403.261 90.5339 403.155 90.4071 402.986C90.2802 402.838 90.238 402.627 90.2591 402.458L90.851 398.421H102.773C103.005 398.527 103.259 398.612 103.513 398.717C107.233 400.197 110.023 401.338 111.608 401.951C111.925 402.099 112.073 402.437 111.989 402.754V402.733Z" fill="#1A1B75"/>
<path d="M88.2927 439.759C88.2082 440.098 87.9334 440.288 87.6163 440.288H68.0638C67.6833 440.288 67.3662 439.971 67.3662 439.59V427.924H74.8702V428.093C74.7222 430.947 74.6588 431.728 75.145 432.658C75.9482 434.117 77.4278 434.582 79.6051 435.406C80.0067 435.554 80.4506 435.723 80.9367 435.913C82.818 436.632 85.1432 437.625 87.9122 438.956C88.187 439.104 88.3561 439.421 88.2716 439.717L88.2927 439.759Z" fill="#F7B690"/>
<path d="M88.2927 439.759C88.2082 440.098 87.9334 440.288 87.6163 440.288H68.0638C67.6833 440.288 67.3662 439.971 67.3662 439.59V435.934H80.9579C82.8391 436.653 85.1643 437.646 87.9334 438.977C88.2082 439.125 88.3773 439.442 88.2927 439.738V439.759Z" fill="#1A1B75"/>
<path d="M113.616 367.27C109.917 374.476 107.74 377.52 103.216 385.825C101.779 388.446 100.679 390.602 99.9608 391.954H90.8292C91.9073 387.453 93.0064 383.797 93.852 381.324C93.852 381.324 98.6925 366.297 99.221 361.077C99.2632 360.57 99.2632 360.042 99.2632 359.556C99.2632 357.886 99.073 356.576 99.073 356.576C99.073 356.576 98.9462 355.35 98.5657 354.082C97.1283 349.137 90.7658 343.092 90.7658 343.092C89.1805 341.57 86.8764 339.563 83.7903 337.47C81.1058 367.608 78.4424 397.787 75.7368 427.946H66.3304C64.6816 390.855 63.0329 353.765 61.4053 316.653H98.2909C101.44 321.345 112.749 338.358 116.871 347.847C117.252 348.714 117.801 350.172 118.118 352.095C118.816 355.942 117.653 359.408 113.616 367.27Z" fill="#4B4AA8"/>
</g>
<defs>
<linearGradient id="paint0_linear_725_3892" x1="240.042" y1="191.37" x2="297.213" y2="233.5" gradientUnits="userSpaceOnUse">
<stop stop-color="#2AEBEB"/>
<stop offset="0.45" stop-color="#6174FF"/>
<stop offset="0.75" stop-color="#B63CFB"/>
<stop offset="1" stop-color="#FF47E3"/>
</linearGradient>
<linearGradient id="paint1_linear_725_3892" x1="236.344" y1="240.274" x2="301.062" y2="277.142" gradientUnits="userSpaceOnUse">
<stop stop-color="#2AEBEB"/>
<stop offset="0.45" stop-color="#6174FF"/>
<stop offset="0.75" stop-color="#B63CFB"/>
<stop offset="1" stop-color="#FF47E3"/>
</linearGradient>
<linearGradient id="paint2_linear_725_3892" x1="357.591" y1="248.77" x2="464.437" y2="296.188" gradientUnits="userSpaceOnUse">
<stop stop-color="#2AEBEB"/>
<stop offset="0.45" stop-color="#6174FF"/>
<stop offset="0.75" stop-color="#B63CFB"/>
<stop offset="1" stop-color="#FF47E3"/>
</linearGradient>
<linearGradient id="paint3_linear_725_3892" x1="366.658" y1="228.376" x2="473.483" y2="275.773" gradientUnits="userSpaceOnUse">
<stop stop-color="#2AEBEB"/>
<stop offset="0.45" stop-color="#6174FF"/>
<stop offset="0.75" stop-color="#B63CFB"/>
<stop offset="1" stop-color="#FF47E3"/>
</linearGradient>
<linearGradient id="paint4_linear_725_3892" x1="372.831" y1="214.469" x2="479.655" y2="261.887" gradientUnits="userSpaceOnUse">
<stop stop-color="#2AEBEB"/>
<stop offset="0.45" stop-color="#6174FF"/>
<stop offset="0.75" stop-color="#B63CFB"/>
<stop offset="1" stop-color="#FF47E3"/>
</linearGradient>
<linearGradient id="paint5_linear_725_3892" x1="371.775" y1="216.858" x2="478.599" y2="264.254" gradientUnits="userSpaceOnUse">
<stop stop-color="#2AEBEB"/>
<stop offset="0.45" stop-color="#6174FF"/>
<stop offset="0.75" stop-color="#B63CFB"/>
<stop offset="1" stop-color="#FF47E3"/>
</linearGradient>
<linearGradient id="paint6_linear_725_3892" x1="220.977" y1="378.661" x2="462.202" y2="403.65" gradientUnits="userSpaceOnUse">
<stop stop-color="#2AEBEB"/>
<stop offset="0.45" stop-color="#6174FF"/>
<stop offset="0.75" stop-color="#B63CFB"/>
<stop offset="1" stop-color="#FF47E3"/>
</linearGradient>
<linearGradient id="paint7_linear_725_3892" x1="220.321" y1="384.98" x2="461.546" y2="409.969" gradientUnits="userSpaceOnUse">
<stop stop-color="#2AEBEB"/>
<stop offset="0.45" stop-color="#6174FF"/>
<stop offset="0.75" stop-color="#B63CFB"/>
<stop offset="1" stop-color="#FF47E3"/>
</linearGradient>
<linearGradient id="paint8_linear_725_3892" x1="219.581" y1="391.975" x2="460.826" y2="416.964" gradientUnits="userSpaceOnUse">
<stop stop-color="#2AEBEB"/>
<stop offset="0.45" stop-color="#6174FF"/>
<stop offset="0.75" stop-color="#B63CFB"/>
<stop offset="1" stop-color="#FF47E3"/>
</linearGradient>
<linearGradient id="paint9_linear_725_3892" x1="218.926" y1="398.421" x2="460.15" y2="423.41" gradientUnits="userSpaceOnUse">
<stop stop-color="#2AEBEB"/>
<stop offset="0.45" stop-color="#6174FF"/>
<stop offset="0.75" stop-color="#B63CFB"/>
<stop offset="1" stop-color="#FF47E3"/>
</linearGradient>
<linearGradient id="paint10_linear_725_3892" x1="220.026" y1="387.748" x2="461.25" y2="412.759" gradientUnits="userSpaceOnUse">
<stop stop-color="#2AEBEB"/>
<stop offset="0.45" stop-color="#6174FF"/>
<stop offset="0.75" stop-color="#B63CFB"/>
<stop offset="1" stop-color="#FF47E3"/>
</linearGradient>
<linearGradient id="paint11_linear_725_3892" x1="221.612" y1="372.447" x2="462.836" y2="397.436" gradientUnits="userSpaceOnUse">
<stop stop-color="#2AEBEB"/>
<stop offset="0.45" stop-color="#6174FF"/>
<stop offset="0.75" stop-color="#B63CFB"/>
<stop offset="1" stop-color="#FF47E3"/>
</linearGradient>
<linearGradient id="paint12_linear_725_3892" x1="220.872" y1="379.442" x2="462.117" y2="404.432" gradientUnits="userSpaceOnUse">
<stop stop-color="#2AEBEB"/>
<stop offset="0.45" stop-color="#6174FF"/>
<stop offset="0.75" stop-color="#B63CFB"/>
<stop offset="1" stop-color="#FF47E3"/>
</linearGradient>
<linearGradient id="paint13_linear_725_3892" x1="219.455" y1="393.137" x2="460.7" y2="418.148" gradientUnits="userSpaceOnUse">
<stop stop-color="#2AEBEB"/>
<stop offset="0.45" stop-color="#6174FF"/>
<stop offset="0.75" stop-color="#B63CFB"/>
<stop offset="1" stop-color="#FF47E3"/>
</linearGradient>
<linearGradient id="paint14_linear_725_3892" x1="221.59" y1="372.722" x2="462.814" y2="397.732" gradientUnits="userSpaceOnUse">
<stop stop-color="#2AEBEB"/>
<stop offset="0.45" stop-color="#6174FF"/>
<stop offset="0.75" stop-color="#B63CFB"/>
<stop offset="1" stop-color="#FF47E3"/>
</linearGradient>
<linearGradient id="paint15_linear_725_3892" x1="222.267" y1="366.149" x2="463.49" y2="391.138" gradientUnits="userSpaceOnUse">
<stop stop-color="#2AEBEB"/>
<stop offset="0.45" stop-color="#6174FF"/>
<stop offset="0.75" stop-color="#B63CFB"/>
<stop offset="1" stop-color="#FF47E3"/>
</linearGradient>
<linearGradient id="paint16_linear_725_3892" x1="218.504" y1="402.458" x2="459.727" y2="427.468" gradientUnits="userSpaceOnUse">
<stop stop-color="#2AEBEB"/>
<stop offset="0.45" stop-color="#6174FF"/>
<stop offset="0.75" stop-color="#B63CFB"/>
<stop offset="1" stop-color="#FF47E3"/>
</linearGradient>
<linearGradient id="paint17_linear_725_3892" x1="220.787" y1="380.436" x2="462.01" y2="405.425" gradientUnits="userSpaceOnUse">
<stop stop-color="#2AEBEB"/>
<stop offset="0.45" stop-color="#6174FF"/>
<stop offset="0.75" stop-color="#B63CFB"/>
<stop offset="1" stop-color="#FF47E3"/>
</linearGradient>
<linearGradient id="paint18_linear_725_3892" x1="219.286" y1="394.912" x2="460.51" y2="419.901" gradientUnits="userSpaceOnUse">
<stop stop-color="#2AEBEB"/>
<stop offset="0.45" stop-color="#6174FF"/>
<stop offset="0.75" stop-color="#B63CFB"/>
<stop offset="1" stop-color="#FF47E3"/>
</linearGradient>
<linearGradient id="paint19_linear_725_3892" x1="221.548" y1="373.018" x2="462.771" y2="398.007" gradientUnits="userSpaceOnUse">
<stop stop-color="#2AEBEB"/>
<stop offset="0.45" stop-color="#6174FF"/>
<stop offset="0.75" stop-color="#B63CFB"/>
<stop offset="1" stop-color="#FF47E3"/>
</linearGradient>
<linearGradient id="paint20_linear_725_3892" x1="220.893" y1="379.379" x2="462.117" y2="404.389" gradientUnits="userSpaceOnUse">
<stop stop-color="#2AEBEB"/>
<stop offset="0.45" stop-color="#6174FF"/>
<stop offset="0.75" stop-color="#B63CFB"/>
<stop offset="1" stop-color="#FF47E3"/>
</linearGradient>
<linearGradient id="paint21_linear_725_3892" x1="220.301" y1="385.043" x2="461.524" y2="410.032" gradientUnits="userSpaceOnUse">
<stop stop-color="#2AEBEB"/>
<stop offset="0.45" stop-color="#6174FF"/>
<stop offset="0.75" stop-color="#B63CFB"/>
<stop offset="1" stop-color="#FF47E3"/>
</linearGradient>
<linearGradient id="paint22_linear_725_3892" x1="219.857" y1="389.375" x2="461.081" y2="414.365" gradientUnits="userSpaceOnUse">
<stop stop-color="#2AEBEB"/>
<stop offset="0.45" stop-color="#6174FF"/>
<stop offset="0.75" stop-color="#B63CFB"/>
<stop offset="1" stop-color="#FF47E3"/>
</linearGradient>
<linearGradient id="paint23_linear_725_3892" x1="222.542" y1="363.57" x2="463.766" y2="388.56" gradientUnits="userSpaceOnUse">
<stop stop-color="#2AEBEB"/>
<stop offset="0.45" stop-color="#6174FF"/>
<stop offset="0.75" stop-color="#B63CFB"/>
<stop offset="1" stop-color="#FF47E3"/>
</linearGradient>
<linearGradient id="paint24_linear_725_3892" x1="222.944" y1="359.682" x2="464.167" y2="384.671" gradientUnits="userSpaceOnUse">
<stop stop-color="#2AEBEB"/>
<stop offset="0.45" stop-color="#6174FF"/>
<stop offset="0.75" stop-color="#B63CFB"/>
<stop offset="1" stop-color="#FF47E3"/>
</linearGradient>
<linearGradient id="paint25_linear_725_3892" x1="223.831" y1="351.08" x2="465.055" y2="376.069" gradientUnits="userSpaceOnUse">
<stop stop-color="#2AEBEB"/>
<stop offset="0.45" stop-color="#6174FF"/>
<stop offset="0.75" stop-color="#B63CFB"/>
<stop offset="1" stop-color="#FF47E3"/>
</linearGradient>
<linearGradient id="paint26_linear_725_3892" x1="34.1384" y1="378.956" x2="204.679" y2="378.956" gradientUnits="userSpaceOnUse">
<stop stop-color="#2AEBEB"/>
<stop offset="0.45" stop-color="#6174FF"/>
<stop offset="0.75" stop-color="#B63CFB"/>
<stop offset="1" stop-color="#FF47E3"/>
</linearGradient>
<linearGradient id="paint27_linear_725_3892" x1="102.012" y1="224.403" x2="203.196" y2="259.031" gradientUnits="userSpaceOnUse">
<stop stop-color="#2AEBEB"/>
<stop offset="0.45" stop-color="#6174FF"/>
<stop offset="0.75" stop-color="#B63CFB"/>
<stop offset="1" stop-color="#FF47E3"/>
</linearGradient>
<linearGradient id="paint28_linear_725_3892" x1="98.799" y1="233.786" x2="200.004" y2="268.393" gradientUnits="userSpaceOnUse">
<stop stop-color="#2AEBEB"/>
<stop offset="0.45" stop-color="#6174FF"/>
<stop offset="0.75" stop-color="#B63CFB"/>
<stop offset="1" stop-color="#FF47E3"/>
</linearGradient>
<linearGradient id="paint29_linear_725_3892" x1="95.4802" y1="243.465" x2="196.685" y2="278.073" gradientUnits="userSpaceOnUse">
<stop stop-color="#2AEBEB"/>
<stop offset="0.45" stop-color="#6174FF"/>
<stop offset="0.75" stop-color="#B63CFB"/>
<stop offset="1" stop-color="#FF47E3"/>
</linearGradient>
<linearGradient id="paint30_linear_725_3892" x1="92.2673" y1="252.912" x2="193.451" y2="287.52" gradientUnits="userSpaceOnUse">
<stop stop-color="#2AEBEB"/>
<stop offset="0.45" stop-color="#6174FF"/>
<stop offset="0.75" stop-color="#B63CFB"/>
<stop offset="1" stop-color="#FF47E3"/>
</linearGradient>
<linearGradient id="paint31_linear_725_3892" x1="89.0964" y1="262.127" x2="190.301" y2="296.756" gradientUnits="userSpaceOnUse">
<stop stop-color="#2AEBEB"/>
<stop offset="0.45" stop-color="#6174FF"/>
<stop offset="0.75" stop-color="#B63CFB"/>
<stop offset="1" stop-color="#FF47E3"/>
</linearGradient>
<linearGradient id="paint32_linear_725_3892" x1="22.3011" y1="236.217" x2="49.7515" y2="290.768" gradientUnits="userSpaceOnUse">
<stop stop-color="#2AEBEB"/>
<stop offset="0.45" stop-color="#6174FF"/>
<stop offset="0.75" stop-color="#B63CFB"/>
<stop offset="1" stop-color="#FF47E3"/>
</linearGradient>
<linearGradient id="paint33_linear_725_3892" x1="17.1012" y1="238.837" x2="44.5516" y2="293.388" gradientUnits="userSpaceOnUse">
<stop stop-color="#2AEBEB"/>
<stop offset="0.45" stop-color="#6174FF"/>
<stop offset="0.75" stop-color="#B63CFB"/>
<stop offset="1" stop-color="#FF47E3"/>
</linearGradient>
<linearGradient id="paint34_linear_725_3892" x1="177.622" y1="201.007" x2="212.22" y2="170.399" gradientUnits="userSpaceOnUse">
<stop stop-color="#2AEBEB"/>
<stop offset="0.45" stop-color="#6174FF"/>
<stop offset="0.75" stop-color="#B63CFB"/>
<stop offset="1" stop-color="#FF47E3"/>
</linearGradient>
<linearGradient id="paint35_linear_725_3892" x1="130.463" y1="195.449" x2="158.043" y2="169.871" gradientUnits="userSpaceOnUse">
<stop stop-color="#2AEBEB"/>
<stop offset="0.45" stop-color="#6174FF"/>
<stop offset="0.75" stop-color="#B63CFB"/>
<stop offset="1" stop-color="#FF47E3"/>
</linearGradient>
<clipPath id="clip0_725_3892">
<rect width="548" height="483" fill="white"/>
</clipPath>
</defs>
</svg>
