<svg width="217" height="218" viewBox="0 0 217 218" fill="none" xmlns="http://www.w3.org/2000/svg">
<path opacity="0.25" d="M108.473 22.4855C131.456 22.4855 153.074 31.4797 169.342 47.8229C185.61 64.166 194.563 85.8838 194.563 108.973C194.563 132.061 185.61 153.779 169.342 170.122C153.074 186.465 131.456 195.46 108.473 195.46C85.4898 195.46 63.8717 186.52 47.6035 170.177C31.3353 153.834 22.3824 132.116 22.3824 108.973C22.3824 85.8289 31.3353 64.166 47.6035 47.8229C63.8717 31.4797 85.4898 22.4855 108.473 22.4855ZM108.473 0C48.5862 0 0 48.8101 0 108.973C0 169.135 48.5862 217.945 108.473 217.945C168.359 217.945 216.945 169.135 216.945 108.973C216.945 48.8101 168.414 0 108.473 0Z" fill="white"/>
<path d="M83.0066 59.446C83.0066 60.0007 82.9199 60.5033 82.7466 60.954C82.5733 61.4047 82.2959 61.8033 81.9146 62.15C81.5506 62.4793 81.0653 62.7393 80.4586 62.93C79.8519 63.1033 79.1239 63.19 78.2746 63.19H69.2266L68.1606 69.456C68.8713 69.3347 69.5559 69.248 70.2146 69.196C70.8733 69.1267 71.5146 69.092 72.1386 69.092C74.1319 69.092 75.8913 69.3953 77.4166 70.002C78.9419 70.6087 80.2246 71.4407 81.2646 72.498C82.3046 73.538 83.0846 74.7687 83.6046 76.19C84.1419 77.594 84.4106 79.102 84.4106 80.714C84.4106 82.742 84.0466 84.5967 83.3186 86.278C82.6079 87.942 81.6113 89.3807 80.3286 90.594C79.0459 91.8073 77.5119 92.752 75.7266 93.428C73.9586 94.0867 72.0173 94.416 69.9026 94.416C68.6719 94.416 67.4933 94.286 66.3666 94.026C65.2573 93.766 64.2086 93.4193 63.2206 92.986C62.2499 92.5353 61.3486 92.024 60.5166 91.452C59.6846 90.8627 58.9306 90.2387 58.2546 89.58L60.7506 86.252C61.0106 85.9053 61.3139 85.6453 61.6606 85.472C62.0073 85.2813 62.3799 85.186 62.7786 85.186C63.2986 85.186 63.7839 85.3333 64.2346 85.628C64.7026 85.9053 65.2053 86.2173 65.7426 86.564C66.2973 86.8933 66.9386 87.1967 67.6666 87.474C68.3946 87.7513 69.2959 87.89 70.3706 87.89C71.4453 87.89 72.3639 87.7167 73.1266 87.37C73.8893 87.006 74.5046 86.5207 74.9726 85.914C75.4579 85.29 75.8046 84.5707 76.0126 83.756C76.2379 82.924 76.3506 82.04 76.3506 81.104C76.3506 79.2667 75.8306 77.8713 74.7906 76.918C73.7506 75.9473 72.2773 75.462 70.3706 75.462C68.6719 75.462 67.0079 75.7827 65.3786 76.424L60.3866 75.072L63.6106 56.118H83.0066V59.446ZM102.875 55.702C104.747 55.702 106.428 55.9793 107.919 56.534C109.427 57.0713 110.709 57.8253 111.767 58.796C112.824 59.7667 113.63 60.928 114.185 62.28C114.757 63.6147 115.043 65.088 115.043 66.7C115.043 68.0867 114.843 69.3693 114.445 70.548C114.063 71.7267 113.535 72.8533 112.859 73.928C112.183 74.9853 111.394 76.0167 110.493 77.022C109.609 78.01 108.664 79.0153 107.659 80.038L100.249 87.63C101.202 87.3527 102.138 87.136 103.057 86.98C103.993 86.8067 104.868 86.72 105.683 86.72H112.755C113.621 86.72 114.306 86.9627 114.809 87.448C115.311 87.916 115.563 88.54 115.563 89.32V94H88.9387V91.4C88.9387 90.8973 89.0427 90.36 89.2507 89.788C89.4587 89.216 89.8227 88.696 90.3427 88.228L101.263 77.23C102.199 76.294 103.013 75.4013 103.707 74.552C104.4 73.7027 104.972 72.8707 105.423 72.056C105.873 71.224 106.211 70.4007 106.437 69.586C106.662 68.754 106.775 67.8787 106.775 66.96C106.775 65.452 106.411 64.2993 105.683 63.502C104.972 62.6873 103.88 62.28 102.407 62.28C101.8 62.28 101.245 62.3667 100.743 62.54C100.24 62.7133 99.7893 62.9473 99.3907 63.242C98.992 63.5367 98.6453 63.8833 98.3507 64.282C98.0733 64.6807 97.848 65.114 97.6747 65.582C97.3973 66.362 97.042 66.9253 96.6087 67.272C96.1927 67.6187 95.6207 67.792 94.8927 67.792C94.7193 67.792 94.5287 67.7833 94.3207 67.766C94.13 67.7487 93.9307 67.7227 93.7227 67.688L89.4587 66.934C89.736 65.0447 90.2647 63.398 91.0447 61.994C91.842 60.59 92.8213 59.42 93.9827 58.484C95.1613 57.548 96.5047 56.8547 98.0127 56.404C99.5207 55.936 101.141 55.702 102.875 55.702ZM136.835 65.296C136.835 66.6827 136.583 67.948 136.081 69.092C135.578 70.236 134.911 71.224 134.079 72.056C133.247 72.8707 132.276 73.5033 131.167 73.954C130.075 74.4047 128.931 74.63 127.735 74.63C126.417 74.63 125.204 74.4047 124.095 73.954C123.003 73.5033 122.049 72.8707 121.235 72.056C120.437 71.224 119.813 70.236 119.363 69.092C118.912 67.948 118.687 66.6827 118.687 65.296C118.687 63.8573 118.912 62.5573 119.363 61.396C119.813 60.2173 120.437 59.212 121.235 58.38C122.049 57.548 123.003 56.9067 124.095 56.456C125.204 55.988 126.417 55.754 127.735 55.754C129.052 55.754 130.265 55.988 131.375 56.456C132.501 56.9067 133.463 57.548 134.261 58.38C135.075 59.212 135.708 60.2173 136.159 61.396C136.609 62.5573 136.835 63.8573 136.835 65.296ZM130.647 65.296C130.647 64.412 130.569 63.684 130.413 63.112C130.274 62.5227 130.075 62.0547 129.815 61.708C129.555 61.3613 129.243 61.1187 128.879 60.98C128.532 60.8413 128.151 60.772 127.735 60.772C127.319 60.772 126.937 60.8413 126.591 60.98C126.244 61.1187 125.949 61.3613 125.707 61.708C125.464 62.0547 125.273 62.5227 125.135 63.112C124.996 63.684 124.927 64.412 124.927 65.296C124.927 66.128 124.996 66.8213 125.135 67.376C125.273 67.9307 125.464 68.3727 125.707 68.702C125.949 69.0313 126.244 69.2653 126.591 69.404C126.937 69.5427 127.319 69.612 127.735 69.612C128.151 69.612 128.532 69.5427 128.879 69.404C129.243 69.2653 129.555 69.0313 129.815 68.702C130.075 68.3727 130.274 67.9307 130.413 67.376C130.569 66.8213 130.647 66.128 130.647 65.296ZM148.743 57.314C149.003 57.0193 149.323 56.7507 149.705 56.508C150.086 56.248 150.615 56.118 151.291 56.118H157.167L128.619 92.856C128.359 93.1853 128.029 93.4627 127.631 93.688C127.249 93.896 126.781 94 126.227 94H120.195L148.743 57.314ZM158.623 85.108C158.623 86.4947 158.371 87.7687 157.869 88.93C157.366 90.074 156.699 91.062 155.867 91.894C155.035 92.7087 154.064 93.3413 152.955 93.792C151.863 94.2427 150.719 94.468 149.523 94.468C148.205 94.468 146.992 94.2427 145.883 93.792C144.791 93.3413 143.837 92.7087 143.023 91.894C142.225 91.062 141.601 90.074 141.151 88.93C140.7 87.7687 140.475 86.4947 140.475 85.108C140.475 83.6693 140.7 82.3693 141.151 81.208C141.601 80.0293 142.225 79.024 143.023 78.192C143.837 77.36 144.791 76.7187 145.883 76.268C146.992 75.8 148.205 75.566 149.523 75.566C150.84 75.566 152.053 75.8 153.163 76.268C154.289 76.7187 155.251 77.36 156.049 78.192C156.863 79.024 157.496 80.0293 157.947 81.208C158.397 82.3693 158.623 83.6693 158.623 85.108ZM152.435 85.108C152.435 84.2413 152.357 83.522 152.201 82.95C152.062 82.3607 151.863 81.8927 151.603 81.546C151.343 81.1993 151.031 80.9567 150.667 80.818C150.32 80.6793 149.939 80.61 149.523 80.61C149.107 80.61 148.725 80.6793 148.379 80.818C148.032 80.9567 147.737 81.1993 147.495 81.546C147.252 81.8927 147.061 82.3607 146.923 82.95C146.784 83.522 146.715 84.2413 146.715 85.108C146.715 85.94 146.784 86.6333 146.923 87.188C147.061 87.7427 147.252 88.1847 147.495 88.514C147.737 88.8433 148.032 89.0773 148.379 89.216C148.725 89.3547 149.107 89.424 149.523 89.424C149.939 89.424 150.32 89.3547 150.667 89.216C151.031 89.0773 151.343 88.8433 151.603 88.514C151.863 88.1847 152.062 87.7427 152.201 87.188C152.357 86.6333 152.435 85.94 152.435 85.108Z" fill="#EEF8FF"/>
<path d="M66.2078 112.536V113.84H62.5038V124H60.9518V113.84H57.2318V112.536H66.2078ZM67.6133 124V112.216H69.0373V116.984C69.384 116.616 69.768 116.323 70.1893 116.104C70.6106 115.88 71.096 115.768 71.6453 115.768C72.088 115.768 72.4773 115.843 72.8133 115.992C73.1546 116.136 73.4373 116.344 73.6613 116.616C73.8906 116.883 74.064 117.205 74.1813 117.584C74.2986 117.963 74.3573 118.381 74.3573 118.84V124H72.9333V118.84C72.9333 118.227 72.792 117.752 72.5093 117.416C72.232 117.075 71.8053 116.904 71.2293 116.904C70.808 116.904 70.4133 117.005 70.0453 117.208C69.6826 117.411 69.3466 117.685 69.0373 118.032V124H67.6133ZM79.7119 115.768C80.1973 115.768 80.6453 115.851 81.0559 116.016C81.4666 116.176 81.8213 116.411 82.1199 116.72C82.4186 117.024 82.6506 117.403 82.8159 117.856C82.9866 118.304 83.0719 118.816 83.0719 119.392C83.0719 119.616 83.0479 119.765 82.9999 119.84C82.9519 119.915 82.8613 119.952 82.7279 119.952H77.3359C77.3466 120.464 77.4159 120.909 77.5439 121.288C77.6719 121.667 77.8479 121.984 78.0719 122.24C78.2959 122.491 78.5626 122.68 78.8719 122.808C79.1813 122.931 79.5279 122.992 79.9119 122.992C80.2693 122.992 80.5759 122.952 80.8319 122.872C81.0933 122.787 81.3173 122.696 81.5039 122.6C81.6906 122.504 81.8453 122.416 81.9679 122.336C82.0959 122.251 82.2053 122.208 82.2959 122.208C82.4133 122.208 82.5039 122.253 82.5679 122.344L82.9679 122.864C82.7919 123.077 82.5813 123.264 82.3359 123.424C82.0906 123.579 81.8266 123.707 81.5439 123.808C81.2666 123.909 80.9786 123.984 80.6799 124.032C80.3813 124.085 80.0853 124.112 79.7919 124.112C79.2319 124.112 78.7146 124.019 78.2399 123.832C77.7706 123.64 77.3626 123.363 77.0159 123C76.6746 122.632 76.4079 122.179 76.2159 121.64C76.0239 121.101 75.9279 120.483 75.9279 119.784C75.9279 119.219 76.0133 118.691 76.1839 118.2C76.3599 117.709 76.6106 117.285 76.9359 116.928C77.2613 116.565 77.6586 116.283 78.1279 116.08C78.5973 115.872 79.1253 115.768 79.7119 115.768ZM79.7439 116.816C79.0559 116.816 78.5146 117.016 78.1199 117.416C77.7253 117.811 77.4799 118.36 77.3839 119.064H81.7919C81.7919 118.733 81.7466 118.432 81.6559 118.16C81.5653 117.883 81.4319 117.645 81.2559 117.448C81.0799 117.245 80.8639 117.091 80.6079 116.984C80.3573 116.872 80.0693 116.816 79.7439 116.816ZM94.0843 114.328C94.0363 114.408 93.9856 114.469 93.9323 114.512C93.879 114.549 93.8096 114.568 93.7243 114.568C93.6336 114.568 93.527 114.523 93.4043 114.432C93.287 114.341 93.135 114.243 92.9483 114.136C92.767 114.024 92.5456 113.923 92.2843 113.832C92.0283 113.741 91.7163 113.696 91.3483 113.696C91.0016 113.696 90.695 113.744 90.4283 113.84C90.1616 113.931 89.9376 114.056 89.7563 114.216C89.5803 114.376 89.447 114.565 89.3563 114.784C89.2656 114.997 89.2203 115.229 89.2203 115.48C89.2203 115.8 89.2976 116.067 89.4523 116.28C89.6123 116.488 89.8203 116.667 90.0763 116.816C90.3376 116.965 90.631 117.096 90.9563 117.208C91.287 117.315 91.623 117.427 91.9643 117.544C92.311 117.661 92.647 117.795 92.9723 117.944C93.303 118.088 93.5963 118.272 93.8523 118.496C94.1136 118.72 94.3216 118.995 94.4763 119.32C94.6363 119.645 94.7163 120.045 94.7163 120.52C94.7163 121.021 94.631 121.493 94.4603 121.936C94.2896 122.373 94.039 122.755 93.7083 123.08C93.383 123.405 92.9803 123.661 92.5003 123.848C92.0256 124.035 91.4843 124.128 90.8763 124.128C90.135 124.128 89.4576 123.995 88.8443 123.728C88.2363 123.456 87.7163 123.091 87.2843 122.632L87.7323 121.896C87.775 121.837 87.8256 121.789 87.8843 121.752C87.9483 121.709 88.0176 121.688 88.0923 121.688C88.2043 121.688 88.3323 121.749 88.4763 121.872C88.6203 121.989 88.799 122.12 89.0123 122.264C89.231 122.408 89.4923 122.541 89.7963 122.664C90.1056 122.781 90.4816 122.84 90.9243 122.84C91.2923 122.84 91.6203 122.789 91.9083 122.688C92.1963 122.587 92.439 122.445 92.6363 122.264C92.839 122.077 92.9936 121.856 93.1003 121.6C93.207 121.344 93.2603 121.059 93.2603 120.744C93.2603 120.397 93.1803 120.115 93.0203 119.896C92.8656 119.672 92.6603 119.485 92.4043 119.336C92.1483 119.187 91.855 119.061 91.5243 118.96C91.199 118.853 90.863 118.747 90.5163 118.64C90.175 118.528 89.839 118.4 89.5083 118.256C89.183 118.112 88.8923 117.925 88.6363 117.696C88.3803 117.467 88.1723 117.181 88.0123 116.84C87.8576 116.493 87.7803 116.067 87.7803 115.56C87.7803 115.155 87.8576 114.763 88.0123 114.384C88.1723 114.005 88.4016 113.669 88.7003 113.376C88.999 113.083 89.367 112.848 89.8043 112.672C90.247 112.496 90.7536 112.408 91.3243 112.408C91.9643 112.408 92.5483 112.509 93.0763 112.712C93.6043 112.915 94.0656 113.208 94.4603 113.592L94.0843 114.328ZM98.9287 124.128C98.2887 124.128 97.7954 123.949 97.4487 123.592C97.1074 123.235 96.9367 122.72 96.9367 122.048V117.088H95.9607C95.8754 117.088 95.8034 117.064 95.7447 117.016C95.686 116.963 95.6567 116.883 95.6567 116.776V116.208L96.9847 116.04L97.3127 113.536C97.3234 113.456 97.358 113.392 97.4167 113.344C97.4754 113.291 97.55 113.264 97.6407 113.264H98.3607V116.056H100.681V117.088H98.3607V121.952C98.3607 122.293 98.4434 122.547 98.6087 122.712C98.774 122.877 98.9874 122.96 99.2487 122.96C99.398 122.96 99.526 122.941 99.6327 122.904C99.7447 122.861 99.8407 122.816 99.9207 122.768C100.001 122.72 100.067 122.677 100.121 122.64C100.179 122.597 100.23 122.576 100.273 122.576C100.347 122.576 100.414 122.621 100.473 122.712L100.889 123.392C100.643 123.621 100.347 123.803 100.001 123.936C99.654 124.064 99.2967 124.128 98.9287 124.128ZM108.393 124H107.761C107.623 124 107.511 123.979 107.425 123.936C107.34 123.893 107.284 123.803 107.257 123.664L107.097 122.912C106.884 123.104 106.676 123.277 106.473 123.432C106.271 123.581 106.057 123.709 105.833 123.816C105.609 123.917 105.369 123.995 105.113 124.048C104.863 124.101 104.583 124.128 104.273 124.128C103.959 124.128 103.663 124.085 103.385 124C103.113 123.909 102.876 123.776 102.673 123.6C102.471 123.424 102.308 123.203 102.185 122.936C102.068 122.664 102.009 122.344 102.009 121.976C102.009 121.656 102.097 121.349 102.273 121.056C102.449 120.757 102.732 120.493 103.121 120.264C103.516 120.035 104.031 119.848 104.665 119.704C105.3 119.555 106.076 119.469 106.993 119.448V118.816C106.993 118.187 106.857 117.712 106.585 117.392C106.319 117.067 105.921 116.904 105.393 116.904C105.047 116.904 104.753 116.949 104.513 117.04C104.279 117.125 104.073 117.224 103.897 117.336C103.727 117.443 103.577 117.541 103.449 117.632C103.327 117.717 103.204 117.76 103.081 117.76C102.985 117.76 102.9 117.736 102.825 117.688C102.756 117.635 102.7 117.571 102.657 117.496L102.401 117.04C102.849 116.608 103.332 116.285 103.849 116.072C104.367 115.859 104.94 115.752 105.569 115.752C106.023 115.752 106.425 115.827 106.777 115.976C107.129 116.125 107.425 116.333 107.665 116.6C107.905 116.867 108.087 117.189 108.209 117.568C108.332 117.947 108.393 118.363 108.393 118.816V124ZM104.697 123.128C104.948 123.128 105.177 123.104 105.385 123.056C105.593 123.003 105.788 122.931 105.969 122.84C106.156 122.744 106.332 122.629 106.497 122.496C106.668 122.363 106.833 122.211 106.993 122.04V120.352C106.337 120.373 105.78 120.427 105.321 120.512C104.863 120.592 104.489 120.699 104.201 120.832C103.913 120.965 103.703 121.123 103.569 121.304C103.441 121.485 103.377 121.688 103.377 121.912C103.377 122.125 103.412 122.309 103.481 122.464C103.551 122.619 103.644 122.747 103.761 122.848C103.879 122.944 104.017 123.016 104.177 123.064C104.337 123.107 104.511 123.128 104.697 123.128ZM113.007 124.128C112.367 124.128 111.873 123.949 111.527 123.592C111.185 123.235 111.015 122.72 111.015 122.048V117.088H110.039C109.953 117.088 109.881 117.064 109.823 117.016C109.764 116.963 109.735 116.883 109.735 116.776V116.208L111.063 116.04L111.391 113.536C111.401 113.456 111.436 113.392 111.495 113.344C111.553 113.291 111.628 113.264 111.719 113.264H112.439V116.056H114.759V117.088H112.439V121.952C112.439 122.293 112.521 122.547 112.687 122.712C112.852 122.877 113.065 122.96 113.327 122.96C113.476 122.96 113.604 122.941 113.711 122.904C113.823 122.861 113.919 122.816 113.999 122.768C114.079 122.72 114.145 122.677 114.199 122.64C114.257 122.597 114.308 122.576 114.351 122.576C114.425 122.576 114.492 122.621 114.551 122.712L114.967 123.392C114.721 123.621 114.425 123.803 114.079 123.936C113.732 124.064 113.375 124.128 113.007 124.128ZM119.728 115.768C120.213 115.768 120.661 115.851 121.072 116.016C121.482 116.176 121.837 116.411 122.136 116.72C122.434 117.024 122.666 117.403 122.832 117.856C123.002 118.304 123.088 118.816 123.088 119.392C123.088 119.616 123.064 119.765 123.016 119.84C122.968 119.915 122.877 119.952 122.744 119.952H117.352C117.362 120.464 117.432 120.909 117.56 121.288C117.688 121.667 117.864 121.984 118.088 122.24C118.312 122.491 118.578 122.68 118.888 122.808C119.197 122.931 119.544 122.992 119.928 122.992C120.285 122.992 120.592 122.952 120.848 122.872C121.109 122.787 121.333 122.696 121.52 122.6C121.706 122.504 121.861 122.416 121.984 122.336C122.112 122.251 122.221 122.208 122.312 122.208C122.429 122.208 122.52 122.253 122.584 122.344L122.984 122.864C122.808 123.077 122.597 123.264 122.352 123.424C122.106 123.579 121.842 123.707 121.56 123.808C121.282 123.909 120.994 123.984 120.696 124.032C120.397 124.085 120.101 124.112 119.808 124.112C119.248 124.112 118.73 124.019 118.256 123.832C117.786 123.64 117.378 123.363 117.032 123C116.69 122.632 116.424 122.179 116.232 121.64C116.04 121.101 115.944 120.483 115.944 119.784C115.944 119.219 116.029 118.691 116.2 118.2C116.376 117.709 116.626 117.285 116.952 116.928C117.277 116.565 117.674 116.283 118.144 116.08C118.613 115.872 119.141 115.768 119.728 115.768ZM119.76 116.816C119.072 116.816 118.53 117.016 118.136 117.416C117.741 117.811 117.496 118.36 117.4 119.064H121.808C121.808 118.733 121.762 118.432 121.672 118.16C121.581 117.883 121.448 117.645 121.272 117.448C121.096 117.245 120.88 117.091 120.624 116.984C120.373 116.872 120.085 116.816 119.76 116.816ZM131.284 115.768C131.876 115.768 132.409 115.867 132.884 116.064C133.364 116.261 133.769 116.541 134.1 116.904C134.436 117.267 134.692 117.707 134.868 118.224C135.049 118.736 135.14 119.309 135.14 119.944C135.14 120.584 135.049 121.16 134.868 121.672C134.692 122.184 134.436 122.621 134.1 122.984C133.769 123.347 133.364 123.627 132.884 123.824C132.409 124.016 131.876 124.112 131.284 124.112C130.692 124.112 130.156 124.016 129.676 123.824C129.201 123.627 128.796 123.347 128.46 122.984C128.124 122.621 127.865 122.184 127.684 121.672C127.503 121.16 127.412 120.584 127.412 119.944C127.412 119.309 127.503 118.736 127.684 118.224C127.865 117.707 128.124 117.267 128.46 116.904C128.796 116.541 129.201 116.261 129.676 116.064C130.156 115.867 130.692 115.768 131.284 115.768ZM131.284 123C132.084 123 132.681 122.733 133.076 122.2C133.471 121.661 133.668 120.912 133.668 119.952C133.668 118.987 133.471 118.235 133.076 117.696C132.681 117.157 132.084 116.888 131.284 116.888C130.879 116.888 130.527 116.957 130.228 117.096C129.929 117.235 129.679 117.435 129.476 117.696C129.279 117.957 129.129 118.28 129.028 118.664C128.932 119.043 128.884 119.472 128.884 119.952C128.884 120.432 128.932 120.861 129.028 121.24C129.129 121.619 129.279 121.939 129.476 122.2C129.679 122.456 129.929 122.653 130.228 122.792C130.527 122.931 130.879 123 131.284 123ZM137.215 124V117.112L136.319 117.008C136.207 116.981 136.113 116.941 136.039 116.888C135.969 116.829 135.935 116.747 135.935 116.64V116.056H137.215V115.272C137.215 114.808 137.279 114.397 137.407 114.04C137.54 113.677 137.727 113.373 137.967 113.128C138.212 112.877 138.505 112.688 138.847 112.56C139.188 112.432 139.572 112.368 139.999 112.368C140.361 112.368 140.697 112.421 141.007 112.528L140.975 113.24C140.969 113.347 140.924 113.411 140.839 113.432C140.753 113.453 140.633 113.464 140.479 113.464H140.231C139.985 113.464 139.761 113.496 139.559 113.56C139.361 113.624 139.191 113.728 139.047 113.872C138.903 114.016 138.791 114.205 138.711 114.44C138.636 114.675 138.599 114.965 138.599 115.312V116.056H140.943V117.088H138.647V124H137.215ZM155.035 124H153.835C153.696 124 153.584 123.965 153.499 123.896C153.414 123.827 153.35 123.739 153.307 123.632L152.235 120.864H147.091L146.019 123.632C145.982 123.728 145.918 123.813 145.827 123.888C145.736 123.963 145.624 124 145.491 124H144.291L148.875 112.536H150.451L155.035 124ZM147.523 119.744H151.803L150.003 115.08C149.886 114.792 149.771 114.432 149.659 114C149.6 114.219 149.542 114.421 149.483 114.608C149.43 114.789 149.376 114.949 149.323 115.088L147.523 119.744ZM158.318 124H156.766V112.536H158.318V124ZM63.5218 132.328C63.4738 132.408 63.4231 132.469 63.3698 132.512C63.3165 132.549 63.2471 132.568 63.1618 132.568C63.0711 132.568 62.9645 132.523 62.8418 132.432C62.7245 132.341 62.5725 132.243 62.3858 132.136C62.2045 132.024 61.9831 131.923 61.7218 131.832C61.4658 131.741 61.1538 131.696 60.7858 131.696C60.4391 131.696 60.1325 131.744 59.8658 131.84C59.5991 131.931 59.3751 132.056 59.1938 132.216C59.0178 132.376 58.8845 132.565 58.7938 132.784C58.7031 132.997 58.6578 133.229 58.6578 133.48C58.6578 133.8 58.7351 134.067 58.8898 134.28C59.0498 134.488 59.2578 134.667 59.5138 134.816C59.7751 134.965 60.0685 135.096 60.3938 135.208C60.7245 135.315 61.0605 135.427 61.4018 135.544C61.7485 135.661 62.0845 135.795 62.4098 135.944C62.7405 136.088 63.0338 136.272 63.2898 136.496C63.5511 136.72 63.7591 136.995 63.9138 137.32C64.0738 137.645 64.1538 138.045 64.1538 138.52C64.1538 139.021 64.0685 139.493 63.8978 139.936C63.7271 140.373 63.4765 140.755 63.1458 141.08C62.8205 141.405 62.4178 141.661 61.9378 141.848C61.4631 142.035 60.9218 142.128 60.3138 142.128C59.5725 142.128 58.8951 141.995 58.2818 141.728C57.6738 141.456 57.1538 141.091 56.7218 140.632L57.1698 139.896C57.2125 139.837 57.2631 139.789 57.3218 139.752C57.3858 139.709 57.4551 139.688 57.5298 139.688C57.6418 139.688 57.7698 139.749 57.9138 139.872C58.0578 139.989 58.2365 140.12 58.4498 140.264C58.6685 140.408 58.9298 140.541 59.2338 140.664C59.5431 140.781 59.9191 140.84 60.3618 140.84C60.7298 140.84 61.0578 140.789 61.3458 140.688C61.6338 140.587 61.8765 140.445 62.0738 140.264C62.2765 140.077 62.4311 139.856 62.5378 139.6C62.6445 139.344 62.6978 139.059 62.6978 138.744C62.6978 138.397 62.6178 138.115 62.4578 137.896C62.3031 137.672 62.0978 137.485 61.8418 137.336C61.5858 137.187 61.2925 137.061 60.9618 136.96C60.6365 136.853 60.3005 136.747 59.9538 136.64C59.6125 136.528 59.2765 136.4 58.9458 136.256C58.6205 136.112 58.3298 135.925 58.0738 135.696C57.8178 135.467 57.6098 135.181 57.4498 134.84C57.2951 134.493 57.2178 134.067 57.2178 133.56C57.2178 133.155 57.2951 132.763 57.4498 132.384C57.6098 132.005 57.8391 131.669 58.1378 131.376C58.4365 131.083 58.8045 130.848 59.2418 130.672C59.6845 130.496 60.1911 130.408 60.7618 130.408C61.4018 130.408 61.9858 130.509 62.5138 130.712C63.0418 130.915 63.5031 131.208 63.8978 131.592L63.5218 132.328ZM67.1422 133.896V139.064C67.1422 139.677 67.2835 140.152 67.5662 140.488C67.8489 140.824 68.2755 140.992 68.8462 140.992C69.2622 140.992 69.6542 140.893 70.0222 140.696C70.3902 140.499 70.7289 140.224 71.0382 139.872V133.896H72.4622V142H71.6142C71.4115 142 71.2835 141.901 71.2302 141.704L71.1182 140.832C70.7662 141.221 70.3715 141.536 69.9342 141.776C69.4969 142.011 68.9955 142.128 68.4302 142.128C67.9875 142.128 67.5955 142.056 67.2542 141.912C66.9182 141.763 66.6355 141.555 66.4062 141.288C66.1769 141.021 66.0035 140.699 65.8862 140.32C65.7742 139.941 65.7182 139.523 65.7182 139.064V133.896H67.1422ZM74.8008 142V133.896H75.6168C75.7715 133.896 75.8781 133.925 75.9368 133.984C75.9955 134.043 76.0355 134.144 76.0568 134.288L76.1528 135.552C76.4301 134.987 76.7715 134.547 77.1768 134.232C77.5875 133.912 78.0675 133.752 78.6168 133.752C78.8408 133.752 79.0435 133.779 79.2248 133.832C79.4061 133.88 79.5741 133.949 79.7288 134.04L79.5448 135.104C79.5075 135.237 79.4248 135.304 79.2968 135.304C79.2221 135.304 79.1075 135.28 78.9528 135.232C78.7981 135.179 78.5821 135.152 78.3048 135.152C77.8088 135.152 77.3928 135.296 77.0568 135.584C76.7261 135.872 76.4488 136.291 76.2248 136.84V142H74.8008ZM80.2299 133.896H81.3979C81.5099 133.896 81.6033 133.925 81.6779 133.984C81.7526 134.043 81.8059 134.112 81.8379 134.192L83.8939 139.408C83.9686 139.6 84.0273 139.792 84.0699 139.984C84.1126 140.176 84.1526 140.365 84.1899 140.552C84.2326 140.365 84.2779 140.176 84.3259 139.984C84.3739 139.792 84.4353 139.6 84.5099 139.408L86.5899 134.192C86.6219 134.107 86.6726 134.037 86.7419 133.984C86.8166 133.925 86.9073 133.896 87.0139 133.896H88.1259L84.8219 142H83.5339L80.2299 133.896ZM92.4463 133.768C92.9316 133.768 93.3796 133.851 93.7903 134.016C94.201 134.176 94.5556 134.411 94.8543 134.72C95.153 135.024 95.385 135.403 95.5503 135.856C95.721 136.304 95.8063 136.816 95.8063 137.392C95.8063 137.616 95.7823 137.765 95.7343 137.84C95.6863 137.915 95.5956 137.952 95.4623 137.952H90.0703C90.081 138.464 90.1503 138.909 90.2783 139.288C90.4063 139.667 90.5823 139.984 90.8063 140.24C91.0303 140.491 91.297 140.68 91.6063 140.808C91.9156 140.931 92.2623 140.992 92.6463 140.992C93.0036 140.992 93.3103 140.952 93.5663 140.872C93.8276 140.787 94.0516 140.696 94.2383 140.6C94.425 140.504 94.5796 140.416 94.7023 140.336C94.8303 140.251 94.9396 140.208 95.0303 140.208C95.1476 140.208 95.2383 140.253 95.3023 140.344L95.7023 140.864C95.5263 141.077 95.3156 141.264 95.0703 141.424C94.825 141.579 94.561 141.707 94.2783 141.808C94.001 141.909 93.713 141.984 93.4143 142.032C93.1156 142.085 92.8196 142.112 92.5263 142.112C91.9663 142.112 91.449 142.019 90.9743 141.832C90.505 141.64 90.097 141.363 89.7503 141C89.409 140.632 89.1423 140.179 88.9503 139.64C88.7583 139.101 88.6623 138.483 88.6623 137.784C88.6623 137.219 88.7476 136.691 88.9183 136.2C89.0943 135.709 89.345 135.285 89.6703 134.928C89.9956 134.565 90.393 134.283 90.8623 134.08C91.3316 133.872 91.8596 133.768 92.4463 133.768ZM92.4783 134.816C91.7903 134.816 91.249 135.016 90.8543 135.416C90.4596 135.811 90.2143 136.36 90.1183 137.064H94.5263C94.5263 136.733 94.481 136.432 94.3903 136.16C94.2996 135.883 94.1663 135.645 93.9903 135.448C93.8143 135.245 93.5983 135.091 93.3423 134.984C93.0916 134.872 92.8036 134.816 92.4783 134.816ZM99.8018 144.392C99.7538 144.499 99.6925 144.584 99.6178 144.648C99.5485 144.712 99.4391 144.744 99.2898 144.744H98.2338L99.7138 141.528L96.3698 133.896H97.6018C97.7245 133.896 97.8205 133.928 97.8898 133.992C97.9591 134.051 98.0098 134.117 98.0418 134.192L100.21 139.296C100.258 139.413 100.298 139.531 100.33 139.648C100.367 139.765 100.399 139.885 100.426 140.008C100.463 139.885 100.5 139.765 100.538 139.648C100.575 139.531 100.618 139.411 100.666 139.288L102.77 134.192C102.802 134.107 102.855 134.037 102.93 133.984C103.01 133.925 103.095 133.896 103.186 133.896H104.322L99.8018 144.392ZM110.291 133.896V142H108.867V133.896H110.291ZM110.611 131.352C110.611 131.491 110.582 131.621 110.523 131.744C110.47 131.861 110.395 131.968 110.299 132.064C110.208 132.155 110.102 132.227 109.979 132.28C109.856 132.333 109.726 132.36 109.587 132.36C109.448 132.36 109.318 132.333 109.195 132.28C109.078 132.227 108.971 132.155 108.875 132.064C108.784 131.968 108.712 131.861 108.659 131.744C108.606 131.621 108.579 131.491 108.579 131.352C108.579 131.213 108.606 131.083 108.659 130.96C108.712 130.832 108.784 130.723 108.875 130.632C108.971 130.536 109.078 130.461 109.195 130.408C109.318 130.355 109.448 130.328 109.587 130.328C109.726 130.328 109.856 130.355 109.979 130.408C110.102 130.461 110.208 130.536 110.299 130.632C110.395 130.723 110.47 130.832 110.523 130.96C110.582 131.083 110.611 131.213 110.611 131.352ZM112.801 142V133.896H113.649C113.851 133.896 113.979 133.995 114.033 134.192L114.145 135.072C114.497 134.683 114.889 134.368 115.321 134.128C115.758 133.888 116.262 133.768 116.833 133.768C117.275 133.768 117.665 133.843 118.001 133.992C118.342 134.136 118.625 134.344 118.849 134.616C119.078 134.883 119.251 135.205 119.369 135.584C119.486 135.963 119.545 136.381 119.545 136.84V142H118.121V136.84C118.121 136.227 117.979 135.752 117.697 135.416C117.419 135.075 116.993 134.904 116.417 134.904C115.995 134.904 115.601 135.005 115.233 135.208C114.87 135.411 114.534 135.685 114.225 136.032V142H112.801ZM128.425 130.408C128.911 130.408 129.364 130.48 129.785 130.624C130.207 130.768 130.569 130.979 130.873 131.256C131.183 131.528 131.425 131.861 131.601 132.256C131.777 132.651 131.865 133.099 131.865 133.6C131.865 134.027 131.801 134.421 131.673 134.784C131.545 135.147 131.372 135.496 131.153 135.832C130.935 136.163 130.681 136.485 130.393 136.8C130.111 137.109 129.809 137.427 129.489 137.752L126.473 140.84C126.687 140.781 126.903 140.736 127.121 140.704C127.34 140.667 127.551 140.648 127.753 140.648H131.593C131.748 140.648 131.871 140.693 131.961 140.784C132.052 140.875 132.097 140.992 132.097 141.136V142H124.449V141.512C124.449 141.411 124.468 141.307 124.505 141.2C124.548 141.093 124.615 140.995 124.705 140.904L128.377 137.216C128.681 136.907 128.959 136.611 129.209 136.328C129.46 136.04 129.673 135.752 129.849 135.464C130.031 135.176 130.169 134.885 130.265 134.592C130.361 134.293 130.409 133.976 130.409 133.64C130.409 133.304 130.356 133.011 130.249 132.76C130.143 132.504 129.996 132.293 129.809 132.128C129.623 131.963 129.404 131.84 129.153 131.76C128.903 131.675 128.633 131.632 128.345 131.632C128.057 131.632 127.791 131.675 127.545 131.76C127.3 131.845 127.081 131.965 126.889 132.12C126.703 132.269 126.543 132.448 126.409 132.656C126.281 132.864 126.191 133.093 126.137 133.344C126.095 133.499 126.031 133.611 125.945 133.68C125.86 133.749 125.748 133.784 125.609 133.784C125.583 133.784 125.553 133.784 125.521 133.784C125.495 133.779 125.463 133.773 125.425 133.768L124.681 133.64C124.756 133.117 124.9 132.656 125.113 132.256C125.327 131.851 125.596 131.512 125.921 131.24C126.252 130.968 126.628 130.763 127.049 130.624C127.476 130.48 127.935 130.408 128.425 130.408ZM141.698 136.272C141.698 137.275 141.589 138.144 141.37 138.88C141.157 139.611 140.864 140.216 140.49 140.696C140.117 141.176 139.674 141.533 139.162 141.768C138.656 142.003 138.112 142.12 137.53 142.12C136.944 142.12 136.397 142.003 135.89 141.768C135.389 141.533 134.952 141.176 134.578 140.696C134.205 140.216 133.912 139.611 133.698 138.88C133.485 138.144 133.378 137.275 133.378 136.272C133.378 135.269 133.485 134.4 133.698 133.664C133.912 132.928 134.205 132.32 134.578 131.84C134.952 131.355 135.389 130.995 135.89 130.76C136.397 130.525 136.944 130.408 137.53 130.408C138.112 130.408 138.656 130.525 139.162 130.76C139.674 130.995 140.117 131.355 140.49 131.84C140.864 132.32 141.157 132.928 141.37 133.664C141.589 134.4 141.698 135.269 141.698 136.272ZM140.218 136.272C140.218 135.397 140.144 134.664 139.994 134.072C139.85 133.475 139.653 132.995 139.402 132.632C139.157 132.269 138.872 132.011 138.546 131.856C138.221 131.696 137.882 131.616 137.53 131.616C137.178 131.616 136.84 131.696 136.514 131.856C136.189 132.011 135.904 132.269 135.658 132.632C135.413 132.995 135.216 133.475 135.066 134.072C134.922 134.664 134.85 135.397 134.85 136.272C134.85 137.147 134.922 137.88 135.066 138.472C135.216 139.064 135.413 139.541 135.658 139.904C135.904 140.267 136.189 140.528 136.514 140.688C136.84 140.843 137.178 140.92 137.53 140.92C137.882 140.92 138.221 140.843 138.546 140.688C138.872 140.528 139.157 140.267 139.402 139.904C139.653 139.541 139.85 139.064 139.994 138.472C140.144 137.88 140.218 137.147 140.218 136.272ZM146.988 130.408C147.473 130.408 147.926 130.48 148.348 130.624C148.769 130.768 149.132 130.979 149.436 131.256C149.745 131.528 149.988 131.861 150.164 132.256C150.34 132.651 150.428 133.099 150.428 133.6C150.428 134.027 150.364 134.421 150.236 134.784C150.108 135.147 149.934 135.496 149.716 135.832C149.497 136.163 149.244 136.485 148.956 136.8C148.673 137.109 148.372 137.427 148.052 137.752L145.036 140.84C145.249 140.781 145.465 140.736 145.684 140.704C145.902 140.667 146.113 140.648 146.316 140.648H150.156C150.31 140.648 150.433 140.693 150.524 140.784C150.614 140.875 150.66 140.992 150.66 141.136V142H143.012V141.512C143.012 141.411 143.03 141.307 143.068 141.2C143.11 141.093 143.177 140.995 143.268 140.904L146.94 137.216C147.244 136.907 147.521 136.611 147.772 136.328C148.022 136.04 148.236 135.752 148.412 135.464C148.593 135.176 148.732 134.885 148.828 134.592C148.924 134.293 148.972 133.976 148.972 133.64C148.972 133.304 148.918 133.011 148.812 132.76C148.705 132.504 148.558 132.293 148.372 132.128C148.185 131.963 147.966 131.84 147.716 131.76C147.465 131.675 147.196 131.632 146.908 131.632C146.62 131.632 146.353 131.675 146.108 131.76C145.862 131.845 145.644 131.965 145.452 132.12C145.265 132.269 145.105 132.448 144.972 132.656C144.844 132.864 144.753 133.093 144.7 133.344C144.657 133.499 144.593 133.611 144.508 133.68C144.422 133.749 144.31 133.784 144.172 133.784C144.145 133.784 144.116 133.784 144.084 133.784C144.057 133.779 144.025 133.773 143.988 133.768L143.244 133.64C143.318 133.117 143.462 132.656 143.676 132.256C143.889 131.851 144.158 131.512 144.484 131.24C144.814 130.968 145.19 130.763 145.612 130.624C146.038 130.48 146.497 130.408 146.988 130.408ZM153.757 140.912H156.221V133.096C156.221 132.861 156.229 132.624 156.245 132.384L154.197 134.136C154.144 134.179 154.09 134.211 154.037 134.232C153.984 134.248 153.933 134.256 153.885 134.256C153.805 134.256 153.733 134.24 153.669 134.208C153.605 134.171 153.557 134.128 153.525 134.08L153.077 133.464L156.485 130.512H157.645V140.912H159.901V142H153.757V140.912ZM71.7004 160V148.216H73.1324V153.064C73.4684 152.675 73.8524 152.363 74.2844 152.128C74.7217 151.888 75.2204 151.768 75.7804 151.768C76.2497 151.768 76.6737 151.856 77.0524 152.032C77.431 152.208 77.7537 152.472 78.0204 152.824C78.287 153.171 78.4924 153.603 78.6364 154.12C78.7804 154.632 78.8524 155.224 78.8524 155.896C78.8524 156.493 78.7724 157.051 78.6124 157.568C78.4524 158.08 78.2204 158.525 77.9164 158.904C77.6177 159.277 77.2497 159.573 76.8124 159.792C76.3804 160.005 75.8924 160.112 75.3484 160.112C74.8257 160.112 74.3804 160.011 74.0124 159.808C73.6497 159.605 73.3324 159.323 73.0604 158.96L72.9884 159.696C72.9457 159.899 72.823 160 72.6204 160H71.7004ZM75.3164 152.904C74.8524 152.904 74.4444 153.011 74.0924 153.224C73.7457 153.437 73.4257 153.739 73.1324 154.128V158.048C73.3884 158.4 73.671 158.648 73.9804 158.792C74.295 158.936 74.6444 159.008 75.0284 159.008C75.7857 159.008 76.367 158.739 76.7724 158.2C77.1777 157.661 77.3804 156.893 77.3804 155.896C77.3804 155.368 77.3324 154.915 77.2364 154.536C77.1457 154.157 77.0124 153.848 76.8364 153.608C76.6604 153.363 76.4444 153.184 76.1884 153.072C75.9324 152.96 75.6417 152.904 75.3164 152.904ZM82.7628 162.392C82.7148 162.499 82.6534 162.584 82.5788 162.648C82.5094 162.712 82.4001 162.744 82.2508 162.744H81.1948L82.6748 159.528L79.3308 151.896H80.5628C80.6854 151.896 80.7814 151.928 80.8508 151.992C80.9201 152.051 80.9708 152.117 81.0028 152.192L83.1708 157.296C83.2188 157.413 83.2588 157.531 83.2908 157.648C83.3281 157.765 83.3601 157.885 83.3868 158.008C83.4241 157.885 83.4614 157.765 83.4988 157.648C83.5361 157.531 83.5788 157.411 83.6267 157.288L85.7308 152.192C85.7628 152.107 85.8161 152.037 85.8908 151.984C85.9708 151.925 86.0561 151.896 86.1468 151.896H87.2828L82.7628 162.392ZM97.004 158.872C97.3133 158.872 97.596 158.859 97.852 158.832C98.1133 158.8 98.3587 158.755 98.588 158.696C98.8173 158.637 99.0333 158.568 99.236 158.488C99.4387 158.403 99.6413 158.307 99.844 158.2V155.672H98.068C97.9667 155.672 97.884 155.643 97.82 155.584C97.7613 155.525 97.732 155.453 97.732 155.368V154.488H101.252V158.888C100.964 159.096 100.663 159.277 100.348 159.432C100.039 159.587 99.7053 159.717 99.348 159.824C98.996 159.925 98.6173 160 98.212 160.048C97.8067 160.101 97.3667 160.128 96.892 160.128C96.06 160.128 95.2973 159.987 94.604 159.704C93.9107 159.416 93.3133 159.016 92.812 158.504C92.3107 157.987 91.9187 157.368 91.636 156.648C91.3587 155.928 91.22 155.136 91.22 154.272C91.22 153.397 91.356 152.6 91.628 151.88C91.9053 151.16 92.2973 150.544 92.804 150.032C93.316 149.515 93.932 149.115 94.652 148.832C95.3773 148.549 96.188 148.408 97.084 148.408C97.5373 148.408 97.9587 148.443 98.348 148.512C98.7373 148.576 99.0973 148.672 99.428 148.8C99.764 148.923 100.073 149.075 100.356 149.256C100.639 149.432 100.903 149.632 101.148 149.856L100.708 150.56C100.617 150.704 100.5 150.776 100.356 150.776C100.271 150.776 100.177 150.747 100.076 150.688C99.9427 150.613 99.7933 150.523 99.628 150.416C99.4627 150.309 99.26 150.208 99.02 150.112C98.7853 150.011 98.5053 149.925 98.18 149.856C97.86 149.787 97.4787 149.752 97.036 149.752C96.3907 149.752 95.8067 149.859 95.284 150.072C94.7613 150.28 94.316 150.581 93.948 150.976C93.58 151.365 93.2973 151.84 93.1 152.4C92.9027 152.955 92.804 153.579 92.804 154.272C92.804 154.997 92.9053 155.645 93.108 156.216C93.316 156.781 93.6067 157.261 93.98 157.656C94.3533 158.051 94.796 158.352 95.308 158.56C95.82 158.768 96.3853 158.872 97.004 158.872ZM109.37 160H108.738C108.599 160 108.487 159.979 108.402 159.936C108.317 159.893 108.261 159.803 108.234 159.664L108.074 158.912C107.861 159.104 107.653 159.277 107.45 159.432C107.247 159.581 107.034 159.709 106.81 159.816C106.586 159.917 106.346 159.995 106.09 160.048C105.839 160.101 105.559 160.128 105.25 160.128C104.935 160.128 104.639 160.085 104.362 160C104.09 159.909 103.853 159.776 103.65 159.6C103.447 159.424 103.285 159.203 103.162 158.936C103.045 158.664 102.986 158.344 102.986 157.976C102.986 157.656 103.074 157.349 103.25 157.056C103.426 156.757 103.709 156.493 104.098 156.264C104.493 156.035 105.007 155.848 105.642 155.704C106.277 155.555 107.053 155.469 107.97 155.448V154.816C107.97 154.187 107.834 153.712 107.562 153.392C107.295 153.067 106.898 152.904 106.37 152.904C106.023 152.904 105.73 152.949 105.49 153.04C105.255 153.125 105.05 153.224 104.874 153.336C104.703 153.443 104.554 153.541 104.426 153.632C104.303 153.717 104.181 153.76 104.058 153.76C103.962 153.76 103.877 153.736 103.802 153.688C103.733 153.635 103.677 153.571 103.634 153.496L103.378 153.04C103.826 152.608 104.309 152.285 104.826 152.072C105.343 151.859 105.917 151.752 106.546 151.752C106.999 151.752 107.402 151.827 107.754 151.976C108.106 152.125 108.402 152.333 108.642 152.6C108.882 152.867 109.063 153.189 109.186 153.568C109.309 153.947 109.37 154.363 109.37 154.816V160ZM105.674 159.128C105.925 159.128 106.154 159.104 106.362 159.056C106.57 159.003 106.765 158.931 106.946 158.84C107.133 158.744 107.309 158.629 107.474 158.496C107.645 158.363 107.81 158.211 107.97 158.04V156.352C107.314 156.373 106.757 156.427 106.298 156.512C105.839 156.592 105.466 156.699 105.178 156.832C104.89 156.965 104.679 157.123 104.546 157.304C104.418 157.485 104.354 157.688 104.354 157.912C104.354 158.125 104.389 158.309 104.458 158.464C104.527 158.619 104.621 158.747 104.738 158.848C104.855 158.944 104.994 159.016 105.154 159.064C105.314 159.107 105.487 159.128 105.674 159.128ZM111.527 160V151.896H112.343C112.498 151.896 112.605 151.925 112.663 151.984C112.722 152.043 112.762 152.144 112.783 152.288L112.879 153.552C113.157 152.987 113.498 152.547 113.903 152.232C114.314 151.912 114.794 151.752 115.343 151.752C115.567 151.752 115.77 151.779 115.951 151.832C116.133 151.88 116.301 151.949 116.455 152.04L116.271 153.104C116.234 153.237 116.151 153.304 116.023 153.304C115.949 153.304 115.834 153.28 115.679 153.232C115.525 153.179 115.309 153.152 115.031 153.152C114.535 153.152 114.119 153.296 113.783 153.584C113.453 153.872 113.175 154.291 112.951 154.84V160H111.527ZM120.437 160.128C119.797 160.128 119.303 159.949 118.957 159.592C118.615 159.235 118.445 158.72 118.445 158.048V153.088H117.469C117.383 153.088 117.311 153.064 117.253 153.016C117.194 152.963 117.165 152.883 117.165 152.776V152.208L118.493 152.04L118.821 149.536C118.831 149.456 118.866 149.392 118.924 149.344C118.983 149.291 119.058 149.264 119.149 149.264H119.869V152.056H122.189V153.088H119.869V157.952C119.869 158.293 119.951 158.547 120.117 158.712C120.282 158.877 120.495 158.96 120.757 158.96C120.906 158.96 121.034 158.941 121.141 158.904C121.253 158.861 121.349 158.816 121.429 158.768C121.509 158.72 121.575 158.677 121.629 158.64C121.687 158.597 121.738 158.576 121.781 158.576C121.855 158.576 121.922 158.621 121.981 158.712L122.397 159.392C122.151 159.621 121.855 159.803 121.509 159.936C121.162 160.064 120.805 160.128 120.437 160.128ZM123.949 160V151.896H124.797C125 151.896 125.128 151.995 125.181 152.192L125.293 153.072C125.645 152.683 126.037 152.368 126.469 152.128C126.907 151.888 127.411 151.768 127.981 151.768C128.424 151.768 128.813 151.843 129.149 151.992C129.491 152.136 129.773 152.344 129.997 152.616C130.227 152.883 130.4 153.205 130.517 153.584C130.635 153.963 130.693 154.381 130.693 154.84V160H129.269V154.84C129.269 154.227 129.128 153.752 128.845 153.416C128.568 153.075 128.141 152.904 127.565 152.904C127.144 152.904 126.749 153.005 126.381 153.208C126.019 153.411 125.683 153.685 125.373 154.032V160H123.949ZM136.048 151.768C136.533 151.768 136.981 151.851 137.392 152.016C137.803 152.176 138.157 152.411 138.456 152.72C138.755 153.024 138.987 153.403 139.152 153.856C139.323 154.304 139.408 154.816 139.408 155.392C139.408 155.616 139.384 155.765 139.336 155.84C139.288 155.915 139.197 155.952 139.064 155.952H133.672C133.683 156.464 133.752 156.909 133.88 157.288C134.008 157.667 134.184 157.984 134.408 158.24C134.632 158.491 134.899 158.68 135.208 158.808C135.517 158.931 135.864 158.992 136.248 158.992C136.605 158.992 136.912 158.952 137.168 158.872C137.429 158.787 137.653 158.696 137.84 158.6C138.027 158.504 138.181 158.416 138.304 158.336C138.432 158.251 138.541 158.208 138.632 158.208C138.749 158.208 138.84 158.253 138.904 158.344L139.304 158.864C139.128 159.077 138.917 159.264 138.672 159.424C138.427 159.579 138.163 159.707 137.88 159.808C137.603 159.909 137.315 159.984 137.016 160.032C136.717 160.085 136.421 160.112 136.128 160.112C135.568 160.112 135.051 160.019 134.576 159.832C134.107 159.64 133.699 159.363 133.352 159C133.011 158.632 132.744 158.179 132.552 157.64C132.36 157.101 132.264 156.483 132.264 155.784C132.264 155.219 132.349 154.691 132.52 154.2C132.696 153.709 132.947 153.285 133.272 152.928C133.597 152.565 133.995 152.283 134.464 152.08C134.933 151.872 135.461 151.768 136.048 151.768ZM136.08 152.816C135.392 152.816 134.851 153.016 134.456 153.416C134.061 153.811 133.816 154.36 133.72 155.064H138.128C138.128 154.733 138.083 154.432 137.992 154.16C137.901 153.883 137.768 153.645 137.592 153.448C137.416 153.245 137.2 153.091 136.944 152.984C136.693 152.872 136.405 152.816 136.08 152.816ZM141.231 160V151.896H142.047C142.201 151.896 142.308 151.925 142.367 151.984C142.425 152.043 142.465 152.144 142.487 152.288L142.583 153.552C142.86 152.987 143.201 152.547 143.607 152.232C144.017 151.912 144.497 151.752 145.047 151.752C145.271 151.752 145.473 151.779 145.655 151.832C145.836 151.88 146.004 151.949 146.159 152.04L145.975 153.104C145.937 153.237 145.855 153.304 145.727 153.304C145.652 153.304 145.537 153.28 145.383 153.232C145.228 153.179 145.012 153.152 144.735 153.152C144.239 153.152 143.823 153.296 143.487 153.584C143.156 153.872 142.879 154.291 142.655 154.84V160H141.231Z" fill="#EEF8FF"/>
</svg>
