<svg width="395" height="350" viewBox="0 0 395 350" fill="none" xmlns="http://www.w3.org/2000/svg">
<g clip-path="url(#clip0_898_1594)">
<path d="M238.664 94.5774H15.0473C6.7369 94.5774 0 101.323 0 109.645V218.025C0 226.346 6.7369 233.092 15.0473 233.092H238.664C246.974 233.092 253.711 226.346 253.711 218.025V109.645C253.711 101.323 246.974 94.5774 238.664 94.5774Z" fill="#CAC3E3"/>
<path d="M228.398 104.315H181.199V105.417H228.398V104.315Z" fill="white"/>
<path d="M228.398 109.464H181.199V110.566H228.398V109.464Z" fill="white"/>
<path d="M228.398 114.613H181.199V115.715H228.398V114.613Z" fill="white"/>
<path d="M228.398 119.744H181.199V120.846H228.398V119.744Z" fill="white"/>
<path d="M215.877 124.893H181.199V125.995H215.877V124.893Z" fill="white"/>
<path d="M148.596 103.43C135.028 103.52 124.076 114.613 124.184 128.181C124.275 141.767 135.353 152.697 148.902 152.607C162.47 152.516 173.386 141.442 173.277 127.856C173.187 114.27 162.145 103.34 148.596 103.43ZM148.83 143.682C140.188 143.736 133.133 136.781 133.079 128.127C133.025 119.473 139.953 112.409 148.578 112.355C157.202 112.301 164.292 119.256 164.347 127.91C164.401 136.564 157.454 143.61 148.812 143.682H148.83Z" fill="white"/>
<path d="M173.277 127.856C173.368 141.424 162.452 152.516 148.902 152.607C140.801 152.661 133.602 148.795 129.092 142.761L136.778 138.099C139.665 141.55 144.013 143.718 148.848 143.682C157.472 143.628 164.437 136.564 164.383 127.91C164.328 119.256 157.238 112.301 148.614 112.355V103.43C162.163 103.34 173.205 114.27 173.295 127.856H173.277Z" fill="#A49DCE"/>
<path d="M172.322 196.129H125.123V197.231H172.322V196.129Z" fill="white"/>
<path d="M172.322 201.278H125.123V202.38H172.322V201.278Z" fill="white"/>
<path d="M172.322 206.408H125.123V207.51H172.322V206.408Z" fill="white"/>
<path d="M172.322 211.557H125.123V212.659H172.322V211.557Z" fill="white"/>
<path d="M172.322 216.706H125.123V217.808H172.322V216.706Z" fill="white"/>
<path d="M172.322 221.855H125.123V222.957H172.322V221.855Z" fill="white"/>
<path d="M172.322 158.695H125.123V159.797H172.322V158.695Z" fill="white"/>
<path d="M172.322 163.826H125.123V164.928H172.322V163.826Z" fill="white"/>
<path d="M172.322 168.975H125.123V170.077H172.322V168.975Z" fill="white"/>
<path d="M172.322 174.124H125.123V175.226H172.322V174.124Z" fill="white"/>
<path d="M172.322 179.273H125.123V180.375H172.322V179.273Z" fill="white"/>
<path d="M172.322 184.404H125.123V185.506H172.322V184.404Z" fill="white"/>
<path d="M86.4404 127.043H12.2324V129.753H86.4404V127.043Z" fill="white"/>
<path d="M86.4404 141.116H12.2324V143.826H86.4404V141.116Z" fill="white"/>
<path d="M86.4404 155.19H12.2324V157.9H86.4404V155.19Z" fill="white"/>
<path d="M62.4802 127.043H12.2324V129.753H62.4802V127.043Z" fill="#A49DCE"/>
<path d="M37.0947 141.116H12.2324V143.826H37.0947V141.116Z" fill="#A49DCE"/>
<path d="M53.8921 155.19H12.2324V157.9H53.8921V155.19Z" fill="#A49DCE"/>
<path d="M41.2625 121.966H12.2324V123.068H41.2625V121.966Z" fill="white"/>
<path d="M41.2625 136.04H12.2324V137.142H41.2625V136.04Z" fill="white"/>
<path d="M41.2625 150.114H12.2324V151.216H41.2625V150.114Z" fill="white"/>
<path d="M33.0532 106.537H12.2324V107.639H33.0532V106.537Z" fill="white"/>
<path d="M46.5308 110.385H12.2324V111.488H46.5308V110.385Z" fill="white"/>
<path d="M12.4492 180.465V222.921H114.154V180.465H12.4492ZM113.053 191.016H101.65V181.567H113.053V191.016ZM62.7872 201.567H51.2943V192.118H62.7872V201.567ZM63.8878 192.118H75.3807V201.567H63.8878V192.118ZM50.2117 201.567H38.7188V192.118H50.2117V201.567ZM50.2117 202.669V212.117H38.7188V202.669H50.2117ZM51.3123 202.669H62.8053V212.117H51.3123V202.669ZM63.9058 202.669H75.3988V212.117H63.9058V202.669ZM76.4994 202.669H87.9923V212.117H76.4994V202.669ZM76.4994 201.567V192.118H87.9923V201.567H76.4994ZM89.0929 192.118H100.586V201.567H89.0929V192.118ZM89.0929 191.016V181.567H100.586V191.016H89.0929ZM87.9923 191.016H76.4994V181.567H87.9923V191.016ZM75.3988 191.016H63.9058V181.567H75.3988V191.016ZM62.8053 191.016H51.3123V181.567H62.8053V191.016ZM50.2117 191.016H38.7188V181.567H50.2117V191.016ZM37.6182 191.016H26.1253V181.567H37.6182V191.016ZM37.6182 192.118V201.567H26.1253V192.118H37.6182ZM25.0247 201.567H13.5318V192.118H25.0247V201.567ZM25.0247 202.669V212.117H13.5318V202.669H25.0247ZM26.1253 202.669H37.6182V212.117H26.1253V202.669ZM37.6182 213.219V221.855H26.1253V213.219H37.6182ZM38.7188 213.219H50.2117V221.855H38.7188V213.219ZM51.3123 213.219H62.8053V221.855H51.3123V213.219ZM63.9058 213.219H75.3988V221.855H63.9058V213.219ZM76.4994 213.219H87.9923V221.855H76.4994V213.219ZM89.0929 213.219H100.586V221.855H89.0929V213.219ZM89.0929 212.117V202.669H100.586V212.117H89.0929ZM101.686 202.669H113.089V212.117H101.686V202.669ZM101.686 201.567V192.118H113.089V201.567H101.686ZM25.0788 181.567V191.016H13.5318V181.567H25.0247H25.0788ZM13.5859 213.201H25.0788V221.837H13.5318V213.201H13.5859ZM101.704 221.837V213.201H113.107V221.837H101.704Z" fill="white"/>
<path d="M105.133 188.107C102.733 188.631 100.334 189.173 97.9523 189.697C99.0348 190.944 99.558 191.54 99.9369 191.973L88.4079 201.097L75.9226 190.962L50.8799 211.973L38.1601 201.404L17.6641 218.332L18.3677 219.181L38.1601 202.831L50.8799 213.418L75.9226 192.407L88.3899 202.524L100.659 192.823C101.038 193.256 101.561 193.852 102.589 195.045C103.437 192.732 104.285 190.438 105.133 188.125V188.107Z" fill="#A49DCE"/>
<path d="M33.811 171.558H12.9902V172.66H33.811V171.558Z" fill="white"/>
<path d="M47.2886 175.406H12.9902V176.509H47.2886V175.406Z" fill="white"/>
<path d="M382.172 128.018H154.117C147.032 128.018 141.289 133.769 141.289 140.864V253.688C141.289 260.782 147.032 266.533 154.117 266.533H382.172C389.257 266.533 395 260.782 395 253.688V140.864C395 133.769 389.257 128.018 382.172 128.018Z" fill="#E6E3F5"/>
<path d="M174.901 251.502H166.98V259.433H174.901V251.502Z" fill="url(#paint0_linear_898_1594)"/>
<path d="M217.751 254.917H178.924V256.019H217.751V254.917Z" fill="white"/>
<path d="M338.796 249.623H300.854V250.725H338.796V249.623Z" fill="white"/>
<path d="M338.796 254.772H300.854V255.874H338.796V254.772Z" fill="white"/>
<path d="M327.502 259.921H300.854V261.023H327.502V259.921Z" fill="white"/>
<path d="M384.715 165.289H151.807V166.391H384.715V165.289Z" fill="white"/>
<path d="M384.715 154.233H151.807V155.335H384.715V154.233Z" fill="white"/>
<path d="M384.715 143.158H151.807V144.26H384.715V143.158Z" fill="white"/>
<path d="M384.715 198.477H151.807V199.579H384.715V198.477Z" fill="white"/>
<path d="M384.715 187.403H151.807V188.505H384.715V187.403Z" fill="white"/>
<path d="M384.715 176.346H151.807V177.448H384.715V176.346Z" fill="white"/>
<path d="M384.715 231.647H151.807V232.749H384.715V231.647Z" fill="white"/>
<path d="M384.715 220.591H151.807V221.693H384.715V220.591Z" fill="white"/>
<path d="M384.715 209.534H151.807V210.636H384.715V209.534Z" fill="white"/>
<path d="M152.312 243.499L151.338 243.011C159.313 226.697 168.821 217.375 179.556 215.279C185.763 214.069 190.021 215.676 194.152 217.23C198.555 218.892 202.704 220.464 209.055 218.712C215.19 217.031 218.816 213.761 223.002 209.967C227.531 205.866 232.673 201.223 242.253 197.303C252.79 193.003 259.772 194.539 266.502 196.038C272.546 197.375 278.265 198.64 286.024 195.171C293.998 191.594 298.076 184.169 302.406 176.328C307.223 167.584 312.69 157.665 324.508 151.035C332.952 146.302 343.2 144.676 354.963 146.175L354.819 147.259C343.29 145.796 333.258 147.386 325.031 151.992C313.484 158.46 308.107 168.234 303.362 176.852C298.942 184.873 294.774 192.443 286.457 196.183C278.374 199.814 272.492 198.513 266.249 197.122C259.664 195.659 252.862 194.159 242.65 198.333C233.25 202.181 228.18 206.752 223.706 210.799C219.411 214.683 215.695 218.043 209.308 219.796C202.596 221.638 198.085 219.922 193.719 218.278C189.732 216.778 185.618 215.225 179.718 216.363C169.326 218.386 160.106 227.51 152.276 243.499H152.312Z" fill="#7283F7"/>
<path d="M152.204 243.643L151.41 242.884C161.153 232.749 171.636 227.04 182.551 225.92C191.5 225.017 196.895 227.528 202.109 229.967C207.017 232.261 211.653 234.447 218.942 233.291C227.639 231.918 233.07 226.86 238.825 221.53C245.374 215.442 252.808 208.54 266.34 206.192C270.381 205.487 274.549 205.27 278.771 205.487C290.173 206.119 296.254 209.986 302.117 213.725C306.682 216.616 310.976 219.362 317.598 220.609C326.872 222.361 333.529 219.759 339.988 217.212C346.844 214.52 353.953 211.738 363.894 214.556C370.552 216.435 376.686 220.265 382.117 225.956L381.323 226.715C376.019 221.169 370.047 217.447 363.588 215.604C354.007 212.894 347.386 215.478 340.385 218.242C333.8 220.825 326.98 223.499 317.399 221.693C310.579 220.392 305.997 217.483 301.54 214.647C295.785 210.979 289.831 207.203 278.717 206.571C274.657 206.336 270.435 206.571 266.538 207.257C253.331 209.552 246.331 216.056 239.583 222.325C233.701 227.781 228.144 232.948 219.123 234.375C211.509 235.586 206.728 233.345 201.658 230.961C196.588 228.594 191.338 226.137 182.677 227.004C172.014 228.088 161.766 233.689 152.204 243.643Z" fill="url(#paint1_linear_898_1594)"/>
<path d="M384.715 243.806H151.266V138.894H152.366V242.704H384.715V243.806Z" fill="white"/>
<path d="M244.257 251.502H236.336V259.433H244.257V251.502Z" fill="#7283F7"/>
<path d="M287.106 254.917H248.279V256.019H287.106V254.917Z" fill="white"/>
<path d="M362.054 245.251C350.759 245.233 339.447 245.215 328.152 245.179C328.459 241.782 332.663 196.165 334.792 190.04C335.369 188.414 336.326 187.168 336.326 187.168C338.761 184.06 342.514 183.338 343.452 183.139C346.501 182.561 349.37 183.121 351.03 183.825C352.383 184.422 353.61 185.397 354.693 187.095C356.316 189.571 357.633 193.563 358.77 199.959C359.492 204.186 360.123 209.462 360.719 216.038C361.368 223.644 362.018 233.544 362.072 245.251H362.054Z" fill="#7283F7"/>
<path d="M318.392 242.885C316.876 247.13 316.028 247.582 315.613 250.021C315.505 250.671 314.747 255.35 316.876 256.543C317.742 257.031 319.023 256.904 319.926 256.38C320.088 256.29 320.864 255.82 321.405 254.628C322.181 252.929 321.712 251.466 321.549 249.84C321.549 249.84 321.441 248.648 322.343 243.842C323.57 237.284 333.981 216.056 339.357 201.007C340.62 197.448 342.659 191.522 340.079 188.667C339.934 188.505 338.635 187.114 337.12 187.312C335.027 187.583 333.854 190.673 333.313 192.154C331.04 198.351 329.271 203.211 327.503 208.811C327.503 208.811 324.635 221.53 319.619 239.018C319.168 240.608 318.897 241.548 318.41 242.885H318.392Z" fill="#F7B690"/>
<path d="M361.404 339.612H353.772C350.795 319.667 347.836 299.703 344.859 279.758C346.501 268.25 348.143 256.741 349.785 245.233C353.862 245.233 357.958 245.233 362.036 245.251C361.819 276.705 361.621 308.158 361.404 339.612Z" fill="#3A3B8E"/>
<path d="M350.093 245.215C345.6 276.741 341.09 308.267 336.597 339.793H328.821C328.009 324.707 327.504 308.935 327.396 292.477C327.269 276.018 327.54 260.246 328.135 245.161C335.461 245.161 342.768 245.197 350.093 245.197V245.215Z" fill="#4B4AA8"/>
<path d="M370.372 150.204C370.264 150.692 369.813 151.035 369.326 150.927C369.253 150.909 355.126 147.06 355.126 147.06C354.964 147.006 354.874 146.862 354.928 146.699C354.982 146.536 355.126 146.446 355.271 146.464L369.686 149.138C370.174 149.246 370.48 149.698 370.408 150.186L370.372 150.204Z" fill="#A8A3D2"/>
<path d="M365.646 153.889C365.375 154.63 365.447 155.136 365.718 156.906C365.952 159.038 366.024 161.152 366.349 163.302C366.8 166.193 367.36 175.515 367.378 178.442C367.378 181.657 366.656 188.938 358.753 199.941C357.617 193.545 356.3 189.552 354.676 187.077C358.05 182.507 359.511 178.46 360.233 175.786C361.911 169.481 360.973 169.625 361.46 161.875C362.037 152.552 361.676 151.378 361.46 150.692C361.333 150.348 360.973 149.427 360.882 148.632C360.81 148.18 360.846 147.747 361.009 147.53L361.081 147.458C361.351 147.259 361.875 147.313 362.109 147.53C362.199 147.62 362.235 147.675 362.254 147.765C362.344 147.964 362.344 148.217 362.524 148.56C362.669 148.849 362.903 149.066 363.047 149.192C363.39 149.282 363.769 149.391 364.094 149.499C364.184 149.517 364.274 149.553 364.383 149.571L368.226 150.601C367.576 151.758 366.187 152.227 365.627 153.871L365.646 153.889Z" fill="#F7B690"/>
<path d="M342.351 178.731C342.225 179.381 342.027 179.923 341.81 180.393C341.594 180.429 341.323 180.483 341.07 180.501C341.07 180.501 340.042 180.519 338.995 179.905C336.812 178.568 334.864 170.637 337.354 165.578C338.238 167.71 339.609 168.595 340.529 169.607C342.875 172.191 342.875 176.418 342.369 178.731H342.351Z" fill="#F7B690"/>
<path d="M362.271 207.203C360.304 210.094 357.273 211.033 356.064 211.431C355.27 211.666 349.154 213.508 344.102 209.606C343.777 209.335 339.97 206.318 339.393 201.494C338.96 197.682 340.999 196.653 340.44 192.064C340.043 188.739 338.888 188.468 339.086 185.957C339.321 183.157 340.854 182.525 341.829 180.393C342.045 179.905 342.244 179.381 342.37 178.731C342.875 176.436 342.875 172.209 340.53 169.607C339.61 168.595 338.238 167.692 337.354 165.578C336.975 164.675 336.777 164.169 336.903 163.591C337.444 160.99 343.651 159.345 348.486 160.899C348.829 161.008 353.556 162.615 355.487 167.006C356.281 168.866 356.407 170.745 356.425 171.342C356.443 171.847 356.389 172.173 356.389 172.895C356.389 172.895 356.425 174.539 356.84 176.165C357.526 178.821 359.24 179.634 360.232 182.001C361.351 184.765 359.799 185.488 360.358 189.336C360.954 193.256 362.65 193.148 363.57 197.158C363.876 198.568 364.977 203.265 362.271 207.203Z" fill="#1A1B75"/>
<path d="M360.538 339.612V349.476C360.538 349.765 360.304 350 360.015 350H345.184C344.914 350 344.733 349.819 344.661 349.603C344.625 349.368 344.733 349.097 344.95 348.988C347.422 347.778 349.496 346.947 350.994 346.387C351.084 346.369 351.138 346.314 351.229 346.296C352.888 345.664 354.025 345.303 354.639 344.201C355.017 343.496 354.963 342.9 354.837 340.732C354.819 340.425 354.819 340.045 354.765 339.612H360.538Z" fill="#F7B690"/>
<path d="M360.538 346.369V349.458C360.538 349.747 360.304 349.982 360.015 349.982H345.184C344.914 349.982 344.733 349.801 344.661 349.584C344.625 349.35 344.733 349.079 344.95 348.97C347.422 347.76 349.496 346.929 350.994 346.369H360.556H360.538Z" fill="#1A1B75"/>
<path d="M335.713 339.811V349.476C335.713 349.765 335.497 350 335.19 350H320.359C320.125 350 319.908 349.819 319.854 349.603C319.782 349.368 319.89 349.097 320.125 348.988C322.615 347.778 324.671 346.947 326.187 346.387C326.277 346.369 326.367 346.314 326.422 346.296C328.081 345.664 329.218 345.303 329.813 344.201C330.192 343.496 330.138 342.9 330.03 340.732C330.012 340.461 329.994 340.154 329.994 339.811H335.731H335.713Z" fill="#F7B690"/>
<path d="M335.713 346.369V349.458C335.713 349.747 335.497 349.982 335.19 349.982H320.359C320.125 349.982 319.908 349.801 319.854 349.584C319.782 349.35 319.89 349.079 320.125 348.97C322.615 347.76 324.671 346.929 326.187 346.369H335.731H335.713Z" fill="#1A1B75"/>
<path d="M104.862 144.206H97.6995C93.0085 134.595 88.3175 124.947 83.6445 115.3C85.0157 108.182 86.2065 101.244 87.2169 94.5776C87.253 94.4331 87.253 94.2705 87.2891 94.0898C87.3071 93.9634 87.3252 93.855 87.3612 93.7104C87.5056 92.5181 87.668 91.3437 87.7762 90.2236C93.4956 108.218 99.1609 126.212 104.862 144.206Z" fill="#3A3B8E"/>
<path d="M53.2969 21.1557C52.1241 21.3906 51.1498 21.0293 51.1498 21.0293C50.1936 20.6499 49.6343 19.9092 49.3997 19.5117C48.8043 20.8847 48.227 22.2759 47.6496 23.6308C47.1264 23.6489 46.2423 23.6128 45.2861 23.2334C44.9072 23.0888 44.5824 22.9263 44.2937 22.7456C43.6983 22.4204 43.3014 22.041 43.0488 21.7881C45.1778 19.8369 45.7913 19.2768 46.3686 18.2651C46.964 17.2715 47.6135 15.6997 47.6857 13.3149C47.6135 13.333 46.6573 13.5317 45.9717 12.8271C45.8995 12.7549 45.4304 12.249 45.5206 11.5083C45.5928 10.7856 46.2062 10.1353 46.7836 10.0811C47.4331 10.0449 47.9563 10.605 48.2631 10.876C50.4823 12.8091 56.3821 11.6167 59.5395 8.23828C60.2251 13.8027 55.7686 20.6138 53.2788 21.1377L53.2969 21.1557Z" fill="#F7B690"/>
<path d="M53.4784 74.8671H26.6855C27.2088 70.9286 29.1573 57.3427 29.2295 56.8911C32.1884 37.9214 34.2272 30.7851 39.8023 24.751C41.0653 23.396 42.238 22.3843 43.0138 21.752C43.3205 22.0591 43.7175 22.4385 44.3129 22.7637C44.6015 22.9443 44.9263 23.0889 45.3052 23.2515C46.2614 23.6309 47.1455 23.667 47.6687 23.6489C48.5709 26.8286 49.4008 29.4121 49.9962 31.1645C51.5478 35.8979 52.3597 37.6504 52.3237 40.4868C52.2876 43.1967 51.5117 45.184 51.2592 45.9067C49.9962 49.5019 49.5993 57.144 53.5144 74.9032L53.4784 74.8671Z" fill="#FF457C"/>
<path d="M42.7961 26.5394C45.1235 27.8583 44.6905 32.7001 42.7239 47.2796C42.1646 51.3807 41.6774 54.8675 41.2986 57.5594C44.8709 59.1312 47.9381 60.3416 50.2656 61.2269C55.7504 63.3045 60.9105 65.2557 65.2948 65.888C65.7098 65.9422 66.7382 66.1229 68.777 66.5384C71.5375 67.0804 72.4937 67.3695 73.5401 67.9476C74.6949 68.5799 75.182 69.158 75.3083 69.3026C75.8315 69.9168 76.0661 70.5853 76.5352 71.9041C77.311 74.0902 77.0223 74.4154 76.9141 74.5057C76.7878 74.596 76.6615 74.6141 76.6254 74.6141C75.5428 74.6321 75.0196 70.6214 73.9551 70.6033C73.4139 70.6033 73.4499 71.6512 72.5117 72.0848C70.9781 72.7894 68.5966 71.0369 68.3259 70.8563C67.514 70.2601 67.1893 69.7542 66.2511 69.4832C65.5835 69.2845 64.9701 69.3206 64.5551 69.3748C56.6706 68.5799 50.2115 67.3514 45.5385 66.3216C36.8421 64.4066 35.0018 63.2503 33.811 61.5521C31.9887 58.9325 32.9991 56.8368 34.677 45.3827C36.4993 33.0433 36.4813 27.768 39.8552 26.5033C40.0897 26.413 41.5331 25.871 42.7419 26.5575L42.7961 26.5394Z" fill="#F7B690"/>
<path d="M60.6586 6.54007C60.5684 7.15432 60.2076 7.55178 59.558 8.22024C56.4006 11.6167 50.5008 12.791 48.2816 10.876C47.9749 10.605 47.4517 10.0449 46.8021 10.0811C46.2067 10.1172 45.5933 10.7857 45.5392 11.5083C45.449 12.249 45.9361 12.7549 45.9902 12.8272C46.6758 13.5318 47.6321 13.333 47.7042 13.315C47.6321 15.6997 46.9826 17.2896 46.3872 18.2651C45.7918 19.2949 45.1603 19.8731 42.9591 21.8965C42.4359 22.4023 39.5672 25.1123 39.1161 25.5278C34.0643 31.4175 32.0616 38.7163 29.247 56.8911C28.0381 57.0175 26.3061 57.0175 24.8266 56.06C24.5019 55.8432 23.0585 54.8496 22.2285 52.2661C19.6304 44.2627 26.3783 32.4111 28.6877 28.6172C31.9894 23.1611 31.7549 24.7871 35.0386 19.5659C41.9307 8.59963 41.9848 2.04154 47.4517 0.397497C49.3281 -0.180627 51.0601 -0.0360962 52.3772 0.198767C56.4728 0.704625 61.0014 3.97464 60.6586 6.54007Z" fill="#1A1B75"/>
<path d="M87.8302 89.6274C87.8121 89.8262 87.7941 90.0249 87.758 90.2236C87.6497 91.3437 87.4874 92.518 87.325 93.7104C87.325 93.8369 87.3069 93.9453 87.2889 94.0898C87.2709 94.2705 87.2709 94.415 87.2528 94.5776C86.2244 101.262 85.0336 108.182 83.6624 115.3C83.1392 117.956 82.5979 120.647 82.0025 123.357C80.4689 130.53 78.8271 137.413 77.095 144.007H70.6539C70.9245 127.549 71.1771 111.072 71.4478 94.6137C61.0554 94.6137 50.6811 94.5776 40.2887 94.5776C36.554 94.2524 32.747 93.7827 29.8242 90.874C24.7723 85.8154 26.2338 77.1978 26.7029 74.8853H56.2742C56.7253 74.8853 60.4239 74.9936 67.8754 75.1924C80.1441 75.5718 83.1031 75.6982 85.3403 77.8301C88.624 80.9917 88.1549 86.4116 87.8302 89.6636V89.6274Z" fill="#4B4AA8"/>
<path d="M86.1351 77.1795L60.1181 75.3006C59.5227 75.2645 59.0536 74.7225 59.1078 74.1263C59.1439 73.5301 59.6671 73.0604 60.2805 73.1146L85.1248 74.9032L86.9831 50.2967C87.0192 49.7005 87.5605 49.2308 88.1559 49.285C88.7513 49.3392 89.2023 49.8631 89.1662 50.4593L87.2357 76.1497C87.1996 76.7279 86.7125 77.1614 86.1532 77.1614L86.1351 77.1795Z" fill="#A49DCE"/>
<path d="M86.6749 152.263C86.6388 152.444 86.4584 152.571 86.2599 152.571H71.7719C71.5554 152.571 71.375 152.39 71.375 152.155V144.007H76.6073C76.5892 145.633 76.6073 146.464 76.932 147.078C77.4372 148.036 78.2672 148.415 80.2879 149.228C80.7931 149.427 81.3885 149.662 82.038 149.933C83.1025 150.348 84.618 150.981 86.4584 151.794C86.4764 151.812 86.5305 151.83 86.5666 151.884C86.6568 151.992 86.6929 152.119 86.6749 152.281V152.263Z" fill="#F7B690"/>
<path d="M86.6749 152.263C86.6388 152.444 86.4584 152.571 86.2599 152.571H71.7719C71.5554 152.571 71.375 152.39 71.375 152.155V149.21H80.2879C80.7931 149.409 81.3885 149.644 82.038 149.915C83.1025 150.33 84.618 150.963 86.4584 151.776C86.4764 151.794 86.5305 151.812 86.5666 151.866C86.6568 151.974 86.6929 152.101 86.6749 152.263Z" fill="#1A1B75"/>
<path d="M116.229 152.372C116.193 152.571 116.031 152.697 115.832 152.697H101.344C101.146 152.697 101.002 152.571 100.947 152.372C100.641 151.324 99.0169 145.886 98.5117 144.206H104.069C104.646 145.687 105.061 146.591 105.801 147.367C106.739 148.379 107.587 148.614 109.409 149.228C110.438 149.572 111.755 150.041 113.541 150.8C114.605 151.252 115.453 151.649 115.977 151.92C116.175 151.992 116.265 152.191 116.211 152.372H116.229Z" fill="#F7B690"/>
<path d="M116.23 152.372C116.194 152.571 116.031 152.697 115.833 152.697H101.345C101.146 152.697 101.002 152.571 100.948 152.372C100.641 151.324 100.316 150.276 100.01 149.21H109.428C110.456 149.553 111.773 150.023 113.56 150.782C114.624 151.234 115.472 151.631 115.995 151.902C116.194 151.974 116.284 152.173 116.23 152.354V152.372Z" fill="#1A1B75"/>
</g>
<defs>
<linearGradient id="paint0_linear_898_1594" x1="163.552" y1="249.244" x2="174.263" y2="258.227" gradientUnits="userSpaceOnUse">
<stop stop-color="#2AEBEB"/>
<stop offset="0.45" stop-color="#6174FF"/>
<stop offset="0.75" stop-color="#B63CFB"/>
<stop offset="1" stop-color="#FF47E3"/>
</linearGradient>
<linearGradient id="paint1_linear_898_1594" x1="151.428" y1="224.511" x2="382.117" y2="224.511" gradientUnits="userSpaceOnUse">
<stop stop-color="#2AEBEB"/>
<stop offset="0.45" stop-color="#6174FF"/>
<stop offset="0.75" stop-color="#B63CFB"/>
<stop offset="1" stop-color="#FF47E3"/>
</linearGradient>
<clipPath id="clip0_898_1594">
<rect width="395" height="350" fill="white"/>
</clipPath>
</defs>
</svg>
