<svg width="220" height="249" viewBox="0 0 220 249" fill="none" xmlns="http://www.w3.org/2000/svg">
<path opacity="0.25" d="M108.473 35.4855C131.456 35.4855 153.074 44.4797 169.342 60.8229C185.61 77.166 194.563 98.8838 194.563 121.973C194.563 145.061 185.61 166.779 169.342 183.122C153.074 199.465 131.456 208.46 108.473 208.46C85.4898 208.46 63.8717 199.52 47.6035 183.177C31.3353 166.834 22.3824 145.116 22.3824 121.973C22.3824 98.8289 31.3353 77.166 47.6035 60.8229C63.8717 44.4797 85.4898 35.4855 108.473 35.4855ZM108.473 13C48.5862 13 0 61.8101 0 121.973C0 182.135 48.5862 230.945 108.473 230.945C168.359 230.945 216.945 182.135 216.945 121.973C216.945 61.8101 168.414 13 108.473 13Z" fill="white"/>
<path d="M76.6332 99.8075C76.6332 100.501 76.5249 101.129 76.3082 101.692C76.0916 102.256 75.7449 102.754 75.2682 103.187C74.8132 103.599 74.2066 103.924 73.4482 104.162C72.6899 104.379 71.7799 104.487 70.7182 104.487H59.4082L58.0757 112.32C58.9641 112.168 59.8199 112.06 60.6432 111.995C61.4666 111.908 62.2682 111.865 63.0482 111.865C65.5399 111.865 67.7391 112.244 69.6457 113.002C71.5524 113.761 73.1557 114.801 74.4557 116.122C75.7557 117.422 76.7307 118.961 77.3807 120.737C78.0524 122.492 78.3882 124.377 78.3882 126.392C78.3882 128.927 77.9332 131.246 77.0232 133.347C76.1349 135.427 74.8891 137.226 73.2857 138.742C71.6824 140.259 69.7649 141.44 67.5332 142.285C65.3232 143.108 62.8966 143.52 60.2532 143.52C58.7149 143.52 57.2416 143.358 55.8332 143.033C54.4466 142.707 53.1357 142.274 51.9007 141.732C50.6874 141.169 49.5607 140.53 48.5207 139.815C47.4807 139.078 46.5382 138.298 45.6932 137.475L48.8132 133.315C49.1382 132.882 49.5174 132.557 49.9507 132.34C50.3841 132.102 50.8499 131.982 51.3482 131.982C51.9982 131.982 52.6049 132.167 53.1682 132.535C53.7532 132.882 54.3816 133.272 55.0532 133.705C55.7466 134.117 56.5482 134.496 57.4582 134.842C58.3682 135.189 59.4949 135.362 60.8382 135.362C62.1816 135.362 63.3299 135.146 64.2832 134.712C65.2366 134.257 66.0057 133.651 66.5907 132.892C67.1974 132.112 67.6307 131.213 67.8907 130.195C68.1724 129.155 68.3132 128.05 68.3132 126.88C68.3132 124.583 67.6632 122.839 66.3632 121.647C65.0632 120.434 63.2216 119.827 60.8382 119.827C58.7149 119.827 56.6349 120.228 54.5982 121.03L48.3582 119.34L52.3882 95.6475H76.6332V99.8075ZM104.263 113.002C105.975 113.002 107.665 113.284 109.333 113.847C111.002 114.411 112.497 115.277 113.818 116.447C115.14 117.617 116.202 119.102 117.003 120.9C117.827 122.677 118.238 124.778 118.238 127.205C118.238 129.415 117.827 131.517 117.003 133.51C116.18 135.482 115.01 137.215 113.493 138.71C111.998 140.183 110.189 141.353 108.066 142.22C105.942 143.087 103.592 143.52 101.013 143.52C98.37 143.52 95.9975 143.108 93.8958 142.285C91.7942 141.44 90.0067 140.27 88.5333 138.775C87.0817 137.28 85.9658 135.492 85.1858 133.412C84.4275 131.332 84.0483 129.047 84.0483 126.555C84.0483 124.193 84.5033 121.842 85.4133 119.502C86.3233 117.162 87.6667 114.779 89.4433 112.352L100.103 97.955C100.58 97.305 101.295 96.7633 102.248 96.33C103.202 95.875 104.285 95.6475 105.498 95.6475H114.468L100.428 112.417C100.212 112.656 99.995 112.905 99.7783 113.165C99.5833 113.403 99.3883 113.642 99.1933 113.88C99.9517 113.598 100.742 113.382 101.566 113.23C102.411 113.078 103.31 113.002 104.263 113.002ZM93.7333 127.92C93.7333 129.09 93.8742 130.141 94.1558 131.072C94.4375 132.004 94.8708 132.806 95.4558 133.477C96.0408 134.149 96.7775 134.669 97.6658 135.037C98.5542 135.384 99.605 135.557 100.818 135.557C101.858 135.557 102.822 135.362 103.711 134.972C104.621 134.582 105.401 134.052 106.051 133.38C106.701 132.687 107.21 131.885 107.578 130.975C107.968 130.043 108.163 129.036 108.163 127.952C108.163 126.739 107.979 125.656 107.611 124.702C107.264 123.749 106.766 122.947 106.116 122.297C105.466 121.647 104.675 121.149 103.743 120.802C102.833 120.456 101.815 120.282 100.688 120.282C99.67 120.282 98.7383 120.467 97.8933 120.835C97.0483 121.182 96.3117 121.691 95.6833 122.362C95.0767 123.034 94.6 123.836 94.2533 124.767C93.9067 125.699 93.7333 126.75 93.7333 127.92ZM143.918 107.12C143.918 108.853 143.604 110.435 142.976 111.865C142.348 113.295 141.513 114.53 140.473 115.57C139.433 116.588 138.22 117.379 136.833 117.942C135.468 118.506 134.038 118.787 132.543 118.787C130.897 118.787 129.38 118.506 127.993 117.942C126.628 117.379 125.437 116.588 124.418 115.57C123.422 114.53 122.642 113.295 122.078 111.865C121.515 110.435 121.233 108.853 121.233 107.12C121.233 105.322 121.515 103.697 122.078 102.245C122.642 100.772 123.422 99.515 124.418 98.475C125.437 97.435 126.628 96.6333 127.993 96.07C129.38 95.485 130.897 95.1925 132.543 95.1925C134.19 95.1925 135.707 95.485 137.093 96.07C138.502 96.6333 139.704 97.435 140.701 98.475C141.719 99.515 142.51 100.772 143.073 102.245C143.637 103.697 143.918 105.322 143.918 107.12ZM136.183 107.12C136.183 106.015 136.086 105.105 135.891 104.39C135.718 103.653 135.468 103.068 135.143 102.635C134.818 102.202 134.428 101.898 133.973 101.725C133.54 101.552 133.063 101.465 132.543 101.465C132.023 101.465 131.547 101.552 131.113 101.725C130.68 101.898 130.312 102.202 130.008 102.635C129.705 103.068 129.467 103.653 129.293 104.39C129.12 105.105 129.033 106.015 129.033 107.12C129.033 108.16 129.12 109.027 129.293 109.72C129.467 110.413 129.705 110.966 130.008 111.377C130.312 111.789 130.68 112.082 131.113 112.255C131.547 112.428 132.023 112.515 132.543 112.515C133.063 112.515 133.54 112.428 133.973 112.255C134.428 112.082 134.818 111.789 135.143 111.377C135.468 110.966 135.718 110.413 135.891 109.72C136.086 109.027 136.183 108.16 136.183 107.12ZM158.803 97.1425C159.128 96.7742 159.529 96.4383 160.006 96.135C160.483 95.81 161.143 95.6475 161.988 95.6475H169.333L133.648 141.57C133.323 141.982 132.912 142.328 132.413 142.61C131.937 142.87 131.352 143 130.658 143H123.118L158.803 97.1425ZM171.153 131.885C171.153 133.618 170.839 135.211 170.211 136.662C169.583 138.092 168.748 139.327 167.708 140.367C166.668 141.386 165.455 142.177 164.068 142.74C162.703 143.303 161.273 143.585 159.778 143.585C158.132 143.585 156.615 143.303 155.228 142.74C153.863 142.177 152.672 141.386 151.653 140.367C150.657 139.327 149.877 138.092 149.313 136.662C148.75 135.211 148.468 133.618 148.468 131.885C148.468 130.087 148.75 128.462 149.313 127.01C149.877 125.537 150.657 124.28 151.653 123.24C152.672 122.2 153.863 121.398 155.228 120.835C156.615 120.25 158.132 119.957 159.778 119.957C161.425 119.957 162.942 120.25 164.328 120.835C165.737 121.398 166.939 122.2 167.936 123.24C168.954 124.28 169.745 125.537 170.308 127.01C170.872 128.462 171.153 130.087 171.153 131.885ZM163.418 131.885C163.418 130.802 163.321 129.902 163.126 129.187C162.953 128.451 162.703 127.866 162.378 127.432C162.053 126.999 161.663 126.696 161.208 126.522C160.775 126.349 160.298 126.262 159.778 126.262C159.258 126.262 158.782 126.349 158.348 126.522C157.915 126.696 157.547 126.999 157.243 127.432C156.94 127.866 156.702 128.451 156.528 129.187C156.355 129.902 156.268 130.802 156.268 131.885C156.268 132.925 156.355 133.792 156.528 134.485C156.702 135.178 156.94 135.731 157.243 136.142C157.547 136.554 157.915 136.847 158.348 137.02C158.782 137.193 159.258 137.28 159.778 137.28C160.298 137.28 160.775 137.193 161.208 137.02C161.663 136.847 162.053 136.554 162.378 136.142C162.703 135.731 162.953 135.178 163.126 134.485C163.321 133.792 163.418 132.925 163.418 131.885Z" fill="#EEF8FF"/>
<path d="M54.0356 166.685V165.7C54.0356 165.637 54.039 165.577 54.0456 165.52C54.0556 165.463 54.0723 165.408 54.0956 165.355C54.029 165.438 53.9406 165.513 53.8306 165.58L52.9706 166.075L52.7506 165.7L53.6106 165.2C53.7306 165.13 53.8523 165.09 53.9756 165.08C53.909 165.073 53.8456 165.062 53.7856 165.045C53.729 165.025 53.6706 164.995 53.6106 164.955L52.7456 164.45L52.9656 164.075L53.8306 164.575C53.9473 164.642 54.0423 164.728 54.1156 164.835C54.0856 164.775 54.064 164.715 54.0506 164.655C54.0406 164.592 54.0356 164.527 54.0356 164.46V163.47H54.4756V164.455C54.4756 164.592 54.4523 164.712 54.4056 164.815C54.4423 164.765 54.4823 164.722 54.5256 164.685C54.5723 164.648 54.624 164.612 54.6806 164.575L55.5406 164.08L55.7606 164.455L54.9006 164.955C54.844 164.992 54.7873 165.02 54.7306 165.04C54.6773 165.06 54.6206 165.073 54.5606 165.08C54.6206 165.087 54.6773 165.1 54.7306 165.12C54.7873 165.137 54.844 165.163 54.9006 165.2L55.7656 165.705L55.5456 166.08L54.6806 165.58C54.6206 165.543 54.5673 165.507 54.5206 165.47C54.474 165.433 54.4323 165.388 54.3956 165.335C54.449 165.445 54.4756 165.565 54.4756 165.695V166.685H54.0356ZM62.0195 163.835V164.65H59.7045V171H58.7345V164.65H56.4095V163.835H62.0195ZM62.898 171V163.635H63.788V166.615C64.0046 166.385 64.2446 166.202 64.508 166.065C64.7713 165.925 65.0746 165.855 65.418 165.855C65.6946 165.855 65.938 165.902 66.148 165.995C66.3613 166.085 66.538 166.215 66.678 166.385C66.8213 166.552 66.9296 166.753 67.003 166.99C67.0763 167.227 67.113 167.488 67.113 167.775V171H66.223V167.775C66.223 167.392 66.1346 167.095 65.958 166.885C65.7846 166.672 65.518 166.565 65.158 166.565C64.8946 166.565 64.648 166.628 64.418 166.755C64.1913 166.882 63.9813 167.053 63.788 167.27V171H62.898ZM70.4596 165.855C70.7629 165.855 71.0429 165.907 71.2996 166.01C71.5563 166.11 71.7779 166.257 71.9646 166.45C72.1513 166.64 72.2963 166.877 72.3996 167.16C72.5063 167.44 72.5596 167.76 72.5596 168.12C72.5596 168.26 72.5446 168.353 72.5146 168.4C72.4846 168.447 72.4279 168.47 72.3446 168.47H68.9746C68.9813 168.79 69.0246 169.068 69.1046 169.305C69.1846 169.542 69.2946 169.74 69.4346 169.9C69.5746 170.057 69.7413 170.175 69.9346 170.255C70.1279 170.332 70.3446 170.37 70.5846 170.37C70.8079 170.37 70.9996 170.345 71.1596 170.295C71.3229 170.242 71.4629 170.185 71.5796 170.125C71.6963 170.065 71.7929 170.01 71.8696 169.96C71.9496 169.907 72.0179 169.88 72.0746 169.88C72.1479 169.88 72.2046 169.908 72.2446 169.965L72.4946 170.29C72.3846 170.423 72.2529 170.54 72.0996 170.64C71.9463 170.737 71.7813 170.817 71.6046 170.88C71.4313 170.943 71.2513 170.99 71.0646 171.02C70.8779 171.053 70.6929 171.07 70.5096 171.07C70.1596 171.07 69.8363 171.012 69.5396 170.895C69.2463 170.775 68.9913 170.602 68.7746 170.375C68.5613 170.145 68.3946 169.862 68.2746 169.525C68.1546 169.188 68.0946 168.802 68.0946 168.365C68.0946 168.012 68.1479 167.682 68.2546 167.375C68.3646 167.068 68.5213 166.803 68.7246 166.58C68.9279 166.353 69.1763 166.177 69.4696 166.05C69.7629 165.92 70.0929 165.855 70.4596 165.855ZM70.4796 166.51C70.0496 166.51 69.7113 166.635 69.4646 166.885C69.2179 167.132 69.0646 167.475 69.0046 167.915H71.7596C71.7596 167.708 71.7313 167.52 71.6746 167.35C71.6179 167.177 71.5346 167.028 71.4246 166.905C71.3146 166.778 71.1796 166.682 71.0196 166.615C70.8629 166.545 70.6829 166.51 70.4796 166.51ZM79.4423 164.955C79.4123 165.005 79.3807 165.043 79.3473 165.07C79.314 165.093 79.2707 165.105 79.2173 165.105C79.1607 165.105 79.094 165.077 79.0173 165.02C78.944 164.963 78.849 164.902 78.7323 164.835C78.619 164.765 78.4807 164.702 78.3173 164.645C78.1573 164.588 77.9623 164.56 77.7323 164.56C77.5157 164.56 77.324 164.59 77.1573 164.65C76.9907 164.707 76.8507 164.785 76.7373 164.885C76.6273 164.985 76.544 165.103 76.4873 165.24C76.4307 165.373 76.4023 165.518 76.4023 165.675C76.4023 165.875 76.4507 166.042 76.5473 166.175C76.6473 166.305 76.7773 166.417 76.9373 166.51C77.1007 166.603 77.284 166.685 77.4873 166.755C77.694 166.822 77.904 166.892 78.1173 166.965C78.334 167.038 78.544 167.122 78.7473 167.215C78.954 167.305 79.1373 167.42 79.2973 167.56C79.4607 167.7 79.5907 167.872 79.6873 168.075C79.7873 168.278 79.8373 168.528 79.8373 168.825C79.8373 169.138 79.784 169.433 79.6773 169.71C79.5707 169.983 79.414 170.222 79.2073 170.425C79.004 170.628 78.7523 170.788 78.4523 170.905C78.1557 171.022 77.8173 171.08 77.4373 171.08C76.974 171.08 76.5507 170.997 76.1673 170.83C75.7873 170.66 75.4623 170.432 75.1923 170.145L75.4723 169.685C75.499 169.648 75.5307 169.618 75.5673 169.595C75.6073 169.568 75.6507 169.555 75.6973 169.555C75.7673 169.555 75.8473 169.593 75.9373 169.67C76.0273 169.743 76.139 169.825 76.2723 169.915C76.409 170.005 76.5723 170.088 76.7623 170.165C76.9557 170.238 77.1907 170.275 77.4673 170.275C77.6973 170.275 77.9023 170.243 78.0823 170.18C78.2623 170.117 78.414 170.028 78.5373 169.915C78.664 169.798 78.7607 169.66 78.8273 169.5C78.894 169.34 78.9273 169.162 78.9273 168.965C78.9273 168.748 78.8773 168.572 78.7773 168.435C78.6807 168.295 78.5523 168.178 78.3923 168.085C78.2323 167.992 78.049 167.913 77.8423 167.85C77.639 167.783 77.429 167.717 77.2123 167.65C76.999 167.58 76.789 167.5 76.5823 167.41C76.379 167.32 76.1973 167.203 76.0373 167.06C75.8773 166.917 75.7473 166.738 75.6473 166.525C75.5507 166.308 75.5023 166.042 75.5023 165.725C75.5023 165.472 75.5507 165.227 75.6473 164.99C75.7473 164.753 75.8907 164.543 76.0773 164.36C76.264 164.177 76.494 164.03 76.7673 163.92C77.044 163.81 77.3607 163.755 77.7173 163.755C78.1173 163.755 78.4823 163.818 78.8123 163.945C79.1423 164.072 79.4307 164.255 79.6773 164.495L79.4423 164.955ZM82.4701 171.08C82.0701 171.08 81.7617 170.968 81.5451 170.745C81.3317 170.522 81.2251 170.2 81.2251 169.78V166.68H80.6151C80.5617 166.68 80.5167 166.665 80.4801 166.635C80.4434 166.602 80.4251 166.552 80.4251 166.485V166.13L81.2551 166.025L81.4601 164.46C81.4667 164.41 81.4884 164.37 81.5251 164.34C81.5617 164.307 81.6084 164.29 81.6651 164.29H82.1151V166.035H83.5651V166.68H82.1151V169.72C82.1151 169.933 82.1667 170.092 82.2701 170.195C82.3734 170.298 82.5067 170.35 82.6701 170.35C82.7634 170.35 82.8434 170.338 82.9101 170.315C82.9801 170.288 83.0401 170.26 83.0901 170.23C83.1401 170.2 83.1817 170.173 83.2151 170.15C83.2517 170.123 83.2834 170.11 83.3101 170.11C83.3567 170.11 83.3984 170.138 83.4351 170.195L83.6951 170.62C83.5417 170.763 83.3567 170.877 83.1401 170.96C82.9234 171.04 82.7001 171.08 82.4701 171.08ZM88.3855 171H87.9905C87.9039 171 87.8339 170.987 87.7805 170.96C87.7272 170.933 87.6922 170.877 87.6755 170.79L87.5755 170.32C87.4422 170.44 87.3122 170.548 87.1855 170.645C87.0589 170.738 86.9255 170.818 86.7855 170.885C86.6455 170.948 86.4955 170.997 86.3355 171.03C86.1789 171.063 86.0039 171.08 85.8105 171.08C85.6139 171.08 85.4289 171.053 85.2555 171C85.0855 170.943 84.9372 170.86 84.8105 170.75C84.6839 170.64 84.5822 170.502 84.5055 170.335C84.4322 170.165 84.3955 169.965 84.3955 169.735C84.3955 169.535 84.4505 169.343 84.5605 169.16C84.6705 168.973 84.8472 168.808 85.0905 168.665C85.3372 168.522 85.6589 168.405 86.0555 168.315C86.4522 168.222 86.9372 168.168 87.5105 168.155V167.76C87.5105 167.367 87.4255 167.07 87.2555 166.87C87.0889 166.667 86.8405 166.565 86.5105 166.565C86.2939 166.565 86.1105 166.593 85.9605 166.65C85.8139 166.703 85.6855 166.765 85.5755 166.835C85.4689 166.902 85.3755 166.963 85.2955 167.02C85.2189 167.073 85.1422 167.1 85.0655 167.1C85.0055 167.1 84.9522 167.085 84.9055 167.055C84.8622 167.022 84.8272 166.982 84.8005 166.935L84.6405 166.65C84.9205 166.38 85.2222 166.178 85.5455 166.045C85.8689 165.912 86.2272 165.845 86.6205 165.845C86.9039 165.845 87.1555 165.892 87.3755 165.985C87.5955 166.078 87.7805 166.208 87.9305 166.375C88.0805 166.542 88.1939 166.743 88.2705 166.98C88.3472 167.217 88.3855 167.477 88.3855 167.76V171ZM86.0755 170.455C86.2322 170.455 86.3755 170.44 86.5055 170.41C86.6355 170.377 86.7572 170.332 86.8705 170.275C86.9872 170.215 87.0972 170.143 87.2005 170.06C87.3072 169.977 87.4105 169.882 87.5105 169.775V168.72C87.1005 168.733 86.7522 168.767 86.4655 168.82C86.1789 168.87 85.9455 168.937 85.7655 169.02C85.5855 169.103 85.4539 169.202 85.3705 169.315C85.2905 169.428 85.2505 169.555 85.2505 169.695C85.2505 169.828 85.2722 169.943 85.3155 170.04C85.3589 170.137 85.4172 170.217 85.4905 170.28C85.5639 170.34 85.6505 170.385 85.7505 170.415C85.8505 170.442 85.9589 170.455 86.0755 170.455ZM91.2689 171.08C90.8689 171.08 90.5606 170.968 90.3439 170.745C90.1306 170.522 90.0239 170.2 90.0239 169.78V166.68H89.4139C89.3606 166.68 89.3156 166.665 89.2789 166.635C89.2422 166.602 89.2239 166.552 89.2239 166.485V166.13L90.0539 166.025L90.2589 164.46C90.2656 164.41 90.2872 164.37 90.3239 164.34C90.3606 164.307 90.4072 164.29 90.4639 164.29H90.9139V166.035H92.3639V166.68H90.9139V169.72C90.9139 169.933 90.9656 170.092 91.0689 170.195C91.1722 170.298 91.3056 170.35 91.4689 170.35C91.5622 170.35 91.6422 170.338 91.7089 170.315C91.7789 170.288 91.8389 170.26 91.8889 170.23C91.9389 170.2 91.9806 170.173 92.0139 170.15C92.0506 170.123 92.0822 170.11 92.1089 170.11C92.1556 170.11 92.1972 170.138 92.2339 170.195L92.4939 170.62C92.3406 170.763 92.1556 170.877 91.9389 170.96C91.7222 171.04 91.4989 171.08 91.2689 171.08ZM95.4694 165.855C95.7727 165.855 96.0527 165.907 96.3094 166.01C96.566 166.11 96.7877 166.257 96.9744 166.45C97.161 166.64 97.306 166.877 97.4094 167.16C97.516 167.44 97.5694 167.76 97.5694 168.12C97.5694 168.26 97.5544 168.353 97.5244 168.4C97.4944 168.447 97.4377 168.47 97.3544 168.47H93.9844C93.991 168.79 94.0344 169.068 94.1144 169.305C94.1944 169.542 94.3044 169.74 94.4444 169.9C94.5844 170.057 94.751 170.175 94.9444 170.255C95.1377 170.332 95.3544 170.37 95.5944 170.37C95.8177 170.37 96.0094 170.345 96.1694 170.295C96.3327 170.242 96.4727 170.185 96.5894 170.125C96.706 170.065 96.8027 170.01 96.8794 169.96C96.9594 169.907 97.0277 169.88 97.0844 169.88C97.1577 169.88 97.2144 169.908 97.2544 169.965L97.5044 170.29C97.3944 170.423 97.2627 170.54 97.1094 170.64C96.956 170.737 96.791 170.817 96.6144 170.88C96.441 170.943 96.261 170.99 96.0744 171.02C95.8877 171.053 95.7027 171.07 95.5194 171.07C95.1694 171.07 94.846 171.012 94.5494 170.895C94.256 170.775 94.001 170.602 93.7844 170.375C93.571 170.145 93.4044 169.862 93.2844 169.525C93.1644 169.188 93.1044 168.802 93.1044 168.365C93.1044 168.012 93.1577 167.682 93.2644 167.375C93.3744 167.068 93.531 166.803 93.7344 166.58C93.9377 166.353 94.186 166.177 94.4794 166.05C94.7727 165.92 95.1027 165.855 95.4694 165.855ZM95.4894 166.51C95.0594 166.51 94.721 166.635 94.4744 166.885C94.2277 167.132 94.0744 167.475 94.0144 167.915H96.7694C96.7694 167.708 96.741 167.52 96.6844 167.35C96.6277 167.177 96.5444 167.028 96.4344 166.905C96.3244 166.778 96.1894 166.682 96.0294 166.615C95.8727 166.545 95.6927 166.51 95.4894 166.51ZM102.692 165.855C103.062 165.855 103.395 165.917 103.692 166.04C103.992 166.163 104.245 166.338 104.452 166.565C104.662 166.792 104.822 167.067 104.932 167.39C105.045 167.71 105.102 168.068 105.102 168.465C105.102 168.865 105.045 169.225 104.932 169.545C104.822 169.865 104.662 170.138 104.452 170.365C104.245 170.592 103.992 170.767 103.692 170.89C103.395 171.01 103.062 171.07 102.692 171.07C102.322 171.07 101.987 171.01 101.687 170.89C101.39 170.767 101.137 170.592 100.927 170.365C100.717 170.138 100.555 169.865 100.442 169.545C100.329 169.225 100.272 168.865 100.272 168.465C100.272 168.068 100.329 167.71 100.442 167.39C100.555 167.067 100.717 166.792 100.927 166.565C101.137 166.338 101.39 166.163 101.687 166.04C101.987 165.917 102.322 165.855 102.692 165.855ZM102.692 170.375C103.192 170.375 103.565 170.208 103.812 169.875C104.059 169.538 104.182 169.07 104.182 168.47C104.182 167.867 104.059 167.397 103.812 167.06C103.565 166.723 103.192 166.555 102.692 166.555C102.439 166.555 102.219 166.598 102.032 166.685C101.845 166.772 101.689 166.897 101.562 167.06C101.439 167.223 101.345 167.425 101.282 167.665C101.222 167.902 101.192 168.17 101.192 168.47C101.192 168.77 101.222 169.038 101.282 169.275C101.345 169.512 101.439 169.712 101.562 169.875C101.689 170.035 101.845 170.158 102.032 170.245C102.219 170.332 102.439 170.375 102.692 170.375ZM106.399 171V166.695L105.839 166.63C105.769 166.613 105.71 166.588 105.664 166.555C105.62 166.518 105.599 166.467 105.599 166.4V166.035H106.399V165.545C106.399 165.255 106.439 164.998 106.519 164.775C106.602 164.548 106.719 164.358 106.869 164.205C107.022 164.048 107.205 163.93 107.419 163.85C107.632 163.77 107.872 163.73 108.139 163.73C108.365 163.73 108.575 163.763 108.769 163.83L108.749 164.275C108.745 164.342 108.717 164.382 108.664 164.395C108.61 164.408 108.535 164.415 108.439 164.415H108.284C108.13 164.415 107.99 164.435 107.864 164.475C107.74 164.515 107.634 164.58 107.544 164.67C107.454 164.76 107.384 164.878 107.334 165.025C107.287 165.172 107.264 165.353 107.264 165.57V166.035H108.729V166.68H107.294V171H106.399ZM117.536 171H116.786C116.7 171 116.63 170.978 116.576 170.935C116.523 170.892 116.483 170.837 116.456 170.77L115.786 169.04H112.571L111.901 170.77C111.878 170.83 111.838 170.883 111.781 170.93C111.725 170.977 111.655 171 111.571 171H110.821L113.686 163.835H114.671L117.536 171ZM112.841 168.34H115.516L114.391 165.425C114.318 165.245 114.246 165.02 114.176 164.75C114.14 164.887 114.103 165.013 114.066 165.13C114.033 165.243 114 165.343 113.966 165.43L112.841 168.34ZM119.588 171H118.618V163.835H119.588V171ZM127.108 164.955C127.078 165.005 127.047 165.043 127.013 165.07C126.98 165.093 126.937 165.105 126.883 165.105C126.827 165.105 126.76 165.077 126.683 165.02C126.61 164.963 126.515 164.902 126.398 164.835C126.285 164.765 126.147 164.702 125.983 164.645C125.823 164.588 125.628 164.56 125.398 164.56C125.182 164.56 124.99 164.59 124.823 164.65C124.657 164.707 124.517 164.785 124.403 164.885C124.293 164.985 124.21 165.103 124.153 165.24C124.097 165.373 124.068 165.518 124.068 165.675C124.068 165.875 124.117 166.042 124.213 166.175C124.313 166.305 124.443 166.417 124.603 166.51C124.767 166.603 124.95 166.685 125.153 166.755C125.36 166.822 125.57 166.892 125.783 166.965C126 167.038 126.21 167.122 126.413 167.215C126.62 167.305 126.803 167.42 126.963 167.56C127.127 167.7 127.257 167.872 127.353 168.075C127.453 168.278 127.503 168.528 127.503 168.825C127.503 169.138 127.45 169.433 127.343 169.71C127.237 169.983 127.08 170.222 126.873 170.425C126.67 170.628 126.418 170.788 126.118 170.905C125.822 171.022 125.483 171.08 125.103 171.08C124.64 171.08 124.217 170.997 123.833 170.83C123.453 170.66 123.128 170.432 122.858 170.145L123.138 169.685C123.165 169.648 123.197 169.618 123.233 169.595C123.273 169.568 123.317 169.555 123.363 169.555C123.433 169.555 123.513 169.593 123.603 169.67C123.693 169.743 123.805 169.825 123.938 169.915C124.075 170.005 124.238 170.088 124.428 170.165C124.622 170.238 124.857 170.275 125.133 170.275C125.363 170.275 125.568 170.243 125.748 170.18C125.928 170.117 126.08 170.028 126.203 169.915C126.33 169.798 126.427 169.66 126.493 169.5C126.56 169.34 126.593 169.162 126.593 168.965C126.593 168.748 126.543 168.572 126.443 168.435C126.347 168.295 126.218 168.178 126.058 168.085C125.898 167.992 125.715 167.913 125.508 167.85C125.305 167.783 125.095 167.717 124.878 167.65C124.665 167.58 124.455 167.5 124.248 167.41C124.045 167.32 123.863 167.203 123.703 167.06C123.543 166.917 123.413 166.738 123.313 166.525C123.217 166.308 123.168 166.042 123.168 165.725C123.168 165.472 123.217 165.227 123.313 164.99C123.413 164.753 123.557 164.543 123.743 164.36C123.93 164.177 124.16 164.03 124.433 163.92C124.71 163.81 125.027 163.755 125.383 163.755C125.783 163.755 126.148 163.818 126.478 163.945C126.808 164.072 127.097 164.255 127.343 164.495L127.108 164.955ZM129.371 165.935V169.165C129.371 169.548 129.459 169.845 129.636 170.055C129.813 170.265 130.079 170.37 130.436 170.37C130.696 170.37 130.941 170.308 131.171 170.185C131.401 170.062 131.613 169.89 131.806 169.67V165.935H132.696V171H132.166C132.039 171 131.959 170.938 131.926 170.815L131.856 170.27C131.636 170.513 131.389 170.71 131.116 170.86C130.843 171.007 130.529 171.08 130.176 171.08C129.899 171.08 129.654 171.035 129.441 170.945C129.231 170.852 129.054 170.722 128.911 170.555C128.768 170.388 128.659 170.187 128.586 169.95C128.516 169.713 128.481 169.452 128.481 169.165V165.935H129.371ZM134.158 171V165.935H134.668C134.764 165.935 134.831 165.953 134.868 165.99C134.904 166.027 134.929 166.09 134.943 166.18L135.003 166.97C135.176 166.617 135.389 166.342 135.643 166.145C135.899 165.945 136.199 165.845 136.543 165.845C136.683 165.845 136.809 165.862 136.923 165.895C137.036 165.925 137.141 165.968 137.238 166.025L137.123 166.69C137.099 166.773 137.048 166.815 136.968 166.815C136.921 166.815 136.849 166.8 136.753 166.77C136.656 166.737 136.521 166.72 136.348 166.72C136.038 166.72 135.778 166.81 135.568 166.99C135.361 167.17 135.188 167.432 135.048 167.775V171H134.158ZM137.551 165.935H138.281C138.351 165.935 138.409 165.953 138.456 165.99C138.503 166.027 138.536 166.07 138.556 166.12L139.841 169.38C139.888 169.5 139.924 169.62 139.951 169.74C139.978 169.86 140.003 169.978 140.026 170.095C140.053 169.978 140.081 169.86 140.111 169.74C140.141 169.62 140.179 169.5 140.226 169.38L141.526 166.12C141.546 166.067 141.578 166.023 141.621 165.99C141.668 165.953 141.724 165.935 141.791 165.935H142.486L140.421 171H139.616L137.551 165.935ZM145.186 165.855C145.49 165.855 145.77 165.907 146.026 166.01C146.283 166.11 146.505 166.257 146.691 166.45C146.878 166.64 147.023 166.877 147.126 167.16C147.233 167.44 147.286 167.76 147.286 168.12C147.286 168.26 147.271 168.353 147.241 168.4C147.211 168.447 147.155 168.47 147.071 168.47H143.701C143.708 168.79 143.751 169.068 143.831 169.305C143.911 169.542 144.021 169.74 144.161 169.9C144.301 170.057 144.468 170.175 144.661 170.255C144.855 170.332 145.071 170.37 145.311 170.37C145.535 170.37 145.726 170.345 145.886 170.295C146.05 170.242 146.19 170.185 146.306 170.125C146.423 170.065 146.52 170.01 146.596 169.96C146.676 169.907 146.745 169.88 146.801 169.88C146.875 169.88 146.931 169.908 146.971 169.965L147.221 170.29C147.111 170.423 146.98 170.54 146.826 170.64C146.673 170.737 146.508 170.817 146.331 170.88C146.158 170.943 145.978 170.99 145.791 171.02C145.605 171.053 145.42 171.07 145.236 171.07C144.886 171.07 144.563 171.012 144.266 170.895C143.973 170.775 143.718 170.602 143.501 170.375C143.288 170.145 143.121 169.862 143.001 169.525C142.881 169.188 142.821 168.802 142.821 168.365C142.821 168.012 142.875 167.682 142.981 167.375C143.091 167.068 143.248 166.803 143.451 166.58C143.655 166.353 143.903 166.177 144.196 166.05C144.49 165.92 144.82 165.855 145.186 165.855ZM145.206 166.51C144.776 166.51 144.438 166.635 144.191 166.885C143.945 167.132 143.791 167.475 143.731 167.915H146.486C146.486 167.708 146.458 167.52 146.401 167.35C146.345 167.177 146.261 167.028 146.151 166.905C146.041 166.778 145.906 166.682 145.746 166.615C145.59 166.545 145.41 166.51 145.206 166.51ZM149.783 172.495C149.753 172.562 149.715 172.615 149.668 172.655C149.625 172.695 149.557 172.715 149.463 172.715H148.803L149.728 170.705L147.638 165.935H148.408C148.485 165.935 148.545 165.955 148.588 165.995C148.632 166.032 148.663 166.073 148.683 166.12L150.038 169.31C150.068 169.383 150.093 169.457 150.113 169.53C150.137 169.603 150.157 169.678 150.173 169.755C150.197 169.678 150.22 169.603 150.243 169.53C150.267 169.457 150.293 169.382 150.323 169.305L151.638 166.12C151.658 166.067 151.692 166.023 151.738 165.99C151.788 165.953 151.842 165.935 151.898 165.935H152.608L149.783 172.495ZM156.339 165.935V171H155.449V165.935H156.339ZM156.539 164.345C156.539 164.432 156.521 164.513 156.484 164.59C156.451 164.663 156.404 164.73 156.344 164.79C156.287 164.847 156.221 164.892 156.144 164.925C156.067 164.958 155.986 164.975 155.899 164.975C155.812 164.975 155.731 164.958 155.654 164.925C155.581 164.892 155.514 164.847 155.454 164.79C155.397 164.73 155.352 164.663 155.319 164.59C155.286 164.513 155.269 164.432 155.269 164.345C155.269 164.258 155.286 164.177 155.319 164.1C155.352 164.02 155.397 163.952 155.454 163.895C155.514 163.835 155.581 163.788 155.654 163.755C155.731 163.722 155.812 163.705 155.899 163.705C155.986 163.705 156.067 163.722 156.144 163.755C156.221 163.788 156.287 163.835 156.344 163.895C156.404 163.952 156.451 164.02 156.484 164.1C156.521 164.177 156.539 164.258 156.539 164.345ZM157.908 171V165.935H158.438C158.564 165.935 158.644 165.997 158.678 166.12L158.748 166.67C158.968 166.427 159.213 166.23 159.483 166.08C159.756 165.93 160.071 165.855 160.428 165.855C160.704 165.855 160.948 165.902 161.158 165.995C161.371 166.085 161.548 166.215 161.688 166.385C161.831 166.552 161.939 166.753 162.013 166.99C162.086 167.227 162.123 167.488 162.123 167.775V171H161.233V167.775C161.233 167.392 161.144 167.095 160.968 166.885C160.794 166.672 160.528 166.565 160.168 166.565C159.904 166.565 159.658 166.628 159.428 166.755C159.201 166.882 158.991 167.053 158.798 167.27V171H157.908ZM74.1769 176.755C74.4802 176.755 74.7635 176.8 75.0269 176.89C75.2902 176.98 75.5169 177.112 75.7069 177.285C75.9002 177.455 76.0519 177.663 76.1619 177.91C76.2719 178.157 76.3269 178.437 76.3269 178.75C76.3269 179.017 76.2869 179.263 76.2069 179.49C76.1269 179.717 76.0185 179.935 75.8819 180.145C75.7452 180.352 75.5869 180.553 75.4069 180.75C75.2302 180.943 75.0419 181.142 74.8419 181.345L72.9569 183.275C73.0902 183.238 73.2252 183.21 73.3619 183.19C73.4985 183.167 73.6302 183.155 73.7569 183.155H76.1569C76.2535 183.155 76.3302 183.183 76.3869 183.24C76.4435 183.297 76.4719 183.37 76.4719 183.46V184H71.6919V183.695C71.6919 183.632 71.7035 183.567 71.7269 183.5C71.7535 183.433 71.7952 183.372 71.8519 183.315L74.1469 181.01C74.3369 180.817 74.5102 180.632 74.6669 180.455C74.8235 180.275 74.9569 180.095 75.0669 179.915C75.1802 179.735 75.2669 179.553 75.3269 179.37C75.3869 179.183 75.4169 178.985 75.4169 178.775C75.4169 178.565 75.3835 178.382 75.3169 178.225C75.2502 178.065 75.1585 177.933 75.0419 177.83C74.9252 177.727 74.7885 177.65 74.6319 177.6C74.4752 177.547 74.3069 177.52 74.1269 177.52C73.9469 177.52 73.7802 177.547 73.6269 177.6C73.4735 177.653 73.3369 177.728 73.2169 177.825C73.1002 177.918 73.0002 178.03 72.9169 178.16C72.8369 178.29 72.7802 178.433 72.7469 178.59C72.7202 178.687 72.6802 178.757 72.6269 178.8C72.5735 178.843 72.5035 178.865 72.4169 178.865C72.4002 178.865 72.3819 178.865 72.3619 178.865C72.3452 178.862 72.3252 178.858 72.3019 178.855L71.8369 178.775C71.8835 178.448 71.9735 178.16 72.1069 177.91C72.2402 177.657 72.4085 177.445 72.6119 177.275C72.8185 177.105 73.0535 176.977 73.3169 176.89C73.5835 176.8 73.8702 176.755 74.1769 176.755ZM82.4727 180.42C82.4727 181.047 82.4043 181.59 82.2677 182.05C82.1343 182.507 81.951 182.885 81.7177 183.185C81.4843 183.485 81.2077 183.708 80.8877 183.855C80.571 184.002 80.231 184.075 79.8677 184.075C79.501 184.075 79.1593 184.002 78.8427 183.855C78.5293 183.708 78.256 183.485 78.0227 183.185C77.7893 182.885 77.606 182.507 77.4727 182.05C77.3393 181.59 77.2727 181.047 77.2727 180.42C77.2727 179.793 77.3393 179.25 77.4727 178.79C77.606 178.33 77.7893 177.95 78.0227 177.65C78.256 177.347 78.5293 177.122 78.8427 176.975C79.1593 176.828 79.501 176.755 79.8677 176.755C80.231 176.755 80.571 176.828 80.8877 176.975C81.2077 177.122 81.4843 177.347 81.7177 177.65C81.951 177.95 82.1343 178.33 82.2677 178.79C82.4043 179.25 82.4727 179.793 82.4727 180.42ZM81.5477 180.42C81.5477 179.873 81.501 179.415 81.4077 179.045C81.3177 178.672 81.1943 178.372 81.0377 178.145C80.8843 177.918 80.706 177.757 80.5027 177.66C80.2993 177.56 80.0877 177.51 79.8677 177.51C79.6477 177.51 79.436 177.56 79.2327 177.66C79.0293 177.757 78.851 177.918 78.6977 178.145C78.5443 178.372 78.421 178.672 78.3277 179.045C78.2377 179.415 78.1927 179.873 78.1927 180.42C78.1927 180.967 78.2377 181.425 78.3277 181.795C78.421 182.165 78.5443 182.463 78.6977 182.69C78.851 182.917 79.0293 183.08 79.2327 183.18C79.436 183.277 79.6477 183.325 79.8677 183.325C80.0877 183.325 80.2993 183.277 80.5027 183.18C80.706 183.08 80.8843 182.917 81.0377 182.69C81.1943 182.463 81.3177 182.165 81.4077 181.795C81.501 181.425 81.5477 180.967 81.5477 180.42ZM85.7784 176.755C86.0818 176.755 86.3651 176.8 86.6284 176.89C86.8918 176.98 87.1184 177.112 87.3084 177.285C87.5018 177.455 87.6534 177.663 87.7634 177.91C87.8734 178.157 87.9284 178.437 87.9284 178.75C87.9284 179.017 87.8884 179.263 87.8084 179.49C87.7284 179.717 87.6201 179.935 87.4834 180.145C87.3468 180.352 87.1884 180.553 87.0084 180.75C86.8318 180.943 86.6434 181.142 86.4434 181.345L84.5584 183.275C84.6918 183.238 84.8268 183.21 84.9634 183.19C85.1001 183.167 85.2318 183.155 85.3584 183.155H87.7584C87.8551 183.155 87.9318 183.183 87.9884 183.24C88.0451 183.297 88.0734 183.37 88.0734 183.46V184H83.2934V183.695C83.2934 183.632 83.3051 183.567 83.3284 183.5C83.3551 183.433 83.3968 183.372 83.4534 183.315L85.7484 181.01C85.9384 180.817 86.1118 180.632 86.2684 180.455C86.4251 180.275 86.5584 180.095 86.6684 179.915C86.7818 179.735 86.8684 179.553 86.9284 179.37C86.9884 179.183 87.0184 178.985 87.0184 178.775C87.0184 178.565 86.9851 178.382 86.9184 178.225C86.8518 178.065 86.7601 177.933 86.6434 177.83C86.5268 177.727 86.3901 177.65 86.2334 177.6C86.0768 177.547 85.9084 177.52 85.7284 177.52C85.5484 177.52 85.3818 177.547 85.2284 177.6C85.0751 177.653 84.9384 177.728 84.8184 177.825C84.7018 177.918 84.6018 178.03 84.5184 178.16C84.4384 178.29 84.3818 178.433 84.3484 178.59C84.3218 178.687 84.2818 178.757 84.2284 178.8C84.1751 178.843 84.1051 178.865 84.0184 178.865C84.0018 178.865 83.9834 178.865 83.9634 178.865C83.9468 178.862 83.9268 178.858 83.9034 178.855L83.4384 178.775C83.4851 178.448 83.5751 178.16 83.7084 177.91C83.8418 177.657 84.0101 177.445 84.2134 177.275C84.4201 177.105 84.6551 176.977 84.9184 176.89C85.1851 176.8 85.4718 176.755 85.7784 176.755ZM90.0092 183.32H91.5492V178.435C91.5492 178.288 91.5542 178.14 91.5642 177.99L90.2842 179.085C90.2509 179.112 90.2176 179.132 90.1842 179.145C90.1509 179.155 90.1192 179.16 90.0892 179.16C90.0392 179.16 89.9942 179.15 89.9542 179.13C89.9142 179.107 89.8842 179.08 89.8642 179.05L89.5842 178.665L91.7142 176.82H92.4392V183.32H93.8492V184H90.0092V183.32ZM97.0686 184V176.635H97.9636V179.665C98.1736 179.422 98.4136 179.227 98.6836 179.08C98.9569 178.93 99.2686 178.855 99.6186 178.855C99.9119 178.855 100.177 178.91 100.414 179.02C100.65 179.13 100.852 179.295 101.019 179.515C101.185 179.732 101.314 180.002 101.404 180.325C101.494 180.645 101.539 181.015 101.539 181.435C101.539 181.808 101.489 182.157 101.389 182.48C101.289 182.8 101.144 183.078 100.954 183.315C100.767 183.548 100.537 183.733 100.264 183.87C99.9936 184.003 99.6886 184.07 99.3486 184.07C99.0219 184.07 98.7436 184.007 98.5136 183.88C98.2869 183.753 98.0886 183.577 97.9186 183.35L97.8736 183.81C97.8469 183.937 97.7703 184 97.6436 184H97.0686ZM99.3286 179.565C99.0386 179.565 98.7836 179.632 98.5636 179.765C98.3469 179.898 98.1469 180.087 97.9636 180.33V182.78C98.1236 183 98.3003 183.155 98.4936 183.245C98.6903 183.335 98.9086 183.38 99.1486 183.38C99.6219 183.38 99.9853 183.212 100.239 182.875C100.492 182.538 100.619 182.058 100.619 181.435C100.619 181.105 100.589 180.822 100.529 180.585C100.472 180.348 100.389 180.155 100.279 180.005C100.169 179.852 100.034 179.74 99.8736 179.67C99.7136 179.6 99.5319 179.565 99.3286 179.565ZM103.983 185.495C103.953 185.562 103.914 185.615 103.868 185.655C103.824 185.695 103.756 185.715 103.663 185.715H103.003L103.928 183.705L101.838 178.935H102.608C102.684 178.935 102.744 178.955 102.788 178.995C102.831 179.032 102.863 179.073 102.883 179.12L104.238 182.31C104.268 182.383 104.293 182.457 104.313 182.53C104.336 182.603 104.356 182.678 104.373 182.755C104.396 182.678 104.419 182.603 104.443 182.53C104.466 182.457 104.493 182.382 104.523 182.305L105.838 179.12C105.858 179.067 105.891 179.023 105.938 178.99C105.988 178.953 106.041 178.935 106.098 178.935H106.808L103.983 185.495ZM112.883 183.295C113.077 183.295 113.253 183.287 113.413 183.27C113.577 183.25 113.73 183.222 113.873 183.185C114.017 183.148 114.152 183.105 114.278 183.055C114.405 183.002 114.532 182.942 114.658 182.875V181.295H113.548C113.485 181.295 113.433 181.277 113.393 181.24C113.357 181.203 113.338 181.158 113.338 181.105V180.555H115.538V183.305C115.358 183.435 115.17 183.548 114.973 183.645C114.78 183.742 114.572 183.823 114.348 183.89C114.128 183.953 113.892 184 113.638 184.03C113.385 184.063 113.11 184.08 112.813 184.08C112.293 184.08 111.817 183.992 111.383 183.815C110.95 183.635 110.577 183.385 110.263 183.065C109.95 182.742 109.705 182.355 109.528 181.905C109.355 181.455 109.268 180.96 109.268 180.42C109.268 179.873 109.353 179.375 109.523 178.925C109.697 178.475 109.942 178.09 110.258 177.77C110.578 177.447 110.963 177.197 111.413 177.02C111.867 176.843 112.373 176.755 112.933 176.755C113.217 176.755 113.48 176.777 113.723 176.82C113.967 176.86 114.192 176.92 114.398 177C114.608 177.077 114.802 177.172 114.978 177.285C115.155 177.395 115.32 177.52 115.473 177.66L115.198 178.1C115.142 178.19 115.068 178.235 114.978 178.235C114.925 178.235 114.867 178.217 114.803 178.18C114.72 178.133 114.627 178.077 114.523 178.01C114.42 177.943 114.293 177.88 114.143 177.82C113.997 177.757 113.822 177.703 113.618 177.66C113.418 177.617 113.18 177.595 112.903 177.595C112.5 177.595 112.135 177.662 111.808 177.795C111.482 177.925 111.203 178.113 110.973 178.36C110.743 178.603 110.567 178.9 110.443 179.25C110.32 179.597 110.258 179.987 110.258 180.42C110.258 180.873 110.322 181.278 110.448 181.635C110.578 181.988 110.76 182.288 110.993 182.535C111.227 182.782 111.503 182.97 111.823 183.1C112.143 183.23 112.497 183.295 112.883 183.295ZM120.612 184H120.217C120.13 184 120.06 183.987 120.007 183.96C119.954 183.933 119.919 183.877 119.902 183.79L119.802 183.32C119.669 183.44 119.539 183.548 119.412 183.645C119.285 183.738 119.152 183.818 119.012 183.885C118.872 183.948 118.722 183.997 118.562 184.03C118.405 184.063 118.23 184.08 118.037 184.08C117.84 184.08 117.655 184.053 117.482 184C117.312 183.943 117.164 183.86 117.037 183.75C116.91 183.64 116.809 183.502 116.732 183.335C116.659 183.165 116.622 182.965 116.622 182.735C116.622 182.535 116.677 182.343 116.787 182.16C116.897 181.973 117.074 181.808 117.317 181.665C117.564 181.522 117.885 181.405 118.282 181.315C118.679 181.222 119.164 181.168 119.737 181.155V180.76C119.737 180.367 119.652 180.07 119.482 179.87C119.315 179.667 119.067 179.565 118.737 179.565C118.52 179.565 118.337 179.593 118.187 179.65C118.04 179.703 117.912 179.765 117.802 179.835C117.695 179.902 117.602 179.963 117.522 180.02C117.445 180.073 117.369 180.1 117.292 180.1C117.232 180.1 117.179 180.085 117.132 180.055C117.089 180.022 117.054 179.982 117.027 179.935L116.867 179.65C117.147 179.38 117.449 179.178 117.772 179.045C118.095 178.912 118.454 178.845 118.847 178.845C119.13 178.845 119.382 178.892 119.602 178.985C119.822 179.078 120.007 179.208 120.157 179.375C120.307 179.542 120.42 179.743 120.497 179.98C120.574 180.217 120.612 180.477 120.612 180.76V184ZM118.302 183.455C118.459 183.455 118.602 183.44 118.732 183.41C118.862 183.377 118.984 183.332 119.097 183.275C119.214 183.215 119.324 183.143 119.427 183.06C119.534 182.977 119.637 182.882 119.737 182.775V181.72C119.327 181.733 118.979 181.767 118.692 181.82C118.405 181.87 118.172 181.937 117.992 182.02C117.812 182.103 117.68 182.202 117.597 182.315C117.517 182.428 117.477 182.555 117.477 182.695C117.477 182.828 117.499 182.943 117.542 183.04C117.585 183.137 117.644 183.217 117.717 183.28C117.79 183.34 117.877 183.385 117.977 183.415C118.077 183.442 118.185 183.455 118.302 183.455ZM121.96 184V178.935H122.47C122.567 178.935 122.634 178.953 122.67 178.99C122.707 179.027 122.732 179.09 122.745 179.18L122.805 179.97C122.979 179.617 123.192 179.342 123.445 179.145C123.702 178.945 124.002 178.845 124.345 178.845C124.485 178.845 124.612 178.862 124.725 178.895C124.839 178.925 124.944 178.968 125.04 179.025L124.925 179.69C124.902 179.773 124.85 179.815 124.77 179.815C124.724 179.815 124.652 179.8 124.555 179.77C124.459 179.737 124.324 179.72 124.15 179.72C123.84 179.72 123.58 179.81 123.37 179.99C123.164 180.17 122.99 180.432 122.85 180.775V184H121.96ZM127.529 184.08C127.129 184.08 126.82 183.968 126.604 183.745C126.39 183.522 126.284 183.2 126.284 182.78V179.68H125.674C125.62 179.68 125.575 179.665 125.539 179.635C125.502 179.602 125.484 179.552 125.484 179.485V179.13L126.314 179.025L126.519 177.46C126.525 177.41 126.547 177.37 126.584 177.34C126.62 177.307 126.667 177.29 126.724 177.29H127.174V179.035H128.624V179.68H127.174V182.72C127.174 182.933 127.225 183.092 127.329 183.195C127.432 183.298 127.565 183.35 127.729 183.35C127.822 183.35 127.902 183.338 127.969 183.315C128.039 183.288 128.099 183.26 128.149 183.23C128.199 183.2 128.24 183.173 128.274 183.15C128.31 183.123 128.342 183.11 128.369 183.11C128.415 183.11 128.457 183.138 128.494 183.195L128.754 183.62C128.6 183.763 128.415 183.877 128.199 183.96C127.982 184.04 127.759 184.08 127.529 184.08ZM129.724 184V178.935H130.254C130.381 178.935 130.461 178.997 130.494 179.12L130.564 179.67C130.784 179.427 131.029 179.23 131.299 179.08C131.572 178.93 131.887 178.855 132.244 178.855C132.521 178.855 132.764 178.902 132.974 178.995C133.187 179.085 133.364 179.215 133.504 179.385C133.647 179.552 133.756 179.753 133.829 179.99C133.902 180.227 133.939 180.488 133.939 180.775V184H133.049V180.775C133.049 180.392 132.961 180.095 132.784 179.885C132.611 179.672 132.344 179.565 131.984 179.565C131.721 179.565 131.474 179.628 131.244 179.755C131.017 179.882 130.807 180.053 130.614 180.27V184H129.724ZM137.286 178.855C137.589 178.855 137.869 178.907 138.126 179.01C138.382 179.11 138.604 179.257 138.791 179.45C138.977 179.64 139.122 179.877 139.226 180.16C139.332 180.44 139.386 180.76 139.386 181.12C139.386 181.26 139.371 181.353 139.341 181.4C139.311 181.447 139.254 181.47 139.171 181.47H135.801C135.807 181.79 135.851 182.068 135.931 182.305C136.011 182.542 136.121 182.74 136.261 182.9C136.401 183.057 136.567 183.175 136.761 183.255C136.954 183.332 137.171 183.37 137.411 183.37C137.634 183.37 137.826 183.345 137.986 183.295C138.149 183.242 138.289 183.185 138.406 183.125C138.522 183.065 138.619 183.01 138.696 182.96C138.776 182.907 138.844 182.88 138.901 182.88C138.974 182.88 139.031 182.908 139.071 182.965L139.321 183.29C139.211 183.423 139.079 183.54 138.926 183.64C138.772 183.737 138.607 183.817 138.431 183.88C138.257 183.943 138.077 183.99 137.891 184.02C137.704 184.053 137.519 184.07 137.336 184.07C136.986 184.07 136.662 184.012 136.366 183.895C136.072 183.775 135.817 183.602 135.601 183.375C135.387 183.145 135.221 182.862 135.101 182.525C134.981 182.188 134.921 181.802 134.921 181.365C134.921 181.012 134.974 180.682 135.081 180.375C135.191 180.068 135.347 179.803 135.551 179.58C135.754 179.353 136.002 179.177 136.296 179.05C136.589 178.92 136.919 178.855 137.286 178.855ZM137.306 179.51C136.876 179.51 136.537 179.635 136.291 179.885C136.044 180.132 135.891 180.475 135.831 180.915H138.586C138.586 180.708 138.557 180.52 138.501 180.35C138.444 180.177 138.361 180.028 138.251 179.905C138.141 179.778 138.006 179.682 137.846 179.615C137.689 179.545 137.509 179.51 137.306 179.51ZM140.525 184V178.935H141.035C141.132 178.935 141.198 178.953 141.235 178.99C141.272 179.027 141.297 179.09 141.31 179.18L141.37 179.97C141.543 179.617 141.757 179.342 142.01 179.145C142.267 178.945 142.567 178.845 142.91 178.845C143.05 178.845 143.177 178.862 143.29 178.895C143.403 178.925 143.508 178.968 143.605 179.025L143.49 179.69C143.467 179.773 143.415 179.815 143.335 179.815C143.288 179.815 143.217 179.8 143.12 179.77C143.023 179.737 142.888 179.72 142.715 179.72C142.405 179.72 142.145 179.81 141.935 179.99C141.728 180.17 141.555 180.432 141.415 180.775V184H140.525Z" fill="#EEF8FF"/>
<mask id="mask0_1_18" style="mask-type:alpha" maskUnits="userSpaceOnUse" x="84" y="0" width="136" height="249">
<path d="M84 249L106 3.5L219.5 0V249H84Z" fill="#D9D9D9"/>
</mask>
<g mask="url(#mask0_1_18)">
<path d="M108.473 35.4855C131.456 35.4855 153.074 44.4797 169.342 60.8229C185.61 77.166 194.563 98.8838 194.563 121.973C194.563 145.061 185.61 166.779 169.342 183.122C153.074 199.465 131.456 208.46 108.473 208.46C85.4898 208.46 63.8717 199.52 47.6035 183.177C31.3353 166.834 22.3824 145.116 22.3824 121.973C22.3824 98.8289 31.3353 77.166 47.6035 60.8229C63.8717 44.4797 85.4898 35.4855 108.473 35.4855ZM108.473 13C48.5862 13 0 61.8101 0 121.973C0 182.135 48.5862 230.945 108.473 230.945C168.359 230.945 216.945 182.135 216.945 121.973C216.945 61.8101 168.414 13 108.473 13Z" fill="white"/>
</g>
</svg>
