<svg width="567" height="532" viewBox="0 0 567 532" fill="none" xmlns="http://www.w3.org/2000/svg">
<path d="M5.04688 473.823V471.302C118.252 471.302 210.412 379.318 210.412 266.214C210.412 153.11 118.252 61.1759 5.04688 61.1759V58.6558C119.666 58.6558 212.935 151.8 212.935 266.264C212.885 380.729 119.666 473.823 5.04688 473.823Z" fill="#80A2B9"/>
<path d="M0 59.9158C0 56.0852 3.07871 53.0107 6.91447 53.0107C10.7502 53.0107 13.8289 56.0852 13.8289 59.9158C13.8289 63.7464 10.7502 66.821 6.91447 66.821C3.07871 66.821 0 63.7464 0 59.9158Z" fill="#80A2B9"/>
<path d="M0 470.899C0 467.068 3.07871 463.994 6.91447 463.994C10.7502 463.994 13.8289 467.068 13.8289 470.899C13.8289 474.73 10.7502 477.804 6.91447 477.804C3.07871 477.804 0 474.73 0 470.899Z" fill="#80A2B9"/>
<path d="M172.84 46.635L129.658 102.554L131.657 104.093L174.839 48.1741L172.84 46.635Z" fill="#80A2B9"/>
<path d="M134.349 113.805C140.453 111.281 143.351 104.293 140.823 98.1975C138.295 92.1023 131.297 89.2079 125.194 91.7327C119.09 94.2575 116.192 101.245 118.72 107.341C121.248 113.436 128.246 116.33 134.349 113.805Z" fill="#80A2B9"/>
<path d="M122.846 102.771C122.846 98.9404 125.924 95.8658 129.76 95.8658C133.596 95.8658 136.675 98.9404 136.675 102.771C136.675 106.602 133.596 109.676 129.76 109.676C125.924 109.676 122.846 106.551 122.846 102.771Z" fill="url(#paint0_linear_991_932)"/>
<path d="M472.985 43.3463C472.985 67.2876 453.554 86.6926 429.581 86.6926H208.116C196.104 86.6926 185.303 81.8539 177.43 73.9911C172.534 69.1021 168.85 63.1041 166.73 56.4006C165.418 52.2676 164.711 47.8825 164.711 43.3463C164.711 19.405 184.142 0 208.116 0H429.53C441.492 0 452.343 4.83866 460.216 12.7015C468.09 20.5139 472.985 31.3505 472.985 43.3463Z" fill="white"/>
<path d="M429.581 5.24188C439.776 5.24188 449.365 9.22369 456.532 16.3809C463.749 23.5884 467.686 33.165 467.686 43.2959C467.686 64.3138 450.576 81.4003 429.53 81.4003H208.116C197.921 81.4003 188.331 77.4185 181.164 70.2613C176.824 65.9267 173.594 60.584 171.777 54.7877C170.616 51.1083 170.01 47.2777 170.01 43.3463C170.01 22.3284 187.12 5.24188 208.166 5.24188H429.581ZM429.581 0H208.116C184.142 0 164.711 19.405 164.711 43.3463C164.711 47.8825 165.418 52.2676 166.73 56.4006C168.85 63.1041 172.584 69.1525 177.43 73.9911C185.303 81.8539 196.104 86.6926 208.116 86.6926H429.53C453.504 86.6926 472.935 67.2876 472.935 43.3463C472.935 31.3505 468.09 20.5643 460.216 12.7015C452.393 4.83866 441.542 0 429.581 0Z" fill="url(#paint1_linear_991_932)"/>
<path d="M267.438 155.288L192.891 186.553L193.868 188.876L268.415 157.612L267.438 155.288Z" fill="#80A2B9"/>
<path d="M195.473 199.191C202.079 199.191 207.435 193.843 207.435 187.246C207.435 180.649 202.079 175.3 195.473 175.3C188.867 175.3 183.512 180.649 183.512 187.246C183.512 193.843 188.867 199.191 195.473 199.191Z" fill="#80A2B9"/>
<path d="M195.473 194.151C199.292 194.151 202.388 191.059 202.388 187.246C202.388 183.432 199.292 180.341 195.473 180.341C191.654 180.341 188.559 183.432 188.559 187.246C188.559 191.059 191.654 194.151 195.473 194.151Z" fill="url(#paint2_linear_991_932)"/>
<path d="M519.46 111.701H298.045C274.072 111.701 254.641 131.106 254.641 155.047C254.641 178.989 274.072 198.394 298.045 198.394H519.46C543.433 198.394 562.865 178.989 562.865 155.047C562.865 131.106 543.433 111.701 519.46 111.701Z" fill="white"/>
<path d="M519.46 116.943C540.506 116.943 557.616 134.029 557.616 155.047C557.616 176.065 540.506 193.152 519.46 193.152H298.045C276.999 193.152 259.89 176.065 259.89 155.047C259.89 134.029 276.999 116.943 298.045 116.943H519.46ZM519.46 111.701H298.045C274.072 111.701 254.641 131.106 254.641 155.047C254.641 178.989 274.072 198.394 298.045 198.394H519.46C543.433 198.394 562.865 178.989 562.865 155.047C562.865 131.106 543.433 111.701 519.46 111.701Z" fill="url(#paint3_linear_991_932)"/>
<path d="M364.71 150.489H360.22V162.939H357.89V150.489H353.39V148.539H364.71V150.489ZM366.235 154.629C366.555 153.983 366.941 153.476 367.395 153.109C367.848 152.736 368.391 152.549 369.025 152.549C369.245 152.549 369.451 152.576 369.645 152.629C369.838 152.676 370.011 152.749 370.165 152.849L370.015 154.469C369.988 154.583 369.945 154.663 369.885 154.709C369.831 154.749 369.758 154.769 369.665 154.769C369.565 154.769 369.421 154.753 369.235 154.719C369.048 154.679 368.851 154.659 368.645 154.659C368.345 154.659 368.078 154.703 367.845 154.789C367.618 154.876 367.411 155.003 367.225 155.169C367.045 155.336 366.885 155.539 366.745 155.779C366.605 156.019 366.475 156.293 366.355 156.599V162.939H364.205V152.739H365.455C365.681 152.739 365.838 152.783 365.925 152.869C366.011 152.949 366.071 153.093 366.105 153.299L366.235 154.629ZM376.881 158.479C376.114 158.506 375.468 158.569 374.941 158.669C374.414 158.763 373.988 158.886 373.661 159.039C373.334 159.186 373.098 159.363 372.951 159.569C372.811 159.776 372.741 160.003 372.741 160.249C372.741 160.489 372.778 160.696 372.851 160.869C372.931 161.036 373.038 161.176 373.171 161.289C373.311 161.396 373.471 161.476 373.651 161.529C373.838 161.576 374.041 161.599 374.261 161.599C374.821 161.599 375.301 161.496 375.701 161.289C376.108 161.076 376.501 160.769 376.881 160.369V158.479ZM371.181 154.159C372.334 153.086 373.708 152.549 375.301 152.549C375.888 152.549 376.408 152.646 376.861 152.839C377.321 153.026 377.704 153.293 378.011 153.639C378.324 153.986 378.561 154.399 378.721 154.879C378.888 155.353 378.971 155.879 378.971 156.459V162.939H378.011C377.804 162.939 377.648 162.909 377.541 162.849C377.434 162.783 377.344 162.653 377.271 162.459L377.061 161.629C376.801 161.863 376.544 162.073 376.291 162.259C376.038 162.439 375.774 162.593 375.501 162.719C375.234 162.846 374.944 162.939 374.631 162.999C374.324 163.066 373.984 163.099 373.611 163.099C373.198 163.099 372.811 163.043 372.451 162.929C372.098 162.816 371.791 162.646 371.531 162.419C371.271 162.186 371.064 161.899 370.911 161.559C370.764 161.219 370.691 160.819 370.691 160.359C370.691 159.966 370.794 159.583 371.001 159.209C371.214 158.836 371.561 158.503 372.041 158.209C372.528 157.909 373.164 157.663 373.951 157.469C374.744 157.276 375.721 157.166 376.881 157.139V156.459C376.881 155.726 376.724 155.179 376.411 154.819C376.098 154.459 375.638 154.279 375.031 154.279C374.618 154.279 374.271 154.333 373.991 154.439C373.711 154.539 373.468 154.649 373.261 154.769C373.054 154.889 372.871 155.003 372.711 155.109C372.551 155.209 372.381 155.259 372.201 155.259C372.054 155.259 371.928 155.223 371.821 155.149C371.721 155.069 371.638 154.973 371.571 154.859L371.181 154.159ZM383.5 154.089C383.72 153.863 383.946 153.659 384.18 153.479C384.42 153.293 384.673 153.133 384.94 152.999C385.206 152.866 385.49 152.763 385.79 152.689C386.09 152.616 386.416 152.579 386.77 152.579C387.33 152.579 387.82 152.673 388.24 152.859C388.666 153.046 389.023 153.309 389.31 153.649C389.603 153.989 389.823 154.399 389.97 154.879C390.116 155.353 390.19 155.876 390.19 156.449V162.939H388.05V156.449C388.05 155.763 387.89 155.229 387.57 154.849C387.256 154.469 386.776 154.279 386.13 154.279C385.65 154.279 385.203 154.389 384.79 154.609C384.383 154.829 384 155.129 383.64 155.509V162.939H381.49V152.739H382.79C383.083 152.739 383.27 152.876 383.35 153.149L383.5 154.089ZM398.791 154.589C398.737 154.683 398.677 154.749 398.611 154.789C398.544 154.829 398.461 154.849 398.361 154.849C398.247 154.849 398.124 154.816 397.991 154.749C397.857 154.676 397.701 154.596 397.521 154.509C397.341 154.423 397.127 154.346 396.881 154.279C396.641 154.206 396.357 154.169 396.031 154.169C395.764 154.169 395.521 154.203 395.301 154.269C395.087 154.329 394.904 154.419 394.751 154.539C394.604 154.653 394.491 154.789 394.411 154.949C394.331 155.103 394.291 155.269 394.291 155.449C394.291 155.689 394.364 155.889 394.511 156.049C394.657 156.209 394.851 156.349 395.091 156.469C395.331 156.583 395.604 156.686 395.911 156.779C396.217 156.873 396.531 156.973 396.851 157.079C397.171 157.186 397.484 157.309 397.791 157.449C398.097 157.589 398.371 157.763 398.611 157.969C398.851 158.169 399.044 158.416 399.191 158.709C399.337 158.996 399.411 159.346 399.411 159.759C399.411 160.239 399.324 160.683 399.151 161.089C398.977 161.496 398.724 161.849 398.391 162.149C398.057 162.449 397.641 162.683 397.141 162.849C396.647 163.016 396.081 163.099 395.441 163.099C395.087 163.099 394.744 163.066 394.411 162.999C394.084 162.939 393.771 162.856 393.471 162.749C393.177 162.636 392.901 162.503 392.641 162.349C392.387 162.196 392.161 162.029 391.961 161.849L392.461 161.029C392.521 160.929 392.594 160.853 392.681 160.799C392.774 160.739 392.887 160.709 393.021 160.709C393.161 160.709 393.297 160.756 393.431 160.849C393.571 160.936 393.731 161.033 393.911 161.139C394.097 161.246 394.321 161.346 394.581 161.439C394.841 161.526 395.164 161.569 395.551 161.569C395.871 161.569 396.147 161.533 396.381 161.459C396.614 161.379 396.807 161.273 396.961 161.139C397.114 161.006 397.227 160.856 397.301 160.689C397.374 160.516 397.411 160.333 397.411 160.139C397.411 159.879 397.337 159.666 397.191 159.499C397.044 159.333 396.847 159.189 396.601 159.069C396.361 158.949 396.084 158.843 395.771 158.749C395.464 158.656 395.151 158.556 394.831 158.449C394.511 158.343 394.194 158.219 393.881 158.079C393.574 157.939 393.297 157.763 393.051 157.549C392.811 157.329 392.617 157.066 392.471 156.759C392.324 156.446 392.251 156.066 392.251 155.619C392.251 155.213 392.331 154.826 392.491 154.459C392.657 154.093 392.897 153.769 393.211 153.489C393.531 153.209 393.921 152.989 394.381 152.829C394.847 152.663 395.384 152.579 395.991 152.579C396.677 152.579 397.301 152.689 397.861 152.909C398.421 153.129 398.891 153.429 399.271 153.809L398.791 154.589ZM403.581 160.379C403.881 160.766 404.208 161.039 404.561 161.199C404.921 161.353 405.318 161.429 405.751 161.429C406.591 161.429 407.244 161.123 407.711 160.509C408.184 159.896 408.421 158.983 408.421 157.769C408.421 157.143 408.368 156.609 408.261 156.169C408.154 155.723 408.001 155.359 407.801 155.079C407.601 154.799 407.358 154.596 407.071 154.469C406.784 154.343 406.461 154.279 406.101 154.279C405.554 154.279 405.081 154.399 404.681 154.639C404.288 154.873 403.921 155.209 403.581 155.649V160.379ZM403.471 154.219C403.898 153.719 404.381 153.316 404.921 153.009C405.468 152.703 406.101 152.549 406.821 152.549C407.394 152.549 407.914 152.666 408.381 152.899C408.848 153.126 409.248 153.459 409.581 153.899C409.914 154.339 410.171 154.886 410.351 155.539C410.538 156.186 410.631 156.929 410.631 157.769C410.631 158.523 410.528 159.226 410.321 159.879C410.121 160.526 409.831 161.089 409.451 161.569C409.071 162.043 408.611 162.416 408.071 162.689C407.531 162.956 406.921 163.089 406.241 163.089C405.641 163.089 405.131 162.993 404.711 162.799C404.298 162.606 403.921 162.339 403.581 161.999V166.329H401.431V152.739H402.731C403.024 152.739 403.211 152.876 403.291 153.149L403.471 154.219ZM418.17 158.479C417.403 158.506 416.757 158.569 416.23 158.669C415.703 158.763 415.277 158.886 414.95 159.039C414.623 159.186 414.387 159.363 414.24 159.569C414.1 159.776 414.03 160.003 414.03 160.249C414.03 160.489 414.067 160.696 414.14 160.869C414.22 161.036 414.327 161.176 414.46 161.289C414.6 161.396 414.76 161.476 414.94 161.529C415.127 161.576 415.33 161.599 415.55 161.599C416.11 161.599 416.59 161.496 416.99 161.289C417.397 161.076 417.79 160.769 418.17 160.369V158.479ZM412.47 154.159C413.623 153.086 414.997 152.549 416.59 152.549C417.177 152.549 417.697 152.646 418.15 152.839C418.61 153.026 418.993 153.293 419.3 153.639C419.613 153.986 419.85 154.399 420.01 154.879C420.177 155.353 420.26 155.879 420.26 156.459V162.939H419.3C419.093 162.939 418.937 162.909 418.83 162.849C418.723 162.783 418.633 162.653 418.56 162.459L418.35 161.629C418.09 161.863 417.833 162.073 417.58 162.259C417.327 162.439 417.063 162.593 416.79 162.719C416.523 162.846 416.233 162.939 415.92 162.999C415.613 163.066 415.273 163.099 414.9 163.099C414.487 163.099 414.1 163.043 413.74 162.929C413.387 162.816 413.08 162.646 412.82 162.419C412.56 162.186 412.353 161.899 412.2 161.559C412.053 161.219 411.98 160.819 411.98 160.359C411.98 159.966 412.083 159.583 412.29 159.209C412.503 158.836 412.85 158.503 413.33 158.209C413.817 157.909 414.453 157.663 415.24 157.469C416.033 157.276 417.01 157.166 418.17 157.139V156.459C418.17 155.726 418.013 155.179 417.7 154.819C417.387 154.459 416.927 154.279 416.32 154.279C415.907 154.279 415.56 154.333 415.28 154.439C415 154.539 414.757 154.649 414.55 154.769C414.343 154.889 414.16 155.003 414 155.109C413.84 155.209 413.67 155.259 413.49 155.259C413.343 155.259 413.217 155.223 413.11 155.149C413.01 155.069 412.927 154.973 412.86 154.859L412.47 154.159ZM424.809 154.629C425.129 153.983 425.515 153.476 425.969 153.109C426.422 152.736 426.965 152.549 427.599 152.549C427.819 152.549 428.025 152.576 428.219 152.629C428.412 152.676 428.585 152.749 428.739 152.849L428.589 154.469C428.562 154.583 428.519 154.663 428.459 154.709C428.405 154.749 428.332 154.769 428.239 154.769C428.139 154.769 427.995 154.753 427.809 154.719C427.622 154.679 427.425 154.659 427.219 154.659C426.919 154.659 426.652 154.703 426.419 154.789C426.192 154.876 425.985 155.003 425.799 155.169C425.619 155.336 425.459 155.539 425.319 155.779C425.179 156.019 425.049 156.293 424.929 156.599V162.939H422.779V152.739H424.029C424.255 152.739 424.412 152.783 424.499 152.869C424.585 152.949 424.645 153.093 424.679 153.299L424.809 154.629ZM436.5 156.689C436.5 156.329 436.447 155.996 436.34 155.689C436.24 155.376 436.09 155.106 435.89 154.879C435.69 154.646 435.44 154.466 435.14 154.339C434.847 154.206 434.507 154.139 434.12 154.139C433.34 154.139 432.727 154.363 432.28 154.809C431.833 155.256 431.55 155.883 431.43 156.689H436.5ZM431.37 158.009C431.397 158.589 431.487 159.093 431.64 159.519C431.793 159.939 431.997 160.289 432.25 160.569C432.51 160.849 432.817 161.059 433.17 161.199C433.53 161.333 433.93 161.399 434.37 161.399C434.79 161.399 435.153 161.353 435.46 161.259C435.767 161.159 436.033 161.053 436.26 160.939C436.487 160.819 436.68 160.713 436.84 160.619C437 160.519 437.147 160.469 437.28 160.469C437.453 160.469 437.587 160.536 437.68 160.669L438.29 161.459C438.037 161.759 437.75 162.013 437.43 162.219C437.11 162.426 436.77 162.596 436.41 162.729C436.05 162.856 435.68 162.946 435.3 162.999C434.92 163.059 434.55 163.089 434.19 163.089C433.483 163.089 432.827 162.973 432.22 162.739C431.62 162.499 431.097 162.149 430.65 161.689C430.21 161.229 429.863 160.659 429.61 159.979C429.363 159.299 429.24 158.516 429.24 157.629C429.24 156.923 429.35 156.263 429.57 155.649C429.797 155.036 430.117 154.503 430.53 154.049C430.95 153.596 431.457 153.239 432.05 152.979C432.65 152.713 433.327 152.579 434.08 152.579C434.707 152.579 435.287 152.683 435.82 152.889C436.353 153.089 436.813 153.386 437.2 153.779C437.587 154.173 437.887 154.656 438.1 155.229C438.32 155.796 438.43 156.443 438.43 157.169C438.43 157.503 438.393 157.726 438.32 157.839C438.247 157.953 438.113 158.009 437.92 158.009H431.37ZM442.445 154.089C442.665 153.863 442.892 153.659 443.125 153.479C443.365 153.293 443.618 153.133 443.885 152.999C444.152 152.866 444.435 152.763 444.735 152.689C445.035 152.616 445.362 152.579 445.715 152.579C446.275 152.579 446.765 152.673 447.185 152.859C447.612 153.046 447.968 153.309 448.255 153.649C448.548 153.989 448.768 154.399 448.915 154.879C449.062 155.353 449.135 155.876 449.135 156.449V162.939H446.995V156.449C446.995 155.763 446.835 155.229 446.515 154.849C446.202 154.469 445.722 154.279 445.075 154.279C444.595 154.279 444.148 154.389 443.735 154.609C443.328 154.829 442.945 155.129 442.585 155.509V162.939H440.435V152.739H441.735C442.028 152.739 442.215 152.876 442.295 153.149L442.445 154.089ZM458.856 154.739C458.789 154.826 458.726 154.893 458.666 154.939C458.606 154.986 458.519 155.009 458.406 155.009C458.293 155.009 458.173 154.969 458.046 154.889C457.926 154.809 457.779 154.723 457.606 154.629C457.439 154.529 457.236 154.439 456.996 154.359C456.756 154.279 456.456 154.239 456.096 154.239C455.629 154.239 455.219 154.323 454.866 154.489C454.519 154.656 454.226 154.896 453.986 155.209C453.753 155.516 453.576 155.893 453.456 156.339C453.343 156.779 453.286 157.276 453.286 157.829C453.286 158.403 453.349 158.913 453.476 159.359C453.603 159.806 453.783 160.183 454.016 160.489C454.256 160.796 454.543 161.029 454.876 161.189C455.216 161.349 455.596 161.429 456.016 161.429C456.429 161.429 456.766 161.379 457.026 161.279C457.286 161.179 457.503 161.069 457.676 160.949C457.849 160.829 457.996 160.719 458.116 160.619C458.243 160.519 458.376 160.469 458.516 160.469C458.689 160.469 458.823 160.536 458.916 160.669L459.526 161.459C459.279 161.759 459.006 162.013 458.706 162.219C458.406 162.426 458.089 162.596 457.756 162.729C457.423 162.856 457.076 162.946 456.716 162.999C456.356 163.059 455.993 163.089 455.626 163.089C454.993 163.089 454.399 162.973 453.846 162.739C453.299 162.499 452.819 162.156 452.406 161.709C451.999 161.256 451.676 160.706 451.436 160.059C451.203 159.406 451.086 158.663 451.086 157.829C451.086 157.076 451.193 156.379 451.406 155.739C451.619 155.093 451.929 154.536 452.336 154.069C452.749 153.603 453.259 153.239 453.866 152.979C454.473 152.713 455.173 152.579 455.966 152.579C456.706 152.579 457.356 152.699 457.916 152.939C458.483 153.179 458.986 153.519 459.426 153.959L458.856 154.739ZM470.305 152.739L464.685 165.839C464.612 165.993 464.522 166.113 464.415 166.199C464.315 166.286 464.159 166.329 463.945 166.329H462.355L464.235 162.249L460.075 152.739H461.945C462.125 152.739 462.262 152.783 462.355 152.869C462.455 152.949 462.529 153.046 462.575 153.159L465.005 158.949C465.065 159.116 465.119 159.283 465.165 159.449C465.219 159.609 465.269 159.776 465.315 159.949C465.369 159.776 465.422 159.606 465.475 159.439C465.529 159.273 465.589 159.106 465.655 158.939L467.985 153.159C468.032 153.039 468.109 152.939 468.215 152.859C468.329 152.779 468.452 152.739 468.585 152.739H470.305Z" fill="#304C64"/>
<path d="M283.897 265.471H207.889V267.991H283.897V265.471Z" fill="#80A2B9"/>
<path d="M216.009 277.976C222.113 275.451 225.011 268.464 222.483 262.368C219.955 256.273 212.957 253.379 206.854 255.903C200.751 258.428 197.852 265.416 200.38 271.511C202.909 277.607 209.906 280.501 216.009 277.976Z" fill="#80A2B9"/>
<path d="M204.508 266.932C204.508 263.102 207.587 260.027 211.422 260.027C215.258 260.027 218.337 263.102 218.337 266.932C218.337 270.763 215.258 273.838 211.422 273.838C207.587 273.838 204.508 270.763 204.508 266.932Z" fill="url(#paint4_linear_991_932)"/>
<path d="M522.302 222.456H300.887C276.914 222.456 257.482 241.861 257.482 265.802C257.482 289.743 276.914 309.148 300.887 309.148H522.302C546.275 309.148 565.706 289.743 565.706 265.802C565.706 241.861 546.275 222.456 522.302 222.456Z" fill="white"/>
<path d="M522.302 227.697C543.348 227.697 560.457 244.784 560.457 265.802C560.457 286.82 543.348 303.906 522.302 303.906H300.887C279.841 303.906 262.731 286.82 262.731 265.802C262.731 244.784 279.841 227.697 300.887 227.697H522.302ZM522.302 222.456H300.887C276.914 222.456 257.482 241.861 257.482 265.802C257.482 289.743 276.914 309.148 300.887 309.148H522.302C546.275 309.148 565.706 289.743 565.706 265.802C565.706 241.861 546.275 222.456 522.302 222.456Z" fill="url(#paint5_linear_991_932)"/>
<path d="M373.244 274.641H370.894V260.241H373.244V274.641ZM378.109 265.791C378.329 265.564 378.556 265.361 378.789 265.181C379.029 264.994 379.282 264.834 379.549 264.701C379.816 264.567 380.099 264.464 380.399 264.391C380.699 264.317 381.026 264.281 381.379 264.281C381.939 264.281 382.429 264.374 382.849 264.561C383.276 264.747 383.632 265.011 383.919 265.351C384.212 265.691 384.432 266.101 384.579 266.581C384.726 267.054 384.799 267.577 384.799 268.151V274.641H382.659V268.151C382.659 267.464 382.499 266.931 382.179 266.551C381.866 266.171 381.386 265.981 380.739 265.981C380.259 265.981 379.812 266.091 379.399 266.311C378.992 266.531 378.609 266.831 378.249 267.211V274.641H376.099V264.441H377.399C377.692 264.441 377.879 264.577 377.959 264.851L378.109 265.791ZM394.52 266.441C394.453 266.527 394.39 266.594 394.33 266.641C394.27 266.687 394.183 266.711 394.07 266.711C393.957 266.711 393.837 266.671 393.71 266.591C393.59 266.511 393.443 266.424 393.27 266.331C393.103 266.231 392.9 266.141 392.66 266.061C392.42 265.981 392.12 265.941 391.76 265.941C391.293 265.941 390.883 266.024 390.53 266.191C390.183 266.357 389.89 266.597 389.65 266.911C389.417 267.217 389.24 267.594 389.12 268.041C389.007 268.481 388.95 268.977 388.95 269.531C388.95 270.104 389.013 270.614 389.14 271.061C389.267 271.507 389.447 271.884 389.68 272.191C389.92 272.497 390.207 272.731 390.54 272.891C390.88 273.051 391.26 273.131 391.68 273.131C392.093 273.131 392.43 273.081 392.69 272.981C392.95 272.881 393.167 272.771 393.34 272.651C393.513 272.531 393.66 272.421 393.78 272.321C393.907 272.221 394.04 272.171 394.18 272.171C394.353 272.171 394.487 272.237 394.58 272.371L395.19 273.161C394.943 273.461 394.67 273.714 394.37 273.921C394.07 274.127 393.753 274.297 393.42 274.431C393.087 274.557 392.74 274.647 392.38 274.701C392.02 274.761 391.657 274.791 391.29 274.791C390.657 274.791 390.063 274.674 389.51 274.441C388.963 274.201 388.483 273.857 388.07 273.411C387.663 272.957 387.34 272.407 387.1 271.761C386.867 271.107 386.75 270.364 386.75 269.531C386.75 268.777 386.857 268.081 387.07 267.441C387.283 266.794 387.593 266.237 388 265.771C388.413 265.304 388.923 264.941 389.53 264.681C390.137 264.414 390.837 264.281 391.63 264.281C392.37 264.281 393.02 264.401 393.58 264.641C394.147 264.881 394.65 265.221 395.09 265.661L394.52 266.441ZM399.109 259.841V274.641H396.959V259.841H399.109ZM410.363 264.441V274.641H409.063C408.776 274.641 408.593 274.504 408.513 274.231L408.353 273.281C408.14 273.507 407.913 273.714 407.673 273.901C407.44 274.087 407.19 274.247 406.923 274.381C406.656 274.514 406.37 274.617 406.063 274.691C405.763 274.764 405.44 274.801 405.093 274.801C404.533 274.801 404.04 274.707 403.613 274.521C403.186 274.334 402.826 274.071 402.533 273.731C402.246 273.391 402.03 272.984 401.883 272.511C401.736 272.031 401.663 271.504 401.663 270.931V264.441H403.813V270.931C403.813 271.617 403.97 272.151 404.283 272.531C404.603 272.911 405.086 273.101 405.733 273.101C406.206 273.101 406.646 272.994 407.053 272.781C407.466 272.561 407.853 272.261 408.213 271.881V264.441H410.363ZM419.064 266.291C419.011 266.384 418.951 266.451 418.884 266.491C418.817 266.531 418.734 266.551 418.634 266.551C418.521 266.551 418.397 266.517 418.264 266.451C418.131 266.377 417.974 266.297 417.794 266.211C417.614 266.124 417.401 266.047 417.154 265.981C416.914 265.907 416.631 265.871 416.304 265.871C416.037 265.871 415.794 265.904 415.574 265.971C415.361 266.031 415.177 266.121 415.024 266.241C414.877 266.354 414.764 266.491 414.684 266.651C414.604 266.804 414.564 266.971 414.564 267.151C414.564 267.391 414.637 267.591 414.784 267.751C414.931 267.911 415.124 268.051 415.364 268.171C415.604 268.284 415.877 268.387 416.184 268.481C416.491 268.574 416.804 268.674 417.124 268.781C417.444 268.887 417.757 269.011 418.064 269.151C418.371 269.291 418.644 269.464 418.884 269.671C419.124 269.871 419.317 270.117 419.464 270.411C419.611 270.697 419.684 271.047 419.684 271.461C419.684 271.941 419.597 272.384 419.424 272.791C419.251 273.197 418.997 273.551 418.664 273.851C418.331 274.151 417.914 274.384 417.414 274.551C416.921 274.717 416.354 274.801 415.714 274.801C415.361 274.801 415.017 274.767 414.684 274.701C414.357 274.641 414.044 274.557 413.744 274.451C413.451 274.337 413.174 274.204 412.914 274.051C412.661 273.897 412.434 273.731 412.234 273.551L412.734 272.731C412.794 272.631 412.867 272.554 412.954 272.501C413.047 272.441 413.161 272.411 413.294 272.411C413.434 272.411 413.571 272.457 413.704 272.551C413.844 272.637 414.004 272.734 414.184 272.841C414.371 272.947 414.594 273.047 414.854 273.141C415.114 273.227 415.437 273.271 415.824 273.271C416.144 273.271 416.421 273.234 416.654 273.161C416.887 273.081 417.081 272.974 417.234 272.841C417.387 272.707 417.501 272.557 417.574 272.391C417.647 272.217 417.684 272.034 417.684 271.841C417.684 271.581 417.611 271.367 417.464 271.201C417.317 271.034 417.121 270.891 416.874 270.771C416.634 270.651 416.357 270.544 416.044 270.451C415.737 270.357 415.424 270.257 415.104 270.151C414.784 270.044 414.467 269.921 414.154 269.781C413.847 269.641 413.571 269.464 413.324 269.251C413.084 269.031 412.891 268.767 412.744 268.461C412.597 268.147 412.524 267.767 412.524 267.321C412.524 266.914 412.604 266.527 412.764 266.161C412.931 265.794 413.171 265.471 413.484 265.191C413.804 264.911 414.194 264.691 414.654 264.531C415.121 264.364 415.657 264.281 416.264 264.281C416.951 264.281 417.574 264.391 418.134 264.611C418.694 264.831 419.164 265.131 419.544 265.511L419.064 266.291ZM423.945 264.441V274.641H421.795V264.441H423.945ZM424.305 261.361C424.305 261.554 424.265 261.737 424.185 261.911C424.111 262.084 424.008 262.237 423.875 262.371C423.741 262.497 423.585 262.601 423.405 262.681C423.231 262.754 423.045 262.791 422.845 262.791C422.651 262.791 422.468 262.754 422.295 262.681C422.128 262.601 421.981 262.497 421.855 262.371C421.728 262.237 421.625 262.084 421.545 261.911C421.471 261.737 421.435 261.554 421.435 261.361C421.435 261.161 421.471 260.974 421.545 260.801C421.625 260.627 421.728 260.477 421.855 260.351C421.981 260.217 422.128 260.114 422.295 260.041C422.468 259.961 422.651 259.921 422.845 259.921C423.045 259.921 423.231 259.961 423.405 260.041C423.585 260.114 423.741 260.217 423.875 260.351C424.008 260.477 424.111 260.627 424.185 260.801C424.265 260.974 424.305 261.161 424.305 261.361ZM435.626 264.441L431.526 274.641H429.586L425.486 264.441H427.256C427.423 264.441 427.559 264.484 427.666 264.571C427.779 264.651 427.853 264.747 427.886 264.861L430.146 270.801C430.239 271.081 430.323 271.357 430.396 271.631C430.469 271.904 430.533 272.181 430.586 272.461C430.639 272.181 430.703 271.907 430.776 271.641C430.856 271.367 430.943 271.087 431.036 270.801L433.336 264.861C433.376 264.741 433.449 264.641 433.556 264.561C433.663 264.481 433.793 264.441 433.946 264.441H435.626ZM439.335 264.441V274.641H437.185V264.441H439.335ZM439.695 261.361C439.695 261.554 439.655 261.737 439.575 261.911C439.502 262.084 439.398 262.237 439.265 262.371C439.132 262.497 438.975 262.601 438.795 262.681C438.622 262.754 438.435 262.791 438.235 262.791C438.042 262.791 437.858 262.754 437.685 262.681C437.518 262.601 437.372 262.497 437.245 262.371C437.118 262.237 437.015 262.084 436.935 261.911C436.862 261.737 436.825 261.554 436.825 261.361C436.825 261.161 436.862 260.974 436.935 260.801C437.015 260.627 437.118 260.477 437.245 260.351C437.372 260.217 437.518 260.114 437.685 260.041C437.858 259.961 438.042 259.921 438.235 259.921C438.435 259.921 438.622 259.961 438.795 260.041C438.975 260.114 439.132 260.217 439.265 260.351C439.398 260.477 439.502 260.627 439.575 260.801C439.655 260.974 439.695 261.161 439.695 261.361ZM445.307 274.801C444.46 274.801 443.807 274.564 443.347 274.091C442.893 273.611 442.667 272.937 442.667 272.071V266.131H441.547C441.427 266.131 441.323 266.094 441.237 266.021C441.15 265.941 441.107 265.824 441.107 265.671V264.801L442.757 264.561L443.227 261.611C443.26 261.497 443.317 261.407 443.397 261.341C443.477 261.267 443.583 261.231 443.717 261.231H444.817V264.581H447.647V266.131H444.817V271.921C444.817 272.287 444.907 272.567 445.087 272.761C445.267 272.954 445.507 273.051 445.807 273.051C445.973 273.051 446.117 273.031 446.237 272.991C446.357 272.944 446.46 272.897 446.547 272.851C446.633 272.797 446.707 272.751 446.767 272.711C446.833 272.664 446.897 272.641 446.957 272.641C447.077 272.641 447.173 272.707 447.247 272.841L447.887 273.891C447.553 274.184 447.16 274.411 446.707 274.571C446.253 274.724 445.787 274.801 445.307 274.801ZM458.391 264.441L452.771 277.541C452.698 277.694 452.608 277.814 452.501 277.901C452.401 277.987 452.245 278.031 452.031 278.031H450.441L452.321 273.951L448.161 264.441H450.031C450.211 264.441 450.348 264.484 450.441 264.571C450.541 264.651 450.615 264.747 450.661 264.861L453.091 270.651C453.151 270.817 453.205 270.984 453.251 271.151C453.305 271.311 453.355 271.477 453.401 271.651C453.455 271.477 453.508 271.307 453.561 271.141C453.615 270.974 453.675 270.807 453.741 270.641L456.071 264.861C456.118 264.741 456.195 264.641 456.301 264.561C456.415 264.481 456.538 264.441 456.671 264.441H458.391Z" fill="#304C64"/>
<path d="M191.771 344.493L190.793 346.817L267.473 379.004L268.45 376.68L191.771 344.493Z" fill="#80A2B9"/>
<path d="M195.069 359.825C201.675 359.825 207.031 354.476 207.031 347.879C207.031 341.282 201.675 335.934 195.069 335.934C188.463 335.934 183.107 341.282 183.107 347.879C183.107 354.476 188.463 359.825 195.069 359.825Z" fill="#80A2B9"/>
<path d="M195.069 354.784C198.888 354.784 201.983 351.693 201.983 347.879C201.983 344.066 198.888 340.974 195.069 340.974C191.25 340.974 188.154 344.066 188.154 347.879C188.154 351.693 191.25 354.784 195.069 354.784Z" fill="url(#paint6_linear_991_932)"/>
<path d="M504.819 334H283.405C259.431 334 240 353.405 240 377.346C240 401.288 259.431 420.693 283.405 420.693H504.819C528.793 420.693 548.224 401.288 548.224 377.346C548.224 353.405 528.793 334 504.819 334Z" fill="white"/>
<path d="M504.819 339.242C525.866 339.242 542.975 356.328 542.975 377.346C542.975 398.364 525.866 415.451 504.819 415.451H283.405C262.358 415.451 245.249 398.364 245.249 377.346C245.249 356.328 262.358 339.242 283.405 339.242H504.819ZM504.819 334H283.405C259.431 334 240 353.405 240 377.346C240 401.288 259.431 420.693 283.405 420.693H504.819C528.793 420.693 548.224 401.288 548.224 377.346C548.224 353.405 528.793 334 504.819 334Z" fill="url(#paint7_linear_991_932)"/>
<path d="M358.7 383.11L358.69 385H349.71V370.6H358.69V372.49H352.06V376.83H357.36V378.66H352.06V383.11H358.7ZM369.593 385H367.533C367.367 385 367.233 384.957 367.133 384.87C367.04 384.783 366.963 384.687 366.903 384.58L364.553 380.81C364.493 381.037 364.413 381.233 364.313 381.4L362.183 384.58C362.11 384.687 362.027 384.783 361.933 384.87C361.847 384.957 361.73 385 361.583 385H359.663L363.193 379.74L359.803 374.8H361.863C362.03 374.8 362.15 374.827 362.223 374.88C362.303 374.927 362.373 375 362.433 375.1L364.743 378.7C364.803 378.48 364.897 378.27 365.023 378.07L366.973 375.14C367.107 374.913 367.277 374.8 367.483 374.8H369.453L366.063 379.65L369.593 385ZM377.79 376.8C377.723 376.887 377.66 376.953 377.6 377C377.54 377.047 377.453 377.07 377.34 377.07C377.226 377.07 377.106 377.03 376.98 376.95C376.86 376.87 376.713 376.783 376.54 376.69C376.373 376.59 376.17 376.5 375.93 376.42C375.69 376.34 375.39 376.3 375.03 376.3C374.563 376.3 374.153 376.383 373.8 376.55C373.453 376.717 373.16 376.957 372.92 377.27C372.686 377.577 372.51 377.953 372.39 378.4C372.276 378.84 372.22 379.337 372.22 379.89C372.22 380.463 372.283 380.973 372.41 381.42C372.536 381.867 372.716 382.243 372.95 382.55C373.19 382.857 373.476 383.09 373.81 383.25C374.15 383.41 374.53 383.49 374.95 383.49C375.363 383.49 375.7 383.44 375.96 383.34C376.22 383.24 376.436 383.13 376.61 383.01C376.783 382.89 376.93 382.78 377.05 382.68C377.176 382.58 377.31 382.53 377.45 382.53C377.623 382.53 377.756 382.597 377.85 382.73L378.46 383.52C378.213 383.82 377.94 384.073 377.64 384.28C377.34 384.487 377.023 384.657 376.69 384.79C376.356 384.917 376.01 385.007 375.65 385.06C375.29 385.12 374.926 385.15 374.56 385.15C373.926 385.15 373.333 385.033 372.78 384.8C372.233 384.56 371.753 384.217 371.34 383.77C370.933 383.317 370.61 382.767 370.37 382.12C370.136 381.467 370.02 380.723 370.02 379.89C370.02 379.137 370.126 378.44 370.34 377.8C370.553 377.153 370.863 376.597 371.27 376.13C371.683 375.663 372.193 375.3 372.8 375.04C373.406 374.773 374.106 374.64 374.9 374.64C375.64 374.64 376.29 374.76 376.85 375C377.416 375.24 377.92 375.58 378.36 376.02L377.79 376.8ZM386.703 378.75C386.703 378.39 386.65 378.057 386.543 377.75C386.443 377.437 386.293 377.167 386.093 376.94C385.893 376.707 385.643 376.527 385.343 376.4C385.05 376.267 384.71 376.2 384.323 376.2C383.543 376.2 382.93 376.423 382.483 376.87C382.036 377.317 381.753 377.943 381.633 378.75H386.703ZM381.573 380.07C381.6 380.65 381.69 381.153 381.843 381.58C381.996 382 382.2 382.35 382.453 382.63C382.713 382.91 383.02 383.12 383.373 383.26C383.733 383.393 384.133 383.46 384.573 383.46C384.993 383.46 385.356 383.413 385.663 383.32C385.97 383.22 386.236 383.113 386.463 383C386.69 382.88 386.883 382.773 387.043 382.68C387.203 382.58 387.35 382.53 387.483 382.53C387.656 382.53 387.79 382.597 387.883 382.73L388.493 383.52C388.24 383.82 387.953 384.073 387.633 384.28C387.313 384.487 386.973 384.657 386.613 384.79C386.253 384.917 385.883 385.007 385.503 385.06C385.123 385.12 384.753 385.15 384.393 385.15C383.686 385.15 383.03 385.033 382.423 384.8C381.823 384.56 381.3 384.21 380.853 383.75C380.413 383.29 380.066 382.72 379.813 382.04C379.566 381.36 379.443 380.577 379.443 379.69C379.443 378.983 379.553 378.323 379.773 377.71C380 377.097 380.32 376.563 380.733 376.11C381.153 375.657 381.66 375.3 382.253 375.04C382.853 374.773 383.53 374.64 384.283 374.64C384.91 374.64 385.49 374.743 386.023 374.95C386.556 375.15 387.016 375.447 387.403 375.84C387.79 376.233 388.09 376.717 388.303 377.29C388.523 377.857 388.633 378.503 388.633 379.23C388.633 379.563 388.596 379.787 388.523 379.9C388.45 380.013 388.316 380.07 388.123 380.07H381.573ZM392.828 370.2V385H390.678V370.2H392.828ZM397.672 370.2V385H395.522V370.2H397.672ZM407.016 378.75C407.016 378.39 406.962 378.057 406.856 377.75C406.756 377.437 406.606 377.167 406.406 376.94C406.206 376.707 405.956 376.527 405.656 376.4C405.362 376.267 405.022 376.2 404.636 376.2C403.856 376.2 403.242 376.423 402.796 376.87C402.349 377.317 402.066 377.943 401.946 378.75H407.016ZM401.886 380.07C401.912 380.65 402.002 381.153 402.156 381.58C402.309 382 402.512 382.35 402.766 382.63C403.026 382.91 403.332 383.12 403.686 383.26C404.046 383.393 404.446 383.46 404.886 383.46C405.306 383.46 405.669 383.413 405.976 383.32C406.282 383.22 406.549 383.113 406.776 383C407.002 382.88 407.196 382.773 407.356 382.68C407.516 382.58 407.662 382.53 407.796 382.53C407.969 382.53 408.102 382.597 408.196 382.73L408.806 383.52C408.552 383.82 408.266 384.073 407.946 384.28C407.626 384.487 407.286 384.657 406.926 384.79C406.566 384.917 406.196 385.007 405.816 385.06C405.436 385.12 405.066 385.15 404.706 385.15C403.999 385.15 403.342 385.033 402.736 384.8C402.136 384.56 401.612 384.21 401.166 383.75C400.726 383.29 400.379 382.72 400.126 382.04C399.879 381.36 399.756 380.577 399.756 379.69C399.756 378.983 399.866 378.323 400.086 377.71C400.312 377.097 400.632 376.563 401.046 376.11C401.466 375.657 401.972 375.3 402.566 375.04C403.166 374.773 403.842 374.64 404.596 374.64C405.222 374.64 405.802 374.743 406.336 374.95C406.869 375.15 407.329 375.447 407.716 375.84C408.102 376.233 408.402 376.717 408.616 377.29C408.836 377.857 408.946 378.503 408.946 379.23C408.946 379.563 408.909 379.787 408.836 379.9C408.762 380.013 408.629 380.07 408.436 380.07H401.886ZM412.961 376.15C413.181 375.923 413.407 375.72 413.641 375.54C413.881 375.353 414.134 375.193 414.401 375.06C414.667 374.927 414.951 374.823 415.251 374.75C415.551 374.677 415.877 374.64 416.231 374.64C416.791 374.64 417.281 374.733 417.701 374.92C418.127 375.107 418.484 375.37 418.771 375.71C419.064 376.05 419.284 376.46 419.431 376.94C419.577 377.413 419.651 377.937 419.651 378.51V385H417.511V378.51C417.511 377.823 417.351 377.29 417.031 376.91C416.717 376.53 416.237 376.34 415.591 376.34C415.111 376.34 414.664 376.45 414.251 376.67C413.844 376.89 413.461 377.19 413.101 377.57V385H410.951V374.8H412.251C412.544 374.8 412.731 374.937 412.811 375.21L412.961 376.15ZM429.372 376.8C429.305 376.887 429.242 376.953 429.182 377C429.122 377.047 429.035 377.07 428.922 377.07C428.808 377.07 428.688 377.03 428.562 376.95C428.442 376.87 428.295 376.783 428.122 376.69C427.955 376.59 427.752 376.5 427.512 376.42C427.272 376.34 426.972 376.3 426.612 376.3C426.145 376.3 425.735 376.383 425.382 376.55C425.035 376.717 424.742 376.957 424.502 377.27C424.268 377.577 424.092 377.953 423.972 378.4C423.858 378.84 423.802 379.337 423.802 379.89C423.802 380.463 423.865 380.973 423.992 381.42C424.118 381.867 424.298 382.243 424.532 382.55C424.772 382.857 425.058 383.09 425.392 383.25C425.732 383.41 426.112 383.49 426.532 383.49C426.945 383.49 427.282 383.44 427.542 383.34C427.802 383.24 428.018 383.13 428.192 383.01C428.365 382.89 428.512 382.78 428.632 382.68C428.758 382.58 428.892 382.53 429.032 382.53C429.205 382.53 429.338 382.597 429.432 382.73L430.042 383.52C429.795 383.82 429.522 384.073 429.222 384.28C428.922 384.487 428.605 384.657 428.272 384.79C427.938 384.917 427.592 385.007 427.232 385.06C426.872 385.12 426.508 385.15 426.142 385.15C425.508 385.15 424.915 385.033 424.362 384.8C423.815 384.56 423.335 384.217 422.922 383.77C422.515 383.317 422.192 382.767 421.952 382.12C421.718 381.467 421.602 380.723 421.602 379.89C421.602 379.137 421.708 378.44 421.922 377.8C422.135 377.153 422.445 376.597 422.852 376.13C423.265 375.663 423.775 375.3 424.382 375.04C424.988 374.773 425.688 374.64 426.482 374.64C427.222 374.64 427.872 374.76 428.432 375C428.998 375.24 429.502 375.58 429.942 376.02L429.372 376.8ZM438.285 378.75C438.285 378.39 438.232 378.057 438.125 377.75C438.025 377.437 437.875 377.167 437.675 376.94C437.475 376.707 437.225 376.527 436.925 376.4C436.632 376.267 436.292 376.2 435.905 376.2C435.125 376.2 434.512 376.423 434.065 376.87C433.618 377.317 433.335 377.943 433.215 378.75H438.285ZM433.155 380.07C433.182 380.65 433.272 381.153 433.425 381.58C433.578 382 433.782 382.35 434.035 382.63C434.295 382.91 434.602 383.12 434.955 383.26C435.315 383.393 435.715 383.46 436.155 383.46C436.575 383.46 436.938 383.413 437.245 383.32C437.552 383.22 437.818 383.113 438.045 383C438.272 382.88 438.465 382.773 438.625 382.68C438.785 382.58 438.932 382.53 439.065 382.53C439.238 382.53 439.372 382.597 439.465 382.73L440.075 383.52C439.822 383.82 439.535 384.073 439.215 384.28C438.895 384.487 438.555 384.657 438.195 384.79C437.835 384.917 437.465 385.007 437.085 385.06C436.705 385.12 436.335 385.15 435.975 385.15C435.268 385.15 434.612 385.033 434.005 384.8C433.405 384.56 432.882 384.21 432.435 383.75C431.995 383.29 431.648 382.72 431.395 382.04C431.148 381.36 431.025 380.577 431.025 379.69C431.025 378.983 431.135 378.323 431.355 377.71C431.582 377.097 431.902 376.563 432.315 376.11C432.735 375.657 433.242 375.3 433.835 375.04C434.435 374.773 435.112 374.64 435.865 374.64C436.492 374.64 437.072 374.743 437.605 374.95C438.138 375.15 438.598 375.447 438.985 375.84C439.372 376.233 439.672 376.717 439.885 377.29C440.105 377.857 440.215 378.503 440.215 379.23C440.215 379.563 440.178 379.787 440.105 379.9C440.032 380.013 439.898 380.07 439.705 380.07H433.155Z" fill="#304C64"/>
<path d="M128.768 427.257L126.77 428.796L172.841 488.467L174.84 486.929L128.768 427.257Z" fill="#80A2B9"/>
<path d="M134.154 442.384C140.257 439.859 143.156 432.871 140.627 426.776C138.099 420.681 131.102 417.786 124.999 420.311C118.895 422.836 115.997 429.824 118.525 435.919C121.053 442.014 128.05 444.909 134.154 442.384Z" fill="#80A2B9"/>
<path d="M122.645 431.346C122.645 427.515 125.723 424.441 129.559 424.441C133.395 424.441 136.473 427.515 136.473 431.346C136.473 435.177 133.395 438.251 129.559 438.251C125.723 438.251 122.645 435.126 122.645 431.346Z" fill="url(#paint8_linear_991_932)"/>
<path d="M458.556 457.701C450.682 449.839 439.882 445 427.87 445H206.405C182.431 445 163 464.405 163 488.346C163 500.342 167.845 511.128 175.719 518.991C183.592 526.854 194.443 531.693 206.405 531.693H427.819C451.793 531.693 471.224 512.288 471.224 488.346C471.274 476.35 466.379 465.514 458.556 457.701Z" fill="white"/>
<path d="M427.87 450.242C438.065 450.242 447.654 454.224 454.821 461.381C462.038 468.588 465.975 478.165 465.975 488.296C465.975 509.314 448.866 526.4 427.819 526.4H206.405C196.21 526.4 186.671 522.419 179.453 515.261C172.236 508.104 168.299 498.528 168.299 488.346C168.299 467.328 185.409 450.242 206.455 450.242H427.87ZM427.87 445H206.405C182.431 445 163 464.405 163 488.346C163 500.342 167.845 511.128 175.719 518.991C183.592 526.854 194.443 531.693 206.405 531.693H427.819C451.793 531.693 471.224 512.288 471.224 488.346C471.224 476.35 466.379 465.564 458.505 457.701C450.682 449.839 439.831 445 427.87 445Z" fill="url(#paint9_linear_991_932)"/>
<path d="M283.24 484.06C283.167 484.18 283.09 484.27 283.01 484.33C282.93 484.383 282.83 484.41 282.71 484.41C282.583 484.41 282.44 484.357 282.28 484.25C282.127 484.143 281.933 484.027 281.7 483.9C281.473 483.767 281.203 483.647 280.89 483.54C280.577 483.427 280.203 483.37 279.77 483.37C279.37 483.37 279.017 483.42 278.71 483.52C278.41 483.62 278.157 483.76 277.95 483.94C277.743 484.12 277.587 484.333 277.48 484.58C277.38 484.82 277.33 485.083 277.33 485.37C277.33 485.737 277.427 486.043 277.62 486.29C277.813 486.53 278.067 486.737 278.38 486.91C278.7 487.083 279.063 487.237 279.47 487.37C279.877 487.497 280.29 487.633 280.71 487.78C281.137 487.927 281.553 488.093 281.96 488.28C282.367 488.467 282.727 488.703 283.04 488.99C283.36 489.277 283.617 489.627 283.81 490.04C284.003 490.453 284.1 490.957 284.1 491.55C284.1 492.19 283.99 492.79 283.77 493.35C283.55 493.91 283.23 494.4 282.81 494.82C282.397 495.233 281.883 495.56 281.27 495.8C280.663 496.04 279.97 496.16 279.19 496.16C278.73 496.16 278.28 496.113 277.84 496.02C277.407 495.933 276.99 495.81 276.59 495.65C276.197 495.483 275.827 495.283 275.48 495.05C275.133 494.817 274.823 494.557 274.55 494.27L275.23 493.15C275.29 493.057 275.367 492.983 275.46 492.93C275.553 492.877 275.657 492.85 275.77 492.85C275.923 492.85 276.093 492.923 276.28 493.07C276.467 493.21 276.69 493.367 276.95 493.54C277.217 493.707 277.537 493.863 277.91 494.01C278.283 494.15 278.73 494.22 279.25 494.22C280.097 494.22 280.75 494.013 281.21 493.6C281.677 493.187 281.91 492.617 281.91 491.89C281.91 491.483 281.813 491.153 281.62 490.9C281.427 490.64 281.17 490.423 280.85 490.25C280.537 490.077 280.177 489.93 279.77 489.81C279.363 489.69 278.95 489.563 278.53 489.43C278.11 489.29 277.697 489.13 277.29 488.95C276.883 488.763 276.52 488.523 276.2 488.23C275.887 487.93 275.633 487.563 275.44 487.13C275.247 486.69 275.15 486.143 275.15 485.49C275.15 484.97 275.25 484.467 275.45 483.98C275.657 483.493 275.953 483.063 276.34 482.69C276.733 482.31 277.217 482.007 277.79 481.78C278.363 481.553 279.017 481.44 279.75 481.44C280.577 481.44 281.333 481.57 282.02 481.83C282.713 482.09 283.31 482.46 283.81 482.94L283.24 484.06ZM288.39 485.8V496H286.24V485.8H288.39ZM288.75 482.72C288.75 482.913 288.71 483.097 288.63 483.27C288.557 483.443 288.453 483.597 288.32 483.73C288.187 483.857 288.03 483.96 287.85 484.04C287.677 484.113 287.49 484.15 287.29 484.15C287.097 484.15 286.913 484.113 286.74 484.04C286.573 483.96 286.427 483.857 286.3 483.73C286.173 483.597 286.07 483.443 285.99 483.27C285.917 483.097 285.88 482.913 285.88 482.72C285.88 482.52 285.917 482.333 285.99 482.16C286.07 481.987 286.173 481.837 286.3 481.71C286.427 481.577 286.573 481.473 286.74 481.4C286.913 481.32 287.097 481.28 287.29 481.28C287.49 481.28 287.677 481.32 287.85 481.4C288.03 481.473 288.187 481.577 288.32 481.71C288.453 481.837 288.557 481.987 288.63 482.16C288.71 482.333 288.75 482.52 288.75 482.72ZM291.091 496V485.8H292.391C292.685 485.8 292.871 485.937 292.951 486.21L293.091 487.1C293.278 486.887 293.471 486.693 293.671 486.52C293.871 486.34 294.085 486.187 294.311 486.06C294.545 485.927 294.791 485.823 295.051 485.75C295.318 485.677 295.605 485.64 295.911 485.64C296.238 485.64 296.538 485.687 296.811 485.78C297.085 485.873 297.325 486.007 297.531 486.18C297.745 486.353 297.928 486.563 298.081 486.81C298.235 487.057 298.361 487.333 298.461 487.64C298.615 487.287 298.808 486.983 299.041 486.73C299.275 486.477 299.535 486.27 299.821 486.11C300.108 485.95 300.411 485.833 300.731 485.76C301.058 485.68 301.388 485.64 301.721 485.64C302.268 485.64 302.755 485.727 303.181 485.9C303.615 486.073 303.978 486.327 304.271 486.66C304.571 486.987 304.798 487.39 304.951 487.87C305.105 488.35 305.181 488.897 305.181 489.51V496H303.031V489.51C303.031 488.79 302.875 488.25 302.561 487.89C302.255 487.523 301.798 487.34 301.191 487.34C300.918 487.34 300.661 487.387 300.421 487.48C300.181 487.573 299.971 487.71 299.791 487.89C299.611 488.07 299.468 488.297 299.361 488.57C299.261 488.837 299.211 489.15 299.211 489.51V496H297.061V489.51C297.061 488.763 296.911 488.217 296.611 487.87C296.311 487.517 295.871 487.34 295.291 487.34C294.891 487.34 294.521 487.443 294.181 487.65C293.841 487.85 293.528 488.127 293.241 488.48V496H291.091ZM309.843 493.44C310.143 493.827 310.469 494.1 310.823 494.26C311.183 494.413 311.579 494.49 312.013 494.49C312.853 494.49 313.506 494.183 313.973 493.57C314.446 492.957 314.683 492.043 314.683 490.83C314.683 490.203 314.629 489.67 314.523 489.23C314.416 488.783 314.263 488.42 314.063 488.14C313.863 487.86 313.619 487.657 313.333 487.53C313.046 487.403 312.723 487.34 312.363 487.34C311.816 487.34 311.343 487.46 310.943 487.7C310.549 487.933 310.183 488.27 309.843 488.71V493.44ZM309.733 487.28C310.159 486.78 310.643 486.377 311.183 486.07C311.729 485.763 312.363 485.61 313.083 485.61C313.656 485.61 314.176 485.727 314.643 485.96C315.109 486.187 315.509 486.52 315.843 486.96C316.176 487.4 316.433 487.947 316.613 488.6C316.799 489.247 316.893 489.99 316.893 490.83C316.893 491.583 316.789 492.287 316.583 492.94C316.383 493.587 316.093 494.15 315.713 494.63C315.333 495.103 314.873 495.477 314.333 495.75C313.793 496.017 313.183 496.15 312.503 496.15C311.903 496.15 311.393 496.053 310.973 495.86C310.559 495.667 310.183 495.4 309.843 495.06V499.39H307.693V485.8H308.993C309.286 485.8 309.473 485.937 309.553 486.21L309.733 487.28ZM321.172 481.2V496H319.022V481.2H321.172ZM326.066 485.8V496H323.916V485.8H326.066ZM326.426 482.72C326.426 482.913 326.386 483.097 326.306 483.27C326.232 483.443 326.129 483.597 325.996 483.73C325.862 483.857 325.706 483.96 325.526 484.04C325.352 484.113 325.166 484.15 324.966 484.15C324.772 484.15 324.589 484.113 324.416 484.04C324.249 483.96 324.102 483.857 323.976 483.73C323.849 483.597 323.746 483.443 323.666 483.27C323.592 483.097 323.556 482.913 323.556 482.72C323.556 482.52 323.592 482.333 323.666 482.16C323.746 481.987 323.849 481.837 323.976 481.71C324.102 481.577 324.249 481.473 324.416 481.4C324.589 481.32 324.772 481.28 324.966 481.28C325.166 481.28 325.352 481.32 325.526 481.4C325.706 481.473 325.862 481.577 325.996 481.71C326.129 481.837 326.232 481.987 326.306 482.16C326.386 482.333 326.426 482.52 326.426 482.72ZM335.977 487.8C335.91 487.887 335.847 487.953 335.787 488C335.727 488.047 335.64 488.07 335.527 488.07C335.414 488.07 335.294 488.03 335.167 487.95C335.047 487.87 334.9 487.783 334.727 487.69C334.56 487.59 334.357 487.5 334.117 487.42C333.877 487.34 333.577 487.3 333.217 487.3C332.75 487.3 332.34 487.383 331.987 487.55C331.64 487.717 331.347 487.957 331.107 488.27C330.874 488.577 330.697 488.953 330.577 489.4C330.464 489.84 330.407 490.337 330.407 490.89C330.407 491.463 330.47 491.973 330.597 492.42C330.724 492.867 330.904 493.243 331.137 493.55C331.377 493.857 331.664 494.09 331.997 494.25C332.337 494.41 332.717 494.49 333.137 494.49C333.55 494.49 333.887 494.44 334.147 494.34C334.407 494.24 334.624 494.13 334.797 494.01C334.97 493.89 335.117 493.78 335.237 493.68C335.364 493.58 335.497 493.53 335.637 493.53C335.81 493.53 335.944 493.597 336.037 493.73L336.647 494.52C336.4 494.82 336.127 495.073 335.827 495.28C335.527 495.487 335.21 495.657 334.877 495.79C334.544 495.917 334.197 496.007 333.837 496.06C333.477 496.12 333.114 496.15 332.747 496.15C332.114 496.15 331.52 496.033 330.967 495.8C330.42 495.56 329.94 495.217 329.527 494.77C329.12 494.317 328.797 493.767 328.557 493.12C328.324 492.467 328.207 491.723 328.207 490.89C328.207 490.137 328.314 489.44 328.527 488.8C328.74 488.153 329.05 487.597 329.457 487.13C329.87 486.663 330.38 486.3 330.987 486.04C331.594 485.773 332.294 485.64 333.087 485.64C333.827 485.64 334.477 485.76 335.037 486C335.604 486.24 336.107 486.58 336.547 487.02L335.977 487.8ZM340.616 485.8V496H338.466V485.8H340.616ZM340.976 482.72C340.976 482.913 340.936 483.097 340.856 483.27C340.783 483.443 340.68 483.597 340.546 483.73C340.413 483.857 340.256 483.96 340.076 484.04C339.903 484.113 339.716 484.15 339.516 484.15C339.323 484.15 339.14 484.113 338.966 484.04C338.8 483.96 338.653 483.857 338.526 483.73C338.4 483.597 338.296 483.443 338.216 483.27C338.143 483.097 338.106 482.913 338.106 482.72C338.106 482.52 338.143 482.333 338.216 482.16C338.296 481.987 338.4 481.837 338.526 481.71C338.653 481.577 338.8 481.473 338.966 481.4C339.14 481.32 339.323 481.28 339.516 481.28C339.716 481.28 339.903 481.32 340.076 481.4C340.256 481.473 340.413 481.577 340.546 481.71C340.68 481.837 340.783 481.987 340.856 482.16C340.936 482.333 340.976 482.52 340.976 482.72ZM346.588 496.16C345.741 496.16 345.088 495.923 344.628 495.45C344.174 494.97 343.948 494.297 343.948 493.43V487.49H342.828C342.708 487.49 342.604 487.453 342.518 487.38C342.431 487.3 342.388 487.183 342.388 487.03V486.16L344.038 485.92L344.508 482.97C344.541 482.857 344.598 482.767 344.678 482.7C344.758 482.627 344.864 482.59 344.998 482.59H346.098V485.94H348.928V487.49H346.098V493.28C346.098 493.647 346.188 493.927 346.368 494.12C346.548 494.313 346.788 494.41 347.088 494.41C347.254 494.41 347.398 494.39 347.518 494.35C347.638 494.303 347.741 494.257 347.828 494.21C347.914 494.157 347.988 494.11 348.048 494.07C348.114 494.023 348.178 494 348.238 494C348.358 494 348.454 494.067 348.528 494.2L349.168 495.25C348.834 495.543 348.441 495.77 347.988 495.93C347.534 496.083 347.068 496.16 346.588 496.16ZM359.673 485.8L354.053 498.9C353.979 499.053 353.889 499.173 353.783 499.26C353.683 499.347 353.526 499.39 353.313 499.39H351.723L353.603 495.31L349.443 485.8H351.313C351.493 485.8 351.629 485.843 351.723 485.93C351.823 486.01 351.896 486.107 351.943 486.22L354.373 492.01C354.433 492.177 354.486 492.343 354.533 492.51C354.586 492.67 354.636 492.837 354.683 493.01C354.736 492.837 354.789 492.667 354.843 492.5C354.896 492.333 354.956 492.167 355.023 492L357.353 486.22C357.399 486.1 357.476 486 357.583 485.92C357.696 485.84 357.819 485.8 357.953 485.8H359.673Z" fill="#304C64"/>
<path d="M280.472 51.2384H278.122V36.8384H280.472V51.2384ZM285.338 42.3884C285.558 42.1617 285.784 41.9584 286.018 41.7784C286.258 41.5917 286.511 41.4317 286.778 41.2984C287.044 41.1651 287.328 41.0617 287.628 40.9884C287.928 40.9151 288.254 40.8784 288.608 40.8784C289.168 40.8784 289.658 40.9717 290.078 41.1584C290.504 41.3451 290.861 41.6084 291.148 41.9484C291.441 42.2884 291.661 42.6984 291.808 43.1784C291.954 43.6517 292.028 44.1751 292.028 44.7484V51.2384H289.888V44.7484C289.888 44.0617 289.728 43.5284 289.408 43.1484C289.094 42.7684 288.614 42.5784 287.968 42.5784C287.488 42.5784 287.041 42.6884 286.628 42.9084C286.221 43.1284 285.838 43.4284 285.478 43.8084V51.2384H283.328V41.0384H284.628C284.921 41.0384 285.108 41.1751 285.188 41.4484L285.338 42.3884ZM296.549 42.3884C296.769 42.1617 296.995 41.9584 297.229 41.7784C297.469 41.5917 297.722 41.4317 297.989 41.2984C298.255 41.1651 298.539 41.0617 298.839 40.9884C299.139 40.9151 299.465 40.8784 299.819 40.8784C300.379 40.8784 300.869 40.9717 301.289 41.1584C301.715 41.3451 302.072 41.6084 302.359 41.9484C302.652 42.2884 302.872 42.6984 303.019 43.1784C303.165 43.6517 303.239 44.1751 303.239 44.7484V51.2384H301.099V44.7484C301.099 44.0617 300.939 43.5284 300.619 43.1484C300.305 42.7684 299.825 42.5784 299.179 42.5784C298.699 42.5784 298.252 42.6884 297.839 42.9084C297.432 43.1284 297.049 43.4284 296.689 43.8084V51.2384H294.539V41.0384H295.839C296.132 41.0384 296.319 41.1751 296.399 41.4484L296.549 42.3884ZM310.159 40.8784C310.913 40.8784 311.593 41.0017 312.199 41.2484C312.813 41.4951 313.333 41.8451 313.759 42.2984C314.193 42.7517 314.526 43.3017 314.759 43.9484C314.993 44.5951 315.109 45.3217 315.109 46.1284C315.109 46.9351 314.993 47.6617 314.759 48.3084C314.526 48.9551 314.193 49.5084 313.759 49.9684C313.333 50.4217 312.813 50.7717 312.199 51.0184C311.593 51.2651 310.913 51.3884 310.159 51.3884C309.399 51.3884 308.713 51.2651 308.099 51.0184C307.493 50.7717 306.973 50.4217 306.539 49.9684C306.106 49.5084 305.773 48.9551 305.539 48.3084C305.306 47.6617 305.189 46.9351 305.189 46.1284C305.189 45.3217 305.306 44.5951 305.539 43.9484C305.773 43.3017 306.106 42.7517 306.539 42.2984C306.973 41.8451 307.493 41.4951 308.099 41.2484C308.713 41.0017 309.399 40.8784 310.159 40.8784ZM310.159 49.7084C311.079 49.7084 311.763 49.4017 312.209 48.7884C312.663 48.1684 312.889 47.2851 312.889 46.1384C312.889 44.9917 312.663 44.1084 312.209 43.4884C311.763 42.8617 311.079 42.5484 310.159 42.5484C309.226 42.5484 308.533 42.8617 308.079 43.4884C307.626 44.1084 307.399 44.9917 307.399 46.1384C307.399 47.2851 307.626 48.1684 308.079 48.7884C308.533 49.4017 309.226 49.7084 310.159 49.7084ZM325.862 41.0384L321.762 51.2384H319.822L315.722 41.0384H317.492C317.659 41.0384 317.796 41.0817 317.902 41.1684C318.016 41.2484 318.089 41.3451 318.122 41.4584L320.382 47.3984C320.476 47.6784 320.559 47.9551 320.632 48.2284C320.706 48.5017 320.769 48.7784 320.822 49.0584C320.876 48.7784 320.939 48.5051 321.012 48.2384C321.092 47.9651 321.179 47.6851 321.272 47.3984L323.572 41.4584C323.612 41.3384 323.686 41.2384 323.792 41.1584C323.899 41.0784 324.029 41.0384 324.182 41.0384H325.862ZM332.547 46.7784C331.78 46.8051 331.134 46.8684 330.607 46.9684C330.08 47.0617 329.654 47.1851 329.327 47.3384C329 47.4851 328.764 47.6617 328.617 47.8684C328.477 48.0751 328.407 48.3017 328.407 48.5484C328.407 48.7884 328.444 48.9951 328.517 49.1684C328.597 49.3351 328.704 49.4751 328.837 49.5884C328.977 49.6951 329.137 49.7751 329.317 49.8284C329.504 49.8751 329.707 49.8984 329.927 49.8984C330.487 49.8984 330.967 49.7951 331.367 49.5884C331.774 49.3751 332.167 49.0684 332.547 48.6684V46.7784ZM326.847 42.4584C328 41.3851 329.374 40.8484 330.967 40.8484C331.554 40.8484 332.074 40.9451 332.527 41.1384C332.987 41.3251 333.37 41.5917 333.677 41.9384C333.99 42.2851 334.227 42.6984 334.387 43.1784C334.554 43.6517 334.637 44.1784 334.637 44.7584V51.2384H333.677C333.47 51.2384 333.314 51.2084 333.207 51.1484C333.1 51.0817 333.01 50.9517 332.937 50.7584L332.727 49.9284C332.467 50.1617 332.21 50.3717 331.957 50.5584C331.704 50.7384 331.44 50.8917 331.167 51.0184C330.9 51.1451 330.61 51.2384 330.297 51.2984C329.99 51.3651 329.65 51.3984 329.277 51.3984C328.864 51.3984 328.477 51.3417 328.117 51.2284C327.764 51.1151 327.457 50.9451 327.197 50.7184C326.937 50.4851 326.73 50.1984 326.577 49.8584C326.43 49.5184 326.357 49.1184 326.357 48.6584C326.357 48.2651 326.46 47.8817 326.667 47.5084C326.88 47.1351 327.227 46.8017 327.707 46.5084C328.194 46.2084 328.83 45.9617 329.617 45.7684C330.41 45.5751 331.387 45.4651 332.547 45.4384V44.7584C332.547 44.0251 332.39 43.4784 332.077 43.1184C331.764 42.7584 331.304 42.5784 330.697 42.5784C330.284 42.5784 329.937 42.6317 329.657 42.7384C329.377 42.8384 329.134 42.9484 328.927 43.0684C328.72 43.1884 328.537 43.3017 328.377 43.4084C328.217 43.5084 328.047 43.5584 327.867 43.5584C327.72 43.5584 327.594 43.5217 327.487 43.4484C327.387 43.3684 327.304 43.2717 327.237 43.1584L326.847 42.4584ZM346.919 51.2384H344.769V42.7284H339.799V48.5184C339.799 48.8851 339.889 49.1651 340.069 49.3584C340.249 49.5517 340.489 49.6484 340.789 49.6484C340.956 49.6484 341.099 49.6284 341.219 49.5884C341.339 49.5417 341.442 49.4951 341.529 49.4484C341.616 49.3951 341.689 49.3484 341.749 49.3084C341.816 49.2617 341.879 49.2384 341.939 49.2384C342.059 49.2384 342.156 49.3051 342.229 49.4384L342.869 50.4884C342.536 50.7817 342.142 51.0084 341.689 51.1684C341.236 51.3217 340.769 51.3984 340.289 51.3984C339.442 51.3984 338.789 51.1617 338.329 50.6884C337.876 50.2084 337.649 49.5351 337.649 48.6684V42.7284H336.529C336.409 42.7284 336.306 42.6917 336.219 42.6184C336.132 42.5384 336.089 42.4217 336.089 42.2684V41.3984L337.739 41.1584L338.209 38.2084C338.242 38.0951 338.299 38.0051 338.379 37.9384C338.459 37.8651 338.566 37.8284 338.699 37.8284H339.799V41.1784H346.919V51.2384ZM347.359 37.9084C347.359 38.1017 347.319 38.2851 347.239 38.4584C347.166 38.6251 347.062 38.7751 346.929 38.9084C346.796 39.0351 346.639 39.1384 346.459 39.2184C346.286 39.2917 346.102 39.3284 345.909 39.3284C345.716 39.3284 345.532 39.2917 345.359 39.2184C345.192 39.1384 345.042 39.0351 344.909 38.9084C344.782 38.7751 344.679 38.6251 344.599 38.4584C344.526 38.2851 344.489 38.1017 344.489 37.9084C344.489 37.7084 344.526 37.5217 344.599 37.3484C344.679 37.1684 344.782 37.0151 344.909 36.8884C345.042 36.7551 345.192 36.6517 345.359 36.5784C345.532 36.4984 345.716 36.4584 345.909 36.4584C346.102 36.4584 346.286 36.4984 346.459 36.5784C346.639 36.6517 346.796 36.7551 346.929 36.8884C347.062 37.0151 347.166 37.1684 347.239 37.3484C347.319 37.5217 347.359 37.7084 347.359 37.9084ZM354.046 40.8784C354.8 40.8784 355.48 41.0017 356.086 41.2484C356.7 41.4951 357.22 41.8451 357.646 42.2984C358.08 42.7517 358.413 43.3017 358.646 43.9484C358.88 44.5951 358.996 45.3217 358.996 46.1284C358.996 46.9351 358.88 47.6617 358.646 48.3084C358.413 48.9551 358.08 49.5084 357.646 49.9684C357.22 50.4217 356.7 50.7717 356.086 51.0184C355.48 51.2651 354.8 51.3884 354.046 51.3884C353.286 51.3884 352.6 51.2651 351.986 51.0184C351.38 50.7717 350.86 50.4217 350.426 49.9684C349.993 49.5084 349.66 48.9551 349.426 48.3084C349.193 47.6617 349.076 46.9351 349.076 46.1284C349.076 45.3217 349.193 44.5951 349.426 43.9484C349.66 43.3017 349.993 42.7517 350.426 42.2984C350.86 41.8451 351.38 41.4951 351.986 41.2484C352.6 41.0017 353.286 40.8784 354.046 40.8784ZM354.046 49.7084C354.966 49.7084 355.65 49.4017 356.096 48.7884C356.55 48.1684 356.776 47.2851 356.776 46.1384C356.776 44.9917 356.55 44.1084 356.096 43.4884C355.65 42.8617 354.966 42.5484 354.046 42.5484C353.113 42.5484 352.42 42.8617 351.966 43.4884C351.513 44.1084 351.286 44.9917 351.286 46.1384C351.286 47.2851 351.513 48.1684 351.966 48.7884C352.42 49.4017 353.113 49.7084 354.046 49.7084ZM363.072 42.3884C363.292 42.1617 363.519 41.9584 363.752 41.7784C363.992 41.5917 364.245 41.4317 364.512 41.2984C364.779 41.1651 365.062 41.0617 365.362 40.9884C365.662 40.9151 365.989 40.8784 366.342 40.8784C366.902 40.8784 367.392 40.9717 367.812 41.1584C368.239 41.3451 368.595 41.6084 368.882 41.9484C369.175 42.2884 369.395 42.6984 369.542 43.1784C369.689 43.6517 369.762 44.1751 369.762 44.7484V51.2384H367.622V44.7484C367.622 44.0617 367.462 43.5284 367.142 43.1484C366.829 42.7684 366.349 42.5784 365.702 42.5784C365.222 42.5784 364.775 42.6884 364.362 42.9084C363.955 43.1284 363.572 43.4284 363.212 43.8084V51.2384H361.062V41.0384H362.362C362.655 41.0384 362.842 41.1751 362.922 41.4484L363.072 42.3884Z" fill="#304C64"/>
<path d="M74.4138 269.924C74.4938 269.924 74.5738 269.941 74.6538 269.974C74.7338 270.001 74.8105 270.051 74.8838 270.124L76.2238 271.534C75.6372 272.301 74.9005 272.881 74.0138 273.274C73.1338 273.661 72.0905 273.854 70.8838 273.854C69.7772 273.854 68.7838 273.667 67.9038 273.294C67.0305 272.914 66.2872 272.394 65.6738 271.734C65.0672 271.067 64.6005 270.281 64.2738 269.374C63.9472 268.461 63.7838 267.471 63.7838 266.404C63.7838 265.317 63.9705 264.321 64.3438 263.414C64.7172 262.501 65.2372 261.714 65.9038 261.054C66.5772 260.394 67.3805 259.881 68.3138 259.514C69.2472 259.147 70.2772 258.964 71.4038 258.964C71.9505 258.964 72.4638 259.014 72.9438 259.114C73.4305 259.207 73.8838 259.341 74.3038 259.514C74.7238 259.681 75.1105 259.884 75.4638 260.124C75.8172 260.357 76.1305 260.617 76.4038 260.904L75.2638 262.434C75.1905 262.527 75.1038 262.614 75.0038 262.694C74.9038 262.767 74.7638 262.804 74.5838 262.804C74.4638 262.804 74.3505 262.777 74.2438 262.724C74.1372 262.671 74.0238 262.607 73.9038 262.534C73.7838 262.454 73.6505 262.371 73.5038 262.284C73.3638 262.191 73.1938 262.107 72.9938 262.034C72.8005 261.954 72.5705 261.887 72.3038 261.834C72.0438 261.781 71.7372 261.754 71.3838 261.754C70.7705 261.754 70.2105 261.864 69.7038 262.084C69.1972 262.297 68.7605 262.607 68.3938 263.014C68.0338 263.414 67.7505 263.901 67.5438 264.474C67.3438 265.047 67.2438 265.691 67.2438 266.404C67.2438 267.151 67.3438 267.814 67.5438 268.394C67.7505 268.974 68.0272 269.464 68.3738 269.864C68.7272 270.257 69.1372 270.557 69.6038 270.764C70.0705 270.971 70.5705 271.074 71.1038 271.074C71.4105 271.074 71.6905 271.061 71.9438 271.034C72.1972 271.001 72.4305 270.947 72.6438 270.874C72.8638 270.801 73.0705 270.707 73.2638 270.594C73.4638 270.474 73.6638 270.327 73.8638 270.154C73.9438 270.087 74.0305 270.034 74.1238 269.994C74.2172 269.947 74.3138 269.924 74.4138 269.924ZM80.6684 263.324V269.904C80.6684 270.417 80.785 270.814 81.0184 271.094C81.2517 271.374 81.595 271.514 82.0484 271.514C82.3884 271.514 82.705 271.444 82.9984 271.304C83.2984 271.164 83.5884 270.967 83.8684 270.714V263.324H86.9684V273.694H85.0484C84.6617 273.694 84.4084 273.521 84.2884 273.174L84.0984 272.574C83.8984 272.767 83.6917 272.944 83.4784 273.104C83.265 273.257 83.035 273.391 82.7884 273.504C82.5484 273.611 82.2884 273.694 82.0084 273.754C81.7284 273.821 81.4217 273.854 81.0884 273.854C80.5217 273.854 80.0184 273.757 79.5784 273.564C79.145 273.364 78.7784 273.087 78.4784 272.734C78.1784 272.381 77.9517 271.964 77.7984 271.484C77.645 271.004 77.5684 270.477 77.5684 269.904V263.324H80.6684ZM95.7099 265.594C95.6299 265.721 95.5433 265.811 95.4499 265.864C95.3633 265.917 95.2499 265.944 95.1099 265.944C94.9633 265.944 94.8166 265.914 94.6699 265.854C94.5233 265.787 94.3633 265.717 94.1899 265.644C94.0233 265.571 93.8333 265.504 93.6199 265.444C93.4066 265.377 93.1633 265.344 92.8899 265.344C92.4966 265.344 92.1933 265.421 91.9799 265.574C91.7733 265.721 91.6699 265.927 91.6699 266.194C91.6699 266.387 91.7366 266.547 91.8699 266.674C92.0099 266.801 92.1933 266.914 92.4199 267.014C92.6466 267.107 92.9033 267.197 93.1899 267.284C93.4766 267.371 93.7699 267.467 94.0699 267.574C94.3699 267.681 94.6633 267.807 94.9499 267.954C95.2366 268.094 95.4933 268.271 95.7199 268.484C95.9466 268.691 96.1266 268.944 96.2599 269.244C96.3999 269.544 96.4699 269.904 96.4699 270.324C96.4699 270.837 96.3766 271.311 96.1899 271.744C96.0033 272.177 95.7233 272.551 95.3499 272.864C94.9833 273.177 94.5266 273.421 93.9799 273.594C93.4399 273.767 92.8166 273.854 92.1099 273.854C91.7566 273.854 91.4033 273.821 91.0499 273.754C90.6966 273.687 90.3533 273.597 90.0199 273.484C89.6933 273.371 89.3899 273.237 89.1099 273.084C88.8299 272.924 88.5899 272.754 88.3899 272.574L89.1099 271.434C89.1966 271.301 89.2999 271.197 89.4199 271.124C89.5399 271.044 89.6966 271.004 89.8899 271.004C90.0699 271.004 90.2299 271.044 90.3699 271.124C90.5166 271.204 90.6733 271.291 90.8399 271.384C91.0066 271.477 91.1999 271.564 91.4199 271.644C91.6466 271.724 91.9299 271.764 92.2699 271.764C92.5099 271.764 92.7133 271.741 92.8799 271.694C93.0466 271.641 93.1799 271.571 93.2799 271.484C93.3799 271.397 93.4533 271.301 93.4999 271.194C93.5466 271.087 93.5699 270.977 93.5699 270.864C93.5699 270.657 93.4999 270.487 93.3599 270.354C93.2199 270.221 93.0366 270.107 92.8099 270.014C92.5833 269.914 92.3233 269.824 92.0299 269.744C91.7433 269.657 91.4499 269.561 91.1499 269.454C90.8499 269.347 90.5533 269.221 90.2599 269.074C89.9733 268.921 89.7166 268.731 89.4899 268.504C89.2633 268.271 89.0799 267.987 88.9399 267.654C88.7999 267.321 88.7299 266.917 88.7299 266.444C88.7299 266.004 88.8133 265.587 88.9799 265.194C89.1533 264.794 89.4099 264.444 89.7499 264.144C90.0899 263.844 90.5166 263.607 91.0299 263.434C91.5433 263.254 92.1433 263.164 92.8299 263.164C93.2033 263.164 93.5633 263.197 93.9099 263.264C94.2633 263.331 94.5933 263.424 94.8999 263.544C95.2066 263.664 95.4866 263.807 95.7399 263.974C95.9933 264.134 96.2166 264.311 96.4099 264.504L95.7099 265.594ZM101.819 273.854C101.325 273.854 100.889 273.784 100.509 273.644C100.135 273.497 99.8185 273.294 99.5585 273.034C99.3052 272.767 99.1118 272.447 98.9785 272.074C98.8452 271.701 98.7785 271.284 98.7785 270.824V265.464H97.8985C97.7385 265.464 97.6018 265.414 97.4885 265.314C97.3752 265.207 97.3185 265.054 97.3185 264.854V263.644L98.9685 263.324L99.5785 260.794C99.6585 260.474 99.8852 260.314 100.259 260.314H101.879V263.344H104.399V265.464H101.879V270.614C101.879 270.854 101.935 271.054 102.049 271.214C102.169 271.367 102.339 271.444 102.559 271.444C102.672 271.444 102.765 271.434 102.839 271.414C102.919 271.387 102.985 271.361 103.039 271.334C103.099 271.301 103.152 271.274 103.199 271.254C103.252 271.227 103.312 271.214 103.379 271.214C103.472 271.214 103.545 271.237 103.599 271.284C103.659 271.324 103.719 271.391 103.779 271.484L104.719 272.954C104.319 273.254 103.869 273.481 103.369 273.634C102.869 273.781 102.352 273.854 101.819 273.854ZM110.806 263.164C111.593 263.164 112.31 263.287 112.956 263.534C113.603 263.781 114.156 264.134 114.616 264.594C115.083 265.054 115.443 265.614 115.696 266.274C115.956 266.927 116.086 267.664 116.086 268.484C116.086 269.311 115.956 270.057 115.696 270.724C115.443 271.384 115.083 271.947 114.616 272.414C114.156 272.874 113.603 273.231 112.956 273.484C112.31 273.731 111.593 273.854 110.806 273.854C110.013 273.854 109.29 273.731 108.636 273.484C107.99 273.231 107.43 272.874 106.956 272.414C106.49 271.947 106.126 271.384 105.866 270.724C105.613 270.057 105.486 269.311 105.486 268.484C105.486 267.664 105.613 266.927 105.866 266.274C106.126 265.614 106.49 265.054 106.956 264.594C107.43 264.134 107.99 263.781 108.636 263.534C109.29 263.287 110.013 263.164 110.806 263.164ZM110.806 271.554C111.52 271.554 112.043 271.304 112.376 270.804C112.716 270.297 112.886 269.531 112.886 268.504C112.886 267.477 112.716 266.714 112.376 266.214C112.043 265.714 111.52 265.464 110.806 265.464C110.073 265.464 109.536 265.714 109.196 266.214C108.856 266.714 108.686 267.477 108.686 268.504C108.686 269.531 108.856 270.297 109.196 270.804C109.536 271.304 110.073 271.554 110.806 271.554ZM117.788 273.694V263.324H119.708C119.901 263.324 120.061 263.367 120.188 263.454C120.321 263.541 120.415 263.671 120.468 263.844L120.638 264.404C120.811 264.224 120.991 264.061 121.178 263.914C121.365 263.761 121.565 263.631 121.778 263.524C121.998 263.411 122.231 263.324 122.478 263.264C122.731 263.197 123.008 263.164 123.308 263.164C123.935 263.164 124.451 263.327 124.858 263.654C125.271 263.974 125.585 264.404 125.798 264.944C125.971 264.624 126.181 264.351 126.428 264.124C126.681 263.897 126.951 263.714 127.238 263.574C127.531 263.434 127.838 263.331 128.158 263.264C128.485 263.197 128.808 263.164 129.128 263.164C129.721 263.164 130.248 263.254 130.708 263.434C131.168 263.607 131.551 263.864 131.858 264.204C132.171 264.537 132.408 264.951 132.568 265.444C132.728 265.931 132.808 266.484 132.808 267.104V273.694H129.708V267.104C129.708 266.031 129.248 265.494 128.328 265.494C127.908 265.494 127.558 265.634 127.278 265.914C127.005 266.187 126.868 266.584 126.868 267.104V273.694H123.768V267.104C123.768 266.511 123.651 266.094 123.418 265.854C123.185 265.614 122.841 265.494 122.388 265.494C122.108 265.494 121.841 265.557 121.588 265.684C121.341 265.811 121.108 265.981 120.888 266.194V273.694H117.788ZM139.454 263.164C140.141 263.164 140.768 263.271 141.334 263.484C141.908 263.697 142.398 264.007 142.804 264.414C143.218 264.821 143.538 265.321 143.764 265.914C143.998 266.501 144.114 267.167 144.114 267.914C144.114 268.147 144.104 268.337 144.084 268.484C144.064 268.631 144.028 268.747 143.974 268.834C143.921 268.921 143.848 268.981 143.754 269.014C143.668 269.047 143.554 269.064 143.414 269.064H137.434C137.534 269.931 137.798 270.561 138.224 270.954C138.651 271.341 139.201 271.534 139.874 271.534C140.234 271.534 140.544 271.491 140.804 271.404C141.064 271.317 141.294 271.221 141.494 271.114C141.701 271.007 141.888 270.911 142.054 270.824C142.228 270.737 142.408 270.694 142.594 270.694C142.841 270.694 143.028 270.784 143.154 270.964L144.054 272.074C143.734 272.441 143.388 272.741 143.014 272.974C142.648 273.201 142.268 273.381 141.874 273.514C141.488 273.641 141.098 273.727 140.704 273.774C140.318 273.827 139.948 273.854 139.594 273.854C138.868 273.854 138.184 273.737 137.544 273.504C136.911 273.264 136.354 272.911 135.874 272.444C135.401 271.977 135.024 271.397 134.744 270.704C134.471 270.011 134.334 269.204 134.334 268.284C134.334 267.591 134.451 266.934 134.684 266.314C134.924 265.694 135.264 265.151 135.704 264.684C136.151 264.217 136.688 263.847 137.314 263.574C137.948 263.301 138.661 263.164 139.454 263.164ZM139.514 265.304C138.921 265.304 138.458 265.474 138.124 265.814C137.791 266.147 137.571 266.631 137.464 267.264H141.334C141.334 267.017 141.301 266.777 141.234 266.544C141.174 266.311 141.071 266.104 140.924 265.924C140.784 265.737 140.598 265.587 140.364 265.474C140.131 265.361 139.848 265.304 139.514 265.304ZM145.893 273.694V263.324H147.733C147.887 263.324 148.013 263.337 148.113 263.364C148.22 263.391 148.307 263.434 148.373 263.494C148.447 263.547 148.5 263.621 148.533 263.714C148.573 263.807 148.607 263.921 148.633 264.054L148.803 265.024C149.183 264.437 149.61 263.974 150.083 263.634C150.557 263.294 151.073 263.124 151.633 263.124C152.107 263.124 152.487 263.237 152.773 263.464L152.373 265.744C152.347 265.884 152.293 265.984 152.213 266.044C152.133 266.097 152.027 266.124 151.893 266.124C151.78 266.124 151.647 266.111 151.493 266.084C151.34 266.051 151.147 266.034 150.913 266.034C150.1 266.034 149.46 266.467 148.993 267.334V273.694H145.893Z" fill="#304C64"/>
<defs>
<linearGradient id="paint0_linear_991_932" x1="129.759" y1="0.64822" x2="129.759" y2="528.936" gradientUnits="userSpaceOnUse">
<stop stop-color="#F7BC3E"/>
<stop offset="0.3618" stop-color="#F43967"/>
<stop offset="1" stop-color="#007AE6"/>
</linearGradient>
<linearGradient id="paint1_linear_991_932" x1="318.845" y1="3.24714" x2="318.845" y2="536.77" gradientUnits="userSpaceOnUse">
<stop stop-color="#F7BC3E"/>
<stop offset="0.3618" stop-color="#F43967"/>
<stop offset="1" stop-color="#007AE6"/>
</linearGradient>
<linearGradient id="paint2_linear_991_932" x1="195.479" y1="0.648093" x2="195.479" y2="528.937" gradientUnits="userSpaceOnUse">
<stop stop-color="#F7BC3E"/>
<stop offset="0.3618" stop-color="#F43967"/>
<stop offset="1" stop-color="#007AE6"/>
</linearGradient>
<linearGradient id="paint3_linear_991_932" x1="408.741" y1="3.60869" x2="408.741" y2="537.132" gradientUnits="userSpaceOnUse">
<stop stop-color="#F7BC3E"/>
<stop offset="0.3618" stop-color="#F43967"/>
<stop offset="1" stop-color="#007AE6"/>
</linearGradient>
<linearGradient id="paint4_linear_991_932" x1="211.437" y1="0.648588" x2="211.437" y2="528.936" gradientUnits="userSpaceOnUse">
<stop stop-color="#F7BC3E"/>
<stop offset="0.3618" stop-color="#F43967"/>
<stop offset="1" stop-color="#007AE6"/>
</linearGradient>
<linearGradient id="paint5_linear_991_932" x1="411.592" y1="3.0237" x2="411.592" y2="536.547" gradientUnits="userSpaceOnUse">
<stop stop-color="#F7BC3E"/>
<stop offset="0.3618" stop-color="#F43967"/>
<stop offset="1" stop-color="#007AE6"/>
</linearGradient>
<linearGradient id="paint6_linear_991_932" x1="195.058" y1="0.647989" x2="195.058" y2="528.936" gradientUnits="userSpaceOnUse">
<stop stop-color="#F7BC3E"/>
<stop offset="0.3618" stop-color="#F43967"/>
<stop offset="1" stop-color="#007AE6"/>
</linearGradient>
<linearGradient id="paint7_linear_991_932" x1="394.102" y1="3.22864" x2="394.102" y2="536.752" gradientUnits="userSpaceOnUse">
<stop stop-color="#F7BC3E"/>
<stop offset="0.3618" stop-color="#F43967"/>
<stop offset="1" stop-color="#007AE6"/>
</linearGradient>
<linearGradient id="paint8_linear_991_932" x1="129.55" y1="0.647893" x2="129.55" y2="528.936" gradientUnits="userSpaceOnUse">
<stop stop-color="#F7BC3E"/>
<stop offset="0.3618" stop-color="#F43967"/>
<stop offset="1" stop-color="#007AE6"/>
</linearGradient>
<linearGradient id="paint9_linear_991_932" x1="317.143" y1="2.88913" x2="317.143" y2="536.412" gradientUnits="userSpaceOnUse">
<stop stop-color="#F7BC3E"/>
<stop offset="0.3618" stop-color="#F43967"/>
<stop offset="1" stop-color="#007AE6"/>
</linearGradient>
</defs>
</svg>
