<svg width="345" height="304" viewBox="0 0 345 304" fill="none" xmlns="http://www.w3.org/2000/svg">
<g clip-path="url(#clip0_898_1433)">
<path d="M283.865 68.1852H16.1288C7.22112 68.1852 0 75.4032 0 84.307V266.861C0 275.765 7.22112 282.983 16.1288 282.983H283.865C292.772 282.983 299.994 275.765 299.994 266.861V84.307C299.994 75.4032 292.772 68.1852 283.865 68.1852Z" fill="#E6E3F5"/>
<path d="M282.148 77.9487H17.1266C14.716 77.9487 12.7617 79.9021 12.7617 82.3117V85.0785C12.7617 87.4881 14.716 89.4415 17.1266 89.4415H282.148C284.559 89.4415 286.513 87.4881 286.513 85.0785V82.3117C286.513 79.9021 284.559 77.9487 282.148 77.9487Z" fill="#FBFBFD"/>
<path d="M281.377 83.6952C281.377 85.3978 279.993 86.7679 278.303 86.7679C276.613 86.7679 275.229 85.3845 275.229 83.6952C275.229 82.0058 276.613 80.6224 278.303 80.6224C279.993 80.6224 281.377 82.0058 281.377 83.6952Z" fill="#CAC3E3"/>
<path d="M270.956 83.6952C270.956 85.3978 269.572 86.7679 267.882 86.7679C266.192 86.7679 264.795 85.3845 264.795 83.6952C264.795 82.0058 266.179 80.6224 267.882 80.6224C269.586 80.6224 270.956 82.0058 270.956 83.6952Z" fill="#CAC3E3"/>
<path d="M260.537 83.6952C260.537 85.3978 259.153 86.7679 257.463 86.7679C255.773 86.7679 254.389 85.3845 254.389 83.6952C254.389 82.0058 255.773 80.6224 257.463 80.6224C259.153 80.6224 260.537 82.0058 260.537 83.6952Z" fill="#CAC3E3"/>
<path d="M287.592 101.852H147.875V189.751H287.592V101.852Z" fill="white"/>
<path d="M172.36 127.046H157.549C157.882 135.08 164.322 141.518 172.36 141.851V127.046Z" fill="url(#paint0_linear_898_1433)"/>
<path d="M172.746 125.742L183.499 114.994C180.744 112.454 177.071 110.897 173.026 110.897C164.682 110.897 157.895 117.482 157.549 125.742H172.746Z" fill="#E1E1FB"/>
<path d="M173.678 126.66V141.851C181.928 141.505 188.529 134.721 188.529 126.381C188.529 122.337 186.972 118.666 184.43 115.912L173.678 126.66Z" fill="#E1E1FB"/>
<path d="M172.349 148.621C171.603 148.621 170.845 148.661 170.139 148.781C163.06 149.752 157.457 155.392 156.486 162.469C156.366 163.174 156.326 163.892 156.326 164.637H162.155C162.155 163.892 162.235 163.134 162.394 162.429C163.259 158.558 166.307 155.512 170.179 154.647C170.885 154.488 171.603 154.408 172.349 154.408V148.621Z" fill="#E1E1FB"/>
<path d="M188.411 164.624C188.411 166.339 188.171 167.989 187.666 169.545C185.59 175.997 179.521 180.692 172.402 180.692C163.526 180.692 156.366 173.522 156.326 164.637H162.155C162.155 170.29 166.733 174.866 172.362 174.866C176.234 174.866 179.601 172.711 181.278 169.545C182.143 168.095 182.569 166.419 182.569 164.624C182.569 160.872 180.533 157.627 177.525 155.858C175.995 154.953 174.225 154.408 172.335 154.408V148.621C175.489 148.621 178.377 149.486 180.839 151.042C185.377 153.862 188.384 158.904 188.384 164.61L188.411 164.624Z" fill="url(#paint1_linear_898_1433)"/>
<path d="M220.454 156.509H195.742V157.64H220.454V156.509Z" fill="#E1E1FB"/>
<path d="M232.724 160.3H195.742V161.431H232.724V160.3Z" fill="#E1E1FB"/>
<path d="M232.724 164.091H195.742V165.222H232.724V164.091Z" fill="#E1E1FB"/>
<path d="M232.724 167.882H195.742V169.013H232.724V167.882Z" fill="#E1E1FB"/>
<path d="M232.724 171.66H195.742V172.791H232.724V171.66Z" fill="#E1E1FB"/>
<path d="M220.454 118.227H195.742V119.357H220.454V118.227Z" fill="#E1E1FB"/>
<path d="M232.724 122.018H195.742V123.148H232.724V122.018Z" fill="#E1E1FB"/>
<path d="M232.724 125.809H195.742V126.939H232.724V125.809Z" fill="#E1E1FB"/>
<path d="M232.724 129.6H195.742V130.73H232.724V129.6Z" fill="#E1E1FB"/>
<path d="M232.724 133.377H195.742V134.508H232.724V133.377Z" fill="#E1E1FB"/>
<path d="M244.888 118.227H241.096V172.791H244.888V118.227Z" fill="#E1E1FB"/>
<path d="M257.211 118.227H253.418V172.791H257.211V118.227Z" fill="#E1E1FB"/>
<path d="M269.521 118.227H265.729V172.791H269.521V118.227Z" fill="#E1E1FB"/>
<path d="M281.843 118.227H278.051V172.791H281.843V118.227Z" fill="#E1E1FB"/>
<path d="M244.888 156.203H241.096V172.791H244.888V156.203Z" fill="url(#paint2_linear_898_1433)"/>
<path d="M257.211 136.384H253.418V172.791H257.211V136.384Z" fill="url(#paint3_linear_898_1433)"/>
<path d="M269.521 126.381H265.729V172.804H269.521V126.381Z" fill="url(#paint4_linear_898_1433)"/>
<path d="M281.843 140.88H278.051V172.791H281.843V140.88Z" fill="url(#paint5_linear_898_1433)"/>
<path d="M287.592 198.264H147.875V268.444H287.592V198.264Z" fill="white"/>
<path d="M282.242 262.299H153.211V204.422H282.242V262.299ZM154.023 261.487H281.443V205.221H154.023V261.487Z" fill="#E1E1FB"/>
<path d="M179.786 204.822H178.975V261.886H179.786V204.822Z" fill="#E1E1FB"/>
<path d="M192.667 204.822H191.855V261.886H192.667V204.822Z" fill="#E1E1FB"/>
<path d="M205.55 204.822H204.738V261.886H205.55V204.822Z" fill="#E1E1FB"/>
<path d="M218.419 204.822H217.607V261.886H218.419V204.822Z" fill="#E1E1FB"/>
<path d="M231.3 204.822H230.488V261.886H231.3V204.822Z" fill="#E1E1FB"/>
<path d="M244.181 204.822H243.369V261.886H244.181V204.822Z" fill="#E1E1FB"/>
<path d="M281.803 213.973H153.584V214.785H281.803V213.973Z" fill="#E1E1FB"/>
<path d="M281.803 223.537H153.584V224.349H281.803V223.537Z" fill="#E1E1FB"/>
<path d="M281.803 233.088H153.584V233.899H281.803V233.088Z" fill="#E1E1FB"/>
<path d="M257.064 204.822H256.252V261.886H257.064V204.822Z" fill="#E1E1FB"/>
<path d="M269.945 204.822H269.133V261.886H269.945V204.822Z" fill="#E1E1FB"/>
<path d="M166.904 204.822H166.092V261.886H166.904V204.822Z" fill="#E1E1FB"/>
<path d="M281.803 242.652H153.584V243.463H281.803V242.652Z" fill="#E1E1FB"/>
<path d="M281.803 252.203H153.584V253.014H281.803V252.203Z" fill="#E1E1FB"/>
<path d="M159.213 219.188H157.164V261.421H159.213V219.188Z" fill="url(#paint6_linear_898_1433)"/>
<path d="M163.325 228.073H161.275V261.421H163.325V228.073Z" fill="url(#paint7_linear_898_1433)"/>
<path d="M171.536 238.675H169.486V261.421H171.536V238.675Z" fill="url(#paint8_linear_898_1433)"/>
<path d="M175.635 247.733H173.586V261.421H175.635V247.733Z" fill="url(#paint9_linear_898_1433)"/>
<path d="M236.184 246.709H234.135V261.421H236.184V246.709Z" fill="url(#paint10_linear_898_1433)"/>
<path d="M240.284 228.073H238.234V261.421H240.284V228.073Z" fill="url(#paint11_linear_898_1433)"/>
<path d="M248.495 238.675H246.445V261.421H248.495V238.675Z" fill="url(#paint12_linear_898_1433)"/>
<path d="M252.592 256.965H250.543V261.421H252.592V256.965Z" fill="url(#paint13_linear_898_1433)"/>
<path d="M222.836 224.828H220.787V261.421H222.836V224.828Z" fill="url(#paint14_linear_898_1433)"/>
<path d="M226.95 217.299H224.9V261.421H226.95V217.299Z" fill="url(#paint15_linear_898_1433)"/>
<path d="M183.846 254.57H181.797V261.421H183.846V254.57Z" fill="url(#paint16_linear_898_1433)"/>
<path d="M187.944 227.381H185.895V261.421H187.944V227.381Z" fill="url(#paint17_linear_898_1433)"/>
<path d="M197.18 247.733H195.131V261.421H197.18V247.733Z" fill="url(#paint18_linear_898_1433)"/>
<path d="M201.292 220.717H199.242V261.421H201.292V220.717Z" fill="url(#paint19_linear_898_1433)"/>
<path d="M210.008 230.64H207.959V261.421H210.008V230.64Z" fill="url(#paint20_linear_898_1433)"/>
<path d="M214.122 238.675H212.072V261.421H214.122V238.675Z" fill="url(#paint21_linear_898_1433)"/>
<path d="M261.829 254.065H259.779V261.421H261.829V254.065Z" fill="url(#paint22_linear_898_1433)"/>
<path d="M265.94 222.087H263.891V261.421H265.94V222.087Z" fill="url(#paint23_linear_898_1433)"/>
<path d="M274.151 218.842H272.102V261.421H274.151V218.842Z" fill="url(#paint24_linear_898_1433)"/>
<path d="M278.251 208.759H276.201V261.421H278.251V208.759Z" fill="url(#paint25_linear_898_1433)"/>
<path d="M137.228 198.264H12.0566V268.444H137.228V198.264Z" fill="white"/>
<path d="M117.678 261.527V208.28H116.867V261.527H103.612V208.28H102.814V261.527H89.5593V208.28H88.7475V261.527H75.4931V208.28H74.6947V261.527H61.4403V208.28H60.6285V261.527H47.3741V208.28H46.5624V261.527H33.308V208.28H32.5095V261.527H19.2551V208.28H18.4434V262.339H130.44V261.527H117.678Z" fill="#E1E1FB"/>
<path d="M40.8802 249.742C39.6426 249.742 38.6445 249.556 38.1521 249.462C35.7967 249.024 34.4659 248.146 33.1884 247.294C31.9907 246.509 30.8595 245.751 28.9299 245.459C27.4528 245.233 25.0973 245.113 21.8636 246.669L21.5176 245.938C24.9643 244.288 27.4661 244.421 29.063 244.661C31.1656 244.98 32.4298 245.818 33.6408 246.616C34.8518 247.414 36.116 248.252 38.3118 248.664C39.0836 248.811 41.1197 249.183 43.2888 248.664C46.5492 247.866 48.2925 245.472 50.129 242.945C52.0586 240.284 54.0547 237.544 57.9405 236.147C60.1629 235.349 62.0127 235.363 62.7978 235.363C67.9612 235.376 70.8755 238.089 73.4306 240.47C75.4534 242.346 77.1967 243.969 79.6586 243.969C83.225 243.956 85.7934 240.524 88.5214 236.892C91.8217 232.489 95.5745 227.488 101.909 227.302C102.827 227.275 103.732 227.355 104.61 227.528C109.401 228.499 111.863 232.516 114.245 236.387C116.454 239.978 118.73 243.676 122.842 245.02C124.598 245.592 126.581 245.685 128.71 245.272L128.857 246.071C126.595 246.496 124.492 246.403 122.589 245.791C118.184 244.368 115.829 240.524 113.553 236.812C111.158 232.902 108.882 229.217 104.437 228.313C103.626 228.153 102.774 228.073 101.922 228.1C95.9737 228.273 92.5137 232.902 89.1602 237.371C86.3124 241.162 83.6242 244.754 79.6852 244.78C76.864 244.78 74.921 242.971 72.8717 241.056C70.4098 238.768 67.6285 236.174 62.7845 236.161C62.026 236.161 60.296 236.161 58.2067 236.906C54.5471 238.222 52.6308 240.856 50.7677 243.41C48.8381 246.071 47.015 248.571 43.4618 249.436C42.5436 249.662 41.6653 249.729 40.8802 249.729V249.742Z" fill="url(#paint26_linear_898_1433)"/>
<path d="M137.228 101.852H12.0566V189.751H137.228V101.852Z" fill="white"/>
<path d="M131.347 148.475C130.029 146.067 128.712 143.673 127.408 141.266C126.09 143.673 124.773 146.067 123.469 148.475H126.104V183.978H128.725V148.475H131.36H131.347Z" fill="url(#paint27_linear_898_1433)"/>
<path d="M117.347 152.08C116.029 149.672 114.712 147.278 113.408 144.87C112.09 147.278 110.773 149.672 109.469 152.08H112.104V183.978H114.725V152.08H117.36H117.347Z" fill="url(#paint28_linear_898_1433)"/>
<path d="M103.347 156.124C102.029 153.716 100.712 151.322 99.4078 148.914C98.0903 151.322 96.7729 153.716 95.4688 156.124H98.1037V183.964H100.725V156.124H103.36H103.347Z" fill="url(#paint29_linear_898_1433)"/>
<path d="M89.3605 159.835C88.0431 157.427 86.7256 155.033 85.4215 152.625C84.104 155.033 82.7866 157.427 81.4824 159.835H84.1173V183.978H86.7389V159.835H89.3738H89.3605Z" fill="url(#paint30_linear_898_1433)"/>
<path d="M75.3605 163.24C74.0431 160.832 72.7256 158.438 71.4215 156.031C70.104 158.438 68.7866 160.832 67.4824 163.24H70.1173V183.978H72.7389V163.24H75.3738H75.3605Z" fill="url(#paint31_linear_898_1433)"/>
<path d="M22.1305 158.239H17.7656V162.602H22.1305V158.239Z" fill="url(#paint32_linear_898_1433)"/>
<path d="M22.1305 166.393H17.7656V170.756H22.1305V166.393Z" fill="url(#paint33_linear_898_1433)"/>
<path d="M59.7643 160.021H24.752V160.833H59.7643V160.021Z" fill="#E1E1FB"/>
<path d="M59.7643 168.175H24.752V168.986H59.7643V168.175Z" fill="#E1E1FB"/>
<path d="M62.0803 108.689H17.6328V109.501H62.0803V108.689Z" fill="#E1E1FB"/>
<path d="M62.0803 112.467H17.6328V113.278H62.0803V112.467Z" fill="#E1E1FB"/>
<path d="M62.0803 116.258H17.6328V117.069H62.0803V116.258Z" fill="#E1E1FB"/>
<path d="M62.0803 120.049H17.6328V120.86H62.0803V120.049Z" fill="#E1E1FB"/>
<path d="M62.0803 123.84H17.6328V124.652H62.0803V123.84Z" fill="#E1E1FB"/>
<path d="M62.0803 133.311H17.6328V134.122H62.0803V133.311Z" fill="#E1E1FB"/>
<path d="M62.0803 137.089H17.6328V137.9H62.0803V137.089Z" fill="#E1E1FB"/>
<path d="M62.0803 140.88H17.6328V141.691H62.0803V140.88Z" fill="#E1E1FB"/>
<path d="M62.0803 144.671H17.6328V145.482H62.0803V144.671Z" fill="#E1E1FB"/>
<path d="M62.0803 148.462H17.6328V149.273H62.0803V148.462Z" fill="#E1E1FB"/>
<path d="M118.85 121.087H132.53C132.224 113.664 126.275 107.718 118.85 107.412V121.087Z" fill="url(#paint34_linear_898_1433)"/>
<path d="M118.105 122.59L108.443 132.247C110.919 134.521 114.219 135.931 117.852 135.931C125.344 135.931 131.439 130.012 131.745 122.603H118.091L118.105 122.59Z" fill="#E1E1FB"/>
<path d="M117.28 121.765V108.117C109.867 108.423 103.945 114.515 103.945 122.004C103.945 125.636 105.343 128.935 107.632 131.409L117.293 121.752L117.28 121.765Z" fill="#E1E1FB"/>
<path d="M83.9973 122.59L74.3359 132.247C76.8112 134.521 80.1114 135.931 83.7444 135.931C91.2366 135.931 97.3315 130.012 97.6376 122.603H83.984L83.9973 122.59Z" fill="#E1E1FB"/>
<path d="M83.1721 121.765V108.117C75.7598 108.423 69.8379 114.515 69.8379 122.004C69.8379 125.636 71.2352 128.935 73.5241 131.409L83.1854 121.752L83.1721 121.765Z" fill="#E1E1FB"/>
<path d="M84.7559 121.087H98.4361C98.13 113.664 92.1815 107.718 84.7559 107.412V121.087Z" fill="url(#paint35_linear_898_1433)"/>
<path d="M32.9898 177.446H17.6328V178.258H32.9898V177.446Z" fill="#E1E1FB"/>
<path d="M42.9306 180.293H17.6328V181.105H42.9306V180.293Z" fill="#E1E1FB"/>
<path d="M71.1161 193.954C71.0496 193.289 70.4641 192.797 69.7854 192.877C69.12 192.943 68.6409 193.542 68.7075 194.207L69.8919 205.952H42.6112L43.7956 194.207C43.8622 193.542 43.3831 192.943 42.7177 192.877C42.0523 192.797 41.4535 193.289 41.3869 193.954L30.3948 302.51C30.3283 303.175 30.8074 303.774 31.4728 303.84C31.5127 303.84 31.5526 303.84 31.5925 303.84C32.2047 303.84 32.737 303.375 32.7902 302.75L35.1457 279.538H77.3175L79.6729 302.75C79.7395 303.375 80.2585 303.84 80.8706 303.84C80.9106 303.84 80.9505 303.84 80.9904 303.84C81.6558 303.774 82.1349 303.175 82.0683 302.51L71.0762 193.954H71.1161ZM39.9231 232.569H72.5933L74.7491 253.826H37.7673L39.9231 232.569ZM70.1447 208.36L72.3538 230.148H40.1626L42.3717 208.36H70.1447ZM35.4118 277.13L37.5277 256.246H74.9887L77.1046 277.13H35.4118Z" fill="#A49DCE"/>
<path d="M299.873 222.446C299.567 220.651 299.022 219.826 298.596 216.74C298.17 213.681 297.944 212.098 298.809 210.608C300.326 208.001 303.48 207.522 304.212 207.415C311.704 206.285 320.261 215.556 318.917 225.147C318.384 228.938 316.521 230.268 316.708 234.791C316.841 237.783 317.679 237.73 317.745 240.457C317.932 246.869 312.755 249.622 313.314 260.596C310.865 257.896 302.907 248.917 301.164 245.725C299.794 243.224 297.345 238.675 297.877 233.128C298.343 228.339 300.645 226.956 299.873 222.433V222.446Z" fill="#FF457C"/>
<path d="M284.411 243.33C282.055 245.951 283.12 250.034 283.559 251.697C286.487 262.911 304.891 268.351 309.336 267.779C306.129 257.151 299.049 257.058 295.642 253.44C291.77 249.343 294.924 243.729 291.637 241.721C289.561 240.444 286.154 241.402 284.424 243.33H284.411Z" fill="#FF457C"/>
<path d="M314.287 263.589C312.451 252.243 307.434 250.54 307.061 240.537C306.795 233.274 309.284 231.026 308.272 222.207C308.059 220.305 307.74 218.403 307.234 216.54C307.101 216.048 306.423 216.195 306.556 216.727C307.048 218.562 307.354 220.425 307.567 222.287C308.552 230.96 306.077 233.208 306.356 240.55C306.729 250.726 311.786 252.495 313.595 263.642C314.487 269.123 314.287 274.736 313.01 280.456C312.97 280.642 313.116 280.722 313.303 280.762C313.489 280.802 313.649 280.788 313.702 280.602C315.006 274.802 315.192 269.149 314.287 263.576V263.589Z" fill="#DB2A6E"/>
<path d="M313.023 280.376C313.728 275.095 312.331 271.982 311.027 270.306C310.002 268.976 306.555 265.797 301.898 263.15C300.594 262.405 295.457 260.024 292.982 257.829C291.238 256.286 289.868 254.278 288.896 251.883C288.723 251.458 289.375 251.192 289.548 251.617C290.48 253.919 291.784 255.834 293.447 257.311C295.869 259.465 300.873 261.767 302.244 262.551C306.888 265.185 310.468 268.444 311.586 269.881C312.97 271.663 314.46 274.962 313.715 280.469C313.648 280.935 312.956 280.841 313.023 280.376Z" fill="#DB2A6E"/>
<path d="M337.084 234.897C337.656 233.62 338.228 233.115 339.146 230.893C340.051 228.698 340.53 227.554 340.184 226.291C339.559 224.056 337.31 223.085 336.778 222.859C331.415 220.558 323.23 225.812 322.379 233.208C322.046 236.147 323.164 237.491 322.153 240.816C321.474 243.024 320.862 242.825 320.276 244.833C318.892 249.569 322.219 252.628 319.664 260.703C322.006 259.173 329.685 254.012 331.614 251.99C333.118 250.394 335.833 247.481 336.511 243.251C337.097 239.593 335.646 238.116 337.097 234.897H337.084Z" fill="#FF457C"/>
<path d="M344.549 253.466C345.787 255.874 344.203 258.707 343.565 259.865C339.213 267.646 324.428 268.138 321.234 266.848C325.679 259.545 330.976 260.849 334.223 258.827C337.896 256.526 336.645 251.737 339.479 250.872C341.276 250.327 343.631 251.697 344.549 253.466Z" fill="#FF457C"/>
<path d="M318.359 262.764C321.926 254.664 325.998 254.371 328.22 246.988C329.83 241.628 328.42 239.473 330.882 233.101C331.414 231.731 332.013 230.374 332.758 229.084C332.958 228.738 333.437 228.991 333.224 229.35C332.505 230.614 331.906 231.944 331.387 233.301C328.965 239.579 330.376 241.721 328.739 247.148C326.477 254.65 322.378 254.996 318.865 262.951C317.135 266.861 316.19 271.078 316.044 275.587C316.044 275.734 315.911 275.76 315.764 275.76C315.618 275.76 315.498 275.72 315.498 275.561C315.644 270.985 316.616 266.742 318.372 262.764H318.359Z" fill="#DB2A6E"/>
<path d="M316.031 275.521C316.537 271.45 318.187 269.402 319.478 268.404C320.502 267.62 323.683 265.917 327.675 264.853C328.793 264.547 333.078 263.775 335.354 262.618C336.95 261.807 338.361 260.583 339.559 258.973C339.772 258.694 339.333 258.361 339.12 258.654C337.988 260.184 336.631 261.354 335.114 262.139C332.892 263.27 328.713 264.015 327.542 264.334C323.563 265.398 320.276 267.127 319.158 267.979C317.788 269.043 316.031 271.211 315.512 275.454C315.472 275.813 316.004 275.88 316.044 275.521H316.031Z" fill="#DB2A6E"/>
<path d="M326.956 282.903V291.669C326.956 296.817 325.213 301.393 322.644 304H307.061C304.453 301.393 302.723 296.817 302.723 291.669V282.903C302.816 279.684 302.869 276.478 302.922 273.259H326.756C326.809 276.478 326.903 279.684 326.956 282.903Z" fill="#CAC3E3"/>
<path d="M223.394 48.4718C222.369 48.6314 221.491 48.7777 220.812 48.8975C218.776 49.2566 218.071 49.4561 217.272 49.8685C216.407 50.3208 216.035 50.7331 215.942 50.8395C215.556 51.2785 215.369 51.7707 214.997 52.7417C214.398 54.3379 214.611 54.5773 214.677 54.6439C214.757 54.7237 214.864 54.7237 214.89 54.7237C215.689 54.7636 216.128 51.7973 216.913 51.8106C217.312 51.8106 217.272 52.5821 217.951 52.9146C219.069 53.46 220.852 52.1963 221.052 52.0633C221.664 51.6376 221.917 51.2785 222.609 51.0923C223.101 50.9592 223.554 50.9858 223.86 51.0391C223.7 50.1877 223.54 49.3231 223.394 48.4718Z" fill="#F7B690"/>
<path d="M235.478 52.3826C235.492 51.7707 235.505 51.1721 235.545 50.5868C232.058 51.1056 228.172 51.5578 223.821 51.8904C223.661 50.507 223.501 49.1103 223.342 47.7269C226.908 47.2614 231.207 46.3834 235.864 44.867C236.011 42.8185 236.17 40.7568 236.383 38.6418C237.155 30.6208 238.3 23.2116 239.644 16.4543C239.95 16.4809 240.828 16.6139 241.773 16.1617C242.465 15.8291 242.864 15.337 243.064 15.0842C246.55 19.9261 248.813 24.1694 250.25 27.2022C253.404 33.8531 256.531 40.5306 254.162 44.6542C254.402 46.2371 254.615 47.8998 254.788 49.6025C254.947 51.1854 255.08 52.7151 255.174 54.1783H235.452C235.452 53.593 235.452 52.9678 235.478 52.356V52.3826Z" fill="#7283F7"/>
<path d="M252.485 65.7776C250.848 67.3472 248.892 67.9457 246.483 68.1852H220.267C220.639 74.1843 220.932 80.3564 221.158 86.6481C221.371 92.9532 221.491 99.0986 221.544 105.124H215.543C212.961 94.0838 210.379 82.3383 207.864 69.9144C206.946 65.4317 205.815 59.7651 208.902 56.8919C210.792 55.1494 214.797 54.91 222.835 54.4577C226.402 54.2316 229.356 54.2183 231.405 54.2183H255.186C255.492 56.1869 256.197 62.2659 252.511 65.7909L252.485 65.7776Z" fill="#4B4AA8"/>
<path d="M243.063 15.0975C242.863 15.3502 242.464 15.8424 241.772 16.1749C240.814 16.6272 239.949 16.4942 239.643 16.4543C239.283 15.6295 238.937 14.8048 238.578 13.9668C238.405 14.2461 237.993 14.8048 237.287 15.0842C237.287 15.0842 236.582 15.3635 235.704 15.1773C233.801 14.7782 230.381 9.44419 231.153 5.28072C231.805 5.1477 232.576 4.88166 233.974 4.50921C237.008 3.7244 237.74 3.85742 238.006 3.99044C238.033 4.00374 238.059 4.00374 238.072 4.01704C239.337 4.80185 238.325 7.67505 238.884 7.87457C239.177 7.96769 239.43 7.24939 240.002 7.28929C240.441 7.3159 240.88 7.79476 240.934 8.34014C241 8.87221 240.641 9.25796 240.574 9.31117C240.095 9.82994 239.363 9.67032 239.337 9.67032C239.616 11.5858 240.268 12.9027 241 12.9293C241.16 12.9426 241.359 12.9027 241.612 12.6898C241.692 12.6632 241.812 12.61 241.932 12.5302C241.998 12.477 242.065 12.4504 242.105 12.3839C242.198 12.8628 242.318 13.2352 243.063 15.0975Z" fill="#F7B690"/>
<path d="M236.568 44.8936C236.489 44.8936 236.409 44.8404 236.382 44.7606C236.342 44.6542 236.382 44.5344 236.502 44.4945C239.443 43.3639 242.424 42.18 245.618 40.8631C246.097 40.6636 246.815 40.371 247.148 39.6793C247.507 38.9344 247.148 38.1629 246.323 36.274C246.11 35.7951 245.87 35.2498 245.591 34.6246C245.218 33.76 244.872 32.882 244.54 32.0307C244.313 31.4587 242.504 26.9494 242.131 26.005C242.091 25.8986 242.131 25.7789 242.251 25.739C242.357 25.6991 242.477 25.739 242.517 25.8587C242.89 26.8031 245.604 33.6136 245.964 34.465C246.23 35.0901 246.483 35.6355 246.682 36.1144C247.574 38.1097 247.946 38.9477 247.507 39.8522C247.108 40.6769 246.27 41.0228 245.764 41.2356C242.57 42.5525 239.576 43.7363 236.635 44.867C236.608 44.867 236.582 44.8803 236.568 44.8803V44.8936Z" fill="#556FB7"/>
<path d="M236.023 50.8528C235.917 50.8528 235.837 50.773 235.824 50.6799C235.81 50.5735 235.89 50.4671 235.997 50.4538C238.711 50.0946 241.426 49.5626 244.074 48.8709C247.135 48.0594 250.169 47.0219 253.084 45.7848C253.19 45.7449 253.31 45.7848 253.35 45.8912C253.39 45.9977 253.35 46.1174 253.243 46.1573C250.316 47.4077 247.268 48.4585 244.181 49.2699C241.519 49.9749 238.778 50.507 236.05 50.8661H236.023V50.8528Z" fill="#556FB7"/>
<path d="M207.812 56.7722C207.412 56.7722 207.066 56.4796 207.013 56.0672L204.631 37.2451C204.578 36.8062 204.884 36.3938 205.336 36.3406C205.789 36.2874 206.188 36.5933 206.241 37.0456L208.517 55.0696L226.748 52.8349C227.201 52.7684 227.6 53.1009 227.653 53.5399C227.706 53.9788 227.387 54.3912 226.948 54.4444L207.918 56.7855C207.918 56.7855 207.851 56.7855 207.825 56.7855L207.812 56.7722Z" fill="#A49DCE"/>
<path d="M242.105 12.3973C242.105 12.3973 241.999 12.4904 241.932 12.5436C241.799 12.6234 241.693 12.6766 241.613 12.7032C241.36 12.916 241.16 12.9559 241.001 12.9426C240.269 12.916 239.617 11.5991 239.337 9.68368C239.364 9.68368 240.096 9.8433 240.575 9.32453C240.641 9.27133 241.001 8.88557 240.934 8.3535C240.867 7.80812 240.428 7.34256 240.002 7.30265C239.444 7.24945 239.177 7.98105 238.885 7.88793C238.339 7.68841 239.337 4.82851 238.073 4.0304C238.06 4.0171 238.046 4.0171 238.006 4.0038C237.727 3.87078 237.008 3.72446 233.974 4.52257C232.564 4.89502 231.792 5.17436 231.153 5.29408C230.674 5.40049 230.261 5.4271 229.729 5.36059C229.183 5.29408 227.706 5.10785 227.227 4.0171C226.988 3.47173 227.028 2.75343 227.36 2.22136C227.972 1.22372 229.396 1.22372 231.326 1.03749C236.489 0.558627 236.33 -0.372501 237.94 0.132968C241.48 1.21042 242.637 5.86606 242.81 6.59766C242.864 6.83709 243.769 10.974 242.105 12.3707V12.3973Z" fill="#1A1B75"/>
<path d="M220.653 105.111V112.613C220.653 112.786 220.493 112.932 220.32 112.932H208.702C208.543 112.932 208.41 112.826 208.383 112.68C208.356 112.573 208.383 112.454 208.463 112.374C208.489 112.347 208.529 112.321 208.556 112.307C210.02 111.642 211.231 111.15 212.096 110.804C212.628 110.578 213.094 110.405 213.506 110.245C215.143 109.62 215.782 109.314 216.208 108.53C216.487 108.011 216.487 107.306 216.461 105.909C216.461 105.63 216.447 105.364 216.447 105.098H220.679L220.653 105.111Z" fill="#F7B690"/>
<path d="M220.653 110.245V112.613C220.653 112.786 220.493 112.932 220.32 112.932H208.702C208.543 112.932 208.41 112.826 208.383 112.68C208.356 112.573 208.383 112.454 208.463 112.374C208.489 112.347 208.529 112.321 208.556 112.307C210.02 111.642 211.231 111.15 212.096 110.804C212.628 110.578 213.094 110.405 213.506 110.245H220.679H220.653Z" fill="#1A1B75"/>
<path d="M200.24 105.257C199.761 106.92 198.27 111.935 198.017 112.786C197.991 112.932 197.858 113.026 197.698 113.026H186.08C185.921 113.026 185.788 112.919 185.761 112.773C185.734 112.613 185.814 112.467 185.961 112.4C186.386 112.188 187.052 111.868 187.917 111.509C189.407 110.884 190.472 110.512 191.284 110.232C192.708 109.753 193.386 109.541 194.145 108.742C194.877 107.971 195.209 107.053 195.888 105.244H200.266L200.24 105.257Z" fill="#F7B690"/>
<path d="M198.762 110.245C198.509 111.097 198.256 111.935 198.004 112.799C197.977 112.946 197.844 113.039 197.684 113.039H186.067C185.907 113.039 185.774 112.932 185.747 112.786C185.721 112.627 185.8 112.48 185.947 112.414C186.373 112.201 187.038 111.882 187.903 111.522C189.394 110.897 190.458 110.525 191.27 110.245H198.775H198.762Z" fill="#1A1B75"/>
<path d="M210.966 84.7193C207.692 91.5564 204.432 98.4202 201.171 105.257H195.01C199.135 92.6738 203.274 80.1035 207.386 67.52C207.532 68.3447 207.692 69.1295 207.852 69.9144C208.89 74.9823 209.914 79.904 210.966 84.7193Z" fill="#3A3B8E"/>
<path d="M78.0353 147.477L99.8066 134.295C99.913 134.229 100.046 134.269 100.113 134.375C100.179 134.481 100.139 134.614 100.046 134.681L78.7406 148.608C78.4345 148.808 78.022 148.728 77.8224 148.422C77.6228 148.116 77.7026 147.703 78.0087 147.504H78.022L78.0353 147.477Z" fill="#5683BA"/>
<path d="M79.9512 150.111C80.9492 148.834 81.1755 147.783 81.1888 147.038C81.2154 145.988 80.6964 145.043 81.242 144.378C81.3085 144.298 81.5747 144.006 81.9473 143.992C82.3732 143.979 82.8123 144.298 82.8123 144.578C82.8123 144.764 82.6127 144.804 82.5462 145.03C82.4663 145.309 82.6659 145.615 82.8522 145.828C84.5689 144.724 86.2989 143.633 88.0156 142.529C87.9224 143.66 87.643 144.511 87.4034 145.056C86.7514 146.56 85.8731 147.198 83.8503 149.592C83.1982 150.364 82.6925 151.002 82.3732 151.415C81.5614 150.976 80.7496 150.55 79.9512 150.111Z" fill="#F7B690"/>
<path d="M57.4618 150.377C57.4618 150.377 57.4485 150.271 57.4352 150.217C57.0093 150.071 56.3972 149.925 55.7185 150.058C54.1881 150.35 53.7756 151.707 52.6844 151.907C52.0057 152.04 51.0076 151.734 49.5172 149.911C48.732 150.217 47.8803 149.978 47.4811 149.379C47.1617 148.901 47.0286 148.063 47.5742 147.584C48.04 147.185 48.8651 147.211 49.3841 147.757C48.5457 144.498 49.0248 143.207 49.7035 142.662C51.2871 141.358 54.3877 143.726 56.5303 142.649C56.6767 143.261 56.8097 144.152 56.9827 145.442C57.2622 147.464 57.382 149.153 57.4485 150.377H57.4618Z" fill="#F7B690"/>
<path d="M52.937 158.904C52.551 159.116 51.859 159.409 50.9541 159.462C49.8097 159.542 48.9181 159.21 48.4789 159.01C48.4523 158.358 48.3991 157.507 48.2793 156.496C49.477 157.693 51.2203 158.332 52.897 158.465C52.9103 158.611 52.9104 158.757 52.9237 158.904H52.937Z" fill="#F7B690"/>
<path d="M57.7272 153.144C57.7937 155.285 57.807 156.376 57.3013 157.095C56.5694 158.145 54.7995 158.624 52.9098 158.465C51.233 158.332 49.4897 157.693 48.2921 156.496C47.1742 155.379 46.8415 154.075 46.2294 151.561C45.9898 150.55 45.564 148.515 45.6971 145.894C45.8035 143.633 45.8568 142.502 46.5887 141.438C47.7331 139.776 49.6095 139.337 51.4593 138.911C52.1113 138.751 57.0219 137.594 57.9268 139.363C58.3659 140.201 57.9002 141.651 56.942 142.383C56.8089 142.476 56.6892 142.582 56.5428 142.635C54.4003 143.713 51.2996 141.345 49.716 142.649C49.0373 143.194 48.5582 144.484 49.3966 147.743C48.8776 147.198 48.0525 147.158 47.5868 147.57C47.0411 148.036 47.1609 148.874 47.4936 149.366C47.8928 149.965 48.7312 150.204 49.5297 149.898C51.0201 151.721 52.0182 152.027 52.6969 151.893C53.7881 151.681 54.2006 150.324 55.731 150.045C56.4097 149.912 57.0219 150.058 57.4477 150.204C57.461 150.257 57.461 150.297 57.4743 150.364C57.5808 151.069 57.7005 152.027 57.7272 153.144Z" fill="#1A1B75"/>
<path d="M40.5609 162.881C43.3422 160.433 46.1767 159.555 46.7755 159.383C48.3059 158.93 50.4617 158.558 54.973 159.116C61.9861 159.981 63.3834 161.71 66.3111 161.724C69.5981 161.724 74.2824 159.555 80.0446 149.433C81.056 149.912 82.0673 150.404 83.0787 150.883C82.1206 152.905 78.3279 160.753 73.6569 165.767C71.5011 168.082 69.9574 168.933 69.2255 169.292C66.2446 170.769 64.8739 169.997 63.3036 171.075C60.8816 172.724 61.0812 176.662 61.3341 183.352C61.4538 186.465 61.6534 191.892 61.8664 199.301H38.6579C38.6313 195.005 38.5913 190.708 38.5647 186.412C37.5001 186.811 35.9697 187.197 34.8652 186.465C34.3728 186.132 33.1352 185.042 34.0002 178.923C34.8386 172.977 35.6504 167.191 40.5476 162.881H40.5609Z" fill="#FF457C"/>
<path d="M70.5038 253.48C70.4506 253.679 70.2776 253.812 70.0647 253.812H57.2494C57.1163 253.812 56.9966 253.746 56.9167 253.639C56.8369 253.546 56.8103 253.413 56.8236 253.307L57.7684 246.696H62.293C62.0801 247.773 62.0136 248.412 62.293 249.037C62.6523 249.822 63.3709 250.207 64.7017 250.753C64.8481 250.819 65.0078 250.872 65.1675 250.939C67.5096 251.87 69.2662 252.588 70.2643 252.974C70.4639 253.067 70.557 253.28 70.5038 253.48Z" fill="#F7B690"/>
<path d="M70.5038 253.48C70.4506 253.679 70.2776 253.812 70.0647 253.812H57.2494C57.1163 253.812 56.9966 253.746 56.9167 253.639C56.8369 253.546 56.8103 253.413 56.8236 253.307L57.1962 250.766H64.7017C64.8481 250.833 65.0078 250.886 65.1675 250.952C67.5096 251.883 69.2662 252.602 70.2643 252.987C70.4639 253.081 70.557 253.293 70.5038 253.493V253.48Z" fill="#1A1B75"/>
<path d="M55.5847 276.784C55.5315 276.997 55.3585 277.117 55.1589 277.117H42.8493C42.6098 277.117 42.4102 276.917 42.4102 276.678V269.335H47.1344V269.442C47.0412 271.237 47.0013 271.73 47.3074 272.315C47.813 273.233 48.7446 273.525 50.1153 274.044C50.3681 274.137 50.6476 274.244 50.9536 274.363C52.138 274.816 53.6019 275.441 55.3452 276.279C55.5182 276.372 55.6246 276.572 55.5714 276.758L55.5847 276.784Z" fill="#F7B690"/>
<path d="M55.5847 276.784C55.5315 276.997 55.3585 277.117 55.1589 277.117H42.8493C42.6098 277.117 42.4102 276.917 42.4102 276.678V274.377H50.967C52.1513 274.829 53.6152 275.454 55.3585 276.292C55.5315 276.385 55.6379 276.585 55.5847 276.771V276.784Z" fill="#1A1B75"/>
<path d="M71.528 231.159C69.1992 235.695 67.8285 237.611 64.9807 242.838C64.0758 244.488 63.3838 245.844 62.9313 246.696H57.1824C57.8611 243.862 58.5531 241.561 59.0854 240.005C59.0854 240.005 62.1328 230.547 62.4655 227.262C62.4921 226.942 62.4921 226.61 62.4921 226.304C62.4921 225.253 62.3724 224.428 62.3724 224.428C62.3724 224.428 62.2925 223.657 62.053 222.859C61.1481 219.746 57.1425 215.942 57.1425 215.942C56.1444 214.984 54.6939 213.72 52.751 212.404C51.0609 231.372 49.3841 250.367 47.6808 269.349H41.7589C40.7209 246.004 39.6829 222.659 38.6582 199.301H61.88C63.8628 202.254 70.9824 212.962 73.5774 218.935C73.8169 219.48 74.1629 220.398 74.3625 221.608C74.8017 224.029 74.0698 226.211 71.528 231.159Z" fill="#4B4AA8"/>
</g>
<defs>
<linearGradient id="paint0_linear_898_1433" x1="151.121" y1="120.448" x2="187.107" y2="146.974" gradientUnits="userSpaceOnUse">
<stop stop-color="#2AEBEB"/>
<stop offset="0.45" stop-color="#6174FF"/>
<stop offset="0.75" stop-color="#B63CFB"/>
<stop offset="1" stop-color="#FF47E3"/>
</linearGradient>
<linearGradient id="paint1_linear_898_1433" x1="148.794" y1="151.229" x2="189.533" y2="174.442" gradientUnits="userSpaceOnUse">
<stop stop-color="#2AEBEB"/>
<stop offset="0.45" stop-color="#6174FF"/>
<stop offset="0.75" stop-color="#B63CFB"/>
<stop offset="1" stop-color="#FF47E3"/>
</linearGradient>
<linearGradient id="paint2_linear_898_1433" x1="225.127" y1="156.576" x2="292.387" y2="186.434" gradientUnits="userSpaceOnUse">
<stop stop-color="#2AEBEB"/>
<stop offset="0.45" stop-color="#6174FF"/>
<stop offset="0.75" stop-color="#B63CFB"/>
<stop offset="1" stop-color="#FF47E3"/>
</linearGradient>
<linearGradient id="paint3_linear_898_1433" x1="230.835" y1="143.74" x2="298.082" y2="173.584" gradientUnits="userSpaceOnUse">
<stop stop-color="#2AEBEB"/>
<stop offset="0.45" stop-color="#6174FF"/>
<stop offset="0.75" stop-color="#B63CFB"/>
<stop offset="1" stop-color="#FF47E3"/>
</linearGradient>
<linearGradient id="paint4_linear_898_1433" x1="234.722" y1="134.987" x2="301.969" y2="164.845" gradientUnits="userSpaceOnUse">
<stop stop-color="#2AEBEB"/>
<stop offset="0.45" stop-color="#6174FF"/>
<stop offset="0.75" stop-color="#B63CFB"/>
<stop offset="1" stop-color="#FF47E3"/>
</linearGradient>
<linearGradient id="paint5_linear_898_1433" x1="234.056" y1="136.49" x2="301.303" y2="166.334" gradientUnits="userSpaceOnUse">
<stop stop-color="#2AEBEB"/>
<stop offset="0.45" stop-color="#6174FF"/>
<stop offset="0.75" stop-color="#B63CFB"/>
<stop offset="1" stop-color="#FF47E3"/>
</linearGradient>
<linearGradient id="paint6_linear_898_1433" x1="139.119" y1="238.329" x2="290.984" y2="254.065" gradientUnits="userSpaceOnUse">
<stop stop-color="#2AEBEB"/>
<stop offset="0.45" stop-color="#6174FF"/>
<stop offset="0.75" stop-color="#B63CFB"/>
<stop offset="1" stop-color="#FF47E3"/>
</linearGradient>
<linearGradient id="paint7_linear_898_1433" x1="138.706" y1="242.306" x2="290.571" y2="258.042" gradientUnits="userSpaceOnUse">
<stop stop-color="#2AEBEB"/>
<stop offset="0.45" stop-color="#6174FF"/>
<stop offset="0.75" stop-color="#B63CFB"/>
<stop offset="1" stop-color="#FF47E3"/>
</linearGradient>
<linearGradient id="paint8_linear_898_1433" x1="138.24" y1="246.709" x2="290.118" y2="262.445" gradientUnits="userSpaceOnUse">
<stop stop-color="#2AEBEB"/>
<stop offset="0.45" stop-color="#6174FF"/>
<stop offset="0.75" stop-color="#B63CFB"/>
<stop offset="1" stop-color="#FF47E3"/>
</linearGradient>
<linearGradient id="paint9_linear_898_1433" x1="137.829" y1="250.766" x2="289.693" y2="266.502" gradientUnits="userSpaceOnUse">
<stop stop-color="#2AEBEB"/>
<stop offset="0.45" stop-color="#6174FF"/>
<stop offset="0.75" stop-color="#B63CFB"/>
<stop offset="1" stop-color="#FF47E3"/>
</linearGradient>
<linearGradient id="paint10_linear_898_1433" x1="138.52" y1="244.049" x2="290.384" y2="259.798" gradientUnits="userSpaceOnUse">
<stop stop-color="#2AEBEB"/>
<stop offset="0.45" stop-color="#6174FF"/>
<stop offset="0.75" stop-color="#B63CFB"/>
<stop offset="1" stop-color="#FF47E3"/>
</linearGradient>
<linearGradient id="paint11_linear_898_1433" x1="139.519" y1="234.418" x2="291.383" y2="250.154" gradientUnits="userSpaceOnUse">
<stop stop-color="#2AEBEB"/>
<stop offset="0.45" stop-color="#6174FF"/>
<stop offset="0.75" stop-color="#B63CFB"/>
<stop offset="1" stop-color="#FF47E3"/>
</linearGradient>
<linearGradient id="paint12_linear_898_1433" x1="139.053" y1="238.821" x2="290.931" y2="254.557" gradientUnits="userSpaceOnUse">
<stop stop-color="#2AEBEB"/>
<stop offset="0.45" stop-color="#6174FF"/>
<stop offset="0.75" stop-color="#B63CFB"/>
<stop offset="1" stop-color="#FF47E3"/>
</linearGradient>
<linearGradient id="paint13_linear_898_1433" x1="138.161" y1="247.441" x2="290.038" y2="263.19" gradientUnits="userSpaceOnUse">
<stop stop-color="#2AEBEB"/>
<stop offset="0.45" stop-color="#6174FF"/>
<stop offset="0.75" stop-color="#B63CFB"/>
<stop offset="1" stop-color="#FF47E3"/>
</linearGradient>
<linearGradient id="paint14_linear_898_1433" x1="139.505" y1="234.591" x2="291.369" y2="250.341" gradientUnits="userSpaceOnUse">
<stop stop-color="#2AEBEB"/>
<stop offset="0.45" stop-color="#6174FF"/>
<stop offset="0.75" stop-color="#B63CFB"/>
<stop offset="1" stop-color="#FF47E3"/>
</linearGradient>
<linearGradient id="paint15_linear_898_1433" x1="139.932" y1="230.454" x2="291.796" y2="246.19" gradientUnits="userSpaceOnUse">
<stop stop-color="#2AEBEB"/>
<stop offset="0.45" stop-color="#6174FF"/>
<stop offset="0.75" stop-color="#B63CFB"/>
<stop offset="1" stop-color="#FF47E3"/>
</linearGradient>
<linearGradient id="paint16_linear_898_1433" x1="137.563" y1="253.307" x2="289.427" y2="269.056" gradientUnits="userSpaceOnUse">
<stop stop-color="#2AEBEB"/>
<stop offset="0.45" stop-color="#6174FF"/>
<stop offset="0.75" stop-color="#B63CFB"/>
<stop offset="1" stop-color="#FF47E3"/>
</linearGradient>
<linearGradient id="paint17_linear_898_1433" x1="138.999" y1="239.446" x2="290.863" y2="255.182" gradientUnits="userSpaceOnUse">
<stop stop-color="#2AEBEB"/>
<stop offset="0.45" stop-color="#6174FF"/>
<stop offset="0.75" stop-color="#B63CFB"/>
<stop offset="1" stop-color="#FF47E3"/>
</linearGradient>
<linearGradient id="paint18_linear_898_1433" x1="138.055" y1="248.558" x2="289.919" y2="264.294" gradientUnits="userSpaceOnUse">
<stop stop-color="#2AEBEB"/>
<stop offset="0.45" stop-color="#6174FF"/>
<stop offset="0.75" stop-color="#B63CFB"/>
<stop offset="1" stop-color="#FF47E3"/>
</linearGradient>
<linearGradient id="paint19_linear_898_1433" x1="139.478" y1="234.777" x2="291.342" y2="250.513" gradientUnits="userSpaceOnUse">
<stop stop-color="#2AEBEB"/>
<stop offset="0.45" stop-color="#6174FF"/>
<stop offset="0.75" stop-color="#B63CFB"/>
<stop offset="1" stop-color="#FF47E3"/>
</linearGradient>
<linearGradient id="paint20_linear_898_1433" x1="139.066" y1="238.781" x2="290.93" y2="254.531" gradientUnits="userSpaceOnUse">
<stop stop-color="#2AEBEB"/>
<stop offset="0.45" stop-color="#6174FF"/>
<stop offset="0.75" stop-color="#B63CFB"/>
<stop offset="1" stop-color="#FF47E3"/>
</linearGradient>
<linearGradient id="paint21_linear_898_1433" x1="138.694" y1="242.346" x2="290.559" y2="258.082" gradientUnits="userSpaceOnUse">
<stop stop-color="#2AEBEB"/>
<stop offset="0.45" stop-color="#6174FF"/>
<stop offset="0.75" stop-color="#B63CFB"/>
<stop offset="1" stop-color="#FF47E3"/>
</linearGradient>
<linearGradient id="paint22_linear_898_1433" x1="138.414" y1="245.073" x2="290.279" y2="260.809" gradientUnits="userSpaceOnUse">
<stop stop-color="#2AEBEB"/>
<stop offset="0.45" stop-color="#6174FF"/>
<stop offset="0.75" stop-color="#B63CFB"/>
<stop offset="1" stop-color="#FF47E3"/>
</linearGradient>
<linearGradient id="paint23_linear_898_1433" x1="140.104" y1="228.831" x2="291.968" y2="244.568" gradientUnits="userSpaceOnUse">
<stop stop-color="#2AEBEB"/>
<stop offset="0.45" stop-color="#6174FF"/>
<stop offset="0.75" stop-color="#B63CFB"/>
<stop offset="1" stop-color="#FF47E3"/>
</linearGradient>
<linearGradient id="paint24_linear_898_1433" x1="140.357" y1="226.384" x2="292.221" y2="242.12" gradientUnits="userSpaceOnUse">
<stop stop-color="#2AEBEB"/>
<stop offset="0.45" stop-color="#6174FF"/>
<stop offset="0.75" stop-color="#B63CFB"/>
<stop offset="1" stop-color="#FF47E3"/>
</linearGradient>
<linearGradient id="paint25_linear_898_1433" x1="140.917" y1="220.97" x2="292.781" y2="236.706" gradientUnits="userSpaceOnUse">
<stop stop-color="#2AEBEB"/>
<stop offset="0.45" stop-color="#6174FF"/>
<stop offset="0.75" stop-color="#B63CFB"/>
<stop offset="1" stop-color="#FF47E3"/>
</linearGradient>
<linearGradient id="paint26_linear_898_1433" x1="21.491" y1="238.515" x2="128.857" y2="238.515" gradientUnits="userSpaceOnUse">
<stop stop-color="#2AEBEB"/>
<stop offset="0.45" stop-color="#6174FF"/>
<stop offset="0.75" stop-color="#B63CFB"/>
<stop offset="1" stop-color="#FF47E3"/>
</linearGradient>
<linearGradient id="paint27_linear_898_1433" x1="64.2232" y1="141.239" x2="127.921" y2="163.044" gradientUnits="userSpaceOnUse">
<stop stop-color="#2AEBEB"/>
<stop offset="0.45" stop-color="#6174FF"/>
<stop offset="0.75" stop-color="#B63CFB"/>
<stop offset="1" stop-color="#FF47E3"/>
</linearGradient>
<linearGradient id="paint28_linear_898_1433" x1="62.2001" y1="147.145" x2="125.911" y2="168.937" gradientUnits="userSpaceOnUse">
<stop stop-color="#2AEBEB"/>
<stop offset="0.45" stop-color="#6174FF"/>
<stop offset="0.75" stop-color="#B63CFB"/>
<stop offset="1" stop-color="#FF47E3"/>
</linearGradient>
<linearGradient id="paint29_linear_898_1433" x1="60.1104" y1="153.237" x2="123.821" y2="175.029" gradientUnits="userSpaceOnUse">
<stop stop-color="#2AEBEB"/>
<stop offset="0.45" stop-color="#6174FF"/>
<stop offset="0.75" stop-color="#B63CFB"/>
<stop offset="1" stop-color="#FF47E3"/>
</linearGradient>
<linearGradient id="paint30_linear_898_1433" x1="58.0876" y1="159.183" x2="121.785" y2="180.975" gradientUnits="userSpaceOnUse">
<stop stop-color="#2AEBEB"/>
<stop offset="0.45" stop-color="#6174FF"/>
<stop offset="0.75" stop-color="#B63CFB"/>
<stop offset="1" stop-color="#FF47E3"/>
</linearGradient>
<linearGradient id="paint31_linear_898_1433" x1="56.0911" y1="164.983" x2="119.802" y2="186.788" gradientUnits="userSpaceOnUse">
<stop stop-color="#2AEBEB"/>
<stop offset="0.45" stop-color="#6174FF"/>
<stop offset="0.75" stop-color="#B63CFB"/>
<stop offset="1" stop-color="#FF47E3"/>
</linearGradient>
<linearGradient id="paint32_linear_898_1433" x1="14.0395" y1="148.675" x2="31.3141" y2="183.013" gradientUnits="userSpaceOnUse">
<stop stop-color="#2AEBEB"/>
<stop offset="0.45" stop-color="#6174FF"/>
<stop offset="0.75" stop-color="#B63CFB"/>
<stop offset="1" stop-color="#FF47E3"/>
</linearGradient>
<linearGradient id="paint33_linear_898_1433" x1="10.7658" y1="150.324" x2="28.0404" y2="184.662" gradientUnits="userSpaceOnUse">
<stop stop-color="#2AEBEB"/>
<stop offset="0.45" stop-color="#6174FF"/>
<stop offset="0.75" stop-color="#B63CFB"/>
<stop offset="1" stop-color="#FF47E3"/>
</linearGradient>
<linearGradient id="paint34_linear_898_1433" x1="111.823" y1="126.514" x2="133.599" y2="107.243" gradientUnits="userSpaceOnUse">
<stop stop-color="#2AEBEB"/>
<stop offset="0.45" stop-color="#6174FF"/>
<stop offset="0.75" stop-color="#B63CFB"/>
<stop offset="1" stop-color="#FF47E3"/>
</linearGradient>
<linearGradient id="paint35_linear_898_1433" x1="82.1343" y1="123.015" x2="99.4937" y2="106.913" gradientUnits="userSpaceOnUse">
<stop stop-color="#2AEBEB"/>
<stop offset="0.45" stop-color="#6174FF"/>
<stop offset="0.75" stop-color="#B63CFB"/>
<stop offset="1" stop-color="#FF47E3"/>
</linearGradient>
<clipPath id="clip0_898_1433">
<rect width="345" height="304" fill="white"/>
</clipPath>
</defs>
</svg>
