<svg width="538" height="495" viewBox="0 0 538 495" fill="none" xmlns="http://www.w3.org/2000/svg">
<path d="M477.448 198.556C477.448 191.915 472.071 186.497 465.389 186.497C464.901 186.497 464.412 186.538 463.923 186.578C453.982 154.191 436.22 124.492 411.573 99.8451C374.582 62.8948 326.306 41.4254 274.568 38.5737C273.427 33.1146 268.579 29 262.754 29C256.969 29 252.121 33.1146 250.98 38.5737C199.201 41.4254 150.966 62.9356 114.016 99.8451C89.2871 124.533 71.5249 154.272 61.5846 186.741C60.7698 186.578 59.9143 186.456 59.0587 186.456C52.3775 186.497 47 191.874 47 198.556C47 204.096 50.748 208.781 55.8811 210.166C53.559 222.714 52.3775 235.587 52.3775 248.624C52.3775 304.803 74.2544 357.641 114.016 397.403C125.341 408.728 137.726 418.587 150.966 426.938C150.518 428.161 150.273 429.505 150.273 430.89C150.273 437.531 155.651 442.949 162.332 442.949C166.121 442.949 169.543 441.197 171.743 438.427C199.812 451.911 230.774 459.041 262.794 459.041C299.5 459.041 334.78 449.712 365.864 432.153C368.023 435.371 371.69 437.49 375.845 437.49C382.486 437.49 387.904 432.112 387.904 425.431C387.904 423.109 387.252 420.95 386.111 419.117C395.074 412.598 403.548 405.388 411.532 397.403C451.253 357.682 473.171 304.844 473.171 248.624C473.171 235.465 471.948 222.469 469.626 209.84C474.189 208.129 477.448 203.73 477.448 198.556ZM407.54 393.41C399.555 401.395 391.041 408.606 382.037 415.083C380.245 413.983 378.126 413.372 375.845 413.372C369.205 413.372 363.786 418.75 363.786 425.431C363.786 425.879 363.827 426.327 363.868 426.775C333.395 444.13 298.767 453.378 262.754 453.378C231.548 453.378 201.401 446.452 174.106 433.294C174.269 432.52 174.35 431.705 174.35 430.89C174.35 424.25 168.973 418.831 162.291 418.831C159.073 418.831 156.14 420.094 153.981 422.172C141.107 414.065 129.008 404.451 117.967 393.41C79.306 354.749 57.9995 303.296 57.9995 248.624C57.9995 235.628 59.2217 222.836 61.5846 210.329C67.0028 209.148 71.1175 204.341 71.1175 198.556C71.1175 194.808 69.4064 191.467 66.7177 189.267C76.3321 157.328 93.7276 128.077 117.967 103.838C153.899 67.9057 200.83 47.0066 251.143 44.1956C252.528 49.3288 257.213 53.0767 262.754 53.0767C268.335 53.0767 272.979 49.288 274.364 44.1956C324.718 47.0066 371.608 67.9057 407.54 103.838C431.617 127.914 448.931 156.92 458.586 188.575C455.408 190.734 453.29 194.4 453.29 198.556C453.29 204.748 457.934 209.84 463.923 210.533C466.245 222.958 467.467 235.71 467.467 248.665C467.508 303.296 446.201 354.749 407.54 393.41Z" fill="url(#paint0_linear_3_84)"/>
<path d="M260.106 279.83C260.024 279.83 259.983 279.83 259.902 279.83L256.032 279.056C243.484 276.489 232.118 269.645 224.052 259.705C215.945 249.805 211.504 237.298 211.504 224.506V115.285C211.504 87.6234 234.073 65.1355 261.817 65.1355H262.713C290.456 65.1355 313.026 87.6234 313.026 115.285V173.135C313.026 173.664 312.577 174.112 312.048 174.112C311.518 174.112 311.07 173.664 311.07 173.135V115.285C311.07 88.7234 289.397 67.091 262.754 67.091H261.857C235.214 67.091 213.541 88.7234 213.541 115.285V224.506C213.541 249.928 231.588 272.049 256.48 277.1L260.35 277.874C260.88 277.997 261.246 278.526 261.124 279.056C260.961 279.504 260.554 279.83 260.106 279.83Z" fill="#82A4BB"/>
<path d="M317.751 168.694L311.966 174.479L306.181 168.694H317.751Z" fill="#82A4BB"/>
<path d="M292.371 259.46C292.371 259.542 292.33 259.583 292.289 259.664L290.334 263.127C284.019 274.249 273.998 282.926 262.061 287.57C250.125 292.215 236.844 292.581 224.703 288.63L120.86 254.898C94.5424 246.343 80.1208 217.947 88.676 191.549L88.9612 190.693C97.5163 164.335 125.911 149.832 152.229 158.346L207.267 176.231C207.797 176.394 208.082 176.964 207.919 177.494C207.756 178.023 207.186 178.308 206.656 178.145L151.618 160.261C126.36 152.032 99.1052 165.964 90.8759 191.304L90.5907 192.16C82.3614 217.499 96.2127 244.794 121.471 252.983L225.315 286.715C249.473 294.577 276.116 284.23 288.623 262.109L290.578 258.646C290.864 258.157 291.475 257.994 291.923 258.279C292.33 258.523 292.534 259.012 292.371 259.46Z" fill="#82A4BB"/>
<path d="M204.497 170.283L208.204 177.575L200.912 181.282L204.497 170.283Z" fill="#82A4BB"/>
<path d="M282.96 222.469C283.001 222.51 283.082 222.551 283.123 222.592L285.812 225.525C294.449 234.976 299.622 247.198 300.315 259.99C301.048 272.782 297.3 285.493 289.764 295.84L225.559 384.163C209.304 406.528 177.813 411.498 155.366 395.203L154.632 394.673C132.185 378.378 127.174 346.886 143.429 324.521L177.446 277.712C177.772 277.263 178.383 277.182 178.831 277.508C179.28 277.834 179.361 278.445 179.035 278.893L145.018 325.702C129.415 347.212 134.222 377.4 155.773 393.084L156.506 393.614C178.057 409.258 208.286 404.532 223.889 383.022L288.175 294.659C303.126 274.126 301.496 245.609 284.345 226.869L281.657 223.936C281.29 223.529 281.331 222.918 281.738 222.51C282.064 222.225 282.594 222.184 282.96 222.469Z" fill="#82A4BB"/>
<path d="M171.009 278.486L179.076 277.223L180.379 285.289L171.009 278.486Z" fill="#82A4BB"/>
<path d="M244.869 219.984C244.91 219.944 244.991 219.903 245.032 219.903L248.617 218.273C260.269 212.977 273.509 211.837 285.853 215.096C298.237 218.355 309.196 225.851 316.692 236.198L380.897 324.561C397.152 346.927 392.141 378.418 369.694 394.714L368.96 395.243C346.513 411.539 315.063 406.61 298.767 384.203L264.831 337.394C264.505 336.946 264.587 336.335 265.035 336.009C265.483 335.683 266.094 335.765 266.42 336.213L300.437 383.022C316.04 404.532 346.269 409.258 367.82 393.614L368.553 393.084C390.104 377.44 394.911 347.212 379.308 325.702L315.144 237.339C300.234 216.807 272.613 209.514 249.473 220.025L245.888 221.655C245.399 221.899 244.788 221.655 244.584 221.166C244.34 220.758 244.503 220.229 244.869 219.984Z" fill="#82A4BB"/>
<path d="M263.568 343.79L264.831 335.683L272.938 336.987L263.568 343.79Z" fill="#82A4BB"/>
<path d="M230.733 255.427C230.733 255.346 230.692 255.305 230.692 255.224L230.244 251.272C228.818 238.561 231.833 225.647 238.758 214.851C245.684 204.096 256.195 195.989 268.376 192.037L372.26 158.306C398.577 149.75 426.932 164.253 435.528 190.652L435.813 191.508C444.368 217.866 429.946 246.302 403.629 254.857L348.591 272.741C348.061 272.904 347.491 272.619 347.328 272.09C347.165 271.56 347.45 270.99 347.98 270.827L403.018 252.942C428.276 244.713 442.127 217.459 433.898 192.119L433.613 191.263C425.384 165.924 398.129 151.991 372.871 160.22L268.987 193.952C244.829 201.815 229.388 225.81 232.24 251.068L232.688 255.02C232.77 255.549 232.362 256.079 231.792 256.12C231.303 256.161 230.896 255.875 230.733 255.427Z" fill="#82A4BB"/>
<path d="M354.253 275.919L346.961 272.212L350.668 264.919L354.253 275.919Z" fill="#82A4BB"/>
<path d="M272.653 240.15C273.101 240.924 273.631 242.391 273.916 243.246C274.731 243.328 275.546 243.532 276.279 243.857C276.116 243.165 275.668 241.495 274.609 239.335C273.468 237.013 271.513 235.18 269.231 233.876C266.991 232.573 264.424 231.921 261.857 232.002C259.861 232.043 257.906 232.532 256.113 233.347C254.321 234.202 252.732 235.384 251.428 236.932L250.654 237.828L251.795 237.584C252.121 237.543 252.406 237.461 252.732 237.421C253.058 237.38 253.343 237.38 253.71 237.38L253.873 237.339L253.954 237.258C255.013 236.28 256.276 235.465 257.621 234.936C259.006 234.365 260.432 234.08 261.898 234.039C264.057 233.999 266.216 234.528 268.09 235.587C269.964 236.687 271.553 238.235 272.653 240.15Z" fill="url(#paint1_linear_3_84)"/>
<path d="M264.587 246.791L264.628 246.709C264.831 246.383 264.872 246.302 265.239 245.976C265.565 245.65 265.931 245.324 266.339 245.039C267.642 243.898 269.313 243.206 271.146 243.206H273.061L272.368 241.25C272.368 241.25 271.472 241.209 270.657 241.25C268.905 241.372 268.05 241.535 266.665 242.146C265.442 242.676 264.424 243.491 263.487 244.469C262.591 242.635 261.206 241.332 259.495 240.232C257.621 239.009 255.421 238.358 253.18 238.358C250.125 238.358 247.232 239.539 245.073 241.739C242.914 243.898 241.692 246.791 241.692 249.846C241.692 252.779 242.792 255.59 244.788 257.709C246.825 259.868 249.554 261.131 252.447 261.294H252.528C252.569 261.294 252.61 261.294 252.65 261.294H252.813L252.854 261.253C253.058 261.212 253.261 261.131 253.424 260.968C253.628 260.764 253.75 260.52 253.75 260.234C253.75 259.949 253.628 259.664 253.424 259.46C253.221 259.257 252.936 259.175 252.65 259.175C252.61 259.175 252.569 259.175 252.528 259.175C250.165 259.012 247.925 257.953 246.295 256.201C244.666 254.45 243.769 252.168 243.769 249.805C243.769 247.279 244.747 244.917 246.54 243.165C248.332 241.372 250.695 240.395 253.18 240.395C254.932 240.395 256.643 240.883 258.109 241.82C259.617 242.757 260.798 244.102 261.613 245.65C261.654 245.772 261.694 245.894 261.776 246.057C261.898 246.383 261.98 246.75 262.265 247.035C262.346 247.117 262.428 247.157 262.509 247.239C262.794 247.402 263.12 247.483 263.446 247.442C263.772 247.402 264.098 247.28 264.302 247.035C264.465 246.954 264.546 246.872 264.587 246.791Z" fill="url(#paint2_linear_3_84)"/>
<path d="M281.249 245.772C280.271 244.143 278.886 242.839 277.175 241.983L276.32 241.535L276.605 242.472C276.686 242.757 276.768 243.043 276.849 243.328C276.931 243.613 276.972 243.898 277.053 244.224L277.094 244.346C279.171 245.65 280.597 247.972 280.597 250.579C280.597 250.865 280.597 251.109 280.557 251.353C280.516 252.331 280.271 253.309 279.864 254.205C279.375 255.224 278.683 256.161 277.827 256.935C277.135 257.546 276.361 257.994 275.505 258.32C274.649 258.646 273.794 258.849 272.898 258.849H263.65C263.202 258.849 262.794 258.849 262.428 258.809C262.02 258.768 261.654 258.727 261.246 258.686C259.087 258.32 257.05 257.342 255.38 255.957C253.75 254.572 252.528 252.779 251.836 250.783L251.632 250.172C251.428 249.439 251.265 248.665 251.225 247.85H252.365L250.288 242.391L247.884 247.85H249.147C249.31 250.131 250.043 252.331 251.265 254.287L251.306 254.327C251.347 254.409 251.428 254.531 251.51 254.613C251.713 254.898 251.999 255.305 252.039 255.346C252.61 256.079 253.261 256.772 253.954 257.424C254.443 257.831 254.932 258.238 255.461 258.564H255.421L256.072 258.931C256.072 258.931 256.113 258.931 256.113 258.972H256.072L256.643 259.257H256.602L257.213 259.542H257.172L257.498 259.664L258.15 259.909H258.109L258.435 259.99L258.354 260.031L259.332 260.275L259.291 260.316L260.391 260.56C260.92 260.683 261.45 260.764 261.98 260.805C262.428 260.846 262.876 260.846 263.283 260.846C263.365 260.846 263.446 260.846 263.568 260.846H272.694C273.59 260.805 274.324 260.723 275.057 260.56C275.831 260.397 276.564 260.112 277.338 259.705C278.886 258.89 280.231 257.668 281.168 256.161C282.105 254.694 282.634 252.983 282.716 251.19V251.027C282.675 249.235 282.227 247.402 281.249 245.772Z" fill="url(#paint3_linear_3_84)"/>
<path d="M414.384 189H407.825C407.051 189 406.399 189.652 406.399 190.426V191.363C405.381 191.363 404.525 192.218 404.525 193.237C404.525 194.255 405.381 195.111 406.399 195.111V197.474H410.147V196.537C410.147 196.007 410.555 195.6 411.084 195.6C411.614 195.6 412.021 196.007 412.021 196.537V197.474H414.384C415.158 197.474 415.81 196.822 415.81 196.048V190.426C415.81 189.652 415.158 189 414.384 189ZM414.873 196.048C414.873 196.292 414.669 196.537 414.384 196.537H412.958C412.958 195.518 412.103 194.663 411.084 194.663C410.066 194.663 409.21 195.518 409.21 196.537H407.336V194.174H406.399C405.87 194.174 405.462 193.766 405.462 193.237C405.462 192.707 405.87 192.3 406.399 192.3H407.336V190.426C407.336 190.181 407.54 189.937 407.825 189.937H414.384C414.628 189.937 414.873 190.141 414.873 190.426V196.048Z" fill="url(#paint4_linear_3_84)"/>
<path d="M406.399 198.37C405.381 198.37 404.525 199.225 404.525 200.244H402.651V197.881H401.714C401.185 197.881 400.777 197.474 400.777 196.944C400.777 196.414 401.185 196.007 401.714 196.007H402.651V191.77H401.388C396.377 191.77 392.344 195.844 392.344 200.814C392.344 203.544 393.566 206.11 395.685 207.821L397.518 209.329V210.592C396.988 210.795 396.581 211.284 396.581 211.895C396.581 212.547 397.029 213.077 397.64 213.24C397.559 213.403 397.518 213.566 397.518 213.769C397.518 214.38 397.925 214.91 398.496 215.114C398.7 216.743 400.085 218.006 401.755 218.006C403.425 218.006 404.81 216.743 405.014 215.114C405.584 214.91 405.992 214.421 405.992 213.769C405.992 213.566 405.951 213.403 405.87 213.24C406.481 213.077 406.929 212.547 406.929 211.895C406.929 211.284 406.521 210.755 405.992 210.592V209.329L407.825 207.821C409.943 206.11 411.166 203.544 411.166 200.814V200.203H408.355C408.314 199.225 407.458 198.37 406.399 198.37ZM401.388 192.748H401.714V195.111C400.696 195.111 399.84 195.966 399.84 196.985C399.84 198.003 400.696 198.859 401.714 198.859V200.285H399.84C399.84 199.266 398.985 198.411 397.966 198.411C396.948 198.411 396.092 199.266 396.092 200.285H393.281C393.607 196.089 397.151 192.748 401.388 192.748ZM396.255 207.17C394.463 205.703 393.363 203.544 393.281 201.181H397.029V200.244C397.029 199.714 397.437 199.307 397.966 199.307C398.496 199.307 398.903 199.714 398.903 200.244V201.181H401.714V203.055C400.696 203.055 399.84 203.91 399.84 204.929C399.84 205.947 400.696 206.803 401.714 206.803V210.551H398.414V208.921L396.255 207.17ZM401.714 217.151C400.574 217.151 399.637 216.336 399.433 215.277H404.036C403.792 216.336 402.855 217.151 401.714 217.151ZM404.525 214.34H398.903C398.659 214.34 398.414 214.136 398.414 213.851C398.414 213.566 398.618 213.362 398.903 213.362H404.525C404.77 213.362 405.014 213.566 405.014 213.851C405.014 214.136 404.81 214.34 404.525 214.34ZM405.462 212.466H404.525H398.903H397.966C397.722 212.466 397.477 212.262 397.477 211.977C397.477 211.692 397.681 211.488 397.966 211.488H405.462C405.707 211.488 405.951 211.692 405.951 211.977C405.951 212.262 405.747 212.466 405.462 212.466ZM407.173 207.17L404.973 208.962V210.592H402.651V205.907H401.714C401.185 205.907 400.777 205.499 400.777 204.97C400.777 204.44 401.185 204.033 401.714 204.033H402.651V201.222H405.462V200.285C405.462 199.755 405.87 199.348 406.399 199.348C406.929 199.348 407.336 199.755 407.336 200.285V201.222H410.147C410.066 203.544 409.006 205.703 407.173 207.17Z" fill="url(#paint5_linear_3_84)"/>
<path d="M361.301 362.693L358.246 362.367C358.042 361.634 357.716 360.941 357.39 360.289L359.305 357.886C359.509 357.641 359.468 357.275 359.264 357.071L355.761 353.567C355.557 353.364 355.19 353.323 354.946 353.527L352.542 355.441C351.891 355.075 351.157 354.79 350.465 354.586L350.139 351.53C350.098 351.205 349.854 350.96 349.528 350.96H344.558C344.232 350.96 343.987 351.205 343.946 351.53L343.621 354.586C342.887 354.79 342.195 355.115 341.543 355.441L339.139 353.527C338.895 353.323 338.528 353.364 338.324 353.567L334.821 357.071C334.617 357.275 334.577 357.641 334.78 357.886L336.695 360.289C336.328 360.941 336.043 361.674 335.839 362.367L332.784 362.693C332.458 362.734 332.214 362.978 332.214 363.304V368.274C332.214 368.6 332.458 368.845 332.784 368.885L335.839 369.211C336.043 369.944 336.369 370.637 336.695 371.289L334.78 373.692C334.577 373.937 334.617 374.304 334.821 374.507L338.324 378.011C338.528 378.215 338.895 378.255 339.139 378.052L341.543 376.137C342.195 376.503 342.928 376.789 343.621 376.992L343.946 380.048C343.987 380.374 344.232 380.618 344.558 380.618H349.528C349.854 380.618 350.098 380.374 350.139 380.088L350.465 377.033C351.198 376.829 351.891 376.503 352.542 376.178L354.946 378.092C355.19 378.296 355.557 378.255 355.761 378.052L359.264 374.548C359.468 374.344 359.509 373.978 359.305 373.733L357.39 371.33C357.757 370.678 358.042 369.944 358.246 369.252L361.301 368.926C361.627 368.885 361.872 368.641 361.872 368.315V363.345C361.831 362.978 361.586 362.693 361.301 362.693ZM360.609 367.704L357.675 368.03C357.431 368.07 357.227 368.233 357.146 368.478C356.901 369.374 356.535 370.23 356.087 371.044C355.964 371.248 355.964 371.533 356.127 371.737L357.961 374.018L355.231 376.748L352.95 374.915C352.746 374.752 352.461 374.752 352.257 374.874C351.442 375.322 350.587 375.689 349.691 375.933C349.446 376.015 349.243 376.218 349.243 376.463L348.917 379.396H345.087L344.761 376.463C344.721 376.218 344.558 376.015 344.313 375.933C343.417 375.689 342.561 375.322 341.747 374.874C341.543 374.752 341.258 374.752 341.054 374.915L338.773 376.748L336.043 374.018L337.876 371.737C338.039 371.533 338.039 371.248 337.917 371.044C337.469 370.23 337.102 369.374 336.858 368.478C336.776 368.233 336.573 368.03 336.328 368.03L333.395 367.704V363.874L336.328 363.548C336.573 363.508 336.776 363.345 336.858 363.1C337.102 362.204 337.469 361.349 337.917 360.534C338.039 360.33 338.039 360.045 337.876 359.841L336.043 357.56L338.773 354.83L341.095 356.664C341.298 356.827 341.584 356.827 341.787 356.704C342.602 356.256 343.458 355.89 344.354 355.645C344.598 355.564 344.802 355.36 344.802 355.115L345.128 352.182H348.957L349.283 355.115C349.324 355.36 349.487 355.564 349.731 355.645C350.628 355.89 351.483 356.256 352.298 356.704C352.502 356.827 352.787 356.827 352.991 356.664L355.272 354.83L358.001 357.56L356.168 359.841C356.005 360.045 356.005 360.33 356.127 360.534C356.576 361.349 356.942 362.204 357.187 363.1C357.268 363.345 357.472 363.548 357.716 363.548L360.649 363.874V367.704H360.609Z" fill="url(#paint6_linear_3_84)"/>
<path d="M354.539 361.552C352.216 357.356 346.92 355.89 342.724 358.212C338.528 360.534 337.062 365.83 339.384 370.026C339.424 370.067 339.465 370.108 339.506 370.148C339.75 370.393 340.158 370.393 340.402 370.148L344.435 366.115L345.861 368.03C345.861 368.071 345.902 368.071 345.902 368.111C346.146 368.356 346.554 368.356 346.798 368.111L350.709 364.2V366.441H351.931V362.734C351.931 362.408 351.646 362.123 351.32 362.123H347.613V363.345H349.854L346.472 366.726L345.046 364.811C344.924 364.649 344.761 364.567 344.598 364.567C344.435 364.567 344.232 364.608 344.109 364.73L340.158 368.682C339.099 366.156 339.506 363.223 341.258 361.104C343.865 357.927 348.509 357.478 351.687 360.086C354.865 362.693 355.313 367.337 352.705 370.515C352.461 370.8 352.216 371.085 351.931 371.33V367.663H350.709V372.226C350.302 372.47 349.894 372.633 349.487 372.796V368.885H348.265V373.122C347.857 373.204 347.45 373.244 347.043 373.244V370.759H345.82V373.122C345.413 373.041 345.006 372.959 344.598 372.796V369.496H343.376V372.226C343.05 372.022 342.684 371.778 342.358 371.533L341.584 372.47C343.132 373.733 345.087 374.426 347.083 374.426C348.55 374.426 350.017 374.059 351.32 373.326C355.394 371.004 356.861 365.708 354.539 361.552Z" fill="url(#paint7_linear_3_84)"/>
<path d="M162.047 366.074L163.595 366.319C163.839 367.337 164.247 368.356 164.817 369.252L163.88 370.515C163.432 371.085 163.514 371.9 164.043 372.43L165.102 373.489C165.632 374.018 166.406 374.059 167.017 373.652L168.28 372.715C169.176 373.285 170.195 373.693 171.213 373.937L171.458 375.485C171.58 376.218 172.191 376.748 172.924 376.748H174.432C175.165 376.748 175.776 376.218 175.898 375.485L176.143 373.937C177.161 373.693 178.18 373.285 179.076 372.715L180.339 373.652C180.909 374.1 181.724 374.018 182.253 373.489L183.313 372.43C183.842 371.9 183.883 371.126 183.476 370.515L182.539 369.252C183.109 368.356 183.516 367.337 183.761 366.319L185.309 366.074C186.042 365.952 186.572 365.341 186.572 364.608H190.972V374.059C190.972 374.996 191.746 375.77 192.683 375.77H195.86C196.186 377.278 197.531 378.418 199.16 378.418C201.034 378.418 202.541 376.911 202.541 375.037C202.541 373.163 201.034 371.656 199.16 371.656C197.571 371.656 196.186 372.796 195.86 374.304H192.683C192.56 374.304 192.438 374.181 192.438 374.059V364.648H195.86C196.186 366.156 197.531 367.297 199.16 367.297C201.034 367.297 202.541 365.789 202.541 363.915C202.541 362.041 201.034 360.534 199.16 360.534C197.571 360.534 196.186 361.675 195.86 363.182H192.438V353.69C192.438 353.567 192.56 353.445 192.683 353.445H195.86C196.186 354.953 197.531 356.093 199.16 356.093C201.034 356.093 202.541 354.586 202.541 352.712C202.541 350.838 201.034 349.331 199.16 349.331C197.571 349.331 196.186 350.471 195.86 351.979H192.683C191.746 351.979 190.972 352.753 190.972 353.69V363.1H186.572C186.572 362.367 186.042 361.756 185.309 361.634L183.761 361.389C183.516 360.371 183.109 359.352 182.539 358.456L183.476 357.193C183.924 356.623 183.842 355.808 183.313 355.279L182.253 354.219C181.724 353.69 180.95 353.649 180.339 354.056L179.076 354.993C178.18 354.423 177.161 354.016 176.143 353.771L175.898 352.223C175.776 351.49 175.165 350.96 174.432 350.96H172.924C172.191 350.96 171.58 351.49 171.458 352.223L171.213 353.771C170.195 354.016 169.176 354.423 168.28 354.993L167.017 354.056C166.447 353.608 165.632 353.69 165.102 354.219L164.043 355.279C163.514 355.808 163.473 356.582 163.88 357.193L164.817 358.456C164.247 359.352 163.839 360.371 163.595 361.389L162.047 361.634C161.314 361.756 160.784 362.367 160.784 363.1V364.608C160.784 365.341 161.314 365.952 162.047 366.074ZM198.956 373.122C200.016 373.122 200.871 373.978 200.871 375.037C200.871 376.096 200.016 376.952 198.956 376.952C197.897 376.952 197.042 376.096 197.042 375.037C197.042 373.978 197.938 373.122 198.956 373.122ZM198.956 361.96C200.016 361.96 200.871 362.815 200.871 363.874C200.871 364.934 200.016 365.789 198.956 365.789C197.897 365.789 197.042 364.934 197.042 363.874C197.082 362.815 197.938 361.96 198.956 361.96ZM198.956 350.838C200.016 350.838 200.871 351.693 200.871 352.753C200.871 353.812 200.016 354.667 198.956 354.667C197.897 354.667 197.042 353.812 197.042 352.753C197.082 351.653 197.938 350.838 198.956 350.838ZM162.291 363.141L164.328 362.856C164.654 362.815 164.899 362.571 164.939 362.245C165.184 361.023 165.632 359.923 166.325 358.904C166.487 358.66 166.487 358.293 166.325 358.049L165.102 356.378L166.162 355.319L167.832 356.541C168.076 356.745 168.443 356.745 168.687 356.541C169.706 355.849 170.806 355.401 172.028 355.156C172.354 355.116 172.558 354.83 172.639 354.545L172.924 352.508H174.391L174.676 354.545C174.717 354.871 174.961 355.116 175.287 355.156C176.509 355.401 177.609 355.849 178.628 356.541C178.872 356.704 179.239 356.704 179.483 356.541L181.153 355.319L182.213 356.378L180.991 358.049C180.787 358.293 180.787 358.66 180.991 358.904C181.683 359.923 182.131 361.023 182.376 362.245C182.416 362.571 182.702 362.774 182.987 362.856L185.024 363.141V364.608L182.987 364.893C182.661 364.934 182.416 365.178 182.376 365.504C182.131 366.726 181.683 367.826 180.991 368.845C180.828 369.089 180.828 369.456 180.991 369.7L182.213 371.37L181.153 372.43L179.483 371.207C179.239 371.004 178.872 371.004 178.628 371.207C177.609 371.9 176.509 372.348 175.287 372.593C174.961 372.633 174.757 372.918 174.676 373.204L174.391 375.241H172.924L172.639 373.204C172.598 372.878 172.354 372.633 172.028 372.593C170.806 372.348 169.706 371.9 168.687 371.207C168.443 371.044 168.076 371.044 167.832 371.207L166.162 372.43L165.102 371.37L166.325 369.7C166.528 369.456 166.528 369.089 166.325 368.845C165.632 367.826 165.184 366.726 164.939 365.504C164.899 365.178 164.613 364.974 164.328 364.893L162.291 364.608V363.141Z" fill="url(#paint8_linear_3_84)"/>
<path d="M178.791 365.871C178.831 365.789 178.831 365.748 178.872 365.667C178.872 365.626 178.913 365.586 178.913 365.586C178.994 365.382 179.035 365.178 179.076 364.974V364.934C179.076 364.852 179.117 364.771 179.117 364.689C179.117 364.649 179.117 364.648 179.117 364.608C179.117 364.526 179.117 364.445 179.157 364.363C179.157 364.323 179.157 364.323 179.157 364.282C179.157 364.16 179.157 364.078 179.157 363.956C179.157 361.186 177.12 358.864 174.432 358.456C174.146 358.415 173.861 358.375 173.576 358.375C173.495 358.375 173.372 358.375 173.291 358.375C173.25 358.375 173.209 358.375 173.128 358.375C173.087 358.375 173.046 358.375 172.965 358.375C172.883 358.375 172.843 358.375 172.761 358.415C172.721 358.415 172.68 358.415 172.68 358.415C172.598 358.415 172.558 358.456 172.476 358.456C172.435 358.456 172.435 358.456 172.395 358.456C172.313 358.456 172.272 358.497 172.191 358.497C172.15 358.497 172.15 358.497 172.109 358.497C172.028 358.497 171.987 358.538 171.906 358.538C171.865 358.538 171.865 358.538 171.824 358.538C171.743 358.578 171.702 358.578 171.621 358.619H171.58C171.498 358.66 171.417 358.66 171.376 358.701C171.295 358.741 171.213 358.782 171.172 358.782C170.154 359.271 169.258 360.086 168.728 361.104C168.728 361.104 168.728 361.104 168.728 361.145C168.647 361.267 168.565 361.43 168.524 361.552C168.484 361.593 168.484 361.634 168.443 361.715C168.443 361.756 168.402 361.797 168.402 361.838C168.361 361.919 168.361 361.96 168.321 362.041C168.321 362.082 168.28 362.123 168.28 362.123C168.198 362.326 168.158 362.53 168.117 362.734V362.775C168.117 362.856 168.076 362.937 168.076 363.019C168.076 363.06 168.076 363.06 168.076 363.1C168.076 363.182 168.076 363.263 168.036 363.345C168.036 363.386 168.036 363.386 168.036 363.426C168.036 363.549 168.036 363.63 168.036 363.752C168.036 366.523 170.072 368.845 172.761 369.252C173.046 369.293 173.332 369.333 173.617 369.333C173.698 369.333 173.82 369.333 173.902 369.333C173.943 369.333 173.983 369.333 174.065 369.333C174.106 369.333 174.146 369.333 174.228 369.333C174.309 369.333 174.35 369.333 174.432 369.293C174.472 369.293 174.513 369.293 174.513 369.293C174.594 369.293 174.635 369.252 174.717 369.252C174.757 369.252 174.757 369.252 174.798 369.252C174.88 369.252 174.92 369.211 175.002 369.211C175.043 369.211 175.043 369.211 175.083 369.211C175.165 369.211 175.206 369.171 175.287 369.171H175.328C175.409 369.13 175.45 369.13 175.531 369.089H175.572C175.654 369.048 175.735 369.048 175.776 369.008C175.857 368.967 175.939 368.926 175.98 368.926C176.998 368.437 177.894 367.622 178.424 366.604C178.424 366.604 178.424 366.604 178.424 366.563C178.505 366.441 178.587 366.278 178.628 366.156C178.668 366.115 178.668 366.074 178.709 365.993C178.75 365.952 178.791 365.911 178.791 365.871ZM175.246 367.622C175.206 367.663 175.124 367.663 175.083 367.704C175.002 367.745 174.961 367.745 174.88 367.785C174.798 367.826 174.757 367.826 174.676 367.826C174.594 367.826 174.513 367.867 174.472 367.867C174.391 367.867 174.309 367.908 174.269 367.908C174.187 367.908 174.146 367.948 174.065 367.948C173.943 367.948 173.78 367.989 173.657 367.989C173.657 367.989 173.657 367.989 173.617 367.989C171.661 367.989 169.991 366.604 169.624 364.73C169.584 364.445 169.543 364.2 169.543 363.915C169.543 363.793 169.543 363.671 169.543 363.549C169.543 363.508 169.543 363.508 169.543 363.467C169.543 363.345 169.584 363.223 169.584 363.141C169.584 363.1 169.584 363.1 169.584 363.06C169.624 362.937 169.624 362.856 169.665 362.775V362.734C169.706 362.612 169.747 362.489 169.787 362.408V362.367C170.195 361.43 170.928 360.656 171.906 360.249C171.946 360.208 172.028 360.208 172.069 360.167C172.15 360.126 172.191 360.126 172.272 360.086C172.354 360.045 172.395 360.045 172.476 360.045C172.558 360.045 172.639 360.004 172.68 360.004C172.761 360.004 172.843 359.964 172.924 359.964C173.006 359.964 173.046 359.923 173.128 359.923C173.25 359.923 173.413 359.882 173.535 359.882C173.535 359.882 173.535 359.882 173.576 359.882C175.817 359.882 177.65 361.715 177.65 363.956C177.65 364.078 177.65 364.2 177.65 364.323C177.65 364.363 177.65 364.363 177.65 364.404C177.65 364.526 177.609 364.648 177.609 364.73C177.609 364.771 177.609 364.771 177.609 364.811C177.568 364.934 177.568 365.015 177.528 365.097V365.137C177.487 365.26 177.446 365.382 177.405 365.463V365.504C176.957 366.441 176.183 367.174 175.246 367.622Z" fill="url(#paint9_linear_3_84)"/>
<path d="M134.63 194.607H109.29C109.005 194.607 108.76 194.852 108.76 195.137V195.666H135.159V195.137C135.159 194.811 134.915 194.607 134.63 194.607Z" fill="url(#paint10_linear_3_84)"/>
<path d="M134.1 195.666V212.41C134.1 212.695 133.856 212.94 133.57 212.94H110.349C110.064 212.94 109.82 212.695 109.82 212.41V195.666H108.76V212.41C108.76 213.306 109.494 213.999 110.349 213.999H121.43V216.973C120.534 217.217 119.841 218.032 119.841 219.01C119.841 219.377 119.923 219.743 120.126 220.069H114.83C114.545 220.069 114.301 220.314 114.301 220.599C114.301 220.884 114.545 221.128 114.83 221.128H129.008C129.293 221.128 129.537 220.884 129.537 220.599C129.537 220.314 129.293 220.069 129.008 220.069H123.712C123.874 219.743 123.997 219.417 123.997 219.01C123.997 218.032 123.345 217.217 122.408 216.973V213.999H133.489C134.385 213.999 135.078 213.266 135.078 212.41V195.666H134.1ZM122.978 218.969C122.978 219.54 122.53 220.028 121.919 220.028C121.349 220.028 120.86 219.54 120.86 218.969C120.86 218.399 121.349 217.91 121.919 217.91C122.53 217.951 122.978 218.399 122.978 218.969Z" fill="url(#paint11_linear_3_84)"/>
<path d="M131.819 199.252H127.989C127.704 199.252 127.46 199.007 127.46 198.722C127.46 198.437 127.704 198.192 127.989 198.192H131.819C132.104 198.192 132.348 198.437 132.348 198.722C132.348 199.007 132.104 199.252 131.819 199.252Z" fill="url(#paint12_linear_3_84)"/>
<path d="M131.819 201.777H127.989C127.704 201.777 127.46 201.533 127.46 201.248C127.46 200.963 127.704 200.718 127.989 200.718H131.819C132.104 200.718 132.348 200.963 132.348 201.248C132.348 201.574 132.104 201.777 131.819 201.777Z" fill="url(#paint13_linear_3_84)"/>
<path d="M131.819 204.344H127.989C127.704 204.344 127.46 204.099 127.46 203.814C127.46 203.529 127.704 203.285 127.989 203.285H131.819C132.104 203.285 132.348 203.529 132.348 203.814C132.348 204.099 132.104 204.344 131.819 204.344Z" fill="url(#paint14_linear_3_84)"/>
<path d="M131.819 206.91H127.989C127.704 206.91 127.46 206.666 127.46 206.381C127.46 206.096 127.704 205.851 127.989 205.851H131.819C132.104 205.851 132.348 206.096 132.348 206.381C132.348 206.666 132.104 206.91 131.819 206.91Z" fill="url(#paint15_linear_3_84)"/>
<path d="M135.852 192H108.068C107.783 192 107.538 192.244 107.538 192.53V195.137C107.538 195.422 107.783 195.667 108.068 195.667H135.852C136.137 195.667 136.381 195.422 136.381 195.137V192.53C136.381 192.244 136.137 192 135.852 192ZM135.322 194.607H108.597V193.059H135.322V194.607Z" fill="url(#paint16_linear_3_84)"/>
<path d="M127.052 209.273H125.423V198.355C125.423 198.07 125.178 197.826 124.893 197.826H122.163C121.878 197.826 121.634 198.07 121.634 198.355V209.273H120.371V200.148C120.371 199.863 120.126 199.618 119.841 199.618H117.071C116.786 199.618 116.541 199.863 116.541 200.148V209.273H115.279V201.533C115.279 201.248 115.034 201.003 114.749 201.003H112.019C111.734 201.003 111.49 201.248 111.49 201.533V209.273H111.082C110.797 209.273 110.553 209.518 110.553 209.803C110.553 210.088 110.797 210.333 111.082 210.333H127.052C127.337 210.333 127.582 210.088 127.582 209.803C127.582 209.518 127.337 209.273 127.052 209.273ZM112.549 209.273V202.022H114.219V209.273H112.549ZM119.312 209.273H117.641V200.677H119.312V209.273ZM124.363 209.273H122.693V198.885H124.363V209.273Z" fill="url(#paint17_linear_3_84)"/>
<path d="M119.475 195.666H111.979C111.694 195.666 111.449 195.422 111.449 195.137V192.53C111.449 192.244 111.694 192 111.979 192H119.475C119.76 192 120.004 192.244 120.004 192.53V195.137C120.004 195.422 119.801 195.666 119.475 195.666ZM112.549 194.607H118.986V193.059H112.549V194.607Z" fill="url(#paint18_linear_3_84)"/>
<path d="M131.9 195.666H124.404C124.119 195.666 123.874 195.422 123.874 195.137V192.53C123.874 192.244 124.119 192 124.404 192H131.9C132.185 192 132.43 192.244 132.43 192.53V195.137C132.43 195.422 132.185 195.666 131.9 195.666ZM124.974 194.607H131.411V193.059H124.974V194.607Z" fill="url(#paint19_linear_3_84)"/>
<path d="M260.533 96.9526H254.015C253.73 96.9526 253.445 96.7082 253.445 96.3823C253.445 96.0971 253.689 95.8119 254.015 95.8119H260.533C260.818 95.8119 261.103 96.0564 261.103 96.3823C261.103 96.7082 260.859 96.9526 260.533 96.9526Z" fill="url(#paint20_linear_3_84)"/>
<path d="M260.533 94.2638H254.015C253.73 94.2638 253.445 94.0194 253.445 93.6935C253.445 93.4083 253.689 93.1232 254.015 93.1232H260.533C260.818 93.1232 261.103 93.3676 261.103 93.6935C261.103 94.0194 260.859 94.2638 260.533 94.2638Z" fill="url(#paint21_linear_3_84)"/>
<path d="M259.392 100.008H254.015C253.73 100.008 253.445 99.7636 253.445 99.4377C253.445 99.1525 253.689 98.8674 254.015 98.8674H259.392C259.678 98.8674 259.963 99.1118 259.963 99.4377C259.922 99.7636 259.678 100.008 259.392 100.008Z" fill="url(#paint22_linear_3_84)"/>
<path d="M259.392 102.738H254.015C253.73 102.738 253.445 102.493 253.445 102.167C253.445 101.882 253.689 101.597 254.015 101.597H259.392C259.678 101.597 259.963 101.841 259.963 102.167C259.922 102.493 259.678 102.738 259.392 102.738Z" fill="url(#paint23_linear_3_84)"/>
<path d="M259.392 105.467H254.015C253.73 105.467 253.445 105.223 253.445 104.897C253.445 104.612 253.689 104.326 254.015 104.326H259.392C259.678 104.326 259.963 104.571 259.963 104.897C259.922 105.223 259.678 105.467 259.392 105.467Z" fill="url(#paint24_linear_3_84)"/>
<path d="M260.533 91.5751H254.015C253.73 91.5751 253.445 91.3306 253.445 91.0047C253.445 90.6788 253.689 90.4344 254.015 90.4344H260.533C260.818 90.4344 261.103 90.6788 261.103 91.0047C261.103 91.3306 260.859 91.5751 260.533 91.5751Z" fill="url(#paint25_linear_3_84)"/>
<path d="M277.44 105.263H274.832V85.7901C274.832 85.4642 274.588 85.2605 274.262 85.2605H253.526C253.241 85.2605 252.996 85.505 252.996 85.7901V87.2568H251.571C251.245 87.2568 251 87.5012 251 87.8271V108.482C251 108.523 251 108.563 251 108.604C251.041 108.685 251.082 108.808 251.163 108.889L256.459 114.185C256.5 114.226 256.581 114.267 256.622 114.307C256.704 114.348 256.744 114.348 256.826 114.348H277.399C277.725 114.348 277.929 114.104 277.929 113.819V105.874C277.969 105.508 277.725 105.263 277.44 105.263ZM254.096 86.3605H273.733V105.304H272.877V87.8271C272.877 87.5419 272.633 87.2568 272.347 87.2568H254.137V86.3605H254.096ZM256.337 112.433L252.915 109.011H256.337V112.433ZM269.007 113.248H262.203V111.7H269.007V113.248ZM269.007 110.559H262.203V109.011H269.007V110.559ZM269.007 102.615H262.203V101.067H269.007V102.615ZM269.007 103.715V105.263H262.203V103.715H269.007ZM269.007 106.363V107.911H262.203V106.363H269.007ZM269.536 105.263H270.107V100.497C270.107 100.171 269.862 99.9266 269.536 99.9266H261.633C261.348 99.9266 261.103 100.171 261.103 100.497V113.207H257.437V108.441C257.437 108.156 257.192 107.911 256.867 107.911H252.1V88.3567H271.736V105.263H270.066V105.834C270.107 105.508 269.862 105.263 269.536 105.263ZM276.869 113.248H270.107V111.7H276.869V113.248ZM276.869 110.559H270.107V109.011H276.869V110.559ZM276.869 107.911H270.107V106.363H276.869V107.911Z" fill="url(#paint26_linear_3_84)"/>
<path d="M266.848 97.9711C264.485 97.9711 262.57 96.0564 262.57 93.6935C262.57 91.3307 264.485 89.4159 266.848 89.4159C269.211 89.4159 271.125 91.3307 271.125 93.6935C271.125 96.0564 269.211 97.9711 266.848 97.9711ZM266.848 90.5566C265.096 90.5566 263.67 91.9825 263.67 93.7343C263.67 95.486 265.096 96.9119 266.848 96.9119C268.599 96.9119 270.025 95.486 270.025 93.7343C270.025 91.9825 268.599 90.5566 266.848 90.5566Z" fill="url(#paint27_linear_3_84)"/>
<path d="M267.866 96.1786H265.87C265.585 96.1786 265.3 95.9342 265.3 95.6082V95.2009C265.3 94.9157 265.544 94.6305 265.87 94.6305C266.114 94.6305 266.318 94.7935 266.4 95.0379H267.337V94.2639H265.87C265.585 94.2639 265.3 94.0194 265.3 93.6935V91.8195C265.3 91.5343 265.544 91.2492 265.87 91.2492H267.866C268.151 91.2492 268.436 91.4936 268.436 91.8195V92.1862C268.436 92.4713 268.192 92.7565 267.866 92.7565C267.622 92.7565 267.418 92.5936 267.337 92.3899H266.4V93.1639H267.866C268.151 93.1639 268.436 93.4083 268.436 93.7343V95.6082C268.396 95.9342 268.151 96.1786 267.866 96.1786Z" fill="url(#paint28_linear_3_84)"/>
<path d="M269.536 105.263C269.822 105.263 270.107 105.508 270.107 105.834V105.263H269.536Z" fill="url(#paint29_linear_3_84)"/>
<path d="M269.536 105.263C269.822 105.263 270.107 105.508 270.107 105.834V105.263H269.536Z" fill="url(#paint30_linear_3_84)"/>
<path d="M277.969 113.778C277.969 114.104 277.766 114.307 277.562 114.307H277.44C277.725 114.348 277.969 114.104 277.969 113.778Z" fill="url(#paint31_linear_3_84)"/>
<path d="M247.935 4.155V5.76H243.128V8.97H247.185V10.5825H243.128V15H241.095V4.155H247.935ZM251.385 7.305V15H249.533V7.305H251.385ZM251.663 5.0625C251.663 5.2225 251.63 5.3725 251.565 5.5125C251.5 5.6525 251.413 5.775 251.303 5.88C251.198 5.985 251.073 6.07 250.928 6.135C250.783 6.195 250.628 6.225 250.463 6.225C250.303 6.225 250.15 6.195 250.005 6.135C249.865 6.07 249.743 5.985 249.638 5.88C249.533 5.775 249.448 5.6525 249.383 5.5125C249.323 5.3725 249.293 5.2225 249.293 5.0625C249.293 4.8975 249.323 4.7425 249.383 4.5975C249.448 4.4525 249.533 4.3275 249.638 4.2225C249.743 4.1175 249.865 4.035 250.005 3.975C250.15 3.91 250.303 3.8775 250.463 3.8775C250.628 3.8775 250.783 3.91 250.928 3.975C251.073 4.035 251.198 4.1175 251.303 4.2225C251.413 4.3275 251.5 4.4525 251.565 4.5975C251.63 4.7425 251.663 4.8975 251.663 5.0625ZM253.485 15V7.305H254.618C254.858 7.305 255.015 7.4175 255.09 7.6425L255.218 8.25C255.373 8.09 255.535 7.945 255.705 7.815C255.88 7.685 256.063 7.5725 256.253 7.4775C256.448 7.3825 256.655 7.31 256.875 7.26C257.095 7.21 257.335 7.185 257.595 7.185C258.015 7.185 258.388 7.2575 258.713 7.4025C259.038 7.5425 259.308 7.7425 259.523 8.0025C259.743 8.2575 259.908 8.565 260.018 8.925C260.133 9.28 260.19 9.6725 260.19 10.1025V15H258.338V10.1025C258.338 9.6325 258.228 9.27 258.008 9.015C257.793 8.755 257.468 8.625 257.033 8.625C256.713 8.625 256.413 8.6975 256.133 8.8425C255.853 8.9875 255.588 9.185 255.338 9.435V15H253.485ZM268.041 15H267.208C267.033 15 266.896 14.975 266.796 14.925C266.696 14.87 266.621 14.7625 266.571 14.6025L266.406 14.055C266.211 14.23 266.018 14.385 265.828 14.52C265.643 14.65 265.451 14.76 265.251 14.85C265.051 14.94 264.838 15.0075 264.613 15.0525C264.388 15.0975 264.138 15.12 263.863 15.12C263.538 15.12 263.238 15.0775 262.963 14.9925C262.688 14.9025 262.451 14.77 262.251 14.595C262.056 14.42 261.903 14.2025 261.793 13.9425C261.683 13.6825 261.628 13.38 261.628 13.035C261.628 12.745 261.703 12.46 261.853 12.18C262.008 11.895 262.263 11.64 262.618 11.415C262.973 11.185 263.446 10.995 264.036 10.845C264.626 10.695 265.358 10.61 266.233 10.59V10.14C266.233 9.625 266.123 9.245 265.903 9C265.688 8.75 265.373 8.625 264.958 8.625C264.658 8.625 264.408 8.66 264.208 8.73C264.008 8.8 263.833 8.88 263.683 8.97C263.538 9.055 263.403 9.1325 263.278 9.2025C263.153 9.2725 263.016 9.3075 262.866 9.3075C262.741 9.3075 262.633 9.275 262.543 9.21C262.453 9.145 262.381 9.065 262.326 8.97L261.988 8.3775C262.873 7.5675 263.941 7.1625 265.191 7.1625C265.641 7.1625 266.041 7.2375 266.391 7.3875C266.746 7.5325 267.046 7.7375 267.291 8.0025C267.536 8.2625 267.721 8.575 267.846 8.94C267.976 9.305 268.041 9.705 268.041 10.14V15ZM264.441 13.845C264.631 13.845 264.806 13.8275 264.966 13.7925C265.126 13.7575 265.276 13.705 265.416 13.635C265.561 13.565 265.698 13.48 265.828 13.38C265.963 13.275 266.098 13.1525 266.233 13.0125V11.715C265.693 11.74 265.241 11.7875 264.876 11.8575C264.516 11.9225 264.226 12.0075 264.006 12.1125C263.786 12.2175 263.628 12.34 263.533 12.48C263.443 12.62 263.398 12.7725 263.398 12.9375C263.398 13.2625 263.493 13.495 263.683 13.635C263.878 13.775 264.131 13.845 264.441 13.845ZM269.862 15V7.305H270.995C271.235 7.305 271.392 7.4175 271.467 7.6425L271.595 8.25C271.75 8.09 271.912 7.945 272.082 7.815C272.257 7.685 272.44 7.5725 272.63 7.4775C272.825 7.3825 273.032 7.31 273.252 7.26C273.472 7.21 273.712 7.185 273.972 7.185C274.392 7.185 274.765 7.2575 275.09 7.4025C275.415 7.5425 275.685 7.7425 275.9 8.0025C276.12 8.2575 276.285 8.565 276.395 8.925C276.51 9.28 276.567 9.6725 276.567 10.1025V15H274.715V10.1025C274.715 9.6325 274.605 9.27 274.385 9.015C274.17 8.755 273.845 8.625 273.41 8.625C273.09 8.625 272.79 8.6975 272.51 8.8425C272.23 8.9875 271.965 9.185 271.715 9.435V15H269.862ZM283.795 8.9325C283.74 9.0025 283.685 9.0575 283.63 9.0975C283.58 9.1375 283.505 9.1575 283.405 9.1575C283.31 9.1575 283.217 9.13 283.127 9.075C283.037 9.015 282.93 8.95 282.805 8.88C282.68 8.805 282.53 8.74 282.355 8.685C282.185 8.625 281.972 8.595 281.717 8.595C281.392 8.595 281.107 8.655 280.862 8.775C280.617 8.89 280.412 9.0575 280.247 9.2775C280.087 9.4975 279.967 9.765 279.887 10.08C279.807 10.39 279.767 10.7425 279.767 11.1375C279.767 11.5475 279.81 11.9125 279.895 12.2325C279.985 12.5525 280.112 12.8225 280.277 13.0425C280.442 13.2575 280.642 13.4225 280.877 13.5375C281.112 13.6475 281.377 13.7025 281.672 13.7025C281.967 13.7025 282.205 13.6675 282.385 13.5975C282.57 13.5225 282.725 13.4425 282.85 13.3575C282.975 13.2675 283.082 13.1875 283.172 13.1175C283.267 13.0425 283.372 13.005 283.487 13.005C283.637 13.005 283.75 13.0625 283.825 13.1775L284.357 13.8525C284.152 14.0925 283.93 14.295 283.69 14.46C283.45 14.62 283.2 14.75 282.94 14.85C282.685 14.945 282.42 15.0125 282.145 15.0525C281.87 15.0925 281.597 15.1125 281.327 15.1125C280.852 15.1125 280.405 15.025 279.985 14.85C279.565 14.67 279.197 14.41 278.882 14.07C278.572 13.73 278.325 13.315 278.14 12.825C277.96 12.33 277.87 11.7675 277.87 11.1375C277.87 10.5725 277.95 10.05 278.11 9.57C278.275 9.085 278.515 8.6675 278.83 8.3175C279.145 7.9625 279.535 7.685 280 7.485C280.465 7.285 281 7.185 281.605 7.185C282.18 7.185 282.682 7.2775 283.112 7.4625C283.547 7.6475 283.937 7.9125 284.282 8.2575L283.795 8.9325ZM288.716 7.185C289.201 7.185 289.646 7.2625 290.051 7.4175C290.461 7.5725 290.813 7.8 291.108 8.1C291.403 8.395 291.633 8.76 291.798 9.195C291.963 9.625 292.046 10.1175 292.046 10.6725C292.046 10.8125 292.038 10.93 292.023 11.025C292.013 11.115 291.991 11.1875 291.956 11.2425C291.926 11.2925 291.883 11.33 291.828 11.355C291.773 11.375 291.703 11.385 291.618 11.385H286.863C286.918 12.175 287.131 12.755 287.501 13.125C287.871 13.495 288.361 13.68 288.971 13.68C289.271 13.68 289.528 13.645 289.743 13.575C289.963 13.505 290.153 13.4275 290.313 13.3425C290.478 13.2575 290.621 13.18 290.741 13.11C290.866 13.04 290.986 13.005 291.101 13.005C291.176 13.005 291.241 13.02 291.296 13.05C291.351 13.08 291.398 13.1225 291.438 13.1775L291.978 13.8525C291.773 14.0925 291.543 14.295 291.288 14.46C291.033 14.62 290.766 14.75 290.486 14.85C290.211 14.945 289.928 15.0125 289.638 15.0525C289.353 15.0925 289.076 15.1125 288.806 15.1125C288.271 15.1125 287.773 15.025 287.313 14.85C286.853 14.67 286.453 14.4075 286.113 14.0625C285.773 13.7125 285.506 13.2825 285.311 12.7725C285.116 12.2575 285.018 11.6625 285.018 10.9875C285.018 10.4625 285.103 9.97 285.273 9.51C285.443 9.045 285.686 8.6425 286.001 8.3025C286.321 7.9575 286.708 7.685 287.163 7.485C287.623 7.285 288.141 7.185 288.716 7.185ZM288.753 8.5125C288.213 8.5125 287.791 8.665 287.486 8.97C287.181 9.275 286.986 9.7075 286.901 10.2675H290.381C290.381 10.0275 290.348 9.8025 290.283 9.5925C290.218 9.3775 290.118 9.19 289.983 9.03C289.848 8.87 289.678 8.745 289.473 8.655C289.268 8.56 289.028 8.5125 288.753 8.5125Z" fill="#304C64"/>
<path d="M6.9075 193.127C6.8525 193.237 6.7875 193.315 6.7125 193.36C6.6425 193.405 6.5575 193.427 6.4575 193.427C6.3575 193.427 6.245 193.39 6.12 193.315C5.995 193.235 5.8475 193.147 5.6775 193.052C5.5075 192.957 5.3075 192.872 5.0775 192.797C4.8525 192.717 4.585 192.677 4.275 192.677C3.995 192.677 3.75 192.712 3.54 192.782C3.335 192.847 3.16 192.94 3.015 193.06C2.875 193.18 2.77 193.325 2.7 193.495C2.63 193.66 2.595 193.842 2.595 194.042C2.595 194.297 2.665 194.51 2.805 194.68C2.95 194.85 3.14 194.995 3.375 195.115C3.61 195.235 3.8775 195.342 4.1775 195.437C4.4775 195.532 4.7825 195.635 5.0925 195.745C5.4075 195.85 5.715 195.975 6.015 196.12C6.315 196.26 6.5825 196.44 6.8175 196.66C7.0525 196.875 7.24 197.14 7.38 197.455C7.525 197.77 7.5975 198.152 7.5975 198.602C7.5975 199.092 7.5125 199.552 7.3425 199.982C7.1775 200.407 6.9325 200.78 6.6075 201.1C6.2875 201.415 5.895 201.665 5.43 201.85C4.965 202.03 4.4325 202.12 3.8325 202.12C3.4875 202.12 3.1475 202.085 2.8125 202.015C2.4775 201.95 2.155 201.855 1.845 201.73C1.54 201.605 1.2525 201.455 0.9825 201.28C0.7175 201.105 0.48 200.91 0.27 200.695L0.855 199.727C0.91 199.657 0.975 199.6 1.05 199.555C1.13 199.505 1.2175 199.48 1.3125 199.48C1.4375 199.48 1.5725 199.532 1.7175 199.637C1.8625 199.737 2.0325 199.85 2.2275 199.975C2.4275 200.1 2.66 200.215 2.925 200.32C3.195 200.42 3.5175 200.47 3.8925 200.47C4.4675 200.47 4.9125 200.335 5.2275 200.065C5.5425 199.79 5.7 199.397 5.7 198.887C5.7 198.602 5.6275 198.37 5.4825 198.19C5.3425 198.01 5.155 197.86 4.92 197.74C4.685 197.615 4.4175 197.51 4.1175 197.425C3.8175 197.34 3.5125 197.247 3.2025 197.147C2.8925 197.047 2.5875 196.927 2.2875 196.787C1.9875 196.647 1.72 196.465 1.485 196.24C1.25 196.015 1.06 195.735 0.915 195.4C0.775 195.06 0.705 194.642 0.705 194.147C0.705 193.752 0.7825 193.367 0.9375 192.992C1.0975 192.617 1.3275 192.285 1.6275 191.995C1.9325 191.705 2.305 191.472 2.745 191.297C3.185 191.122 3.6875 191.035 4.2525 191.035C4.8925 191.035 5.4825 191.135 6.0225 191.335C6.5625 191.535 7.0225 191.815 7.4025 192.175L6.9075 193.127ZM15.062 202H14.2295C14.0545 202 13.917 201.975 13.817 201.925C13.717 201.87 13.642 201.762 13.592 201.602L13.427 201.055C13.232 201.23 13.0395 201.385 12.8495 201.52C12.6645 201.65 12.472 201.76 12.272 201.85C12.072 201.94 11.8595 202.008 11.6345 202.053C11.4095 202.098 11.1595 202.12 10.8845 202.12C10.5595 202.12 10.2595 202.078 9.98449 201.992C9.70949 201.902 9.47199 201.77 9.27199 201.595C9.07699 201.42 8.92449 201.202 8.81449 200.942C8.70449 200.682 8.64949 200.38 8.64949 200.035C8.64949 199.745 8.72449 199.46 8.87449 199.18C9.02949 198.895 9.28449 198.64 9.63949 198.415C9.99449 198.185 10.467 197.995 11.057 197.845C11.647 197.695 12.3795 197.61 13.2545 197.59V197.14C13.2545 196.625 13.1445 196.245 12.9245 196C12.7095 195.75 12.3945 195.625 11.9795 195.625C11.6795 195.625 11.4295 195.66 11.2295 195.73C11.0295 195.8 10.8545 195.88 10.7045 195.97C10.5595 196.055 10.4245 196.132 10.2995 196.202C10.1745 196.272 10.037 196.307 9.88699 196.307C9.76199 196.307 9.65449 196.275 9.56449 196.21C9.47449 196.145 9.40199 196.065 9.34699 195.97L9.00949 195.377C9.89449 194.567 10.962 194.162 12.212 194.162C12.662 194.162 13.062 194.237 13.412 194.387C13.767 194.532 14.067 194.737 14.312 195.002C14.557 195.262 14.742 195.575 14.867 195.94C14.997 196.305 15.062 196.705 15.062 197.14V202ZM11.462 200.845C11.652 200.845 11.827 200.827 11.987 200.792C12.147 200.757 12.297 200.705 12.437 200.635C12.582 200.565 12.7195 200.48 12.8495 200.38C12.9845 200.275 13.1195 200.152 13.2545 200.012V198.715C12.7145 198.74 12.262 198.787 11.897 198.857C11.537 198.922 11.247 199.007 11.027 199.112C10.807 199.217 10.6495 199.34 10.5545 199.48C10.4645 199.62 10.4195 199.772 10.4195 199.937C10.4195 200.262 10.5145 200.495 10.7045 200.635C10.8995 200.775 11.152 200.845 11.462 200.845ZM18.8561 190.855V202H17.0036V190.855H18.8561ZM24.1358 194.185C24.6208 194.185 25.0658 194.262 25.4708 194.417C25.8808 194.572 26.2333 194.8 26.5283 195.1C26.8233 195.395 27.0533 195.76 27.2183 196.195C27.3833 196.625 27.4658 197.117 27.4658 197.672C27.4658 197.812 27.4583 197.93 27.4433 198.025C27.4333 198.115 27.4108 198.187 27.3758 198.242C27.3458 198.292 27.3033 198.33 27.2483 198.355C27.1933 198.375 27.1233 198.385 27.0383 198.385H22.2833C22.3383 199.175 22.5508 199.755 22.9208 200.125C23.2908 200.495 23.7808 200.68 24.3908 200.68C24.6908 200.68 24.9483 200.645 25.1633 200.575C25.3833 200.505 25.5733 200.427 25.7333 200.342C25.8983 200.257 26.0408 200.18 26.1608 200.11C26.2858 200.04 26.4058 200.005 26.5208 200.005C26.5958 200.005 26.6608 200.02 26.7158 200.05C26.7708 200.08 26.8183 200.122 26.8583 200.177L27.3983 200.852C27.1933 201.092 26.9633 201.295 26.7083 201.46C26.4533 201.62 26.1858 201.75 25.9058 201.85C25.6308 201.945 25.3483 202.013 25.0583 202.053C24.7733 202.093 24.4958 202.113 24.2258 202.113C23.6908 202.113 23.1933 202.025 22.7333 201.85C22.2733 201.67 21.8733 201.407 21.5333 201.062C21.1933 200.712 20.9258 200.282 20.7308 199.772C20.5358 199.257 20.4383 198.662 20.4383 197.987C20.4383 197.462 20.5233 196.97 20.6933 196.51C20.8633 196.045 21.1058 195.642 21.4208 195.302C21.7408 194.957 22.1283 194.685 22.5833 194.485C23.0433 194.285 23.5608 194.185 24.1358 194.185ZM24.1733 195.512C23.6333 195.512 23.2108 195.665 22.9058 195.97C22.6008 196.275 22.4058 196.707 22.3208 197.267H25.8008C25.8008 197.027 25.7683 196.802 25.7033 196.592C25.6383 196.377 25.5383 196.19 25.4033 196.03C25.2683 195.87 25.0983 195.745 24.8933 195.655C24.6883 195.56 24.4483 195.512 24.1733 195.512ZM33.536 195.805C33.486 195.885 33.4335 195.942 33.3785 195.977C33.3235 196.007 33.2535 196.022 33.1685 196.022C33.0785 196.022 32.981 195.997 32.876 195.947C32.776 195.897 32.6585 195.842 32.5235 195.782C32.3885 195.717 32.2335 195.66 32.0585 195.61C31.8885 195.56 31.686 195.535 31.451 195.535C31.086 195.535 30.7985 195.612 30.5885 195.767C30.3785 195.922 30.2735 196.125 30.2735 196.375C30.2735 196.54 30.326 196.68 30.431 196.795C30.541 196.905 30.6835 197.002 30.8585 197.087C31.0385 197.172 31.241 197.25 31.466 197.32C31.691 197.385 31.921 197.457 32.156 197.537C32.391 197.617 32.621 197.71 32.846 197.815C33.071 197.915 33.271 198.045 33.446 198.205C33.626 198.36 33.7685 198.547 33.8735 198.767C33.9835 198.987 34.0385 199.252 34.0385 199.562C34.0385 199.932 33.971 200.275 33.836 200.59C33.701 200.9 33.5035 201.17 33.2435 201.4C32.9835 201.625 32.661 201.802 32.276 201.932C31.896 202.058 31.4585 202.12 30.9635 202.12C30.6985 202.12 30.4385 202.095 30.1835 202.045C29.9335 202 29.691 201.935 29.456 201.85C29.226 201.765 29.011 201.665 28.811 201.55C28.616 201.435 28.4435 201.31 28.2935 201.175L28.721 200.47C28.776 200.385 28.841 200.32 28.916 200.275C28.991 200.23 29.086 200.207 29.201 200.207C29.316 200.207 29.4235 200.24 29.5235 200.305C29.6285 200.37 29.7485 200.44 29.8835 200.515C30.0185 200.59 30.176 200.66 30.356 200.725C30.541 200.79 30.7735 200.822 31.0535 200.822C31.2735 200.822 31.461 200.797 31.616 200.747C31.776 200.692 31.906 200.622 32.006 200.537C32.111 200.452 32.186 200.355 32.231 200.245C32.281 200.13 32.306 200.012 32.306 199.892C32.306 199.712 32.251 199.565 32.141 199.45C32.036 199.335 31.8935 199.235 31.7135 199.15C31.5385 199.065 31.336 198.99 31.106 198.925C30.881 198.855 30.6485 198.78 30.4085 198.7C30.1735 198.62 29.941 198.527 29.711 198.422C29.486 198.312 29.2835 198.175 29.1035 198.01C28.9285 197.845 28.786 197.642 28.676 197.402C28.571 197.162 28.5185 196.872 28.5185 196.532C28.5185 196.217 28.581 195.917 28.706 195.632C28.831 195.347 29.0135 195.1 29.2535 194.89C29.4985 194.675 29.801 194.505 30.161 194.38C30.526 194.25 30.946 194.185 31.421 194.185C31.951 194.185 32.4335 194.272 32.8685 194.447C33.3035 194.622 33.666 194.852 33.956 195.137L33.536 195.805Z" fill="#304C64"/>
<path d="M100.54 464.5C100.625 464.66 100.703 464.827 100.773 465.002C100.848 465.172 100.92 465.345 100.99 465.52C101.06 465.34 101.133 465.162 101.208 464.987C101.283 464.812 101.363 464.645 101.448 464.485L104.658 458.477C104.698 458.402 104.738 458.342 104.778 458.297C104.823 458.252 104.87 458.22 104.92 458.2C104.975 458.18 105.035 458.167 105.1 458.162C105.165 458.157 105.243 458.155 105.333 458.155H106.855V469H105.078V461.995C105.078 461.865 105.08 461.722 105.085 461.567C105.095 461.412 105.108 461.255 105.123 461.095L101.845 467.245C101.77 467.385 101.673 467.495 101.553 467.575C101.433 467.65 101.293 467.687 101.133 467.687H100.855C100.695 467.687 100.555 467.65 100.435 467.575C100.315 467.495 100.218 467.385 100.143 467.245L96.82 461.072C96.84 461.237 96.8525 461.4 96.8575 461.56C96.8675 461.715 96.8725 461.86 96.8725 461.995V469H95.095V458.155H96.6175C96.7075 458.155 96.785 458.157 96.85 458.162C96.915 458.167 96.9725 458.18 97.0225 458.2C97.0775 458.22 97.1275 458.252 97.1725 458.297C97.2175 458.342 97.26 458.402 97.3 458.477L100.54 464.5ZM114.965 469H114.133C113.958 469 113.82 468.975 113.72 468.925C113.62 468.87 113.545 468.762 113.495 468.602L113.33 468.055C113.135 468.23 112.943 468.385 112.753 468.52C112.568 468.65 112.375 468.76 112.175 468.85C111.975 468.94 111.763 469.008 111.538 469.053C111.313 469.098 111.063 469.12 110.788 469.12C110.463 469.12 110.163 469.078 109.888 468.992C109.613 468.902 109.375 468.77 109.175 468.595C108.98 468.42 108.828 468.202 108.718 467.942C108.608 467.682 108.553 467.38 108.553 467.035C108.553 466.745 108.628 466.46 108.778 466.18C108.933 465.895 109.188 465.64 109.543 465.415C109.898 465.185 110.37 464.995 110.96 464.845C111.55 464.695 112.283 464.61 113.158 464.59V464.14C113.158 463.625 113.048 463.245 112.828 463C112.613 462.75 112.298 462.625 111.883 462.625C111.583 462.625 111.333 462.66 111.133 462.73C110.933 462.8 110.758 462.88 110.608 462.97C110.463 463.055 110.328 463.132 110.203 463.202C110.078 463.272 109.94 463.307 109.79 463.307C109.665 463.307 109.558 463.275 109.468 463.21C109.378 463.145 109.305 463.065 109.25 462.97L108.913 462.377C109.798 461.567 110.865 461.162 112.115 461.162C112.565 461.162 112.965 461.237 113.315 461.387C113.67 461.532 113.97 461.737 114.215 462.002C114.46 462.262 114.645 462.575 114.77 462.94C114.9 463.305 114.965 463.705 114.965 464.14V469ZM111.365 467.845C111.555 467.845 111.73 467.827 111.89 467.792C112.05 467.757 112.2 467.705 112.34 467.635C112.485 467.565 112.623 467.48 112.753 467.38C112.888 467.275 113.023 467.152 113.158 467.012V465.715C112.618 465.74 112.165 465.787 111.8 465.857C111.44 465.922 111.15 466.007 110.93 466.112C110.71 466.217 110.553 466.34 110.458 466.48C110.368 466.62 110.323 466.772 110.323 466.937C110.323 467.262 110.418 467.495 110.608 467.635C110.803 467.775 111.055 467.845 111.365 467.845ZM116.787 469V461.305H117.874C118.064 461.305 118.197 461.34 118.272 461.41C118.347 461.48 118.397 461.6 118.422 461.77L118.534 462.7C118.809 462.225 119.132 461.85 119.502 461.575C119.872 461.3 120.287 461.162 120.747 461.162C121.127 461.162 121.442 461.25 121.692 461.425L121.452 462.812C121.437 462.902 121.404 462.967 121.354 463.007C121.304 463.042 121.237 463.06 121.152 463.06C121.077 463.06 120.974 463.042 120.844 463.007C120.714 462.972 120.542 462.955 120.327 462.955C119.942 462.955 119.612 463.062 119.337 463.277C119.062 463.487 118.829 463.797 118.639 464.207V469H116.787ZM124.785 457.855V464.237H125.13C125.255 464.237 125.352 464.22 125.422 464.185C125.492 464.15 125.567 464.085 125.647 463.99L127.56 461.627C127.645 461.527 127.735 461.45 127.83 461.395C127.925 461.335 128.05 461.305 128.205 461.305H129.9L127.507 464.162C127.422 464.267 127.335 464.365 127.245 464.455C127.155 464.54 127.057 464.615 126.952 464.68C127.057 464.755 127.15 464.842 127.23 464.942C127.31 465.042 127.39 465.15 127.47 465.265L130.035 469H128.362C128.217 469 128.095 468.975 127.995 468.925C127.895 468.875 127.805 468.79 127.725 468.67L125.767 465.752C125.692 465.637 125.617 465.562 125.542 465.527C125.467 465.492 125.355 465.475 125.205 465.475H124.785V469H122.932V457.855H124.785ZM133.912 461.185C134.397 461.185 134.842 461.262 135.247 461.417C135.657 461.572 136.01 461.8 136.305 462.1C136.6 462.395 136.83 462.76 136.995 463.195C137.16 463.625 137.242 464.117 137.242 464.672C137.242 464.812 137.235 464.93 137.22 465.025C137.21 465.115 137.187 465.187 137.152 465.242C137.122 465.292 137.08 465.33 137.025 465.355C136.97 465.375 136.9 465.385 136.815 465.385H132.06C132.115 466.175 132.327 466.755 132.697 467.125C133.067 467.495 133.557 467.68 134.167 467.68C134.467 467.68 134.725 467.645 134.94 467.575C135.16 467.505 135.35 467.427 135.51 467.342C135.675 467.257 135.817 467.18 135.937 467.11C136.062 467.04 136.182 467.005 136.297 467.005C136.372 467.005 136.437 467.02 136.492 467.05C136.547 467.08 136.595 467.122 136.635 467.177L137.175 467.852C136.97 468.092 136.74 468.295 136.485 468.46C136.23 468.62 135.962 468.75 135.682 468.85C135.407 468.945 135.125 469.013 134.835 469.053C134.55 469.093 134.272 469.113 134.002 469.113C133.467 469.113 132.97 469.025 132.51 468.85C132.05 468.67 131.65 468.407 131.31 468.062C130.97 467.712 130.702 467.282 130.507 466.772C130.312 466.257 130.215 465.662 130.215 464.987C130.215 464.462 130.3 463.97 130.47 463.51C130.64 463.045 130.882 462.642 131.197 462.302C131.517 461.957 131.905 461.685 132.36 461.485C132.82 461.285 133.337 461.185 133.912 461.185ZM133.95 462.512C133.41 462.512 132.987 462.665 132.682 462.97C132.377 463.275 132.182 463.707 132.097 464.267H135.577C135.577 464.027 135.545 463.802 135.48 463.592C135.415 463.377 135.315 463.19 135.18 463.03C135.045 462.87 134.875 462.745 134.67 462.655C134.465 462.56 134.225 462.512 133.95 462.512ZM141.272 469.12C140.607 469.12 140.095 468.932 139.735 468.557C139.375 468.177 139.195 467.655 139.195 466.99V462.692H138.415C138.315 462.692 138.227 462.66 138.152 462.595C138.082 462.53 138.047 462.432 138.047 462.302V461.567L139.285 461.365L139.675 459.265C139.695 459.165 139.74 459.087 139.81 459.032C139.885 458.977 139.977 458.95 140.087 458.95H141.047V461.372H143.072V462.692H141.047V466.862C141.047 467.102 141.107 467.29 141.227 467.425C141.347 467.56 141.507 467.627 141.707 467.627C141.822 467.627 141.917 467.615 141.992 467.59C142.072 467.56 142.14 467.53 142.195 467.5C142.255 467.47 142.307 467.442 142.352 467.417C142.397 467.387 142.442 467.372 142.487 467.372C142.542 467.372 142.587 467.387 142.622 467.417C142.657 467.442 142.695 467.482 142.735 467.537L143.29 468.437C143.02 468.662 142.71 468.832 142.36 468.947C142.01 469.063 141.647 469.12 141.272 469.12ZM146.518 461.305V469H144.666V461.305H146.518ZM146.796 459.062C146.796 459.222 146.763 459.372 146.698 459.512C146.633 459.652 146.546 459.775 146.436 459.88C146.331 459.985 146.206 460.07 146.061 460.135C145.916 460.195 145.761 460.225 145.596 460.225C145.436 460.225 145.283 460.195 145.138 460.135C144.998 460.07 144.876 459.985 144.771 459.88C144.666 459.775 144.581 459.652 144.516 459.512C144.456 459.372 144.426 459.222 144.426 459.062C144.426 458.897 144.456 458.742 144.516 458.597C144.581 458.452 144.666 458.327 144.771 458.222C144.876 458.117 144.998 458.035 145.138 457.975C145.283 457.91 145.436 457.877 145.596 457.877C145.761 457.877 145.916 457.91 146.061 457.975C146.206 458.035 146.331 458.117 146.436 458.222C146.546 458.327 146.633 458.452 146.698 458.597C146.763 458.742 146.796 458.897 146.796 459.062ZM148.618 469V461.305H149.75C149.99 461.305 150.148 461.417 150.223 461.642L150.35 462.25C150.505 462.09 150.668 461.945 150.838 461.815C151.013 461.685 151.195 461.572 151.385 461.477C151.58 461.382 151.788 461.31 152.008 461.26C152.228 461.21 152.468 461.185 152.728 461.185C153.148 461.185 153.52 461.257 153.845 461.402C154.17 461.542 154.44 461.742 154.655 462.002C154.875 462.257 155.04 462.565 155.15 462.925C155.265 463.28 155.323 463.672 155.323 464.102V469H153.47V464.102C153.47 463.632 153.36 463.27 153.14 463.015C152.925 462.755 152.6 462.625 152.165 462.625C151.845 462.625 151.545 462.697 151.265 462.842C150.985 462.987 150.72 463.185 150.47 463.435V469H148.618ZM159.806 461.17C160.136 461.17 160.446 461.205 160.736 461.275C161.026 461.34 161.291 461.437 161.531 461.567H163.743V462.257C163.743 462.372 163.713 462.462 163.653 462.527C163.593 462.592 163.491 462.637 163.346 462.662L162.656 462.79C162.706 462.92 162.743 463.057 162.768 463.202C162.798 463.347 162.813 463.5 162.813 463.66C162.813 464.04 162.736 464.385 162.581 464.695C162.431 465 162.221 465.26 161.951 465.475C161.686 465.69 161.368 465.857 160.998 465.977C160.633 466.092 160.236 466.15 159.806 466.15C159.516 466.15 159.233 466.122 158.958 466.067C158.718 466.212 158.598 466.375 158.598 466.555C158.598 466.71 158.668 466.825 158.808 466.9C158.953 466.97 159.141 467.02 159.371 467.05C159.606 467.08 159.871 467.1 160.166 467.11C160.461 467.115 160.763 467.13 161.073 467.155C161.383 467.18 161.686 467.225 161.981 467.29C162.276 467.35 162.538 467.447 162.768 467.582C163.003 467.717 163.191 467.902 163.331 468.137C163.476 468.367 163.548 468.665 163.548 469.03C163.548 469.37 163.463 469.7 163.293 470.02C163.128 470.34 162.886 470.625 162.566 470.875C162.251 471.125 161.863 471.325 161.403 471.475C160.943 471.63 160.418 471.708 159.828 471.708C159.243 471.708 158.736 471.65 158.306 471.535C157.876 471.425 157.518 471.275 157.233 471.085C156.953 470.9 156.743 470.685 156.603 470.44C156.463 470.195 156.393 469.94 156.393 469.675C156.393 469.315 156.503 469.013 156.723 468.767C156.943 468.522 157.248 468.327 157.638 468.182C157.448 468.077 157.296 467.937 157.181 467.762C157.066 467.587 157.008 467.36 157.008 467.08C157.008 466.965 157.028 466.847 157.068 466.727C157.108 466.602 157.168 466.48 157.248 466.36C157.333 466.24 157.438 466.127 157.563 466.022C157.688 465.912 157.836 465.815 158.006 465.73C157.616 465.52 157.308 465.24 157.083 464.89C156.863 464.54 156.753 464.13 156.753 463.66C156.753 463.28 156.828 462.937 156.978 462.632C157.133 462.322 157.346 462.06 157.616 461.845C157.891 461.625 158.213 461.457 158.583 461.342C158.958 461.227 159.366 461.17 159.806 461.17ZM161.838 469.345C161.838 469.195 161.793 469.073 161.703 468.977C161.613 468.882 161.491 468.81 161.336 468.76C161.181 468.705 160.998 468.665 160.788 468.64C160.583 468.615 160.363 468.597 160.128 468.587C159.898 468.572 159.658 468.56 159.408 468.55C159.163 468.535 158.926 468.512 158.696 468.482C158.486 468.597 158.316 468.735 158.186 468.895C158.061 469.05 157.998 469.23 157.998 469.435C157.998 469.57 158.031 469.695 158.096 469.81C158.166 469.93 158.273 470.033 158.418 470.118C158.568 470.203 158.761 470.268 158.996 470.313C159.231 470.363 159.518 470.388 159.858 470.388C160.203 470.388 160.501 470.36 160.751 470.305C161.001 470.255 161.206 470.183 161.366 470.088C161.531 469.998 161.651 469.888 161.726 469.758C161.801 469.633 161.838 469.495 161.838 469.345ZM159.806 464.965C160.036 464.965 160.236 464.935 160.406 464.875C160.576 464.81 160.716 464.722 160.826 464.612C160.941 464.502 161.026 464.37 161.081 464.215C161.141 464.06 161.171 463.89 161.171 463.705C161.171 463.325 161.056 463.025 160.826 462.805C160.601 462.58 160.261 462.467 159.806 462.467C159.351 462.467 159.008 462.58 158.778 462.805C158.553 463.025 158.441 463.325 158.441 463.705C158.441 463.885 158.468 464.052 158.523 464.207C158.583 464.362 158.668 464.497 158.778 464.612C158.893 464.722 159.036 464.81 159.206 464.875C159.381 464.935 159.581 464.965 159.806 464.965Z" fill="#304C64"/>
<path d="M382.611 471H380.578V466.26H375.493V471H373.461V460.155H375.493V464.82H380.578V460.155H382.611V471ZM386.389 463.305V468.195C386.389 468.665 386.496 469.03 386.711 469.29C386.931 469.545 387.259 469.672 387.694 469.672C388.014 469.672 388.314 469.602 388.594 469.462C388.874 469.317 389.139 469.12 389.389 468.87V463.305H391.241V471H390.109C389.869 471 389.711 470.887 389.636 470.662L389.509 470.047C389.349 470.207 389.184 470.355 389.014 470.49C388.844 470.62 388.661 470.732 388.466 470.827C388.276 470.917 388.069 470.987 387.844 471.038C387.624 471.093 387.386 471.12 387.131 471.12C386.711 471.12 386.339 471.05 386.014 470.91C385.694 470.765 385.424 470.562 385.204 470.302C384.984 470.042 384.816 469.735 384.701 469.38C384.591 469.02 384.536 468.625 384.536 468.195V463.305H386.389ZM393.219 471V463.305H394.352C394.592 463.305 394.749 463.417 394.824 463.642L394.944 464.212C395.079 464.062 395.219 463.925 395.364 463.8C395.514 463.675 395.672 463.567 395.837 463.477C396.007 463.387 396.187 463.317 396.377 463.267C396.572 463.212 396.784 463.185 397.014 463.185C397.499 463.185 397.897 463.317 398.207 463.582C398.522 463.842 398.757 464.19 398.912 464.625C399.032 464.37 399.182 464.152 399.362 463.972C399.542 463.787 399.739 463.637 399.954 463.522C400.169 463.407 400.397 463.322 400.637 463.267C400.882 463.212 401.127 463.185 401.372 463.185C401.797 463.185 402.174 463.25 402.504 463.38C402.834 463.51 403.112 463.7 403.337 463.95C403.562 464.2 403.732 464.505 403.847 464.865C403.967 465.225 404.027 465.637 404.027 466.102V471H402.174V466.102C402.174 465.612 402.067 465.245 401.852 465C401.637 464.75 401.322 464.625 400.907 464.625C400.717 464.625 400.539 464.657 400.374 464.722C400.214 464.787 400.072 464.882 399.947 465.007C399.827 465.127 399.732 465.28 399.662 465.465C399.592 465.65 399.557 465.862 399.557 466.102V471H397.697V466.102C397.697 465.587 397.592 465.212 397.382 464.977C397.177 464.742 396.872 464.625 396.467 464.625C396.202 464.625 395.952 464.692 395.717 464.827C395.487 464.957 395.272 465.137 395.072 465.367V471H393.219ZM411.876 471H411.044C410.869 471 410.731 470.975 410.631 470.925C410.531 470.87 410.456 470.762 410.406 470.602L410.241 470.055C410.046 470.23 409.854 470.385 409.664 470.52C409.479 470.65 409.286 470.76 409.086 470.85C408.886 470.94 408.674 471.008 408.449 471.053C408.224 471.098 407.974 471.12 407.699 471.12C407.374 471.12 407.074 471.078 406.799 470.992C406.524 470.902 406.286 470.77 406.086 470.595C405.891 470.42 405.739 470.202 405.629 469.942C405.519 469.682 405.464 469.38 405.464 469.035C405.464 468.745 405.539 468.46 405.689 468.18C405.844 467.895 406.099 467.64 406.454 467.415C406.809 467.185 407.281 466.995 407.871 466.845C408.461 466.695 409.194 466.61 410.069 466.59V466.14C410.069 465.625 409.959 465.245 409.739 465C409.524 464.75 409.209 464.625 408.794 464.625C408.494 464.625 408.244 464.66 408.044 464.73C407.844 464.8 407.669 464.88 407.519 464.97C407.374 465.055 407.239 465.132 407.114 465.202C406.989 465.272 406.851 465.307 406.701 465.307C406.576 465.307 406.469 465.275 406.379 465.21C406.289 465.145 406.216 465.065 406.161 464.97L405.824 464.377C406.709 463.567 407.776 463.162 409.026 463.162C409.476 463.162 409.876 463.237 410.226 463.387C410.581 463.532 410.881 463.737 411.126 464.002C411.371 464.262 411.556 464.575 411.681 464.94C411.811 465.305 411.876 465.705 411.876 466.14V471ZM408.276 469.845C408.466 469.845 408.641 469.827 408.801 469.792C408.961 469.757 409.111 469.705 409.251 469.635C409.396 469.565 409.534 469.48 409.664 469.38C409.799 469.275 409.934 469.152 410.069 469.012V467.715C409.529 467.74 409.076 467.787 408.711 467.857C408.351 467.922 408.061 468.007 407.841 468.112C407.621 468.217 407.464 468.34 407.369 468.48C407.279 468.62 407.234 468.772 407.234 468.937C407.234 469.262 407.329 469.495 407.519 469.635C407.714 469.775 407.966 469.845 408.276 469.845ZM413.698 471V463.305H414.83C415.07 463.305 415.228 463.417 415.303 463.642L415.43 464.25C415.585 464.09 415.748 463.945 415.918 463.815C416.093 463.685 416.275 463.572 416.465 463.477C416.66 463.382 416.868 463.31 417.088 463.26C417.308 463.21 417.548 463.185 417.808 463.185C418.228 463.185 418.6 463.257 418.925 463.402C419.25 463.542 419.52 463.742 419.735 464.002C419.955 464.257 420.12 464.565 420.23 464.925C420.345 465.28 420.403 465.672 420.403 466.102V471H418.55V466.102C418.55 465.632 418.44 465.27 418.22 465.015C418.005 464.755 417.68 464.625 417.245 464.625C416.925 464.625 416.625 464.697 416.345 464.842C416.065 464.987 415.8 465.185 415.55 465.435V471H413.698ZM368.617 484.763V489H366.6V478.155H369.907C370.647 478.155 371.28 478.232 371.805 478.387C372.335 478.537 372.767 478.75 373.102 479.025C373.442 479.3 373.69 479.63 373.845 480.015C374.005 480.395 374.085 480.815 374.085 481.275C374.085 481.64 374.03 481.985 373.92 482.31C373.815 482.635 373.66 482.93 373.455 483.195C373.255 483.46 373.005 483.692 372.705 483.892C372.41 484.092 372.072 484.252 371.692 484.372C371.947 484.517 372.167 484.725 372.352 484.995L375.067 489H373.252C373.077 489 372.927 488.965 372.802 488.895C372.682 488.825 372.58 488.725 372.495 488.595L370.215 485.122C370.13 484.992 370.035 484.9 369.93 484.845C369.83 484.79 369.68 484.763 369.48 484.763H368.617ZM368.617 483.315H369.877C370.257 483.315 370.587 483.267 370.867 483.172C371.152 483.077 371.385 482.947 371.565 482.782C371.75 482.612 371.887 482.412 371.977 482.182C372.067 481.952 372.112 481.7 372.112 481.425C372.112 480.875 371.93 480.452 371.565 480.157C371.205 479.862 370.652 479.715 369.907 479.715H368.617V483.315ZM379.436 481.185C379.921 481.185 380.366 481.262 380.771 481.417C381.181 481.572 381.534 481.8 381.829 482.1C382.124 482.395 382.354 482.76 382.519 483.195C382.684 483.625 382.766 484.117 382.766 484.672C382.766 484.812 382.759 484.93 382.744 485.025C382.734 485.115 382.711 485.187 382.676 485.242C382.646 485.292 382.604 485.33 382.549 485.355C382.494 485.375 382.424 485.385 382.339 485.385H377.584C377.639 486.175 377.851 486.755 378.221 487.125C378.591 487.495 379.081 487.68 379.691 487.68C379.991 487.68 380.249 487.645 380.464 487.575C380.684 487.505 380.874 487.427 381.034 487.342C381.199 487.257 381.341 487.18 381.461 487.11C381.586 487.04 381.706 487.005 381.821 487.005C381.896 487.005 381.961 487.02 382.016 487.05C382.071 487.08 382.119 487.122 382.159 487.177L382.699 487.852C382.494 488.092 382.264 488.295 382.009 488.46C381.754 488.62 381.486 488.75 381.206 488.85C380.931 488.945 380.649 489.013 380.359 489.053C380.074 489.093 379.796 489.113 379.526 489.113C378.991 489.113 378.494 489.025 378.034 488.85C377.574 488.67 377.174 488.407 376.834 488.062C376.494 487.712 376.226 487.282 376.031 486.772C375.836 486.257 375.739 485.662 375.739 484.987C375.739 484.462 375.824 483.97 375.994 483.51C376.164 483.045 376.406 482.642 376.721 482.302C377.041 481.957 377.429 481.685 377.884 481.485C378.344 481.285 378.861 481.185 379.436 481.185ZM379.474 482.512C378.934 482.512 378.511 482.665 378.206 482.97C377.901 483.275 377.706 483.707 377.621 484.267H381.101C381.101 484.027 381.069 483.802 381.004 483.592C380.939 483.377 380.839 483.19 380.704 483.03C380.569 482.87 380.399 482.745 380.194 482.655C379.989 482.56 379.749 482.512 379.474 482.512ZM388.836 482.805C388.786 482.885 388.734 482.942 388.679 482.977C388.624 483.007 388.554 483.022 388.469 483.022C388.379 483.022 388.281 482.997 388.176 482.947C388.076 482.897 387.959 482.842 387.824 482.782C387.689 482.717 387.534 482.66 387.359 482.61C387.189 482.56 386.986 482.535 386.751 482.535C386.386 482.535 386.099 482.612 385.889 482.767C385.679 482.922 385.574 483.125 385.574 483.375C385.574 483.54 385.626 483.68 385.731 483.795C385.841 483.905 385.984 484.002 386.159 484.087C386.339 484.172 386.541 484.25 386.766 484.32C386.991 484.385 387.221 484.457 387.456 484.537C387.691 484.617 387.921 484.71 388.146 484.815C388.371 484.915 388.571 485.045 388.746 485.205C388.926 485.36 389.069 485.547 389.174 485.767C389.284 485.987 389.339 486.252 389.339 486.562C389.339 486.932 389.271 487.275 389.136 487.59C389.001 487.9 388.804 488.17 388.544 488.4C388.284 488.625 387.961 488.802 387.576 488.932C387.196 489.058 386.759 489.12 386.264 489.12C385.999 489.12 385.739 489.095 385.484 489.045C385.234 489 384.991 488.935 384.756 488.85C384.526 488.765 384.311 488.665 384.111 488.55C383.916 488.435 383.744 488.31 383.594 488.175L384.021 487.47C384.076 487.385 384.141 487.32 384.216 487.275C384.291 487.23 384.386 487.207 384.501 487.207C384.616 487.207 384.724 487.24 384.824 487.305C384.929 487.37 385.049 487.44 385.184 487.515C385.319 487.59 385.476 487.66 385.656 487.725C385.841 487.79 386.074 487.822 386.354 487.822C386.574 487.822 386.761 487.797 386.916 487.747C387.076 487.692 387.206 487.622 387.306 487.537C387.411 487.452 387.486 487.355 387.531 487.245C387.581 487.13 387.606 487.012 387.606 486.892C387.606 486.712 387.551 486.565 387.441 486.45C387.336 486.335 387.194 486.235 387.014 486.15C386.839 486.065 386.636 485.99 386.406 485.925C386.181 485.855 385.949 485.78 385.709 485.7C385.474 485.62 385.241 485.527 385.011 485.422C384.786 485.312 384.584 485.175 384.404 485.01C384.229 484.845 384.086 484.642 383.976 484.402C383.871 484.162 383.819 483.872 383.819 483.532C383.819 483.217 383.881 482.917 384.006 482.632C384.131 482.347 384.314 482.1 384.554 481.89C384.799 481.675 385.101 481.505 385.461 481.38C385.826 481.25 386.246 481.185 386.721 481.185C387.251 481.185 387.734 481.272 388.169 481.447C388.604 481.622 388.966 481.852 389.256 482.137L388.836 482.805ZM394.102 481.185C394.677 481.185 395.197 481.277 395.662 481.463C396.132 481.647 396.532 481.91 396.862 482.25C397.192 482.59 397.447 483.005 397.627 483.495C397.807 483.985 397.897 484.532 397.897 485.137C397.897 485.747 397.807 486.297 397.627 486.787C397.447 487.277 397.192 487.695 396.862 488.04C396.532 488.385 396.132 488.65 395.662 488.835C395.197 489.02 394.677 489.113 394.102 489.113C393.527 489.113 393.004 489.02 392.534 488.835C392.064 488.65 391.662 488.385 391.327 488.04C390.997 487.695 390.739 487.277 390.554 486.787C390.374 486.297 390.284 485.747 390.284 485.137C390.284 484.532 390.374 483.985 390.554 483.495C390.739 483.005 390.997 482.59 391.327 482.25C391.662 481.91 392.064 481.647 392.534 481.463C393.004 481.277 393.527 481.185 394.102 481.185ZM394.102 487.687C394.742 487.687 395.214 487.472 395.519 487.042C395.829 486.612 395.984 485.982 395.984 485.152C395.984 484.322 395.829 483.69 395.519 483.255C395.214 482.82 394.742 482.602 394.102 482.602C393.452 482.602 392.972 482.822 392.662 483.262C392.352 483.697 392.197 484.327 392.197 485.152C392.197 485.977 392.352 486.607 392.662 487.042C392.972 487.472 393.452 487.687 394.102 487.687ZM401.037 481.305V486.195C401.037 486.665 401.145 487.03 401.36 487.29C401.58 487.545 401.907 487.672 402.342 487.672C402.662 487.672 402.962 487.602 403.242 487.462C403.522 487.317 403.787 487.12 404.037 486.87V481.305H405.89V489H404.757C404.517 489 404.36 488.887 404.285 488.662L404.157 488.047C403.997 488.207 403.832 488.355 403.662 488.49C403.492 488.62 403.31 488.732 403.115 488.827C402.925 488.917 402.717 488.987 402.492 489.038C402.272 489.093 402.035 489.12 401.78 489.12C401.36 489.12 400.987 489.05 400.662 488.91C400.342 488.765 400.072 488.562 399.852 488.302C399.632 488.042 399.465 487.735 399.35 487.38C399.24 487.02 399.185 486.625 399.185 486.195V481.305H401.037ZM407.867 489V481.305H408.955C409.145 481.305 409.277 481.34 409.352 481.41C409.427 481.48 409.477 481.6 409.502 481.77L409.615 482.7C409.89 482.225 410.212 481.85 410.582 481.575C410.952 481.3 411.367 481.162 411.827 481.162C412.207 481.162 412.522 481.25 412.772 481.425L412.532 482.812C412.517 482.902 412.485 482.967 412.435 483.007C412.385 483.042 412.317 483.06 412.232 483.06C412.157 483.06 412.055 483.042 411.925 483.007C411.795 482.972 411.622 482.955 411.407 482.955C411.022 482.955 410.692 483.062 410.417 483.277C410.142 483.487 409.91 483.797 409.72 484.207V489H407.867ZM419.398 482.932C419.343 483.002 419.288 483.057 419.233 483.097C419.183 483.137 419.108 483.157 419.008 483.157C418.913 483.157 418.821 483.13 418.731 483.075C418.641 483.015 418.533 482.95 418.408 482.88C418.283 482.805 418.133 482.74 417.958 482.685C417.788 482.625 417.576 482.595 417.321 482.595C416.996 482.595 416.711 482.655 416.466 482.775C416.221 482.89 416.016 483.057 415.851 483.277C415.691 483.497 415.571 483.765 415.491 484.08C415.411 484.39 415.371 484.742 415.371 485.137C415.371 485.547 415.413 485.912 415.498 486.232C415.588 486.552 415.716 486.822 415.881 487.042C416.046 487.257 416.246 487.422 416.481 487.537C416.716 487.647 416.981 487.702 417.276 487.702C417.571 487.702 417.808 487.667 417.988 487.597C418.173 487.522 418.328 487.442 418.453 487.357C418.578 487.267 418.686 487.187 418.776 487.117C418.871 487.042 418.976 487.005 419.091 487.005C419.241 487.005 419.353 487.062 419.428 487.177L419.961 487.852C419.756 488.092 419.533 488.295 419.293 488.46C419.053 488.62 418.803 488.75 418.543 488.85C418.288 488.945 418.023 489.013 417.748 489.053C417.473 489.093 417.201 489.113 416.931 489.113C416.456 489.113 416.008 489.025 415.588 488.85C415.168 488.67 414.801 488.41 414.486 488.07C414.176 487.73 413.928 487.315 413.743 486.825C413.563 486.33 413.473 485.767 413.473 485.137C413.473 484.572 413.553 484.05 413.713 483.57C413.878 483.085 414.118 482.667 414.433 482.317C414.748 481.962 415.138 481.685 415.603 481.485C416.068 481.285 416.603 481.185 417.208 481.185C417.783 481.185 418.286 481.277 418.716 481.463C419.151 481.647 419.541 481.912 419.886 482.257L419.398 482.932ZM424.319 481.185C424.804 481.185 425.249 481.262 425.654 481.417C426.064 481.572 426.416 481.8 426.711 482.1C427.006 482.395 427.236 482.76 427.401 483.195C427.566 483.625 427.649 484.117 427.649 484.672C427.649 484.812 427.641 484.93 427.626 485.025C427.616 485.115 427.594 485.187 427.559 485.242C427.529 485.292 427.486 485.33 427.431 485.355C427.376 485.375 427.306 485.385 427.221 485.385H422.466C422.521 486.175 422.734 486.755 423.104 487.125C423.474 487.495 423.964 487.68 424.574 487.68C424.874 487.68 425.131 487.645 425.346 487.575C425.566 487.505 425.756 487.427 425.916 487.342C426.081 487.257 426.224 487.18 426.344 487.11C426.469 487.04 426.589 487.005 426.704 487.005C426.779 487.005 426.844 487.02 426.899 487.05C426.954 487.08 427.001 487.122 427.041 487.177L427.581 487.852C427.376 488.092 427.146 488.295 426.891 488.46C426.636 488.62 426.369 488.75 426.089 488.85C425.814 488.945 425.531 489.013 425.241 489.053C424.956 489.093 424.679 489.113 424.409 489.113C423.874 489.113 423.376 489.025 422.916 488.85C422.456 488.67 422.056 488.407 421.716 488.062C421.376 487.712 421.109 487.282 420.914 486.772C420.719 486.257 420.621 485.662 420.621 484.987C420.621 484.462 420.706 483.97 420.876 483.51C421.046 483.045 421.289 482.642 421.604 482.302C421.924 481.957 422.311 481.685 422.766 481.485C423.226 481.285 423.744 481.185 424.319 481.185ZM424.356 482.512C423.816 482.512 423.394 482.665 423.089 482.97C422.784 483.275 422.589 483.707 422.504 484.267H425.984C425.984 484.027 425.951 483.802 425.886 483.592C425.821 483.377 425.721 483.19 425.586 483.03C425.451 482.87 425.281 482.745 425.076 482.655C424.871 482.56 424.631 482.512 424.356 482.512Z" fill="#304C64"/>
<path d="M496.786 183.127C496.731 183.237 496.666 183.315 496.591 183.36C496.521 183.405 496.436 183.427 496.336 183.427C496.236 183.427 496.124 183.39 495.999 183.315C495.874 183.235 495.726 183.147 495.556 183.052C495.386 182.957 495.186 182.872 494.956 182.797C494.731 182.717 494.464 182.677 494.154 182.677C493.874 182.677 493.629 182.712 493.419 182.782C493.214 182.847 493.039 182.94 492.894 183.06C492.754 183.18 492.649 183.325 492.579 183.495C492.509 183.66 492.474 183.842 492.474 184.042C492.474 184.297 492.544 184.51 492.684 184.68C492.829 184.85 493.019 184.995 493.254 185.115C493.489 185.235 493.756 185.342 494.056 185.437C494.356 185.532 494.661 185.635 494.971 185.745C495.286 185.85 495.594 185.975 495.894 186.12C496.194 186.26 496.461 186.44 496.696 186.66C496.931 186.875 497.119 187.14 497.259 187.455C497.404 187.77 497.476 188.152 497.476 188.602C497.476 189.092 497.391 189.552 497.221 189.982C497.056 190.407 496.811 190.78 496.486 191.1C496.166 191.415 495.774 191.665 495.309 191.85C494.844 192.03 494.311 192.12 493.711 192.12C493.366 192.12 493.026 192.085 492.691 192.015C492.356 191.95 492.034 191.855 491.724 191.73C491.419 191.605 491.131 191.455 490.861 191.28C490.596 191.105 490.359 190.91 490.149 190.695L490.734 189.727C490.789 189.657 490.854 189.6 490.929 189.555C491.009 189.505 491.096 189.48 491.191 189.48C491.316 189.48 491.451 189.532 491.596 189.637C491.741 189.737 491.911 189.85 492.106 189.975C492.306 190.1 492.539 190.215 492.804 190.32C493.074 190.42 493.396 190.47 493.771 190.47C494.346 190.47 494.791 190.335 495.106 190.065C495.421 189.79 495.579 189.397 495.579 188.887C495.579 188.602 495.506 188.37 495.361 188.19C495.221 188.01 495.034 187.86 494.799 187.74C494.564 187.615 494.296 187.51 493.996 187.425C493.696 187.34 493.391 187.247 493.081 187.147C492.771 187.047 492.466 186.927 492.166 186.787C491.866 186.647 491.599 186.465 491.364 186.24C491.129 186.015 490.939 185.735 490.794 185.4C490.654 185.06 490.584 184.642 490.584 184.147C490.584 183.752 490.661 183.367 490.816 182.992C490.976 182.617 491.206 182.285 491.506 181.995C491.811 181.705 492.184 181.472 492.624 181.297C493.064 181.122 493.566 181.035 494.131 181.035C494.771 181.035 495.361 181.135 495.901 181.335C496.441 181.535 496.901 181.815 497.281 182.175L496.786 183.127ZM500.606 184.305V189.195C500.606 189.665 500.713 190.03 500.928 190.29C501.148 190.545 501.476 190.672 501.911 190.672C502.231 190.672 502.531 190.602 502.811 190.462C503.091 190.317 503.356 190.12 503.606 189.87V184.305H505.458V192H504.326C504.086 192 503.928 191.887 503.853 191.662L503.726 191.047C503.566 191.207 503.401 191.355 503.231 191.49C503.061 191.62 502.878 191.732 502.683 191.827C502.493 191.917 502.286 191.987 502.061 192.038C501.841 192.093 501.603 192.12 501.348 192.12C500.928 192.12 500.556 192.05 500.231 191.91C499.911 191.765 499.641 191.562 499.421 191.302C499.201 191.042 499.033 190.735 498.918 190.38C498.808 190.02 498.753 189.625 498.753 189.195V184.305H500.606ZM507.436 194.513V184.305H508.568C508.688 184.305 508.791 184.332 508.876 184.387C508.961 184.442 509.016 184.527 509.041 184.642L509.191 185.355C509.501 185 509.856 184.712 510.256 184.492C510.661 184.272 511.133 184.162 511.673 184.162C512.093 184.162 512.476 184.25 512.821 184.425C513.171 184.6 513.471 184.855 513.721 185.19C513.976 185.52 514.171 185.93 514.306 186.42C514.446 186.905 514.516 187.462 514.516 188.092C514.516 188.667 514.438 189.2 514.283 189.69C514.128 190.18 513.906 190.605 513.616 190.965C513.331 191.325 512.983 191.608 512.573 191.812C512.168 192.013 511.713 192.113 511.208 192.113C510.773 192.113 510.403 192.048 510.098 191.917C509.798 191.782 509.528 191.597 509.288 191.362V194.513H507.436ZM511.036 185.625C510.651 185.625 510.321 185.707 510.046 185.872C509.776 186.032 509.523 186.26 509.288 186.555V190.005C509.498 190.265 509.726 190.447 509.971 190.552C510.221 190.652 510.488 190.702 510.773 190.702C511.053 190.702 511.306 190.65 511.531 190.545C511.761 190.44 511.953 190.28 512.108 190.065C512.268 189.85 512.391 189.58 512.476 189.255C512.561 188.925 512.603 188.537 512.603 188.092C512.603 187.642 512.566 187.262 512.491 186.952C512.421 186.637 512.318 186.382 512.183 186.187C512.048 185.992 511.883 185.85 511.688 185.76C511.498 185.67 511.281 185.625 511.036 185.625ZM515.917 194.513V184.305H517.05C517.17 184.305 517.272 184.332 517.357 184.387C517.442 184.442 517.497 184.527 517.522 184.642L517.672 185.355C517.982 185 518.337 184.712 518.737 184.492C519.142 184.272 519.615 184.162 520.155 184.162C520.575 184.162 520.957 184.25 521.302 184.425C521.652 184.6 521.952 184.855 522.202 185.19C522.457 185.52 522.652 185.93 522.787 186.42C522.927 186.905 522.997 187.462 522.997 188.092C522.997 188.667 522.92 189.2 522.765 189.69C522.61 190.18 522.387 190.605 522.097 190.965C521.812 191.325 521.465 191.608 521.055 191.812C520.65 192.013 520.195 192.113 519.69 192.113C519.255 192.113 518.885 192.048 518.58 191.917C518.28 191.782 518.01 191.597 517.77 191.362V194.513H515.917ZM519.517 185.625C519.132 185.625 518.802 185.707 518.527 185.872C518.257 186.032 518.005 186.26 517.77 186.555V190.005C517.98 190.265 518.207 190.447 518.452 190.552C518.702 190.652 518.97 190.702 519.255 190.702C519.535 190.702 519.787 190.65 520.012 190.545C520.242 190.44 520.435 190.28 520.59 190.065C520.75 189.85 520.872 189.58 520.957 189.255C521.042 188.925 521.085 188.537 521.085 188.092C521.085 187.642 521.047 187.262 520.972 186.952C520.902 186.637 520.8 186.382 520.665 186.187C520.53 185.992 520.365 185.85 520.17 185.76C519.98 185.67 519.762 185.625 519.517 185.625ZM526.371 180.855V192H524.519V180.855H526.371ZM531.201 194.115C531.146 194.245 531.074 194.343 530.984 194.408C530.899 194.478 530.766 194.513 530.586 194.513H529.206L530.646 191.43L527.534 184.305H529.154C529.304 184.305 529.419 184.34 529.499 184.41C529.579 184.48 529.639 184.56 529.679 184.65L531.321 188.64C531.376 188.77 531.424 188.905 531.464 189.045C531.504 189.185 531.539 189.325 531.569 189.465C531.609 189.32 531.651 189.18 531.696 189.045C531.746 188.91 531.799 188.772 531.854 188.632L533.399 184.65C533.439 184.55 533.504 184.467 533.594 184.402C533.689 184.337 533.794 184.305 533.909 184.305H535.394L531.201 194.115ZM501.71 207.442C501.82 207.442 501.915 207.485 501.995 207.57L502.79 208.432C502.35 208.977 501.807 209.395 501.162 209.685C500.522 209.975 499.752 210.12 498.852 210.12C498.047 210.12 497.322 209.983 496.677 209.707C496.037 209.432 495.49 209.05 495.035 208.56C494.58 208.07 494.23 207.485 493.985 206.805C493.745 206.125 493.625 205.382 493.625 204.577C493.625 203.762 493.76 203.017 494.03 202.342C494.3 201.662 494.68 201.077 495.17 200.587C495.66 200.097 496.245 199.717 496.925 199.447C497.61 199.172 498.365 199.035 499.19 199.035C499.995 199.035 500.697 199.165 501.297 199.425C501.902 199.68 502.42 200.02 502.85 200.445L502.175 201.382C502.135 201.442 502.082 201.495 502.017 201.54C501.957 201.585 501.872 201.607 501.762 201.607C501.647 201.607 501.53 201.562 501.41 201.472C501.29 201.382 501.137 201.285 500.952 201.18C500.767 201.075 500.532 200.977 500.247 200.887C499.967 200.797 499.61 200.752 499.175 200.752C498.665 200.752 498.195 200.842 497.765 201.022C497.34 201.197 496.972 201.45 496.662 201.78C496.357 202.11 496.117 202.512 495.942 202.987C495.772 203.457 495.687 203.987 495.687 204.577C495.687 205.187 495.772 205.73 495.942 206.205C496.117 206.68 496.352 207.08 496.647 207.405C496.942 207.73 497.29 207.98 497.69 208.155C498.09 208.325 498.52 208.41 498.98 208.41C499.255 208.41 499.502 208.395 499.722 208.365C499.947 208.335 500.152 208.287 500.337 208.222C500.527 208.157 500.705 208.075 500.87 207.975C501.04 207.87 501.207 207.742 501.372 207.592C501.422 207.547 501.475 207.512 501.53 207.487C501.585 207.457 501.645 207.442 501.71 207.442ZM504.213 210V198.855H506.066V203.137C506.366 202.852 506.696 202.622 507.056 202.447C507.416 202.272 507.838 202.185 508.323 202.185C508.743 202.185 509.116 202.257 509.441 202.402C509.766 202.542 510.036 202.742 510.251 203.002C510.471 203.257 510.636 203.565 510.746 203.925C510.861 204.28 510.918 204.672 510.918 205.102V210H509.066V205.102C509.066 204.632 508.956 204.27 508.736 204.015C508.521 203.755 508.196 203.625 507.761 203.625C507.441 203.625 507.141 203.697 506.861 203.842C506.581 203.987 506.316 204.185 506.066 204.435V210H504.213ZM518.769 210H517.936C517.761 210 517.624 209.975 517.524 209.925C517.424 209.87 517.349 209.762 517.299 209.602L517.134 209.055C516.939 209.23 516.746 209.385 516.556 209.52C516.371 209.65 516.179 209.76 515.979 209.85C515.779 209.94 515.566 210.008 515.341 210.053C515.116 210.098 514.866 210.12 514.591 210.12C514.266 210.12 513.966 210.078 513.691 209.992C513.416 209.902 513.179 209.77 512.979 209.595C512.784 209.42 512.631 209.202 512.521 208.942C512.411 208.682 512.356 208.38 512.356 208.035C512.356 207.745 512.431 207.46 512.581 207.18C512.736 206.895 512.991 206.64 513.346 206.415C513.701 206.185 514.174 205.995 514.764 205.845C515.354 205.695 516.086 205.61 516.961 205.59V205.14C516.961 204.625 516.851 204.245 516.631 204C516.416 203.75 516.101 203.625 515.686 203.625C515.386 203.625 515.136 203.66 514.936 203.73C514.736 203.8 514.561 203.88 514.411 203.97C514.266 204.055 514.131 204.132 514.006 204.202C513.881 204.272 513.744 204.307 513.594 204.307C513.469 204.307 513.361 204.275 513.271 204.21C513.181 204.145 513.109 204.065 513.054 203.97L512.716 203.377C513.601 202.567 514.669 202.162 515.919 202.162C516.369 202.162 516.769 202.237 517.119 202.387C517.474 202.532 517.774 202.737 518.019 203.002C518.264 203.262 518.449 203.575 518.574 203.94C518.704 204.305 518.769 204.705 518.769 205.14V210ZM515.169 208.845C515.359 208.845 515.534 208.827 515.694 208.792C515.854 208.757 516.004 208.705 516.144 208.635C516.289 208.565 516.426 208.48 516.556 208.38C516.691 208.275 516.826 208.152 516.961 208.012V206.715C516.421 206.74 515.969 206.787 515.604 206.857C515.244 206.922 514.954 207.007 514.734 207.112C514.514 207.217 514.356 207.34 514.261 207.48C514.171 207.62 514.126 207.772 514.126 207.937C514.126 208.262 514.221 208.495 514.411 208.635C514.606 208.775 514.859 208.845 515.169 208.845ZM522.563 202.305V210H520.71V202.305H522.563ZM522.84 200.062C522.84 200.222 522.808 200.372 522.743 200.512C522.678 200.652 522.59 200.775 522.48 200.88C522.375 200.985 522.25 201.07 522.105 201.135C521.96 201.195 521.805 201.225 521.64 201.225C521.48 201.225 521.328 201.195 521.183 201.135C521.043 201.07 520.92 200.985 520.815 200.88C520.71 200.775 520.625 200.652 520.56 200.512C520.5 200.372 520.47 200.222 520.47 200.062C520.47 199.897 520.5 199.742 520.56 199.597C520.625 199.452 520.71 199.327 520.815 199.222C520.92 199.117 521.043 199.035 521.183 198.975C521.328 198.91 521.48 198.877 521.64 198.877C521.805 198.877 521.96 198.91 522.105 198.975C522.25 199.035 522.375 199.117 522.48 199.222C522.59 199.327 522.678 199.452 522.743 199.597C522.808 199.742 522.84 199.897 522.84 200.062ZM524.663 210V202.305H525.795C526.035 202.305 526.193 202.417 526.268 202.642L526.395 203.25C526.55 203.09 526.713 202.945 526.883 202.815C527.058 202.685 527.24 202.572 527.43 202.477C527.625 202.382 527.833 202.31 528.053 202.26C528.273 202.21 528.513 202.185 528.773 202.185C529.193 202.185 529.565 202.257 529.89 202.402C530.215 202.542 530.485 202.742 530.7 203.002C530.92 203.257 531.085 203.565 531.195 203.925C531.31 204.28 531.368 204.672 531.368 205.102V210H529.515V205.102C529.515 204.632 529.405 204.27 529.185 204.015C528.97 203.755 528.645 203.625 528.21 203.625C527.89 203.625 527.59 203.697 527.31 203.842C527.03 203.987 526.765 204.185 526.515 204.435V210H524.663Z" fill="#304C64"/>
<defs>
<linearGradient id="paint0_linear_3_84" x1="47" y1="244.007" x2="477.436" y2="244.007" gradientUnits="userSpaceOnUse">
<stop stop-color="#FABE3E"/>
<stop offset="0.3618" stop-color="#F63966"/>
<stop offset="1" stop-color="#007AE8"/>
</linearGradient>
<linearGradient id="paint1_linear_3_84" x1="250.598" y1="237.941" x2="276.249" y2="237.941" gradientUnits="userSpaceOnUse">
<stop offset="5.43435e-07" stop-color="#FFBB00"/>
<stop offset="1" stop-color="#0079EF"/>
</linearGradient>
<linearGradient id="paint2_linear_3_84" x1="241.795" y1="249.824" x2="273.123" y2="249.824" gradientUnits="userSpaceOnUse">
<stop offset="3.40978e-07" stop-color="#FF0A63"/>
<stop offset="1" stop-color="#FFBB00"/>
</linearGradient>
<linearGradient id="paint3_linear_3_84" x1="247.881" y1="251.241" x2="282.641" y2="251.241" gradientUnits="userSpaceOnUse">
<stop offset="5.43435e-07" stop-color="#FF0A63"/>
<stop offset="1" stop-color="#0079EF"/>
</linearGradient>
<linearGradient id="paint4_linear_3_84" x1="52.8262" y1="193.226" x2="481.326" y2="193.226" gradientUnits="userSpaceOnUse">
<stop stop-color="#FABE3E"/>
<stop offset="0.3618" stop-color="#F63966"/>
<stop offset="1" stop-color="#007AE8"/>
</linearGradient>
<linearGradient id="paint5_linear_3_84" x1="52.8263" y1="204.955" x2="481.326" y2="204.955" gradientUnits="userSpaceOnUse">
<stop stop-color="#FABE3E"/>
<stop offset="0.3618" stop-color="#F63966"/>
<stop offset="1" stop-color="#007AE8"/>
</linearGradient>
<linearGradient id="paint6_linear_3_84" x1="52.9419" y1="365.77" x2="481.442" y2="365.77" gradientUnits="userSpaceOnUse">
<stop stop-color="#FABE3E"/>
<stop offset="0.3618" stop-color="#F63966"/>
<stop offset="1" stop-color="#007AE8"/>
</linearGradient>
<linearGradient id="paint7_linear_3_84" x1="52.9421" y1="365.769" x2="481.441" y2="365.769" gradientUnits="userSpaceOnUse">
<stop stop-color="#FABE3E"/>
<stop offset="0.3618" stop-color="#F63966"/>
<stop offset="1" stop-color="#007AE8"/>
</linearGradient>
<linearGradient id="paint8_linear_3_84" x1="51.0138" y1="363.872" x2="479.513" y2="363.872" gradientUnits="userSpaceOnUse">
<stop stop-color="#FABE3E"/>
<stop offset="0.3618" stop-color="#F63966"/>
<stop offset="1" stop-color="#007AE8"/>
</linearGradient>
<linearGradient id="paint9_linear_3_84" x1="51.0138" y1="363.872" x2="479.513" y2="363.872" gradientUnits="userSpaceOnUse">
<stop stop-color="#FABE3E"/>
<stop offset="0.3618" stop-color="#F63966"/>
<stop offset="1" stop-color="#007AE8"/>
</linearGradient>
<linearGradient id="paint10_linear_3_84" x1="45.0036" y1="195.12" x2="473.503" y2="195.12" gradientUnits="userSpaceOnUse">
<stop stop-color="#FABE3E"/>
<stop offset="0.3618" stop-color="#F63966"/>
<stop offset="1" stop-color="#007AE8"/>
</linearGradient>
<linearGradient id="paint11_linear_3_84" x1="45.0037" y1="208.368" x2="473.503" y2="208.368" gradientUnits="userSpaceOnUse">
<stop stop-color="#FABE3E"/>
<stop offset="0.3618" stop-color="#F63966"/>
<stop offset="1" stop-color="#007AE8"/>
</linearGradient>
<linearGradient id="paint12_linear_3_84" x1="45.0036" y1="198.707" x2="473.503" y2="198.707" gradientUnits="userSpaceOnUse">
<stop stop-color="#FABE3E"/>
<stop offset="0.3618" stop-color="#F63966"/>
<stop offset="1" stop-color="#007AE8"/>
</linearGradient>
<linearGradient id="paint13_linear_3_84" x1="45.0036" y1="201.263" x2="473.503" y2="201.263" gradientUnits="userSpaceOnUse">
<stop stop-color="#FABE3E"/>
<stop offset="0.3618" stop-color="#F63966"/>
<stop offset="1" stop-color="#007AE8"/>
</linearGradient>
<linearGradient id="paint14_linear_3_84" x1="45.0036" y1="203.818" x2="473.503" y2="203.818" gradientUnits="userSpaceOnUse">
<stop stop-color="#FABE3E"/>
<stop offset="0.3618" stop-color="#F63966"/>
<stop offset="1" stop-color="#007AE8"/>
</linearGradient>
<linearGradient id="paint15_linear_3_84" x1="45.0036" y1="206.374" x2="473.503" y2="206.374" gradientUnits="userSpaceOnUse">
<stop stop-color="#FABE3E"/>
<stop offset="0.3618" stop-color="#F63966"/>
<stop offset="1" stop-color="#007AE8"/>
</linearGradient>
<linearGradient id="paint16_linear_3_84" x1="45.0037" y1="193.826" x2="473.503" y2="193.826" gradientUnits="userSpaceOnUse">
<stop stop-color="#FABE3E"/>
<stop offset="0.3618" stop-color="#F63966"/>
<stop offset="1" stop-color="#007AE8"/>
</linearGradient>
<linearGradient id="paint17_linear_3_84" x1="45.0036" y1="204.082" x2="473.503" y2="204.082" gradientUnits="userSpaceOnUse">
<stop stop-color="#FABE3E"/>
<stop offset="0.3618" stop-color="#F63966"/>
<stop offset="1" stop-color="#007AE8"/>
</linearGradient>
<linearGradient id="paint18_linear_3_84" x1="45.0036" y1="193.825" x2="473.503" y2="193.825" gradientUnits="userSpaceOnUse">
<stop stop-color="#FABE3E"/>
<stop offset="0.3618" stop-color="#F63966"/>
<stop offset="1" stop-color="#007AE8"/>
</linearGradient>
<linearGradient id="paint19_linear_3_84" x1="45.0036" y1="193.825" x2="473.503" y2="193.825" gradientUnits="userSpaceOnUse">
<stop stop-color="#FABE3E"/>
<stop offset="0.3618" stop-color="#F63966"/>
<stop offset="1" stop-color="#007AE8"/>
</linearGradient>
<linearGradient id="paint20_linear_3_84" x1="54.0974" y1="96.4064" x2="482.597" y2="96.4064" gradientUnits="userSpaceOnUse">
<stop stop-color="#FABE3E"/>
<stop offset="0.3618" stop-color="#F63966"/>
<stop offset="1" stop-color="#007AE8"/>
</linearGradient>
<linearGradient id="paint21_linear_3_84" x1="54.0974" y1="93.7188" x2="482.597" y2="93.7188" gradientUnits="userSpaceOnUse">
<stop stop-color="#FABE3E"/>
<stop offset="0.3618" stop-color="#F63966"/>
<stop offset="1" stop-color="#007AE8"/>
</linearGradient>
<linearGradient id="paint22_linear_3_84" x1="54.0973" y1="99.4527" x2="482.597" y2="99.4527" gradientUnits="userSpaceOnUse">
<stop stop-color="#FABE3E"/>
<stop offset="0.3618" stop-color="#F63966"/>
<stop offset="1" stop-color="#007AE8"/>
</linearGradient>
<linearGradient id="paint23_linear_3_84" x1="54.0973" y1="102.185" x2="482.597" y2="102.185" gradientUnits="userSpaceOnUse">
<stop stop-color="#FABE3E"/>
<stop offset="0.3618" stop-color="#F63966"/>
<stop offset="1" stop-color="#007AE8"/>
</linearGradient>
<linearGradient id="paint24_linear_3_84" x1="54.0973" y1="104.918" x2="482.597" y2="104.918" gradientUnits="userSpaceOnUse">
<stop stop-color="#FABE3E"/>
<stop offset="0.3618" stop-color="#F63966"/>
<stop offset="1" stop-color="#007AE8"/>
</linearGradient>
<linearGradient id="paint25_linear_3_84" x1="54.0974" y1="91.031" x2="482.597" y2="91.031" gradientUnits="userSpaceOnUse">
<stop stop-color="#FABE3E"/>
<stop offset="0.3618" stop-color="#F63966"/>
<stop offset="1" stop-color="#007AE8"/>
</linearGradient>
<linearGradient id="paint26_linear_3_84" x1="54.0974" y1="99.7873" x2="482.597" y2="99.7873" gradientUnits="userSpaceOnUse">
<stop stop-color="#FABE3E"/>
<stop offset="0.3618" stop-color="#F63966"/>
<stop offset="1" stop-color="#007AE8"/>
</linearGradient>
<linearGradient id="paint27_linear_3_84" x1="54.0973" y1="93.7188" x2="482.597" y2="93.7188" gradientUnits="userSpaceOnUse">
<stop stop-color="#FABE3E"/>
<stop offset="0.3618" stop-color="#F63966"/>
<stop offset="1" stop-color="#007AE8"/>
</linearGradient>
<linearGradient id="paint28_linear_3_84" x1="54.097" y1="93.7188" x2="482.597" y2="93.7188" gradientUnits="userSpaceOnUse">
<stop stop-color="#FABE3E"/>
<stop offset="0.3618" stop-color="#F63966"/>
<stop offset="1" stop-color="#007AE8"/>
</linearGradient>
<linearGradient id="paint29_linear_3_84" x1="54.1029" y1="105.55" x2="482.591" y2="105.55" gradientUnits="userSpaceOnUse">
<stop stop-color="#FABE3E"/>
<stop offset="0.3618" stop-color="#F63966"/>
<stop offset="1" stop-color="#007AE8"/>
</linearGradient>
<linearGradient id="paint30_linear_3_84" x1="54.1029" y1="105.55" x2="482.591" y2="105.55" gradientUnits="userSpaceOnUse">
<stop stop-color="#FABE3E"/>
<stop offset="0.3618" stop-color="#F63966"/>
<stop offset="1" stop-color="#007AE8"/>
</linearGradient>
<linearGradient id="paint31_linear_3_84" x1="54.0889" y1="114.054" x2="482.604" y2="114.054" gradientUnits="userSpaceOnUse">
<stop stop-color="#FABE3E"/>
<stop offset="0.3618" stop-color="#F63966"/>
<stop offset="1" stop-color="#007AE8"/>
</linearGradient>
</defs>
</svg>
