<svg width="902" height="168" viewBox="0 0 902 168" fill="none" xmlns="http://www.w3.org/2000/svg">
<path d="M181.98 60.8889C181.98 63.1256 181.705 65.1423 181.155 66.9389C180.605 68.7356 179.78 70.2664 178.68 71.5314C177.598 72.7964 176.242 73.7681 174.61 74.4464C172.978 75.1248 171.081 75.4639 168.917 75.4639C167.927 75.4639 166.956 75.3998 166.002 75.2714C165.049 75.1614 164.05 74.9781 163.005 74.7214L163.39 70.3214C163.427 69.9181 163.573 69.5973 163.83 69.3589C164.105 69.1023 164.499 68.9739 165.012 68.9739C165.324 68.9739 165.727 69.0381 166.222 69.1664C166.736 69.2948 167.377 69.3589 168.147 69.3589C169.192 69.3589 170.118 69.2123 170.925 68.9189C171.732 68.6073 172.401 68.1214 172.932 67.4614C173.482 66.8014 173.895 65.9489 174.17 64.9039C174.445 63.8406 174.582 62.5573 174.582 61.0539V35.2589H181.98V60.8889ZM195.814 46.8089V64.7389C195.814 66.4623 196.208 67.8006 196.996 68.7539C197.803 69.6889 199.004 70.1564 200.599 70.1564C201.772 70.1564 202.872 69.8998 203.899 69.3864C204.925 68.8548 205.897 68.1306 206.814 67.2139V46.8089H213.606V75.0239H209.454C208.574 75.0239 207.996 74.6114 207.721 73.7864L207.254 71.5314C206.667 72.1181 206.062 72.6589 205.439 73.1539C204.815 73.6306 204.146 74.0431 203.431 74.3914C202.735 74.7214 201.974 74.9781 201.149 75.1614C200.342 75.3631 199.471 75.4639 198.536 75.4639C196.996 75.4639 195.63 75.2073 194.439 74.6939C193.265 74.1623 192.275 73.4198 191.469 72.4664C190.662 71.5131 190.048 70.3856 189.626 69.0839C189.223 67.7639 189.021 66.3156 189.021 64.7389V46.8089H195.814ZM237.606 52.3089C237.423 52.6023 237.23 52.8131 237.029 52.9414C236.827 53.0514 236.57 53.1064 236.259 53.1064C235.929 53.1064 235.571 53.0148 235.186 52.8314C234.819 52.6481 234.389 52.4464 233.894 52.2264C233.399 51.9881 232.83 51.7773 232.189 51.5939C231.565 51.4106 230.823 51.3189 229.961 51.3189C228.623 51.3189 227.569 51.6031 226.799 52.1714C226.029 52.7398 225.644 53.4823 225.644 54.3989C225.644 55.0039 225.836 55.5173 226.221 55.9389C226.624 56.3423 227.147 56.6998 227.789 57.0114C228.449 57.3231 229.191 57.6073 230.016 57.8639C230.841 58.1023 231.684 58.3681 232.546 58.6614C233.408 58.9548 234.251 59.2939 235.076 59.6789C235.901 60.0456 236.634 60.5223 237.276 61.1089C237.936 61.6773 238.459 62.3648 238.844 63.1714C239.247 63.9781 239.449 64.9498 239.449 66.0864C239.449 67.4431 239.201 68.6989 238.706 69.8539C238.211 70.9906 237.487 71.9806 236.534 72.8239C235.58 73.6489 234.398 74.2998 232.986 74.7764C231.593 75.2348 229.989 75.4639 228.174 75.4639C227.202 75.4639 226.249 75.3723 225.314 75.1889C224.397 75.0239 223.508 74.7856 222.646 74.4739C221.803 74.1623 221.014 73.7956 220.281 73.3739C219.566 72.9523 218.934 72.4939 218.384 71.9989L219.951 69.4139C220.153 69.1023 220.391 68.8639 220.666 68.6989C220.941 68.5339 221.289 68.4514 221.711 68.4514C222.133 68.4514 222.527 68.5706 222.894 68.8089C223.279 69.0473 223.719 69.3039 224.214 69.5789C224.709 69.8539 225.286 70.1106 225.946 70.3489C226.624 70.5873 227.477 70.7064 228.504 70.7064C229.31 70.7064 229.998 70.6148 230.566 70.4314C231.153 70.2298 231.629 69.9731 231.996 69.6614C232.381 69.3498 232.656 68.9923 232.821 68.5889C233.004 68.1673 233.096 67.7364 233.096 67.2964C233.096 66.6364 232.894 66.0956 232.491 65.6739C232.106 65.2523 231.584 64.8856 230.924 64.5739C230.282 64.2623 229.539 63.9873 228.696 63.7489C227.871 63.4923 227.019 63.2173 226.139 62.9239C225.277 62.6306 224.424 62.2914 223.581 61.9064C222.756 61.5031 222.014 60.9989 221.354 60.3939C220.712 59.7889 220.189 59.0464 219.786 58.1664C219.401 57.2864 219.209 56.2231 219.209 54.9764C219.209 53.8214 219.438 52.7214 219.896 51.6764C220.354 50.6314 221.024 49.7239 221.904 48.9539C222.802 48.1656 223.911 47.5423 225.231 47.0839C226.569 46.6073 228.109 46.3689 229.851 46.3689C231.794 46.3689 233.564 46.6898 235.159 47.3314C236.754 47.9731 238.083 48.8164 239.146 49.8614L237.606 52.3089ZM254.135 75.4639C251.696 75.4639 249.817 74.7764 248.497 73.4014C247.177 72.0081 246.517 70.0923 246.517 67.6539V51.8964H243.657C243.291 51.8964 242.97 51.7773 242.695 51.5389C242.438 51.3006 242.31 50.9431 242.31 50.4664V47.7714L246.847 47.0289L248.277 39.3289C248.351 38.9623 248.516 38.6781 248.772 38.4764C249.047 38.2748 249.386 38.1739 249.79 38.1739H253.31V47.0564H260.735V51.8964H253.31V67.1864C253.31 68.0664 253.53 68.7539 253.97 69.2489C254.41 69.7439 254.996 69.9914 255.73 69.9914C256.151 69.9914 256.5 69.9456 256.775 69.8539C257.068 69.7439 257.316 69.6339 257.517 69.5239C257.737 69.4139 257.93 69.3131 258.095 69.2214C258.26 69.1114 258.425 69.0564 258.59 69.0564C258.791 69.0564 258.956 69.1114 259.085 69.2214C259.213 69.3131 259.351 69.4598 259.497 69.6614L261.532 72.9614C260.542 73.7864 259.406 74.4098 258.122 74.8314C256.839 75.2531 255.51 75.4639 254.135 75.4639ZM274.167 61.0264V75.0239H266.769V35.2589H279.722C282.38 35.2589 284.681 35.5706 286.624 36.1939C288.568 36.8173 290.172 37.6881 291.437 38.8064C292.702 39.9248 293.637 41.2631 294.242 42.8214C294.847 44.3798 295.149 46.0848 295.149 47.9364C295.149 49.8614 294.829 51.6306 294.187 53.2439C293.545 54.8389 292.583 56.2139 291.299 57.3689C290.016 58.5239 288.412 59.4223 286.487 60.0639C284.562 60.7056 282.307 61.0264 279.722 61.0264H274.167ZM274.167 55.2514H279.722C281.079 55.2514 282.261 55.0864 283.269 54.7564C284.278 54.4081 285.112 53.9223 285.772 53.2989C286.432 52.6573 286.927 51.8873 287.257 50.9889C287.587 50.0723 287.752 49.0548 287.752 47.9364C287.752 46.8731 287.587 45.9106 287.257 45.0489C286.927 44.1873 286.432 43.4539 285.772 42.8489C285.112 42.2439 284.278 41.7856 283.269 41.4739C282.261 41.1439 281.079 40.9789 279.722 40.9789H274.167V55.2514ZM311.366 46.3689C313.145 46.3689 314.776 46.6531 316.261 47.2214C317.765 47.7898 319.057 48.6239 320.139 49.7239C321.22 50.8056 322.064 52.1439 322.669 53.7389C323.274 55.3156 323.576 57.1214 323.576 59.1564C323.576 59.6698 323.549 60.1006 323.494 60.4489C323.457 60.7789 323.375 61.0448 323.246 61.2464C323.136 61.4298 322.98 61.5673 322.779 61.6589C322.577 61.7323 322.32 61.7689 322.009 61.7689H304.574C304.775 64.6656 305.555 66.7923 306.911 68.1489C308.268 69.5056 310.065 70.1839 312.301 70.1839C313.401 70.1839 314.345 70.0556 315.134 69.7989C315.94 69.5423 316.637 69.2581 317.224 68.9464C317.829 68.6348 318.351 68.3506 318.791 68.0939C319.25 67.8373 319.69 67.7089 320.111 67.7089C320.386 67.7089 320.625 67.7639 320.826 67.8739C321.028 67.9839 321.202 68.1398 321.349 68.3414L323.329 70.8164C322.577 71.6964 321.734 72.4389 320.799 73.0439C319.864 73.6306 318.883 74.1073 317.856 74.4739C316.848 74.8223 315.812 75.0698 314.749 75.2164C313.704 75.3631 312.686 75.4364 311.696 75.4364C309.735 75.4364 307.91 75.1156 306.224 74.4739C304.537 73.8139 303.07 72.8514 301.824 71.5864C300.577 70.3031 299.596 68.7264 298.881 66.8564C298.166 64.9681 297.809 62.7864 297.809 60.3114C297.809 58.3864 298.12 56.5806 298.744 54.8939C299.367 53.1889 300.256 51.7131 301.411 50.4664C302.585 49.2014 304.005 48.2023 305.674 47.4689C307.36 46.7356 309.258 46.3689 311.366 46.3689ZM311.504 51.2364C309.524 51.2364 307.975 51.7956 306.856 52.9139C305.738 54.0323 305.023 55.6181 304.711 57.6714H317.471C317.471 56.7914 317.352 55.9664 317.114 55.1964C316.875 54.4081 316.509 53.7206 316.014 53.1339C315.519 52.5473 314.895 52.0889 314.144 51.7589C313.392 51.4106 312.512 51.2364 311.504 51.2364ZM329.086 75.0239V46.8089H333.074C333.77 46.8089 334.256 46.9373 334.531 47.1939C334.806 47.4506 334.989 47.8906 335.081 48.5139L335.494 51.9239C336.502 50.1823 337.684 48.8073 339.041 47.7989C340.398 46.7906 341.919 46.2864 343.606 46.2864C344.999 46.2864 346.154 46.6073 347.071 47.2489L346.191 52.3364C346.136 52.6664 346.017 52.9048 345.834 53.0514C345.65 53.1798 345.403 53.2439 345.091 53.2439C344.816 53.2439 344.44 53.1798 343.964 53.0514C343.487 52.9231 342.854 52.8589 342.066 52.8589C340.654 52.8589 339.444 53.2531 338.436 54.0414C337.428 54.8114 336.575 55.9481 335.879 57.4514V75.0239H329.086ZM352.747 75.0239V51.9239L350.3 51.5389C349.768 51.4473 349.337 51.2639 349.007 50.9889C348.696 50.7139 348.54 50.3289 348.54 49.8339V47.0564H352.747V44.9664C352.747 43.3531 352.986 41.9048 353.462 40.6214C353.957 39.3381 354.654 38.2473 355.552 37.3489C356.469 36.4506 357.578 35.7631 358.88 35.2864C360.181 34.8098 361.648 34.5714 363.28 34.5714C364.581 34.5714 365.791 34.7456 366.91 35.0939L366.772 38.5039C366.736 39.0356 366.488 39.3656 366.03 39.4939C365.571 39.6223 365.04 39.6864 364.435 39.6864C363.628 39.6864 362.904 39.7781 362.262 39.9614C361.639 40.1264 361.107 40.4289 360.667 40.8689C360.227 41.2906 359.888 41.8589 359.65 42.5739C359.43 43.2706 359.32 44.1414 359.32 45.1864V47.0564H366.662V51.8964H359.54V75.0239H352.747ZM382.864 46.3689C384.973 46.3689 386.879 46.7081 388.584 47.3864C390.308 48.0648 391.774 49.0273 392.984 50.2739C394.194 51.5206 395.129 53.0423 395.789 54.8389C396.449 56.6356 396.779 58.6431 396.779 60.8614C396.779 63.0981 396.449 65.1148 395.789 66.9114C395.129 68.7081 394.194 70.2389 392.984 71.5039C391.774 72.7689 390.308 73.7406 388.584 74.4189C386.879 75.0973 384.973 75.4364 382.864 75.4364C380.756 75.4364 378.84 75.0973 377.117 74.4189C375.394 73.7406 373.918 72.7689 372.689 71.5039C371.479 70.2389 370.535 68.7081 369.857 66.9114C369.197 65.1148 368.867 63.0981 368.867 60.8614C368.867 58.6431 369.197 56.6356 369.857 54.8389C370.535 53.0423 371.479 51.5206 372.689 50.2739C373.918 49.0273 375.394 48.0648 377.117 47.3864C378.84 46.7081 380.756 46.3689 382.864 46.3689ZM382.864 70.2114C385.211 70.2114 386.944 69.4231 388.062 67.8464C389.199 66.2698 389.767 63.9598 389.767 60.9164C389.767 57.8731 389.199 55.5539 388.062 53.9589C386.944 52.3639 385.211 51.5664 382.864 51.5664C380.481 51.5664 378.721 52.3731 377.584 53.9864C376.448 55.5814 375.879 57.8914 375.879 60.9164C375.879 63.9414 376.448 66.2514 377.584 67.8464C378.721 69.4231 380.481 70.2114 382.864 70.2114ZM402.079 75.0239V46.8089H406.067C406.763 46.8089 407.249 46.9373 407.524 47.1939C407.799 47.4506 407.983 47.8906 408.074 48.5139L408.487 51.9239C409.495 50.1823 410.678 48.8073 412.034 47.7989C413.391 46.7906 414.913 46.2864 416.599 46.2864C417.993 46.2864 419.148 46.6073 420.064 47.2489L419.184 52.3364C419.129 52.6664 419.01 52.9048 418.827 53.0514C418.643 53.1798 418.396 53.2439 418.084 53.2439C417.809 53.2439 417.433 53.1798 416.957 53.0514C416.48 52.9231 415.848 52.8589 415.059 52.8589C413.648 52.8589 412.438 53.2531 411.429 54.0414C410.421 54.8114 409.568 55.9481 408.872 57.4514V75.0239H402.079ZM424.53 75.0239V46.8089H428.683C429.563 46.8089 430.14 47.2214 430.415 48.0464L430.855 50.1364C431.35 49.5864 431.864 49.0823 432.395 48.6239C432.945 48.1656 433.523 47.7714 434.128 47.4414C434.751 47.1114 435.411 46.8548 436.108 46.6714C436.823 46.4698 437.602 46.3689 438.445 46.3689C440.224 46.3689 441.681 46.8548 442.818 47.8264C443.973 48.7798 444.835 50.0539 445.403 51.6489C445.843 50.7139 446.393 49.9164 447.053 49.2564C447.713 48.5781 448.437 48.0281 449.225 47.6064C450.014 47.1848 450.848 46.8731 451.728 46.6714C452.626 46.4698 453.525 46.3689 454.423 46.3689C455.981 46.3689 457.365 46.6073 458.575 47.0839C459.785 47.5606 460.803 48.2573 461.628 49.1739C462.453 50.0906 463.076 51.2089 463.498 52.5289C463.938 53.8489 464.158 55.3614 464.158 57.0664V75.0239H457.365V57.0664C457.365 55.2698 456.971 53.9223 456.183 53.0239C455.395 52.1073 454.24 51.6489 452.718 51.6489C452.021 51.6489 451.37 51.7681 450.765 52.0064C450.179 52.2448 449.656 52.5931 449.198 53.0514C448.758 53.4914 448.41 54.0506 448.153 54.7289C447.896 55.4073 447.768 56.1864 447.768 57.0664V75.0239H440.948V57.0664C440.948 55.1781 440.563 53.8031 439.793 52.9414C439.041 52.0798 437.923 51.6489 436.438 51.6489C435.466 51.6489 434.55 51.8964 433.688 52.3914C432.845 52.8681 432.056 53.5281 431.323 54.3714V75.0239H424.53ZM509.184 65.6464C509.587 65.6464 509.936 65.8023 510.229 66.1139L513.144 69.2764C511.531 71.2748 509.541 72.8056 507.176 73.8689C504.83 74.9323 502.006 75.4639 498.706 75.4639C495.755 75.4639 493.096 74.9598 490.731 73.9514C488.385 72.9431 486.377 71.5406 484.709 69.7439C483.041 67.9473 481.757 65.8023 480.859 63.3089C479.979 60.8156 479.539 58.0931 479.539 55.1414C479.539 52.1531 480.034 49.4214 481.024 46.9464C482.014 44.4531 483.407 42.3081 485.204 40.5114C487.001 38.7148 489.146 37.3214 491.639 36.3314C494.151 35.3231 496.919 34.8189 499.944 34.8189C502.896 34.8189 505.471 35.2956 507.671 36.2489C509.89 37.1839 511.787 38.4306 513.364 39.9889L510.889 43.4264C510.742 43.6464 510.55 43.8389 510.311 44.0039C510.091 44.1689 509.78 44.2514 509.376 44.2514C508.955 44.2514 508.524 44.0864 508.084 43.7564C507.644 43.4264 507.085 43.0689 506.406 42.6839C505.728 42.2989 504.866 41.9414 503.821 41.6114C502.795 41.2814 501.484 41.1164 499.889 41.1164C498.019 41.1164 496.296 41.4464 494.719 42.1064C493.161 42.7481 491.813 43.6739 490.676 44.8839C489.558 46.0939 488.678 47.5698 488.036 49.3114C487.413 51.0348 487.101 52.9781 487.101 55.1414C487.101 57.3781 487.413 59.3673 488.036 61.1089C488.678 62.8506 489.54 64.3173 490.621 65.5089C491.703 66.7006 492.977 67.6173 494.444 68.2589C495.911 68.8823 497.487 69.1939 499.174 69.1939C500.182 69.1939 501.09 69.1389 501.896 69.0289C502.721 68.9189 503.473 68.7448 504.151 68.5064C504.848 68.2681 505.499 67.9656 506.104 67.5989C506.727 67.2139 507.341 66.7464 507.946 66.1964C508.13 66.0314 508.322 65.9031 508.524 65.8114C508.726 65.7014 508.946 65.6464 509.184 65.6464ZM525.596 34.1589V75.0239H518.803V34.1589H525.596ZM545.34 46.3689C547.448 46.3689 549.355 46.7081 551.06 47.3864C552.783 48.0648 554.25 49.0273 555.46 50.2739C556.67 51.5206 557.605 53.0423 558.265 54.8389C558.925 56.6356 559.255 58.6431 559.255 60.8614C559.255 63.0981 558.925 65.1148 558.265 66.9114C557.605 68.7081 556.67 70.2389 555.46 71.5039C554.25 72.7689 552.783 73.7406 551.06 74.4189C549.355 75.0973 547.448 75.4364 545.34 75.4364C543.232 75.4364 541.316 75.0973 539.593 74.4189C537.869 73.7406 536.393 72.7689 535.165 71.5039C533.955 70.2389 533.011 68.7081 532.333 66.9114C531.673 65.1148 531.343 63.0981 531.343 60.8614C531.343 58.6431 531.673 56.6356 532.333 54.8389C533.011 53.0423 533.955 51.5206 535.165 50.2739C536.393 49.0273 537.869 48.0648 539.593 47.3864C541.316 46.7081 543.232 46.3689 545.34 46.3689ZM545.34 70.2114C547.687 70.2114 549.419 69.4231 550.538 67.8464C551.674 66.2698 552.243 63.9598 552.243 60.9164C552.243 57.8731 551.674 55.5539 550.538 53.9589C549.419 52.3639 547.687 51.5664 545.34 51.5664C542.957 51.5664 541.197 52.3731 540.06 53.9864C538.923 55.5814 538.355 57.8914 538.355 60.9164C538.355 63.9414 538.923 66.2514 540.06 67.8464C541.197 69.4231 542.957 70.2114 545.34 70.2114ZM570.77 46.8089V64.7389C570.77 66.4623 571.164 67.8006 571.952 68.7539C572.759 69.6889 573.96 70.1564 575.555 70.1564C576.728 70.1564 577.828 69.8998 578.855 69.3864C579.881 68.8548 580.853 68.1306 581.77 67.2139V46.8089H588.562V75.0239H584.41C583.53 75.0239 582.952 74.6114 582.677 73.7864L582.21 71.5314C581.623 72.1181 581.018 72.6589 580.395 73.1539C579.771 73.6306 579.102 74.0431 578.387 74.3914C577.691 74.7214 576.93 74.9781 576.105 75.1614C575.298 75.3631 574.427 75.4639 573.492 75.4639C571.952 75.4639 570.586 75.2073 569.395 74.6939C568.221 74.1623 567.231 73.4198 566.425 72.4664C565.618 71.5131 565.004 70.3856 564.582 69.0839C564.179 67.7639 563.977 66.3156 563.977 64.7389V46.8089H570.77ZM615.67 75.0239C614.79 75.0239 614.212 74.6114 613.937 73.7864L613.387 71.0639C612.8 71.7239 612.186 72.3198 611.545 72.8514C610.903 73.3831 610.206 73.8414 609.455 74.2264C608.721 74.6114 607.924 74.9048 607.062 75.1064C606.219 75.3264 605.302 75.4364 604.312 75.4364C602.772 75.4364 601.36 75.1156 600.077 74.4739C598.794 73.8323 597.685 72.9064 596.75 71.6964C595.833 70.4681 595.118 68.9556 594.605 67.1589C594.11 65.3623 593.862 63.3089 593.862 60.9989C593.862 58.9089 594.146 56.9656 594.715 55.1689C595.283 53.3723 596.099 51.8139 597.162 50.4939C598.225 49.1739 599.5 48.1473 600.985 47.4139C602.47 46.6623 604.138 46.2864 605.99 46.2864C607.566 46.2864 608.914 46.5431 610.032 47.0564C611.15 47.5514 612.15 48.2206 613.03 49.0639V34.1589H619.822V75.0239H615.67ZM606.622 70.0464C608.034 70.0464 609.235 69.7531 610.225 69.1664C611.215 68.5798 612.15 67.7456 613.03 66.6639V54.0139C612.26 53.0789 611.416 52.4189 610.5 52.0339C609.601 51.6489 608.63 51.4564 607.585 51.4564C606.558 51.4564 605.623 51.6489 604.78 52.0339C603.955 52.4189 603.249 53.0056 602.662 53.7939C602.094 54.5639 601.654 55.5539 601.342 56.7639C601.03 57.9556 600.875 59.3673 600.875 60.9989C600.875 62.6489 601.003 64.0514 601.26 65.2064C601.535 66.3431 601.92 67.2781 602.415 68.0114C602.91 68.7264 603.515 69.2489 604.23 69.5789C604.945 69.8906 605.742 70.0464 606.622 70.0464Z" fill="#00ABBD"/>
<g clip-path="url(#clip0_1008_738)">
<path d="M110.724 29.2319C112.337 32.0688 114.229 37.2977 115.258 40.3293C118.234 40.6075 121.071 41.3862 123.685 42.5822C123.073 40.0234 121.432 34.0714 117.65 26.4227C113.533 18.0788 106.496 11.4871 98.4029 6.81446C90.3371 2.16966 81.1587 -0.194454 71.9248 0.0280515C64.8324 0.19493 57.6566 1.86372 51.2318 4.89535C44.7235 7.9548 39.0496 12.2658 34.377 17.7172L31.6235 20.9157L35.7677 20.0813C36.8802 19.8588 37.9927 19.692 39.1331 19.5807C40.2734 19.4694 41.3859 19.386 42.6375 19.3582L43.166 19.2748L43.4997 18.9688C47.3658 15.4087 51.8159 12.5996 56.711 10.6249C61.6061 8.65013 66.7793 7.59323 72.0638 7.45416C79.8793 7.25947 87.5558 9.20639 94.3422 13.0168C101.129 16.855 106.886 22.4176 110.724 29.2319Z" fill="url(#paint0_linear_1008_738)"/>
<path d="M81.8819 53.0956L82.1044 52.7619C82.8553 51.6215 83.05 51.3156 84.3294 50.064C85.5532 48.868 86.8604 47.7277 88.2789 46.7264C92.9237 42.6657 98.9869 40.1903 105.606 40.1903H112.504L110.029 33.1814C110.029 33.1814 106.83 32.9867 103.91 33.1536C97.5685 33.5151 94.6203 34.1827 89.5861 36.4355C85.2194 38.3824 81.4925 41.275 78.2383 44.7795C74.9842 38.2434 70.0613 33.543 63.9146 29.51C57.1838 25.0599 49.3405 22.7236 41.2469 22.7236C30.2329 22.7236 19.8864 27.0069 12.0987 34.7945C4.28322 42.5822 0 52.9565 0 63.9706C0 74.5117 3.97728 84.5245 11.1809 92.2009C18.4401 99.9052 28.2303 104.494 38.7437 105.134L39.0218 105.162C39.1609 105.162 39.3 105.162 39.439 105.19L39.9953 105.217L40.1065 105.106C40.8575 104.967 41.5806 104.606 42.1091 104.077C42.86 103.382 43.2494 102.464 43.2494 101.463C43.2494 100.434 42.8044 99.4602 42.0256 98.737C41.2747 98.0695 40.3012 97.6801 39.2443 97.6523C39.1331 97.6523 38.994 97.6523 38.8271 97.6523L38.7715 97.6801C30.2329 97.0682 22.3061 93.2856 16.4097 86.9721C10.5968 80.7141 7.37048 72.5648 7.37048 63.9706C7.37048 54.9313 10.8749 46.4483 17.272 40.0791C23.669 33.7098 32.152 30.1776 41.1634 30.1776C47.4492 30.1776 53.5959 31.9298 58.936 35.2674C64.304 38.605 68.6706 43.3888 71.5076 49.0627C71.7023 49.4521 71.8691 49.9249 72.036 50.4812C72.4254 51.6493 72.8426 52.9565 73.7882 53.9578C74.0386 54.236 74.3167 54.4585 74.6226 54.6531C75.5961 55.2929 76.7921 55.5432 78.0158 55.4041C79.184 55.265 80.2965 54.7644 81.1309 53.9578C81.4647 53.6797 81.6872 53.3737 81.8819 53.0956Z" fill="url(#paint1_linear_1008_738)"/>
<path d="M141.652 49.4521C138.203 43.6669 133.141 38.9387 126.967 35.7958L123.852 34.2104L124.909 37.5202C125.243 38.5493 125.548 39.5506 125.799 40.5519C126.077 41.5531 126.299 42.5544 126.522 43.7226L126.689 44.1954C134.198 48.868 139.233 57.1841 139.233 66.6128C139.233 67.5584 139.177 68.5041 139.066 69.4497C138.871 72.982 138.037 76.4308 136.535 79.685C134.81 83.3841 132.251 86.7495 129.164 89.4196C126.661 91.5612 123.852 93.2578 120.82 94.4538C117.789 95.6497 114.674 96.2894 111.531 96.3729H78.433C76.8199 96.3729 75.4014 96.3451 74.0386 96.2616C72.6201 96.1782 71.2573 96.0113 69.811 95.761C62.0511 94.3981 54.7919 91.0049 48.8121 85.9151C42.9991 80.9644 38.6046 74.5395 36.0737 67.3359L35.3505 65.1109C34.5717 62.4686 34.0711 59.6595 33.8208 56.7391H37.9371L30.4554 37.1586L21.8611 56.7391H26.3112C26.9509 64.9162 29.5376 72.8986 33.8764 79.7962L33.9877 79.9631C34.1545 80.269 34.4049 80.6306 34.683 81.02C35.4061 82.0769 36.4074 83.4676 36.5743 83.6901C38.6046 86.3601 40.9409 88.8633 43.4998 91.1162C45.2242 92.6181 47.032 94.0088 48.9511 95.2603L48.8121 95.316L51.204 96.6788C51.2596 96.7066 51.3152 96.7344 51.3709 96.7623L51.2318 96.8179L53.3456 97.8748L53.2622 97.9304L55.4872 98.9317L55.3203 99.0151L56.4607 99.4601L56.4329 99.4879L58.8248 100.378L58.6857 100.461L59.8539 100.823L59.6036 100.906L63.0802 101.824L62.8855 101.908L66.7793 102.714C68.6428 103.104 70.5341 103.382 72.4254 103.576C74.0107 103.716 75.5961 103.799 77.1536 103.799C77.4874 103.799 77.7933 103.799 78.0993 103.799H110.808C113.95 103.604 116.593 103.354 119.207 102.742C121.988 102.13 124.575 101.157 127.329 99.7104C132.947 96.7901 137.703 92.3956 141.096 87.0555C144.461 81.7431 146.381 75.5964 146.631 69.255L146.659 68.6988C146.826 61.8845 145.101 55.2372 141.652 49.4521Z" fill="url(#paint2_linear_1008_738)"/>
</g>
<path d="M645.206 55.9635C646.575 55.9635 647.808 56.1917 648.906 56.648C650.016 57.1043 650.953 57.7518 651.718 58.5905C652.495 59.4292 653.087 60.4467 653.494 61.643C653.913 62.827 654.123 64.1528 654.123 65.6205C654.123 67.1005 653.913 68.4325 653.494 69.6165C653.087 70.8005 652.495 71.8118 651.718 72.6505C650.953 73.4892 650.016 74.1367 648.906 74.593C647.808 75.037 646.575 75.259 645.206 75.259C643.837 75.259 642.598 75.037 641.488 74.593C640.39 74.1367 639.453 73.4892 638.676 72.6505C637.899 71.8118 637.3 70.8005 636.881 69.6165C636.462 68.4325 636.252 67.1005 636.252 65.6205C636.252 64.1528 636.462 62.827 636.881 61.643C637.3 60.4467 637.899 59.4292 638.676 58.5905C639.453 57.7518 640.39 57.1043 641.488 56.648C642.598 56.1917 643.837 55.9635 645.206 55.9635ZM645.206 72.6875C647.056 72.6875 648.437 72.0708 649.35 70.8375C650.263 69.5918 650.719 67.859 650.719 65.639C650.719 63.4067 650.263 61.6677 649.35 60.422C648.437 59.1763 647.056 58.5535 645.206 58.5535C644.269 58.5535 643.455 58.7138 642.764 59.0345C642.073 59.3552 641.494 59.8177 641.025 60.422C640.569 61.0263 640.223 61.7725 639.989 62.6605C639.767 63.5362 639.656 64.529 639.656 65.639C639.656 66.749 639.767 67.7418 639.989 68.6175C640.223 69.4932 640.569 70.2332 641.025 70.8375C641.494 71.4295 642.073 71.8858 642.764 72.2065C643.455 72.5272 644.269 72.6875 645.206 72.6875ZM658.181 75V56.2595H660.068C660.425 56.2595 660.672 56.3273 660.808 56.463C660.943 56.5987 661.036 56.833 661.085 57.166L661.307 60.089C661.949 58.7817 662.738 57.7642 663.675 57.0365C664.625 56.2965 665.735 55.9265 667.005 55.9265C667.523 55.9265 667.992 55.9882 668.411 56.1115C668.831 56.2225 669.219 56.3828 669.577 56.5925L669.151 59.053C669.065 59.3613 668.874 59.5155 668.578 59.5155C668.405 59.5155 668.14 59.46 667.782 59.349C667.425 59.2257 666.925 59.164 666.284 59.164C665.137 59.164 664.175 59.497 663.398 60.163C662.633 60.829 661.992 61.7972 661.474 63.0675V75H658.181Z" fill="#00ABBD"/>
<path d="M402.246 131.002V145H394.848V105.235H407.801C410.459 105.235 412.76 105.547 414.703 106.17C416.646 106.793 418.251 107.664 419.516 108.782C420.781 109.901 421.716 111.239 422.321 112.797C422.926 114.356 423.228 116.061 423.228 117.912C423.228 119.837 422.907 121.607 422.266 123.22C421.624 124.815 420.661 126.19 419.378 127.345C418.095 128.5 416.491 129.398 414.566 130.04C412.641 130.682 410.386 131.002 407.801 131.002H402.246ZM402.246 125.227H407.801C409.157 125.227 410.34 125.062 411.348 124.732C412.356 124.384 413.191 123.898 413.851 123.275C414.511 122.633 415.006 121.863 415.336 120.965C415.666 120.048 415.831 119.031 415.831 117.912C415.831 116.849 415.666 115.887 415.336 115.025C415.006 114.163 414.511 113.43 413.851 112.825C413.191 112.22 412.356 111.762 411.348 111.45C410.34 111.12 409.157 110.955 407.801 110.955H402.246V125.227ZM428.591 145V116.785H432.578C433.275 116.785 433.761 116.913 434.036 117.17C434.311 117.427 434.494 117.867 434.586 118.49L434.998 121.9C436.006 120.158 437.189 118.783 438.546 117.775C439.902 116.767 441.424 116.262 443.111 116.262C444.504 116.262 445.659 116.583 446.576 117.225L445.696 122.312C445.641 122.642 445.521 122.881 445.338 123.027C445.155 123.156 444.907 123.22 444.596 123.22C444.321 123.22 443.945 123.156 443.468 123.027C442.991 122.899 442.359 122.835 441.571 122.835C440.159 122.835 438.949 123.229 437.941 124.017C436.932 124.787 436.08 125.924 435.383 127.427V145H428.591ZM458.274 116.785V145H451.482V116.785H458.274ZM459.292 108.562C459.292 109.149 459.173 109.699 458.934 110.212C458.696 110.726 458.375 111.175 457.972 111.56C457.587 111.945 457.128 112.257 456.597 112.495C456.065 112.715 455.497 112.825 454.892 112.825C454.305 112.825 453.746 112.715 453.214 112.495C452.701 112.257 452.252 111.945 451.867 111.56C451.482 111.175 451.17 110.726 450.932 110.212C450.712 109.699 450.602 109.149 450.602 108.562C450.602 107.957 450.712 107.389 450.932 106.857C451.17 106.326 451.482 105.867 451.867 105.482C452.252 105.097 452.701 104.795 453.214 104.575C453.746 104.337 454.305 104.217 454.892 104.217C455.497 104.217 456.065 104.337 456.597 104.575C457.128 104.795 457.587 105.097 457.972 105.482C458.375 105.867 458.696 106.326 458.934 106.857C459.173 107.389 459.292 107.957 459.292 108.562ZM480.108 145H473.948L462.728 116.785H468.366C468.861 116.785 469.273 116.904 469.603 117.142C469.952 117.381 470.19 117.683 470.318 118.05L475.763 133.12C476.075 134 476.332 134.862 476.533 135.705C476.753 136.548 476.946 137.392 477.111 138.235C477.276 137.392 477.459 136.548 477.661 135.705C477.881 134.862 478.156 134 478.486 133.12L484.068 118.05C484.197 117.683 484.426 117.381 484.756 117.142C485.086 116.904 485.48 116.785 485.938 116.785H491.301L480.108 145ZM517.41 145H514.357C513.715 145 513.211 144.908 512.845 144.725C512.478 144.523 512.203 144.129 512.02 143.542L511.415 141.535C510.7 142.177 509.994 142.745 509.297 143.24C508.619 143.717 507.913 144.12 507.18 144.45C506.446 144.78 505.667 145.028 504.842 145.193C504.017 145.358 503.1 145.44 502.092 145.44C500.9 145.44 499.8 145.284 498.792 144.972C497.784 144.642 496.913 144.157 496.18 143.515C495.465 142.873 494.905 142.076 494.502 141.122C494.099 140.169 493.897 139.06 493.897 137.795C493.897 136.732 494.172 135.687 494.722 134.66C495.29 133.615 496.225 132.68 497.527 131.855C498.829 131.012 500.561 130.315 502.725 129.765C504.888 129.215 507.574 128.903 510.782 128.83V127.18C510.782 125.292 510.379 123.898 509.572 123C508.784 122.083 507.629 121.625 506.107 121.625C505.007 121.625 504.09 121.753 503.357 122.01C502.624 122.267 501.982 122.56 501.432 122.89C500.9 123.202 500.405 123.486 499.947 123.742C499.489 123.999 498.985 124.127 498.435 124.127C497.976 124.127 497.582 124.008 497.252 123.77C496.922 123.532 496.656 123.238 496.455 122.89L495.217 120.717C498.462 117.747 502.376 116.262 506.96 116.262C508.61 116.262 510.076 116.537 511.36 117.087C512.661 117.619 513.761 118.371 514.66 119.342C515.558 120.296 516.236 121.442 516.695 122.78C517.171 124.118 517.41 125.585 517.41 127.18V145ZM504.21 140.765C504.906 140.765 505.548 140.701 506.135 140.572C506.721 140.444 507.271 140.252 507.785 139.995C508.316 139.738 508.82 139.427 509.297 139.06C509.792 138.675 510.287 138.226 510.782 137.712V132.955C508.802 133.047 507.143 133.221 505.805 133.477C504.485 133.716 503.421 134.027 502.615 134.412C501.808 134.797 501.23 135.247 500.882 135.76C500.552 136.273 500.387 136.832 500.387 137.437C500.387 138.629 500.735 139.482 501.432 139.995C502.147 140.508 503.073 140.765 504.21 140.765ZM533.356 145.44C530.918 145.44 529.039 144.752 527.719 143.377C526.399 141.984 525.739 140.068 525.739 137.63V121.872H522.879C522.512 121.872 522.191 121.753 521.916 121.515C521.659 121.277 521.531 120.919 521.531 120.442V117.747L526.069 117.005L527.499 109.305C527.572 108.938 527.737 108.654 527.994 108.452C528.269 108.251 528.608 108.15 529.011 108.15H532.531V117.032H539.956V121.872H532.531V137.162C532.531 138.042 532.751 138.73 533.191 139.225C533.631 139.72 534.218 139.967 534.951 139.967C535.373 139.967 535.721 139.922 535.996 139.83C536.289 139.72 536.537 139.61 536.739 139.5C536.959 139.39 537.151 139.289 537.316 139.197C537.481 139.087 537.646 139.032 537.811 139.032C538.013 139.032 538.178 139.087 538.306 139.197C538.434 139.289 538.572 139.436 538.719 139.637L540.754 142.937C539.764 143.762 538.627 144.386 537.344 144.807C536.06 145.229 534.731 145.44 533.356 145.44ZM557.018 116.345C558.796 116.345 560.428 116.629 561.913 117.197C563.416 117.766 564.709 118.6 565.791 119.7C566.872 120.782 567.716 122.12 568.321 123.715C568.926 125.292 569.228 127.097 569.228 129.132C569.228 129.646 569.201 130.077 569.146 130.425C569.109 130.755 569.026 131.021 568.898 131.222C568.788 131.406 568.632 131.543 568.431 131.635C568.229 131.708 567.972 131.745 567.661 131.745H550.226C550.427 134.642 551.206 136.768 552.563 138.125C553.92 139.482 555.716 140.16 557.953 140.16C559.053 140.16 559.997 140.032 560.786 139.775C561.592 139.518 562.289 139.234 562.876 138.922C563.481 138.611 564.003 138.327 564.443 138.07C564.901 137.813 565.341 137.685 565.763 137.685C566.038 137.685 566.276 137.74 566.478 137.85C566.68 137.96 566.854 138.116 567.001 138.317L568.981 140.792C568.229 141.672 567.386 142.415 566.451 143.02C565.516 143.607 564.535 144.083 563.508 144.45C562.5 144.798 561.464 145.046 560.401 145.193C559.356 145.339 558.338 145.413 557.348 145.413C555.386 145.413 553.562 145.092 551.876 144.45C550.189 143.79 548.722 142.827 547.476 141.562C546.229 140.279 545.248 138.702 544.533 136.832C543.818 134.944 543.461 132.762 543.461 130.287C543.461 128.362 543.772 126.557 544.396 124.87C545.019 123.165 545.908 121.689 547.063 120.442C548.236 119.177 549.657 118.178 551.326 117.445C553.012 116.712 554.91 116.345 557.018 116.345ZM557.156 121.212C555.176 121.212 553.626 121.772 552.508 122.89C551.39 124.008 550.675 125.594 550.363 127.647H563.123C563.123 126.767 563.004 125.942 562.766 125.172C562.527 124.384 562.161 123.697 561.666 123.11C561.171 122.523 560.547 122.065 559.796 121.735C559.044 121.387 558.164 121.212 557.156 121.212ZM613.093 135.622C613.496 135.622 613.844 135.778 614.138 136.09L617.053 139.252C615.439 141.251 613.45 142.782 611.085 143.845C608.739 144.908 605.915 145.44 602.615 145.44C599.664 145.44 597.005 144.936 594.64 143.927C592.294 142.919 590.286 141.517 588.618 139.72C586.949 137.923 585.666 135.778 584.768 133.285C583.888 130.792 583.448 128.069 583.448 125.117C583.448 122.129 583.943 119.397 584.933 116.922C585.923 114.429 587.316 112.284 589.113 110.487C590.909 108.691 593.054 107.297 595.548 106.307C598.059 105.299 600.828 104.795 603.853 104.795C606.804 104.795 609.38 105.272 611.58 106.225C613.799 107.16 615.696 108.407 617.273 109.965L614.798 113.402C614.651 113.622 614.459 113.815 614.22 113.98C614 114.145 613.689 114.227 613.285 114.227C612.864 114.227 612.433 114.062 611.993 113.732C611.553 113.402 610.994 113.045 610.315 112.66C609.637 112.275 608.775 111.917 607.73 111.587C606.704 111.257 605.393 111.092 603.798 111.092C601.928 111.092 600.204 111.422 598.628 112.082C597.069 112.724 595.722 113.65 594.585 114.86C593.467 116.07 592.587 117.546 591.945 119.287C591.322 121.011 591.01 122.954 591.01 125.117C591.01 127.354 591.322 129.343 591.945 131.085C592.587 132.827 593.449 134.293 594.53 135.485C595.612 136.677 596.886 137.593 598.353 138.235C599.819 138.858 601.396 139.17 603.083 139.17C604.091 139.17 604.999 139.115 605.805 139.005C606.63 138.895 607.382 138.721 608.06 138.482C608.757 138.244 609.408 137.942 610.013 137.575C610.636 137.19 611.25 136.722 611.855 136.172C612.039 136.007 612.231 135.879 612.433 135.787C612.634 135.677 612.854 135.622 613.093 135.622ZM629.505 104.135V145H622.712V104.135H629.505ZM649.249 116.345C651.357 116.345 653.264 116.684 654.969 117.363C656.692 118.041 658.159 119.003 659.369 120.25C660.579 121.497 661.514 123.018 662.174 124.815C662.834 126.612 663.164 128.619 663.164 130.837C663.164 133.074 662.834 135.091 662.174 136.887C661.514 138.684 660.579 140.215 659.369 141.48C658.159 142.745 656.692 143.717 654.969 144.395C653.264 145.073 651.357 145.413 649.249 145.413C647.14 145.413 645.225 145.073 643.501 144.395C641.778 143.717 640.302 142.745 639.074 141.48C637.864 140.215 636.92 138.684 636.241 136.887C635.581 135.091 635.251 133.074 635.251 130.837C635.251 128.619 635.581 126.612 636.241 124.815C636.92 123.018 637.864 121.497 639.074 120.25C640.302 119.003 641.778 118.041 643.501 117.363C645.225 116.684 647.14 116.345 649.249 116.345ZM649.249 140.187C651.595 140.187 653.328 139.399 654.446 137.822C655.583 136.246 656.151 133.936 656.151 130.892C656.151 127.849 655.583 125.53 654.446 123.935C653.328 122.34 651.595 121.542 649.249 121.542C646.865 121.542 645.105 122.349 643.969 123.962C642.832 125.557 642.264 127.867 642.264 130.892C642.264 133.917 642.832 136.227 643.969 137.822C645.105 139.399 646.865 140.187 649.249 140.187ZM674.679 116.785V134.715C674.679 136.438 675.073 137.777 675.861 138.73C676.668 139.665 677.869 140.132 679.464 140.132C680.637 140.132 681.737 139.876 682.764 139.362C683.79 138.831 684.762 138.107 685.679 137.19V116.785H692.471V145H688.319C687.439 145 686.861 144.587 686.586 143.762L686.119 141.507C685.532 142.094 684.927 142.635 684.304 143.13C683.68 143.607 683.011 144.019 682.296 144.367C681.599 144.697 680.839 144.954 680.014 145.138C679.207 145.339 678.336 145.44 677.401 145.44C675.861 145.44 674.495 145.183 673.304 144.67C672.13 144.138 671.14 143.396 670.334 142.442C669.527 141.489 668.913 140.362 668.491 139.06C668.088 137.74 667.886 136.292 667.886 134.715V116.785H674.679ZM719.578 145C718.698 145 718.121 144.587 717.846 143.762L717.296 141.04C716.709 141.7 716.095 142.296 715.453 142.827C714.812 143.359 714.115 143.817 713.363 144.202C712.63 144.587 711.833 144.881 710.971 145.083C710.128 145.303 709.211 145.413 708.221 145.413C706.681 145.413 705.269 145.092 703.986 144.45C702.703 143.808 701.593 142.882 700.658 141.672C699.742 140.444 699.027 138.932 698.513 137.135C698.018 135.338 697.771 133.285 697.771 130.975C697.771 128.885 698.055 126.942 698.623 125.145C699.192 123.348 700.008 121.79 701.071 120.47C702.134 119.15 703.408 118.123 704.893 117.39C706.378 116.638 708.047 116.262 709.898 116.262C711.475 116.262 712.823 116.519 713.941 117.032C715.059 117.527 716.058 118.197 716.938 119.04V104.135H723.731V145H719.578ZM710.531 140.022C711.943 140.022 713.143 139.729 714.133 139.142C715.123 138.556 716.058 137.722 716.938 136.64V123.99C716.168 123.055 715.325 122.395 714.408 122.01C713.51 121.625 712.538 121.432 711.493 121.432C710.467 121.432 709.532 121.625 708.688 122.01C707.863 122.395 707.158 122.982 706.571 123.77C706.003 124.54 705.563 125.53 705.251 126.74C704.939 127.932 704.783 129.343 704.783 130.975C704.783 132.625 704.912 134.027 705.168 135.182C705.443 136.319 705.828 137.254 706.323 137.987C706.818 138.702 707.423 139.225 708.138 139.555C708.853 139.867 709.651 140.022 710.531 140.022Z" fill="#00ABBD"/>
<path d="M772.461 105.185C773.048 105.185 773.655 105.204 774.261 105.261C774.185 104.334 774.128 103.389 774.128 102.462C774.128 85.6711 787.804 72 804.642 72C819.322 72 831.634 82.3431 834.494 96.2789C838.642 93.6695 843.453 92.2702 848.396 92.2702C861.958 92.2702 873.134 102.613 874.422 115.812C874.914 115.793 875.388 115.774 875.861 115.774C890.275 115.774 902 127.497 902 141.887C902 156.277 890.275 168 875.861 168H781.345C781.269 168 781.193 168 781.117 167.981C781.042 168 780.966 168 780.89 168H772.461C755.13 168 741 153.913 741 136.592C741 119.272 755.13 105.185 772.461 105.185ZM800.324 141.206C802.161 145.328 806.082 148.808 813.223 155.104C815.401 157.052 818.072 159.396 821.14 162.195C821.235 162.29 821.348 162.327 821.519 162.327C821.652 162.327 821.765 162.29 821.898 162.214C825.118 159.264 827.864 156.882 830.289 154.783L830.364 154.707C837.695 148.316 841.009 145.328 842.714 141.187C844.476 136.857 844.438 131.166 844.343 120.804C844.305 118.043 844.286 114.772 844.286 111.009C844.286 110.839 844.21 110.669 844.097 110.574C844.021 110.517 843.907 110.442 843.737 110.442C843.699 110.442 843.68 110.461 843.642 110.461C835.687 111.935 828.357 110.479 821.822 106.149C821.633 106.017 821.348 106.036 821.159 106.187C816.14 110.442 809.037 111.841 799.49 110.461C799.339 110.442 799.168 110.498 799.036 110.593C798.922 110.687 798.865 110.82 798.865 111.009C798.865 115.358 798.808 118.988 798.752 122.203L798.733 122.903C798.562 132.054 798.486 137.103 800.324 141.206Z" fill="#00ABBD"/>
<path d="M831.955 126.833H830.042V125.547C830.042 120.838 826.197 117 821.481 117C816.765 117 812.92 120.838 812.92 125.547V126.851H811.044C809.908 126.851 808.999 127.778 808.999 128.894V142.376C808.999 144.664 810.855 146.536 813.147 146.536H829.701C832.088 146.536 834.02 144.626 834.02 142.262V128.894C834.001 127.759 833.073 126.833 831.955 126.833ZM821.481 120.214C824.436 120.214 826.841 122.597 826.841 125.528V126.719H816.159V125.547C816.159 122.616 818.545 120.214 821.481 120.214ZM829.683 143.321H813.128C812.617 143.321 812.2 142.905 812.2 142.395V130.047H830.8V142.262C830.8 142.848 830.308 143.321 829.683 143.321Z" fill="#00ABBD"/>
<defs>
<linearGradient id="paint0_linear_1008_738" x1="31.6024" y1="21.2851" x2="123.698" y2="21.2851" gradientUnits="userSpaceOnUse">
<stop offset="5.43435e-07" stop-color="#FABE3E"/>
<stop offset="1" stop-color="#007AE8"/>
</linearGradient>
<linearGradient id="paint1_linear_1008_738" x1="0" y1="63.9495" x2="112.474" y2="63.9495" gradientUnits="userSpaceOnUse">
<stop offset="3.40978e-07" stop-color="#F63966"/>
<stop offset="1" stop-color="#FABE3E"/>
</linearGradient>
<linearGradient id="paint2_linear_1008_738" x1="21.8498" y1="69.0356" x2="146.645" y2="69.0356" gradientUnits="userSpaceOnUse">
<stop offset="5.43435e-07" stop-color="#F63966"/>
<stop offset="1" stop-color="#007AE8"/>
</linearGradient>
<clipPath id="clip0_1008_738">
<rect width="146.659" height="105.162" fill="white"/>
</clipPath>
</defs>
</svg>
