<svg width="886" height="103" viewBox="0 0 886 103" fill="none" xmlns="http://www.w3.org/2000/svg">
<path d="M194.098 67.3205C194.098 72.3593 194.098 77.1388 190.825 79.7324C188.694 81.3996 185.725 81.8072 181.463 80.955C176.857 79.9917 173.09 77.25 170.958 73.3597C169.322 75.4716 168.827 78.3985 169.664 81.3255C170.996 86.105 176.249 91.218 187.019 91.218C190.863 91.218 194.288 90.3288 197.143 88.5874C204.297 83.9191 204.868 75.9903 204.868 64.3935V13.264C201.367 13.5975 198.513 14.709 196.648 16.4874C194.935 18.1176 194.098 20.2295 194.098 22.823V67.3205V67.3205Z" fill="#323F53"/>
<path d="M240.872 91.3291C260.282 91.3291 268.54 81.659 268.54 59.0212V13.1899C264.887 13.3752 262.299 14.2644 260.586 15.8576C258.683 17.636 257.77 20.5629 257.77 24.8237V61.2442C257.77 74.6564 252.023 81.4367 240.72 81.4367C230.139 81.4367 224.773 74.7676 224.773 61.5777V13.1529H213.888V59.0212C213.926 85.8457 224.697 91.3291 240.872 91.3291Z" fill="#323F53"/>
<path d="M325.4 62.9486C322.507 56.8352 314.515 50.4626 307.474 44.7939C302.831 41.0888 298.492 37.6061 295.98 34.4939C294.001 32.0115 293.659 29.2327 294.953 26.6763C296.666 23.2306 301.309 20.8964 306.446 20.8594C309.491 20.7853 317.027 21.6374 322.545 29.8255C324.067 28.3435 324.905 26.6763 325.019 24.8608C325.247 22.1191 323.839 19.1921 321.175 16.8209C317.483 13.4122 311.09 11.4115 304.049 11.4115C293.925 11.4115 283.459 18.2288 283.459 29.6032C283.459 39.3104 293.24 47.091 301.879 53.9824C306.218 57.428 310.328 60.6885 313.031 64.023C316.722 68.5802 317.369 73.3227 314.819 77.1018C311.965 81.2885 305.838 83.0298 299.596 81.3626C294.306 79.9176 288.179 74.9899 284.449 69.3212L275.962 75.3975C282.089 85.5493 293.012 92.0701 303.973 92.0701C312.764 92.0701 319.881 88.6985 323.953 82.5852C327.759 76.8424 328.292 69.3212 325.4 62.9486Z" fill="#323F53"/>
<path d="M386.712 13.1529H334.534V23.6381H353.106V89.9213H364.219V23.6381H376.36C380.737 23.6381 385.76 20.3407 386.712 13.1529Z" fill="#323F53"/>
<path d="M433.295 12.4119C470.097 12.4119 464.883 66.5424 433.181 66.5424C417.196 66.5424 416.968 54.8345 421.192 49.1288C422.791 52.204 430.593 52.6486 433.98 52.0928C446.197 49.8698 448.48 26.7133 431.164 26.7133H418.376C418.376 47.6468 418.376 68.6173 418.376 89.5878H403.419V25.9723C403.419 17.9324 406.806 12.4119 415.864 12.4119H433.295V12.4119Z" fill="#00ABBD"/>
<path d="M513.712 26.8615H483.113V43.9417H513.712C513.37 50.796 510.439 58.0579 501.267 58.0579H483.152V75.1381H513.751V89.5878H468.118V25.75C468.118 17.2655 473.675 12.4119 481.134 12.4119H513.751V26.8615H513.712Z" fill="#00ABBD"/>
<path d="M554.93 12.4119C588.231 12.4119 587.203 56.4277 563.417 65.1345L583.245 89.6248H564.787L542.827 62.504C539.554 58.4284 540.239 52.7968 542.827 49.1658C544.426 52.241 552.228 52.6856 555.729 52.1299C567.946 49.9068 570.229 26.7504 552.913 26.7504H540.125C540.125 47.6838 540.125 68.6543 540.125 89.6248H525.054V25.9723C525.054 17.9324 528.441 12.4119 537.613 12.4119H554.93V12.4119Z" fill="#00ABBD"/>
<path d="M640.219 26.8615H609.506V43.9417H640.219C639.876 50.796 636.946 58.0579 627.66 58.0579H609.544C609.544 68.6543 609.544 79.1025 609.544 89.5878H594.587V25.4165C594.587 17.4878 597.745 12.4119 607.146 12.4119H640.219V26.8615V26.8615Z" fill="#00ABBD"/>
<path d="M718.962 22.7489C726.992 30.5666 730.988 40.1626 730.988 51.4259C730.988 62.5781 727.144 72.063 719.19 79.7694C711.274 87.4759 701.759 91.3662 690.418 91.3662C678.62 91.3662 668.801 87.4018 660.961 79.473C653.159 71.5443 649.277 62.0594 649.277 51.1295C649.277 46.8317 650.076 40.1996 652.322 35.9018C659.667 21.5633 686.879 24.4162 682.121 42.3115C676.336 35.5683 663.891 38.6806 664.462 53.1302C664.805 60.8367 667.849 66.913 673.748 71.5443C678.506 75.3975 684.062 77.3982 690.38 77.3982C697.421 77.3982 703.396 74.8788 708.382 69.914C713.367 64.8381 715.841 58.7619 715.841 51.3889C715.841 44.127 713.367 37.9396 708.382 32.8637C703.282 27.8989 697.269 25.3795 690.037 25.3795C686.764 25.3795 683.796 25.8241 680.98 26.8245C675.537 21.9709 665.452 21.6374 658.221 26.0464C661.379 22.1932 665.261 18.9698 669.676 16.4504C676.146 12.8194 682.921 11.041 690.304 11.041C701.379 10.9669 711.008 14.9313 718.962 22.7489Z" fill="#00ABBD"/>
<path d="M769.922 12.4119C803.223 12.4119 802.195 56.4277 778.409 65.1345L798.237 89.6248H779.779L757.819 62.504C754.546 58.4284 755.231 52.7968 757.819 49.1658C759.418 52.241 767.22 52.6856 770.721 52.1299C782.938 49.9068 785.221 26.7504 767.905 26.7504H755.079C755.079 47.6838 755.079 68.6543 755.079 89.6248H740.008V25.9723C740.008 17.9324 743.395 12.4119 752.567 12.4119H769.922V12.4119Z" fill="#00ABBD"/>
<path d="M847.599 66.209L866.171 12.3007H870.929H871.043H886V89.4766H870.929V40.9407L858.598 76.6943C857.114 80.9921 856.01 86.1792 859.511 88.5874C855.439 90.6993 849.883 90.5882 846.724 89.3655C841.167 87.2536 838.237 81.659 836.524 76.6943L824.65 41.941V89.4766H809.579C809.579 67.654 809.579 45.7943 809.579 23.8604C809.579 16.7097 814.564 12.2637 822.48 12.2637H829.179L847.599 66.209Z" fill="#00ABBD"/>
<path d="M111.397 28.64C112.995 31.4188 114.936 36.5688 115.964 39.4957C118.971 39.7551 121.825 40.5331 124.451 41.6817C123.842 39.1993 122.167 33.3454 118.362 25.8241C114.213 17.636 107.134 11.1893 98.9899 6.63206C90.8834 2.11192 81.6352 -0.222258 72.349 4.41622e-05C65.194 0.148246 58.001 1.81551 51.531 4.77954C44.985 7.78062 39.2762 12.0044 34.557 17.3396L31.7787 20.4518L35.9271 19.6367C37.0308 19.4144 38.1725 19.2662 39.3143 19.118C40.456 19.0069 41.5978 18.9328 42.8537 18.8957L43.3865 18.8216L43.7291 18.5252C47.611 15.0425 52.1019 12.2637 57.0114 10.3371C61.959 8.41048 67.135 7.37307 72.4632 7.22487C80.3413 7.03961 88.0671 8.92918 94.8796 12.6713C101.73 16.4875 107.515 21.9709 111.397 28.64Z" fill="url(#paint0_linear_5_86)"/>
<path d="M82.3965 52.0187L82.6248 51.6852C83.386 50.5737 83.5763 50.2773 84.8703 49.0547C86.0881 47.8691 87.4202 46.7946 88.8664 45.7942C93.5476 41.8298 99.6369 39.3845 106.297 39.3845H113.224L110.712 32.5302C110.712 32.5302 107.477 32.345 104.585 32.5302C98.1907 32.9007 95.2222 33.5306 90.1604 35.7536C85.7837 37.6802 82.0159 40.496 78.7429 43.9047C75.4698 37.495 70.5223 32.9007 64.3568 28.9363C57.5824 24.6014 49.7043 22.3043 41.5598 22.3043C30.4848 22.3043 20.0568 26.491 12.2168 34.1234C4.3006 41.7187 0 51.8705 0 62.6522C0 72.9892 3.99613 82.8076 11.2272 90.2917C18.5344 97.85 28.3916 102.333 38.9338 102.963L39.2382 103C39.3905 103 39.5046 103 39.6569 103L40.2277 103.037L40.3419 102.926C41.1031 102.778 41.8262 102.444 42.359 101.926C43.1202 101.259 43.5008 100.332 43.5008 99.3691C43.5008 98.3687 43.0441 97.4054 42.2829 96.7014C41.5217 96.0345 40.5322 95.664 39.5046 95.627C39.3905 95.627 39.2763 95.627 39.086 95.627L39.0479 95.664C30.4467 95.0712 22.4545 91.3662 16.5554 85.1788C10.6944 79.0655 7.45945 71.0626 7.45945 62.6522C7.45945 53.7971 10.9989 45.4978 17.4308 39.2363C23.8626 32.9748 32.3877 29.5291 41.4837 29.5291C47.8014 29.5291 54.0049 31.2334 59.3711 34.4939C64.7754 37.7543 69.1521 42.4597 72.0065 48.0173C72.1968 48.3878 72.3491 48.8694 72.5393 49.3881C72.9199 50.5367 73.3386 51.7964 74.3281 52.7968C74.5945 53.0561 74.8609 53.2784 75.1654 53.4637C76.1168 54.0935 77.3347 54.3529 78.5526 54.2047C79.7324 54.0565 80.8361 53.5748 81.6734 52.7968C81.9398 52.5745 82.1681 52.2781 82.3965 52.0187Z" fill="url(#paint1_linear_5_86)"/>
<path d="M142.529 48.4248C139.066 42.7561 133.966 38.1248 127.762 35.0497L124.642 33.4936L125.707 36.754C126.05 37.7543 126.354 38.7177 126.621 39.718C126.887 40.7184 127.115 41.6817 127.344 42.8302L127.496 43.2748C135.032 47.8691 140.131 55.9831 140.131 65.2457C140.131 66.1719 140.055 67.0982 139.979 68.0245C139.789 71.5072 138.952 74.8788 137.429 78.0651C135.717 81.696 133.129 84.9935 130.008 87.587C127.496 89.6989 124.642 91.3662 121.597 92.5147C118.552 93.6633 115.394 94.3302 112.235 94.4043H78.8955C77.259 94.4043 75.8508 94.3672 74.4807 94.2931C73.0345 94.182 71.7025 94.0338 70.2182 93.8115C62.4162 92.4777 55.109 89.1432 49.0958 84.1414C43.2728 79.2878 38.82 72.9892 36.2701 65.9496L35.547 63.7637C34.7858 61.1702 34.253 58.4284 33.9866 55.5756H38.135L30.6375 36.4205L21.9982 55.5756H26.4891C27.1361 63.5784 29.7621 71.396 34.1008 78.1763L34.2149 78.3615C34.3672 78.6579 34.6336 79.0284 34.9 79.3989C35.6231 80.4363 36.6507 81.8072 36.8029 81.9924C38.8581 84.623 41.2177 87.0683 43.7676 89.2543C45.4802 90.7363 47.307 92.0701 49.248 93.3298L49.0958 93.3669L51.4935 94.7007C51.5315 94.7378 51.6076 94.7748 51.6457 94.7748L51.4935 94.8489L53.6247 95.8863L53.5486 95.9234L55.7941 96.9237L55.6038 96.9978L56.7455 97.4424L56.7075 97.4795L59.1432 98.3687L58.991 98.4428L60.1708 98.8133L59.9424 98.8874L63.4438 99.7766L63.2535 99.8877L67.1735 100.666C69.0384 101.036 70.9413 101.333 72.8442 101.481C74.4427 101.629 76.0411 101.703 77.6015 101.703C77.944 101.703 78.2485 101.703 78.553 101.703H111.435C114.594 101.518 117.258 101.259 119.884 100.666C122.663 100.073 125.289 99.1097 128.067 97.7018C133.7 94.8489 138.495 90.5511 141.92 85.2899C145.307 80.0658 147.248 74.0637 147.477 67.8763L147.515 67.3205C147.705 60.6144 145.992 54.0935 142.529 48.4248Z" fill="url(#paint2_linear_5_86)"/>
<defs>
<linearGradient id="paint0_linear_5_86" x1="31.7945" y1="20.8471" x2="124.45" y2="20.8471" gradientUnits="userSpaceOnUse">
<stop offset="5.43435e-07" stop-color="#FABE3E"/>
<stop offset="1" stop-color="#007AE8"/>
</linearGradient>
<linearGradient id="paint1_linear_5_86" x1="0" y1="62.6338" x2="113.158" y2="62.6338" gradientUnits="userSpaceOnUse">
<stop offset="3.40978e-07" stop-color="#F63966"/>
<stop offset="1" stop-color="#FABE3E"/>
</linearGradient>
<linearGradient id="paint2_linear_5_86" x1="21.9831" y1="67.6153" x2="147.537" y2="67.6153" gradientUnits="userSpaceOnUse">
<stop offset="5.43435e-07" stop-color="#F63966"/>
<stop offset="1" stop-color="#007AE8"/>
</linearGradient>
</defs>
</svg>
