<svg width="88" height="67" viewBox="0 0 88 67" fill="none" xmlns="http://www.w3.org/2000/svg">
<g clip-path="url(#clip0_1174_636)">
<path d="M55.5721 0C51.3633 0 47.3463 0.841103 43.6523 2.34678C43.5412 2.30524 43.4403 2.25332 43.3293 2.22217C39.8775 0.913791 36.133 0.20768 32.2472 0.20768C28.3614 0.20768 24.6168 0.913791 21.165 2.22217C20.1759 2.596 19.207 3.01136 18.2683 3.47863C16.8553 4.18475 15.5029 4.98431 14.221 5.87733C13.3631 6.47961 12.5355 7.11303 11.7382 7.78799C10.5472 8.80562 9.42687 9.90632 8.3772 11.0797C8.03403 11.4743 7.69087 11.8793 7.3679 12.2843C6.37878 13.5096 5.4805 14.8179 4.67306 16.1886C4.12804 17.1024 3.63348 18.037 3.18939 19.0131C1.14051 23.3536 0 28.2341 0 33.3845C0 38.535 1.14051 43.4154 3.1793 47.7663C3.63348 48.732 4.12804 49.677 4.66297 50.5908C5.47041 51.9615 6.36869 53.2698 7.3578 54.4951C7.68078 54.9105 8.02394 55.3051 8.3671 55.6997C9.40668 56.8731 10.527 57.9738 11.7281 58.9914C12.5254 59.6664 13.353 60.3102 14.211 60.9021C15.4928 61.7951 16.8452 62.5947 18.2582 63.3008C19.1969 63.768 20.1658 64.1834 21.1549 64.5572C24.6068 65.8552 28.3412 66.5717 32.2371 66.5717C34.296 66.5717 36.3146 66.364 38.2727 65.9798C40.0087 65.6372 41.7043 65.1699 43.3293 64.5572C43.6119 64.4534 43.8844 64.3288 44.1569 64.2249C44.2679 64.173 44.379 64.1315 44.4799 64.09C45.0653 63.8407 45.6406 63.5811 46.2159 63.3008C46.8114 63.01 47.3867 62.6881 47.962 62.3558C48.7492 61.8989 49.5163 61.4213 50.2632 60.9021C51.1211 60.3102 51.9487 59.6664 52.7461 58.9914C53.5434 58.3165 54.3004 57.6 55.0372 56.8523C55.774 56.1047 56.4603 55.3155 57.1163 54.4951C58.1054 53.2698 59.0037 51.9615 59.8112 50.5908C60.2956 49.7808 60.7296 48.9397 61.1434 48.0778C61.1939 47.974 61.2444 47.8702 61.2948 47.7663C61.7288 46.8422 62.1225 45.8868 62.4757 44.9107L73.8001 56.8004L75.859 58.9395C76.616 58.3061 77.3326 57.6415 78.029 56.9562C84.0546 50.9231 87.7991 42.5016 87.7991 33.1768C87.8092 14.8595 73.3762 0 55.5721 0ZM42.9357 61.494C42.0878 61.8366 41.2097 62.1378 40.3216 62.4077C37.7579 63.1658 35.0429 63.5811 32.2472 63.5811C16.0681 63.5811 2.89669 50.0404 2.89669 33.3845C2.89669 16.7286 16.0681 3.18788 32.2472 3.18788C34.8713 3.18788 37.4148 3.55132 39.8371 4.2159C41.1593 4.57934 42.4411 5.03623 43.6825 5.5762C33.3978 10.2801 26.2115 20.8822 26.2115 33.1768C26.2115 45.4715 33.4079 56.0735 43.6825 60.7775C43.8339 60.8501 43.9752 60.9228 44.1266 60.9851C43.733 61.1617 43.3293 61.3382 42.9256 61.5043L42.9357 61.494ZM75.9902 54.8274L63.4446 41.8059C64.131 39.1165 64.4943 36.292 64.4943 33.3741C64.4943 28.2237 63.3538 23.3432 61.315 18.9923C60.8608 18.0266 60.3663 17.0817 59.8313 16.1679C59.0239 14.7972 58.1256 13.4992 57.1365 12.2635C56.4805 11.4432 55.784 10.654 55.0574 9.90632C54.3307 9.15867 53.5636 8.44218 52.7662 7.76722C51.9689 7.09226 51.1413 6.45884 50.2834 5.85657C49.3952 5.23353 48.4565 4.66241 47.4977 4.13283C50.0613 3.37479 52.7763 2.95944 55.5721 2.95944C71.7512 2.95944 84.9226 16.5001 84.9226 33.1561C84.9226 41.6398 81.4909 49.3239 75.9902 54.8067V54.8274Z" fill="url(#paint0_linear_1174_636)"/>
</g>
<defs>
<linearGradient id="paint0_linear_1174_636" x1="-4.01702" y1="48.649" x2="73.3827" y2="23.4832" gradientUnits="userSpaceOnUse">
<stop stop-color="#F63966"/>
<stop offset="0.06" stop-color="#F6515E"/>
<stop offset="0.2" stop-color="#F9914C"/>
<stop offset="0.4" stop-color="#F9BD3E"/>
<stop offset="0.41" stop-color="#FABE3E"/>
<stop offset="0.59" stop-color="#F63966"/>
<stop offset="0.94" stop-color="#007AE8"/>
</linearGradient>
<clipPath id="clip0_1174_636">
<rect width="87.8092" height="66.551" fill="white"/>
</clipPath>
</defs>
</svg>
