<svg width="62" height="62" viewBox="0 0 62 62" fill="none" xmlns="http://www.w3.org/2000/svg">
<path d="M0 0V62H62V0H0ZM44.2314 25.0748C45.8166 25.0748 47.3032 25.4834 48.5995 26.195C45.8166 31.472 42.4559 36.6505 38.75 41.3991C36.5659 39.7434 35.1498 37.1155 35.1498 34.1564C35.1498 29.14 39.215 25.0748 44.2314 25.0748ZM38.8205 41.9416C40.4127 43.0548 42.2727 43.6325 44.2314 43.6325C49.4591 43.6325 53.7075 39.3841 53.7075 34.1564C53.7075 30.8239 51.9602 27.752 49.128 26.04C51.4952 21.5098 53.3623 17.05 54.6939 12.7664C55.948 8.73636 56.6807 4.95295 56.8991 1.49364H60.605V60.605H18.0716C20.9884 59.0268 23.9898 56.9414 27.0405 54.3486C31.0986 50.8964 35.0652 46.7255 38.8205 41.9486V41.9416Z" fill="url(#paint0_linear_558_35)"/>
<defs>
<linearGradient id="paint0_linear_558_35" x1="-22.1016" y1="80.0505" x2="59.0761" y2="5.06568" gradientUnits="userSpaceOnUse">
<stop stop-color="#F63966"/>
<stop offset="0.01" stop-color="#F6515E"/>
<stop offset="0.05" stop-color="#F9914C"/>
<stop offset="0.33" stop-color="#F9BD3E"/>
<stop offset="0.34" stop-color="#FABE3E"/>
<stop offset="0.59" stop-color="#F63966"/>
<stop offset="1" stop-color="#007AE8"/>
</linearGradient>
</defs>
</svg>
